<?xml version="1.0" encoding="utf-8"?>
<!-- Generator: Adobe Illustrator 27.4.0, SVG Export Plug-In . SVG Version: 6.00 Build 0)  -->
<svg version="1.1" id="Layer_1" xmlns="http://www.w3.org/2000/svg" xmlns:xlink="http://www.w3.org/1999/xlink" x="0px" y="0px"
	 viewBox="0 0 150 49.7" style="enable-background:new 0 0 150 49.7;" xml:space="preserve">
<g>
	<path d="M111.9,41.6c0,0.1,0,0.2,0,0.3c-0.1,0.6-0.4,0.9-1,0.9c-0.2,0-0.4,0-0.6,0c-4.7,0-9.4,0-14.1,0c-4.5,0-9.1,0-13.6,0
		c-1.4,0-2.9,0-4.3,0c-3.5,0-7,0-10.6,0c-7.7,0-15.5,0-23.2,0c-0.9,0-1.1-0.2-1.5-1.2c-0.3,0-0.7,0-1.1,0c-0.2,0-0.2,0.1-0.3,0.3
		c-0.9,2.5-2.4,4.4-4.7,5.9c-4.5,3-10.6,2.6-14.7-0.9c-1.8-1.6-3.1-3.5-3.7-5.9c0-0.2-0.1-0.3-0.3-0.3c-0.2,0-0.3,0-0.4,0.2
		c-0.3,0.6-0.8,0.7-1.4,0.7c-0.8-0.1-1.5-0.2-2.3-0.3C12,41,9.9,40.7,7.8,40.4c-0.4,0-0.8,0-1.2,0c-1.8,0.1-3.5,0.2-5.3,0.3
		c-0.8,0-1.1-0.3-1.2-1.1c0-0.3-0.1-0.6,0-1c0-0.2,0-0.4,0.2-0.6c0.1-0.2,0.1-0.3,0.1-0.6c-0.3-1.1-0.6-2.3-0.3-3.5
		c0.1-0.5,0.1-1,0.1-1.6c0-1.1-0.1-2.1-0.2-3.2c-0.2-1.3,0.2-2.3,1.1-3.2c0.6-0.6,1.3-1.2,1.9-1.8C3.1,24,3.2,24,3.2,23.9
		C4,23.6,4,23.1,4,22.5c0-1.7,0-3.4,0-5.1c0-0.2,0-0.3,0-0.5c0-0.3,0.1-0.7-0.2-1c-0.3-0.3-0.2-0.8-0.1-1.2c0.1-0.3,0.2-0.6,0.3-0.9
		c-0.2-0.2-0.4-0.4-0.2-0.8c0.2-0.3,0.5-0.4,0.8-0.4c0.7,0.1,1.5,0.1,2.2,0.2c1.6,0.2,3.1,0,4.6-0.2c1.8-0.3,3.7-0.6,5.6-0.9
		c0.4-0.1,0.9,0,1.4-0.1c0.1,0,0.3,0,0.4-0.1c3.4-1.9,7-3.4,10.6-4.9c2.7-1.1,5.4-2.2,8.1-3.3c0.1,0,0.2-0.1,0.3-0.2
		c0.4-0.2,0.8-0.3,1.3-0.5c0.3-0.1,0.5-0.2,0.6-0.4c0.2-0.4,0.3-0.8,0.5-1.1c0.2-0.5,0.7-0.8,1.3-0.8c1.5-0.1,2.9,0,4.3,0.4
		C46.5,1,47.1,1,47.7,0.9c3-0.5,6.1-0.8,9.2-0.9c1.7,0.1,3.6,0,5.5,0c3.4,0,6.7,0.2,10.1,0.6c2.1,0.3,4.2,0.5,6.3,1
		c1.5,0.3,2.9,0.8,4.3,1.2c0.6,0.2,1,0.6,1.6,0.8c4.8,2.3,9.5,4.8,14.1,7.5c1.7,1,3.4,1.9,5.1,3c0.6,0.3,1.1,0.5,1.8,0.5
		c3.4,0.2,6.8,0.3,10.3,0.6c3,0.2,6,0.6,9,1c2.6,0.3,5.2,0.7,7.7,1.3c5,1.1,9.7,2.8,14.2,5.2c0.9,0.5,1.5,1.2,2,2.1
		c0.2,0.3,0.2,0.7,0.2,1c0.1,1.1,0,2.1-0.2,3.2c0,0.1,0,0.3,0,0.4c0.2,0.3,0.4,0.7,0.7,1c0.5,0.6,0.6,1.3,0.4,2
		c-0.4,1.8-0.8,3.5-0.9,5.3c-0.1,1.2-0.2,2.4-0.3,3.7c0,0.8-0.4,1.3-1.3,1.4c-1.2,0.1-2.4,0.2-3.6,0.3c-1.6,0.1-3.2,0.1-4.8,0.2
		c-0.2,0-0.5,0-0.7,0c-0.7-0.1-1-0.4-1.1-1.1c0-0.1,0-0.3,0-0.4c-0.4,0-0.8,0-1.2,0c-0.1,0-0.2,0.1-0.2,0.2c-1.6,4.1-4.6,6.6-9,7.6
		c-5.5,1.1-11.3-1.9-13.4-7.1c-0.3-0.7-0.3-0.7-1.1-0.7C112.3,41.6,112.1,41.6,111.9,41.6z M33.6,9.5c-0.3,0.2-0.6,0.4-0.9,0.6
		c-0.3,0.3-0.6,0.6-0.9,0.9c-0.2,0.2-0.2,0.5,0,0.8c0.6,0.8,1.4,1.6,2.5,1.8c0.9,0.1,1.9,0.2,2.8,0.2c3.5,0.1,6.9,0.2,10.4,0.3
		c1.8,0,3.6,0.1,5.5,0.2c1.7,0,3.5,0.1,5.2,0.1c0.1,0,0.2,0,0.3,0c0,0,0,0,0-0.1c-1,0-2-0.1-3-0.1c-1.7,0-3.4-0.1-5.1-0.1
		c-2.9-0.1-5.8-0.2-8.7-0.3c-2.2-0.1-4.3-0.2-6.4-0.3c-0.7,0-1.3-0.3-1.8-0.8c-1-1-1-2.3,0-3.1C33.6,9.6,33.6,9.5,33.6,9.5
		c3-1.7,6-3,9.3-4.1c4.2-1.3,8.4-2,12.8-2.2c1.6-0.1,3.3-0.1,5-0.1c1.8,0,3.6,0,5.4,0c2.1,0.1,4.2,0.1,6.3,0.3
		c3.1,0.3,6.1,1.1,9,2.4c2.7,1.2,5.3,2.7,7.8,4.3c0.1,0,0.2,0.1,0.3,0.2c0-0.1,0-0.1-0.1-0.2C87,8.6,84.6,7.2,82,6
		c-2.7-1.3-5.5-2.1-8.5-2.6C71,3.1,68.4,3,65.8,3c-2.5,0-5,0-7.5,0c-3.2,0-6.3,0.3-9.5,0.9C44.4,4.7,40.1,6,36.1,8
		C35.2,8.5,34.4,9,33.6,9.5z M101.6,38.3C101.6,38.3,101.7,38.2,101.6,38.3c0.4-3.1,0.8-6,0.9-9c0.1-2.6,0.1-5.1-0.1-7.7
		c-0.1-1.1-0.4-2.1-1.2-2.9c-0.7-0.6-1.4-1.2-2.1-1.8c-0.1-0.1-0.3-0.1-0.4-0.1c-1.6-0.1-3.2-0.1-4.9-0.2c-4.9-0.2-9.7-0.4-14.5-0.6
		c-3.7-0.1-7.4-0.3-11.1-0.5c-3.2-0.1-6.3-0.2-9.5-0.3c-0.1,0-0.3,0-0.4,0.1c-0.4,0.4-0.8,0.9-1.2,1.4c-0.3,0.4-0.5,0.9-0.4,1.4
		c0.1,0.8,0.1,1.6,0.3,2.4c0.5,3.2,1.1,6.4,1.9,9.6c0.6,2.3,1.2,4.6,2.1,6.8c0.1,0.2,0.1,0.3,0.3,0.3c3.7,0.1,7.3,0.2,11,0.4
		c2.8,0.1,5.6,0.1,8.3,0.2c3.5,0.1,7,0.2,10.5,0.3c2.5,0.1,5,0.1,7.4,0.2C99.6,38.3,100.6,38.3,101.6,38.3z M7.4,14.1
		c-0.1,0.4-0.1,0.5-0.6,0.4c-0.4,0-0.8-0.1-1.2-0.1c-0.7-0.1-0.8-0.1-1,0.6c0,0,0,0,0,0.1c-0.1,0.4,0.1,0.8,0.5,0.9
		c2,0.3,4.1,0.6,6.1,0.9c0.7,0.1,1.5,0.2,2.2,0.4c0.7,0.2,0.9,0.7,0.7,1.3c0,0.1-0.1,0.3-0.2,0.4c-0.6,0.9-1.3,1.8-2,2.6
		c-0.4,0.5-0.4,0.5,0,0.9c0.1,0.1,0.2,0.3,0.4,0.4c0.5,0.2,1,0.5,1.5,0.7c2.9,1,5.9,1.9,8.8,2.9c0.3,0.1,0.6,0.1,0.8-0.1
		c2.9-1.7,5.9-2.2,9.2-1.6c5.6,1.1,9.6,5.2,10.6,10.7c0,0.2,0.1,0.2,0.3,0.2c1.6,0.2,3.1,0.4,4.7,0.5c3.8,0.3,7.5,0.5,11.3,0.7
		c0.3,0,0.6,0,0.9,0c-0.3-1-0.7-2-1-3c-0.9-3-1.6-6.1-2.2-9.1c-0.4-2.3-0.8-4.6-1-6.9c0-0.7,0.1-1.3,0.5-1.9c0.3-0.4,0.6-0.7,1-1.2
		c-0.5,0-0.9,0-1.3,0c-3.6-0.1-7.3-0.2-10.9-0.3c-2.8-0.1-5.7-0.1-8.5-0.2c-0.8,0-1.7-0.1-2.6-0.2c-1-0.1-1.8-0.8-2.5-1.5
		c-1-1-1-1.8,0-2.8c0,0,0.1-0.1,0.2-0.2c0.8-0.6,1.7-1.3,2.6-1.8c5.9-3.2,12.2-4.9,18.8-5.5c2.6-0.2,5.2-0.2,7.8-0.3
		c1.4,0,2.9,0,4.3,0c2,0,4,0.1,6,0.2c3.4,0.2,6.7,1.1,9.9,2.5c3,1.3,5.9,3,8.6,4.7C90.6,9.7,91,10,91.6,10c0.3,0,0.5,0.1,0.8,0.2
		c0.8,0.3,1.3,0.7,1.6,1.5c0,0.1,0.1,0.2,0.2,0.3c0.8,0.5,1.6,1.1,2.3,1.7c0.6,0.5,1.2,0.3,1.8,0.3c-0.8-0.6-1.7-1.2-2.6-1.8
		c-4.3-3-8.7-5.8-13.4-8c-0.6-0.3-0.6-0.6-0.1-1.1c0,0-0.1,0-0.1-0.1c-2.1-0.1-4.4-0.7-6.7-1c-3.9-0.6-7.9-0.9-11.8-1
		C59,0.9,54.5,1,49.9,1.6c-1.6,0.2-3.2,0.3-4.8,0.6C43,2.7,41,3,39,3.9c0.1,0.4,0.1,0.6-0.3,0.7c-1.4,0.6-2.8,1-4.2,1.7
		c-4,1.9-7.9,3.7-11.6,6.1C22,13,21.1,13.2,20.2,13c-0.5-0.1-1.1-0.2-1.6-0.1c-1.7,0.1-3.4,0.3-5.1,0.6c-1.4,0.2-2.9,0.5-4.4,0.7
		C8.5,14.2,8,14.1,7.4,14.1z M138.6,22C138.6,21.9,138.6,21.9,138.6,22c-0.2-0.2-0.4-0.3-0.7-0.4c-1-0.3-2-0.6-3-0.8
		c-2.9-0.6-5.9-1.2-8.8-1.7c-2.7-0.4-5.4-0.8-8.1-1.1c-2.7-0.3-5.4-0.3-8.1-0.5c-1.1-0.1-2.3-0.2-3.4-0.4c-1.2-0.3-2.3-0.9-3.4-1.5
		c-0.1-0.1-0.3-0.1-0.5-0.1c-0.9,0-1.7-0.1-2.6-0.1c-0.5,0-1.1,0-1.7,0c0.1,0.1,0.2,0.1,0.2,0.2c0.9,0.8,1.9,1.5,2.8,2.3
		c0.8,0.7,1.5,1.5,1.8,2.6c0.1,0.4,0.1,0.7,0.2,1.1c0.4,0,0.8-0.1,1-0.5c0.3-0.4,0.7-0.5,1.2-0.5c0.6,0,1.3,0,1.9,0
		c0.5,0,0.9,0.1,1.3,0.6c0.2,0.3,0.4,0.4,0.8,0.4s0.7,0.3,0.7,0.6c0,0.4-0.3,0.6-0.7,0.6c-0.1,0-0.3,0.1-0.4,0.2
		c-0.2,0.2-0.5,0.4-0.9,0.4c-1.1,0-2.3,0-3.4-0.1c-0.2,0-0.5-0.1-0.7-0.3c-0.2-0.3-0.5-0.3-0.8-0.3c0.2,5.3-0.1,10.5-0.9,15.7
		c0.1,0,0.2,0,0.3,0c1.2,0,2.5,0,3.7,0.1c1.5,0,3.1,0.1,4.6,0.1c0.2,0,0.3,0,0.3-0.2c0.1-1,0.2-1.9,0.4-2.9c0.5-3,1.8-5.5,4.1-7.6
		c3.3-3,7.2-4,11.6-3.2c5.2,0.9,9.5,5.2,10.4,10.4c0.3,2.2,0.4,4.5,0.6,6.7c0,0.5,0,0.5,0.5,0.5c1.9,0,3.8-0.1,5.7-0.2
		c0.1,0,0.3,0,0.5,0c-1-0.5-1.4-0.9-1.6-1.7c-0.1-0.3-0.1-0.7-0.1-1c0-1.5,0.1-3.1,0.2-4.6c0.1-1.2,0.3-2.3,0.5-3.5
		c0.1-0.6,0.5-0.9,1.1-1c0.5,0,1,0,1.5,0c0.6,0.1,1.3,0.2,1.9,0.3c-0.1-0.2-0.3-0.5-0.4-0.7c-0.1-0.2-0.2-0.4-0.2-0.6
		c0-0.8,0-1.6,0-2.4c0-0.5,0-0.9,0-1.4c0-0.6-0.2-1.1-0.7-1.4c-0.8-0.7-1.8-1.1-2.8-1.6c0,0.2,0,0.4,0,0.6c0.6,0.2,1.2,0.6,1.6,1.1
		c0.5,0.6,1,1.4,1.3,2.2c0.2,0.7,0.2,0.9-0.4,1.3l0,0c-0.5,0.6-1.1,0.6-1.8,0.5c-1.3-0.3-2.7-0.5-3.9-0.9c-2-0.7-4-1.5-5.9-2.3
		c-0.6-0.3-1.3-0.5-1.9-0.8c-0.5-0.2-0.5-0.6-0.2-1c0.1-0.1,0.1-0.2,0.2-0.3c0.5-0.5,1.2-0.6,1.9-0.7c1.1,0,2.1,0,3.2,0
		C138.4,22,138.5,22,138.6,22z M56.9,3.7c0.2,0.6,0.3,1.1,0.5,1.6c0.8,2.7,1.6,5.4,2.5,8.1c0,0.1,0.1,0.2,0.3,0.2
		c2.5,0.1,4.9,0.1,7.4,0.2c2.4,0.1,4.8,0.1,7.2,0.2c3.6,0.1,7.2,0.3,10.9,0.5c0.8,0,1.5,0.1,2.2,0.1c0-0.7,0.1-1.4,0.2-2.1
		c0.1-0.7,0.3-1.4,0.8-2c-2.3-1.5-4.7-2.8-7.2-4s-5.1-2-7.8-2.5c-2.4-0.4-4.7-0.5-7.1-0.5c-2.1,0-4.2,0-6.3,0
		C59.3,3.7,58.1,3.7,56.9,3.7z M11,22.3c-0.5,0.1-1,0.3-1.4,0.4c-1.7,0.6-3.5,0.6-5.1,1.6c-0.3,0.2-0.6,0.3-0.9,0.5
		c-0.7,0.7-1.4,1.4-2.1,2.1C1,27.4,0.9,28,0.9,28.7c0.1,1,0.1,2,0.2,3c0.1,0.8,0.1,1.7-0.1,2.5c-0.2,0.6-0.2,1.2,0,1.8
		c0.1,0.6,0.4,1.1,0.5,1.7c0.1,0.7,0.5,0.8,1,0.9c0.2,0,0.4,0.1,0.6,0.1c1.6,0.3,3.3,0.5,5,0.7c2.3,0.2,4.6,0.6,6.9,0.9
		c0.6,0.1,1.2,0.1,1.7,0.2c0.2,0,0.3-0.1,0.4-0.3c0.1-0.3,0-0.6,0-0.9c-0.2-1.2-0.1-2.5,0-3.7c0.4-2.8,1.7-5.3,3.8-7.3
		c0.4-0.4,0.9-0.8,1.3-1.2c-0.1,0-0.2-0.1-0.3-0.1c-2.8-0.9-5.5-1.8-8.3-2.8C12.6,23.9,11.5,23.5,11,22.3z M111.2,39.3
		c-0.1,0-0.2,0-0.3,0c-1.5,0-3-0.1-4.6-0.1c-2.7-0.1-5.4-0.1-8.1-0.2c-2,0-3.9-0.1-5.9-0.1c-2.7-0.1-5.4-0.1-8.1-0.2
		c-2.1,0-4.1-0.1-6.2-0.1c-3.3-0.1-6.7-0.2-10-0.3c-2.3-0.1-4.7-0.1-7-0.2c-1.4,0-2.8-0.1-4.1-0.2c-4.1-0.2-8.1-0.4-12.2-0.9
		c-0.4,0-0.8-0.1-1.2-0.1c0,0.7,0,1.5,0.1,2.2c0.1,0.8-0.1,1.6,0.4,2.3c0,0,0,0,0,0.1c0.1,0.7,0,0.7,0.8,0.7c0,0,0,0,0.1,0
		c8.7,0,17.3,0,26,0c2.2,0,4.4,0,6.7,0c3.9,0,7.8,0,11.8,0c2.6,0,5.3,0,7.9,0c4.5,0,8.9,0,13.4,0c0.1,0,0.2,0,0.3,0
		C111,41,111.1,40.2,111.2,39.3z M57.7,13.6L57.7,13.6c-0.9-3.2-1.9-6.3-2.9-9.5c0-0.2-0.1-0.2-0.3-0.2c-2.5,0.2-4.9,0.5-7.3,1
		c-4.5,1-8.8,2.5-12.7,4.8c-0.3,0.2-0.6,0.4-0.8,0.6c-0.3,0.3-0.4,0.8-0.1,1.2c0.3,0.7,0.9,1.1,1.7,1.2c1.9,0.1,3.9,0.2,5.8,0.3
		c2.9,0.1,5.8,0.2,8.6,0.3c1.9,0.1,3.8,0.1,5.7,0.2C56.1,13.6,56.9,13.6,57.7,13.6z M135.8,37.7c0-6.1-5-11-11.1-11
		c-6.5,0-11.1,5.1-11.1,10.9c0,6.2,5,11,10.9,11.1C130.7,48.8,135.8,43.8,135.8,37.7z M19.2,37.7c0.1,5.9,4.7,10.9,10.8,11
		c5.9,0.1,11.4-4.4,11.4-11.1c0-5.7-4.6-10.9-11.1-10.9C23.7,26.7,19.2,32,19.2,37.7z M104.6,15.5v0.1c0.7,0.3,1.5,0.7,2.2,0.8
		c1.5,0.2,3.1,0.4,4.7,0.4c2.9,0.2,5.9,0.3,8.8,0.7c3.9,0.5,7.7,1,11.6,1.9c2.1,0.4,4.1,1,6.2,1.5c0.6,0.1,1.2,0.5,1.6,1
		c0,0.1,0.2,0.1,0.3,0.1c0.6,0.1,1.3,0.2,1.9,0.3c0.6,0.1,1.2,0.2,1.8,0.4c0.1-0.5,0.1-0.6-0.2-0.7c-4.4-2-8.9-3.4-13.7-4.2
		c-2.2-0.4-4.4-0.7-6.6-1c-2.6-0.3-5.2-0.6-7.8-0.8c-2.1-0.2-4.2-0.3-6.3-0.4C107.5,15.6,106,15.6,104.6,15.5z M133.4,23.4
		c0.1,0,0.1,0.1,0.2,0.1c2.5,1,4.9,2.1,7.4,3c1.4,0.5,2.9,0.7,4.3,1c0.3,0.1,0.6,0,0.8-0.3c0.1-0.1,0.3-0.2,0.5-0.4
		c-0.2-0.4-0.4-0.9-0.6-1.3c-0.5-1-1.4-1.7-2.6-2c-1.4-0.3-2.8-0.7-4.2-0.7c-1.5,0-3,0-4.6,0C134.2,22.7,133.7,22.9,133.4,23.4z
		 M137.4,40.7c0-0.3,0-0.5,0-0.8c-0.1-1.5-0.2-3.1-0.4-4.6c-1.1-6.5-7.4-11.1-14-10.1c-5.2,0.8-8.7,3.7-10.3,8.7
		c-0.6,1.9-0.8,3.9-0.9,5.9c0,0.3,0,0.6,0,0.9c0.4,0,0.8,0,1.2,0c-0.9-3.6-0.3-7,1.9-10c2.2-3,5.3-4.6,9-4.9
		c3.4-0.2,6.5,0.8,8.9,3.2c3.4,3.3,4.5,7.2,3.4,11.8C136.7,40.8,137.1,40.8,137.4,40.7z M4.8,21.3c1.7-0.3,3.3-0.6,4.9-1.1
		c0.4-0.1,0.7-0.4,0.9-0.8c0.3-0.5,0.5-1.1,0.8-1.7c0,0,0-0.1,0-0.2c-2.2-0.3-4.4-0.6-6.6-0.9C4.9,18.1,4.9,19.7,4.8,21.3z
		 M148.5,34.6c-0.1,0-0.4-0.1-0.6-0.1c-0.5-0.1-1,0.1-1.3,0.5c-0.2,0.2-0.3,0.4-0.5,0.7c-0.7,1.2-1.3,2.5-2,3.7
		c0,0.1-0.1,0.2-0.1,0.3c0,0.7,0.5,1.4,1.1,1.7c0.9,0.3,1.8,0.3,2.6,0.2C148,39.2,148.2,37,148.5,34.6z M18.4,39.5
		c-0.5-3.7,0.4-7,3-9.8s5.8-4.1,9.6-3.9c3.3,0.2,6.1,1.5,8.3,3.9c2.8,3.1,3.6,6.7,2.7,10.8c0.3,0,0.6,0,1,0
		c-0.1-1.2-0.1-2.3-0.2-3.5c-0.2-3.3-1.5-6.1-3.9-8.4c-2.4-2.2-5.2-3.4-8.5-3.4c-2.7,0-5.1,0.7-7.3,2.2c-3.3,2.3-5.1,5.5-5.4,9.6
		c0,0.7,0.1,1.4,0.2,2.1C17.9,39.6,17.9,39.6,18.4,39.5z M88.5,13.8L88.5,13.8c0,0.9,0.1,1.1,1,1.2c0.9,0.1,1.8,0.2,2.8,0.3
		c0.9,0.1,1.9,0.2,2.8,0.2c0.2,0,0.4,0.1,0.4-0.2S95.4,15,95.2,15c-0.4-0.1-0.7-0.2-1.1-0.2c-0.3,0-0.5-0.2-0.5-0.5s0-0.7-0.1-1
		c-0.1-0.8-0.3-1.6-1.2-1.8c-0.6-0.2-1.3-0.4-2-0.5s-1.1,0.1-1.3,0.8C88.8,12.4,88.7,13.1,88.5,13.8z M144,38
		c0.1-0.2,0.2-0.4,0.3-0.6c0.5-0.9,1-1.8,1.6-2.6c0.4-0.6,1-0.9,1.8-0.8c0.3,0,0.6,0.1,0.9,0.1c0.1-0.7,0.3-1.4,0.4-2.1
		c0-0.2,0-0.4,0-0.6c-0.4-0.1-0.7-0.1-1.1-0.2c-0.9-0.2-1.9-0.4-2.8-0.3c-0.3,0-0.5,0.2-0.6,0.5c0,0.1,0,0.2-0.1,0.3
		C144.1,33.7,144.1,35.8,144,38z M82.9,4.2c0.1,0,0.2,0.1,0.3,0.1c2.8,1.4,5.6,2.9,8.2,4.6c2.3,1.5,4.5,3.1,6.7,4.6
		c0.7,0.5,1.5,1,2.4,1c0.6,0,1.3,0.1,1.9,0.1c0.1,0,0.2,0,0.3,0c-0.1-0.1-0.2-0.1-0.3-0.2c-4.5-2.6-9-5.2-13.6-7.6
		C86.9,5.9,85,4.9,83.1,4C83.2,4,83,4,82.9,4.2z M4.9,23.3C5.3,23.2,5.6,23.1,6,23c1.6-0.4,3.2-0.8,4.7-1.3c0.4-0.1,0.8-0.4,1-0.7
		c0.5-0.6,1-1.3,1.5-1.9c0.1-0.2,0.2-0.4,0.3-0.7c0.1-0.2,0-0.4-0.2-0.4c-0.3-0.1-0.6-0.2-0.9-0.2c-0.1,0-0.2,0.1-0.2,0.1
		c-0.2,0.4-0.4,0.8-0.6,1.2c-0.4,1.1-1.2,1.8-2.4,2.1c0,0,0,0-0.1,0c-1.3,0.3-2.6,0.5-3.9,0.8c-0.1,0-0.2,0.1-0.3,0.2
		C4.9,22.4,4.9,22.8,4.9,23.3z M59.2,13.6c0-0.2-0.1-0.3-0.1-0.4c-0.9-2.9-1.8-5.8-2.6-8.8c-0.2-0.7-0.2-0.7-0.9-0.6c0,0,0,0-0.1,0
		c0,0.1,0,0.2,0.1,0.3c0.4,1.3,0.8,2.6,1.2,4c0.5,1.7,1,3.5,1.6,5.2c0,0.1,0.1,0.2,0.2,0.2C58.8,13.7,59,13.6,59.2,13.6z M58.8,14.3
		C58.8,14.3,58.8,14.4,58.8,14.3c10.3,0.5,20.6,1,30.8,1.4c-0.4-0.1-0.8-0.3-1.2-0.3c-3.2-0.1-6.4-0.3-9.6-0.4
		c-3.8-0.1-7.6-0.3-11.4-0.4c-1.7-0.1-3.5-0.1-5.2-0.2C61.1,14.4,59.9,14.4,58.8,14.3z M31.6,7C31.6,6.9,31.6,6.9,31.6,7
		c-3.9,1.6-7.8,3.2-11.6,5.2c1,0.4,1.8,0.1,2.6-0.4c2-1.3,4.2-2.4,6.3-3.5C29.8,7.8,30.7,7.4,31.6,7z M40.6,2.6
		C42,2.3,43.3,2,44.7,1.7c-0.1,0-0.1-0.1-0.1-0.1c-1-0.2-1.9-0.2-2.9-0.2c-0.3,0-0.5,0.1-0.7,0.4C40.8,2,40.7,2.3,40.6,2.6z
		 M96.1,16.1c0.7,0,1.3,0,2,0c-0.6-0.5-1.3-0.9-2-1.5C96.3,15.1,96.3,15.5,96.1,16.1z M1.2,39.7c0.9,0,1.7-0.1,2.5-0.1
		c-0.9-0.3-1.8-0.2-2.6-0.9C1.1,39,1.1,39.3,1.2,39.7z M104.8,21.4v0.1c1.1,0,2.1,0,3.2,0c0,0,0,0,0-0.1c-0.1-0.1-0.3-0.2-0.4-0.2
		c-0.8,0-1.6,0-2.4,0C105.1,21.2,104.9,21.3,104.8,21.4z M95.8,14.4L95.8,14.4c-0.5-0.4-1-0.7-1.5-1.1c0,0.2,0,0.4,0,0.5
		c0,0.2,0.1,0.3,0.3,0.3C95,14.2,95.4,14.4,95.8,14.4z"/>
	<path d="M60.8,16.4c0.4-0.1,0.7-0.1,1.1-0.3c1-0.3,2-0.3,2.9,0c0.1,0,0.3,0.1,0.4,0.2c0.4,0.4,0.9,0.5,1.5,0.6
		c0.2,0,0.3,0.1,0.5,0.1c0.3,0.1,0.4,0.3,0.4,0.6c0,0.3-0.2,0.5-0.5,0.6c-0.4,0.1-0.8,0.1-1.2,0.2c-0.3,0-0.6,0.1-0.8,0.2
		c-1.1,0.5-2.2,0.5-3.2,0c-0.4-0.2-0.8-0.2-1.2-0.2s-0.8,0-1.3-0.1s-0.8-0.4-0.8-0.8s0.3-0.9,0.7-1c0.5-0.1,1-0.2,1.5-0.3
		C60.8,16.3,60.8,16.4,60.8,16.4z M66.8,17.7v-0.1c-0.1,0-0.2,0-0.3-0.1c-1.3-0.1-2.7-0.3-4-0.4C61.8,17,60.9,17,60.1,17
		c-0.2,0-0.5,0.1-0.7,0.2c-0.1,0-0.2,0.2-0.2,0.3c0,0.1,0.1,0.2,0.2,0.2c0.1,0,0.3,0.1,0.4,0.1c1.6,0,3.3,0,4.9,0
		C65.5,17.9,66.1,17.8,66.8,17.7z"/>
	<path d="M7.2,34.6c0,1.1-0.3,1.7-1.5,2.1c-1.1,0.4-2.3,0.6-3.5,1c-0.2,0-0.4,0-0.5-0.2s0.1-0.3,0.3-0.4c1.1-0.3,2.3-0.6,3.4-0.9
		c0.9-0.3,1.1-0.6,1-1.5c-0.1-1.4-0.3-2.8-0.5-4.2c-0.2-1.1-0.5-2.2-0.7-3.3c0-0.1-0.1-0.3-0.2-0.4c-0.2-0.6-0.6-0.9-1.2-0.9
		c-0.2,0-0.4,0-0.5-0.1c-0.1,0-0.2-0.2-0.2-0.4c0-0.1,0.2-0.3,0.3-0.3c0.4,0,0.8,0.1,1.2,0.3c0.5,0.2,0.8,0.6,1.1,1.1
		c0.5,1.2,0.7,2.4,0.9,3.6c0.2,1.4,0.4,2.8,0.5,4.2C7.2,34.4,7.2,34.5,7.2,34.6z"/>
	<path d="M134.3,37.8c0,5.1-4.3,9.4-9.6,9.4c-5.3,0-9.6-4.2-9.6-9.4c0-5.3,4.2-9.5,9.7-9.5C130,28.3,134.3,32.5,134.3,37.8z
		 M129.6,41.6c1-1.3,1.4-2.6,1.4-4.2c-1.2,0.1-2.3,0.3-3.5,0.4c-0.4,0-0.8,0.1-0.8,0.7v0.1c0,0.1,0,0.2,0,0.3
		c0.2,0.2,0.4,0.4,0.7,0.6C128.1,40.2,128.9,40.9,129.6,41.6z M119.8,41.6L119.8,41.6c0.9-0.8,1.7-1.6,2.5-2.4
		c0.3-0.3,0.6-0.6,0.3-1l0,0c0-0.2-0.1-0.3-0.3-0.3c-0.3,0-0.5-0.1-0.8-0.1c-1-0.1-2-0.2-3.1-0.4C118.3,39,118.8,40.3,119.8,41.6z
		 M126.4,31.7c0,0.1,0,0.1,0,0.2c-0.2,1.1-0.4,2.2-0.7,3.4c-0.1,0.3,0,0.6,0.3,0.7l0.1,0.1c0.1,0.1,0.2,0.1,0.4,0
		c0.7-0.4,1.4-0.8,2.1-1.1c0.4-0.2,0.9-0.5,1.3-0.7C129.1,33,127.9,32.1,126.4,31.7z M126.9,43.5c-0.5-1.1-1-2.1-1.5-3.2
		c-0.1-0.3-0.3-0.6-0.7-0.5c-0.1,0-0.2,0-0.4,0c-0.6,1.2-1.2,2.5-1.8,3.7C123.9,44.1,125.4,44.1,126.9,43.5z M119.5,34.3
		c1,0.6,2,1.1,3,1.7c0.4,0.2,0.7,0.4,1.1,0c0-0.1,0.1-0.1,0.2-0.1c-0.2-1.3-0.5-2.7-0.8-4C121.8,31.9,120.2,33.1,119.5,34.3z
		 M116.6,33.9c-0.2,0.7-0.5,1.4-0.7,2.1c1.2,0.1,2.2,0.7,3.3,0.8c1.1,0.1,2.2,0.3,3.3,0.4c0-0.2,0.1-0.3,0.2-0.5
		c-1.3-0.6-2.6-1.3-4-2c-0.5-0.2-1-0.3-1.5-0.5C117,34.2,116.9,34.1,116.6,33.9z M125.8,39.6c0.5,1,0.9,2,1.4,3s1.2,1.9,1.8,2.8
		c0.6-0.4,1.2-0.9,1.8-1.3c-0.2-0.1-0.3-0.2-0.4-0.4c-0.7-0.9-1.3-1.8-2.2-2.6c-0.7-0.6-1.3-1.2-2-1.8
		C126,39.4,125.9,39.5,125.8,39.6z M123.3,39.3c-0.2,0.1-0.3,0.3-0.5,0.4c-1.3,1.2-2.7,2.4-3.7,3.9c-0.1,0.2-0.3,0.3-0.4,0.5
		c0.5,0.5,1.1,0.9,1.8,1.3c0.6-1,1.2-1.9,1.8-2.9s1-2,1.4-3C123.5,39.4,123.4,39.4,123.3,39.3z M123.6,29c0.1,1.1,0.1,2.2,0.2,3.3
		s0.4,2.2,0.6,3.3c0.2,0,0.3,0,0.5,0c0-0.2,0.1-0.4,0.1-0.7c0.4-1.8,0.8-3.6,0.6-5.4c0-0.1,0.1-0.3,0.1-0.5
		C125.1,29,124.4,29,123.6,29z M132.8,34c-1.1,0.4-2.1,0.8-3.1,1.3s-2,1-3,1.6c0,0.1,0.1,0.2,0.1,0.4c1.1-0.1,2.2-0.2,3.3-0.4
		c1.1-0.2,2.2-0.5,3.3-0.8C133.2,35.3,133,34.6,132.8,34z M121.3,45.2c2.3,0.9,4.5,1,6.8,0c-0.2-0.3-0.4-0.6-0.7-0.9
		c0-0.1-0.2-0.1-0.3-0.1c-0.3,0.1-0.6,0.2-1,0.3c-1.3,0.3-2.5,0.2-3.8-0.2c-0.1,0-0.3,0-0.3,0C121.8,44.5,121.5,44.8,121.3,45.2z
		 M130.8,43.2c1.6-1.8,2.3-4,2.1-6.4c-0.3,0.1-0.6,0.2-0.9,0.3c-0.2,0-0.3,0.2-0.3,0.4c0,0.8-0.1,1.6-0.3,2.4
		c-0.3,0.8-0.7,1.5-1.2,2.2C130.3,42.5,130.5,42.8,130.8,43.2z M126.4,31c1.8,0.5,3.2,1.5,4.2,2.9c0,0,0.1,0.1,0.2,0.1
		c0.4-0.1,0.7-0.2,1.1-0.3c-1-1.9-3.5-3.6-5.5-3.9c0,0.1,0,0.1,0,0.2C126.4,30.3,126.4,30.7,126.4,31z M116.5,36.8
		c-0.2,2.4,0.5,4.5,2.1,6.4c0.3-0.4,0.5-0.7,0.7-1c-1.2-1.4-1.7-3-1.6-4.8c0-0.1,0-0.2-0.1-0.2C117.3,37,116.9,36.9,116.5,36.8z
		 M117.6,33.6C117.6,33.6,117.6,33.7,117.6,33.6c0.3,0.1,0.6,0.2,0.9,0.3c0.2,0.1,0.3,0,0.5-0.1c0.9-1.3,2.2-2.2,3.8-2.7
		c0.1,0,0.2-0.1,0.3-0.1c0-0.4,0-0.8,0-1.2C121.4,29.7,118.2,32,117.6,33.6z M124.6,36.2c-0.8,0-1.4,0.6-1.4,1.4
		c0,0.8,0.7,1.5,1.5,1.5s1.5-0.7,1.5-1.5C126.2,36.9,125.5,36.2,124.6,36.2z"/>
	<path d="M39.9,37.8c0,5.1-4.3,9.4-9.5,9.4c-5.3,0-9.6-4.2-9.6-9.4s4.3-9.4,9.5-9.5C35.1,28.2,39.8,32.1,39.9,37.8z M35.2,41.6
		c1-1.3,1.5-2.6,1.4-4.2c-0.2,0-0.4,0-0.6,0.1c-1.1,0.1-2.2,0.2-3.3,0.4c-0.1,0-0.3,0.1-0.3,0.2c-0.3,0.7-0.3,0.7,0.3,1.3
		C33.6,40.1,34.4,40.8,35.2,41.6z M35.6,34.3c-0.9-1.3-2.1-2.2-3.6-2.6c0,0.1,0,0.1,0,0.1c-0.2,1.2-0.4,2.3-0.7,3.5
		c-0.1,0.3,0,0.5,0.3,0.7c0.1,0,0.1,0.1,0.2,0.1c0.1,0.1,0.2,0.1,0.4,0c0.6-0.3,1.3-0.7,1.9-1C34.5,34.9,35,34.6,35.6,34.3z
		 M28.4,38.8c-0.1-0.2-0.2-0.4-0.2-0.6c0-0.2-0.1-0.2-0.3-0.3c-0.6-0.1-1.3-0.2-1.9-0.2c-0.6-0.1-1.3-0.1-2-0.2
		c0,1.6,0.4,2.9,1.4,4.2C26.4,40.6,27.4,39.7,28.4,38.8z M32.5,43.5c-0.5-1.1-1-2.1-1.5-3.2c-0.2-0.4-0.3-0.7-0.8-0.5h-0.1
		c-0.2-0.1-0.3,0-0.4,0.2c-0.3,0.7-0.7,1.4-1,2.1c-0.2,0.5-0.4,0.9-0.7,1.4C29.6,44.1,31,44.1,32.5,43.5z M25.1,34.2
		c1.2,0.6,2.3,1.3,3.5,1.9c0.1,0,0.2,0,0.2,0c0.2-0.1,0.4-0.3,0.6-0.4c-0.2-1.3-0.5-2.7-0.8-4C27.1,32.1,26,33,25.1,34.2z M21.5,36
		c1.2,0.3,2.2,0.6,3.3,0.8c1.1,0.2,2.2,0.3,3.3,0.4c0-0.2,0.1-0.3,0.1-0.5c-0.4-0.2-0.8-0.4-1.3-0.7c-1.4-0.8-2.8-1.5-4.3-1.9
		c-0.2,0-0.3-0.2-0.5-0.3C22,34.6,21.8,35.3,21.5,36z M31.4,39.6c0.5,1,0.9,2.1,1.4,3s1.2,1.8,1.8,2.8c0.6-0.4,1.2-0.9,1.8-1.3
		c-0.2-0.1-0.3-0.2-0.4-0.4c-0.6-0.8-1.1-1.6-1.9-2.3c-0.8-0.7-1.5-1.4-2.3-2.2C31.6,39.4,31.5,39.5,31.4,39.6z M26,45.4
		c0.6-1,1.3-1.9,1.8-2.9s1-2,1.5-3c-0.1-0.1-0.2-0.2-0.3-0.2c-0.2,0.1-0.3,0.3-0.5,0.4c-1.3,1.2-2.8,2.4-3.7,4
		c-0.1,0.2-0.3,0.3-0.5,0.5C24.8,44.6,25.4,45,26,45.4z M30.5,35.6c0.4-2,0.9-4,0.8-6.1c0-0.1,0.1-0.3,0.1-0.5c-0.7,0-1.5,0-2.2,0
		c0.1,1.1,0.1,2.2,0.2,3.3c0.1,1.1,0.4,2.2,0.6,3.3C30.2,35.6,30.4,35.6,30.5,35.6z M38.4,34c-1.1,0.4-2.1,0.8-3.1,1.3s-2,1-3,1.6
		c0,0.1,0.1,0.2,0.1,0.4c1.1-0.1,2.2-0.2,3.3-0.4s2.2-0.5,3.3-0.8C38.8,35.3,38.6,34.6,38.4,34z M26.9,45.2c2.3,0.9,4.5,1,6.8,0
		c-0.2-0.3-0.5-0.6-0.7-0.9c-0.1-0.1-0.2-0.1-0.3-0.1c-1.6,0.6-3.2,0.6-4.8,0c-0.1,0-0.2,0-0.3,0C27.4,44.5,27.1,44.8,26.9,45.2z
		 M24.9,42.2c-0.3-0.6-0.7-1.1-1-1.7c-0.4-0.9-0.6-2-0.6-3c0-0.1,0-0.3-0.1-0.3c-0.3-0.1-0.7-0.2-1.1-0.4c-0.2,2.4,0.5,4.5,2.1,6.4
		C24.5,42.8,24.7,42.5,24.9,42.2z M28.6,29.8c-1.7,0-5,2.3-5.4,3.9c0.3,0.1,0.6,0.2,1,0.3c0.1,0,0.2,0,0.3-0.1
		c0.1-0.2,0.3-0.4,0.4-0.5c0.9-1.1,2.1-1.8,3.4-2.2c0.1,0,0.3,0,0.3-0.2C28.6,30.5,28.6,30.1,28.6,29.8z M36.4,43.1
		c1.7-1.7,2.4-4.5,2.1-6.4c-0.3,0.1-0.7,0.2-1,0.3c-0.1,0-0.1,0.2-0.2,0.3c0,0.6,0,1.1-0.1,1.7c-0.2,1.2-0.7,2.2-1.5,3.1
		C35.9,42.5,36.1,42.8,36.4,43.1z M32,31c1.8,0.5,3.2,1.5,4.3,3.1c0.4-0.1,0.8-0.3,1.2-0.4c-1.3-2.1-3.1-3.4-5.5-3.9
		C32,30.2,32,30.6,32,31z M30.3,39.2c0.8,0,1.5-0.6,1.5-1.4c0-0.8-0.6-1.5-1.5-1.5c-0.8,0-1.4,0.6-1.4,1.4
		C28.8,38.5,29.5,39.1,30.3,39.2z"/>
</g>
</svg>
