<?xml version="1.0" encoding="utf-8"?>
<!-- Generator: Adobe Illustrator 27.4.0, SVG Export Plug-In . SVG Version: 6.00 Build 0)  -->
<svg version="1.1" id="Layer_1" xmlns="http://www.w3.org/2000/svg" xmlns:xlink="http://www.w3.org/1999/xlink" x="0px" y="0px"
	 viewBox="0 0 615.1 201.2" style="enable-background:new 0 0 615.1 201.2;" xml:space="preserve">
<g>
	<path d="M449.6,167.3c0,0.5-0.1,0.8-0.1,1.1c-0.3,2.3-1.6,3.6-3.9,3.8c-0.8,0.1-1.7,0-2.6,0c-18.8,0-37.7,0-56.5,0
		c-18.2,0-36.5-0.2-54.7-0.2c-5.8,0-11.6-0.1-17.4-0.1c-14.1-0.1-28.3-0.1-42.4-0.2c-31-0.1-62.1-0.1-93.1-0.2c-3.7,0-4.5-0.7-5.9-5
		c-1.4,0-2.8,0.1-4.3,0c-0.9,0-0.9,0.6-1.1,1.1c-3.6,9.9-9.8,17.8-18.7,23.6c-18.2,12-42.4,10.4-58.9-3.8
		c-7.4-6.4-12.3-14.2-14.9-23.6c-0.2-0.7-0.3-1.2-1.2-1.2c-0.8,0-1.4-0.1-1.8,0.9c-1.1,2.4-3.3,2.9-5.7,2.7
		c-3.1-0.3-6.1-0.7-9.1-1.1c-8.4-1.2-16.9-2.4-25.3-3.5c-1.6-0.2-3.2,0-4.8,0.1c-7.1,0.4-14.2,0.7-21.3,1.1
		c-3.2,0.2-4.6-1.1-4.8-4.4c-0.1-1.3-0.3-2.6-0.2-3.9c0-0.8,0.2-1.7,0.7-2.3c0.6-0.8,0.6-1.4,0.3-2.3c-1.4-4.6-2.4-9.3-1.1-14.2
		c0.5-2,0.6-4.2,0.5-6.3c-0.2-4.3-0.5-8.6-1-12.9c-0.7-5.2,1-9.4,4.6-13c2.5-2.5,5.1-4.9,7.6-7.3c0.3-0.3,0.7-0.6,1-0.7
		c2.6-0.8,2.8-2.7,2.8-5.1c-0.2-6.8,0-13.7,0-20.5c0-0.7,0.1-1.3,0.2-2c0.1-1.4,0.4-2.7-0.9-4.1c-1.2-1.3-1-3.1-0.5-4.7
		c0.4-1.2,0.9-2.3,1.4-3.5c-0.9-0.8-1.5-1.8-0.9-3.1c0.7-1.3,1.9-1.6,3.3-1.5c2.9,0.3,5.9,0.6,8.8,1c6.3,1,12.4,0.2,18.6-0.9
		c7.4-1.3,14.9-2.4,22.4-3.6c1.8-0.3,3.7-0.2,5.5-0.4c0.5,0,1.1-0.1,1.6-0.4c13.7-7.6,28-13.8,42.4-19.9
		c10.8-4.6,21.8-8.8,32.7-13.2c0.5-0.2,0.9-0.6,1.4-0.8c1.7-0.7,3.3-1.4,5.1-1.9c1.1-0.3,1.9-0.7,2.3-1.8c0.7-1.6,1.4-3.1,2.2-4.6
		c1-2.1,2.8-3.1,5.1-3.3c5.9-0.6,11.6,0,17.2,1.8c2.6,0.8,5,0.8,7.6,0.4c12.2-1.9,24.4-3.3,36.8-3.6C235.6,0.2,243,0,250.5,0
		c13.6,0.1,27.1,0.8,40.6,2.4c8.5,1.1,17,2.2,25.4,3.9c5.9,1.2,11.6,3.1,17.3,5c2.3,0.7,4.2,2.3,6.4,3.3c19.4,9.1,38,19.4,56.5,30.1
		c6.8,3.9,13.7,7.8,20.4,11.9c2.3,1.4,4.6,2,7.2,2.1c13.8,0.7,27.5,1.3,41.3,2.4c12,1,24,2.5,36,3.9c10.4,1.2,20.8,2.8,31,5.1
		c20,4.5,39.1,11.2,57.1,20.9c3.7,2,6.1,5,8.2,8.5c0.7,1.2,1,2.8,1,4.2c0.3,4.3-0.1,8.5-1,12.7c-0.1,0.5,0,1.1,0.2,1.5
		c0.8,1.4,1.7,2.7,2.7,4c1.9,2.4,2.5,5.1,1.8,8.1c-1.7,7.1-3.2,14.2-3.8,21.4c-0.4,4.9-0.8,9.8-1.1,14.8c-0.2,3.3-1.7,5.1-5.1,5.5
		c-4.7,0.6-9.5,0.9-14.3,1.2c-6.4,0.4-12.8,0.6-19.2,0.8c-0.9,0-1.9-0.1-2.8-0.2c-2.7-0.3-4.1-1.7-4.4-4.3c-0.1-0.6-0.1-1.2-0.2-1.8
		c-1.6,0-3.2,0-4.8,0c-0.3,0-0.7,0.4-0.8,0.8c-6.6,16.5-18.6,26.7-36.2,30.4c-22,4.6-45.2-7.8-53.9-28.4c-1.2-2.9-1.2-2.9-4.5-2.9
		C451.1,167.3,450.4,167.3,449.6,167.3z M135.2,37.9c-1.2,0.8-2.4,1.6-3.5,2.6c-1.2,1.1-2.4,2.4-3.5,3.7c-0.8,1-0.7,2.2,0,3.2
		c2.6,3.4,5.6,6.6,10.1,7.3c3.7,0.6,7.5,0.7,11.2,0.8c13.9,0.5,27.7,0.8,41.6,1.2c7.3,0.2,14.6,0.4,21.9,0.7c7,0.2,14,0.4,21,0.6
		c0.4,0,0.8-0.2,1.2-0.2c0-0.1,0-0.2-0.1-0.3c-4-0.1-8-0.3-12-0.4c-6.8-0.2-13.6-0.4-20.3-0.6c-11.6-0.4-23.2-0.8-34.8-1.2
		c-8.7-0.3-17.3-0.7-25.9-1.1c-2.9-0.1-5.3-1.2-7.3-3.2c-4.1-3.9-4.1-9.2,0.2-12.5c0.2-0.1,0.3-0.3,0.5-0.4
		c11.6-7.1,24-12.4,37-16.5c16.7-5.2,33.9-8.2,51.4-9c6.6-0.3,13.3-0.5,19.9-0.6c7.2-0.1,14.4-0.1,21.6,0.1c8.5,0.3,17,0.6,25.4,1.3
		c12.6,1.1,24.7,4.6,36.2,9.8c11,5,21.3,11,31.5,17.3c0.4,0.2,0.8,0.4,1.3,0.7c-0.1-0.4-0.2-0.5-0.4-0.7c-9.7-6-19.5-11.8-29.9-16.6
		c-10.9-5.1-22.2-8.6-34.1-10.3c-10.2-1.5-20.5-1.8-30.8-1.9c-10.1-0.1-20.2,0-30.3,0.1c-12.8,0.1-25.5,1.3-38.2,3.6
		c-17.7,3.2-34.7,8.6-50.8,16.7C141.7,33.8,138.5,35.9,135.2,37.9z M408.4,153.8c0,0,0.1-0.2,0.1-0.4c1.7-11.9,3.3-23.7,3.7-35.7
		c0.4-10.3,0.5-20.6-0.3-30.9c-0.3-4.4-1.6-8.5-5-11.6c-2.7-2.5-5.6-4.9-8.4-7.2c-0.4-0.3-1.1-0.5-1.6-0.6c-6.5-0.3-13-0.5-19.6-0.8
		c-19.5-0.8-38.9-1.7-58.4-2.5c-14.8-0.6-29.7-1.3-44.5-1.9c-12.7-0.5-25.3-1-38-1.4c-0.5,0-1.1,0.2-1.5,0.5c-1.7,1.8-3.4,3.7-5,5.6
		c-1.4,1.6-1.9,3.6-1.7,5.7c0.3,3.2,0.6,6.4,1.1,9.6c1.9,13,4.5,25.9,7.6,38.7c2.3,9.3,5,18.5,8.4,27.4c0.3,0.7,0.5,1.3,1.4,1.3
		c14.7,0.5,29.3,1,44,1.5c11.1,0.3,22.3,0.6,33.4,0.9c14,0.4,28,0.8,42,1.2c10,0.3,20,0.6,29.9,0.8
		C400.1,153.8,404.2,153.8,408.4,153.8z M29.8,56.5c-0.3,1.7-0.6,1.9-2.4,1.7c-1.6-0.2-3.1-0.4-4.7-0.6c-2.9-0.5-3.1-0.4-4,2.4
		c0,0.1-0.1,0.2-0.1,0.4c-0.5,1.6,0.5,3.3,2.2,3.5c8.2,1.2,16.5,2.3,24.7,3.6c3,0.4,6,0.9,8.9,1.7c2.7,0.7,3.6,2.7,2.7,5.3
		c-0.2,0.6-0.4,1.3-0.8,1.8c-2.6,3.5-5.2,7.1-8,10.5c-1.5,1.9-1.7,1.9-0.1,3.8c0.5,0.6,1,1.2,1.7,1.6c1.9,1,3.9,2.1,6,2.8
		c11.7,4,23.5,7.8,35.2,11.8c1.3,0.4,2.3,0.3,3.4-0.4c11.5-6.7,23.9-8.9,37-6.4c22.4,4.3,38.6,20.9,42.6,43.2c0.1,0.7,0.4,1,1.1,1
		c6.3,0.7,12.6,1.7,18.9,2.2c15.1,1.1,30.1,1.9,45.2,2.8c1.2,0.1,2.3,0,3.5,0c-1.4-4-2.8-8-4-11.9c-3.8-12.1-6.6-24.4-9-36.7
		c-1.8-9.2-3.4-18.5-4.2-27.9c-0.2-2.8,0.4-5.3,2.2-7.5c1.2-1.5,2.4-3,3.9-4.7c-1.9,0-3.5,0-5.1,0c-14.6-0.4-29.2-0.9-43.9-1.3
		c-11.4-0.3-22.9-0.6-34.3-1c-3.4-0.1-6.9-0.3-10.3-0.7c-4.2-0.6-7.3-3.3-10.2-6.1c-3.9-3.9-3.9-7.4,0-11.2c0.2-0.2,0.5-0.5,0.8-0.7
		c3.4-2.4,6.7-5.1,10.4-7.1c23.6-12.9,49-19.8,75.7-22.1c10.4-0.9,20.9-0.9,31.3-1.2c5.8-0.2,11.6-0.1,17.4,0.1
		c8.1,0.2,16.2,0.5,24.3,1c13.8,1,27,4.4,39.7,10c12.1,5.4,23.5,12.1,34.7,19.1c1.9,1.2,3.8,2.3,6,2.6c1.1,0.2,2.2,0.6,3.3,1
		c3.1,1.1,5.4,2.9,6.3,6.1c0.1,0.5,0.6,0.9,1,1.2c3.1,2.2,6.4,4.3,9.3,6.7c2.3,1.9,4.8,1.1,7.3,1.4c-3.4-2.4-6.9-4.7-10.3-7.1
		c-17.1-12.1-34.8-23.3-53.7-32.3c-2.3-1.1-2.4-2.3-0.6-4.3c-0.1-0.1-0.3-0.2-0.4-0.3c-9-3-18.1-5.4-27.5-6.6
		c-15.7-2.1-31.5-3.5-47.4-3.8c-18.3-0.3-36.6,0-54.8,2.5c-6.5,0.9-13,1.4-19.4,2.6c-8.3,1.5-16.6,3-24.4,6.5c0.6,1.6,0.4,2.3-1.4,3
		c-5.6,2.3-11.4,4.2-16.8,6.8c-15.9,7.5-31.9,15-46.7,24.5c-3.3,2.2-6.9,3-10.8,2.1c-2.1-0.5-4.3-0.7-6.5-0.6
		c-6.9,0.3-13.6,1.4-20.4,2.5c-5.8,1-11.7,1.9-17.6,2.7C34.4,56.8,32.1,56.5,29.8,56.5z M556.8,88.2c0-0.1,0.1-0.2,0.1-0.4
		c-1-0.4-1.9-0.9-2.9-1.2c-4.1-1.1-8.1-2.5-12.2-3.3c-11.8-2.4-23.6-4.8-35.5-6.8c-10.8-1.8-21.7-3.2-32.6-4.3
		c-10.8-1.1-21.6-1.4-32.4-2.2c-4.6-0.3-9.2-0.8-13.7-1.7c-5-1.1-9.3-3.8-13.8-6.2c-0.6-0.3-1.4-0.6-2.2-0.6
		c-3.5-0.2-7-0.3-10.5-0.4c-2.2-0.1-4.5,0-6.8,0c0.4,0.3,0.7,0.6,1,0.8c3.8,3.1,7.7,6,11.4,9.2c3.3,2.8,6.1,6.1,7.2,10.5
		c0.3,1.5,0.6,3,0.8,4.5c1.8,0.1,3.2-0.5,4.2-2c1.1-1.6,2.7-2.1,4.7-2c2.6,0.2,5.2,0.2,7.8,0.1c2.1-0.1,3.8,0.5,5.1,2.3
		c0.8,1.2,1.8,1.8,3.4,1.7c1.7-0.1,2.9,1.1,2.8,2.5c0,1.5-1.2,2.5-2.9,2.6c-0.6,0.1-1.2,0.3-1.6,0.7c-1,1-2.1,1.6-3.5,1.5
		c-4.6-0.1-9.2-0.1-13.8-0.4c-1,0-2.2-0.5-2.8-1.2c-0.9-1.1-1.9-1.1-3.1-1.2c1,21.3-0.4,42.3-3.8,63.3c0.6,0,0.8,0,1.1,0
		c4.9,0.1,9.9,0.2,14.8,0.4c6.2,0.2,12.4,0.4,18.5,0.6c0.7,0,1.1-0.1,1.2-1c0.4-3.9,0.9-7.8,1.5-11.7c2.1-11.9,7.3-22.3,16.5-30.5
		c13.3-11.9,28.9-16.2,46.6-13c20.9,3.8,38.3,21,41.6,41.7c1.4,8.9,1.8,18,2.6,27.1c0.2,2,0.2,2.2,2.2,2.2c7.7-0.2,15.3-0.6,23-0.9
		c0.5,0,1.1-0.1,1.9-0.2c-3.9-1.9-5.6-3.6-6.5-6.8c-0.4-1.4-0.6-2.8-0.6-4.2c0.2-6.2,0.3-12.5,0.8-18.7c0.4-4.7,1.2-9.4,2-14
		c0.4-2.3,1.9-3.8,4.4-3.9c1.9-0.1,3.9-0.2,5.9,0c2.6,0.3,5.2,0.8,7.8,1.3c-0.6-1-1.2-1.9-1.7-2.9c-0.4-0.7-0.7-1.5-0.7-2.3
		c-0.1-3.2-0.2-6.3-0.2-9.5c0-1.9,0-3.8-0.1-5.7c0-2.3-1-4.3-2.7-5.7c-3.3-2.8-7.4-4.4-11.3-6.5c-0.1,0.9-0.1,1.6-0.2,2.3
		c2.5,0.9,4.7,2.3,6.4,4.4c2.2,2.6,3.9,5.6,5.1,8.7c1,2.7,0.7,3.5-1.6,5.1c-0.1,0-0.1,0.1-0.2,0.2c-1.9,2.4-4.4,2.5-7.1,1.9
		c-5.3-1.2-10.7-2.1-15.8-3.8c-8.1-2.8-16-6.1-23.9-9.3c-2.6-1.1-5.3-2.2-7.8-3.4c-1.9-0.9-2.2-2.4-1-4.1c0.3-0.4,0.6-0.8,1-1.1
		c2.2-2,5-2.6,7.8-2.7c4.3-0.1,8.6-0.1,12.9-0.2C555.9,88.2,556.3,88.2,556.8,88.2z M228.9,14.6c0.8,2.5,1.4,4.5,2,6.6
		c3.3,10.9,6.6,21.8,9.9,32.7c0.2,0.6,0.3,1,1.1,1c9.9,0.3,19.8,0.6,29.7,0.9c9.7,0.3,19.4,0.5,29,0.9c14.6,0.6,29.1,1.3,43.7,2
		c3.1,0.1,6.1,0.3,8.9,0.4c0.2-2.9,0.3-5.7,0.7-8.5c0.4-2.8,1.2-5.6,3.1-7.9c-9.4-5.9-18.9-11.3-28.8-16c-10-4.7-20.4-8.1-31.3-9.9
		c-9.5-1.5-19-1.9-28.6-2.1c-8.5-0.1-17-0.1-25.5-0.1C238.3,14.6,233.7,14.6,228.9,14.6z M44.3,89.4c-2,0.6-3.9,1.2-5.8,1.8
		c-6.7,2.4-14.2,2.5-20.4,6.3c-1.2,0.7-2.5,1.1-3.5,2c-2.9,2.7-5.8,5.6-8.5,8.5c-1.9,2-2.5,4.5-2.2,7.2c0.3,4,0.6,8,0.9,12
		c0.3,3.3,0.6,6.7-0.4,9.9c-0.8,2.5-0.7,4.9-0.1,7.4c0.6,2.3,1.6,4.6,1.9,6.9c0.3,2.7,2.2,3.1,4.2,3.6c0.8,0.2,1.7,0.4,2.5,0.5
		c6.6,1.1,13.2,2.2,20,2.7c9.2,0.7,18.4,2.5,27.6,3.7c2.3,0.3,4.7,0.5,7,0.7c0.9,0.1,1.3-0.3,1.5-1.3c0.3-1.2,0.1-2.3-0.1-3.5
		c-0.8-5-0.6-9.9,0.2-14.9c1.8-11.4,6.9-21.2,15.3-29.2c1.7-1.6,3.5-3.1,5.4-4.7c-0.5-0.2-0.9-0.3-1.4-0.5
		c-11.1-3.7-22.2-7.4-33.3-11.1C50.6,96,46.3,94.2,44.3,89.4z M446.7,157.8c-0.6,0-0.9,0-1.1,0c-6.1-0.2-12.2-0.3-18.3-0.5
		c-10.9-0.3-21.8-0.6-32.7-0.9c-7.9-0.2-15.8-0.4-23.7-0.6c-10.9-0.3-21.7-0.6-32.6-0.9c-8.3-0.2-16.5-0.4-24.8-0.6
		c-13.4-0.4-26.9-0.8-40.3-1.2c-9.4-0.3-18.8-0.6-28.2-0.9c-5.5-0.2-11.1-0.6-16.6-0.8c-16.4-0.8-32.7-1.8-49-3.8
		c-1.6-0.2-3.2-0.4-4.8-0.6c0.2,3,0.2,5.9,0.5,8.8c0.4,3.1-0.3,6.4,1.6,9.3c0.1,0.1,0.1,0.2,0.1,0.4c0.5,2.7-0.1,2.7,3.2,2.7
		c0.1,0,0.2,0,0.3,0c34.8,0.1,69.6,0.1,104.4,0.2c8.9,0,17.8,0.1,26.8,0.1c15.8,0.1,31.5,0.1,47.3,0.2c10.6,0,21.3,0.1,31.9,0.1
		c17.9,0,35.9,0,53.8,0c0.5,0,0.9-0.1,1.4-0.1C446,164.9,446.4,161.4,446.7,157.8z M232,54.4C232,54.4,232,54.4,232,54.4
		c-3.8-12.8-7.7-25.5-11.5-38.2c-0.2-0.7-0.6-0.7-1.2-0.7c-9.9,0.7-19.7,2.1-29.5,4.2c-18.1,3.9-35.2,10.2-51.2,19.5
		c-1.2,0.7-2.3,1.5-3.2,2.5c-1.3,1.4-1.5,3.2-0.6,4.9c1.4,2.7,3.7,4.5,6.8,4.7c7.7,0.4,15.5,0.8,23.3,1.1
		c11.5,0.4,23.1,0.8,34.6,1.2c7.6,0.3,15.3,0.5,22.9,0.7C225.6,54.4,228.7,54.4,232,54.4z M545.7,151.4c0-24.4-19.9-44.3-44.7-44.2
		c-26.1,0.1-44.6,20.7-44.7,43.8c-0.2,24.9,20.1,44.1,43.6,44.5C525.1,196.1,545.5,176.1,545.7,151.4z M77.2,151.3
		c0.3,23.6,19,43.7,43.5,44.3c23.5,0.5,45.8-17.7,45.9-44.6c0-23-18.5-43.8-44.7-43.8C95.3,107.3,77.1,128.7,77.2,151.3z
		 M420.2,62.1c-0.1,0.2-0.1,0.4-0.2,0.6c3,1.1,5.9,2.8,9,3.3c6.2,1,12.5,1.5,18.8,1.8c11.8,0.7,23.6,1.3,35.3,2.8
		c15.6,1.9,31.1,4.2,46.4,7.5c8.3,1.7,16.6,3.9,24.8,5.9c2.6,0.6,4.9,1.9,6.6,4.1c0.2,0.3,0.7,0.4,1.1,0.5c2.6,0.5,5.1,0.8,7.7,1.3
		c2.4,0.5,4.7,1,7.1,1.6c0.5-2,0.3-2.5-0.9-3c-17.6-7.9-35.9-13.5-55-16.7c-8.8-1.5-17.7-2.8-26.6-3.9c-10.4-1.3-20.8-2.3-31.2-3.2
		c-8.5-0.7-17-1.2-25.5-1.7C431.9,62.6,426,62.4,420.2,62.1z M535.9,93.8c0.3,0.2,0.6,0.4,0.8,0.5c9.9,4,19.8,8.3,29.9,11.9
		c5.6,2,11.6,2.8,17.4,4.2c1.3,0.3,2.3-0.1,3.2-1.1c0.5-0.6,1.1-1,1.9-1.6c-0.8-1.8-1.7-3.6-2.6-5.4c-2.2-4.2-5.6-6.9-10.3-8.1
		c-5.5-1.4-11.1-2.8-16.8-3c-6.1-0.2-12.2,0-18.3,0.1C539.1,91.3,537.2,92,535.9,93.8z M552.2,163.7c0-1.2,0.1-2.2,0-3.2
		c-0.5-6.2-0.7-12.4-1.7-18.5c-4.3-26.3-29.6-44.8-56.3-40.8c-20.9,3.1-34.8,15-41.5,34.9c-2.6,7.7-3.2,15.8-3.6,23.8
		c-0.1,1.2,0,2.4,0,3.7c1.7,0,3.3,0,4.9,0c-3.5-14.6-1.1-28.1,7.7-40.2c8.9-12.1,21.2-18.7,36.2-19.6c13.7-0.9,26,3.3,35.9,12.7
		c13.7,13.1,18.2,29,13.8,47.5C549.3,163.8,550.7,163.8,552.2,163.7z M19.6,85.4c6.8-1.2,13.3-2.3,19.6-4.4c1.8-0.6,3-1.8,3.8-3.4
		c1.1-2.2,2.2-4.5,3.3-6.7c0.1-0.2,0.1-0.4,0.2-0.7C37.7,68.9,29,67.7,20,66.4C19.9,72.7,19.7,79,19.6,85.4z M596.5,139.1
		c-0.6-0.1-1.5-0.3-2.4-0.4c-2.2-0.4-4,0.3-5.4,2.1c-0.7,0.9-1.3,1.8-1.9,2.7c-2.7,4.9-5.4,9.9-8.1,14.8c-0.2,0.3-0.3,0.7-0.3,1.1
		c0,2.8,1.9,5.7,4.6,6.8c3.5,1.3,7.1,1.1,10.6,1C594.6,157.7,595.6,148.5,596.5,139.1z M74,158.9c-2-14.9,1.7-28.3,11.9-39.5
		c10.3-11.3,23.3-16.5,38.6-15.8c13.3,0.7,24.6,5.9,33.5,15.8c11.1,12.5,14.6,27,10.9,43.4c1.3,0,2.6,0,3.9,0
		c-0.3-4.7-0.6-9.3-0.9-13.9c-0.9-13.2-6-24.6-15.8-33.7c-9.6-8.9-21-13.5-34.2-13.6c-10.7-0.1-20.5,2.8-29.3,9
		c-13.4,9.4-20.4,22.3-21.5,38.5c-0.2,2.9,0.6,5.6,0.8,8.4C72.1,159.2,72.2,159.2,74,158.9z M355.6,55.2c0.1,0,0.2,0.1,0.3,0.1
		c-0.2,3.7,0.2,4.2,3.9,4.8c3.7,0.5,7.4,1,11.2,1.4c3.7,0.4,7.5,0.7,11.2,1c0.7,0.1,1.6,0.4,1.8-0.9c0.1-1.2-0.6-1.3-1.4-1.4
		c-1.5-0.3-2.9-0.7-4.4-0.9c-1.4-0.2-1.9-0.9-1.9-2.2c0-1.4-0.1-2.8-0.3-4.2c-0.4-3.3-1.4-6.3-5-7.3c-2.6-0.8-5.3-1.5-8-1.9
		c-3-0.4-4.3,0.4-5.3,3.2C356.8,49.5,356.3,52.4,355.6,55.2z M578.7,152.5c0.5-0.8,0.9-1.7,1.4-2.5c2.1-3.5,4.1-7.1,6.3-10.5
		c1.7-2.6,4.2-3.8,7.4-3.4c1.2,0.1,2.3,0.3,3.6,0.5c0.6-2.8,1.3-5.5,1.8-8.3c0.2-0.8-0.1-1.7-0.1-2.3c-1.6-0.3-3-0.6-4.3-0.9
		c-3.8-0.8-7.5-1.6-11.4-1.2c-1.3,0.1-2,0.7-2.3,1.9c-0.1,0.5-0.2,0.9-0.3,1.4C579.1,135.5,578.9,144,578.7,152.5z M333.1,16.5
		c0.4,0.2,0.8,0.4,1.2,0.6c11.4,5.6,22.5,11.7,33.1,18.6c9.1,6,18.1,12.3,27.1,18.4c2.9,2,5.9,3.9,9.6,4.2c2.6,0.2,5.2,0.3,7.8,0.5
		c0.4,0,0.8-0.1,1.4-0.2c-0.5-0.4-0.8-0.6-1.1-0.7c-18-10.5-36-21-54.5-30.5c-7.5-3.8-15.2-7.5-22.8-11.2
		C334.3,16,333.7,15.7,333.1,16.5z M19.7,93.4c1.7-0.5,3-0.8,4.3-1.2c6.3-1.8,12.7-3.4,18.9-5.4c1.5-0.5,3.1-1.6,4.1-2.8
		c2.2-2.5,4.1-5.2,6.1-7.8c0.6-0.8,1-1.8,1.4-2.8c0.4-0.9,0.1-1.5-0.8-1.8c-1.2-0.4-2.5-0.7-3.7-0.9c-0.3,0-0.7,0.3-0.9,0.6
		c-0.8,1.6-1.7,3.2-2.4,4.9c-1.8,4.5-4.9,7.4-9.8,8.3c-0.1,0-0.2,0.1-0.4,0.1c-5.3,1.1-10.5,2.2-15.8,3.3c-0.4,0.1-1,0.4-1.1,0.7
		C19.7,90.1,19.7,91.6,19.7,93.4z M238.1,54.7c-0.2-0.7-0.3-1.3-0.5-1.8c-3.5-11.8-7.1-23.5-10.6-35.3c-0.8-2.7-0.8-2.7-3.6-2.4
		c-0.1,0-0.1,0.1-0.3,0.2c0.1,0.4,0.2,0.9,0.4,1.4c1.6,5.3,3.2,10.6,4.8,15.9c2.1,7,4.2,14,6.4,20.9c0.1,0.4,0.5,1,0.8,1
		C236.2,54.8,237.1,54.7,238.1,54.7z M236.4,57.4c0,0.1,0,0.3,0,0.4c41.3,1.8,82.6,3.5,123.9,5.3c-1.6-0.5-3.3-1.1-5-1.2
		c-12.9-0.6-25.7-1.2-38.6-1.7c-15.3-0.6-30.5-1.2-45.8-1.7c-7-0.3-14-0.4-21-0.7C245.4,57.7,240.9,57.6,236.4,57.4z M127,27.8
		c-0.1-0.1-0.1-0.2-0.2-0.3c-15.6,6.7-31.2,13.3-46.4,21.3c3.9,1.5,7.2,0.6,10.3-1.5c8.1-5.4,16.8-9.8,25.5-14.1
		C119.8,31.3,123.4,29.6,127,27.8z M163.2,10.1c5.6-1.3,10.9-2.5,16.4-3.7c-0.3-0.2-0.4-0.3-0.6-0.3c-3.9-0.9-7.8-1-11.7-0.8
		c-1.2,0.1-2.2,0.5-2.7,1.8C164.2,8,163.7,9,163.2,10.1z M386,64.4c2.7,0,5.3,0,8,0c-2.6-1.9-5.1-3.8-7.9-5.9
		C387,60.6,386.8,62.3,386,64.4z M4.8,159.4c3.5-0.2,6.8-0.3,10.2-0.5c-3.5-1.1-7.3-1-10.5-3.7C4.5,156.7,4.6,157.9,4.8,159.4z
		 M421,85.7c0.1,0.2,0.1,0.3,0.2,0.5c4.3,0,8.5,0,12.8,0c0-0.1,0.1-0.2,0.1-0.3c-0.6-0.3-1.2-0.7-1.8-0.8c-3.2-0.1-6.4-0.2-9.6-0.2
		C422.2,84.9,421.6,85.4,421,85.7z M384.9,57.9c0-0.1,0.1-0.1,0.1-0.2c-2-1.4-4-2.8-6.2-4.4c0.1,1,0.1,1.6,0.2,2.2
		c0,0.7,0.3,1.1,1.1,1.2C381.7,57.1,383.3,57.6,384.9,57.9z"/>
	<path d="M244.4,65.8c1.5-0.3,3-0.6,4.5-1.1c3.9-1.3,7.9-1.4,11.8,0c0.6,0.2,1.2,0.4,1.6,0.8c1.6,1.7,3.8,1.9,5.9,2.3
		c0.7,0.1,1.3,0.3,2,0.6c1.1,0.5,1.8,1.3,1.8,2.5c-0.1,1.2-0.8,2.2-1.9,2.4c-1.6,0.4-3.4,0.5-5,0.8c-1.1,0.2-2.3,0.4-3.4,0.9
		c-4.3,1.9-8.7,2.1-13,0.2c-1.6-0.7-3.2-0.9-4.9-1c-1.7-0.1-3.4-0.2-5.1-0.6c-2.1-0.5-3.2-1.7-3.3-3.3c-0.1-1.7,1.1-3.6,3-4.2
		c2-0.6,4.1-0.8,6.1-1.1C244.3,65.3,244.3,65.6,244.4,65.8z M268.6,71.2c0-0.2,0-0.3,0.1-0.5c-0.4-0.1-0.9-0.2-1.3-0.3
		c-5.3-0.6-10.7-1.3-16-1.8c-3.2-0.3-6.5-0.4-9.7-0.5c-1,0-2,0.4-2.9,0.8c-0.4,0.2-0.8,0.8-0.7,1.2c0,0.4,0.6,0.8,1,0.9
		c0.5,0.2,1.1,0.3,1.6,0.3c6.6,0.1,13.2,0.2,19.8,0.2C263.1,71.7,265.8,71.4,268.6,71.2z"/>
	<path d="M29.1,139.1c0,4.6-1.4,7-5.9,8.5c-4.6,1.5-9.2,2.6-13.9,3.9c-0.9,0.2-1.7,0.1-1.9-0.9c-0.2-1,0.4-1.4,1.3-1.7
		c4.5-1.2,9.1-2.4,13.5-3.8c3.5-1.1,4.5-2.5,4.2-6.1c-0.5-5.6-1.1-11.2-2-16.7c-0.7-4.4-1.9-8.7-2.9-13.1c-0.1-0.6-0.5-1.2-0.7-1.8
		c-0.8-2.3-2.4-3.5-4.8-3.8c-0.8-0.1-1.6-0.1-2.2-0.4c-0.5-0.2-1-1-1-1.5c0.1-0.4,0.9-1.1,1.4-1.1c1.6,0.2,3.3,0.5,4.8,1.1
		c2.2,0.8,3.4,2.5,4.3,4.6c1.9,4.7,2.9,9.5,3.6,14.4c0.8,5.6,1.5,11.1,2.2,16.7C29.2,138,29.1,138.6,29.1,139.1z"/>
	<path d="M539.5,151.7c0,20.7-17.4,37.8-38.4,37.8c-21.3,0-38.5-16.8-38.5-37.8c0-21.4,17-38.2,38.8-38.2
		C522.3,113.5,539.5,130.7,539.5,151.7z M520.8,167.1c3.9-5.1,5.8-10.6,5.5-16.9c-4.8,0.5-9.3,1.1-13.9,1.6
		c-1.8,0.2-3.2,0.6-3.3,2.7c0,0.2-0.2,0.4-0.2,0.6c0,0.4,0,1,0.2,1.2c0.9,0.9,1.8,1.8,2.8,2.6C514.9,161.6,517.8,164.3,520.8,167.1z
		 M481.3,167.1c0.2-0.2,0.4-0.3,0.5-0.4c3.3-3,6.5-6.1,9.8-9.1c1.3-1.2,2.4-2.3,1.1-4c0,0,0-0.1,0-0.1c0-1-0.6-1.1-1.4-1.2
		c-1.1-0.1-2.1-0.3-3.2-0.4c-4.1-0.5-8.2-1-12.4-1.6C475.5,156.6,477.3,162.1,481.3,167.1z M507.9,127.3c-0.1,0.3-0.2,0.5-0.2,0.8
		c-0.9,4.5-1.7,9-2.7,13.5c-0.3,1.4-0.2,2.4,1.3,3c0.2,0.1,0.4,0.3,0.6,0.5c0.5,0.6,0.9,0.5,1.5,0.2c2.8-1.6,5.7-3.1,8.5-4.6
		c1.7-0.9,3.5-1.9,5.3-2.9C518.6,132.6,513.9,129.1,507.9,127.3z M509.8,174.9c-2.1-4.4-4.1-8.6-6-12.9c-0.6-1.4-1.3-2.3-3-1.9
		c-0.4,0.1-0.9-0.1-1.5-0.1c-2.4,5-4.8,9.9-7.2,15C498,177.1,503.9,177.1,509.8,174.9z M480,137.6c4.1,2.3,8.1,4.4,12.1,6.7
		c1.6,0.9,2.9,1.6,4.4-0.1c0.2-0.3,0.6-0.4,1-0.6c-1-5.4-2-10.8-3.1-16.1C489.5,128.2,482.8,132.9,480,137.6z M468.6,136.2
		c-0.9,2.7-1.9,5.6-2.8,8.5c4.8,0.4,8.8,3,13.3,3.3c4.5,0.4,8.9,1.1,13.4,1.7c0.2-0.7,0.4-1.3,0.7-2.2c-5.3-2.6-10.6-5.3-15.9-7.9
		c-2-0.9-4.2-1.4-6.2-2.2C470.2,137.3,469.6,136.8,468.6,136.2z M505.4,159c1.9,4.1,3.6,8.2,5.8,12.1c2.1,3.9,4.8,7.5,7.3,11.4
		c2.5-1.8,4.9-3.6,7.2-5.3c-0.7-0.6-1.3-1-1.7-1.6c-2.7-3.7-5.4-7.4-9-10.4c-2.8-2.3-5.4-4.9-8-7.4
		C506.4,158.3,505.9,158.7,505.4,159z M495.3,157.8c-0.7,0.6-1.4,1.2-2,1.8c-5.3,4.9-11,9.5-14.8,15.8c-0.4,0.7-1.2,1.2-1.8,1.9
		c2.1,1.9,4.5,3.8,7.2,5.1c2.5-3.9,5-7.6,7.1-11.5c2.1-3.9,3.9-8,5.8-12C496.2,158.5,495.8,158.2,495.3,157.8z M496.7,116.4
		c0.3,4.6,0.4,9,0.9,13.4c0.6,4.4,1.6,8.8,2.4,13.1c0.7,0,1.3,0,1.9,0c0.2-0.9,0.3-1.8,0.5-2.7c1.6-7.2,3.1-14.3,2.6-21.8
		c0-0.6,0.3-1.2,0.5-2C502.7,116.4,499.7,116.4,496.7,116.4z M533.6,136.5c-4.3,1.7-8.6,3.2-12.6,5.1c-4.1,1.9-7.9,4.2-11.9,6.4
		c0.2,0.5,0.4,1,0.5,1.5c4.5-0.5,9-0.8,13.4-1.6c4.4-0.8,8.7-2.2,13.2-3.4C535.3,141.8,534.4,139.1,533.6,136.5z M487.4,181.5
		c9.2,3.8,18.2,3.9,27.3,0.1c-1-1.3-1.8-2.6-2.8-3.7c-0.2-0.3-0.9-0.5-1.2-0.4c-1.3,0.3-2.6,0.8-3.9,1.1c-5.2,1.1-10.2,0.7-15.2-1
		c-0.4-0.1-1.1-0.2-1.3,0.1C489.3,178.8,488.4,180.1,487.4,181.5z M525.6,173.4c6.6-7.4,9.3-15.9,8.5-25.7c-1.4,0.4-2.6,0.9-3.8,1.2
		c-1,0.2-1.3,0.7-1.2,1.7c0.2,3.4-0.3,6.6-1.4,9.8c-1.1,3.3-2.8,6.2-5,8.9C523.6,170.7,524.5,172,525.6,173.4z M507.8,124.5
		c7.1,1.9,12.7,5.9,16.8,11.8c0.1,0.2,0.6,0.4,0.8,0.4c1.5-0.4,3-0.9,4.5-1.4c-3.9-7.5-13.9-14.6-21.9-15.6c0,0.3-0.1,0.6-0.1,0.9
		C507.8,121.8,507.8,123.2,507.8,124.5z M468.2,147.9c-0.9,9.8,1.9,18.3,8.4,25.7c1.1-1.5,2-2.8,3-4.2c-4.7-5.7-6.9-12.1-6.6-19.3
		c0-0.3-0.2-0.7-0.4-0.8C471.2,148.8,469.7,148.3,468.2,147.9z M472.6,135.1c0.1,0,0.1,0.1,0.2,0.2c1.1,0.4,2.2,0.6,3.3,1.1
		c0.9,0.4,1.4,0.2,2-0.6c3.8-5.4,8.9-8.9,15.2-10.8c0.4-0.1,0.8-0.3,1.2-0.4c0-1.7,0-3.3,0-4.9C487.9,119.4,475,128.6,472.6,135.1z
		 M500.8,145.6c-3.2,0-5.7,2.6-5.7,5.8c0,3.3,2.7,6,6,6c3.3,0,5.9-2.7,5.9-6C507,148.2,504.2,145.6,500.8,145.6z"/>
	<path d="M160.3,151.7c0,20.6-17.4,37.8-38.3,37.8c-21.4,0-38.6-16.9-38.7-37.9c0-20.8,17.2-37.9,38-38.1
		C141.3,113.3,160.1,128.9,160.3,151.7z M141.7,167.2c3.9-5.1,5.9-10.6,5.5-17c-0.8,0.1-1.6,0.2-2.3,0.3c-4.4,0.5-8.7,1-13.1,1.6
		c-0.5,0.1-1.2,0.3-1.3,0.7c-1.2,3-1.2,3,1.2,5.2C135,161,138.3,164,141.7,167.2z M143.1,137.7c-3.6-5.2-8.3-8.7-14.4-10.4
		c-0.1,0.3-0.1,0.4-0.2,0.6c-0.9,4.7-1.8,9.3-2.8,14c-0.3,1.3-0.1,2.1,1.2,2.7c0.3,0.1,0.5,0.3,0.7,0.5c0.5,0.6,0.9,0.5,1.5,0.2
		c2.5-1.4,5.1-2.7,7.6-4.1C138.9,140.1,140.9,138.9,143.1,137.7z M114.4,155.8c-0.3-0.9-0.7-1.6-0.8-2.4c-0.1-0.8-0.6-1-1.3-1.1
		c-2.6-0.3-5.2-0.7-7.7-1c-2.6-0.3-5.2-0.6-7.9-1c-0.1,6.3,1.6,11.8,5.6,16.7C106.3,163.2,110.3,159.5,114.4,155.8z M130.7,174.9
		c-2-4.3-4-8.5-5.9-12.7c-0.7-1.5-1.3-2.7-3.2-2.2c-0.1,0-0.3,0-0.4,0c-0.9-0.3-1.2,0.1-1.5,0.8c-1.3,2.8-2.7,5.5-4,8.3
		c-0.9,1.9-1.8,3.8-2.7,5.7C118.9,177.1,124.7,177.1,130.7,174.9z M100.8,137.5c4.8,2.6,9.4,5.2,14,7.7c0.3,0.1,0.8,0.2,1,0
		c0.9-0.5,1.6-1.2,2.5-1.8c-1-5.4-2-10.7-3.1-16.2C109.1,129.1,104.4,132.4,100.8,137.5z M86.6,144.6c4.7,1.2,9,2.5,13.3,3.3
		c4.4,0.8,8.9,1.2,13.4,1.8c0.2-0.7,0.4-1.3,0.6-1.9c-1.7-1-3.4-1.8-5.1-2.8c-5.5-3.3-11.1-6.1-17.4-7.6c-0.7-0.2-1.2-0.7-2-1.2
		C88.5,139,87.6,141.9,86.6,144.6z M126.2,159.1c1.9,4.1,3.6,8.3,5.8,12.1c2.1,3.8,4.7,7.4,7.3,11.3c2.4-1.8,4.9-3.6,7.2-5.2
		c-0.7-0.6-1.3-1-1.7-1.5c-2.4-3.1-4.5-6.5-7.6-9.2c-3.2-2.7-6.2-5.7-9.4-8.7C127.2,158.3,126.7,158.7,126.2,159.1z M104.5,182.6
		c2.6-4.1,5.1-7.8,7.2-11.7c2.1-3.9,3.9-8,5.9-12.1c-0.5-0.4-1-0.7-1.4-1c-0.7,0.6-1.3,1.2-1.9,1.7c-5.4,4.9-11.1,9.6-15,16
		c-0.4,0.7-1.1,1.2-1.9,1.9C99.6,179.1,102.1,180.9,104.5,182.6z M122.8,142.9c1.7-8.1,3.8-16.1,3.1-24.4c0-0.6,0.3-1.3,0.4-2.1
		c-2.9,0-5.9,0-8.8,0c0.3,4.6,0.4,9,0.9,13.3c0.6,4.4,1.6,8.8,2.5,13.1C121.6,142.9,122.2,142.9,122.8,142.9z M154.4,136.5
		c-4.4,1.8-8.6,3.2-12.6,5.1c-4.1,1.9-7.9,4.2-11.9,6.3c0.2,0.6,0.4,1,0.6,1.5c4.5-0.5,8.9-0.8,13.3-1.6c4.4-0.8,8.7-2.2,13.3-3.4
		C156.1,141.8,155.2,139.1,154.4,136.5z M108.2,181.5c9.2,3.8,18.2,3.9,27.3,0.1c-1-1.3-1.9-2.5-2.7-3.7c-0.4-0.6-0.8-0.5-1.4-0.3
		c-6.4,2.3-12.9,2.3-19.3,0c-0.3-0.1-0.9,0-1.1,0.2C110.1,178.8,109.2,180.1,108.2,181.5z M100.3,169.5c-1.4-2.3-2.8-4.4-3.9-6.7
		c-1.8-3.8-2.6-7.9-2.5-12.2c0-0.4-0.2-1.2-0.4-1.3c-1.4-0.6-3-1-4.6-1.5c-0.9,9.8,1.9,18.3,8.4,25.7
		C98.5,172,99.5,170.7,100.3,169.5z M115.2,119.6c-7,0.1-20,9.4-21.8,15.6c1.3,0.4,2.6,0.9,4,1.3c0.3,0.1,0.9-0.2,1.1-0.4
		c0.6-0.7,1.1-1.5,1.7-2.2c3.7-4.3,8.3-7.3,13.8-9c0.5-0.2,1.2-0.1,1.2-1C115.2,122.4,115.2,121,115.2,119.6z M146.3,173.3
		c6.8-6.8,9.8-18.1,8.3-25.6c-1.3,0.4-2.7,0.8-4,1.3c-0.3,0.1-0.6,0.7-0.7,1.1c-0.2,2.3-0.2,4.6-0.6,6.8c-0.8,4.7-3,8.7-6,12.5
		C144.4,170.7,145.3,172,146.3,173.3z M128.6,124.5c7.4,1.9,13,6.1,17.1,12.3c1.7-0.6,3.2-1.1,4.9-1.6c-5.2-8.3-12.4-13.6-22-15.7
		C128.6,121.2,128.6,122.8,128.6,124.5z M121.8,157.4c3.3,0.1,6-2.5,6-5.7c0.1-3.3-2.6-6-6-6.1c-3.1-0.1-5.8,2.4-5.8,5.5
		C115.9,154.5,118.6,157.3,121.8,157.4z"/>
</g>
</svg>
