<?xml version="1.0" encoding="utf-8"?>
<!-- Generator: Adobe Illustrator 27.4.0, SVG Export Plug-In . SVG Version: 6.00 Build 0)  -->
<svg version="1.1" id="Layer_1" xmlns="http://www.w3.org/2000/svg" xmlns:xlink="http://www.w3.org/1999/xlink" x="0px" y="0px"
	 viewBox="0 0 602.7 199.8" style="enable-background:new 0 0 602.7 199.8;" xml:space="preserve">
<g>
	<path d="M584.4,99.5c1.1,2.1,2.3,4.1,3.4,6.2c1.3,2.4,2.5,4.8,3.7,7.2c0.1,0.3,0.3,0.5,0.3,0.8c0.2,2.1,1.7,3,3,4.2
		c2.7,2.6,5.4,5.2,8,7.9c1.6,1.6,2.1,3.9,2,6.1c-0.1,2.7-0.3,5.4-0.9,8.1c-0.5,2.3-1.8,4-4.8,4.1c0.3,1.1,0.5,2.1,0.9,2.9
		c1.1,2.1,0.5,4-1.6,5.2c0.7,2,1.5,4,2,6c0.2,0.7-0.1,1.9-0.6,2.3c-1.2,0.9-2.6,1.9-4,2.1c-9.2,1.8-18.4,3.5-27.7,5
		c-4.7,0.8-9.5,0.9-14.1,1.6c-4.2,0.7-8.5,1.5-12.6,2.7c-7.1,2.1-14.4,2.9-21.7,2.4c-2.5-0.2-3.6,0.7-4.7,3
		c-7.4,14.7-19.2,23.3-35.1,25.2c-13.9,1.6-26-2.8-36.1-12.7c-5.2-5.1-8.9-11.3-11.1-18.3c-0.3-0.9-0.7-1.2-1.6-1.1
		c-2.3,0.2-4.5,0.6-6.3,2.1c-0.4,0.4-0.8,1-0.9,1.6c-0.2,0.8-0.6,1.3-1.5,1.3c-0.4,0-0.8,0-1.2,0c-90.1,0-180.1,0-270.2,0
		c-0.9,0-1.5,0.1-1.9,1.1c-7.2,14.8-18.7,23.6-34.7,25.9c-18.1,2.7-36.1-6.7-45-23.1c-2.2-4-3.8-8.3-4.6-12.8
		c-0.2-0.8-0.5-1.1-1.2-1.1c-10.8-0.1-21.4-2.2-32-4.2c-5.3-1-10.5-2.2-15.7-3.3c-0.9-0.2-1.8-0.5-2.6-0.8c-4-1.5-6.7-4.3-8-8.5
		c-2.6-8.6-3.7-17.4-2.4-26.3c0.6-4.3,1.7-8.6,2.9-12.7c1.6-5.4,5-9.5,9.2-13.1c0.7-0.6,0.9-1.1,0.7-2c-1.7-10.9,0.4-21.1,5.4-30.7
		c0.3-0.6,0.4-1.4,0.3-2c0-2.1,0.8-3.8,2.3-5.1c2-1.7,4.5-2.3,7-2.3c8.8-0.1,17.4-1.5,25.9-3.7c7.6-1.9,14.8-5,22-8
		c15.2-6.3,30.4-12.7,45.7-18.8c12.2-4.8,24.7-8.9,37.4-11.9c9.9-2.4,19.8-4,29.9-4.8c13.9-1.1,27.9-2.1,41.8-2.9
		c8.6-0.5,17.1-0.5,25.7-0.6c6.9-0.1,13.8-0.2,20.7-0.2c16,0.2,31.8,1.4,47.4,5.1c2.9,0.7,5.8,1.5,8.7,2.2c0.5,0.1,1.1,0.3,1.2,0.7
		c0.5,1,1.4,1.1,2.3,1.4c19,6.2,37.8,13.2,56.3,20.8c21.1,8.7,42,17.8,63,26.6c1.6,0.7,3.4,0.7,5.1,0.8c8,0.6,16,1.2,24,1.7
		c9.3,0.5,18.4,2.1,27.4,4.4c20.2,5.1,39.8,12.2,58.4,21.8c3.5,1.8,6.9,4.1,10.3,6.3c0.3,0.2,0.5,0.4,0.8,0.6
		C586,97,586,98,584.4,99.5z M530.5,100.3c-1.7-1.1-3.2-2-4.7-3c-2.8-1.8-5.6-3.5-8.4-5.3c-0.7-0.5-1.4-1.1-1.9-1.9
		c-0.8-1.2-0.3-2.5,1.1-2.9c0.5-0.1,1-0.2,1.4-0.1c8.2,0.8,16.5,1.7,24.7,2.6c2.5,0.3,5,0.7,7.4,1.1c-1.3-1-2.8-1.8-4.2-2.4
		c-10.4-4.9-21.4-7.9-32.5-10.4c-17.4-3.9-34.8-7.6-52-12.6c-11.9-3.5-23.9-6.8-35.5-11.5c-20.2-8.3-40.5-16.5-60.9-24.5
		c-11.3-4.4-22.7-8.4-34-12.6c-0.4-0.1-0.8-0.3-1.1-0.5c-1.2-0.8-1.2-2.4,0.1-3.1c0.4-0.2,0.8-0.4,1.3-0.7c-0.4-0.1-0.7-0.2-1-0.3
		c-15-3.9-30.2-5.6-45.7-5.9c-9.3-0.2-18.5-0.1-27.8,0.1c-8.5,0.1-17.1,0.3-25.6,0.7c-14.4,0.7-28.7,1.5-43,3.1
		c-12,1.4-23.9,3.6-35.5,6.9c-20.1,5.8-39.4,13.7-58.6,21.8c-9.1,3.9-18.2,7.9-27.5,11.4c-11.2,4.2-22.9,6.6-34.9,6.8
		c-2.2,0-4.5,0.2-6.3,1.7c-0.7,0.6-1,1.6-1.4,2.4c0.7,0.4,1.3,0.9,2.1,1c3.7,0.8,7.3,1.5,11,2.3c3.2,0.7,6.3,1.6,8.9,3.9
		c2.5,2.2,2.8,5.1,0.5,7.4c-2,2-4.2,3.9-6.4,5.5C35,84.9,29.9,88.4,24.7,92c-0.7,0.5-0.9,0.9-0.6,1.7c1.5,4.3,4.1,7.4,8.5,8.8
		c1,0.3,2.1,0.7,3.1,1c13.2,3.7,26.3,7.3,39.5,11c0.9,0.3,1.6,0.2,2.4-0.5c11.1-8.3,23.5-11.8,37.1-10.2
		c12.4,1.5,23.1,6.9,31.7,16.3c8.3,8.9,13,19.6,14,31.9c0.5,6.3,0.4,12.6,0.6,18.9c0,0.5,0,1,0,1.5c86.7,0,173.3,0,260,0
		c0-0.6,0-1.2,0-1.8c0.1-6.1-0.1-12.2,0.3-18.3c1-15,6.8-27.8,17.6-38.1c13-12.3,28.5-16.9,45.9-14.3c8.4,1.2,16,4.5,22.9,9.5
		c0.5,0.4,0.9,0.6,1.6,0.3C516.3,106.6,523.3,103.5,530.5,100.3z M596.6,159.7c0-0.1,0-0.3,0-0.4c-1.8,0-3.6,0-5.4,0
		c-5.8,0.1-11.7,0.3-17.5,0.2c-2.8-0.1-5.6-0.5-8.3-1.3c-2.9-0.8-3.8-2.8-3.1-5.8c0.3-1.4,0.6-2.7,1.1-4.1c1.3-3.9,2.5-7.9,4.7-11.5
		c1.2-1.9,3-3.1,5.2-3.1c2.8,0.1,5.6,0.3,8.4,0.8c6,1.1,12.1,2,17.1,6.1c1.2,1,1.9,0.7,2.5-0.8c1.3-3.5,1.4-7,0.5-10.6
		c-0.1-0.5-0.4-0.9-0.7-1.3c-1.4-1.4-3-2.4-4.8-2.9c-5.8-1.6-11.5-3.4-17.3-4.9c-14.7-3.8-29.1-8.4-42.1-16.6c-0.6-0.4-1.5-0.5-2-1
		c-0.5-0.5-0.9-0.5-1.5-0.2c-7,3.1-14,6.2-21,9.4c-0.3,0.1-0.6,0.3-1,0.5c0.6,0.5,1,0.9,1.5,1.3c7,6.3,11.9,14,15.2,22.9
		c2.7,7.4,3.5,15.1,3.9,23c0.1,2.3,0,4.7,0,6.9C554,168,575.3,164.1,596.6,159.7z M73.8,117.1c-0.5-0.2-0.9-0.3-1.3-0.4
		c-7.6-2.1-15.2-4.1-22.8-6.3c-6.4-1.8-12.8-3.7-19.2-5.7c-3.2-1-5.6-3.3-7.2-6.2c-0.7-1.2-1.2-2.5-1.9-3.9c-1.2,1-2.4,2-3.6,3
		c-3.5,2.9-6.8,6.1-8.5,10.4C6.4,114.7,5,121.9,5,129.3c0,6.2,0.8,12.3,2.7,18.2c1,3.1,2.8,5.4,5.8,6.6c1.9,0.7,3.9,1.4,5.9,1.8
		c9.2,1.8,18.3,3.5,27.5,5.2c3.2,0.6,6.5,0.9,9.9,1.3C55.6,144.4,61.1,129.4,73.8,117.1z M150.5,156.9c0-23.7-18.3-42.7-41.1-43.2
		c-24-0.5-42.2,19.5-42.8,42.3c-0.6,25.3,19.7,43.7,41.1,44C130.4,200.4,150.4,181.9,150.5,156.9z M433.2,157
		c0.1,24.2,19.5,43.4,42.7,42.9c22-0.5,41.1-18.8,41.2-43.2c0-24-18.9-43.3-42.5-43C451.8,113.9,433.2,133.2,433.2,157z
		 M431.4,167.2c-6.2-29.1,14.6-54.6,40.7-56.2c12.8-0.8,24.2,3.2,33.4,12.3c13.7,13.4,17.1,29.8,12.1,48.3
		c7.8,0.5,18.8-0.6,21.1-2.2c-2.5,0-4.7,0-6.9,0c-2.1,0.1-2.6-0.4-2.7-2.6c-0.4-6.2-0.5-12.5-1.4-18.6c-2.2-15.2-9.4-27.4-21.6-36.2
		c-14.8-10.6-31.1-13-48-6.5c-19.4,7.5-30.4,22.4-33.8,43.3c-1.1,6.8-0.7,13.8-0.7,20.6c0,0.1,0.1,0.1-0.1-0.1
		C426.3,168.6,428.8,167.9,431.4,167.2z M64.1,162.4c-0.6-7-0.1-13.8,2.2-20.5c2.2-6.7,5.9-12.5,10.8-17.6c4.8-5,10.5-8.6,17-10.9
		c6.5-2.3,13.3-3.1,20.1-2.1c12.1,1.7,22.2,7.4,29.6,17.3c9.9,13.2,11.8,28,7,43.9c2.5,0,4.9,0,7.5,0c0-0.5,0-1,0-1.4
		c-0.1-5.2-0.1-10.3-0.3-15.5c-0.5-12.4-4.6-23.3-12.7-32.5c-10-11.3-22.6-16.9-37.3-16.7c-11.8,0.1-22.5,4.2-31.5,12.3
		c-10.1,9.1-15.7,20.6-16.9,34.4c-0.3,3.1,0,6.2,0,9.4C61.2,162.4,62.6,162.4,64.1,162.4z M469.4,64.3c0,0.1,0,0.2,0,0.3
		c5.1,1.3,10.1,2.7,15.2,3.9c12.6,2.9,25.2,5.6,37.8,8.7c12.5,3.1,24.6,7.3,35.4,14.6c0.4,0.3,0.9,0.4,1.3,0.5
		c5.2,1,10.4,1.9,15.7,2.9c0.9,0.2,1.7,0.3,2.6,0.5c0.8,0.1,1.7,0.3,2.5,0.4c0-0.1,0.1-0.3,0.1-0.4c-3.3-1.8-6.5-3.8-9.8-5.5
		c-17-8.5-34.7-15-53-19.8c-7.4-1.9-14.8-3.7-22.4-4.4c-5.2-0.5-10.4-0.7-15.7-1.1C475.9,64.7,472.7,64.5,469.4,64.3z M597.3,156.6
		c-0.7-1.5-1.3-2.5-1.6-3.6c-0.2-0.9-0.6-1.1-1.4-1.1c-3.6-0.3-7.1-0.7-10.7-1.1c-0.8-0.1-1.2,0.1-1.8,0.7c-2.2,2.4-4.8,3.2-7.9,2.2
		c-3.1-1-5.1-3.8-5.3-7.1c-0.2-3.3,1.6-6.3,4.5-7.6c3-1.4,6.3-0.7,8.7,1.7c0.4,0.4,0.9,0.7,1.4,0.8c4.4,0.6,8.9,1.1,13.1,2.7
		c0.1,0,0.2,0,0.3,0c0.3-0.9,0-1.4-0.7-1.9c-2.3-1.9-5-2.8-7.8-3.4c-4.5-0.9-9.1-1.7-13.7-2.3c-2-0.3-3.7,0.7-4.7,2.6
		c-2.4,4.5-3.9,9.4-5.1,14.4c-0.2,0.8,0.1,1.5,0.9,1.8c1.2,0.4,2.5,0.9,3.7,1c5.3,0.2,10.6,0.2,15.9,0.3
		C589.2,156.6,593.1,156.6,597.3,156.6z M17.9,82.9c0.5-0.2,0.9-0.3,1.3-0.5c2-1.4,4-2.7,5.9-4.2c2.2-1.8,4.5-3.3,7.3-3.5
		c3.5-0.3,7.1-0.3,10.6-0.4c0.7,0,1.3,0.1,1.8-0.6c0.8-1.2,0.9-2.1-0.3-2.9c-1.7-1.1-3.5-2.3-5.4-2.8c-5-1.3-10.2-2.3-15.3-3.5
		C20.6,70.1,18.6,76.1,17.9,82.9z M579.7,111.8c0.1-0.1,0.2-0.2,0.3-0.3c-2.7-4.5-5.5-9-8.3-13.5c-0.2-0.3-0.7-0.6-1.1-0.6
		c-3.6-0.7-7.3-1.4-10.9-2c-0.6-0.1-1.2,0-2.1,0c3.7,3.2,5.8,7.1,7.5,11.3c0.3,0.8,0.7,1.1,1.5,1.3c1.9,0.5,3.7,1,5.6,1.6
		C574.7,110.3,577.2,111.1,579.7,111.8z M444,57.3c0-0.1,0.1-0.2,0.1-0.3c-0.5-0.2-1.1-0.5-1.6-0.7c-14.3-6-28.5-12.1-42.8-18
		c-20.9-8.7-42.1-16.7-63.6-23.6c-0.4-0.1-0.9-0.1-1.4-0.2c0.3,0.4,0.5,0.5,0.8,0.6c21.9,8.4,43.7,16.8,65.6,25.3
		c12.1,4.7,24.1,9.8,36.1,14.6C439.4,55.9,441.7,56.5,444,57.3z M536.1,93.6c-0.2,2-0.5,3.7-0.7,5.5c0,0.2,0.2,0.5,0.4,0.6
		c0.7,0.4,1.4,0.8,2.2,1c4.9,1.3,9.7,2.5,14.6,3.7c1.4,0.3,2.7,0.7,4.3,1c-1.8-3.5-3.9-6.5-6.4-9.2c-0.3-0.3-0.7-0.5-1.1-0.6
		C545,94.9,540.6,94.2,536.1,93.6z M40.9,77.1c-0.2-0.2-0.3-0.2-0.4-0.3c-5.2-0.1-10.2,0.1-14.4,4c-2.3,2.2-4.9,3.9-7.9,4.9
		c-0.2,0.1-0.6,0.4-0.6,0.6c0.1,2.3,0.2,4.5,0.3,6.9C25.8,87.8,33.3,82.5,40.9,77.1z M547.9,106.2c0,0.1,0,0.2-0.1,0.3
		c14.7,7.3,30.8,10.3,46.4,14.8c-1.1-1.1-2.3-2.1-3.5-3c-0.1-0.1-0.4-0.1-0.6-0.2c-0.9-0.2-1.9-0.4-2.8-0.6
		c-7.4-2.3-14.8-4.7-22.3-6.9C559.4,108.9,553.7,107.6,547.9,106.2z M589.2,115.1c-0.1-0.4-0.1-0.5-0.2-0.7
		c-2.6-4.9-5.2-9.8-7.8-14.7c-0.1-0.2-0.3-0.5-0.5-0.5c-1.7-0.3-3.5-0.6-5.2-0.9c2.7,4.9,5.3,9.7,8,14.5c0.1,0.2,0.3,0.4,0.5,0.5
		C585.8,113.9,587.4,114.4,589.2,115.1z M597.9,149.4c-0.4-1.7-1.5-2.1-2.6-2.5c-4.7-1.8-9.6-2.4-14.5-2.7c-1.6-0.1-3.2,0-4.8,0.2
		c-0.4,0-1.1,0.6-1.2,1.1c-0.2,0.8,0.4,1.3,1.1,1.5c1,0.2,2,0.4,3,0.5c4.3,0.4,8.6,0.8,12.8,1.2
		C593.7,148.8,595.7,149.1,597.9,149.4z M532.9,97.9c0.1-1.6,0.3-3.2,0.4-4.8c-2.2-0.2-4.1-0.4-6.1-0.6c0,0.1-0.1,0.2-0.1,0.3
		C528.7,94.7,530.1,96.9,532.9,97.9z M561.8,106.9c0.1-0.1,0.1-0.2,0.2-0.3c-1.4-4-4.7-8.5-6.4-9c1.5,2.7,3.1,5.5,4.8,8.3
		C560.6,106.3,561.3,106.5,561.8,106.9z M572.3,143.3c-1.4,2.2-1.1,4.9,0.7,6.6c1.6,1.5,3.9,1.7,5.6,0.4c-0.8-0.2-1.6-0.3-2.3-0.4
		C572.7,149.2,571.4,147.1,572.3,143.3z M520.1,90c0,0.1-0.1,0.2-0.1,0.3c1.1,0.7,2.3,1.5,3.4,2.2c0.2-0.8,0.4-1.4,0.6-2.2
		C522.7,90.2,521.4,90.1,520.1,90z"/>
	<path d="M410.8,73.5c0.9,5.2,2,10.4,2.8,15.5c1.1,7.2,1.3,14.5,1,21.7c-0.3,6.6-0.6,13.3-1.1,19.9c-0.5,7.3-1.2,14.6-1.9,22
		c-0.1,0.9-0.3,1.9-0.5,2.8c-0.7,3.4-2.7,5.5-6,6c-3.6,0.5-7.2,0.9-10.8,1c-6.8,0.2-13.7,0.2-20.5,0.2c-9.3,0-18.6-0.1-27.9-0.2
		c-12.7-0.1-25.4-0.2-38.1-0.2c-13.8-0.1-27.6-0.2-41.4-0.3c-7.4-0.1-14.9-0.1-22.3-0.2c-11.2-0.2-22.5-0.3-33.7-0.5
		c-7.2-0.1-14.4-0.2-21.6-0.5c-3.8-0.2-7.7-0.6-11.5-1.2c-3.9-0.6-6.6-3-8-6.8c-1.3-3.5-2.4-7.1-3.7-10.6c-1.8-4.7-3.8-9.3-5.8-13.9
		c-3.4-7.9-8.8-13.9-15.8-18.6c-2.9-2-5.8-4-8.7-6c-3.8-2.7-6.5-6.2-8.3-10.5c-2.7-6.6-5.1-13.4-5.8-20.6c-0.2-2.3-0.5-4.7-0.5-7
		c-0.1-3.3-1-6.3-2.4-9.2c-1-2.1-1.9-4.3-2.6-6.5c-1.5-5.1-0.2-9.8,4-12.9c2.9-2.1,6.1-3.8,9.2-5.3c13.9-6.6,28.5-10.8,43.6-13.3
		c8.6-1.4,17.2-2.8,25.9-3.8c6.7-0.8,13.6-1.2,20.4-1.4c9.8-0.3,19.6-0.4,29.3-0.5c7.4-0.1,14.8-0.2,22.2-0.1
		c16.9,0.2,33.6,2.4,49.9,6.6c22.2,5.7,44,12.5,65.2,21.5c5.7,2.4,11.3,5.1,16.9,7.7c9,4.2,18,8.3,26.9,12.7
		c3.1,1.5,5.8,3.7,8.7,5.6c0.7,0.4,1.2,1.1,1.7,1.8c1.9,2.6,1,5.1-2.1,5.6c-2.2,0.3-4.5,0.4-6.7,0.4c-6.5-0.2-13-0.5-19.5-0.8
		C411,73.5,410.9,73.5,410.8,73.5z M256.5,159.2c7.2,0,14.3,0,21.3,0c13.9,0.1,27.7,0.2,41.6,0.2c16.7,0.1,33.3,0.2,50,0.2
		c8.9,0,17.7-0.1,26.6-0.2c2.8,0,5.5-0.4,8.3-0.8c2.3-0.3,3.8-1.8,4.2-4.2c0.3-1.5,0.6-2.9,0.7-4.4c0.9-11.4,1.7-22.8,2.5-34.2
		c0.7-11.3,0.4-22.6-1.9-33.8c-0.6-3-1.3-5.9-2-8.9c-8.4-0.5-16.6-0.9-25-1.4c0.3,0.7,0.5,1.1,0.6,1.5c0.4,1.6,0.9,3.3,1.1,4.9
		c0.2,2.3-1,3.7-3.2,4.4c-2.5,0.8-5.1,0.5-7.6,0c-4.3-0.8-7-3.4-7.9-7.8c-0.3-1.4-0.5-2.7-0.8-4.2c-37.2-1.9-74.3-4.6-111.5-5.6
		C258.7,96.3,258.4,127.6,256.5,159.2z M250.5,65c-42.6-1.3-85-2.6-127.4-3.9c0.1,1.6,0.4,3.1,0.4,4.6c0.2,8.6,2.2,16.7,5.4,24.6
		c2,5.1,5.1,9.2,9.7,12.1c2.2,1.4,4.3,3,6.5,4.5c7.1,4.8,12.9,10.7,16.5,18.7c2,4.3,3.9,8.7,5.7,13.1c1.7,4.2,3,8.6,4.6,12.9
		c1.1,3,3.2,4.8,6.2,5.2c4,0.5,8.1,1,12.1,1.2c10.6,0.3,21.2,0.4,31.8,0.5c7.2,0.1,14.5,0.2,21.7,0.3c3.3,0,6.6,0,10.1,0
		C255.6,127.6,256,96.3,250.5,65z M362,44c-0.6-2.1-1.1-4.2-1.7-6.4c-0.2-0.7-0.5-1.1-1.2-1.3c-11.9-3.6-23.7-7.4-35.6-10.8
		c-14.9-4.2-30.1-6.7-45.6-7.3c-7.6-0.3-15.1-0.3-22.7-0.5c-0.4,0-0.7,0-1.2,0c3.3,14.1,6.6,28.1,9.9,42.1c28.9,1.5,57.8,3,86.6,4.5
		c-0.2-0.7-0.5-1.5-0.7-2.4c-0.6-3.5-0.4-7,0.2-10.5c0.8-4.2,3-6.5,7.1-7.1C358.6,44,360.3,44.1,362,44z M157.1,56.6
		c27.3,0.8,54.5,1.6,81.7,2.3c0-0.6,0-0.9-0.1-1.3c-1.4-12.2-2.7-24.4-4.1-36.5c-0.3-3-0.3-3-3.3-3c-13,0.1-26.1,0.7-39,2.5
		c-12,1.6-23.9,3.7-35.6,6.7c-0.7,0.2-1,0.5-0.9,1.2c0.2,3.8,0.3,7.6,0.5,11.4C156.6,45.5,156.8,51,157.1,56.6z M149.7,29.3
		c-2.1,0.7-4,1.4-5.9,2c-5.1,1.8-10,3.8-14.5,6.9c-3.1,2.2-3.5,3.9-1.5,7.2c2.1,3.3,4.2,6.6,6.4,9.9c0.2,0.3,0.8,0.6,1.2,0.6
		c3.6,0.2,7.2,0.3,10.8,0.3c1.5,0,3,0,4.6,0C150.5,47.3,150.1,38.4,149.7,29.3z M366.9,38.8c0.6,2.2,1.2,4.2,1.6,6.1
		c0.2,0.8,0.6,1.2,1.3,1.5c4.6,2,7.8,5.4,9.3,10.4c0.9,3.1,1.3,6.2,0.6,9.5c7.1,0.4,14,0.9,21,1.3c0-0.4,0-0.7-0.1-0.9
		c-1.1-4.8-2.1-9.6-3.2-14.3c-0.1-0.4-0.6-0.9-1-1.1c-6.8-3-13.6-6.1-20.5-9C373.1,41,370.1,40,366.9,38.8z M370.4,68.4
		c0-0.1,0-0.2,0-0.4c0.9,0,1.9,0.1,2.8,0c2.8-0.2,4-1.5,4.1-4.3c0.1-7.1-2.9-12.7-9.8-15.1c-1.3-0.5-2.8-0.4-4-1
		c-1.8-0.8-3.5-0.8-5.3-0.6c-3.5,0.3-5.1,1.8-5.6,5.4c-0.3,2.2-0.4,4.4-0.4,6.5c0.1,4.6,1.6,6.7,6,7.6
		C362.3,67.3,366.3,67.8,370.4,68.4z M261.5,62.3c-0.3-1.2-0.6-2.4-0.9-3.6c-3.2-13.7-6.4-27.4-9.6-41c-0.2-0.8-0.2-1.6-0.3-2.3
		c-2,0-4,0-6.1,0c0.1,0.7,0.2,1.4,0.4,2c1.9,11.1,3.8,22.1,5.7,33.2c0.6,3.6,1.2,7.2,1.9,10.8c0.1,0.4,0.5,0.9,0.8,0.9
		C256.1,62.3,258.9,62.3,261.5,62.3z M249.7,62c-0.4-2.5-0.8-5-1.2-7.4c-2.2-12.8-4.4-25.6-6.6-38.4c-0.1-0.3-0.4-0.8-0.7-0.8
		c-1.5-0.1-3,0-4.5,0c0.5,4.6,1,9,1.5,13.4c1.1,9.9,2.2,19.7,3.3,29.6c0.1,1.1,0,2.3,0,3.6C244.1,62,246.9,62,249.7,62z M405.6,52.9
		c0,0.3,0,0.5,0,0.6c1.3,5.4,2.7,10.8,4,16.2c0.2,0.7,0.5,0.9,1.1,1c2.5,0.1,5.1,0.3,7.6,0.4c5.3,0.2,10.7,0.3,16,0.4
		c1.1,0,2.2-0.3,3.6-0.5c-0.7-0.9-1.1-1.5-1.6-2c-1.8-1.4-3.5-2.9-5.4-3.9c-5.5-2.9-11.1-5.6-16.7-8.3
		C411.4,55.5,408.5,54.2,405.6,52.9z M129.5,34.7c-0.1,0-0.2-0.1-0.3-0.1c-3.1,1.4-6.1,2.8-8.6,5.2c-2.3,2.3-3.4,5.1-2.4,8.3
		c1.1,3.3,2.5,6.5,3.8,9.7c0.1,0.2,0.4,0.4,0.7,0.4c3.3,0.2,6.6,0.3,10.1,0.4c-0.2-0.3-0.2-0.4-0.3-0.6c-2.5-3.9-5-7.8-7.4-11.7
		c-2.3-3.8-1.6-7.1,1.9-9.8C127.8,35.8,128.6,35.3,129.5,34.7z M367.5,70.9c0.5,1.9,1,3.7,1.5,5.4c0.5,1.5,1.6,2.4,3,3
		c2.4,1,4.9,1.3,7.5,0.9c1.8-0.3,2.3-1.1,2-2.9c-0.5-3-2.3-5.3-3.8-7.9C374.8,71.5,371.3,70.9,367.5,70.9z M399.9,50.4
		c1.1,4.8,2.1,9.4,3.1,14.1c0.4,1.9,0.7,3.8,1.1,5.8c0.7,0,1.6,0,2.7,0c-0.1-0.5-0.2-0.9-0.3-1.3c-1.3-5.3-2.7-10.6-3.9-15.9
		C402.3,51.5,401.6,50.7,399.9,50.4z M153.6,56.5c0.2,0,0.4,0,0.6,0c-0.4-9.3-0.8-18.7-1.2-28c-0.2,0-0.4,0-0.6,0
		C152.8,37.8,153.2,47.2,153.6,56.5z M362.4,34.7c0.5,1.9,0.9,3.6,1.4,5.3c0.4,1.7,0.9,3.3,1.4,5c0.1,0,0.3-0.1,0.4-0.1
		c-0.1-0.4-0.2-0.8-0.3-1.2c-0.5-1.9-1.1-3.9-1.5-5.8c-0.2-0.8,0-1.7,0-2.6C363.4,35.1,363,34.9,362.4,34.7z"/>
	<path d="M141.7,156.9c0,18.7-14.7,33.8-33,33.8c-18.1,0-32.8-15.3-32.7-34c0.1-19.1,15.2-33.5,32.9-33.4
		C127,123.3,141.7,138.2,141.7,156.9z M97.3,156.6c-0.4,6,4.5,11.6,10.6,12c6,0.4,11.7-4.6,12.2-10.8c0.5-6.5-4.4-12.3-10.7-12.7
		C103.5,144.8,97.5,149.6,97.3,156.6z M120.5,128.5c-0.2,0.1-0.4,0.2-0.5,0.4c-1.4,1.4-2.7,2.7-4,4.1c-0.2,0.2-0.3,0.6-0.4,0.9
		c-0.2,3-0.4,6.1-0.6,9.1c0,0.4,0.3,0.9,0.6,1.1c0.9,0.8,1.9,1.4,2.8,2.2c0.5,0.4,0.8,0.5,1.4,0.3c2.7-1.1,5.5-2.2,8.2-3.4
		c0.3-0.1,0.7-0.5,0.8-0.8c0.8-1.6,1.6-3.3,2.4-4.9c0.3-0.6,0.2-1-0.2-1.5c-2.8-3.1-6-5.4-9.7-7.2
		C121,128.7,120.8,128.7,120.5,128.5z M138.8,160c-0.1-0.2-0.4-0.6-0.7-0.8c-1.5-0.8-3-1.7-4.5-2.4c-0.6-0.3-1.5-0.4-2.2-0.3
		c-2.5,0.6-5.1,1.3-7.6,1.9c-0.8,0.2-1.1,0.6-1.3,1.4c-0.2,1-0.5,2-0.9,2.9c-0.3,0.6-0.3,1,0.2,1.5c1.4,1.7,2.9,3.4,4.2,5.3
		c1.1,1.7,2.6,2.6,4.6,2.6c1.1,0,2.2,0.4,3.3,0.5c0.3,0,0.8-0.2,0.9-0.5C137,168.7,138.2,164.7,138.8,160z M102.4,142.6
		c-0.1-1.1-0.1-2.2-0.2-3.3c-0.1-2,0.2-4.2-0.5-5.9c-0.7-1.7-2.6-2.9-3.9-4.3c0,0-0.1-0.1-0.1-0.1c-0.4-0.6-0.8-0.5-1.4-0.3
		c-3.7,1.8-7,4.2-9.8,7.3c-0.3,0.3-0.3,1-0.2,1.4c0.7,1.7,1.5,3.3,2.3,4.9c0.2,0.4,0.6,0.7,1,0.8c2.4,1,4.8,1.9,7.1,3
		c1.1,0.5,2,0.6,2.9-0.5c0.5-0.6,1.2-1,1.8-1.4C102.2,144,102.7,143.5,102.4,142.6z M108.9,188c1.8-0.2,3.5-0.5,5.3-0.6
		c1.1-0.1,1.5-0.6,1.6-1.7c0.2-1.4,0.5-2.8,0.6-4.3c0.1-0.8-0.1-1.6-0.4-2.3c-1-1.9-2.3-3.7-3.3-5.6c-0.9-1.6-1.9-2.5-3.8-2
		c-0.6,0.2-1.2-0.1-1.8,0c-0.4,0.1-1,0.3-1.2,0.6c-1.5,2.4-3,4.8-4.4,7.2c-0.3,0.5-0.4,1.2-0.3,1.8c0.2,1.7,0.5,3.3,0.7,5
		c0.1,0.8,0.5,1.1,1.1,1.1C104.9,187.5,106.8,187.7,108.9,188z M78.8,159.8c0.5,4.7,1.8,8.8,4,12.6c0.1,0.2,0.6,0.4,0.9,0.4
		c1.8-0.2,3.6-0.5,5.4-0.9c0.4-0.1,0.8-0.3,1-0.6c1.9-2.3,3.8-4.6,5.6-7c0.2-0.3,0.3-0.9,0.2-1.3c-0.3-1.2-0.6-2.3-1.1-3.4
		c-0.1-0.4-0.5-0.8-0.9-0.9c-2.7-0.8-5.4-1.5-8-2.1c-0.5-0.1-1.1-0.1-1.5,0.1c-1.7,0.8-3.3,1.7-4.9,2.6
		C79.1,159.4,78.9,159.7,78.8,159.8z M114.1,170.6c1.5,2.5,3.1,5.2,4.7,7.7c0.6,0.9,0.7,1.8,0.5,2.8c-0.3,1.6-0.5,3.2-0.8,5
		c5.8-2.2,10.5-5.6,14.3-10.6c-1.7-0.3-3.1-0.5-4.5-0.7c-1.4-0.1-2.4-0.7-3.2-1.8c-1.4-2-3-3.9-4.5-5.8c-0.3-0.3-0.6-0.6-0.7-0.8
		C117.8,167.9,116,169.2,114.1,170.6z M138.9,156.5c-0.2-6.4-1.9-12-5.5-17.2c-0.7,1.5-1.5,2.8-2,4.2c-0.5,1.2-1.2,1.9-2.4,2.4
		c-2.7,1.1-5.4,2.2-8,3.3c0.7,2.2,1.4,4.4,2.1,6.6c0.1,0,0.4-0.1,0.7-0.1c2.6-0.7,5.2-1.4,7.8-2c0.7-0.2,1.7,0,2.4,0.3
		C135.7,154.7,137.2,155.6,138.9,156.5z M117.3,127.3c-5.7-1.5-11.4-1.7-17.1,0.1c1.2,1.3,2.4,2.4,3.4,3.7c0.5,0.6,1,1.4,1.1,2.1
		c0.3,2.7,0.4,5.5,0.5,8.3c0,0.4,0.1,0.8,0.1,1c2.4,0,4.6,0,7,0c0.2-3,0.3-6.1,0.7-9.1c0.1-0.9,0.6-1.7,1.1-2.4
		C115,129.7,116.1,128.6,117.3,127.3z M97.6,166.5c-1.7,2.1-3.5,4.3-5.2,6.6c-0.9,1.2-1.9,1.7-3.2,1.8c-1.4,0.1-2.7,0.4-4.3,0.7
		c3.8,5,8.3,8.5,14.1,10.6c-0.3-1.9-0.7-3.6-0.8-5.3c-0.1-0.8,0.1-1.6,0.4-2.3c0.2-0.6,0.7-1.2,1.1-1.8c1.2-2.1,2.5-4.1,3.6-6
		C101.3,169.3,99.4,167.9,97.6,166.5z M96.3,149.2c-2.7-1.1-5.4-2.3-8.2-3.4c-1-0.4-1.6-1.1-2.1-2.1c-0.6-1.4-1.3-2.8-2.1-4.3
		c-3.3,5.2-5.2,10.7-5.3,17c1.1-0.6,2.1-1,3-1.6c1.9-1.4,3.9-1.5,6-0.7c0,0,0.1,0,0.1,0c2.2,0.6,4.4,1.1,6.5,1.7
		C95,153.5,95.6,151.4,96.3,149.2z"/>
	<path d="M508.2,156.9c0,18.7-14.7,33.9-33.1,33.8c-17.6-0.1-32.5-14.3-32.7-33.8c-0.2-18.7,14.7-33.7,32.9-33.6
		C493.6,123.3,508.2,138.2,508.2,156.9z M486.7,157.4c0.4-6.1-4.6-11.8-10.7-12.2c-6-0.4-11.6,4.6-12.1,10.8
		c-0.4,6.5,4.2,12.1,10.5,12.6C480.3,169.1,486.4,164.3,486.7,157.4z M505.3,160.1c-0.2-0.2-0.4-0.7-0.8-0.9
		c-1.4-0.8-2.9-1.7-4.4-2.3c-0.6-0.3-1.4-0.4-2-0.3c-2.6,0.6-5.2,1.4-7.8,2c-0.6,0.2-0.9,0.4-1.1,1.1c-0.2,1-0.5,2.1-1,3
		c-0.3,0.7-0.2,1.2,0.3,1.7c1.8,2.2,3.5,4.5,5.4,6.7c0.3,0.4,0.8,0.6,1.3,0.7c1.7,0.3,3.4,0.6,5.1,0.8c0.4,0,1-0.2,1.1-0.5
		C503.5,168.7,504.7,164.7,505.3,160.1z M481.5,142.7c-0.1,0.1-0.2,0.1-0.3,0.2c0.3,0.4,0.6,1,1,1.3c0.9,0.7,1.8,1.4,2.7,2.1
		c0.3,0.2,0.9,0.4,1.2,0.3c2.8-1.1,5.5-2.2,8.3-3.4c0.3-0.1,0.6-0.5,0.8-0.8c0.8-1.5,1.5-3.1,2.3-4.6c0.4-0.7,0.3-1.2-0.2-1.8
		c-2.8-3-6.1-5.4-9.8-7.1c-0.3-0.1-0.9,0-1.2,0.3c-1.2,1.2-2.4,2.4-3.6,3.7c-0.3,0.3-0.6,0.9-0.6,1.3
		C481.9,136.9,481.8,139.8,481.5,142.7z M468.7,138.7C468.7,138.7,468.7,138.7,468.7,138.7c-0.1-1.6-0.2-3.1-0.3-4.7
		c0-0.3-0.2-0.7-0.4-1c-1.3-1.4-2.6-2.7-4-4c-0.2-0.2-0.8-0.4-1.1-0.2c-3.8,1.8-7.2,4.2-10,7.4c-0.2,0.3-0.3,0.9-0.2,1.2
		c0.7,1.7,1.6,3.3,2.4,5c0.2,0.3,0.5,0.6,0.9,0.7c2.3,1,4.6,1.8,6.8,2.9c1.5,0.7,2.6,0.6,3.7-0.6c0.5-0.5,1.2-0.8,1.8-1.3
		c0.3-0.3,0.6-0.8,0.6-1.2C468.9,141.5,468.8,140.1,468.7,138.7z M475.3,188c1.9-0.2,3.8-0.5,5.7-0.7c0.7-0.1,1.1-0.4,1.2-1.1
		c0.2-1.7,0.5-3.4,0.7-5.1c0.1-0.5,0-1.2-0.3-1.6c-1.1-2-2.5-3.9-3.5-5.9c-0.9-1.6-1.8-2.5-3.8-2c-0.6,0.2-1.4-0.1-2-0.1
		c-0.3,0-0.8,0.2-1,0.5c-1.6,2.5-3.1,5-4.6,7.5c-0.2,0.4-0.3,0.9-0.3,1.4c0.2,1.8,0.6,3.5,0.8,5.3c0.1,0.8,0.5,1.1,1.1,1.2
		C471.4,187.5,473.3,187.7,475.3,188z M451.5,156.4c-0.2,0-0.4,0.1-0.5,0.2c-1.8,0.9-3.5,1.8-5.2,2.8c-0.2,0.1-0.4,0.6-0.3,0.9
		c0.5,4.3,1.7,8.3,3.8,12c0.2,0.3,0.7,0.5,1,0.5c1.7-0.2,3.4-0.5,5.1-0.8c0.5-0.1,1-0.4,1.3-0.7c1.6-2,3.2-4,4.8-6
		c0.9-1,1.2-1.9,0.5-3.1c-0.4-0.7-0.6-1.5-0.7-2.4c-0.1-0.7-0.4-0.9-1.1-1.1c-1.4-0.3-2.8-0.7-4.2-1.1
		C454.5,157.2,453.1,156.8,451.5,156.4z M480.7,170.6c1.5,2.5,3.1,5.2,4.8,7.8c0.5,0.8,0.6,1.5,0.4,2.4c-0.4,1.7-0.6,3.4-0.9,5.3
		c5.9-2.2,10.5-5.6,14.3-10.6c-1.7-0.3-3.2-0.5-4.6-0.7c-1.3-0.1-2.2-0.6-3-1.7c-1.7-2.3-3.6-4.6-5.3-6.7
		C484.4,167.9,482.5,169.2,480.7,170.6z M487.6,149.1c0.7,2.3,1.4,4.5,2.1,6.7c2.7-0.7,5.5-1.4,8.3-2.2c1-0.3,1.9-0.2,2.9,0.4
		c1.4,0.8,2.9,1.6,4.5,2.4c-0.1-6.5-1.9-12.1-5.5-17.2c-0.7,1.5-1.5,2.9-2,4.3c-0.5,1.2-1.3,1.9-2.4,2.4
		C492.8,146.9,490.2,148.1,487.6,149.1z M484,127.4c-5.9-1.6-11.6-1.8-17.4,0.1c0.4,0.4,0.6,0.8,1,1c3,2.2,4.2,5.1,3.9,8.8
		c-0.1,1.8,0.2,3.6,0.4,5.2c2.4,0,4.7,0,7,0c0.2-2.9,0.4-5.9,0.5-8.9c0-1.1,0.4-2,1.2-2.7C481.7,129.8,482.7,128.6,484,127.4z
		 M469.7,170.7c-1.9-1.4-3.8-2.8-5.6-4.3c-1.7,2.2-3.6,4.4-5.3,6.6c-0.8,1.1-1.8,1.6-3,1.7c-1.4,0.1-2.8,0.4-4.4,0.7
		c3.8,5,8.3,8.4,14.1,10.6c-0.3-1.9-0.7-3.5-0.8-5.2c-0.1-0.8,0.1-1.8,0.4-2.5C466.6,175.8,468.2,173.2,469.7,170.7z M462.9,149.2
		c-2.7-1.1-5.4-2.2-8.2-3.3c-1-0.4-1.7-1.1-2.1-2.1c-0.6-1.4-1.3-2.8-2.1-4.4c-3.3,5.3-5.2,10.7-5.3,17c0.9-0.5,1.7-0.8,2.4-1.3
		c2.3-1.8,4.7-1.8,7.4-0.8c2,0.7,4,1.1,5.8,1.6C461.5,153.5,462.2,151.4,462.9,149.2z"/>
	<path d="M282.1,92.7c-2.2-0.2-4.8-0.5-7.3-0.8c-2.5-0.3-4.4-1.6-5.9-3.6c-0.2-0.3-0.7-0.6-1.2-0.6c-1-0.1-1.9-0.1-2.9-0.2
		c-2.1-0.2-3.5-1.8-3.4-3.8c0.1-2,1.6-3.5,3.7-3.4c2.8,0.1,5.4-0.3,7.9-1.7c3.3-1.8,7-1.4,10.7-1.3c2.8,0.1,5.7,0.3,8.4,1.4
		c2,0.8,3.3,2.3,4.5,4c0.9,1.3,0.7,2.7,0,4.2c-1.7,3.9-4.9,5-8.5,5.4C286.1,92.4,284.3,92.5,282.1,92.7z M290.8,85.4
		C290.8,85.5,290.8,85.5,290.8,85.4c0.8,0,1.7,0.1,2.5,0c0.4,0,0.7-0.4,1-0.6c-0.3-0.3-0.5-0.8-0.9-1c-0.3-0.2-0.7-0.1-1.1-0.1
		c-2.3-0.1-4.7-0.2-7-0.2c-6.6-0.2-13.3-0.4-19.9-0.6c-0.4,0-0.9,0.5-1.3,0.8c0.4,0.3,0.8,0.8,1.3,0.9c1.3,0.1,2.6,0,3.9,0.1
		C276.5,84.9,283.6,85.2,290.8,85.4z M291.5,88.3c-6.5-0.2-12.7-0.4-19.1-0.6C275,90,287.8,90.4,291.5,88.3z M288,80.6
		c-3.6-0.5-7.3-0.9-10.9-0.3c0,0.1,0,0.2,0,0.3C280.8,80.6,284.4,80.6,288,80.6z"/>
	<path d="M150.7,85c-2.6-0.3-5.5-0.6-8.4-1.1c-1.9-0.3-3.5-1.4-4.7-3.1c-0.6-0.9-1.3-1.1-2.2-1.1c-1,0-2,0-3-0.3
		c-1.7-0.4-2.6-1.9-2.5-3.7c0.1-1.7,1.3-3.1,2.9-3.3c1.5-0.1,3,0,4.6,0c0.4,0,0.8,0,1.1-0.2c3.6-2.5,7.7-3,11.9-2.8
		c2.8,0.1,5.5,0.5,8.3,0.9c2.8,0.4,4.7,2.2,6.2,4.5c0.8,1.2,0.8,2.5,0.2,3.9c-1.4,3.4-3.9,5.2-7.5,5.6
		C155.6,84.6,153.3,84.7,150.7,85z M148.1,77.3C148.1,77.3,148.1,77.3,148.1,77.3c4.5,0.2,9.1,0.3,13.6,0.4c0.4,0,0.8-0.5,1.2-0.7
		c-0.4-0.3-0.7-0.8-1.1-0.9c-0.7-0.2-1.5-0.1-2.3-0.1c-8.4-0.3-16.9-0.5-25.3-0.8c-0.6,0-1.4-0.1-1.4,0.7c0,0.3,0.8,0.6,1.3,0.9
		c0.1,0.1,0.3,0,0.5,0C139.1,77,143.6,77.2,148.1,77.3z M160.1,80.5c-6.6-0.2-12.8-0.4-19.2-0.6C143.4,82.2,155.9,82.7,160.1,80.5z
		 M156.9,72.8c-3.8-0.5-7.6-0.9-11.4-0.3c0,0.1,0,0.2,0,0.3C149.3,72.8,153.1,72.8,156.9,72.8z"/>
</g>
</svg>
