<?xml version="1.0" encoding="utf-8"?>
<!-- Generator: Adobe Illustrator 27.4.0, SVG Export Plug-In . SVG Version: 6.00 Build 0)  -->
<svg version="1.1" id="Layer_1" xmlns="http://www.w3.org/2000/svg" xmlns:xlink="http://www.w3.org/1999/xlink" x="0px" y="0px"
	 viewBox="0 0 150 49.7" style="enable-background:new 0 0 150 49.7;" xml:space="preserve">
<g>
	<path d="M145,23.9c0.3,0.5,0.6,1,0.8,1.5c0.3,0.6,0.6,1.2,0.9,1.8c0,0.1,0.1,0.1,0.1,0.2c0,0.5,0.4,0.7,0.7,1c0.7,0.6,1.3,1.3,2,2
		c0.4,0.4,0.5,1,0.5,1.5c0,0.7-0.1,1.3-0.2,2c-0.1,0.6-0.4,1-1.2,1c0.1,0.3,0.1,0.5,0.2,0.7c0.3,0.5,0.1,1-0.4,1.3
		c0.2,0.5,0.4,1,0.5,1.5c0,0.2,0,0.5-0.1,0.6c-0.3,0.2-0.6,0.5-1,0.5c-2.3,0.4-4.6,0.9-6.9,1.2c-1.2,0.2-2.4,0.2-3.5,0.4
		c-1,0.2-2.1,0.4-3.1,0.7c-1.8,0.5-3.6,0.7-5.4,0.6c-0.6,0-0.9,0.2-1.2,0.7c-1.8,3.7-4.8,5.8-8.7,6.3c-3.5,0.4-6.5-0.7-9-3.2
		c-1.3-1.3-2.2-2.8-2.8-4.6c-0.1-0.2-0.2-0.3-0.4-0.3c-0.6,0-1.1,0.1-1.6,0.5c-0.1,0.1-0.2,0.2-0.2,0.4c0,0.2-0.1,0.3-0.4,0.3
		c-0.1,0-0.2,0-0.3,0c-22.4,0-44.9,0-67.3,0c-0.2,0-0.4,0-0.5,0.3c-1.8,3.7-4.7,5.9-8.6,6.5c-4.5,0.7-9-1.7-11.2-5.8
		c-0.5-1-0.9-2.1-1.1-3.2c0-0.2-0.1-0.3-0.3-0.3c-2.7,0-5.3-0.5-8-1C6,39,4.7,38.7,3.4,38.5c-0.2,0-0.4-0.1-0.6-0.2
		c-1-0.4-1.7-1.1-2-2.1c-0.6-2.1-0.9-4.3-0.6-6.6c0.1-1.1,0.4-2.1,0.7-3.2c0.4-1.3,1.2-2.4,2.3-3.3c0.2-0.1,0.2-0.3,0.2-0.5
		c-0.4-2.7,0.1-5.3,1.3-7.6c0.1-0.1,0.1-0.3,0.1-0.5c0-0.5,0.2-0.9,0.6-1.3c0.5-0.4,1.1-0.6,1.7-0.6c2.2,0,4.3-0.4,6.5-0.9
		c1.9-0.5,3.7-1.2,5.5-2c3.8-1.6,7.6-3.2,11.4-4.7c3-1.2,6.2-2.2,9.3-3c2.5-0.6,4.9-1,7.4-1.2c3.5-0.3,6.9-0.5,10.4-0.7
		c2.1-0.1,4.3-0.1,6.4-0.1c1.7,0,3.4,0,5.2,0c4,0,7.9,0.3,11.8,1.3c0.7,0.2,1.4,0.4,2.2,0.5c0.1,0,0.3,0.1,0.3,0.2
		c0.1,0.2,0.3,0.3,0.6,0.3c4.7,1.5,9.4,3.3,14,5.2c5.3,2.2,10.5,4.4,15.7,6.6c0.4,0.2,0.8,0.2,1.3,0.2c2,0.1,4,0.3,6,0.4
		c2.3,0.1,4.6,0.5,6.8,1.1c5,1.3,9.9,3,14.5,5.4c0.9,0.4,1.7,1,2.6,1.6c0.1,0,0.1,0.1,0.2,0.1C145.4,23.3,145.4,23.5,145,23.9z
		 M131.5,24.1c-0.4-0.3-0.8-0.5-1.2-0.7c-0.7-0.4-1.4-0.9-2.1-1.3c-0.2-0.1-0.3-0.3-0.5-0.5c-0.2-0.3-0.1-0.6,0.3-0.7
		c0.1,0,0.2,0,0.3,0c2,0.2,4.1,0.4,6.2,0.6c0.6,0.1,1.2,0.2,1.8,0.3c-0.3-0.2-0.7-0.4-1-0.6c-2.6-1.2-5.3-2-8.1-2.6
		c-4.3-1-8.7-1.9-13-3.1c-3-0.9-6-1.7-8.8-2.9c-5-2.1-10.1-4.1-15.2-6.1c-2.8-1.1-5.7-2.1-8.5-3.1c-0.1,0-0.2-0.1-0.3-0.1
		c-0.3-0.2-0.3-0.6,0-0.8c0.1,0,0.2-0.1,0.3-0.2c-0.1,0-0.2,0-0.2-0.1c-3.7-1-7.5-1.4-11.4-1.5c-2.3,0-4.6,0-6.9,0
		c-2.1,0-4.3,0.1-6.4,0.2c-3.6,0.2-7.1,0.4-10.7,0.8c-3,0.3-6,0.9-8.8,1.7c-5,1.4-9.8,3.4-14.6,5.4c-2.3,1-4.5,2-6.8,2.8
		c-2.8,1-5.7,1.6-8.7,1.7c-0.5,0-1.1,0-1.6,0.4c-0.2,0.1-0.2,0.4-0.3,0.6c0.2,0.1,0.3,0.2,0.5,0.2c0.9,0.2,1.8,0.4,2.7,0.6
		c0.8,0.2,1.6,0.4,2.2,1c0.6,0.5,0.7,1.3,0.1,1.8c-0.5,0.5-1,1-1.6,1.4c-1.3,0.9-2.5,1.8-3.8,2.7c-0.2,0.1-0.2,0.2-0.1,0.4
		c0.4,1.1,1,1.8,2.1,2.2c0.2,0.1,0.5,0.2,0.8,0.2c3.3,0.9,6.6,1.8,9.8,2.7c0.2,0.1,0.4,0,0.6-0.1c2.8-2.1,5.9-2.9,9.2-2.5
		c3.1,0.4,5.8,1.7,7.9,4.1c2.1,2.2,3.2,4.9,3.5,7.9c0.1,1.6,0.1,3.1,0.1,4.7c0,0.1,0,0.2,0,0.4c21.6,0,43.2,0,64.8,0
		c0-0.1,0-0.3,0-0.4c0-1.5,0-3,0.1-4.6c0.2-3.7,1.7-6.9,4.4-9.5c3.2-3.1,7.1-4.2,11.4-3.6c2.1,0.3,4,1.1,5.7,2.4
		c0.1,0.1,0.2,0.1,0.4,0.1C128,25.7,129.7,24.9,131.5,24.1z M148,38.9C148,38.9,148,38.8,148,38.9c-0.4-0.1-0.9-0.1-1.3-0.1
		c-1.4,0-2.9,0.1-4.4,0c-0.7,0-1.4-0.1-2.1-0.3c-0.7-0.2-0.9-0.7-0.8-1.4c0.1-0.3,0.1-0.7,0.3-1c0.3-1,0.6-2,1.2-2.9
		c0.3-0.5,0.7-0.8,1.3-0.8c0.7,0,1.4,0.1,2.1,0.2c1.5,0.3,3,0.5,4.3,1.5c0.3,0.2,0.5,0.2,0.6-0.2c0.3-0.9,0.3-1.7,0.1-2.6
		c0-0.1-0.1-0.2-0.2-0.3c-0.3-0.3-0.7-0.6-1.2-0.7c-1.4-0.4-2.9-0.8-4.3-1.2c-3.7-0.9-7.2-2.1-10.5-4.1c-0.1-0.1-0.4-0.1-0.5-0.2
		s-0.2-0.1-0.4,0c-1.7,0.8-3.5,1.5-5.2,2.3c-0.1,0-0.1,0.1-0.2,0.1c0.1,0.1,0.2,0.2,0.4,0.3c1.7,1.6,3,3.5,3.8,5.7
		c0.7,1.8,0.9,3.8,1,5.7c0,0.6,0,1.2,0,1.7C137.4,41,142.7,40,148,38.9z M17.8,28.3c-0.1,0-0.2-0.1-0.3-0.1c-1.9-0.5-3.8-1-5.7-1.6
		c-1.6-0.4-3.2-0.9-4.8-1.4c-0.8-0.2-1.4-0.8-1.8-1.5c-0.2-0.3-0.3-0.6-0.5-1c-0.3,0.2-0.6,0.5-0.9,0.7C3,24.2,2.2,25,1.7,26
		c-0.7,1.7-1.1,3.5-1.1,5.3c0,1.5,0.2,3.1,0.7,4.5c0.2,0.8,0.7,1.3,1.4,1.6c0.5,0.2,1,0.3,1.5,0.4c2.3,0.4,4.6,0.9,6.8,1.3
		c0.8,0.1,1.6,0.2,2.5,0.3C13.3,35.1,14.6,31.4,17.8,28.3z M36.9,38.2c0-5.9-4.6-10.6-10.2-10.8c-6-0.1-10.5,4.9-10.7,10.5
		c-0.1,6.3,4.9,10.9,10.2,11C31.9,49,36.9,44.4,36.9,38.2z M107.3,38.2c0,6,4.9,10.8,10.6,10.7c5.5-0.1,10.2-4.7,10.3-10.8
		c0-6-4.7-10.8-10.6-10.7C111.9,27.5,107.3,32.3,107.3,38.2z M106.9,40.8c-1.5-7.2,3.6-13.6,10.1-14c3.2-0.2,6,0.8,8.3,3.1
		c3.4,3.3,4.3,7.4,3,12c1.9,0.1,4.7-0.1,5.3-0.5c-0.6,0-1.2,0-1.7,0c-0.5,0-0.6-0.1-0.7-0.6c-0.1-1.5-0.1-3.1-0.3-4.6
		c-0.5-3.8-2.3-6.8-5.4-9c-3.7-2.6-7.7-3.2-12-1.6c-4.8,1.9-7.6,5.6-8.4,10.8c-0.3,1.7-0.2,3.4-0.2,5.1c0,0,0,0,0,0
		C105.6,41.1,106.2,40.9,106.9,40.8z M15.4,39.6c-0.1-1.7,0-3.4,0.5-5.1c0.5-1.7,1.5-3.1,2.7-4.4c1.2-1.2,2.6-2.1,4.2-2.7
		s3.3-0.8,5-0.5c3,0.4,5.5,1.8,7.4,4.3c2.5,3.3,2.9,7,1.7,10.9c0.6,0,1.2,0,1.9,0c0-0.1,0-0.2,0-0.3c0-1.3,0-2.6-0.1-3.9
		c-0.1-3.1-1.1-5.8-3.2-8.1c-2.5-2.8-5.6-4.2-9.3-4.2c-2.9,0-5.6,1-7.8,3.1c-2.5,2.3-3.9,5.1-4.2,8.6c-0.1,0.8,0,1.5,0,2.3
		C14.7,39.6,15,39.6,15.4,39.6z M116.3,15.1C116.3,15.2,116.3,15.2,116.3,15.1c1.3,0.4,2.5,0.7,3.8,1c3.1,0.7,6.3,1.4,9.4,2.2
		c3.1,0.8,6.1,1.8,8.8,3.6c0.1,0.1,0.2,0.1,0.3,0.1c1.3,0.2,2.6,0.5,3.9,0.7c0.2,0,0.4,0.1,0.6,0.1c0.2,0,0.4,0.1,0.6,0.1
		c0,0,0-0.1,0-0.1c-0.8-0.4-1.6-0.9-2.4-1.4c-4.2-2.1-8.6-3.7-13.2-4.9c-1.8-0.5-3.7-0.9-5.6-1.1c-1.3-0.1-2.6-0.2-3.9-0.3
		C117.9,15.2,117.1,15.2,116.3,15.1z M148.2,38.1c-0.2-0.4-0.3-0.6-0.4-0.9c0-0.2-0.1-0.3-0.3-0.3c-0.9-0.1-1.8-0.2-2.7-0.3
		c-0.2,0-0.3,0-0.4,0.2c-0.5,0.6-1.2,0.8-2,0.5c-0.8-0.2-1.3-0.9-1.3-1.8c0-0.8,0.4-1.6,1.1-1.9c0.7-0.3,1.6-0.2,2.2,0.4
		c0.1,0.1,0.2,0.2,0.3,0.2c1.1,0.1,2.2,0.3,3.3,0.7c0,0,0,0,0.1,0c0.1-0.2,0-0.3-0.2-0.5c-0.6-0.5-1.2-0.7-1.9-0.8
		c-1.1-0.2-2.3-0.4-3.4-0.6c-0.5-0.1-0.9,0.2-1.2,0.6c-0.6,1.1-1,2.3-1.3,3.6c0,0.2,0,0.4,0.2,0.4c0.3,0.1,0.6,0.2,0.9,0.2
		c1.3,0,2.6,0,4,0.1C146.2,38.1,147.1,38.1,148.2,38.1z M3.9,19.8c0.1,0,0.2-0.1,0.3-0.1c0.5-0.3,1-0.7,1.5-1
		c0.5-0.4,1.1-0.8,1.8-0.9c0.9-0.1,1.8-0.1,2.6-0.1c0.2,0,0.3,0,0.4-0.1c0.2-0.3,0.2-0.5-0.1-0.7c-0.4-0.3-0.9-0.6-1.3-0.7
		c-1.2-0.3-2.5-0.6-3.8-0.9C4.5,16.6,4,18.1,3.9,19.8z M143.8,27C143.8,26.9,143.8,26.9,143.8,27c-0.6-1.2-1.3-2.3-2-3.4
		c0-0.1-0.2-0.1-0.3-0.1c-0.9-0.2-1.8-0.3-2.7-0.5c-0.1,0-0.3,0-0.5,0c0.9,0.8,1.4,1.8,1.9,2.8c0.1,0.2,0.2,0.3,0.4,0.3
		c0.5,0.1,0.9,0.2,1.4,0.4C142.5,26.6,143.2,26.8,143.8,27z M110,13.4C110,13.4,110,13.3,110,13.4c-0.1-0.1-0.2-0.2-0.4-0.2
		c-3.6-1.5-7.1-3-10.7-4.5c-5.2-2.2-10.5-4.2-15.8-5.9c-0.1,0-0.2,0-0.3,0c0.1,0.1,0.1,0.1,0.2,0.1C88.4,5,93.9,7.1,99.3,9.2
		c3,1.2,6,2.4,9,3.6C108.9,13.1,109.4,13.2,110,13.4z M132.9,22.4c0,0.5-0.1,0.9-0.2,1.4c0,0,0,0.1,0.1,0.1c0.2,0.1,0.3,0.2,0.5,0.2
		c1.2,0.3,2.4,0.6,3.6,0.9c0.3,0.1,0.7,0.2,1.1,0.2c-0.4-0.9-1-1.6-1.6-2.3c-0.1-0.1-0.2-0.1-0.3-0.1
		C135.2,22.8,134.1,22.6,132.9,22.4z M9.6,18.3C9.6,18.3,9.5,18.3,9.6,18.3c-1.4-0.1-2.6,0-3.7,0.9c-0.6,0.5-1.2,1-2,1.2
		c0,0-0.1,0.1-0.1,0.1c0,0.6,0,1.1,0.1,1.7C5.8,21,7.7,19.7,9.6,18.3z M135.9,25.6C135.9,25.6,135.9,25.6,135.9,25.6
		c3.6,1.9,7.6,2.6,11.5,3.8c-0.3-0.3-0.6-0.5-0.9-0.7c0,0-0.1,0-0.1,0c-0.2,0-0.5-0.1-0.7-0.1c-1.8-0.6-3.7-1.2-5.6-1.7
		C138.7,26.3,137.3,25.9,135.9,25.6z M146.2,27.8c0-0.1,0-0.1,0-0.2c-0.6-1.2-1.3-2.4-1.9-3.7c0,0-0.1-0.1-0.1-0.1
		c-0.4-0.1-0.9-0.1-1.3-0.2c0.7,1.2,1.3,2.4,2,3.6c0,0,0.1,0.1,0.1,0.1C145.3,27.5,145.7,27.6,146.2,27.8z M148.3,36.3
		c-0.1-0.4-0.4-0.5-0.6-0.6c-1.2-0.4-2.4-0.6-3.6-0.7c-0.4,0-0.8,0-1.2,0c-0.1,0-0.3,0.1-0.3,0.3c0,0.2,0.1,0.3,0.3,0.4
		c0.2,0,0.5,0.1,0.7,0.1c1.1,0.1,2.1,0.2,3.2,0.3C147.3,36.2,147.8,36.3,148.3,36.3z M132.1,23.5c0-0.4,0.1-0.8,0.1-1.2
		c-0.5,0-1-0.1-1.5-0.1c0,0,0,0,0,0.1C131.1,22.7,131.4,23.3,132.1,23.5z M139.3,25.8C139.4,25.7,139.4,25.7,139.3,25.8
		c-0.3-1.1-1.1-2.2-1.5-2.3c0.4,0.7,0.8,1.4,1.2,2.1C139,25.6,139.2,25.7,139.3,25.8z M141.9,34.8c-0.3,0.5-0.3,1.2,0.2,1.6
		c0.4,0.4,1,0.4,1.4,0.1c-0.2,0-0.4-0.1-0.6-0.1C142,36.3,141.7,35.8,141.9,34.8z M128.9,21.5C128.9,21.6,128.9,21.6,128.9,21.5
		c0.2,0.2,0.5,0.4,0.8,0.6c0-0.2,0.1-0.3,0.1-0.5C129.6,21.6,129.3,21.6,128.9,21.5z"/>
	<path d="M101.7,17.4c0.2,1.3,0.5,2.6,0.7,3.9c0.3,1.8,0.3,3.6,0.2,5.4c-0.1,1.6-0.1,3.3-0.3,5c-0.1,1.8-0.3,3.6-0.5,5.5
		c0,0.2-0.1,0.5-0.1,0.7c-0.2,0.8-0.7,1.4-1.5,1.5c-0.9,0.1-1.8,0.2-2.7,0.2c-1.7,0-3.4,0-5.1,0c-2.3,0-4.6,0-6.9,0
		c-3.2,0-6.3,0-9.5,0c-3.4,0-6.9,0-10.3-0.1c-1.8,0-3.7,0-5.6,0c-2.8,0-5.6-0.1-8.4-0.1c-1.8,0-3.6,0-5.4-0.1
		c-0.9,0-1.9-0.1-2.9-0.3c-1-0.1-1.6-0.7-2-1.7c-0.3-0.9-0.6-1.8-0.9-2.6c-0.4-1.2-0.9-2.3-1.4-3.5c-0.8-2-2.2-3.5-3.9-4.6
		c-0.7-0.5-1.4-1-2.2-1.5c-0.9-0.7-1.6-1.5-2.1-2.6c-0.7-1.6-1.3-3.3-1.4-5.1c0-0.6-0.1-1.2-0.1-1.7c0-0.8-0.2-1.6-0.6-2.3
		c-0.2-0.5-0.5-1.1-0.6-1.6c-0.4-1.3,0-2.4,1-3.2c0.7-0.5,1.5-0.9,2.3-1.3c3.5-1.6,7.1-2.7,10.9-3.3c2.1-0.3,4.3-0.7,6.5-0.9
		c1.7-0.2,3.4-0.3,5.1-0.3c2.4-0.1,4.9-0.1,7.3-0.1c1.8,0,3.7,0,5.5,0c4.2,0,8.4,0.6,12.4,1.6c5.5,1.4,11,3.1,16.2,5.4
		c1.4,0.6,2.8,1.3,4.2,1.9c2.2,1,4.5,2.1,6.7,3.2c0.8,0.4,1.4,0.9,2.2,1.4c0.2,0.1,0.3,0.3,0.4,0.4c0.5,0.6,0.2,1.3-0.5,1.4
		c-0.5,0.1-1.1,0.1-1.7,0.1c-1.6,0-3.2-0.1-4.9-0.2C101.8,17.4,101.8,17.4,101.7,17.4z M63.3,38.8c1.8,0,3.6,0,5.3,0
		c3.5,0,6.9,0,10.4,0c4.2,0,8.3,0,12.5,0c2.2,0,4.4,0,6.6,0c0.7,0,1.4-0.1,2.1-0.2c0.6-0.1,0.9-0.4,1-1c0.1-0.4,0.1-0.7,0.2-1.1
		c0.2-2.8,0.4-5.7,0.6-8.5c0.2-2.8,0.1-5.6-0.5-8.4c-0.1-0.7-0.3-1.5-0.5-2.2c-2.1-0.1-4.1-0.2-6.2-0.3c0.1,0.2,0.1,0.3,0.1,0.4
		c0.1,0.4,0.2,0.8,0.3,1.2c0,0.6-0.2,0.9-0.8,1.1c-0.6,0.2-1.3,0.1-1.9,0c-1.1-0.2-1.7-0.8-2-1.9c-0.1-0.3-0.1-0.7-0.2-1
		c-9.3-0.5-18.5-1.1-27.8-1.4C63.8,23.1,63.8,30.9,63.3,38.8z M61.8,15.3c-10.6-0.3-21.2-0.6-31.7-1c0,0.4,0.1,0.8,0.1,1.1
		c0,2.1,0.5,4.2,1.3,6.1c0.5,1.3,1.3,2.3,2.4,3c0.5,0.3,1.1,0.7,1.6,1.1c1.8,1.2,3.2,2.7,4.1,4.7c0.5,1.1,1,2.2,1.4,3.3
		c0.4,1,0.7,2.1,1.1,3.2c0.3,0.7,0.8,1.2,1.5,1.3c1,0.1,2,0.2,3,0.3c2.6,0.1,5.3,0.1,7.9,0.1c1.8,0,3.6,0,5.4,0.1c0.8,0,1.6,0,2.5,0
		C63.1,30.9,63.2,23.1,61.8,15.3z M89.6,10.1c-0.1-0.5-0.3-1-0.4-1.6c0-0.2-0.1-0.3-0.3-0.3c-3-0.9-5.9-1.8-8.9-2.7
		c-3.7-1-7.5-1.7-11.4-1.8c-1.9-0.1-3.8-0.1-5.7-0.1c-0.1,0-0.2,0-0.3,0c0.8,3.5,1.6,7,2.5,10.5c7.2,0.4,14.4,0.7,21.6,1.1
		c0-0.2-0.1-0.4-0.2-0.6c-0.1-0.9-0.1-1.7,0-2.6c0.2-1,0.7-1.6,1.8-1.8C88.7,10.1,89.1,10.1,89.6,10.1z M38.5,13.2
		c6.8,0.2,13.6,0.4,20.3,0.6c0-0.1,0-0.2,0-0.3c-0.3-3-0.7-6.1-1-9.1c-0.1-0.7-0.1-0.7-0.8-0.7c-3.2,0-6.5,0.2-9.7,0.6
		c-3,0.4-6,0.9-8.9,1.7c-0.2,0-0.2,0.1-0.2,0.3c0,0.9,0.1,1.9,0.1,2.8C38.4,10.5,38.5,11.8,38.5,13.2z M36.7,6.4
		c-0.5,0.2-1,0.3-1.5,0.5c-1.3,0.4-2.5,0.9-3.6,1.7c-0.8,0.5-0.9,1-0.4,1.8c0.5,0.8,1,1.6,1.6,2.5c0,0.1,0.2,0.1,0.3,0.1
		c0.9,0,1.8,0.1,2.7,0.1c0.4,0,0.7,0,1.1,0C36.9,10.9,36.8,8.7,36.7,6.4z M90.8,8.8c0.1,0.5,0.3,1,0.4,1.5c0,0.2,0.1,0.3,0.3,0.4
		c1.1,0.5,1.9,1.3,2.3,2.6c0.2,0.8,0.3,1.5,0.1,2.4c1.8,0.1,3.5,0.2,5.2,0.3c0-0.1,0-0.2,0-0.2c-0.3-1.2-0.5-2.4-0.8-3.6
		c0-0.1-0.1-0.2-0.2-0.3c-1.7-0.7-3.4-1.5-5.1-2.2C92.3,9.3,91.6,9.1,90.8,8.8z M91.7,16.2C91.7,16.1,91.7,16.1,91.7,16.2
		c0.2-0.1,0.5-0.1,0.7-0.1c0.7,0,1-0.4,1-1.1c0-1.8-0.7-3.2-2.4-3.8c-0.3-0.1-0.7-0.1-1-0.2c-0.4-0.2-0.9-0.2-1.3-0.1
		c-0.9,0.1-1.3,0.4-1.4,1.3c-0.1,0.5-0.1,1.1-0.1,1.6c0,1.1,0.4,1.7,1.5,1.9C89.6,15.9,90.6,16,91.7,16.2z M64.5,14.6
		c-0.1-0.3-0.1-0.6-0.2-0.9c-0.8-3.4-1.6-6.8-2.4-10.2c0-0.2,0-0.4-0.1-0.6c-0.5,0-1,0-1.5,0c0,0.2,0,0.3,0.1,0.5
		c0.5,2.8,0.9,5.5,1.4,8.3c0.1,0.9,0.3,1.8,0.5,2.7c0,0.1,0.1,0.2,0.2,0.2C63.2,14.6,63.9,14.6,64.5,14.6z M61.6,14.6
		c-0.1-0.6-0.2-1.2-0.3-1.8c-0.5-3.2-1.1-6.4-1.6-9.6c0-0.1-0.1-0.2-0.2-0.2c-0.4,0-0.7,0-1.1,0c0.1,1.1,0.2,2.2,0.4,3.3
		c0.3,2.5,0.5,4.9,0.8,7.4c0,0.3,0,0.6,0,0.9C60.2,14.6,60.9,14.6,61.6,14.6z M100.4,12.3c0,0.1,0,0.1,0,0.1c0.3,1.3,0.7,2.7,1,4
		c0,0.2,0.1,0.2,0.3,0.2c0.6,0,1.3,0.1,1.9,0.1c1.3,0,2.7,0.1,4,0.1c0.3,0,0.5-0.1,0.9-0.1c-0.2-0.2-0.3-0.4-0.4-0.5
		c-0.4-0.3-0.9-0.7-1.3-1c-1.4-0.7-2.8-1.4-4.2-2.1C101.9,13,101.2,12.6,100.4,12.3z M31.7,7.8C31.6,7.8,31.6,7.7,31.7,7.8
		c-0.8,0.3-1.6,0.7-2.2,1.3c-0.6,0.6-0.8,1.3-0.6,2.1c0.3,0.8,0.6,1.6,0.9,2.4c0,0,0.1,0.1,0.2,0.1c0.8,0,1.6,0.1,2.5,0.1
		c0-0.1,0-0.1-0.1-0.1c-0.6-1-1.2-1.9-1.8-2.9C30,9.7,30.2,8.9,31,8.2C31.2,8,31.4,7.9,31.7,7.8z M90.9,16.8
		c0.1,0.5,0.2,0.9,0.4,1.3c0.1,0.4,0.4,0.6,0.7,0.7c0.6,0.2,1.2,0.3,1.9,0.2c0.4-0.1,0.6-0.3,0.5-0.7c-0.1-0.7-0.6-1.3-0.9-2
		C92.8,16.9,91.9,16.8,90.9,16.8z M99,11.7c0.3,1.2,0.5,2.3,0.8,3.5c0.1,0.5,0.2,0.9,0.3,1.4c0.2,0,0.4,0,0.7,0c0-0.1,0-0.2-0.1-0.3
		c-0.3-1.3-0.7-2.6-1-4C99.6,12,99.4,11.8,99,11.7z M37.7,13.2c0,0,0.1,0,0.1,0c-0.1-2.3-0.2-4.7-0.3-7c0,0-0.1,0-0.1,0
		C37.5,8.5,37.6,10.9,37.7,13.2z M89.7,7.8c0.1,0.5,0.2,0.9,0.3,1.3c0.1,0.4,0.2,0.8,0.3,1.2c0,0,0.1,0,0.1,0c0-0.1,0-0.2-0.1-0.3
		c-0.1-0.5-0.3-1-0.4-1.4c0-0.2,0-0.4,0-0.6C89.9,7.9,89.8,7.8,89.7,7.8z"/>
	<path d="M34.7,38.2c0,4.7-3.7,8.4-8.2,8.4c-4.5,0-8.2-3.8-8.1-8.5c0-4.8,3.8-8.3,8.2-8.3C31,29.8,34.7,33.5,34.7,38.2z M23.6,38.1
		c-0.1,1.5,1.1,2.9,2.6,3c1.5,0.1,2.9-1.1,3-2.7c0.1-1.6-1.1-3.1-2.7-3.2C25.2,35.2,23.7,36.4,23.6,38.1z M29.4,31.1
		c0,0-0.1,0-0.1,0.1c-0.3,0.3-0.7,0.7-1,1c0,0-0.1,0.1-0.1,0.2c0,0.7-0.1,1.5-0.1,2.3c0,0.1,0.1,0.2,0.1,0.3
		c0.2,0.2,0.5,0.3,0.7,0.5c0.1,0.1,0.2,0.1,0.3,0.1c0.7-0.3,1.4-0.5,2-0.8c0.1,0,0.2-0.1,0.2-0.2c0.2-0.4,0.4-0.8,0.6-1.2
		c0.1-0.1,0-0.2,0-0.4c-0.7-0.8-1.5-1.3-2.4-1.8C29.6,31.2,29.5,31.2,29.4,31.1z M34,39c0,0-0.1-0.1-0.2-0.2
		c-0.4-0.2-0.7-0.4-1.1-0.6c-0.1-0.1-0.4-0.1-0.5-0.1c-0.6,0.1-1.3,0.3-1.9,0.5c-0.2,0-0.3,0.1-0.3,0.3c0,0.2-0.1,0.5-0.2,0.7
		c-0.1,0.1-0.1,0.2,0,0.4c0.3,0.4,0.7,0.8,1,1.3c0.3,0.4,0.6,0.6,1.1,0.6c0.3,0,0.5,0.1,0.8,0.1c0.1,0,0.2,0,0.2-0.1
		C33.5,41.1,33.8,40.1,34,39z M24.9,34.6c0-0.3,0-0.5,0-0.8c0-0.5,0-1-0.1-1.5c-0.2-0.4-0.6-0.7-1-1.1l0,0c-0.1-0.1-0.2-0.1-0.3-0.1
		c-0.9,0.4-1.7,1-2.4,1.8c-0.1,0.1-0.1,0.2,0,0.3c0.2,0.4,0.4,0.8,0.6,1.2c0,0.1,0.1,0.2,0.2,0.2c0.6,0.2,1.2,0.5,1.8,0.7
		c0.3,0.1,0.5,0.1,0.7-0.1c0.1-0.1,0.3-0.2,0.4-0.3C24.9,35,25,34.9,24.9,34.6z M26.5,46c0.4,0,0.9-0.1,1.3-0.1
		c0.3,0,0.4-0.1,0.4-0.4c0-0.3,0.1-0.7,0.1-1.1c0-0.2,0-0.4-0.1-0.6c-0.2-0.5-0.6-0.9-0.8-1.4c-0.2-0.4-0.5-0.6-0.9-0.5
		c-0.1,0-0.3,0-0.4,0c-0.1,0-0.2,0.1-0.3,0.1c-0.4,0.6-0.7,1.2-1.1,1.8c-0.1,0.1-0.1,0.3-0.1,0.4c0,0.4,0.1,0.8,0.2,1.2
		c0,0.2,0.1,0.3,0.3,0.3C25.5,45.8,26,45.9,26.5,46z M19,38.9c0.1,1.2,0.4,2.2,1,3.1c0,0,0.1,0.1,0.2,0.1c0.4,0,0.9-0.1,1.3-0.2
		c0.1,0,0.2-0.1,0.2-0.1c0.5-0.6,0.9-1.1,1.4-1.7c0-0.1,0.1-0.2,0-0.3c-0.1-0.3-0.1-0.6-0.3-0.8c0-0.1-0.1-0.2-0.2-0.2
		c-0.7-0.2-1.3-0.4-2-0.5c-0.1,0-0.3,0-0.4,0c-0.4,0.2-0.8,0.4-1.2,0.6C19.1,38.8,19.1,38.9,19,38.9z M27.8,41.6
		c0.4,0.6,0.8,1.3,1.2,1.9c0.1,0.2,0.2,0.4,0.1,0.7c-0.1,0.4-0.1,0.8-0.2,1.2c1.4-0.5,2.6-1.4,3.6-2.6c-0.4-0.1-0.8-0.1-1.1-0.2
		c-0.3,0-0.6-0.2-0.8-0.4c-0.3-0.5-0.7-1-1.1-1.4c-0.1-0.1-0.1-0.1-0.2-0.2C28.8,40.9,28.3,41.3,27.8,41.6z M34,38.1
		c0-1.6-0.5-3-1.4-4.3c-0.2,0.4-0.4,0.7-0.5,1c-0.1,0.3-0.3,0.5-0.6,0.6c-0.7,0.3-1.3,0.5-2,0.8c0.2,0.5,0.3,1.1,0.5,1.6
		c0,0,0.1,0,0.2,0c0.6-0.2,1.3-0.3,1.9-0.5c0.2,0,0.4,0,0.6,0.1C33.2,37.7,33.6,37.9,34,38.1z M28.6,30.8c-1.4-0.4-2.8-0.4-4.3,0
		c0.3,0.3,0.6,0.6,0.8,0.9c0.1,0.1,0.2,0.3,0.3,0.5c0.1,0.7,0.1,1.4,0.1,2.1c0,0.1,0,0.2,0,0.2c0.6,0,1.1,0,1.7,0
		c0-0.7,0.1-1.5,0.2-2.3c0-0.2,0.1-0.4,0.3-0.6C28.1,31.4,28.3,31.2,28.6,30.8z M23.7,40.6c-0.4,0.5-0.9,1.1-1.3,1.6
		c-0.2,0.3-0.5,0.4-0.8,0.4c-0.3,0-0.7,0.1-1.1,0.2c0.9,1.2,2.1,2.1,3.5,2.6c-0.1-0.5-0.2-0.9-0.2-1.3c0-0.2,0-0.4,0.1-0.6
		c0-0.1,0.2-0.3,0.3-0.4c0.3-0.5,0.6-1,0.9-1.5C24.6,41.3,24.2,40.9,23.7,40.6z M23.4,36.3c-0.7-0.3-1.3-0.6-2-0.8
		c-0.2-0.1-0.4-0.3-0.5-0.5c-0.1-0.3-0.3-0.7-0.5-1.1c-0.8,1.3-1.3,2.7-1.3,4.2c0.3-0.1,0.5-0.2,0.7-0.4c0.5-0.3,1-0.4,1.5-0.2h0
		c0.5,0.1,1.1,0.3,1.6,0.4C23.1,37.4,23.2,36.8,23.4,36.3z"/>
	<path d="M126,38.2c0,4.7-3.7,8.4-8.2,8.4c-4.4,0-8.1-3.6-8.1-8.4c0-4.7,3.7-8.4,8.2-8.4C122.3,29.8,126,33.5,126,38.2z M120.6,38.3
		c0.1-1.5-1.1-2.9-2.7-3c-1.5-0.1-2.9,1.1-3,2.7c-0.1,1.6,1,3,2.6,3.1C119,41.2,120.6,40,120.6,38.3z M125.3,39c0,0-0.1-0.2-0.2-0.2
		c-0.3-0.2-0.7-0.4-1.1-0.6c-0.1-0.1-0.3-0.1-0.5-0.1c-0.6,0.1-1.3,0.3-1.9,0.5c-0.1,0-0.2,0.1-0.3,0.3c0,0.2-0.1,0.5-0.2,0.7
		c-0.1,0.2,0,0.3,0.1,0.4c0.4,0.5,0.9,1.1,1.3,1.7c0.1,0.1,0.2,0.1,0.3,0.2c0.4,0.1,0.8,0.1,1.3,0.2c0.1,0,0.2,0,0.3-0.1
		C124.8,41.1,125.1,40.1,125.3,39z M119.3,34.7C119.3,34.7,119.3,34.7,119.3,34.7c0,0.1,0.1,0.3,0.2,0.4c0.2,0.2,0.4,0.3,0.7,0.5
		c0.1,0,0.2,0.1,0.3,0.1c0.7-0.3,1.4-0.5,2.1-0.8c0.1,0,0.1-0.1,0.2-0.2c0.2-0.4,0.4-0.8,0.6-1.1c0.1-0.2,0.1-0.3,0-0.4
		c-0.7-0.7-1.5-1.3-2.4-1.8c-0.1,0-0.2,0-0.3,0.1c-0.3,0.3-0.6,0.6-0.9,0.9c-0.1,0.1-0.1,0.2-0.1,0.3
		C119.4,33.2,119.4,33.9,119.3,34.7z M116.1,33.7L116.1,33.7c0-0.4,0-0.8-0.1-1.2c0-0.1,0-0.2-0.1-0.2c-0.3-0.3-0.6-0.7-1-1
		c0,0-0.2-0.1-0.3,0c-0.9,0.4-1.8,1-2.5,1.8c0,0.1-0.1,0.2,0,0.3c0.2,0.4,0.4,0.8,0.6,1.2c0,0.1,0.1,0.1,0.2,0.2
		c0.6,0.2,1.1,0.4,1.7,0.7c0.4,0.2,0.6,0.1,0.9-0.1c0.1-0.1,0.3-0.2,0.4-0.3c0.1-0.1,0.1-0.2,0.1-0.3
		C116.2,34.4,116.2,34,116.1,33.7z M117.8,46c0.5,0,0.9-0.1,1.4-0.2c0.2,0,0.3-0.1,0.3-0.3c0-0.4,0.1-0.8,0.2-1.3
		c0-0.1,0-0.3-0.1-0.4c-0.3-0.5-0.6-1-0.9-1.5c-0.2-0.4-0.4-0.6-0.9-0.5c-0.1,0-0.3,0-0.5,0c-0.1,0-0.2,0-0.2,0.1
		c-0.4,0.6-0.8,1.2-1.1,1.9c0,0.1-0.1,0.2-0.1,0.3c0,0.4,0.1,0.9,0.2,1.3c0,0.2,0.1,0.3,0.3,0.3C116.8,45.8,117.3,45.9,117.8,46z
		 M111.9,38.1c0,0-0.1,0-0.1,0c-0.4,0.2-0.9,0.4-1.3,0.7c0,0-0.1,0.1-0.1,0.2c0.1,1.1,0.4,2.1,0.9,3c0,0.1,0.2,0.1,0.2,0.1
		c0.4,0,0.8-0.1,1.3-0.2c0.1,0,0.2-0.1,0.3-0.2c0.4-0.5,0.8-1,1.2-1.5c0.2-0.2,0.3-0.5,0.1-0.8c-0.1-0.2-0.1-0.4-0.2-0.6
		c0-0.2-0.1-0.2-0.3-0.3c-0.3-0.1-0.7-0.2-1-0.3C112.6,38.3,112.3,38.2,111.9,38.1z M119.1,41.6c0.4,0.6,0.8,1.3,1.2,1.9
		c0.1,0.2,0.1,0.4,0.1,0.6c-0.1,0.4-0.1,0.8-0.2,1.3c1.5-0.5,2.6-1.4,3.6-2.6c-0.4-0.1-0.8-0.1-1.1-0.2c-0.3,0-0.5-0.1-0.7-0.4
		c-0.4-0.6-0.9-1.1-1.3-1.7C120.1,40.9,119.6,41.3,119.1,41.6z M120.9,36.3c0.2,0.6,0.3,1.1,0.5,1.7c0.7-0.2,1.4-0.3,2.1-0.5
		c0.2-0.1,0.5,0,0.7,0.1c0.3,0.2,0.7,0.4,1.1,0.6c0-1.6-0.5-3-1.4-4.3c-0.2,0.4-0.4,0.7-0.5,1.1c-0.1,0.3-0.3,0.5-0.6,0.6
		C122.1,35.7,121.5,36,120.9,36.3z M120,30.9c-1.5-0.4-2.9-0.4-4.3,0c0.1,0.1,0.1,0.2,0.2,0.2c0.7,0.5,1,1.3,1,2.2
		c0,0.4,0,0.9,0.1,1.3c0.6,0,1.2,0,1.7,0c0-0.7,0.1-1.5,0.1-2.2c0-0.3,0.1-0.5,0.3-0.7C119.4,31.5,119.6,31.2,120,30.9z M116.4,41.6
		c-0.5-0.3-0.9-0.7-1.4-1.1c-0.4,0.5-0.9,1.1-1.3,1.6c-0.2,0.3-0.4,0.4-0.7,0.4c-0.3,0-0.7,0.1-1.1,0.2c0.9,1.2,2.1,2.1,3.5,2.6
		c-0.1-0.5-0.2-0.9-0.2-1.3c0-0.2,0-0.4,0.1-0.6C115.6,42.9,116,42.3,116.4,41.6z M114.7,36.3c-0.7-0.3-1.3-0.5-2-0.8
		c-0.2-0.1-0.4-0.3-0.5-0.5c-0.1-0.3-0.3-0.7-0.5-1.1c-0.8,1.3-1.3,2.7-1.3,4.2c0.2-0.1,0.4-0.2,0.6-0.3c0.6-0.4,1.2-0.4,1.8-0.2
		c0.5,0.2,1,0.3,1.4,0.4C114.4,37.4,114.5,36.8,114.7,36.3z"/>
	<path d="M69.7,22.2c-0.5,0-1.2-0.1-1.8-0.2s-1.1-0.4-1.5-0.9c0-0.1-0.2-0.1-0.3-0.1c-0.2,0-0.5,0-0.7,0c-0.5,0-0.9-0.4-0.8-0.9
		c0-0.5,0.4-0.9,0.9-0.8c0.7,0,1.3-0.1,2-0.4c0.8-0.4,1.7-0.3,2.7-0.3c0.7,0,1.4,0.1,2.1,0.3c0.5,0.2,0.8,0.6,1.1,1
		c0.2,0.3,0.2,0.7,0,1c-0.4,1-1.2,1.2-2.1,1.3C70.7,22.1,70.2,22.2,69.7,22.2z M71.8,20.4C71.8,20.4,71.8,20.4,71.8,20.4
		c0.2,0,0.4,0,0.6,0c0.1,0,0.2-0.1,0.2-0.1c-0.1-0.1-0.1-0.2-0.2-0.2c-0.1,0-0.2,0-0.3,0c-0.6,0-1.2,0-1.7,0c-1.6,0-3.3-0.1-5-0.1
		c-0.1,0-0.2,0.1-0.3,0.2c0.1,0.1,0.2,0.2,0.3,0.2c0.3,0,0.6,0,1,0C68.3,20.3,70,20.3,71.8,20.4z M72,21.1c-1.6,0-3.2-0.1-4.8-0.1
		C67.9,21.5,71.1,21.6,72,21.1z M71.1,19.2c-0.9-0.1-1.8-0.2-2.7-0.1c0,0,0,0,0,0.1C69.3,19.2,70.2,19.2,71.1,19.2z"/>
	<path d="M36.9,20.3c-0.6-0.1-1.4-0.1-2.1-0.3c-0.5-0.1-0.9-0.3-1.2-0.8C33.5,19,33.4,19,33.1,19c-0.2,0-0.5,0-0.7-0.1
		c-0.4-0.1-0.6-0.5-0.6-0.9c0-0.4,0.3-0.8,0.7-0.8c0.4,0,0.7,0,1.1,0c0.1,0,0.2,0,0.3,0c0.9-0.6,1.9-0.7,3-0.7
		c0.7,0,1.4,0.1,2.1,0.2c0.7,0.1,1.2,0.5,1.5,1.1c0.2,0.3,0.2,0.6,0,1c-0.3,0.8-1,1.3-1.9,1.4C38.2,20.2,37.6,20.2,36.9,20.3z
		 M36.3,18.4L36.3,18.4c1.1,0,2.3,0.1,3.4,0.1c0.1,0,0.2-0.1,0.3-0.2c-0.1-0.1-0.2-0.2-0.3-0.2c-0.2,0-0.4,0-0.6,0
		c-2.1-0.1-4.2-0.1-6.3-0.2c-0.1,0-0.3,0-0.3,0.2c0,0.1,0.2,0.1,0.3,0.2c0,0,0.1,0,0.1,0C34.1,18.3,35.2,18.4,36.3,18.4z M39.3,19.2
		c-1.6,0-3.2-0.1-4.8-0.1C35.1,19.6,38.2,19.7,39.3,19.2z M38.5,17.3c-0.9-0.1-1.9-0.2-2.8-0.1c0,0,0,0,0,0.1
		C36.6,17.3,37.5,17.3,38.5,17.3z"/>
</g>
</svg>
