<?xml version="1.0" encoding="utf-8"?>
<!-- Generator: Adobe Illustrator 27.4.0, SVG Export Plug-In . SVG Version: 6.00 Build 0)  -->
<svg version="1.1" id="Layer_1" xmlns="http://www.w3.org/2000/svg" xmlns:xlink="http://www.w3.org/1999/xlink" x="0px" y="0px"
	 viewBox="0 0 135 45" style="enable-background:new 0 0 135 45;" xml:space="preserve">
<style type="text/css">
	.st0{fill:#FFFFFF;}
	.st1{fill:#6D6E71;}
	.st2{fill:#939598;}
	.st3{fill:#D1D3D4;}
	.st4{fill:#BCBEC0;}
	.st5{fill:#E6E7E8;}
	.st6{fill:#A7A9AC;}
</style>
<g>
	<g>
		<polygon class="st0" points="130,36 19,36 3,33 2,31 3,25 3,14 18,13 40,2 76,2 101,14 126,17 130,19 132,22 133,26 133,33 		"/>
		<path class="st1" d="M76,2l25,12l25,3l4,2l2,3l1,4v7l-3,3H19L3,33l-1-2l1-6V14l15-1L40,2H76 M76,0H40c-0.3,0-0.6,0.1-0.9,0.2
			L17.5,11L2.9,12C1.8,12.1,1,12.9,1,14v10.8l-1,5.8c-0.1,0.4,0,0.8,0.2,1.2l1,2c0.3,0.6,0.8,1,1.4,1.1l16,3c0.1,0,0.2,0,0.4,0h111
			c0.5,0,1-0.2,1.4-0.6l3-3c0.4-0.4,0.6-0.9,0.6-1.4v-7c0-0.2,0-0.3-0.1-0.5l-1-4c-0.1-0.2-0.1-0.4-0.3-0.6l-2-3
			c-0.2-0.3-0.5-0.5-0.8-0.7l-4-2c-0.2-0.1-0.4-0.2-0.7-0.2l-24.7-3L76.9,0.2C76.6,0.1,76.3,0,76,0L76,0z"/>
	</g>
	<g>
		<path class="st2" d="M39.8,37c0.1-0.7,0.2-1.3,0.2-2c0-6.1-4.9-11-11-11c-6.1,0-11,4.9-11,11c0,0.7,0.1,1.3,0.2,2H39.8z"/>
		<path class="st1" d="M29,24c6.1,0,11,4.9,11,11c0,0.7-0.1,1.3-0.2,2H18.2c-0.1-0.7-0.2-1.3-0.2-2C18,28.9,22.9,24,29,24 M29,23
			c-6.6,0-12,5.4-12,12c0,0.7,0.1,1.4,0.2,2.2c0.1,0.5,0.5,0.8,1,0.8h21.6c0.5,0,0.9-0.3,1-0.8c0.1-0.8,0.2-1.5,0.2-2.2
			C41,28.4,35.6,23,29,23L29,23z"/>
	</g>
	<g>
		<g>
			<circle class="st3" cx="29" cy="35" r="8"/>
			<path class="st1" d="M29,27c4.4,0,8,3.6,8,8s-3.6,8-8,8c-4.4,0-8-3.6-8-8S24.6,27,29,27 M29,25c-5.5,0-10,4.5-10,10s4.5,10,10,10
				s10-4.5,10-10S34.5,25,29,25L29,25z"/>
		</g>
		<g>
			<circle class="st0" cx="29" cy="35" r="4"/>
			<path class="st1" d="M29,31c2.2,0,4,1.8,4,4s-1.8,4-4,4s-4-1.8-4-4S26.8,31,29,31 M29,30c-2.8,0-5,2.2-5,5s2.2,5,5,5s5-2.2,5-5
				S31.8,30,29,30L29,30z"/>
		</g>
		<g>
			<circle class="st2" cx="29" cy="35" r="1"/>
			<path class="st4" d="M29,34c0.6,0,1,0.4,1,1s-0.4,1-1,1c-0.6,0-1-0.4-1-1S28.4,34,29,34 M29,33c-1.1,0-2,0.9-2,2s0.9,2,2,2
				s2-0.9,2-2S30.1,33,29,33L29,33z"/>
		</g>
	</g>
	<g>
		<path class="st2" d="M122.8,37c0.1-0.7,0.2-1.3,0.2-2c0-6.1-4.9-11-11-11c-6.1,0-11,4.9-11,11c0,0.7,0.1,1.3,0.2,2H122.8z"/>
		<path class="st1" d="M112,24c6.1,0,11,4.9,11,11c0,0.7-0.1,1.3-0.2,2h-21.6c-0.1-0.7-0.2-1.3-0.2-2C101,28.9,105.9,24,112,24
			 M112,23c-6.6,0-12,5.4-12,12c0,0.7,0.1,1.4,0.2,2.2c0.1,0.5,0.5,0.8,1,0.8h21.6c0.5,0,0.9-0.3,1-0.8c0.1-0.8,0.2-1.5,0.2-2.2
			C124,28.4,118.6,23,112,23L112,23z"/>
	</g>
	<g>
		<g>
			<circle class="st3" cx="112" cy="35" r="8"/>
			<path class="st1" d="M112,27c4.4,0,8,3.6,8,8s-3.6,8-8,8c-4.4,0-8-3.6-8-8S107.6,27,112,27 M112,25c-5.5,0-10,4.5-10,10
				s4.5,10,10,10s10-4.5,10-10S117.5,25,112,25L112,25z"/>
		</g>
		<g>
			<circle class="st0" cx="112" cy="35" r="4"/>
			<path class="st1" d="M112,31c2.2,0,4,1.8,4,4s-1.8,4-4,4s-4-1.8-4-4S109.8,31,112,31 M112,30c-2.8,0-5,2.2-5,5s2.2,5,5,5
				s5-2.2,5-5S114.8,30,112,30L112,30z"/>
		</g>
		<g>
			<circle class="st2" cx="112" cy="35" r="1"/>
			<path class="st4" d="M112,34c0.6,0,1,0.4,1,1s-0.4,1-1,1c-0.6,0-1-0.4-1-1S111.4,34,112,34 M112,33c-1.1,0-2,0.9-2,2s0.9,2,2,2
				s2-0.9,2-2S113.1,33,112,33L112,33z"/>
		</g>
	</g>
	<g>
		<polygon class="st5" points="124,20 124,22 130,25 133,25 132,22 131,20 		"/>
		<path class="st1" d="M131,20l1,2l1,3h-3l-6-3v-2H131 M131,19h-7c-0.6,0-1,0.4-1,1v2c0,0.4,0.2,0.7,0.6,0.9l6,3
			c0.1,0.1,0.3,0.1,0.4,0.1h3c0.3,0,0.6-0.2,0.8-0.4c0.2-0.3,0.2-0.6,0.1-0.9l-1-3c0,0,0-0.1-0.1-0.1l-1-2
			C131.7,19.2,131.4,19,131,19L131,19z"/>
	</g>
	<g>
		<polygon class="st5" points="3,17 9,17 9,20 7,22 3,22 		"/>
		<path class="st1" d="M9,17v3l-2,2H3v-5H9 M9,16H3c-0.6,0-1,0.4-1,1v5c0,0.6,0.4,1,1,1h4c0.3,0,0.5-0.1,0.7-0.3l2-2
			C9.9,20.5,10,20.3,10,20v-3C10,16.4,9.6,16,9,16L9,16z"/>
	</g>
	<rect x="61" y="2" class="st1" width="1" height="34"/>
	<g>
		<polygon class="st4" points="65,13 65,5 75,5 90,12 90,13 		"/>
		<path class="st1" d="M75,5l15,7v1H65V5H75 M75,4H65c-0.6,0-1,0.4-1,1v8c0,0.6,0.4,1,1,1h25c0.6,0,1-0.4,1-1v-1
			c0-0.4-0.2-0.7-0.6-0.9l-15-7C75.3,4,75.1,4,75,4L75,4z"/>
	</g>
	<g>
		<polygon class="st0" points="87,10 89,10 90,12 90,14 87,14 		"/>
		<path class="st1" d="M89,10l1,2v2h-3v-4H89 M89,9h-2c-0.6,0-1,0.4-1,1v4c0,0.6,0.4,1,1,1h3c0.6,0,1-0.4,1-1v-2
			c0-0.2,0-0.3-0.1-0.4l-1-2C89.7,9.2,89.4,9,89,9L89,9z"/>
	</g>
	<g>
		<polygon class="st4" points="58,13 58,5 43,5 37,9 37,13 		"/>
		<path class="st1" d="M58,5v8H37V9l6-4H58 M58,4H43c-0.2,0-0.4,0.1-0.6,0.2l-6,4C36.2,8.4,36,8.7,36,9v4c0,0.6,0.4,1,1,1h21
			c0.6,0,1-0.4,1-1V5C59,4.4,58.6,4,58,4L58,4z"/>
	</g>
	<rect x="32" y="9" class="st1" width="1" height="11"/>
	<polygon class="st1" points="34,22 33,22 32,20 33,20 	"/>
	<g>
		<rect x="97" y="16" class="st1" width="1" height="11"/>
		<polygon class="st1" points="98,16 97,16 95,11 96,11 		"/>
		<polygon class="st1" points="96,36 95,36 97,27 98,27 		"/>
	</g>
	<g>
		<rect x="65" y="17" class="st6" width="3" height="1"/>
		<path class="st1" d="M68,17v1h-3v-1H68 M68,16h-3c-0.6,0-1,0.4-1,1v1c0,0.6,0.4,1,1,1h3c0.6,0,1-0.4,1-1v-1C69,16.4,68.6,16,68,16
			L68,16z"/>
	</g>
	<g>
		<rect x="37" y="17" class="st6" width="3" height="1"/>
		<path class="st1" d="M40,17v1h-3v-1H40 M40,16h-3c-0.6,0-1,0.4-1,1v1c0,0.6,0.4,1,1,1h3c0.6,0,1-0.4,1-1v-1C41,16.4,40.6,16,40,16
			L40,16z"/>
	</g>
</g>
</svg>
