<?xml version="1.0" encoding="utf-8"?>
<!-- Generator: Adobe Illustrator 27.4.0, SVG Export Plug-In . SVG Version: 6.00 Build 0)  -->
<svg version="1.1" id="Layer_1" xmlns="http://www.w3.org/2000/svg" xmlns:xlink="http://www.w3.org/1999/xlink" x="0px" y="0px"
	 viewBox="0 0 132 45" style="enable-background:new 0 0 132 45;" xml:space="preserve">
<style type="text/css">
	.st0{fill:#FFFFFF;}
	.st1{fill:#6D6E71;}
	.st2{fill:#939598;}
	.st3{fill:#D1D3D4;}
	.st4{fill:#BCBEC0;}
	.st5{fill:#E6E7E8;}
	.st6{fill:#A7A9AC;}
</style>
<g>
	<g>
		<polygon class="st0" points="127,36 19,36 3,33 2,31 3,25 3,14 18,13 40,2 73,2 98,14 123,17 127,19 129,22 130,26 130,33 		"/>
		<path class="st1" d="M73,2l25,12l25,3l4,2l2,3l1,4v7l-3,3H19L3,33l-1-2l1-6V14l15-1L40,2H73 M73,0H40c-0.3,0-0.6,0.1-0.9,0.2
			L17.5,11L2.9,12C1.8,12.1,1,12.9,1,14v10.8l-1,5.8c-0.1,0.4,0,0.8,0.2,1.2l1,2c0.3,0.6,0.8,1,1.4,1.1l16,3c0.1,0,0.2,0,0.4,0h108
			c0.5,0,1-0.2,1.4-0.6l3-3c0.4-0.4,0.6-0.9,0.6-1.4v-7c0-0.2,0-0.3-0.1-0.5l-1-4c-0.1-0.2-0.1-0.4-0.3-0.6l-2-3
			c-0.2-0.3-0.5-0.5-0.8-0.7l-4-2c-0.2-0.1-0.4-0.2-0.7-0.2l-24.7-3L73.9,0.2C73.6,0.1,73.3,0,73,0L73,0z"/>
	</g>
	<g>
		<path class="st2" d="M39.8,37c0.1-0.7,0.2-1.3,0.2-2c0-6.1-4.9-11-11-11s-11,4.9-11,11c0,0.7,0.1,1.3,0.2,2H39.8z"/>
		<path class="st1" d="M29,24c6.1,0,11,4.9,11,11c0,0.7-0.1,1.3-0.2,2H18.2c-0.1-0.7-0.2-1.3-0.2-2C18,28.9,22.9,24,29,24 M29,23
			c-6.6,0-12,5.4-12,12c0,0.7,0.1,1.4,0.2,2.2c0.1,0.5,0.5,0.8,1,0.8h21.6c0.5,0,0.9-0.3,1-0.8c0.1-0.8,0.2-1.5,0.2-2.2
			C41,28.4,35.6,23,29,23L29,23z"/>
	</g>
	<g>
		<g>
			<circle class="st3" cx="29" cy="35" r="8"/>
			<path class="st1" d="M29,27c4.4,0,8,3.6,8,8s-3.6,8-8,8s-8-3.6-8-8S24.6,27,29,27 M29,25c-5.5,0-10,4.5-10,10s4.5,10,10,10
				s10-4.5,10-10S34.5,25,29,25L29,25z"/>
		</g>
		<g>
			<circle class="st0" cx="29" cy="35" r="4"/>
			<path class="st1" d="M29,31c2.2,0,4,1.8,4,4s-1.8,4-4,4s-4-1.8-4-4S26.8,31,29,31 M29,30c-2.8,0-5,2.2-5,5s2.2,5,5,5s5-2.2,5-5
				S31.8,30,29,30L29,30z"/>
		</g>
		<g>
			<circle class="st2" cx="29" cy="35" r="1"/>
			<path class="st4" d="M29,34c0.6,0,1,0.4,1,1s-0.4,1-1,1s-1-0.4-1-1S28.4,34,29,34 M29,33c-1.1,0-2,0.9-2,2s0.9,2,2,2s2-0.9,2-2
				S30.1,33,29,33L29,33z"/>
		</g>
	</g>
	<g>
		<path class="st2" d="M119.8,37c0.1-0.7,0.2-1.3,0.2-2c0-6.1-4.9-11-11-11c-6.1,0-11,4.9-11,11c0,0.7,0.1,1.3,0.2,2H119.8z"/>
		<path class="st1" d="M109,24c6.1,0,11,4.9,11,11c0,0.7-0.1,1.3-0.2,2H98.2c-0.1-0.7-0.2-1.3-0.2-2C98,28.9,102.9,24,109,24
			 M109,23c-6.6,0-12,5.4-12,12c0,0.7,0.1,1.4,0.2,2.2c0.1,0.5,0.5,0.8,1,0.8h21.6c0.5,0,0.9-0.3,1-0.8c0.1-0.8,0.2-1.5,0.2-2.2
			C121,28.4,115.6,23,109,23L109,23z"/>
	</g>
	<g>
		<g>
			<circle class="st3" cx="109" cy="35" r="8"/>
			<path class="st1" d="M109,27c4.4,0,8,3.6,8,8s-3.6,8-8,8s-8-3.6-8-8S104.6,27,109,27 M109,25c-5.5,0-10,4.5-10,10s4.5,10,10,10
				s10-4.5,10-10S114.5,25,109,25L109,25z"/>
		</g>
		<g>
			<circle class="st0" cx="109" cy="35" r="4"/>
			<path class="st1" d="M109,31c2.2,0,4,1.8,4,4s-1.8,4-4,4s-4-1.8-4-4S106.8,31,109,31 M109,30c-2.8,0-5,2.2-5,5s2.2,5,5,5
				s5-2.2,5-5S111.8,30,109,30L109,30z"/>
		</g>
		<g>
			<circle class="st2" cx="109" cy="35" r="1"/>
			<path class="st4" d="M109,34c0.6,0,1,0.4,1,1s-0.4,1-1,1c-0.6,0-1-0.4-1-1S108.4,34,109,34 M109,33c-1.1,0-2,0.9-2,2s0.9,2,2,2
				s2-0.9,2-2S110.1,33,109,33L109,33z"/>
		</g>
	</g>
	<g>
		<polygon class="st5" points="121,20 121,22 127,25 130,25 129,22 128,20 		"/>
		<path class="st1" d="M128,20l1,2l1,3h-3l-6-3v-2H128 M128,19h-7c-0.6,0-1,0.4-1,1v2c0,0.4,0.2,0.7,0.6,0.9l6,3
			c0.1,0.1,0.3,0.1,0.4,0.1h3c0.3,0,0.6-0.2,0.8-0.4c0.2-0.3,0.2-0.6,0.1-0.9l-1-3c0,0,0-0.1-0.1-0.1l-1-2
			C128.7,19.2,128.4,19,128,19L128,19z"/>
	</g>
	<g>
		<polygon class="st5" points="3,17 9,17 9,20 7,22 3,22 		"/>
		<path class="st1" d="M9,17v3l-2,2H3v-5H9 M9,16H3c-0.6,0-1,0.4-1,1v5c0,0.6,0.4,1,1,1h4c0.3,0,0.5-0.1,0.7-0.3l2-2
			C9.9,20.5,10,20.3,10,20v-3C10,16.4,9.6,16,9,16L9,16z"/>
	</g>
	<rect x="54" y="2" class="st1" width="1" height="34"/>
	<g>
		<polygon class="st4" points="59,13 59,5 72,5 87,12 87,13 		"/>
		<path class="st1" d="M72,5l15,7v1H59V5H72 M72,4H59c-0.6,0-1,0.4-1,1v8c0,0.6,0.4,1,1,1h28c0.6,0,1-0.4,1-1v-1
			c0-0.4-0.2-0.7-0.6-0.9l-15-7C72.3,4,72.1,4,72,4L72,4z"/>
	</g>
	<g>
		<polygon class="st0" points="84,10 86,10 87,12 87,14 84,14 		"/>
		<path class="st1" d="M86,10l1,2v2h-3v-4H86 M86,9h-2c-0.6,0-1,0.4-1,1v4c0,0.6,0.4,1,1,1h3c0.6,0,1-0.4,1-1v-2
			c0-0.2,0-0.3-0.1-0.4l-1-2C86.7,9.2,86.4,9,86,9L86,9z"/>
	</g>
	<g>
		<polygon class="st4" points="50,13 50,5 42,5 32,10 32,13 		"/>
		<path class="st1" d="M50,5v8H32v-3l10-5H50 M50,4h-8c-0.2,0-0.3,0-0.4,0.1l-10,5C31.2,9.3,31,9.6,31,10v3c0,0.6,0.4,1,1,1h18
			c0.6,0,1-0.4,1-1V5C51,4.4,50.6,4,50,4L50,4z"/>
	</g>
	<g>
		<rect x="94" y="16" class="st1" width="1" height="11"/>
		<polygon class="st1" points="95,16 94,16 92,11 93,11 		"/>
		<polygon class="st1" points="93,36 92,36 94,27 95,27 		"/>
	</g>
	<g>
		<rect x="59" y="17" class="st6" width="3" height="1"/>
		<path class="st1" d="M62,17v1h-3v-1H62 M62,16h-3c-0.6,0-1,0.4-1,1v1c0,0.6,0.4,1,1,1h3c0.6,0,1-0.4,1-1v-1C63,16.4,62.6,16,62,16
			L62,16z"/>
	</g>
</g>
</svg>
