<?xml version="1.0" encoding="utf-8"?>
<!-- Generator: Adobe Illustrator 27.4.0, SVG Export Plug-In . SVG Version: 6.00 Build 0)  -->
<svg version="1.1" id="Layer_1" xmlns="http://www.w3.org/2000/svg" xmlns:xlink="http://www.w3.org/1999/xlink" x="0px" y="0px"
	 viewBox="0 0 149.9 49.5" style="enable-background:new 0 0 149.9 49.5;" xml:space="preserve">
<g>
	<path d="M145.6,21.9c0.2,0.5,0.4,0.9,0.5,1.4c0,0.1,0.1,0.2,0.2,0.2c0.3,0.1,0.5,0.3,0.5,0.5c0.3,0.9,0.6,1.7,0.8,2.5
		c0.1,0.3,0.1,0.6-0.1,0.9c-0.1,0-0.1,0.1,0,0.2c0.1,0.5,0.3,0.9,0.4,1.4c0,0.1,0.1,0.2,0.2,0.2c1.3,0.8,1.8,1.8,1.8,3.1
		c-0.1,2-0.2,4-0.7,5.9c-0.1,0.4-0.3,0.9-0.5,1.3c-0.6,1.1-1.8,1.7-3.2,1.8c-1.1,0.1-2.1,0.2-3.2,0.2c-1.5,0-3,0-4.5,0
		c-0.2,0-0.5,0-0.7,0c-0.4,0-0.7-0.2-0.8-0.6c-0.5,0-1.1,0-1.6,0c-0.1,0-0.2,0.1-0.2,0.2c-0.4,1.4-1.1,2.8-2.1,4
		c-2.4,2.7-5.5,4.2-9.4,4.4c-5.2,0.2-9.1-1.7-11.8-5.6c-0.6-0.9-1-1.9-1.3-3c-0.8,0-1.7,0-2.5,0c-0.1,0-0.2,0.1-0.2,0.1
		c-0.3,0.5-0.7,0.8-1.3,0.8c-0.1,0-0.2,0-0.3,0c-18.5,0-37,0-55.6,0c-0.4,0-0.8,0-1.2-0.1c-0.4,0-0.7-0.3-0.9-0.6
		c-0.1-0.2-0.2-0.2-0.4-0.2c-0.5,0-1.1,0-1.6,0c-0.2,0-0.3,0-0.3,0.2c-0.9,3-2.9,5.3-5.9,6.9c-2.3,1.2-4.8,1.6-7.4,1.4
		c-5.2-0.3-9.6-3.5-11.1-7.8c-0.2-0.5-0.3-1.1-0.5-1.7c-0.5,0-0.9,0-1.4,0c-0.1,0-0.1,0-0.2,0c-0.3,0.5-0.9,0.5-1.4,0.4
		c-2.8-0.2-5.7-0.3-8.5-0.5c-3.4-0.2-6-1.7-8-4.1C0.4,34.8,0,33.5,0,32.1c0-0.5,0-1.1,0-1.6c0-1,0.5-1.9,1.2-2.7
		c0.4-0.4,0.6-1,0.7-1.5c0.2-1.4,0.3-2.7,0.4-4.1c0.2-2,0.3-3.9,0.8-5.8c0.6-2.1,1.7-4.1,2.9-6c1.3-2,2.7-3.8,4.5-5.4
		C10.3,4.7,10,4.6,9.9,4.4C9.5,4,9.6,3.7,10,3.4c0.9-0.6,1.8-1,2.9-1.1C14.4,2,16,1.9,17.6,1.7c0.2,0,0.4-0.1,0.5-0.3
		c0.5-0.7,1.3-0.9,2.1-1.1c1.5-0.2,3.1-0.2,4.7-0.1c0.2,0,0.5,0.2,0.7,0.2c0.2,0,0.4,0.1,0.6,0.1c1.8,0,3.7-0.1,5.5-0.2
		c3.2,0,6.4-0.1,9.6-0.2c1.7,0,3.4,0,5,0c2.4,0,4.7,0,7,0c2.8,0,5.6,0.1,8.4,0.1c0.2,0,0.4,0,0.6-0.1C62.6,0.1,63,0,63.4,0
		c1.8,0,3.7,0,5.5,0c0.9,0,1.7,0.3,2.3,1c0.1,0.1,0.2,0.1,0.3,0.1c1.7,0,3.4,0,5.1,0.1c2.6,0.1,5.2,0.2,7.7,0.4
		c2.4,0.2,4.8,0.8,7,1.7c0.3,0.1,0.5,0.4,0.8,0.5c5.8,2.9,11.4,6.3,17,9.5c0.2,0.1,0.4,0.2,0.7,0.1c0.4-0.2,0.8,0,1.2,0.2
		c0.7,0.4,1.4,0.8,2.1,1.2c0.2,0.1,0.3,0.1,0.4,0c0.7-0.2,1.3-0.2,2-0.2c2,0.1,4,0.2,6,0.4c2,0.2,4,0.4,6,0.7
		c2.9,0.4,5.8,0.9,8.8,1.4c2.1,0.4,4.2,0.8,6.3,1.4c1,0.4,2,0.8,2.8,1.5c0.3,0.3,0.5,0.6,0.7,0.9C146.3,21.5,146.2,21.7,145.6,21.9z
		 M69.6,30.5c0,2.8,0,5.5,0,8.3c0.1,0,0.2,0,0.3,0c2.5,0,5,0,7.5,0c8.5,0,17,0,25.5,0c0.3,0,0.4-0.1,0.5-0.3
		c0.2-0.7,0.5-1.5,0.8-2.2c0.8-2.5,1.3-5.2,1.4-7.8c0-1.7,0-3.5,0-5.2c-0.1-2.8-0.5-5.5-0.9-8.2c-0.1-0.4-0.3-0.7-0.7-1.1
		c-2.5-1.8-5.1-3.6-7.8-5.3c-1.8-1.1-3.6-2.2-5.4-3.2c-0.6-0.4-0.7-0.6-0.6-1.1c-0.1,0-0.2-0.1-0.3-0.1c-2.5-0.8-5.1-1.3-7.7-1.5
		c-3.9-0.2-7.8-0.4-11.7-0.6c-0.1,0-0.2,0-0.4,0c0,0.5-0.1,0.9-0.1,1.3c1.4,0,2.8,0.1,4.2,0.1c2.8,0.1,5.5,0.3,8.3,0.6
		c2.7,0.3,5.3,1.1,7.5,2.5c2.3,1.5,4.5,3,6.8,4.5c0.1,0.1,0.3,0.2,0.5,0.2c0.8,0,1.4,0.3,1.8,0.9c0.2,0.4,0.4,0.7,0.6,1.1
		c0.2,0.3,0.4,0.7,0.7,1c0.4,0.5,0.7,1.1,0.8,1.7c0.1,0.6-0.2,1.1-0.8,1.2c-0.5,0.1-1,0.2-1.5,0.2c-2.7,0-5.4-0.1-8.1-0.1
		c-1.7,0-3.3,0-5,0c-3.4,0-6.9-0.1-10.3-0.1c-1.2,0-2.4,0-3.5,0c-0.7,0-1.4,0-2.2,0c0,3.9-0.1,7.7-0.1,11.6c0.9,0,1.7,0,2.5,0
		c4.1,0,8.3,0,12.5,0c2.1,0,4.2,0,6.3,0c2.8,0,5.6,0,8.5,0c1.5,0,3.1,0,4.6,0c0.6,0,0.9,0.3,0.8,0.8c0,0.2-0.1,0.5-0.1,0.7
		c-0.1,0.5-0.3,0.6-0.9,0.6c-1.2,0-2.4,0-3.6,0c-2.8,0-5.7-0.1-8.5-0.1c-2.6,0-5.3-0.1-7.9-0.1c-2.4,0-4.7,0-7.1-0.1
		c-1.4,0-2.8,0-4.2,0C71.6,30.5,70.6,30.5,69.6,30.5z M48.1,38.8c6.9,0,13.8,0,20.8,0c0-2.8,0-5.5,0-8.3c-0.3,0-0.5,0-0.8,0
		c-3.3,0-6.6-0.1-9.9-0.1c-1.7,0-3.5,0-5.2-0.1c-0.9,0-1.8-0.2-2.6-0.7c-0.2-0.1-0.4-0.2-0.3-0.5c0.1-0.2,0.3-0.3,0.5-0.3
		c0.8,0,1.7-0.1,2.5-0.1c3.2,0,6.3,0,9.5,0c1.7,0,3.3,0,5,0c0.5,0,0.9,0,1.4,0c0-3.9,0.1-7.7,0.1-11.6C59.6,17,50,16.9,40.5,16.8
		c-0.1,0.5-0.2,0.9-0.2,1.3c0,2.3,0,4.7-0.1,7c0,0.2,0.1,0.2,0.2,0.3c0.4,0.1,0.7,0.2,1,0.3c2.1,0.7,3.6,2,4.2,4
		c0.5,1.6,1,3.3,1.4,4.9C47.5,36,47.8,37.4,48.1,38.8z M46,1.9c-0.6,0-1,0-1.5,0c-3,0-5.9,0-8.9,0c-2.9,0-5.7,0-8.5,0
		c-0.5,0-1,0-1.5,0c-2.2,0.1-4.4,0.3-6.6,0.4c-1.7,0.1-3.3,0.4-4.8,0.9c-0.5,0.2-0.9,0.4-1.4,0.6c0,0,0,0,0,0.1C12.9,4,13,4,13,4
		c0.8-0.1,1.6-0.2,2.4-0.2c1.4-0.1,2.9-0.1,4.3-0.1c3-0.1,5.9-0.1,8.9-0.2c2.1,0,4.3-0.1,6.5-0.1c0.6,0,1.1,0,1.7,0
		c0.8,0.1,1.2,0.6,1,1.3c-0.1,0.4-0.4,0.8-0.6,1.2c-1.8,2.7-3.6,5.3-5.4,7.9c-0.3,0.5-0.7,0.9-1.1,1.3c-1.1,1-2.5,1.4-4.1,1.4
		c-6,0-12,0-18,0c-0.1,0-0.3,0-0.4,0c-1.1,3.6-0.8,7.4-0.8,11.1c0.1,0,0.2,0,0.2,0c1.7,0,3.3,0.1,5,0.1c2.5,0.1,5.1,0.1,7.6,0.2
		c0.3,0,0.5-0.1,0.6-0.3c0.5-0.9,1.3-1.6,2.3-2c1-0.4,2.1-0.7,3.3-0.8c1.5-0.2,3-0.3,4.5-0.3c2.3-0.1,4.5,0,6.8,0.2
		c0.6,0.1,1.2,0.2,1.8,0.2c0.1-2.8-0.2-5.6,0.2-8.4c-0.2,0-0.3,0-0.5,0c-1,0-1.4-0.5-1-1.3c1.7-3.4,3.5-6.8,5.2-10.3
		c0.3-0.7,0.9-1.2,1.6-1.5c0.1,0,0.2-0.1,0.2-0.2C45.6,2.9,45.8,2.5,46,1.9z M105.3,14.9c0,0.1,0,0.1,0,0.2c0.3,2.1,0.6,4.1,0.8,6.2
		c0.2,2.2,0.2,4.4,0.2,6.6c0,1.1-0.1,2.2-0.2,3.2c-0.3,2.2-0.9,4.4-1.6,6.6c-0.1,0.4-0.3,0.7-0.4,1.1c1,0,2,0,3,0
		c0-0.1,0.1-0.2,0.1-0.3c0.4-1.8,0.7-3.6,1.1-5.4c0.3-1.3,0.7-2.6,1.2-3.9c0.9-2.1,2.6-3.4,5.2-3.8c1.4-0.2,2.9-0.3,4.3-0.3
		c2.6,0,5.2,0,7.8,0.3c1.4,0.2,2.8,0.4,4.2,0.7c1.4,0.4,2.5,1,3.2,2.1c0.2,0.3,0.3,0.5,0.5,0.8c1.8-0.7,3.8-0.9,5.8-0.9
		c0-0.1,0-0.2-0.1-0.3c-0.4-1.5-0.8-2.9-1.3-4.4c-0.4-1.1-0.6-2.3-0.6-3.5c0-0.2-0.1-0.3-0.3-0.4c-3.2-0.5-6.4-1-9.6-1.4
		c-3.4-0.4-6.7-0.7-10.1-1.1c-2.8-0.3-5.6-0.5-8.3-0.7c-1.4-0.1-2.8-0.4-4-0.9C105.8,15.2,105.6,15.1,105.3,14.9z M65.9,16.4
		c0-0.1,0-0.2,0-0.3c0-0.9,0.1-1.8,0.1-2.7c0.1-2.3,0.2-4.7,0.3-7c0-0.5,0.1-1.1,0.1-1.6c0-0.5-0.2-0.7-0.8-0.7c-1.2,0-2.3,0-3.5,0
		c-1.3,0-2.6,0-3.9,0c-2.5,0-5.1,0-7.6-0.1c-0.9,0-1.8,0-2.7,0c-0.6,0-1.1,0-1.7,0c-0.2,0-0.4,0.1-0.5,0.3c-0.7,1.6-1.4,3.1-2.1,4.7
		c-0.9,2.1-1.8,4.1-2.7,6.2c-0.1,0.3-0.2,0.6-0.3,1C49.1,16.2,57.5,16.3,65.9,16.4z M8.4,16c0.2,0,0.2,0,0.3,0c6,0,12,0,18,0
		c1.4,0,2.7-0.4,3.6-1.4c0.5-0.5,0.8-1,1.2-1.5c1.7-2.5,3.4-5,5.1-7.5C36.8,5.3,37,5,37.2,4.7c0.2-0.4,0-0.6-0.5-0.6
		c-0.2,0-0.4,0-0.6,0c-2.3,0-4.6,0.1-6.9,0.1c-1.6,0-3.2,0.1-4.8,0.1c-2.9,0-5.7,0.1-8.6,0.2c-0.2,0-0.3,0-0.5,0.2c-1,1.3-2,2.6-3,4
		c-1.4,1.9-2.6,4-3.4,6.1C8.8,15.1,8.6,15.5,8.4,16z M95.9,11.4c-1.9-1.3-3.8-2.5-5.6-3.8C87.9,6,85,5,81.9,4.7
		c-2.8-0.3-5.6-0.4-8.3-0.5c-0.6,0-0.8,0.2-0.8,0.7C72.7,7,72.6,9,72.6,11.1c-0.1,1.2-0.1,2.4-0.1,3.6c0,0.6,0,1.2,0,1.9
		c8.1,0.1,16.2,0.2,24.3,0.3c0,0,0,0,0-0.1c-0.1,0-0.2,0-0.3-0.1c-0.2,0-0.4,0-0.5,0c-1.3-0.2-1.7-0.6-1.9-1.5
		c-0.2-0.9-0.1-1.9,0.1-2.8c0.1-0.5,0.5-0.8,1.2-0.9C95.5,11.5,95.7,11.4,95.9,11.4z M20.2,28.6c-0.1,0-0.2,0-0.3,0
		c-0.9,0-1.8,0-2.8-0.1c-2.9-0.1-5.7-0.2-8.5-0.2c-2.2-0.1-4.3-0.2-6.6-0.2c-0.1,0-0.3,0-0.3,0.1c-0.5,0.6-0.9,1.2-1,1.9
		s-0.1,1.5-0.1,2.2c0,0.7,0.2,1.4,0.5,2c1,2,2.7,3.3,4.8,4.2c1.4,0.6,2.9,0.7,4.4,0.9c1.9,0.1,3.9,0.2,5.8,0.4c0.7,0,1.4,0,2,0.1
		c0.3,0,0.4-0.1,0.4-0.3c0.1-1.2,0.1-2.4,0.2-3.6c0.2-1.5,0.3-3.1,0.6-4.6C19.6,30.4,20,29.5,20.2,28.6z M134.2,38.5
		c0-5.6-5-10.3-11.6-10.4c-6.3-0.2-12.1,4.1-12.2,10.2c-0.1,5.7,5.1,10.2,11.4,10.5C128.5,49.1,134.2,44.4,134.2,38.5z M45.4,38.6
		c0.1-5.7-5.2-10.4-11.9-10.5c-6.6,0-12,4.6-12,10.3c0,5.7,5.3,10.3,11.6,10.4C39.8,49,45.4,44.3,45.4,38.6z M134.9,29.5
		c0,0.1,0.1,0.1,0.1,0.2c1.1,2.2,1.7,4.4,1.8,6.8c0.1,1.4,0.2,2.7,0.3,4.1c0,0.3,0.1,0.4,0.4,0.4c1.4,0,2.9,0,4.3,0
		c1.1,0,2.3-0.1,3.4-0.2c1.7-0.1,2.8-0.9,3.2-2.3c0.3-0.9,0.5-1.8,0.6-2.8c0.2-1.2,0.2-2.4,0.2-3.6c0-0.9-0.5-1.7-1.3-2.2
		c-1.1-0.7-2.3-1-3.6-1.1c-2-0.1-4-0.1-6,0C137.1,28.9,136,29.1,134.9,29.5z M47.7,40.2c0-0.1,0-0.2-0.1-0.3
		c-0.3-1.2-0.5-2.5-0.8-3.7c-0.6-2.1-1.1-4.3-1.8-6.4c-0.5-1.6-1.6-2.8-3.4-3.5c-0.7-0.3-1.5-0.5-2.2-0.7c-0.8-0.2-1.5-0.2-2.3-0.3
		c-1.9-0.2-3.9-0.2-5.8-0.2c-2.1,0-4.1,0.2-6.1,0.6c-1.9,0.4-3.3,1.3-4,2.9c-0.4,0.8-0.7,1.7-0.9,2.6c-0.5,2.2-0.7,4.5-0.7,6.7
		c0,0.5,0,0.9,0,1.4c0.4,0,0.9,0,1.4,0.1c-0.2-3.4,1-6.3,3.7-8.7c2.8-2.3,6.1-3.4,10-3.2c6.6,0.4,12.5,5.6,11.4,12.7
		C46.5,40.2,47.1,40.2,47.7,40.2z M136.3,40.2c0-0.1,0-0.2,0-0.3c0-0.5,0-1.1-0.1-1.6c-0.1-1.3-0.2-2.6-0.4-3.8
		c-0.3-1.9-1.1-3.7-2-5.5c-0.7-1.2-1.7-2-3.2-2.4c-1.7-0.5-3.6-0.7-5.4-0.8c-2.1-0.1-4.3-0.2-6.4-0.2c-1.4,0-2.8,0.1-4.1,0.3
		c-2.1,0.4-3.8,1.3-4.6,3.2c-0.4,0.9-0.7,1.8-1,2.8c-0.7,2.3-1.1,4.7-1.5,7.1c-0.1,0.4-0.2,0.9-0.2,1.3c0.8,0,1.6,0,2.4,0
		c-0.5-3.4,0.4-6.4,3-9c2.6-2.5,5.9-3.8,9.8-3.8c3.4,0,6.4,1.1,8.8,3.3c2.9,2.6,3.9,5.8,3.4,9.4C135.3,40.2,135.8,40.2,136.3,40.2z
		 M103.6,39.4c-17.3,0-34.5,0-51.8,0c0,0.1,0,0.1,0,0.2c0.1,0.9,0.1,0.7,0.9,0.7c16.6,0,33.2,0,49.8,0c0.1,0,0.2,0,0.3,0
		c0.1,0,0.2,0,0.3-0.1C103.3,40,103.4,39.7,103.6,39.4z M69.4,2.2c-0.1,0-0.2,0-0.4,0c-3-0.1-5.9-0.2-8.9-0.2c-1.3,0-2.5,0-3.8,0
		c-3.2,0-6.3,0-9.5,0c-0.1,0-0.2,0-0.2,0.1c-0.2,0.4-0.4,0.9-0.6,1.3c7.8,0.1,15.5,0.1,23.2,0.2C69.4,3.1,69.4,2.6,69.4,2.2z
		 M14.6,4.5c-0.4,0-0.7,0.1-0.9,0.1c-0.1,0-0.3,0.1-0.4,0.2c-1.6,2-3.2,3.9-4.5,6.1c-1.9,3.2-3,6.6-3.2,10.3
		c-0.1,1.6-0.1,3.3-0.1,4.9c0,0.1,0,0.2,0,0.2c0,0.2-0.2,0.4-0.4,0.4c-0.2,0-0.5,0-0.7,0c-0.6,0-1.2,0-1.9,0
		c-0.1,0.3-0.2,0.6-0.3,0.9c1.5,0,2.9,0.1,4.4,0.2c0-0.2,0-0.3,0-0.4c0-1.7,0-3.4,0-5.1c0-3.2,0.8-6.2,2.2-9.1
		c1.2-2.5,2.8-4.8,4.5-7C13.8,5.4,14.2,5,14.6,4.5z M145.4,21.3C145.4,21.3,145.4,21.2,145.4,21.3c-0.2-0.4-0.4-0.7-0.6-0.9
		c-0.7-0.7-1.7-1.1-2.7-1.4c-2.2-0.7-4.6-1.1-6.9-1.5c-3.4-0.5-6.8-1-10.2-1.5c-3.2-0.5-6.5-0.7-9.8-0.8c-0.9,0-1.7,0.2-2.5,0.6
		c1.7,0.2,3.3,0.3,5,0.4c2.6,0.2,5.1,0.5,7.7,0.8c3,0.4,5.9,0.7,8.9,1.1c1.6,0.2,3.2,0.5,4.7,0.7c0.7,0.1,1.3,0.4,2,0.5
		c1.1,0.3,1.9,0.8,2.5,1.7c0.1,0.1,0.2,0.1,0.2,0.1C144.3,21.3,144.8,21.3,145.4,21.3z M67,4.1c0.1,2.1-0.1,4.1-0.2,6.1
		s-0.2,4.1-0.2,6.2c0.8,0,1.6,0,2.4,0c0.1-4.1,0.2-8.2,0.3-12.3C68.5,4.1,67.7,4.1,67,4.1z M108.8,13.9c-0.1-0.1-0.2-0.1-0.3-0.2
		c-2-1.2-4-2.3-6-3.5c-3.5-2-7-4-10.7-5.8c-0.1,0-0.2-0.1-0.3-0.1c-0.3,0.1-0.5,0.3-0.8,0.4C91,4.9,91.2,5,91.4,5.2
		c4.7,2.7,9.3,5.6,13.6,8.8c0.5,0.4,1.1,0.7,1.7,1c0.1,0,0.2,0.1,0.3,0C107.6,14.6,108.2,14.2,108.8,13.9z M70,4.1
		c-0.1,4.1-0.2,8.2-0.3,12.3c0.7,0,1.3,0,1.9,0c0-0.1,0-0.2,0-0.3c0-0.7,0.1-1.4,0.1-2.1c0.1-2.3,0.2-4.7,0.2-7c0-1,0-1.9,0.2-2.9
		C71.5,4.1,70.8,4.1,70,4.1z M69.7,29.3c0,0.2,0,0.4,0,0.6c0.8,0,1.5,0,2.3,0c3.4,0,6.9,0.1,10.3,0.1c1.4,0,2.8,0,4.2,0
		c3.1,0,6.1,0.1,9.2,0.1c2.1,0,4.2,0,6.2,0.1c0.6,0,1.2,0,1.8,0c0.1,0,0.2-0.1,0.2-0.1c0.1-0.3,0.1-0.5,0.1-0.8
		C92.6,29.6,81.2,29.3,69.7,29.3z M48.2,39.4c0.1,0.5,0.2,0.9,0.4,1.3c0.1,0.2,0.3,0.4,0.5,0.4c0.3,0,0.6,0,1,0
		c18.5,0,37.1,0,55.6,0c0.2,0,0.3,0,0.5,0c0.3,0,0.4-0.2,0.5-0.4c0.1-0.4,0.2-0.9,0.3-1.4c-0.8,0-1.6,0-2.4,0
		c-0.1,0-0.2,0.1-0.2,0.1c-0.1,0.2-0.3,0.4-0.4,0.7c-0.3,0.5-0.7,0.7-1.3,0.7c-16.6,0-33.3,0-49.9,0c-0.1,0-0.3,0-0.4,0
		c-0.6,0-1-0.2-1.2-0.8c-0.1-0.2-0.1-0.5-0.1-0.7C50.1,39.4,49.2,39.4,48.2,39.4z M18.6,1.8C18.6,1.8,18.6,1.8,18.6,1.8
		c0.3,0,0.6,0,0.9,0c2.5-0.1,5.1-0.3,7.6-0.4c2.8-0.1,5.6,0,8.4-0.1c2.3,0,4.6,0,6.9,0c2.8,0,5.6-0.1,8.3-0.1c3.8,0,7.5,0,11.3,0.1
		c2.6,0,5.1,0.1,7.7,0.2c0.3,0,0.7,0,1,0c-0.2-0.2-0.3-0.3-0.4-0.4c-0.4-0.3-0.8-0.4-1.3-0.5c-2-0.2-4-0.2-6,0c-0.2,0-0.4,0-0.5,0.1
		c-0.3,0.2-0.6,0.2-0.9,0.2c-0.3,0-0.6,0-0.9,0c-2.7,0-5.4,0-8.1,0c-4.7,0-9.4,0.1-14.1,0.1c-2.2,0-4.4,0.1-6.6,0.1
		c-2.1,0-4.2,0.1-6.3,0.2c-0.2,0-0.3-0.1-0.5-0.1c-0.2-0.1-0.4-0.2-0.6-0.2c-1.2,0-2.4-0.1-3.6,0c-0.7,0-1.4,0.1-1.9,0.5
		C18.9,1.5,18.7,1.7,18.6,1.8z M5.4,17.5c1-4.8,3.7-8.8,7-12.7C11.8,4.9,11.4,5,11,5.3C9.5,6.6,8.3,8.1,7.3,9.7
		c-1.4,2-2.6,4.1-3.3,6.4c-0.2,0.5-0.3,0.9-0.4,1.4C4.2,17.5,4.8,17.5,5.4,17.5z M97.2,16.1c0.7,0,1.2-0.1,1.8-0.1
		c0.7-0.1,0.9-0.3,0.7-0.8c-0.1-0.4-0.3-0.7-0.4-1.1c-0.3-0.5-0.6-1.1-0.9-1.6c-0.2-0.2-0.4-0.4-0.7-0.4c-0.4,0-0.8,0-1.2,0
		c-0.4,0-0.7,0-1.1,0.1c-0.3,0-0.5,0.2-0.5,0.4c-0.2,0.9-0.3,1.8-0.1,2.7c0.1,0.4,0.4,0.7,0.9,0.8C96.2,16,96.8,16,97.2,16.1z
		 M139.2,19.6c0,0.3,0,0.5,0,0.8c0,0.1,0.1,0.2,0.2,0.3c0.6,0.2,1,0.6,1.4,1.1c0.6,0.7,1,1.6,1.3,2.5c0.4,1.2,0.6,2.4,1,3.6
		c0,0.1,0.1,0.2,0.1,0.2c0.5,0,1.1,0.2,1.6,0c0.1,0,0.2-0.2,0.2-0.4c0-0.2-0.1-0.4-0.1-0.5c-0.4-1.7-0.9-3.3-1.6-4.9
		c-0.3-0.7-0.8-1.4-1.6-1.8C140.9,20.1,140.1,19.9,139.2,19.6z M5.3,18.1c-0.6,0-1.2,0-1.7,0c-0.1,0-0.2,0.1-0.2,0.2
		c-0.1,0.4-0.2,0.8-0.2,1.3C3.1,21,3,22.4,2.9,23.9c-0.1,0.7-0.1,1.3-0.2,2.1c0.7,0,1.4,0,2.1,0C4.9,23.3,4.8,20.7,5.3,18.1z
		 M51.3,29.3C51.3,29.3,51.3,29.3,51.3,29.3c0.2,0.1,0.3,0.2,0.5,0.2c0.9,0.1,1.7,0.2,2.6,0.2c3.2,0.1,6.4,0.1,9.7,0.1
		c1.2,0,2.3,0,3.5,0c0.5,0,0.9,0,1.3,0c0-0.2,0-0.4,0-0.6C63,29.3,57.2,29.3,51.3,29.3z M44.8,4.6c0,0-0.1,0-0.1,0
		c-0.2,0.3-0.5,0.6-0.6,0.9c-1.4,2.7-2.8,5.4-4.1,8.1c-0.4,0.7-0.7,1.4-1.1,2.1c-0.2,0.3-0.1,0.4,0.3,0.4c0.2,0,0.3,0,0.5,0
		c0.2,0,0.3-0.1,0.3-0.2c0.1-0.4,0.2-0.7,0.4-1.1c1.1-2.5,2.2-5,3.3-7.5C44,6.5,44.4,5.5,44.8,4.6z M139.4,21.4
		C139.3,21.4,139.3,21.4,139.4,21.4c-0.1,0.2,0,0.3,0,0.5c0.6,2,1.1,4,1.7,6c0,0.1,0.1,0.1,0.2,0.1c0.4,0,0.7,0,1.1,0
		c0-0.1,0-0.1,0-0.2c-0.3-1.2-0.6-2.4-1-3.6c-0.3-0.8-0.6-1.6-1.3-2.3C139.9,21.7,139.6,21.6,139.4,21.4z M147.1,28.7
		C147.1,28.6,147.1,28.6,147.1,28.7c-0.6-2.3-1.4-4.5-2.3-6.6c0,0-0.1-0.1-0.2-0.1c-0.3,0-0.5,0-0.8,0c0,0.1,0,0.1,0,0.1
		c0.7,1.6,1.2,3.2,1.6,4.8c0.1,0.5,0.3,0.9,0,1.4C146.1,28.4,146.6,28.5,147.1,28.7z M112.6,15.2c-0.8-0.4-1.4-0.8-2.1-1.1
		c-0.3-0.1-0.5-0.1-0.7,0c-0.4,0.2-0.7,0.4-1.1,0.6c-0.3,0.2-0.6,0.4-1,0.6C109.4,15.6,110.9,15.8,112.6,15.2z M78.2,1.9
		C78.2,1.9,78.2,1.9,78.2,1.9C79.1,2,80,2,81,2.1c1.7,0.1,3.5,0.3,5.2,0.6c1.5,0.3,3,0.7,4.4,1.2c0.1,0,0.2,0,0.4,0.1c0,0,0,0,0-0.1
		c0,0-0.1,0-0.1-0.1c-1.9-0.8-3.9-1.3-6.1-1.5C83.4,2.1,82,2,80.5,2C79.8,1.9,79,1.9,78.2,1.9z M10.2,4c0.1,0.1,0.3,0.1,0.4,0.2
		c0.3,0.2,0.4,0.2,0.8,0c0.6-0.4,1.1-0.7,1.7-1c0.5-0.2,1-0.4,1.5-0.6C13.4,2.5,11.1,3.2,10.2,4z M100.4,15.7
		c-0.3,0.7-0.9,0.8-1.5,0.8c-0.4,0-0.7,0-1.2,0.1c0.2,0.1,0.2,0.2,0.3,0.2c0.6,0,1.3,0,1.9-0.1c0.6-0.1,0.7-0.3,0.6-0.8
		C100.5,15.9,100.5,15.8,100.4,15.7z"/>
	<path d="M78.6,21.8c-0.1,0-0.1,0-0.2,0c-0.3,0-0.5,0-0.6,0.3c-0.3,0.5-0.8,0.7-1.4,0.8c-0.5,0-1.1,0-1.6,0c-0.7,0-1.2-0.3-1.5-0.9
		c-0.1-0.2-0.2-0.2-0.4-0.2c-0.5,0-1.1,0-1.6,0s-0.8-0.2-0.8-0.7c0-0.1,0-0.2,0-0.3c0-0.4,0.3-0.7,0.8-0.7c0.5,0,1.1,0,1.6,0
		c0.2,0,0.3,0,0.4-0.2c0.3-0.5,0.7-0.7,1.3-0.7c0.6,0,1.3,0,1.9,0c0.6,0,1,0.3,1.2,0.7c0.1,0.1,0.2,0.2,0.4,0.2c0.3,0,0.7,0,1,0
		c0.4,0,0.6,0.2,0.6,0.6c0,0.1,0,0.2,0,0.4c0,0.4-0.3,0.7-0.8,0.7C78.9,21.8,78.8,21.8,78.6,21.8z M71.3,21.2c2.6,0,5.2,0,7.8,0
		c0-0.1,0-0.2,0-0.4c-2.6,0-5.2,0-7.8,0C71.3,20.9,71.3,21,71.3,21.2z M77.2,21.8c-1.1,0-2.1,0-3.2,0c0.2,0.3,0.5,0.4,0.8,0.4
		c0.6,0,1.1,0,1.7,0C76.8,22.2,77.1,22.1,77.2,21.8z M74.1,20.2c1,0,2,0,3,0C76.7,19.7,74.6,19.7,74.1,20.2z"/>
	<path d="M43.2,19.8c0.1,0,0.2,0,0.3,0c0.4,0,0.8,0,1-0.4c0.2-0.3,0.6-0.5,1.1-0.5c0.7,0,1.3,0,2,0c0.6,0,1,0.3,1.3,0.8
		c0.1,0.1,0.2,0.2,0.3,0.2c0.3,0,0.7,0,1,0c0.4,0,0.7,0.2,0.7,0.6c0,0.1,0,0.3,0,0.4c0,0.4-0.3,0.6-0.7,0.6c-0.1,0-0.2,0-0.3,0
		c-0.5,0-0.8,0-1.1,0.5c-0.3,0.5-0.9,0.6-1.5,0.6c-0.5,0-0.9,0-1.4,0c-0.7,0-1.2-0.3-1.5-0.8c-0.1-0.2-0.2-0.2-0.4-0.2
		c-0.5,0-1,0-1.5,0c-0.6,0-0.9-0.2-0.9-0.8c0-0.1,0-0.2,0-0.2c0-0.4,0.3-0.6,0.7-0.6C42.6,19.8,42.9,19.8,43.2,19.8L43.2,19.8z
		 M50.1,20.5c-0.2,0-0.3,0-0.5,0c-1.5,0-2.9,0-4.4,0c-0.8,0-1.7,0-2.5,0c-0.4,0-0.5,0-0.4,0.4c2.6,0,5.2,0,7.7,0
		C50.1,20.7,50.1,20.6,50.1,20.5z M48.2,21.5c-1.1,0-2.1,0-3.2,0c0.2,0.3,0.4,0.4,0.8,0.4c0.6,0,1.1,0,1.7,0
		C47.8,21.9,48.1,21.7,48.2,21.5z M48.1,19.8c-0.6-0.5-2.7-0.5-3,0C46.1,19.8,47.1,19.8,48.1,19.8z"/>
	<path d="M122.3,46.3c-5,0-9-3.5-9-7.8c0-4.3,4-7.8,9.1-7.7c5.3,0.1,9,3.9,8.9,7.9C131.1,43,127,46.3,122.3,46.3z M122.3,40.7
		c1.4,0,2.6-1,2.6-2.2c0-1.3-1.2-2.3-2.7-2.3c-1.4,0-2.6,1-2.6,2.2C119.7,39.7,120.8,40.7,122.3,40.7z M115.3,35.7
		c-0.1,0.1-0.1,0.2-0.2,0.3c-0.3,0.7-0.5,1.3-0.5,2c-0.1,0.4,0,0.4,0.5,0.4c0,0,0.1,0,0.1,0c1-0.1,1.9-0.2,2.9-0.4
		c0.2,0,0.4,0,0.5-0.3c0.1-0.2,0-0.4-0.3-0.5c-0.9-0.4-1.7-0.9-2.5-1.4C115.6,35.9,115.4,35.8,115.3,35.7z M127,33.2
		c-0.8-0.5-1.6-0.9-2.6-1.1c-0.4-0.1-0.4-0.1-0.4,0.2c-0.1,0.9-0.2,1.9-0.3,2.8c0,0.1,0.1,0.2,0.2,0.3c0.2,0.2,0.5,0.2,0.7-0.1
		c0.4-0.4,0.9-0.8,1.3-1.2C126.3,33.8,126.7,33.5,127,33.2z M127.2,43.6c0.1-0.1,0.2-0.1,0.3-0.2c0.5-0.5,1-1,1.4-1.6
		c0.3-0.3,0.2-0.4-0.2-0.5c-0.9-0.3-1.9-0.5-2.8-0.8c-0.2-0.1-0.4-0.1-0.6,0.1c-0.2,0.2-0.2,0.4,0,0.6c0.6,0.8,1.1,1.5,1.7,2.3
		C127.1,43.5,127.2,43.5,127.2,43.6z M120.7,45c1,0.2,1.9,0.2,2.9,0.1c0.4-0.1,0.4-0.1,0.3-0.4c-0.4-0.8-0.7-1.7-1-2.5
		c-0.1-0.2-0.2-0.3-0.4-0.3s-0.4,0.1-0.5,0.3c-0.3,0.7-0.6,1.4-0.9,2.1C120.9,44.5,120.8,44.7,120.7,45z M117.6,33.2
		c0,0,0,0.1-0.1,0.1c0.1,0,0.2,0.1,0.3,0.2c0.7,0.6,1.5,1.2,2.2,1.8c0.2,0.1,0.3,0.2,0.5,0.1c0.3-0.1,0.4-0.2,0.3-0.5
		c0-0.1-0.1-0.3-0.1-0.4c-0.1-0.8-0.2-1.6-0.3-2.3c0-0.2-0.1-0.2-0.3-0.2c-0.7,0.3-1.4,0.5-2.1,0.8
		C117.9,32.9,117.7,33.1,117.6,33.2z M130,38.2c0-1-0.3-1.9-0.8-2.7c-0.1,0-0.2,0.1-0.2,0.1c-0.9,0.5-1.8,1.1-2.7,1.6
		c-0.2,0.1-0.2,0.2-0.2,0.4c0.1,0.3,0.3,0.4,0.6,0.4c0.6,0,1.3,0.1,1.9,0.2C129,38.1,129.5,38.2,130,38.2z M115.4,41.4
		c0.4,0.8,1,1.4,1.6,2c0.3,0.2,0.4,0.2,0.6-0.1c0.6-0.7,1.1-1.5,1.6-2.3c0.1-0.2,0.2-0.3,0-0.4c-0.2-0.2-0.3-0.2-0.5-0.2
		c-1,0.3-2,0.6-3,0.9C115.6,41.3,115.5,41.3,115.4,41.4z M122.4,33.6c0-0.4,0-0.8,0-1.2c0-0.2,0-0.4,0-0.5c0,0-0.1-0.1-0.1-0.1
		c0,0-0.1,0.1-0.1,0.1c0,0,0,0.1,0,0.2c0,1,0,2,0,3.1c0,0.1,0.1,0.1,0.1,0.2c0.1-0.1,0.1-0.1,0.1-0.2
		C122.4,34.6,122.4,34.1,122.4,33.6z M118.9,39.3C118.9,39.3,118.9,39.2,118.9,39.3c-0.1-0.1-0.2-0.1-0.2-0.1
		c-0.3,0-0.5,0.1-0.8,0.2c-0.9,0.2-1.8,0.4-2.7,0.6c-0.1,0-0.2,0.1-0.3,0.1c0,0,0,0.1,0.1,0.1C116.2,39.9,117.5,39.6,118.9,39.3z
		 M125,36.4C125,36.4,125,36.4,125,36.4c0.1,0.1,0.2,0.1,0.2,0c0.3-0.2,0.6-0.4,0.9-0.7c0.6-0.5,1.3-0.9,1.9-1.4
		c0.1,0,0.1-0.1,0.2-0.2c0,0-0.1,0-0.1-0.1C127.1,34.9,126,35.6,125,36.4z M125.8,39.1c0.2,0.2,3.8,0.8,4,0.7
		C129.6,39.6,126,39,125.8,39.1z M119.5,36.5c-1.1-0.7-2.1-1.5-3.2-2.2C116.3,34.5,119.2,36.5,119.5,36.5z M129.5,40.8
		c0-0.1,0.1-0.2,0.1-0.3c-1-0.2-1.9-0.4-2.9-0.5c0,0,0,0,0,0C127.6,40.3,128.5,40.5,129.5,40.8z M118.3,44.1
		c0.4-0.8,0.8-1.5,1.3-2.3c0,0-0.1,0-0.1,0c-0.5,0.7-1,1.4-1.5,2.1c0.1,0,0.1,0.1,0.2,0.1C118.1,44,118.2,44.1,118.3,44.1z
		 M120.8,41.3c-0.1,0-0.1,0-0.2-0.1c-0.6,1.1-1.2,2.2-1.8,3.2c0.1,0,0.1,0,0.1,0.1C119.6,43.4,120.2,42.3,120.8,41.3z M118.1,36.5
		C118.1,36.5,118.1,36.5,118.1,36.5c-0.7-0.6-1.5-1.1-2.3-1.6c-0.1,0.1-0.1,0.2-0.2,0.3C116.4,35.6,117.3,36.1,118.1,36.5z
		 M125.6,44.5c0.1,0,0.1,0,0.2-0.1c-0.6-1.1-1.2-2.1-1.8-3.2c-0.1,0-0.1,0-0.1,0C124.4,42.3,125,43.4,125.6,44.5z M121.2,31.9
		c0.1,0.9,0.2,1.7,0.3,2.5h0c0-0.9,0-1.7,0-2.6C121.4,31.8,121.3,31.9,121.2,31.9z M125,44.7c-0.4-0.8-0.9-1.5-1.3-2.3
		c0,0,0,0-0.1,0c0.3,0.8,0.7,1.6,1,2.4C124.7,44.8,124.8,44.7,125,44.7z M120.9,42.6C120.9,42.6,120.9,42.6,120.9,42.6
		c-0.5,0.7-0.9,1.4-1.3,2.1c0.1,0,0.2,0.1,0.3,0.1C120.3,44.1,120.6,43.3,120.9,42.6z M126.7,44c-0.5-0.7-0.9-1.3-1.4-1.9
		c0,0-0.1,0-0.1,0c0.4,0.7,0.8,1.4,1.2,2.1C126.5,44,126.6,44,126.7,44z M128.6,34.7c-0.7,0.5-1.4,1-2,1.5c0,0,0,0,0.1,0
		c0.7-0.4,1.4-0.9,2.2-1.3C128.8,34.9,128.7,34.8,128.6,34.7z M127.5,38.6C127.5,38.6,127.5,38.7,127.5,38.6
		c0.8,0.2,1.6,0.4,2.5,0.5c0-0.1,0-0.2,0-0.3C129.1,38.8,128.3,38.7,127.5,38.6z M123.1,31.8c0,0.7,0,1.4,0,2.1h0
		c0.1-0.7,0.2-1.4,0.3-2.1C123.3,31.8,123.2,31.8,123.1,31.8z M117,33.6c-0.1,0.1-0.2,0.1-0.2,0.2c0.6,0.4,1.2,0.8,1.8,1.2l0,0
		C118.1,34.5,117.5,34.1,117,33.6z M114.7,39.4c0.8-0.2,1.6-0.3,2.3-0.5c0,0,0,0,0-0.1c-0.8,0.1-1.5,0.2-2.3,0.3
		C114.7,39.2,114.7,39.3,114.7,39.4z"/>
	<path d="M33.4,46.3c-5,0-9-3.5-9-7.7c0-4.4,4-7.9,9.1-7.8c5.4,0.1,8.9,3.8,8.9,7.8C42.4,42.8,38.3,46.3,33.4,46.3z M36,38.5
		c0.1-1.2-1-2.3-2.5-2.3c-1.3-0.1-2.6,0.9-2.7,2.1c-0.1,1.3,0.9,2.3,2.4,2.5C34.7,40.8,36.1,39.8,36,38.5z M26.4,35.7
		c-0.4,0.9-0.7,1.7-0.7,2.6c0,0,0.1,0.1,0.2,0.2c0.1,0,0.2,0,0.3,0c1-0.1,1.9-0.2,2.9-0.4c0.3,0,0.4-0.1,0.5-0.4
		c0.1-0.2-0.1-0.4-0.3-0.5c-0.9-0.5-1.7-0.9-2.6-1.4C26.7,35.8,26.6,35.8,26.4,35.7z M38.2,33.2c-0.8-0.5-1.6-0.9-2.6-1.2
		c-0.4-0.1-0.4-0.1-0.5,0.3c-0.1,0.9-0.2,1.8-0.3,2.6c0,0.2,0,0.4,0.2,0.5s0.5,0.1,0.6-0.1c0.6-0.5,1.1-1,1.6-1.4
		C37.6,33.7,37.9,33.4,38.2,33.2z M26.5,41.4c0.5,0.8,1,1.4,1.7,2c0.3,0.2,0.4,0.2,0.6-0.1c0.6-0.8,1.1-1.5,1.6-2.3
		c0.1-0.2,0.1-0.3,0-0.4c-0.2-0.2-0.3-0.2-0.5-0.2c-1,0.3-2,0.6-3,0.9C26.8,41.3,26.7,41.3,26.5,41.4z M35.1,45
		C35,44.8,35,44.7,35,44.6c-0.4-0.8-0.7-1.6-1-2.5c-0.1-0.2-0.2-0.3-0.4-0.3c-0.3,0-0.4,0.1-0.5,0.3c-0.4,0.9-0.7,1.8-1.1,2.7
		c0,0,0,0.1,0,0.1C32.9,45.2,34,45.2,35.1,45z M28.7,33.2c0.1,0.1,0.2,0.2,0.3,0.3c0.7,0.6,1.5,1.2,2.2,1.9c0.2,0.1,0.3,0.2,0.5,0.1
		c0.2-0.1,0.4-0.2,0.3-0.5c-0.1-0.9-0.2-1.8-0.4-2.7c0-0.1-0.1-0.2-0.1-0.3C30.5,32.2,29.5,32.6,28.7,33.2z M38.4,43.6
		c0.9-0.6,1.5-1.3,2-2.2c-0.2-0.1-0.3-0.1-0.4-0.2c-1-0.3-1.9-0.5-2.9-0.8c-0.2-0.1-0.4,0-0.5,0.1c-0.2,0.2-0.2,0.3,0,0.5
		c0.4,0.5,0.8,1,1.2,1.5C37.9,42.9,38.1,43.2,38.4,43.6z M40.3,35.5c-0.1,0-0.2,0.1-0.2,0.1c-0.9,0.5-1.8,1.1-2.7,1.6
		c-0.2,0.1-0.2,0.2-0.2,0.4c0.1,0.3,0.3,0.4,0.6,0.4c0.8,0.1,1.6,0.1,2.4,0.2c0.3,0,0.6,0,0.9,0.1C41,37.2,40.8,36.4,40.3,35.5z
		 M36.1,36.4c0,0,0,0.1,0,0.1c0.1,0,0.2,0,0.2-0.1c0.3-0.2,0.6-0.4,0.9-0.7c0.6-0.4,1.2-0.9,1.8-1.3c0.1-0.1,0.2-0.2,0.2-0.2
		c-0.1,0-0.2,0.1-0.3,0.1c-0.3,0.2-0.5,0.4-0.7,0.5C37.6,35.3,36.8,35.8,36.1,36.4z M30,39.3c-0.1-0.1-0.2-0.1-0.2-0.1
		c-1.3,0.3-2.6,0.6-3.9,0.9c0,0,0,0.1,0.1,0.2C27.3,39.9,28.7,39.6,30,39.3z M33.5,31.8c0,0-0.1,0-0.1,0c0,0.1-0.1,0.1-0.1,0.2
		c0,1.1,0,2.1,0,3.2c0,0,0,0.1,0,0.1c0,0,0.1,0.1,0.1,0.1c0,0,0.1-0.1,0.1-0.1c0,0,0-0.1,0-0.1c0-1,0-2,0-3.1
		C33.6,32,33.5,31.9,33.5,31.8z M40.9,39.9C40.9,39.8,41,39.8,40.9,39.9c-0.1-0.1-0.1-0.2-0.2-0.2c-1-0.2-2.1-0.4-3.1-0.6
		c-0.2,0-0.3-0.1-0.5-0.1c-0.1,0-0.1,0-0.2,0c0.1,0,0.1,0.1,0.2,0.1c0,0,0.1,0,0.1,0c1.1,0.2,2.3,0.4,3.4,0.6
		C40.7,39.9,40.8,39.9,40.9,39.9z M27.3,34.3c1.1,0.8,2.2,1.5,3.3,2.2c0,0,0,0,0.1-0.1C30.5,36.3,27.5,34.3,27.3,34.3z M32.1,42.4
		C32.1,42.4,32.1,42.4,32.1,42.4c-0.5,0.7-0.9,1.5-1.4,2.3c0.2,0,0.3,0.1,0.4,0.1C31.5,44,31.8,43.2,32.1,42.4z M26.7,35.2
		c0.9,0.5,1.7,0.9,2.5,1.3c0,0,0,0,0,0c-0.8-0.5-1.5-1.1-2.3-1.6C26.8,35,26.8,35.1,26.7,35.2z M32,41.2c-0.3,0.1-1.9,2.9-1.9,3.2
		C30.7,43.4,31.3,42.3,32,41.2z M35.1,41.2c-0.1,0-0.1,0-0.1,0.1c0.6,1.1,1.2,2.1,1.8,3.2c0.1,0,0.1,0,0.2-0.1
		C36.3,43.3,35.7,42.3,35.1,41.2z M40.8,40.5c-0.9-0.2-1.8-0.3-2.7-0.5c0,0,0,0,0,0.1c0.9,0.2,1.7,0.5,2.6,0.7
		C40.7,40.7,40.7,40.6,40.8,40.5z M36.3,41.9C36.3,41.9,36.3,41.9,36.3,41.9c0.3,0.8,0.7,1.5,1.2,2.2c0.1-0.1,0.2-0.1,0.3-0.2
		C37.3,43.3,36.8,42.6,36.3,41.9z M29.4,44.1c0.4-0.7,0.8-1.4,1.2-2.1c0,0-0.1,0-0.1,0c-0.5,0.6-0.9,1.3-1.4,1.9
		C29.2,44,29.3,44,29.4,44.1z M39.8,34.7c-0.7,0.5-1.4,1-2.1,1.5c0,0,0,0,0.1,0c0.7-0.4,1.5-0.9,2.3-1.3
		C39.9,34.9,39.9,34.8,39.8,34.7z M36.1,44.7c-0.4-0.7-0.8-1.4-1.2-2.1c0,0,0,0-0.1,0c0.3,0.7,0.6,1.4,0.9,2.2
		C35.9,44.8,36,44.7,36.1,44.7z M27.9,33.8c0.7,0.5,1.4,0.9,2,1.4c0,0,0,0,0,0c-0.6-0.5-1.2-1.1-1.7-1.6
		C28.1,33.7,28,33.7,27.9,33.8z M41.1,38.8c-0.9-0.1-1.7-0.2-2.5-0.2c0,0,0,0,0,0.1c0.8,0.2,1.6,0.3,2.5,0.5
		C41.1,39,41.1,39,41.1,38.8z M32.3,31.9c0.1,0.8,0.2,1.6,0.3,2.3c0,0,0,0,0.1,0c0-0.8,0-1.5,0-2.3C32.5,31.9,32.4,31.9,32.3,31.9z
		 M25.8,39.4c0.8-0.2,1.5-0.3,2.3-0.5c0,0,0,0,0-0.1c-0.8,0.1-1.5,0.2-2.3,0.3C25.8,39.2,25.8,39.3,25.8,39.4z M34.3,33.7L34.3,33.7
		c0.1-0.6,0.2-1.2,0.3-1.8c-0.1,0-0.2,0-0.3,0C34.3,32.5,34.3,33.1,34.3,33.7z"/>
	<path d="M145.5,35c0.6,0,1.1,0,1.7,0c1.2,0,1.7,0.7,1.4,1.6c-0.2,0.5-0.3,1-0.5,1.5c-0.2,0.7-0.6,0.9-1.3,0.9c-0.8,0-1.6,0-2.4,0
		c-0.7,0-1.2-0.3-1.3-1c-0.1-0.6-0.3-1.3-0.4-1.9c-0.1-0.7,0.4-1.2,1.2-1.2C144.4,35,144.9,35,145.5,35z M147.3,35.6
		c-0.1,0-0.2,0-0.3,0c-1.1,0-2.2,0-3.3,0c-0.3,0-0.4,0.2-0.4,0.4c0.1,0.5,0.2,1.1,0.3,1.6c0.9,0,1.8,0,2.7,0c0.1,0,0.3-0.1,0.3-0.2
		C146.9,36.8,147.1,36.3,147.3,35.6z M148,36c0,0-0.1,0-0.1,0c0,0.1-0.1,0.2-0.1,0.3c-0.1,0.4-0.3,0.8-0.4,1.2
		c-0.2,0.5-0.6,0.8-1.2,0.8c-0.6,0-1.2,0-1.8,0c-0.1,0-0.2,0-0.4,0c0,0,0,0,0,0.1c0.1,0,0.3,0,0.4,0c0.8,0,1.6,0,2.4,0
		c0.3,0,0.5-0.1,0.6-0.4c0.2-0.5,0.4-1.1,0.6-1.7C148,36.3,147.9,36.1,148,36z"/>
	<path d="M122.3,40c-1,0-1.8-0.7-1.8-1.6c0-0.9,0.8-1.6,1.8-1.6c1,0,1.8,0.7,1.8,1.6C124.1,39.3,123.3,40,122.3,40z M122.3,37.5
		c-0.6,0-1.1,0.4-1.2,1c0,0.5,0.5,1,1.1,1c0.6,0,1.1-0.4,1.1-1C123.5,37.9,122.9,37.5,122.3,37.5z"/>
	<path d="M33.4,40c-1,0-1.8-0.7-1.8-1.6c0-0.9,0.8-1.6,1.8-1.6c1,0,1.8,0.7,1.8,1.6C35.3,39.3,34.4,40,33.4,40z M33.4,37.5
		c-0.6,0-1.1,0.4-1.1,1c0,0.5,0.5,1,1.1,0.9c0.7,0,1.1-0.4,1.1-1C34.6,37.9,34,37.5,33.4,37.5z"/>
</g>
</svg>
