<?xml version="1.0" encoding="utf-8"?>
<!-- Generator: Adobe Illustrator 27.4.0, SVG Export Plug-In . SVG Version: 6.00 Build 0)  -->
<svg version="1.1" id="Layer_1" xmlns="http://www.w3.org/2000/svg" xmlns:xlink="http://www.w3.org/1999/xlink" x="0px" y="0px"
	 viewBox="0 0 593 225.3" style="enable-background:new 0 0 593 225.3;" xml:space="preserve">
<g>
	<path d="M575.7,99.9c0.7,2.2,1.4,4.3,2.1,6.3c0.1,0.4,0.5,0.8,0.9,0.9c1.1,0.5,1.8,1.3,2.1,2.4c1.1,3.9,2.2,7.8,3.3,11.6
		c0.4,1.3,0.5,2.7-0.5,3.9c-0.2,0.2-0.2,0.6-0.1,0.9c0.5,2.1,1,4.1,1.5,6.2c0.1,0.4,0.4,0.8,0.7,1c5,3.5,7.2,8.3,7.1,14.3
		c-0.2,9-0.7,18-2.9,26.8c-0.5,2-1.2,3.9-2.1,5.7c-2.5,5.2-7.1,7.7-12.6,8.4c-4.2,0.5-8.4,0.7-12.7,0.8c-5.9,0.2-11.8,0.1-17.7,0.2
		c-0.9,0-1.8-0.1-2.6-0.2c-1.6-0.2-2.7-1.1-3.1-2.8c-2.1,0-4.2,0-6.2,0c-0.3,0-0.6,0.6-0.7,1c-1.6,6.6-4.4,12.6-8.5,18
		c-9.4,12.2-21.7,19.3-37.2,20c-20.6,0.9-36.1-7.9-46.6-25.5c-2.5-4.1-4.1-8.7-5.1-13.5c-3.3,0-6.6,0-9.8,0c-0.2,0-0.6,0.3-0.7,0.6
		c-1,2.4-2.7,3.6-5.3,3.5c-0.4,0-0.8,0-1.2,0c-73.2,0-146.5,0-219.7,0c-1.6,0-3.2,0-4.8-0.3c-1.7-0.2-2.9-1.3-3.6-2.8
		c-0.3-0.8-0.8-0.9-1.5-0.9c-2.1-0.1-4.2-0.1-6.2-0.2c-0.8,0-1,0.2-1.2,1c-3.4,13.8-11.3,24.3-23.5,31.5c-9,5.3-18.8,7.4-29.2,6.6
		c-20.5-1.5-38.1-15.8-43.8-35.5c-0.7-2.4-1.2-4.8-1.8-7.6c-1.8,0-3.7,0-5.6,0c-0.2,0-0.5,0.1-0.6,0.2c-1.3,2.2-3.5,2.1-5.6,2
		c-11.2-0.7-22.4-1.5-33.6-2.3c-13.6-1-23.9-7.8-31.8-18.6c-3.7-5.1-5.2-11-5.3-17.2c0-2.4,0-4.8,0.1-7.2c0.1-4.7,1.9-8.7,4.8-12.3
		c1.7-2,2.5-4.4,2.7-6.9c0.6-6.2,1-12.5,1.5-18.8c0.6-8.9,1-17.9,3.2-26.6c2.4-9.7,6.6-18.6,11.5-27.3c5-8.9,10.6-17.4,17.7-24.8
		c-0.9-0.8-1.8-1.5-2.5-2.4c-1.4-1.7-1.2-3.3,0.5-4.6c3.4-2.6,7.3-4.4,11.5-5.1c6.1-1,12.3-1.7,18.4-2.4c0.9-0.1,1.5-0.3,2.1-1.2
		c2-3,5-4.3,8.4-4.8C86,0.8,92.2,1,98.4,1.6c0.9,0.1,1.8,0.7,2.7,1c0.7,0.2,1.5,0.4,2.3,0.3c7.2-0.2,14.5-0.5,21.7-0.7
		C137.7,2,150.3,1.7,163,1.5c6.6-0.1,13.3-0.1,19.9-0.2c9.3-0.1,18.5-0.2,27.8-0.1c11.1,0.1,22.1,0.3,33.2,0.4
		c0.9,0,1.6-0.2,2.4-0.6c1.3-0.6,2.9-1,4.4-1c7.2,0,14.5,0,21.7,0.2c3.6,0.1,6.8,1.5,9.1,4.4c0.2,0.3,0.7,0.4,1,0.4
		c6.7,0.2,13.4,0.2,20.1,0.5c10.2,0.5,20.4,0.9,30.6,1.7c9.6,0.8,18.8,3.6,27.5,7.7c1.2,0.5,2,1.6,3.2,2.3
		c23.1,13.4,45.1,28.5,67.3,43.3c0.9,0.6,1.7,1.1,2.9,0.5c1.6-0.7,3.2,0,4.6,0.8c2.9,1.8,5.7,3.5,8.5,5.4c0.6,0.4,1,0.5,1.7,0.2
		c2.6-1,5.3-0.9,7.9-0.7c7.9,0.5,15.8,1,23.7,1.8c7.9,0.8,15.8,1.9,23.6,3.2c11.6,1.9,23.1,4,34.7,6.2c8.4,1.6,16.8,3.5,24.9,6.5
		c4.1,1.6,8,3.5,10.9,6.9c1.1,1.3,1.9,2.7,2.7,4.2C578.6,97.9,578.1,98.9,575.7,99.9z M275.3,139.2c0,12.6,0,25,0,37.6
		c0.4,0,0.8,0,1.3,0c9.8,0,19.7,0,29.5,0c33.7,0,67.3,0,101,0c1.1,0,1.5-0.3,1.8-1.3c0.9-3.4,2-6.8,3-10.2
		c3.3-11.6,5.3-23.5,5.6-35.5c0.1-7.9,0-15.8-0.1-23.7c-0.3-12.6-1.8-25-3.7-37.4c-0.3-2-1.1-3.4-2.7-4.8c-9.9-8.4-20-16.5-30.7-24
		c-7.1-4.9-14.1-9.8-21.2-14.6c-2.5-1.7-2.9-2.6-2.2-5.2c-0.4-0.2-0.8-0.3-1.2-0.5c-9.9-3.7-20.1-6-30.5-6.8
		c-15.3-1.1-30.7-1.9-46.1-2.8c-0.5,0-0.9,0-1.5,0c-0.1,2.1-0.2,4.1-0.3,6.1c5.7,0.2,11.2,0.3,16.7,0.5c10.9,0.5,21.9,1.2,32.7,2.6
		c10.8,1.4,20.8,5,29.6,11.6c9.1,6.8,17.9,13.8,26.9,20.6c0.5,0.4,1.3,0.7,1.9,0.7c3.1,0,5.6,1.2,7,4.1c0.8,1.6,1.6,3.2,2.4,4.8
		c0.8,1.5,1.6,3.1,2.6,4.6c1.5,2.4,2.8,4.8,3.3,7.6c0.4,2.6-0.7,4.8-3.3,5.5c-1.9,0.5-4,0.8-6,0.8c-10.7-0.1-21.3-0.3-32-0.5
		c-6.6-0.1-13.1-0.2-19.7-0.2c-13.6-0.2-27.3-0.3-40.9-0.5c-4.7-0.1-9.3-0.2-14-0.2c-2.8,0-5.6,0-8.6,0c-0.1,17.6-0.3,35.2-0.4,53
		c3.4,0,6.7,0,9.9,0c16.4,0.1,32.9,0.1,49.3,0.2c8.3,0,16.6,0.2,24.9,0.2c11.2,0,22.3-0.1,33.5-0.2c6,0,12.1-0.2,18.1-0.2
		c2.4,0,3.5,1.3,3.2,3.7c-0.1,1.1-0.3,2.2-0.4,3.3c-0.4,2.2-1.1,2.9-3.4,2.8c-4.7-0.1-9.4-0.2-14.1-0.2c-11.2-0.2-22.5-0.3-33.7-0.5
		c-10.4-0.1-20.9-0.3-31.3-0.4c-9.3-0.1-18.6-0.2-27.9-0.3c-5.5-0.1-11-0.2-16.5-0.2C283.1,139.1,279.3,139.2,275.3,139.2z
		 M190.3,176.7c27.3,0,54.6,0,82.1,0c0-12.6,0-25.1,0-37.7c-1,0-2-0.1-3-0.1c-13.1-0.2-26.1-0.3-39.2-0.5
		c-6.9-0.1-13.8-0.2-20.7-0.5c-3.7-0.2-7.3-1.1-10.4-3.3c-0.8-0.6-1.5-1.1-1.2-2.2c0.2-1.1,1.1-1.4,2.1-1.5c3.3-0.2,6.6-0.4,9.9-0.4
		c12.5,0,25,0,37.5,0.1c6.6,0,13.1,0.1,19.7,0.2c1.9,0,3.7,0,5.7,0c0.1-17.7,0.3-35.2,0.4-53c-37.7-0.5-75.4-1-113.2-1.4
		c-0.2,2.1-0.6,4.1-0.6,6.1c-0.1,10.6-0.1,21.3-0.2,31.9c0,0.7,0.2,1,0.9,1.2c1.4,0.4,2.7,0.9,4.1,1.4c8.5,3.3,14.4,9.1,16.7,18.1
		c2,7.5,3.8,15,5.6,22.5C187.8,164,189,170.3,190.3,176.7z M181.9,8.8c-2.2,0-4.1,0-6.1,0c-11.7,0.1-23.3,0.2-35,0.2
		c-11.3,0.1-22.5,0.2-33.8,0.2c-2,0-4,0-6,0.1c-8.7,0.6-17.4,1.2-26.1,1.9c-6.6,0.5-13,1.8-19.1,4.3c-1.9,0.8-3.6,1.7-5.4,2.6
		c0,0.1,0.1,0.2,0.1,0.3c0.4-0.1,0.8-0.1,1.1-0.2c3.1-0.4,6.3-0.9,9.4-1c5.6-0.3,11.3-0.3,16.9-0.4c11.7-0.3,23.5-0.5,35.2-0.8
		c8.5-0.2,17.1-0.4,25.6-0.6c2.2,0,4.5-0.2,6.7,0.1c3.2,0.3,4.9,2.8,4,5.9c-0.5,1.9-1.4,3.6-2.4,5.3c-7,12.1-14.1,24.2-21.2,36.2
		c-1.3,2.1-2.7,4.2-4.4,6c-4.4,4.7-9.9,6.6-16.2,6.6c-23.7-0.1-47.5,0-71.2,0c-0.5,0-1,0-1.6,0c-4.4,16.6-3.3,33.5-3.3,50.4
		c0.5,0.1,0.7,0.1,0.9,0.1c6.6,0.2,13.2,0.4,19.8,0.6c10,0.3,20,0.6,30.1,1c1.1,0,1.8-0.3,2.3-1.3c2.1-3.9,5-7.1,9.1-9.1
		c4.1-1.9,8.4-3.1,12.9-3.6c5.9-0.7,11.9-1.2,17.9-1.5c9-0.4,17.9,0,26.8,1.1c2.4,0.3,4.8,0.7,7.3,1.1c0.5-12.7-0.6-25.5,0.8-38.2
		c-0.6,0-1.2,0-1.8,0c-3.9,0-5.5-2.5-3.9-6.1c6.9-15.6,13.7-31.2,20.6-46.8c1.3-3.1,3.5-5.4,6.5-7c0.3-0.2,0.7-0.5,0.8-0.8
		C180.2,13.4,181,11.2,181.9,8.8z M416.2,67.9c0,0.4,0.1,0.6,0.1,0.8c1.1,9.4,2.3,18.7,3.2,28.1c0.9,10.1,0.9,20.2,0.6,30.3
		c-0.1,4.9-0.4,9.9-0.9,14.8c-1,10.2-3.5,20.1-6.4,29.9c-0.5,1.6-1,3.2-1.5,4.8c4,0,7.9,0,11.8,0c0.1-0.5,0.2-1,0.3-1.4
		c1.5-8.3,2.8-16.5,4.4-24.8c1.2-6,2.6-12,4.7-17.8c3.6-9.7,10.4-15.5,20.6-17.4c5.7-1.1,11.4-1.4,17.2-1.5
		c10.3-0.1,20.5,0,30.8,1.3c5.6,0.7,11.1,1.6,16.5,3.3c5.4,1.8,9.9,4.6,12.7,9.7c0.7,1.2,1.3,2.5,2,3.8c7.3-3.2,15.1-4,23-4.3
		c-0.1-0.5-0.1-1-0.3-1.4c-1.7-6.7-3.2-13.4-5.1-20.1c-1.4-5.2-2.4-10.4-2.2-15.8c0.1-1.1-0.3-1.4-1.3-1.6
		c-12.7-2.1-25.3-4.5-38-6.4c-13.3-1.9-26.6-3.4-40-4.9c-11-1.2-22-2.2-33-3.3c-5.5-0.6-11-1.6-16-4.3
		C418.4,69.2,417.4,68.6,416.2,67.9z M260.6,74.9c0-0.5,0.1-0.9,0.1-1.3c0.1-4.2,0.2-8.3,0.4-12.5c0.3-10.7,0.7-21.3,1.1-32
		c0.1-2.5,0.2-5,0.2-7.4c0-2.3-0.9-3.1-3.1-3.1c-4.6,0-9.1-0.1-13.7-0.2c-5.1-0.1-10.2-0.1-15.3-0.2c-10-0.1-20.1-0.2-30.1-0.3
		c-3.6,0-7.2-0.1-10.8-0.1c-2.2,0-4.5,0-6.7,0.1c-0.9,0-1.5,0.5-1.9,1.5c-2.7,7.1-5.5,14.1-8.2,21.2c-3.6,9.5-7.2,18.9-10.8,28.4
		c-0.5,1.4-0.8,2.9-1.3,4.6C194,74,227.3,74.5,260.6,74.9z M33.4,72.8c0.6,0,0.8,0.1,1.1,0.1c23.7,0,47.5,0,71.2,0
		c5.7,0,10.6-1.9,14.4-6.2c1.8-2.1,3.3-4.6,4.8-7c6.7-11.3,13.3-22.7,20-34.1c0.8-1.4,1.5-2.8,2.1-4.3c0.6-1.6-0.1-2.6-1.8-2.9
		c-0.7-0.1-1.5-0.1-2.3-0.1c-9,0.2-18.1,0.4-27.1,0.6c-6.3,0.1-12.7,0.3-19.1,0.4C85.3,19.5,74,19.8,62.6,20c-0.8,0-1.3,0.2-1.8,0.9
		c-3.9,6-8,11.9-11.8,18c-5.4,8.8-10.2,18-13.6,27.8C34.7,68.7,34,70.7,33.4,72.8z M379.3,52c-7.5-5.8-14.9-11.4-22.1-17.1
		c-9.8-7.7-20.9-12-33.2-13.4c-11-1.3-22-1.9-33-2.4c-2.3-0.1-3.2,0.8-3.3,3.1c-0.3,9.5-0.5,18.9-0.8,28.4
		c-0.2,5.4-0.3,10.8-0.5,16.2c-0.1,2.8,0,5.6,0,8.6c32,0.4,64.1,0.8,96.1,1.2c0-0.1,0-0.2,0-0.4c-0.4-0.1-0.8-0.2-1.2-0.3
		c-0.7-0.1-1.4,0-2-0.1c-5.3-0.7-6.9-2.9-7.5-6.8c-0.6-4.2-0.3-8.5,0.5-12.6c0.5-2.5,2.1-3.7,4.6-4C377.7,52.2,378.4,52.1,379.3,52z
		 M79.9,130.5c-0.2,0-0.6-0.1-1-0.1c-3.7-0.1-7.3-0.2-11-0.3c-11.3-0.4-22.5-0.7-33.8-1.1c-8.6-0.3-17.2-0.7-25.9-1
		c-0.4,0-1,0.1-1.2,0.4c-2,2.6-3.7,5.4-3.9,8.7c-0.2,3.3-0.2,6.7-0.2,10.1c0,3.1,0.6,6.2,1.9,9.1c3.9,8.9,10.6,15,19,19.3
		c5.4,2.8,11.4,3.4,17.3,3.9c7.7,0.6,15.4,1.1,23.1,1.6c2.7,0.2,5.4,0.2,8.1,0.3c1,0,1.6-0.3,1.6-1.5c0.2-5.4,0.2-10.8,0.7-16.2
		c0.6-7,1.3-13.9,2.4-20.8C77.6,138.7,78.9,134.6,79.9,130.5z M530.8,175.6c0.1-25.7-19.9-46.9-46-47.6c-24.8-0.7-48,18.9-48.4,46.6
		c-0.4,26,20.2,46.7,45,47.8C508,223.7,530.8,202.5,530.8,175.6z M179.4,175.8c0.2-26.2-20.6-47.6-46.9-47.7
		c-26-0.1-47.4,21.1-47.5,46.8c-0.1,26.2,21,47.1,46,47.6C157.5,223.1,179.4,201.7,179.4,175.8z M533.4,134.5
		c0.1,0.4,0.2,0.6,0.3,0.9c4.5,9.8,6.6,20.1,7.2,30.8c0.4,6.2,0.7,12.4,1.1,18.5c0.1,1.5,0.2,1.7,1.7,1.7c5.6,0,11.3,0.1,16.9,0
		c4.5-0.1,9.1-0.3,13.6-0.7c6.6-0.6,11.1-4.1,12.7-10.6c1-4.2,1.9-8.4,2.3-12.7c0.6-5.4,0.8-10.9,0.9-16.4c0.1-4.2-1.9-7.6-5.2-10.2
		c-4.2-3.2-9.1-4.7-14.4-5.1c-7.9-0.6-15.7-0.6-23.6,0.2C542.3,131.5,537.8,132.6,533.4,134.5z M188.6,183.4
		c-0.1-0.4-0.1-0.8-0.2-1.3c-1.1-5.6-2-11.2-3.3-16.8c-2.2-9.7-4.5-19.4-7-29.1c-1.9-7.5-6.4-12.9-13.6-15.8c-2.9-1.2-5.8-2.2-8.8-3
		c-3-0.7-6.1-1.1-9.2-1.5c-7.7-0.9-15.4-1.1-23.1-1c-8.2,0.2-16.3,0.9-24.3,2.6c-7.6,1.6-13.1,5.9-15.9,13.1
		c-1.5,3.8-2.7,7.7-3.5,11.7c-2.1,10.1-2.6,20.4-2.9,30.6c-0.1,2.1,0,4.1,0,6.3c1.7,0.1,3.5,0.2,5.4,0.3
		c-0.8-15.4,3.8-28.7,14.7-39.5c10.9-10.7,24.1-15.6,39.4-14.5c26.1,2,49.3,25.3,45.2,57.9C184,183.4,186.2,183.4,188.6,183.4z
		 M539,183.3c0-0.5,0.1-0.9,0.1-1.2c-0.1-2.5-0.1-5-0.3-7.4c-0.5-5.9-0.8-11.7-1.6-17.5c-1.1-8.8-4.2-16.9-7.9-24.9
		c-2.6-5.6-6.7-9.3-12.6-11.1c-6.9-2.2-14.1-3.3-21.3-3.7c-8.4-0.5-16.9-0.7-25.4-0.8c-5.5-0.1-10.9,0.4-16.3,1.4
		c-8.5,1.6-14.9,6.1-18,14.4c-1.6,4.1-2.8,8.4-3.9,12.7c-2.6,10.6-4.4,21.4-6,32.3c-0.3,2-0.6,3.9-0.9,6c3.2,0,6.2,0,9.3,0
		c-2-15.4,1.5-29.1,11.8-40.8c10.2-11.6,23.2-17.5,38.6-17.3c13.6,0.2,25.3,5.2,34.8,15.1c11.5,12,15.6,26.5,13.6,42.9
		C535.1,183.3,537,183.3,539,183.3z M409.7,179.7c-68.4,0-136.6,0-204.8,0c0,0.3,0,0.5,0,0.7c0.5,4,0.5,3.4,3.6,3.4
		c65.7,0,131.3,0,197,0c0.4,0,0.9,0.1,1.3,0c0.4-0.1,0.9-0.2,1.1-0.6C408.5,182.1,409,180.9,409.7,179.7z M274.6,9.8
		c-0.5-0.1-0.9-0.1-1.4-0.2c-11.7-0.3-23.3-0.7-35-1c-5-0.1-10-0.2-15-0.2c-12.5,0-25,0-37.5,0.1c-0.3,0-0.8,0.2-0.9,0.4
		c-0.8,2-1.6,4-2.3,6c30.7,0.3,61.2,0.6,91.8,1C274.4,13.9,274.5,11.9,274.6,9.8z M57.7,20.3c-1.4,0.2-2.6,0.3-3.7,0.5
		c-0.5,0.1-1.1,0.4-1.4,0.8c-6.5,8.9-12.8,17.9-17.8,27.7c-7.5,14.8-12,30.3-12.6,46.9c-0.2,7.4-0.2,14.9-0.3,22.3
		c0,0.4,0,0.7,0,1.1c-0.1,1-0.6,1.6-1.7,1.6c-0.9-0.1-1.8-0.1-2.6-0.1c-2.5,0-4.9,0-7.4,0c-0.4,1.3-0.7,2.7-1.1,4.2
		c5.8,0.2,11.6,0.5,17.4,0.7c0-0.7,0-1.3,0-1.9c0-7.8-0.1-15.6,0-23.4c0.1-14.4,3.1-28.3,8.8-41.6c4.8-11.3,11.1-21.8,17.8-32
		C54.6,24.8,56.1,22.7,57.7,20.3z M574.8,97c0.1-0.1,0.2-0.2,0.3-0.3c-0.9-1.3-1.7-2.7-2.8-3.8c-2.9-3.2-6.8-4.9-10.8-6.3
		c-8.8-3.1-18-5.1-27.2-6.7c-13.4-2.4-26.9-4.6-40.4-6.8c-12.8-2.1-25.7-3.1-38.6-3.6c-3.6-0.2-6.7,0.9-9.7,2.9
		c6.6,0.7,13.2,1.3,19.8,2c10.1,1.1,20.3,2.1,30.3,3.5c11.7,1.6,23.4,3.4,35.1,5.2c6.3,1,12.5,2.1,18.7,3.4c2.6,0.5,5.2,1.6,7.8,2.3
		c4.3,1.2,7.7,3.7,10,7.7c0.2,0.3,0.6,0.6,0.9,0.6C570.5,97,572.6,97,574.8,97z M264.9,18.8c0.3,9.4-0.4,18.7-0.6,28
		c-0.2,9.3-0.6,18.7-0.9,28.2c3.3,0,6.4,0,9.6,0c0.4-18.7,0.7-37.3,1.1-56.1C270.9,18.8,267.8,18.8,264.9,18.8z M430.3,63.2
		c-0.5-0.4-0.9-0.6-1.3-0.9c-7.9-5.3-15.8-10.5-23.6-15.8c-13.8-9.3-27.8-18.2-42.2-26.5c-0.3-0.2-0.9-0.5-1.2-0.3
		c-1,0.6-2,1.2-3.1,2c1,0.7,1.7,1.3,2.5,1.8c18.6,12.3,36.6,25.6,53.7,39.9c2,1.7,4.4,3,6.7,4.4c0.3,0.2,0.9,0.3,1.2,0.1
		C425.4,66.4,427.8,64.9,430.3,63.2z M276.9,18.9c-0.4,18.8-0.8,37.4-1.1,56.2c2.7,0,5.2,0,7.7,0c0-0.5,0.1-0.9,0.1-1.4
		c0.1-3.2,0.2-6.4,0.3-9.6c0.3-10.7,0.6-21.4,0.9-32.1c0.1-4.4-0.1-8.8,0.8-13.2C282.7,18.9,279.9,18.9,276.9,18.9z M275.5,133.6
		c0,0.8,0,1.7,0,2.8c3,0,6.1,0,9.1,0c13.6,0.1,27.2,0.3,40.8,0.5c5.6,0.1,11.2,0.2,16.8,0.2c12.1,0.2,24.1,0.3,36.2,0.5
		c8.2,0.1,16.5,0.2,24.7,0.3c2.4,0,4.8,0.1,7.2,0.1c0.3,0,0.9-0.3,0.9-0.5c0.2-1.2,0.3-2.4,0.5-3.8
		C366.2,134.7,320.9,133.6,275.5,133.6z M190.7,179.6c0.5,2.1,0.9,4.1,1.4,6c0.3,1,1,1.7,2,1.8c1.3,0.1,2.5,0.2,3.8,0.2
		c73.3,0,146.6,0,220,0c0.6,0,1.3,0,1.9-0.1c1-0.1,1.7-0.7,1.9-1.6c0.4-2,0.7-4.1,1-6.2c-3.3,0-6.4,0-9.5,0c-0.3,0-0.6,0.4-0.7,0.6
		c-0.5,1-1.1,2-1.5,3c-1,2.3-2.6,3.2-5.2,3.2c-65.8,0-131.5,0-197.3,0c-0.5,0-1,0-1.6,0c-2.5,0.1-4.1-1.1-4.6-3.6
		c-0.2-1.1-0.4-2.2-0.5-3.3C198.2,179.6,194.6,179.6,190.7,179.6z M73.4,8.2c0.1,0.1,0.1,0.2,0.2,0.3c1.1-0.1,2.3-0.2,3.4-0.3
		c10-0.6,20.1-1.4,30.1-1.7c11.1-0.3,22.3-0.2,33.4-0.3c9-0.1,18.1-0.2,27.1-0.2c11-0.1,22-0.3,33-0.3c14.9,0,29.7,0.2,44.6,0.4
		c10.1,0.2,20.3,0.6,30.4,0.8c1.3,0,2.6,0,4.1,0c-0.6-0.7-1-1.3-1.5-1.7c-1.5-1.2-3.2-2-5.1-2.2c-7.9-0.8-15.8-0.7-23.7-0.2
		c-0.6,0-1.4,0.1-1.8,0.5c-1,1.1-2.2,1-3.4,1c-1.2,0-2.5-0.1-3.7-0.1C230,4.2,219.3,4,208.6,4c-18.6,0.1-37.2,0.3-55.9,0.5
		c-8.7,0.1-17.3,0.3-26,0.5c-8.4,0.2-16.8,0.6-25.1,0.8c-0.6,0-1.3-0.4-1.9-0.6c-0.8-0.3-1.6-0.9-2.4-0.9C92.6,4.1,87.8,4,83.1,4.1
		c-2.7,0-5.4,0.5-7.6,2.2C74.7,6.8,74.1,7.6,73.4,8.2z M21.4,79.6C25.4,57.9,36,39.3,49.2,21.7c-2.4,0.5-4.3,1-5.9,2.6
		c-5.7,6-10.4,12.6-14.6,19.7c-5.5,9.2-10.4,18.7-13.2,29.1c-0.6,2.1-1,4.2-1.5,6.5C16.5,79.6,18.8,79.6,21.4,79.6z M384.3,73.3
		c2.8-0.2,4.9-0.4,7-0.6c2.7-0.3,3.4-1.2,2.9-3.8c-0.4-1.7-1-3.3-1.7-4.8c-1.1-2.5-2.3-5-3.5-7.4c-0.6-1.1-1.6-1.7-2.8-1.7
		c-1.6-0.1-3.2-0.1-4.8-0.1c-1.4,0-2.8,0.1-4.2,0.3c-1.2,0.1-1.9,0.8-2.1,2c-0.6,4-1,8.1-0.3,12.1c0.3,2,1.5,3.2,3.4,3.5
		C380.4,73,382.7,73.1,384.3,73.3z M550.5,89.4c0,1.5,0,2.5,0,3.6c0,0.6,0.2,1,0.8,1.3c2.3,1.1,4.1,2.8,5.7,4.9
		c2.5,3.4,4,7.2,5.1,11.2c1.4,5.4,2.5,10.9,3.8,16.3c0.1,0.4,0.3,0.9,0.5,1c2.1,0.1,4.2,0.7,6.3-0.2c0.5-0.2,0.9-1,0.9-1.6
		c0.1-0.8-0.2-1.6-0.4-2.5c-1.7-7.6-3.6-15.1-6.5-22.4c-1.3-3.3-3-6.5-6.3-8.1C557.2,91.5,553.9,90.6,550.5,89.4z M20.9,82.4
		c-2.4,0-4.6,0-6.8,0c-0.2,0-0.6,0.5-0.6,0.8c-0.3,1.9-0.6,3.8-0.7,5.7c-0.5,6.6-0.9,13.2-1.4,19.8c-0.2,3.1-0.4,6.1-0.6,9.4
		c2.9,0,5.6,0,8.5,0C19.2,106.2,18.9,94.3,20.9,82.4z M203,133.5c0,0.1,0,0.1,0,0.2c0.7,0.2,1.3,0.6,2,0.7c3.4,0.4,6.9,1.1,10.3,1.1
		c12.7,0.3,25.5,0.4,38.2,0.5c4.6,0.1,9.1,0.2,13.7,0.2c1.8,0,3.6,0,5.3,0c0-0.9,0-1.7,0-2.7C249.3,133.5,226.1,133.5,203,133.5z
		 M177.3,20.9c-0.1-0.1-0.3-0.2-0.4-0.2c-0.8,1.4-1.8,2.8-2.5,4.3c-5.5,12.3-10.9,24.7-16.4,37c-1.4,3.2-2.8,6.4-4.2,9.5
		c-0.6,1.4-0.3,1.9,1.3,2c0.6,0,1.2,0,1.8,0c0.7,0.1,1-0.3,1.1-0.9c0.4-1.7,0.8-3.4,1.4-5c4.3-11.3,8.6-22.7,13-34
		C174,29.4,175.6,25.2,177.3,20.9z M551.1,97.3c-0.1,0.1-0.2,0.1-0.3,0.2c0.1,0.7,0.2,1.3,0.3,2c2.3,9.2,4.5,18.3,6.8,27.5
		c0.1,0.3,0.4,0.6,0.6,0.6c1.5,0.1,2.9,0,4.4,0c0-0.3,0-0.6-0.1-0.7c-1.3-5.4-2.4-10.9-3.8-16.3c-1-3.8-2.5-7.5-5.2-10.6
		C553.1,99,552.1,98.2,551.1,97.3z M581.8,130.6c0-0.1,0-0.2,0-0.3c-2.5-10.1-5.4-20.1-8.9-29.9c-0.1-0.2-0.5-0.5-0.7-0.5
		c-1-0.1-2,0-3,0c0.1,0.3,0.1,0.5,0.1,0.6c2.7,7.1,4.6,14.4,6.3,21.8c0.5,2.1,1.2,4.3,0.1,6.4C577.8,129.3,579.8,129.9,581.8,130.6z
		 M445.4,69.3c-3-1.9-5.7-3.6-8.5-5.2c-1-0.6-2-0.6-2.9,0c-1.4,0.9-2.9,1.9-4.3,2.8c-1.2,0.8-2.5,1.6-3.9,2.6
		C432.4,71.1,438.7,72,445.4,69.3z M309.3,8.5c0,0.1,0,0.2,0,0.2c3.6,0.3,7.2,0.6,10.9,0.8c6.9,0.5,13.8,1.3,20.6,2.8
		c6,1.3,11.8,3.1,17.5,5.3c0.4,0.2,0.9,0.2,1.4,0.3c0-0.1,0-0.2,0-0.3c-0.1-0.1-0.3-0.2-0.4-0.3c-7.7-3.5-15.6-6-24-7
		c-5.6-0.7-11.2-1-16.8-1.4C315.5,8.6,312.4,8.6,309.3,8.5z M40.5,18.1c0.5,0.3,1,0.6,1.5,0.9c1.3,0.9,1.7,0.8,3-0.1
		c2.2-1.6,4.5-3.2,6.9-4.6c1.8-1,3.8-1.7,5.8-2.6C52.8,11.5,43.8,14.7,40.5,18.1z M397,71.6c-1.1,3-3.5,3.6-5.9,3.8
		c-1.5,0.2-2.9,0.2-4.8,0.4c0.6,0.4,0.9,0.7,1.2,0.7c2.5,0,5,0.1,7.5-0.3c2.5-0.3,2.9-1.3,2.3-3.7C397.3,72.4,397.2,72.2,397,71.6z"
		/>
	<path d="M310.9,99.3c-0.2,0-0.5,0-0.7,0c-1.1-0.2-1.8,0.2-2.3,1.3c-1,2.2-3,3.4-5.5,3.5c-2.1,0.1-4.2,0-6.4,0
		c-2.8,0-4.9-1.3-6.1-3.9c-0.3-0.7-0.7-0.9-1.4-0.9c-2.1,0.1-4.2,0-6.2,0c-2,0-3.1-1.1-3.1-3.1c0-0.4,0-0.8,0-1.2c0.1-2,1.1-3,3.1-3
		c2.1,0,4.2,0,6.2,0.1c0.7,0,1.1-0.2,1.5-0.9c1.1-2.1,2.9-3.3,5.3-3.4c2.5-0.1,5.1-0.1,7.7,0.1c2.2,0.2,3.8,1.4,4.8,3.3
		c0.3,0.6,0.7,0.9,1.4,0.8c1.3,0,2.6,0,4,0.1c1.5,0.1,2.4,1.1,2.5,2.6c0,0.5,0,1,0,1.6c0,2-1,3-3,3.1
		C312.1,99.3,311.5,99.3,310.9,99.3z M282,96.4c10.4,0,20.6,0,30.8,0c0-0.6,0-1.1,0-1.6c-10.3,0-20.5,0-30.7,0
		C282,95.4,282,95.8,282,96.4z M305.4,99.4c-4.3,0-8.5,0-12.7,0c0.8,1.2,1.8,1.8,3,1.9c2.3,0.1,4.5,0.1,6.8,0
		C303.8,101.3,304.7,100.6,305.4,99.4z M292.9,92c4.1,0,8,0,11.9,0C303.2,89.7,294.8,89.7,292.9,92z"/>
	<path d="M170.8,90.4c0.4,0,0.9,0,1.3,0c1.7,0.2,3,0,4-1.8c0.8-1.5,2.5-2.3,4.2-2.4c2.6-0.1,5.3-0.2,7.9,0c2.2,0.2,3.9,1.5,5,3.5
		c0.2,0.3,0.7,0.7,1.1,0.7c1.3,0.1,2.6,0,3.8,0.1c1.6,0.1,2.6,1,2.8,2.6c0.1,0.6,0,1.2,0,1.8c-0.1,1.8-1.1,2.8-2.9,2.8
		c-0.4,0-0.7,0-1.1,0c-1.9-0.2-3.3,0-4.3,2.1c-1,2.2-3.4,2.8-5.9,2.7c-1.8,0-3.7-0.1-5.5-0.1c-2.8,0-4.8-1.3-6-3.8
		c-0.4-0.8-0.8-1-1.6-1c-1.9,0.1-3.8,0-5.8,0c-2.5,0-3.4-0.9-3.4-3.5c0-0.4,0-0.7,0-1.1c0.1-1.6,1-2.6,2.7-2.7
		C168.4,90.3,169.6,90.4,170.8,90.4C170.8,90.4,170.8,90.4,170.8,90.4z M198.1,93.2c-0.7,0-1.3-0.1-1.9-0.1
		c-5.8,0-11.6,0.1-17.4,0.1c-3.3,0-6.6,0-10,0c-1.7,0-1.8,0.1-1.4,1.7c10.2,0,20.4,0,30.6,0C198.1,94.3,198.1,93.8,198.1,93.2z
		 M190.7,97.8c-4.3,0-8.5,0-12.7,0c0.7,1.2,1.7,1.9,3,1.9c2.2,0.1,4.5,0.1,6.7,0C189,99.7,190.1,99.1,190.7,97.8z M190.3,90.4
		c-2.2-2.3-10.7-2.2-11.9,0C182.3,90.4,186.2,90.4,190.3,90.4z"/>
	<path d="M483.5,210.8c-19.7,0-35.4-15.8-35.4-35.6c0-19.7,15.9-35.5,35.8-35.2c21.1,0.3,35.5,17.6,35,36.1
		C518.4,196,502,211,483.5,210.8z M483.6,185.5c5.7,0,10.3-4.5,10.3-10.1c0-5.8-4.7-10.6-10.5-10.5c-5.5,0-10.1,4.7-10.1,10.2
		C473.3,180.9,477.8,185.5,483.6,185.5z M455.9,162.8c-0.2,0.5-0.5,0.9-0.6,1.4c-1.2,3-1.8,6.1-2.1,9.3c-0.2,1.8,0,2,1.9,1.8
		c0.1,0,0.2,0,0.2,0c3.8-0.5,7.5-1.1,11.3-1.6c0.9-0.1,1.7-0.2,1.9-1.4c0.2-1.1,0-1.9-1.1-2.5c-3.4-2-6.7-4.1-10-6.2
		C457,163.4,456.5,163.1,455.9,162.8z M502.3,151.3c-3.1-2.5-6.4-4.1-10.1-5.2c-1.4-0.4-1.5-0.4-1.7,1c-0.5,4.2-0.9,8.5-1.3,12.7
		c0,0.4,0.4,1,0.7,1.3c0.9,0.7,1.8,0.7,2.7-0.3c1.7-1.8,3.5-3.5,5.2-5.3C499.4,154.2,500.8,152.8,502.3,151.3z M503.1,198.5
		c0.4-0.4,0.9-0.6,1.2-1c1.9-2.4,3.9-4.7,5.7-7.2c1.1-1.5,0.9-1.9-0.9-2.5c-3.7-1.2-7.4-2.4-11-3.6c-0.9-0.3-1.6-0.5-2.3,0.4
		c-0.7,0.9-0.7,1.6-0.1,2.6c2.3,3.5,4.5,7,6.7,10.5C502.7,198,502.9,198.2,503.1,198.5z M477.2,204.9c3.9,0.9,7.6,0.9,11.4,0.3
		c1.5-0.3,1.6-0.3,1.1-1.8c-1.4-3.8-2.8-7.6-4.1-11.3c-0.3-0.8-0.7-1.3-1.7-1.3c-1,0-1.6,0.3-2,1.3c-1.1,3.2-2.3,6.5-3.5,9.7
		C478,202.7,477.6,203.7,477.2,204.9z M465,151.3c-0.1,0.2-0.1,0.3-0.2,0.5c0.4,0.2,0.8,0.4,1.1,0.7c2.9,2.8,5.8,5.5,8.6,8.3
		c0.6,0.6,1.1,1.1,2.1,0.6c1-0.5,1.5-1.1,1.3-2.3c-0.1-0.6-0.2-1.3-0.3-1.9c-0.4-3.5-0.8-7.1-1.1-10.6c-0.1-0.8-0.4-1.1-1.2-0.8
		c-2.8,1.3-5.6,2.5-8.4,3.8C466.2,150.1,465.6,150.8,465,151.3z M513.9,174.2c-0.1-4.5-1.2-8.6-3.1-12.5c-0.4,0.2-0.6,0.3-0.8,0.5
		c-3.6,2.4-7.1,4.8-10.7,7.2c-0.7,0.4-0.9,1-0.7,1.8c0.2,1.4,1.1,1.6,2.2,1.7c2.5,0.2,5,0.5,7.5,0.7
		C510.1,173.8,511.9,174,513.9,174.2z M456.3,188.5c1.7,3.5,3.8,6.4,6.5,8.9c1.2,1.1,1.4,1.1,2.2-0.3c2.2-3.4,4.3-6.9,6.5-10.3
		c0.5-0.7,0.6-1.3,0-2c-0.6-0.7-1.1-1.1-2.1-0.8c-4,1.4-8,2.6-12,4C457.1,188.1,456.8,188.3,456.3,188.5z M484,153
		c0-1.8,0-3.5,0-5.3c0-0.8,0-1.6,0-2.4c0-0.2-0.2-0.3-0.4-0.5c-0.1,0.2-0.3,0.3-0.4,0.5c-0.1,0.2-0.1,0.5-0.1,0.7c0,4.7,0,9.3,0,14
		c0,0.3,0.3,0.6,0.4,1c0.2-0.3,0.4-0.6,0.4-0.9C484.1,157.8,484,155.4,484,153z M470,179c0-0.1,0-0.3,0-0.4c-0.3,0-0.6-0.2-0.8-0.1
		c-1,0.2-2,0.5-3,0.8c-3.6,0.9-7.2,1.8-10.8,2.7c-0.4,0.1-0.9,0.3-1.3,0.5c0.1,0.2,0.1,0.4,0.2,0.5C459.5,181.6,464.7,180.3,470,179
		z M494.3,165.7c0,0.1,0.1,0.3,0.1,0.4c0.3-0.1,0.6-0.1,0.8-0.3c1.2-1,2.4-2,3.6-3c2.5-2.1,5-4.2,7.5-6.3c0.3-0.2,0.4-0.6,0.7-0.9
		c-0.1-0.1-0.3-0.2-0.4-0.3C502.5,158.8,498.4,162.3,494.3,165.7z M497.5,178.1c0.9,0.7,15.2,3.6,15.9,3.2
		C512.3,180.6,498.1,177.7,497.5,178.1z M472.7,166.2c-4.2-3.3-8.5-6.7-12.7-10C460,157.3,471.5,166.3,472.7,166.2z M512.2,185.9
		c0.1-0.4,0.3-0.8,0.5-1.4c-3.9-0.8-7.7-1.6-11.5-2.4c0,0.1,0,0.2-0.1,0.2C504.7,183.5,508.3,184.6,512.2,185.9z M467.6,201
		c1.7-3.5,3.3-6.9,5-10.3c-0.1,0-0.2-0.1-0.2-0.1c-2,3.2-4,6.4-6,9.6c0.2,0.2,0.4,0.3,0.6,0.5C467.1,200.7,467.3,200.8,467.6,201z
		 M477.7,188c-0.2-0.1-0.4-0.2-0.6-0.3c-2.4,4.8-4.6,9.8-7.1,14.6c0.2,0.1,0.4,0.2,0.5,0.3C472.9,197.8,475.3,192.9,477.7,188z
		 M466.9,166.3c0.1-0.1,0.1-0.1,0.2-0.2c-3-2.4-6.1-4.7-9.2-7.2c-0.3,0.5-0.5,0.9-0.7,1.3C460.4,162.3,463.7,164.3,466.9,166.3z
		 M496.6,202.6c0.2-0.1,0.4-0.2,0.6-0.3c-2.4-4.8-4.8-9.7-7.2-14.5c-0.2,0.1-0.3,0.2-0.5,0.2C491.9,192.9,494.3,197.7,496.6,202.6z
		 M479.1,145.2c0.4,3.9,0.8,7.8,1.2,11.6c0,0,0.1,0,0.1,0c0-3.9,0-7.7,0-11.7C479.9,145.1,479.5,145.2,479.1,145.2z M494.1,203.8
		c-1.7-3.6-3.4-7-5-10.4c-0.1,0-0.1,0-0.2,0.1c1.3,3.6,2.6,7.2,3.9,10.8C493.2,204.1,493.6,203.9,494.1,203.8z M478.1,194.1
		c-0.1,0-0.2-0.1-0.3-0.1c-1.5,3.2-3.1,6.5-4.7,9.8c0.5,0.2,0.9,0.3,1.3,0.4C475.7,200.8,476.9,197.4,478.1,194.1z M500.9,200.3
		c-1.9-3-3.7-5.9-5.5-8.7c-0.1,0-0.2,0.1-0.3,0.1c1.5,3.1,3.1,6.2,4.6,9.4C500.1,200.7,500.5,200.5,500.9,200.3z M508.7,158.2
		c-2.7,2.3-5.4,4.5-8,6.7c0.1,0.1,0.1,0.2,0.2,0.2c2.9-2,5.7-3.9,8.6-5.9C509.2,158.8,509,158.6,508.7,158.2z M504.1,176
		c0,0.1,0,0.2,0,0.3c3.2,0.7,6.4,1.4,9.7,2.1c0-0.5,0-0.9,0.1-1.3C510.6,176.7,507.3,176.3,504.1,176z M486.8,145.1
		c0,3.3,0,6.5,0,9.7c0,0,0.1,0,0.1,0c0.3-3.2,0.7-6.4,1-9.6C487.6,145.1,487.3,145.1,486.8,145.1z M462.7,153.1
		c-0.3,0.3-0.6,0.6-0.9,0.9c2.4,1.9,4.7,3.7,7,5.6c0,0,0.1-0.1,0.1-0.1C466.9,157.4,464.8,155.3,462.7,153.1z M453.5,179.5
		c3.2-0.8,6.2-1.5,9.2-2.2c0-0.1,0-0.2,0-0.3c-3.1,0.4-6.1,0.9-9.2,1.3C453.4,178.7,453.4,179,453.5,179.5z"/>
	<path d="M132.2,210.8c-19.6,0-35.4-15.8-35.4-35.3c0-19.9,15.7-35.8,35.8-35.5c21.2,0.3,35.3,17.5,35.1,35.7
		C167.5,194.9,151.6,210.8,132.2,210.8z M142.5,175.6c0.4-5.5-4-10.3-10-10.7c-5.2-0.4-10.1,4.1-10.5,9.4
		c-0.4,5.8,3.7,10.7,9.3,11.2C137.1,186,142.7,181.3,142.5,175.6z M104.4,162.8c-1.7,3.9-2.6,7.8-2.7,11.8c0,0.2,0.5,0.6,0.8,0.7
		c0.4,0.1,0.8,0,1.2-0.1c3.8-0.5,7.6-1.1,11.5-1.6c1.1-0.1,1.7-0.5,1.9-1.7c0.2-1.1-0.3-1.6-1.1-2.1c-3.4-2.1-6.8-4.2-10.2-6.3
		C105.5,163.3,105,163.1,104.4,162.8z M151,151.4c-3.2-2.5-6.5-4.2-10.1-5.3c-1.5-0.5-1.6-0.4-1.8,1.2c-0.4,4-0.8,8-1.2,11.9
		c-0.1,1-0.1,1.7,0.9,2.2c1,0.5,1.8,0.3,2.5-0.5c2.2-2.2,4.4-4.4,6.5-6.5C148.8,153.4,149.9,152.4,151,151.4z M104.8,188.5
		c1.8,3.5,3.9,6.5,6.6,8.9c1.2,1.1,1.4,1,2.3-0.3c2.2-3.5,4.3-6.9,6.5-10.3c0.5-0.8,0.5-1.3-0.1-2c-0.6-0.7-1.1-1.1-2-0.7
		c-3.9,1.3-7.8,2.6-11.7,3.9C105.9,188,105.5,188.2,104.8,188.5z M138.7,204.9c-0.2-0.7-0.3-1.2-0.5-1.7c-1.4-3.7-2.7-7.5-4.1-11.2
		c-0.3-0.9-0.8-1.2-1.7-1.3c-1,0-1.6,0.3-1.9,1.2c-1.5,4.1-2.9,8.2-4.4,12.3c-0.1,0.2-0.1,0.4-0.1,0.6
		C130.2,205.9,134.3,205.8,138.7,204.9z M113.5,151.3c0.5,0.5,0.8,0.9,1.1,1.2c2.9,2.8,5.9,5.6,8.8,8.5c0.6,0.6,1.1,0.9,2,0.5
		c0.9-0.4,1.4-1,1.2-2.1c-0.5-4.2-0.9-8.3-1.4-12.5c0-0.4-0.2-0.7-0.3-1.2C120.7,146.9,116.8,148.4,113.5,151.3z M151.7,198.6
		c3.4-2.9,6-6.1,7.8-10c-0.7-0.3-1.1-0.6-1.7-0.8c-3.8-1.2-7.6-2.4-11.4-3.7c-0.9-0.3-1.5-0.1-2.1,0.6c-0.6,0.8-0.7,1.4-0.1,2.3
		c1.6,2.3,3.1,4.7,4.6,7C149.8,195.5,150.7,196.9,151.7,198.6z M159.4,161.8c-0.3,0.2-0.6,0.3-0.8,0.4c-3.6,2.4-7.2,4.9-10.8,7.3
		c-0.6,0.4-0.8,0.9-0.7,1.7c0.2,1.4,1.2,1.6,2.3,1.8c3.2,0.3,6.4,0.6,9.6,0.9c1.1,0.1,2.3,0.2,3.5,0.3
		C162.3,169.7,161.4,165.7,159.4,161.8z M142.8,165.7c0,0.2,0.1,0.3,0.1,0.5c0.3-0.1,0.7-0.2,0.9-0.4c1.2-1,2.3-2,3.5-3
		c2.4-2,4.9-4,7.3-6.1c0.3-0.3,0.6-0.8,0.8-1.1c-0.4,0.2-0.9,0.3-1.2,0.5c-1,0.8-1.9,1.6-2.9,2.4C148.5,161,145.7,163.3,142.8,165.7
		z M118.8,178.9c-0.5-0.3-0.7-0.6-0.8-0.6c-5.2,1.3-10.3,2.6-15.4,3.9c0.1,0.2,0.1,0.4,0.2,0.7C108,181.6,113.3,180.3,118.8,178.9z
		 M132.6,144.9c-0.1,0-0.3-0.1-0.4-0.1c-0.1,0.3-0.3,0.6-0.3,0.9c0,4.8,0,9.6-0.1,14.4c0,0.2,0,0.3,0,0.5c0.1,0.2,0.3,0.3,0.4,0.5
		c0.1-0.2,0.3-0.3,0.3-0.5c0.1-0.2,0-0.4,0-0.6c0-4.7,0-9.3,0-14C132.7,145.6,132.6,145.2,132.6,144.9z M161.9,181.6
		c0-0.1,0.1-0.3,0.1-0.4c-0.3-0.1-0.5-0.3-0.8-0.3c-4.1-0.9-8.2-1.8-12.3-2.6c-0.7-0.1-1.3-0.3-2-0.4c-0.3,0-0.5,0.1-0.8,0.2
		c0.2,0.2,0.5,0.4,0.7,0.6c0.1,0,0.2,0,0.2,0.1c4.5,0.9,9,1.9,13.4,2.8C160.9,181.6,161.4,181.6,161.9,181.6z M107.9,156.5
		c4.5,3.5,8.7,6.8,13,10.1c0.1-0.1,0.1-0.2,0.2-0.3C120.5,165.3,108.9,156.4,107.9,156.5z M127.1,193.2c-0.1-0.1-0.1-0.1-0.2-0.2
		c-1.7,3.6-3.4,7.1-5.2,10.8c0.6,0.2,1,0.3,1.4,0.4C124.5,200.5,125.8,196.8,127.1,193.2z M105.7,160.2c3.4,2.1,6.6,4.1,9.8,6.1
		c0-0.1,0.1-0.1,0.1-0.2c-3-2.4-6.1-4.8-9.2-7.2C106.1,159.4,105.9,159.8,105.7,160.2z M126.4,187.7c-1,0.5-7.4,13.4-7.4,14.8
		C121.5,197.8,123.9,192.9,126.4,187.7z M138.6,187.8c-0.2,0.1-0.3,0.2-0.5,0.3c2.4,4.9,4.7,9.7,7.1,14.6c0.2-0.1,0.4-0.2,0.6-0.3
		C143.4,197.5,141,192.6,138.6,187.8z M161.3,184.5c-3.6-0.8-7.2-1.5-10.7-2.3c0,0.1,0,0.2-0.1,0.3c3.4,1.1,6.8,2.2,10.2,3.4
		C160.9,185.5,161.1,185,161.3,184.5z M143.6,190.9c-0.1,0.1-0.2,0.1-0.3,0.2c1.6,3.3,3.2,6.5,4.9,9.9c0.4-0.3,0.8-0.5,1.2-0.8
		C147.5,197.1,145.6,194,143.6,190.9z M116.2,201c1.6-3.2,3.1-6.3,4.6-9.4c-0.1,0-0.2-0.1-0.3-0.1c-1.8,2.9-3.6,5.8-5.5,8.8
		C115.3,200.5,115.7,200.7,116.2,201z M157.3,158.2c-2.9,2.4-5.6,4.7-8.3,6.9c0.1,0.1,0.1,0.1,0.2,0.2c2.9-2,5.9-4,8.9-6.1
		C157.8,158.9,157.6,158.6,157.3,158.2z M142.7,203.7c-1.6-3.2-3.1-6.3-4.6-9.4c-0.1,0-0.1,0.1-0.2,0.1c1.2,3.3,2.4,6.5,3.6,9.8
		C141.9,204.1,142.2,203.9,142.7,203.7z M110.3,154c2.8,2.2,5.4,4.2,8,6.3c0,0,0,0,0-0.1c-2.3-2.4-4.6-4.8-6.9-7.2
		C111,153.4,110.7,153.6,110.3,154z M162.5,177c-3.4-0.4-6.6-0.7-9.9-1c0,0.1,0,0.2,0,0.3c3.2,0.7,6.5,1.4,9.8,2.1
		C162.4,177.8,162.5,177.5,162.5,177z M127.7,145.2c0.4,3.6,0.7,7.1,1.1,10.5c0.1,0,0.1,0,0.2,0c0-3.5,0-7,0-10.5
		C128.6,145.2,128.3,145.2,127.7,145.2z M102.1,179.5c3.1-0.8,6.1-1.5,9.1-2.2c0-0.1,0-0.2-0.1-0.3c-3,0.4-6.1,0.9-9.2,1.3
		C102,178.7,102,179,102.1,179.5z M135.5,153.4c0,0,0.1,0,0.1,0c0.3-2.7,0.6-5.4,0.9-8.2c-0.3,0-0.6,0-1-0.1
		C135.5,147.9,135.5,150.7,135.5,153.4z"/>
	<path d="M575.4,159.6c2.2,0,4.4,0,6.6,0c4.6,0,6.8,3,5.5,7.4c-0.6,2.2-1.3,4.4-1.9,6.7c-0.9,3-2.2,4-5.3,4.1
		c-3.2,0.1-6.4,0.1-9.6,0.1c-2.9,0-4.8-1.5-5.3-4.4c-0.5-2.8-1-5.7-1.4-8.5c-0.5-3.2,1.5-5.3,4.7-5.4
		C570.9,159.6,573.1,159.6,575.4,159.6z M582.3,162.4c-0.5,0-0.9-0.1-1.2-0.1c-4.3,0-8.6,0-12.9,0c-1,0-1.7,0.9-1.5,1.9
		c0.4,2.5,0.8,4.9,1.2,7.2c3.7,0,7.2,0,10.8,0c0.4,0,1.2-0.5,1.3-0.9C580.8,167.9,581.5,165.2,582.3,162.4z M585.1,164.2
		c-0.1,0-0.2-0.1-0.4-0.1c-0.1,0.4-0.3,0.8-0.4,1.2c-0.5,1.8-1,3.7-1.6,5.5c-0.7,2.3-2.2,3.5-4.7,3.5c-2.4,0-4.9,0-7.3,0.1
		c-0.5,0-0.9,0.1-1.4,0.2c0,0.1,0,0.2,0,0.3c0.5,0.1,1,0.2,1.5,0.2c3.2,0,6.4-0.1,9.6-0.2c1.2,0,1.9-0.5,2.2-1.7
		c0.7-2.5,1.5-5.1,2.2-7.6C585.1,165.2,585,164.7,585.1,164.2z"/>
	<path d="M483.5,182.4c-4,0-7.2-3.2-7.1-7.1c0-4.1,3.3-7.3,7.3-7.2c3.9,0,7.1,3.3,7.1,7.1C490.8,179.1,487.6,182.4,483.5,182.4z
		 M483.7,170.8c-2.5,0-4.5,1.9-4.6,4.4c-0.1,2.3,2.1,4.5,4.4,4.4c2.5-0.1,4.3-1.6,4.5-4.6C488.2,172.9,486,170.8,483.7,170.8z"/>
	<path d="M132.1,182.4c-4,0-7.2-3.2-7.2-7.1c0-4.1,3.3-7.3,7.3-7.3c3.9,0,7.1,3.3,7.1,7.2C139.4,179.2,136.1,182.4,132.1,182.4z
		 M132.2,170.8c-2.5,0-4.5,2-4.5,4.5c0,2.3,2,4.4,4.4,4.3c2.7-0.1,4.4-1.9,4.5-4.7C136.7,172.7,134.5,170.8,132.2,170.8z"/>
</g>
</svg>
