<?xml version="1.0" encoding="utf-8"?>
<!-- Generator: Adobe Illustrator 27.4.0, SVG Export Plug-In . SVG Version: 6.00 Build 0)  -->
<svg version="1.1" id="Layer_1" xmlns="http://www.w3.org/2000/svg" xmlns:xlink="http://www.w3.org/1999/xlink" x="0px" y="0px"
	 viewBox="0 0 575 224.2" style="enable-background:new 0 0 575 224.2;" xml:space="preserve">
<g>
	<path d="M421.1,184.3c-2.8,0-5.5,0-8.1,0c-0.3,0-0.6,0.2-0.8,0.4c-0.9,1-2.1,1.2-3.4,1.2c-10.8-0.1-21.6-0.3-32.4-0.4
		c-8.2-0.1-16.3-0.2-24.5-0.3c-11.4-0.1-22.8-0.3-34.2-0.4c-12.1-0.2-24.1-0.3-36.2-0.5c-8.6-0.1-17.3-0.2-25.9-0.3
		c-10.7-0.1-21.4-0.3-32.1-0.4c-12.3-0.2-24.5-0.3-36.8-0.5c-4-0.1-8.1-0.1-12.1-0.2c-1.2,0-2.4-0.3-3.2-1.3
		c-0.2-0.2-0.5-0.4-0.8-0.4c-1.7-0.1-3.4,0-5-0.1c-0.7,0-0.8,0.3-1,0.9c-0.8,4.6-1.8,9.2-3.8,13.4c-7.3,15.7-19.5,25.3-36.6,28.1
		c-25.3,4.1-49.6-13.4-53.9-38.6c-0.4-2.5-0.6-5.1-1-7.9c-1.8-0.1-3.8-0.3-5.7-0.4c-0.2,0-0.5,0.1-0.6,0.3c-1.2,1.4-2.7,1.4-4.3,1.1
		c-13.4-2.2-26.9-4-39.9-7.9c-3.7-1.1-7.3-2.6-10.8-4.1c-4.7-2.1-7-6-7.7-11.1c-0.9-7,0.2-13.9,1.8-20.6c0.5-2.2,1.7-4.2,2.9-6.1
		c2.2-3.4,3.5-7.1,3.5-11.1c0-1,0.1-2.1,0.5-3c1.6-3.9,1.2-7.8,0.6-11.8c-1.1-7.5-2-15.1-1.8-22.8c0.1-4.4,1-8.4,3.8-12
		c1.7-2.2,3-4.7,4.8-6.8c4.5-5.3,8.8-10.7,13.7-15.7c7.7-7.8,15.8-15.1,23.7-22.7c0.2-0.2,0.4-0.4,0.4-0.4c-1.7-1.2-3.4-2.3-5.1-3.5
		c-0.2-0.2-0.4-0.4-0.6-0.6c-2-2.6-1.2-4.9,2-5.3c7.4-1,14.7-2.1,22.1-2.9c8-0.9,16-1.5,24-2.1c3.4-0.2,6.4-0.9,9.3-2.8
		c2.9-1.9,6.4-2.4,9.9-2.6c7.5-0.5,15-0.9,22.5-1.3c25.8-1.1,51.5-1,77.3-0.9c10.9,0.1,21.8,0.4,32.7,0.9
		c13.4,0.6,26.8,1.6,40.2,2.4c9.4,0.6,18,3.6,25.4,9.4c0.4,0.3,0.8,0.5,1.3,0.6c8.6,2.6,17,5.8,25.1,9.6c4.9,2.3,10,4.2,14.9,6.6
		c20.5,10.4,40.7,21.4,60.7,32.8c4.5,2.6,8.9,5.1,13.4,7.6c0.5,0.3,1.1,0.4,1.6,0.4c8.5-0.6,16.9-0.2,25.4,0.8
		c7.3,0.8,14.6,1.5,21.9,2.5c11.5,1.7,22.9,3.4,34.3,5.4c9.6,1.7,19.1,3.9,28.2,7.6c5.6,2.3,10.4,5.7,14.6,10
		c0.6,0.6,0.9,1.6,1.3,2.3c0.2,0.3,0.3,0.6,0.6,0.7c1.4,0.5,2.4,1.6,3.1,2.9c2.7,5.1,5.4,10.1,7.9,15.3c0.9,1.9,1.6,3.8,2.8,5.6
		c1.9,2.9,2.7,6.4,3.1,9.9c0.5,3.9,0.9,7.8,0.9,11.7c0,2.3-0.6,4.7-1.4,7c-0.7,2.1-1.1,4.1-0.7,6.2c0.5,3.3,0,6.3-2,9
		c-0.2,0.3-0.2,0.8-0.1,1.1c2.4,4.5,1.8,7.8-2.1,11.2c-2.3,2-5.2,3.1-8.1,4.1c-6.5,2.3-13.3,3.3-20.2,3.7c-4.9,0.3-9.8,0.4-14.7,0.5
		c-2.6,0.1-3.7-0.9-4.2-3.6c-2,0-3.9,0-5.9,0c-0.2,0-0.6,0.6-0.6,0.9c-1.7,8.6-5.4,16.2-11.2,22.7c-8.5,9.5-19.1,14.9-32,16
		c-22.9,1.9-45.1-13.3-50.3-37.8C421.3,185.6,421.2,185,421.1,184.3z M199,18.9c-1.2,0-2.4,0-3.6,0c-9.6,0.3-19.3,0.7-28.9,1
		c-1.7,0.1-3.3,0.2-5,0.3c1,0.1,2.1,0.2,3.1,0.1c11.2-0.4,22.5-0.8,33.7-1.2C198.5,19.1,198.7,19,199,18.9c1.2,0,2.4,0.1,3.5,0.1
		c2.9,0,5.9,0,8.8,0c-3.1-0.3-6.3-0.3-9.4-0.2C200.9,18.7,199.9,18.8,199,18.9z M553.6,98.8c-0.2-0.3-0.2-0.4-0.3-0.5
		c-3.4-3.4-7.1-6.5-11.6-8.3c-3.5-1.4-7-2.9-10.7-3.9c-16.1-4.6-32.5-7.2-49-9.3c-10.5-1.4-20.9-2.5-31.4-3.5
		c-5-0.5-10.1-0.4-15.2-0.4c-4,0-8,0.6-11.9-0.5c-3.6-1.1-7.2-2.4-10.6-4.1c-11.8-6.2-23.5-12.5-35.1-18.8
		c-15.4-8.4-30.4-17.5-46.6-24.4c-6.5-2.8-13.1-5.3-19.9-7.1c-9.4-2.5-19-3.9-28.6-5.4c-13.9-2.1-27.9-3.2-42-3.2
		c-9.6,0-19.1,0.1-28.7,0.2c-9.8,0.1-19.6,0.2-29.4,0.4c-8.3,0.2-16.7,0.4-25,0.7c-13.5,0.5-27,1.1-40.5,1.7
		c-9.7,0.5-19.4,1.1-29.1,1.6c-9.4,0.6-18.9,1.2-28.3,1.8c-3,0.2-6,0.4-8.9,0.6c-0.1,0.1-0.1,0.3-0.2,0.4c1,0.7,2,1.6,3.1,2
		c1.6,0.6,3.4,0.9,5.1,1.3c4.5,1,9.1,1.9,13.6,3.1c2.2,0.6,2.7,2.4,1.1,4.1c-1.1,1.3-2.5,2.4-3.8,3.5C61.8,37.8,53.7,45,45.6,52.1
		c-0.8,0.7-0.8,1.4,0,2.1c0.2,0.2,0.4,0.4,0.6,0.6c4.7,4,9.4,7.9,14.1,11.9c1.9,1.6,3.8,3.3,5.5,5.1c1.8,1.9,1.7,3.5-0.3,5.1
		c-3,2.4-6,4.6-9.1,6.8c-2,1.4-4.4,2.4-6.9,2.6c-3.8,0.2-7.7,0.4-11.5,0.1c-4.8-0.3-9.5-1-14.3-1.6c-4.5-0.6-9.1-1-13.2-3.2
		c0,0-0.1,0-0.3,0.1c0,0.4,0,0.8,0,1.3c0.6,6.1,1.1,12.2,1.7,18.2c0.3,3.1,1.2,6.2,0.6,9.4c-0.3,1.3-0.7,2.6-1,4
		c0.4,0.1,0.8,0.2,1.1,0.3c11.2,2,22.4,4,33.6,5.9c9.1,1.5,18.2,2.8,27.4,4.2c0.4,0.1,1.1,0,1.4-0.3c3.9-3.3,8.3-5.6,13-7.5
		c10.6-4.1,21.6-6.1,33-5.2c2.6,0.2,5.2,0.5,7.9,0.8c-0.1-0.3-0.1-0.5-0.2-0.8c-2.2-7.8-4.3-15.5-5.2-23.6c-0.4-3.3-0.6-6.7-0.4-10
		c0.3-4.8,2.4-9.1,4.4-13.4c0.4-0.8,0.8-1.6,1.1-2.4c-0.2-0.1-0.3-0.2-0.4-0.2c-7.7-3.4-15.5-6.7-23.2-10.2
		c-4.2-1.9-8.3-4.1-12.4-6.3c-1.8-1-3-2.6-2.9-4.9c0.1-2.1,1.3-3.6,2.7-4.9c3.7-3.4,7.4-6.7,11.2-10c4.2-3.5,8.9-5.8,14.4-6
		c12.6-0.6,25.3-1.3,37.9-1.9c12.6-0.6,25.3-1.2,37.9-1.6c10.2-0.3,20.5-0.4,30.7-0.3c9.7,0,19.3,0.2,29,0.5
		c11.9,0.3,23.9,0.9,35.7,2.4c7.7,0.9,15.2,2.3,22.6,4.7c10.5,3.4,20.4,8.3,30.1,13.5c10.2,5.6,20.2,11.6,30.3,17.4
		c0.5,0.3,1,0.5,1.5,0.6c2.9,0.2,5.6,0.8,8.2,1.9c2.9,1.2,5,3.2,6.1,6.2c0.2,0.6,0.7,1.3,1.2,1.6c4.8,3.2,9.7,6.4,14.5,9.6
		c0.4,0.3,0.9,0.6,1.2,1c2.9,3.7,4.6,7.8,5.4,12.4c1.7,9.6,2.2,19.3,1.9,29c-0.5,14-2.8,27.9-5.4,41.6c-0.5,2.8-1.1,5.7-1.7,8.6
		c0.7,0,1.4,0,2.1,0c-0.1-0.1-0.2-0.1-0.3-0.2c1.6-6.2,2.9-12.5,4.8-18.6c4.2-14,12.6-24.6,26.1-30.7c18.2-8.3,36.7-9.6,55.7-2.6
		c8.1,3,15.3,7.4,21.2,13.8c8.4,9.3,12.6,20.5,14.5,32.7c0.3,1.9,0.5,3.8,0.7,5.8c0.8,0,1.4,0,2,0c3.3-0.1,6.5-0.2,9.8-0.2
		c8.6-0.2,17.3-0.3,25.9-0.5c0.3,0,0.7-0.3,0.9-0.5c1.4-1.9,2.2-4,1.7-6.5c-0.6-3.1-0.2-6,1.1-8.9c0.6-1.4,0.9-3,1-4.5
		c0.2-5.4-0.5-10.7-1.7-16c-1-4.4-3.4-7.5-7.6-9.4c-5.3-2.4-10.9-3.9-16.5-5.2c-4.9-1.1-9.9-2.2-14.5-4.4c-6-2.8-10.7-7.4-15.6-11.8
		c-0.6-0.5-0.7-1.8-0.7-2.7c0.1-1.1,1.2-1.6,2.2-1.7c1.5-0.1,3.1-0.1,4.7,0.1c8.7,1.1,17.4,2.3,26.1,3.4
		C550.4,98.4,551.9,98.6,553.6,98.8z M260.4,74.9c0,0.4,0,0.6,0,0.8c0.3,2.9,0.7,5.8,1,8.7c1.2,9.8,1.9,19.6,2,29.5
		c0.1,10.6,0.4,21.2,0.5,31.7c0.1,4.2,0.3,8.5,0.2,12.7c0,2-0.6,4.1-1,6.4c3.7,0,7.4,0,11.1,0c9,0.1,18.1,0.3,27.1,0.5
		c13.1,0.2,26.3,0.5,39.4,0.7c8.1,0.2,16.3,0.3,24.4,0.5c11.9,0.2,23.7,0.4,35.6,0.6c2.2,0,1.8,0.2,2.2-1.8c3-14.5,5.5-29,6.6-43.8
		c0.8-11,0.3-21.9-1.5-32.7c-0.6-3.8-1.9-7.3-4.2-10.5c-0.3-0.3-0.8-0.7-1.2-0.7c-3,0.3-6,0.7-8.9,0.9c-6.8,0.6-13.5,1.2-20.3,1.5
		c-11,0.4-22-0.2-33.1-0.8c-13.9-0.8-27.8-1.5-41.6-2.2C286.1,76.3,273.3,75.6,260.4,74.9z M130.9,63.5c-1.4,3.5-3,7.1-4.3,10.8
		c-1.3,3.5-1.3,7.1-0.9,10.8c1,9.4,3.3,18.5,6,27.6c0.1,0.4,0.7,0.9,1.1,1c3.6,1.2,7.4,2.1,11,3.4c9,3.3,16.2,8.8,21.4,16.9
		c5.6,8.6,9.5,17.9,11.5,27.9c0.1,0.7,0.3,0.9,1.1,0.9c8.3,0.1,16.6,0.3,24.9,0.4c6.5,0.1,12.9,0.2,19.4,0.3
		c12.5,0.3,25,0.5,37.5,0.8c0.7,0,1-0.2,1.2-0.9c1.1-3.6,1.2-7.3,1.1-11c-0.3-10.7-0.6-21.5-0.8-32.2c-0.1-5.9,0-11.9-0.4-17.8
		c-0.5-7-1.3-14.1-2-21.1c-0.2-2.2-0.5-4.3-0.8-6.5c-0.5-0.1-0.8-0.1-1.1-0.1c-4-0.2-8-0.4-12-0.6c-14.6-0.8-29.3-1.6-43.9-2.4
		c-12.4-0.7-24.7-1.3-37.1-2.2c-6-0.4-11.9-1.1-17.8-2.1C141,66.4,136.1,64.8,130.9,63.5z M2.5,150.2c0.1,1.4,0.2,2.6,0.3,3.8
		c0.4,4.7,2.5,8.3,7,10.2c3.5,1.4,7.1,2.9,10.8,3.9c12.7,3.7,25.8,5.4,38.8,7.6c1.7,0.3,2,0,2.2-1.7c0.2-1.9,0.3-3.8,0.5-5.7
		c0.8-7.9,2.3-15.7,5.3-23.1c3.9-9.8,10.1-17.4,19.8-21.8c17.4-7.9,35.2-8.4,53.2-2.1c9.2,3.2,16.5,8.9,21.5,17.4
		c2.7,4.7,5.1,9.6,6.8,14.8c2.6,7.7,3.8,15.6,4.4,23.7c0.3,4,0.2,3.3,3.7,3.4c12.4,0.2,24.9,0.4,37.3,0.5
		c12.6,0.2,25.2,0.3,37.8,0.5c11.5,0.1,23,0.3,34.5,0.4c7.6,0.1,15.2,0.2,22.8,0.3c12.5,0.2,25.1,0.3,37.6,0.5
		c6.9,0.1,13.7,0.2,20.6,0.2c13.8,0.2,27.7,0.3,41.5,0.5c1.1,0,1.7-0.4,1.9-1.5c0.5-3.7,1.1-7.4,1.7-11.1c1.2-7.7,2.7-15.4,5.3-22.8
		c3.4-9.9,9-18,18.2-23.2c13.8-7.8,28.5-10.5,44.1-7.9c8.7,1.5,16.9,4.6,24.1,9.8c8.6,6.3,13.8,14.9,16.9,24.9
		c3.3,10.5,3.2,21.2,3.2,32c0,1.5,0.1,1.8,1.6,1.8c3.7-0.1,7.4-0.1,11.1-0.2c7.3-0.3,14.6-1.1,21.6-3.4c3.1-1,6.2-2,8.7-4.2
		c2.7-2.3,3.2-4.7,1.6-7.5c-0.4-0.8-1-1.1-1.9-1.1c-9.3,0.2-18.6,0.4-27.9,0.6c-3.3,0.1-6.6,0.3-9.9,0.4c-1,0-1.7-0.7-1.7-1.7
		c0-0.7,0.1-1.4,0-2.1c-0.5-5.3-1.5-10.4-3.1-15.5c-4.6-14.2-13.1-25.1-26.9-31.4c-17.8-8.2-35.8-8.2-53.9-1.3
		c-8.4,3.2-15.8,8-21.3,15.3c-4.6,6-7.3,12.8-9.2,20c-1.3,4.9-2.1,9.8-3.1,14.7c-0.3,1.4-0.7,1.8-2.2,1.8c-0.8,0-1.5-0.1-2.3-0.1
		c-0.4,0-0.9,0.4-1,0.7c-0.5,1.1-0.8,2.2-1.3,3.3c-0.7,1.5-1.9,2.5-3.6,2.7c-1.4,0.1-2.9,0.1-4.3,0.1c-10-0.1-20-0.2-30-0.3
		c-7.5-0.1-14.9-0.2-22.4-0.2c-10.3-0.1-20.5-0.2-30.8-0.2c-9.6-0.1-19.2-0.2-28.8-0.2c-9.3-0.1-18.5-0.2-27.8-0.2
		c-8-0.1-16-0.2-24-0.2c-9.6-0.1-19.1-0.2-28.7-0.2c-7.2-0.1-14.5-0.1-21.7-0.2c-2.3,0-4-1-4.9-3.1c-0.5-1.3-1-2.6-1.2-4
		c-1.2-8.9-4-17.4-8.2-25.4c-3.1-5.9-6.7-11.5-12-15.7c-6.4-5.1-13.8-7.9-21.6-9.8c-0.3-0.1-0.7,0.2-1,0.4c-0.8,0.7-1.8,0.7-2.1-0.2
		c-0.3-1-1-1.1-1.8-1.2c-13.2-2.4-26.1-0.8-38.6,3.8c-12.4,4.6-20.9,13.1-25.7,25.3c-2,5-3.3,10.2-4.3,15.4
		c-0.3,1.4-0.6,1.7-2.1,1.4c-1.4-0.2-2.8-0.5-4.1-0.7c-13.6-2.7-27.2-5.4-40.8-8.1C9.4,151.8,6.1,151,2.5,150.2z M243.1,21.4
		c-2.4,0-4.7,0-7,0c-13.1,0.1-26.1,0-39.2,0.3c-12,0.3-23.9,0.9-35.9,1.3c-0.8,0-1.2,0.3-1.5,1c-1.3,3-2.6,6-3.9,9
		c-0.2,0.5-0.3,1.1-0.3,1.6c0.4,9.4,0.9,18.9,1.3,28.3c0,0.8,0.2,1.2,1.1,1.3c8.3,0.5,16.7,1.2,25,1.7c10,0.6,19.9,1,29.9,1.6
		c9.3,0.5,18.6,1,27.9,1.5c2.2,0.1,4.4,0.2,6.6,0.3C245.7,53.4,244.4,37.5,243.1,21.4z M366.7,57.4c-0.2-0.2-0.4-0.3-0.6-0.4
		c-13.5-8.4-27.5-16.1-41.9-22.9c-11-5.2-22.5-8.6-34.6-9.9c-7.3-0.8-14.6-1.3-21.8-1.8c-1.7-0.1-3.5,0-5.3,0
		c3.1,16.1,6.1,32.2,9.2,48.3c0.3,0,0.5,0.1,0.7,0.1c4.5,0.2,9.1,0.5,13.6,0.7c10.1,0.5,20.3,1.1,30.4,1.6
		c8.2,0.4,16.4,0.9,24.6,1.3c8.5,0.4,17,0.7,25.5,1c2,0.1,3.9,0,5.9,0c-1.3-0.4-2.6-0.6-3.9-0.9c-2-0.4-3.3-1.6-3.6-3.7
		c-0.2-1.9-0.4-3.7-0.3-5.6C364.9,62.6,365.1,59.8,366.7,57.4z M468.3,131.2c-24.9,0-45.3,20.5-45.3,45.4
		c0.1,25.6,20.6,44.4,43.9,45c23.2,0.6,46-17.4,46.5-45.3C513.9,151.5,493.1,131.2,468.3,131.2z M72.1,176.6
		c0.2,24.8,19.6,43.9,43.1,45c23.7,1.1,45.9-16.9,47.3-43.9c1.2-24.3-18.3-46-44.3-46.5C92.7,130.8,72.3,151,72.1,176.6z M2.4,147.5
		c18.3,4.6,36.6,8,55,11.3c2.3-11.7,6-22.6,14.5-31.3c-20.4-3.4-40.7-6.7-60.9-10.1c-0.2,1.5-0.2,3-0.5,4.5
		c-0.5,2.9-2.1,5.4-3.5,7.9c-1.1,2-2.3,4.1-2.8,6.3C3.4,139.8,3,143.6,2.4,147.5z M420.7,181.7c-1.1-13.9,2.6-26.2,11.7-36.7
		c9.2-10.5,20.9-15.9,34.7-16.3c12.5-0.4,23.5,3.6,32.8,12c12.1,10.9,17.2,24.7,15.8,40.9c2,0,3.9,0,5.8,0c0-3,0-5.9,0-8.8
		c-0.1-7.5-1.1-14.9-3.5-22c-4-12.1-11.4-21.2-23.1-26.6c-17.4-8-34.9-7.6-52.4-0.1c-10.9,4.6-18.4,12.5-22.2,23.7
		c-1.8,5.3-3.1,10.8-4.3,16.3c-1.2,5.8-2,11.6-2.9,17.5C415.7,181.7,418.1,181.7,420.7,181.7z M69.6,174.6
		c1.5-26.3,22.2-45.1,46.4-45.9c11.3-0.3,21.7,2.9,30.6,10c12.8,10.1,18.9,23.6,18.6,39.9c1.8,0,3.5,0,5.4,0
		c-0.2-2.1-0.4-4.2-0.6-6.3c-1-10.1-3.7-19.6-8.3-28.7c-4.5-8.8-10.8-15.6-20.1-19.2c-16-6.3-32.1-6.6-48.4-1
		c-11.4,3.9-19.3,11.4-23.6,22.7c-2.7,6.9-4.2,14-5,21.3c-0.2,2.2-0.4,4.5-0.7,6.8C65.9,174.3,67.7,174.5,69.6,174.6z M146.6,24
		c-0.3-0.1-0.5-0.1-0.6-0.1c-8.5,0.5-16.9,1-25.4,1.6c-4.2,0.3-7.7,2-10.7,5c-2.8,2.8-5.8,5.4-8.7,8.1c-0.6,0.5-1.2,1.1-1.7,1.6
		c-1.2,1.3-1.1,2.6,0.4,3.7c0.4,0.3,0.8,0.6,1.2,0.7c9.6,4.3,19.1,8.6,28.7,13c0.4,0.2,0.7,0.2,1.2,0.4
		C136.1,46.6,141.3,35.3,146.6,24z M401.9,169.6c-0.2,0-0.3-0.1-0.3-0.1c-11.5-0.2-23-0.5-34.5-0.7c-8.1-0.2-16.3-0.3-24.4-0.5
		c-12.5-0.2-25.1-0.4-37.6-0.6c-5-0.1-10-0.2-15-0.2c-9-0.2-18-0.4-27.1-0.5c-0.2,0-0.6,0.2-0.7,0.4c-0.7,1.7-1.3,3.4-1.9,5.2
		c0.4,0,0.7,0.1,1,0.1c6,0.1,11.9,0.1,17.9,0.2c10.9,0.1,21.7,0.2,32.6,0.2c6.7,0.1,13.3,0.1,20,0.2c11.2,0.1,22.5,0.2,33.7,0.3
		c10.4,0.1,20.8,0.2,31.2,0.3c3.7,0,4-0.2,5.1-3.7C401.8,170,401.8,169.8,401.9,169.6z M64.1,73.9c0.1-0.2,0.3-0.4,0.4-0.6
		c-0.4-0.2-0.9-0.4-1.2-0.8c-5.3-4.5-10.5-9-15.8-13.4c-0.3-0.2-0.7-0.4-1.1-0.4c-4.5-0.2-9-0.4-13.5-0.4c-4.8,0-9.3,1.1-13.5,3.5
		c-0.4,0.2-0.8,0.5-1,0.8c-2,2.8-4,5.6-5.9,8.4c-0.1,0.2-0.2,0.4-0.3,0.7C29.5,72.4,46.8,73.2,64.1,73.9z M71.9,25.6
		c-0.6-0.2-0.8-0.4-1.1-0.5c-4.2-0.9-8.4-1.8-12.6-2.7c-0.3-0.1-0.8,0.2-1.1,0.5c-4.4,4.1-8.9,8.1-13.3,12.3
		c-6.9,6.6-13.9,13.2-20.1,20.5c-0.5,0.6-0.9,1.1-1.4,1.7c7-2.4,14.2-1.5,21.4-1.4c-1.8-2.8-1.8-3.9,0.1-5.6
		c7.4-6.7,14.9-13.3,22.3-19.9C67.9,28.8,69.9,27.3,71.9,25.6z M133.2,58.8c6.8,2.5,13.6,4.2,20.8,5c-0.1-2.4-0.2-4.7-0.3-6.9
		c-0.3-7.3-0.7-14.7-0.9-22c0-1.1,0.3-2.4,0.7-3.4c1.1-2.7,2.3-5.4,3.6-8.2c-2.1,0.1-4.1,0.3-6,0.3c-1.1,0-1.7,0.4-2.2,1.5
		c-3.2,7.2-6.6,14.3-9.9,21.5C137.1,50.6,135.2,54.6,133.2,58.8z M177.1,165.2c0.4,1.7,0.6,3.1,1.1,4.4c0.6,1.7,1.4,2.2,3.3,2.2
		c9.2,0.1,18.3,0.1,27.5,0.2c4.2,0,8.5,0,12.7,0.1c11.7,0.1,23.4,0.3,35.1,0.4c0.3,0,0.8-0.2,0.8-0.4c0.7-1.7,1.4-3.5,2.1-5.3
		C232.2,166.3,204.8,165.8,177.1,165.2z M254,22c0,0.1,0,0.3,0,0.4c0.9,7.8,1.9,15.6,2.8,23.4c0.9,7.8,1.9,15.6,2.9,23.4
		c0,0.3,0.5,0.9,0.8,0.9c2.8,0.2,5.6,0.3,8.6,0.5c-3.1-16.3-6.2-32.4-9.3-48.6C257.8,22,255.9,22,254,22z M10.9,74.1
		c-0.2,1.3-0.4,2.5-0.5,3.7c0,0.4,0.3,1,0.6,1.1c2.1,0.9,4.1,1.9,6.2,2.3c3.9,0.8,7.9,1.2,11.9,1.6c4.9,0.5,9.9,1,14.8,1.3
		c5.2,0.3,9.9-1.2,14.1-4.5c1.1-0.9,2.2-1.7,3.4-2.5c0.2-0.2,0.5-0.3,0.8-0.5c-0.1-0.1-0.1-0.2-0.2-0.3C45,75.6,28.1,74.9,10.9,74.1
		z M257.2,70c-0.3-2.2-0.5-4.3-0.8-6.4c-1-8.3-2-16.6-3-24.8c-0.7-5.4-1.3-10.8-2-16.2c0-0.3-0.4-0.8-0.7-0.8c-1.7-0.1-3.3,0-5.1,0
		c1.3,15.9,2.5,31.8,3.8,47.8C252.1,69.7,254.6,69.8,257.2,70z M565.6,118.9c0.1-0.1,0.2-0.2,0.3-0.3c-2.6-4.9-5.2-9.8-7.8-14.6
		c-0.6-1.1-1.4-1.8-2.7-2c-1.3-0.3-2.6-0.6-3.9-0.8c-8.9-1.2-17.8-2.4-26.7-3.6c-1.8-0.2-3.7-0.4-5.5-0.6c3.6,0.8,7.2,1.3,10.9,1.8
		c2.2,0.3,4.4,0.6,5.9,2.6c1.6,2.1,3.2,4.2,4.8,6.2c0.9,1.2,1.6,2.4,1.1,4C550.1,113.6,558.3,114.9,565.6,118.9z M282.8,9.8
		c0.1-0.1,0.1-0.3,0.2-0.4c-1-0.5-2.1-1.2-3.1-1.4c-3.9-0.5-7.9-1-11.8-1.2c-5.6-0.4-11.2-0.6-16.8-0.8c-11.2-0.4-22.4-1-33.6-1.1
		c-12.2-0.1-24.5,0.2-36.7,0.4c-10.7,0.1-21.5,0.3-32.2,0.6c-2.8,0.1-5.5,0.2-8.2,0.4c-1.7,0.2-3.2,1.1-4.7,2.4c0.5,0,0.7,0,0.9,0
		c11.3-0.4,22.7-0.9,34-1.2c12.9-0.3,25.8-0.6,38.7-0.7c14-0.1,28.1-0.1,42.1,0.2c6.5,0.1,12.9,0.8,19.4,1.4
		C274.8,8.7,278.8,9.3,282.8,9.8z M377.2,73c1.6-0.1,3.5-0.1,5.4-0.4c1.5-0.2,2.7-1,3.3-2.5c1.4-3.5-0.2-8.3-3.5-10.1
		c-3.2-1.7-6.7-2.6-10.4-2.2c-1.7,0.2-3.5,0.5-3.9,2.6c-0.7,3.1-1.1,6.2-0.6,9.4c0.3,1.7,0.5,2.1,2.3,2.3
		C372,72.5,374.4,72.7,377.2,73z M102.6,10.3c0.2,0,0.3,0,0.5,0c9-0.5,18-0.9,27-1.4c0.5,0,1-0.2,1.3-0.4c3.1-2.3,6-4.9,10.2-5
		c-1.9,0-3.9-0.1-5.8,0c-7,0.4-14,0.8-21,1.3C110.3,5.2,106,6.7,102.6,10.3z M339.5,25.8c0.3,0.2,0.6,0.3,0.9,0.5
		c3.9,2,7.9,3.9,11.7,6c14.7,8.1,29.4,16.3,44.1,24.4c7.1,3.9,14.3,7.4,21.5,11c1.6,0.8,3.3,1.3,4.9,1.9c0-0.3-0.2-0.4-0.3-0.5
		c-23.7-13.5-47.5-26.7-71.9-39C347,28.4,343.5,26.6,339.5,25.8z M280.4,5.4c2.1,0.3,3.7,1.5,4.9,3.1c1.2,1.6,2.8,2.2,4.7,2.5
		c7.7,1.3,15.3,2.8,22.7,4.2c-0.2-0.2-0.6-0.6-1-0.9C302.5,7.1,291.6,5.8,280.4,5.4z M147.8,21.2c0-0.1,0-0.2,0-0.3
		c-0.3,0-0.6,0-0.9,0c-9.2,0.5-18.4,0.9-27.5,1.5c-3.5,0.2-6.9,0.8-10,2.7c-4.9,3-9.1,7-13.3,10.9c-1.2,1.1-2.3,2.2-3.2,3.5
		c-1,1.4-0.8,2.6,0.5,3.6c1.2,0.9,2.6,1.6,3.9,2.3c-1.9-2.9-1.7-5,0.7-7.4c0.4-0.4,0.8-0.8,1.2-1.1c3-2.8,6.1-5.5,9.1-8.4
		c3.2-3.1,6.9-5.1,11.4-5.4c7.6-0.5,15.2-1,22.8-1.5C144.3,21.4,146.1,21.3,147.8,21.2z M539.4,110.5c0.1-0.2,0.2-0.3,0.3-0.5
		c-2.1-2.6-4.1-5.1-6.3-7.7c-0.3-0.4-1-0.5-1.5-0.6c-2.1-0.4-4.2-0.7-6.3-1c-1.3-0.2-2.5-0.3-3.8-0.5c0.6,0.8,1.3,1.4,2,2
		c4.2,3.5,8.6,6.8,14,8.2C538.3,110.5,538.8,110.5,539.4,110.5z M385.4,74.5c2.2-0.2,4.5-0.4,7.1-0.7c-1.6-1.1-2.9-1.9-4.1-2.6
		C387.4,72.4,386.4,73.4,385.4,74.5z M400.1,75.3c0-0.1,0-0.2,0-0.3c-3.7-2.5-7.5-4.9-11.2-7.4c-0.1,0.1-0.2,0.2-0.2,0.3
		c0.3,0.3,0.5,0.6,0.8,0.8c2.2,1.5,4.4,2.9,6.6,4.3c0.9,0.6,1.7,1.2,1.3,2.5C398.4,75.5,399.2,75.4,400.1,75.3z M78.1,11.6
		c0.4,0.1,0.5,0.2,0.5,0.2c6.3-0.4,12.7-0.7,19-1.1c0.4,0,0.7-0.3,1-0.5c0-0.1-0.1-0.2-0.1-0.3C91.9,10.4,85.2,11,78.1,11.6z
		 M232.7,18.7c0-0.1,0-0.1,0-0.2c-5.5,0-10.9,0-16.4,0c0,0.1,0,0.1,0,0.2C221.8,18.7,227.3,18.7,232.7,18.7z M233.8,18.7
		c0,0.1,0,0.1,0,0.2c3.7,0,7.4,0,11.1,0c0-0.1,0-0.1,0-0.2C241.2,18.7,237.5,18.7,233.8,18.7z M164.3,3.1c0-0.1,0-0.1,0-0.2
		c-3.5,0-7.1,0-10.6,0c0,0.1,0,0.1,0,0.2C157.2,3.1,160.8,3.1,164.3,3.1z M150.9,20.7c0,0.1,0,0.2,0,0.3c3.1-0.2,6.2-0.4,9.3-0.5
		c0-0.1,0-0.2,0-0.2C157.1,20.4,154,20.6,150.9,20.7z M326.3,19.8c0,0.1-0.1,0.2-0.1,0.3c2.3,0.9,4.6,1.9,6.9,2.8
		c0-0.1,0.1-0.2,0.1-0.3C330.9,21.6,328.6,20.7,326.3,19.8z M166.9,2.7c0,0,0,0.1,0,0.1c3,0,5.9,0,8.9,0c0,0,0-0.1,0-0.1
		C172.8,2.7,169.9,2.7,166.9,2.7z M145.4,3.2c0,0,0,0.1,0,0.1c1.7,0,3.4,0,5.2,0c0,0,0-0.1,0-0.1C148.9,3.2,147.2,3.2,145.4,3.2z"/>
	<path d="M559,160.8c-1.5-0.3-3.1-0.4-4.6-0.8c-2.7-0.8-4.1-2.5-4-5.2c0.1-2.5,0.4-5,1-7.4c0.5-2.4,2.2-3.5,4.6-3.2
		c3,0.4,6.1,0.8,9,1.7c3.8,1.1,4.9,3.7,3.2,7.3c-0.6,1.2-1.2,2.4-1.9,3.6C564.8,159.8,562.4,161.1,559,160.8z M559.2,158.3
		c2.3,0.2,3.9-0.7,4.9-2.7c0.6-1.3,1.4-2.5,1.9-3.8c0.8-1.9,0.5-2.9-1.5-3.4c-2.9-0.7-5.8-1.2-8.8-1.7c-1.3-0.2-2,0.5-2.2,1.7
		c-0.3,2-0.6,4-0.8,6c-0.1,1.9,0.7,2.8,2.5,3.3C556.6,158,557.9,158.1,559.2,158.3z"/>
	<path d="M273.2,89.8c1,0.1,1.9,0.2,2.9,0.2c0.4,0,0.9-0.1,1.2-0.4c4-3,9.9-2.8,13.4,0.8c0.8,0.8,1.6,1,2.6,1.2
		c1.4,0.3,2.9,0.5,4.3,1c1.8,0.6,2.6,1.8,2.4,3.2c-0.2,1.4-1.3,2.4-3.2,2.6c-1.5,0.1-2.9,0-4.4,0c-0.4,0-1,0.1-1.3,0.4
		c-3.5,3.5-10.4,3-14-0.5c-0.4-0.4-1-0.7-1.6-0.8c-1.9-0.2-3.7-0.3-5.6-0.5c-3-0.3-4.2-1.9-3.5-4.9c0.3-1.3,1.1-2.1,2.5-2.3
		c1.5-0.2,2.9-0.2,4.4-0.2C273.2,89.7,273.2,89.8,273.2,89.8z M297.3,95.7c0-0.1,0-0.3,0-0.4c-0.5-0.2-0.9-0.5-1.4-0.6
		c-1.2-0.3-2.4-0.6-3.6-0.7c-5.2-0.5-10.3-1-15.5-1.4c-2.2-0.2-4.5-0.2-6.7-0.3c-0.7,0-1.3,0.1-1.4,1.1c0,1,0.5,1.1,1.2,1.2
		c2.8,0.2,5.6,0.5,8.3,0.6c5.6,0.3,11.2,0.5,16.8,0.8C295.8,95.9,296.5,95.8,297.3,95.7z M286.6,98.2c-1.7-0.1-3.4-0.2-5.1-0.3
		C283.1,98.7,284.8,98.9,286.6,98.2z M285.8,90.7c0-0.1,0.1-0.3,0.1-0.4c-1.4-0.1-2.7-0.2-4.1-0.3c0,0.1,0,0.2,0,0.4
		C283.1,90.5,284.4,90.6,285.8,90.7z"/>
	<path d="M143.3,80.9c0.3,0,0.6,0.1,1,0.1c1.5,0.2,2.8,0,4.2-1c3.6-2.5,9.5-1.6,12.6,1.6c0.4,0.4,1,0.7,1.6,0.9
		c1.5,0.4,3.2,0.6,4.7,1c1.3,0.4,2.5,1.1,2.7,2.7c0.2,1.5-0.7,2.8-2.4,3.1c-1.7,0.2-3.4,0.1-5.1,0.2c-0.4,0-0.9,0.1-1.1,0.4
		c-3.6,3.8-10.8,3.1-14.2-0.5c-0.4-0.4-1-0.7-1.5-0.7c-1.9-0.2-3.8-0.3-5.7-0.5c-2.9-0.3-3.8-1.6-3.5-4.4c0.2-1.6,1-2.6,2.6-2.8
		c1.4-0.2,2.9-0.1,4.3-0.2C143.3,80.8,143.3,80.9,143.3,80.9z M167.3,86.9c0-0.2,0-0.4,0.1-0.7c-1.1-0.3-2.1-0.7-3.2-0.9
		c-3.3-0.4-6.6-0.8-10-1.1c-4.7-0.4-9.3-0.6-14-0.9c-0.9-0.1-1.5,0.1-1.5,1.2c0,1.1,0.7,1,1.4,1c7.7,0.5,15.4,0.9,23.1,1.3
		C164.6,87,165.9,86.9,167.3,86.9z M151.3,89c1.8,1,3.7,1.2,5.7,0.3C155.1,89.2,153.2,89.1,151.3,89z M151.8,81.1c0,0.1,0,0.2,0,0.4
		c1.4,0.1,2.8,0.2,4.2,0.3c0-0.1,0-0.3,0-0.4C154.6,81.3,153.2,81.2,151.8,81.1z"/>
	<path d="M434.4,176.2c0-18.5,15.2-33.6,33.6-33.6c19,0,34.2,15.1,34,34.3c-0.2,18.6-15.2,33.4-34.1,33.4
		C449.4,210.2,434.4,195,434.4,176.2z M468.1,207.7c16.6,0.1,31.1-13,31.4-30.7c0.3-17.8-13.8-31.9-31.3-31.9
		c-17.1,0-31.2,14-31.2,30.9C437,193.7,450.7,207.7,468.1,207.7z"/>
	<path d="M117.3,142.5c18.9,0,34.2,15.2,33.9,34.1c-0.3,19.1-15.5,33.6-34.2,33.6c-18.4,0-33.5-15.3-33.4-34
		C83.6,157.6,98.7,142.5,117.3,142.5z M86,176.3c0,17.2,13.9,31.3,30.9,31.4c16.9,0.1,31.6-13,31.8-31.2c0.1-17.5-14-31.5-31.3-31.5
		C100.2,145,86.1,159.1,86,176.3z"/>
	<path d="M440.4,180.1c0-2.2,0.7-3,2.6-3.6c3.3-1,6.6-1.4,10-1.3c1.1,0.1,2.2,0,3.4,0.1c1.7,0.1,2.5,0.8,2.9,2.5
		c0.2,0.9,0.6,1.8,0.9,2.7c0.5,1.1,0.4,2.2-0.5,2.9c-3.9,3.1-7.7,6.4-12.6,7.8c-1.5,0.4-2.6,0.2-3.4-1.2
		C441.9,186.7,440.9,183.2,440.4,180.1z M457.8,181.7c-0.4-1.1-0.8-2-0.9-3c-0.2-0.8-0.5-1-1.2-0.9c-0.4,0-0.7,0-1.1,0
		c-3.6-0.2-7.2-0.1-10.6,1.1c-0.7,0.2-1.2,0.5-1,1.3c0.8,2.7,1.7,5.4,2.6,8.1c0.1,0.3,0.8,0.6,1,0.5
		C451,187.4,454.3,184.3,457.8,181.7z"/>
	<path d="M469.4,204.6c-2.1-0.2-4.1-0.3-6.2-0.6c-1.7-0.2-2.4-1.3-2.5-3c-0.1-3.5,0.6-6.9,1.8-10.2c0.4-1.2,0.9-2.5,1.4-3.7
		c0.5-1.2,1.4-1.7,2.7-1.7c1.1,0.1,2.2,0.1,3.2,0c1.3-0.1,2.2,0.4,2.7,1.6c1.7,4.3,3.5,8.6,3.4,13.5c-0.1,2.3-0.7,3.3-3,3.6
		c-1.1,0.2-2.3,0.2-3.5,0.3C469.4,204.5,469.4,204.5,469.4,204.6z M468.2,202c1.5-0.1,2.7-0.2,3.9-0.2c0.9,0,1.2-0.4,1.2-1.4
		c0-3.9-1.3-7.5-2.7-11.1c-0.3-0.8-0.6-1.4-1.6-1.1c-0.6,0.2-1.4-0.1-2,0c-0.4,0.1-0.9,0.3-1,0.6c-0.5,1.2-0.9,2.5-1.4,3.7
		c-0.9,2.6-1.5,5.3-1.4,8.1c0,0.7,0.2,1,0.9,1.1C465.6,201.7,467.1,201.9,468.2,202z"/>
	<path d="M496.2,179.8c-0.5,3.4-1.5,7-3.3,10.2c-0.8,1.5-2.1,1.8-3.9,1.1c-3.3-1.1-6.2-2.9-8.9-5c-1-0.8-2-1.6-3-2.4
		c-1.1-1-1.2-1.9-0.6-3.2c0.4-0.9,0.7-1.8,0.9-2.7c0.4-1.4,1-2.1,2.3-2.2c4.7-0.2,9.4-0.6,14,1.1
		C495.6,177.3,496.3,178.1,496.2,179.8z M480.1,178.1c-0.4,1.1-0.8,2.1-1,3.1c-0.1,0.3,0,0.8,0.2,1c3.2,2.6,6.4,5.2,10.4,6.5
		c0.9,0.3,1.3,0.1,1.5-0.7c0.8-2.7,1.6-5.3,2.4-8c0.2-0.6-0.1-0.8-0.7-1C488.8,177.6,484.4,177.8,480.1,178.1z"/>
	<path d="M465.7,166.2c-0.4,0.5-0.8,1.2-1.4,1.7c-0.9,0.8-1.9,1.3-2.8,2.1c-1,0.8-2.1,0.9-3.1,0.2c-4.1-2.6-8.1-5.3-10.9-9.4
		c-0.9-1.3-0.9-2.4,0.1-3.6c2.4-2.7,5.3-4.8,8.6-6.3c1.5-0.7,2.7-0.3,3.8,1.3c2.1,2.9,3.5,6.1,4.4,9.5
		C464.9,163.1,465.3,164.5,465.7,166.2z M459.7,168.1c1-0.7,1.8-1.3,2.6-1.9c0.3-0.2,0.5-0.7,0.5-0.9c-1-4-2.2-8-4.6-11.4
		c-0.4-0.6-0.8-0.7-1.4-0.3c-2.3,1.7-4.5,3.3-6.8,5c-0.6,0.5-0.4,0.9,0,1.4C452.5,163.5,456.2,165.7,459.7,168.1z"/>
	<path d="M471.1,165.6c0.8-2.6,1.5-5.3,2.5-7.9c0.8-2.1,2-4,3.2-5.9c0.7-1.2,1.7-1.5,3-1.1c1.2,0.4,2.4,1,3.4,1.7
		c1.8,1.2,3.5,2.5,5.1,3.9c1.8,1.6,1.8,2.9,0.4,4.8c-2.2,3-4.9,5.3-8,7.3c-0.8,0.5-1.5,1.1-2.4,1.6c-1.3,0.8-2.2,0.6-3.4-0.4
		c-0.7-0.6-1.6-1.2-2.4-1.7C471.6,167.4,471.1,166.7,471.1,165.6z M487.1,158.9c-2.3-2.2-4.8-4.2-7.7-5.5c-0.2-0.1-0.7,0.2-0.9,0.4
		c-2.6,3.4-3.5,7.5-4.6,11.5c-0.1,0.2,0.2,0.7,0.4,0.8c0.9,0.7,1.8,1.3,2.7,1.9C480.7,165.4,484.6,163.2,487.1,158.9z"/>
	<path d="M468.3,181.5c-2.9,0-5.2-2.3-5.2-5.3c0-2.8,2.3-5.1,5.1-5.1c2.9,0,5.3,2.4,5.3,5.2C473.5,179.3,471.2,181.5,468.3,181.5z
		 M471,176.4c0-1.4-1.3-2.7-2.8-2.7c-1.4,0-2.6,1.2-2.6,2.6c0,1.5,1.4,2.8,2.8,2.7C469.8,179,471,177.8,471,176.4z"/>
	<path d="M133.5,175.5c3.3-0.3,6.6,0.1,9.8,1.2c1.7,0.6,2.4,1.7,2,3.4c-0.8,3-1.6,6.1-2.7,9c-0.9,2.4-2.3,2.7-4.7,1.8
		c-4.3-1.5-7.8-4.3-11.3-7.1c-1.3-1.1-1.4-2.1-0.8-3.6c0.4-0.8,0.6-1.6,0.8-2.5c0.3-1.5,1-2.2,2.6-2.3
		C130.6,175.5,132,175.5,133.5,175.5z M128,181.9c3.3,2.6,6.5,5.3,10.7,6.8c1,0.3,1.4,0.2,1.7-0.7c0.8-2.5,1.5-5,2.3-7.5
		c0.3-0.9,0-1.2-0.8-1.4c-4-1.4-8-1.1-12.1-0.9c-0.3,0-0.7,0.3-0.8,0.6C128.6,179.7,128.3,180.7,128,181.9z"/>
	<path d="M101.5,175.3c1.4,0,2.7,0,4,0c1.7,0.1,2.5,0.8,2.9,2.4c0.2,1,0.6,1.9,1,2.8c0.4,1.1,0.4,2.1-0.5,2.8
		c-3.8,3.1-7.6,6.3-12.5,7.8c-1.7,0.5-2.8,0.2-3.6-1.4c-1.6-3.1-2.7-6.3-3.1-9.7c-0.3-2.1,0.4-3,2.5-3.6
		C95.2,175.6,98.4,174.9,101.5,175.3z M102,177.7c-3.1-0.2-6,0.3-9,1.2c-0.8,0.2-1.2,0.6-0.9,1.4c0.8,2.5,1.6,5,2.3,7.5
		c0.3,0.9,0.7,1.1,1.7,0.8c4-1.4,7.1-4.1,10.3-6.6c0.2-0.2,0.3-0.7,0.2-1c-0.3-1-0.4-2.4-1.1-2.9c-0.8-0.5-2.1-0.3-3.2-0.3
		C102.3,177.7,102.1,177.7,102,177.7z"/>
	<path d="M118.3,204.6c-1.9-0.2-3.9-0.3-5.8-0.5c-1.9-0.3-2.7-1.3-2.7-3.2c0-2.9,0.4-5.8,1.4-8.6c0.5-1.6,1-3.2,1.7-4.7
		c0.7-1.7,1.4-2.1,3.2-2c1,0,2,0,3-0.1c1.2-0.1,2.1,0.4,2.6,1.5c1.8,4.4,3.5,8.7,3.4,13.6c-0.1,2.3-0.6,3.1-2.9,3.5
		c-0.2,0-0.3,0.1-0.5,0.1c-1.1,0.1-2.2,0.1-3.3,0.2C118.3,204.5,118.3,204.5,118.3,204.6z M119.3,188.2c-1.1,0-2.1,0.1-3,0
		c-0.9-0.1-1.2,0.3-1.4,1c-0.4,1.3-1,2.5-1.3,3.7c-0.5,2.6-0.9,5.2-1.3,7.7c-0.1,0.7,0.2,1.1,0.9,1.1c2.7,0,5.3,0,8,0.1
		c1,0,1.2-0.5,1.2-1.4C122.5,195.9,120.8,192.1,119.3,188.2z"/>
	<path d="M114.8,166.2c-0.4,0.5-0.9,1.2-1.5,1.8c-0.8,0.7-1.8,1.3-2.7,2c-1,0.7-2,0.9-3,0.3c-4.1-2.6-8.2-5.3-11-9.4
		c-0.9-1.3-0.9-2.5,0.2-3.7c2.3-2.4,4.9-4.4,7.9-5.9c2.1-1,3.3-0.7,4.7,1.3c2.2,3.2,3.6,6.8,4.5,10.6
		C114.3,164,114.5,165,114.8,166.2z M98.7,159c0,0.2,0,0.2,0,0.2c2.4,3.8,6.2,6.1,9.8,8.6c0.2,0.1,0.6,0,0.8-0.1
		c0.9-0.6,1.8-1.3,2.7-2c-0.2-0.9-0.5-1.8-0.7-2.7c-0.9-3.2-2-6.3-4-9c-0.2-0.3-0.9-0.7-1.1-0.6C103.3,154.8,100.8,156.7,98.7,159z"
		/>
	<path d="M127.7,150.4c0.9,0.3,1.5,0.4,2.1,0.7c2.9,1.4,5.5,3.3,7.8,5.5c1.5,1.5,1.5,2.7,0.3,4.4c-2.1,2.9-4.7,5.3-7.8,7.2
		c-0.8,0.5-1.6,1.2-2.4,1.7c-1.4,0.9-2.5,0.7-3.7-0.3c-0.7-0.7-1.6-1.2-2.4-1.7c-1-0.6-1.5-1.5-1.2-2.6c1.2-4.7,2.4-9.5,5.5-13.4
		C126.3,151.3,127.1,150.9,127.7,150.4z M128.2,153.1c-0.2,0.2-0.3,0.3-0.4,0.3c-2.7,3.5-3.6,7.7-4.8,11.8c-0.1,0.2,0.2,0.7,0.4,0.8
		c0.9,0.7,1.8,1.3,2.8,1.9c1.1-0.7,2.2-1.5,3.3-2.3c2.4-1.6,4.4-3.5,6.2-5.8c0.6-0.8,0.5-1.3-0.2-1.8c-1.4-1.1-2.7-2.2-4.2-3.2
		C130.3,154.2,129.2,153.7,128.2,153.1z"/>
	<path d="M117.5,181.5c-2.9,0-5.2-2.3-5.2-5.2c0-2.8,2.2-5.1,5-5.1c2.9,0,5.3,2.4,5.4,5.2C122.7,179.2,120.4,181.5,117.5,181.5z
		 M120.1,176.5c0.1-1.4-1.2-2.7-2.7-2.8c-1.4-0.1-2.6,1.1-2.6,2.5c0,1.5,1.2,2.8,2.7,2.8C118.8,179.1,120,177.9,120.1,176.5z"/>
</g>
</svg>
