<?xml version="1.0" encoding="utf-8"?>
<!-- Generator: Adobe Illustrator 27.4.0, SVG Export Plug-In . SVG Version: 6.00 Build 0)  -->
<svg version="1.1" id="Layer_1" xmlns="http://www.w3.org/2000/svg" xmlns:xlink="http://www.w3.org/1999/xlink" x="0px" y="0px"
	 viewBox="0 0 150.1 49.8" style="enable-background:new 0 0 150.1 49.8;" xml:space="preserve">
<g>
	<path d="M4.2,20c-0.7,0-0.9-0.2-0.9-0.8c0-1.2,0.4-2.3,1.1-3.3C4.8,15.5,5,15,5.3,14.5c-0.2-0.1-0.3-0.2-0.4-0.3
		c-0.2-0.2-0.4-0.4-0.4-0.6c-0.2-0.5,0.2-0.8,0.8-0.8c0.3,0,0.7,0.1,1,0.2c1.2-1.4,2.3-2.8,3.5-4.2c1.2-1.4,2.5-2.7,3.9-4
		c-0.5-0.2-1-0.4-1.5-0.6c-0.2,0-0.3-0.1-0.4-0.1c-0.2-0.1-0.4-0.2-0.4-0.5c0-0.2,0.2-0.4,0.4-0.5c0.5-0.1,1-0.3,1.5-0.4
		c2.6-0.3,5.2-0.6,7.9-0.9c1.1-0.1,2.3-0.2,3.4-0.3c0.3,0,0.4-0.1,0.4-0.4c0-0.2,0-0.5,0-0.7c0-0.3,0.1-0.5,0.4-0.6
		C25.6,0,26,0,26.2,0.3c0.2,0.2,0.3,0.4,0.4,0.5C26.7,1,26.8,1,27,1c0.5,0,1-0.1,1.4,0.2c0.1,0,0.1,0,0.2,0c3-0.5,6-0.7,9-0.9
		c2.2-0.1,4.4-0.2,6.5-0.2C47,0.1,49.9,0.1,52.7,0c2.2,0,4.3-0.1,6.5,0c3.8,0,7.6,0.2,11.3,0.5c1.5,0.1,3,0.3,4.5,0.4
		c0.6,0.1,1.2,0.3,1.8,0.4c0.6,0.1,1.3,0.2,1.9,0.3c4.8,0.6,9.2,1.8,13.3,4c4,2.1,7.9,4.3,11.9,6.5c1.7,0.9,3.4,1.9,5.1,2.8
		c0.3,0.1,0.5,0.2,0.8,0.2c1.1-0.1,2.2-0.2,3.2-0.2c1.3,0,2.7,0,4,0.2c4.1,0.5,8.2,1.1,12.3,1.7c5.4,0.8,10.7,2.1,15.9,4
		c0.5,0.2,1,0.4,1.5,0.6c0.3,0.2,0.6,0.4,0.8,0.6c0.4,0.4,0.3,0.7-0.2,1c0,0.1,0.1,0.3,0.1,0.4c0,0.1,0.1,0.2,0.2,0.2
		c0.8,0.3,1.2,0.7,1.4,1.5c0.3,1.1,0.5,2.3,0.7,3.4c0.1,0.5-0.1,1-0.5,1.4c-0.1,0-0.1,0.2-0.1,0.2c0,0.2,0.1,0.4,0.2,0.5
		c0,0.1,0.1,0.2,0.2,0.2c0.3,0.1,0.4,0.3,0.4,0.5c0,0.9,0,1.9,0,2.8c0,0.3-0.2,0.5-0.6,0.5c-0.2,0-0.4,0-0.6,0c-0.1,0-0.2,0-0.3,0.1
		c0.4,0.2,0.7,0.4,1,0.6c0.2,0.1,0.4,0.3,0.6,0.5c0.3,0.4,0.2,0.8-0.4,0.8c-0.3,0-0.4,0.2-0.5,0.4c-0.4,0.9-0.7,1.8-1.1,2.8
		c0.1,0.1,0.3,0.2,0.5,0.3c0.2,0.2,0.5,0.4,0.6,0.7c0.2,0.4-0.1,0.8-0.5,0.8c-0.9,0.1-1.8,0.1-2.8,0.1c-1,0-1.9,0.1-2.9,0.1
		c-0.5,0-1,0.1-1.5,0.2c-1.5,0.4-2.9,0.6-4.5,0.5c-0.1,0-0.3,0-0.4,0c0,0.1,0,0.2,0,0.3c0,0.3-0.1,0.4-0.4,0.4c-0.8,0-1.6,0-2.4,0
		c-0.2,0-0.3,0.1-0.4,0.2c-1.8,3.5-4.8,5.7-9,6.4c-5.7,1-11.2-1.8-13.5-6.5c-0.1-0.2-0.2-0.3-0.5-0.3c-15.7,0-31.3,0-47,0
		c-3.1,0-6.3,0-9.4-0.1c-1.6,0-3.2,0-4.9,0c-1.6,0-3.2,0-4.9-0.1c-0.2,0-0.3,0.1-0.4,0.2c-1.5,3.4-4.3,5.6-8.3,6.6
		c-6.7,1.6-12.9-2-14.7-7.2c-0.1-0.2-0.2-0.3-0.5-0.3c-1.5,0-3-0.1-4.5-0.1c-1.3,0-2.2-0.5-3-1.3c0,0-0.1-0.1-0.1-0.1
		c-0.3-0.5-0.8-0.7-1.5-0.7c-1.9,0-3.9-0.1-5.8-0.2c-0.7,0-1.4,0-2.1-0.2c-1.2-0.2-2-1-2.5-2s-0.7-2-0.6-3c0.2-1.1,0.3-2.2,0.4-3.2
		c0-0.1,0.1-0.3,0.1-0.4c0.1-0.4,0.3-0.5,0.7-0.6c0.2,0,0.5-0.1,0.7,0c0.9,0,1.4-0.5,1.9-1.1C4,28.8,4,28.7,4,28.6
		C4,28,3.9,27.3,3.9,26.7c-0.1-0.6,0-1.1,0.2-1.6c0.1-0.4,0.1-0.8,0.1-1.3c0.1-1.2,0.1-2.4,0.2-3.6C4.2,20.1,4.2,20,4.2,20z
		 M69.3,37.6c0.2,0,0.3,0,0.4,0c0.9,0,1.7,0,2.6,0c2.7,0.1,5.4,0.1,8.2,0.2c2,0,4.1,0.1,6.1,0.1c2.7,0.1,5.4,0.1,8.1,0.2
		c1.3,0,2.6,0.1,4,0.1c1.3,0,2.6,0,3.9,0.1c0.2,0,0.3,0,0.3-0.2c0.5-2,0.9-3.9,1.1-5.9c0.3-2.3,0.3-4.7,0.3-7
		c-0.1-2.2-0.5-4.3-1.3-6.4c-0.1-0.2-0.1-0.2-0.3-0.2c-1.8-0.1-3.5-0.3-5.3-0.4c-1.9-0.1-3.7-0.3-5.6-0.4c-2.4-0.2-4.8-0.3-7.1-0.4
		c-2.3-0.1-4.5-0.3-6.8-0.4c-2.7-0.2-5.5-0.3-8.2-0.4c-0.5,0-0.9,0-1.4-0.1C69.7,23.5,70.3,30.5,69.3,37.6z M68.5,37.5
		c0,0,0-0.1,0.1-0.2c0.3-2,0.5-3.9,0.5-5.9c0-2.9-0.2-5.7-0.6-8.5c-0.3-2.1-0.7-4.2-1.2-6.3c-0.1-0.2-0.1-0.2-0.3-0.2
		c-2.5-0.1-5-0.3-7.4-0.4c-4.1-0.2-8.2-0.4-12.2-0.6c-4.1-0.2-8.2-0.3-12.3-0.5c-0.6,0-0.8,0.1-1,0.5c-0.7,1.2-0.8,2.5-0.1,3.7
		c0.2,0.4,0.5,0.8,0.8,1.1c1.3,1.7,2.9,3.1,4.6,4.4c1.5,1.2,3,2.4,4.4,3.6c2.6,2.3,4.1,5.1,4.7,8.3c0.1,0.4,0.1,0.4,0.5,0.4
		c1.5,0,2.9,0.1,4.4,0.1c2.7,0.1,5.4,0.1,8.1,0.2c1.3,0,2.6,0.1,3.9,0.1C66.4,37.5,67.5,37.5,68.5,37.5z M47.7,37.1
		c-0.3-1.8-0.9-3.5-1.9-5.1c-1.1-1.8-2.7-3.3-4.4-4.7c-1.7-1.4-3.4-2.7-5-4.1c-1.1-1-2.1-2.1-2.9-3.3c-1-1.6-1.1-3.1-0.1-4.7
		c0.5-0.7,0.9-1.4,1.5-2c1.8-2,3.6-4,5.5-6c1-1,2.1-2,3.2-3c1-0.9,2.2-1.4,3.6-1.4c1.4,0,2.8-0.1,4.2-0.1c3.2,0,6.5,0,9.7,0
		c2.3,0,4.6,0.1,6.9,0.2c3.2,0.1,6.4,0.3,9.5,0.7c2.9,0.4,5.7,1.1,8.3,2.4c2.4,1.2,4.6,2.5,6.8,3.9c2.5,1.6,5.1,3.2,7.4,4.9
		c1.2,0.9,2.3,1.9,2.9,3.2c0.1,0.2,0.2,0.2,0.4,0.2c0.9,0.1,1.8,0.1,2.6,0.2c0.6,0,1.2,0.1,1.8,0.1c-0.1-0.1-0.1-0.2-0.1-0.2
		c-0.4-0.7-0.8-1.4-1.2-2.1c-0.1-0.2-0.3-0.3-0.5-0.4c-1.7-0.3-3.2-0.9-4.6-1.8c-4.1-2.5-8.2-5.1-12.5-7.4c-1.4-0.8-2.7-1.6-4.3-2.1
		c-1.1-0.4-2.3-0.8-3.5-1c-1.1-0.2-2.2-0.5-3.3-0.6c-2-0.2-3.9-0.4-5.9-0.5c-3.3-0.2-6.5-0.2-9.8-0.3c-2.7,0-5.5,0-8.2,0
		c-2,0-4,0-6,0.1c-2.4,0-4.9,0.1-7.3,0.2c-3.2,0.1-6.3,0.3-9.5,0.5c-2.9,0.2-5.8,0.4-8.8,0.5c-0.1,0-0.2,0-0.3,0
		c-0.5,0.4-1,0.7-1.5,1.1c0.2,0,0.3,0,0.4,0c2.1,0,4.3-0.1,6.4-0.1C31,4.3,34.5,4.1,38,4c0.2,0,0.4,0,0.5,0.2
		c0.1,0.2-0.1,0.3-0.3,0.4c-2.1,1.3-4.3,2.6-6.4,3.9c-2.3,1.4-4.6,2.8-6.9,4.2c-1.1,0.6-2.2,1.2-3.5,1.5c-1.7,0.4-3.5,0.6-5.3,0.6
		c-2,0-4,0-6,0c-0.1,0-0.3,0-0.4,0.1c-0.3,0.2-0.5,0.4-0.8,0.6c-0.6,0.4-1.1,1-1.4,1.6c-0.1,0.2-0.2,0.5-0.3,0.8
		c0.2,0,0.3,0,0.4-0.1c1.3-0.2,2.5,0,3.5,0.8c2.4,1.8,4.8,3.6,7.2,5.5c0.7,0.5,1.4,0.9,2.2,1.1c1.9,0.6,3.9,1.1,5.8,1.7
		c0.1,0,0.3,0,0.4,0c1.4-0.5,2.8-0.8,4.3-0.9c4.7-0.3,8.7,1,11.9,4c2,1.8,3.2,3.9,3.8,6.4C46.8,37.1,46.8,37.1,47.7,37.1
		C47.7,37.1,47.7,37.1,47.7,37.1z M64.1,15.6c0-0.1,0-0.2,0-0.2c-0.2-2-0.4-4-0.6-5.9c-0.2-2-0.4-3.9-0.6-5.9c0-0.2-0.1-0.2-0.3-0.2
		c-1.3,0-2.5,0-3.7,0c-1.9,0-3.9,0-5.8,0c-1.7,0-3.3,0.1-5,0.1c-1.6,0-2.9,0.4-4,1.4c-0.1,0.1-0.3,0.2-0.4,0.4
		c-1.7,1.4-3.2,3-4.6,4.6c-1.3,1.4-2.6,2.9-3.9,4.4c-0.1,0.1-0.1,0.2-0.2,0.3C44.6,14.8,54.3,15.2,64.1,15.6z M107.2,15.8
		c0.5,0.9,1,1.7,1.4,2.5c0.1,0.1,0.2,0.1,0.3,0.1c1.8,0.2,3.6,0.3,5.4,0.4c2,0.2,4,0.4,5.9,0.6c1.7,0.2,3.3,0.4,5,0.6
		c1.9,0.2,3.8,0.5,5.7,0.8c0.6,0.1,1.1,0.2,1.6,0.3c0.6,0.1,1.3,0.1,1.9,0.1c2.2,0.2,4.5,0.7,6.6,1.2c0.7,0.2,1.2,0.5,1.5,1.1
		c0.5,1,1,2.1,1.5,3.1c0.2,0.3,0.2,0.6,0.3,1c0.1,0.4-0.3,0.7-0.7,0.7c-0.3,0-0.5,0-0.8-0.1c-1-0.3-2-0.6-3-1
		c-2.8-1.1-5.7-2-8.3-3.7c-1.7,1-3.3,2.2-4.9,3.5c0.1,0,0.2,0.1,0.3,0.1c3.1,1.1,5.6,2.9,7.3,5.4c1.3,1.9,2,4,2,6.2
		c0,0.9,0,1.8,0,2.7c0,0.1,0,0.2,0,0.3c0.5,0,1,0,1.5,0c0.8,0,1.5-0.1,2.3-0.3c0.7-0.2,1.4-0.4,2.1-0.4c1.7-0.1,3.3-0.2,5-0.2
		c0.4,0,0.7,0,1.1-0.1c-0.3-0.4-0.7-0.6-1-0.7c-0.3-0.1-0.6-0.2-1,0c-0.1,0.1-0.3,0.1-0.4,0.1c-1.5,0-2.9,0-4.4,0
		c-0.5,0-1-0.1-1.5-0.3c-1.2-0.4-1.6-1.4-1-2.4c0.3-0.5,0.6-1,0.9-1.5c0.7-1.2,1.5-2.3,2.5-3.3c0.4-0.4,1-0.8,1.6-0.8
		c1.1-0.1,2.2,0.1,3.2,0.5c0.2,0.1,0.3,0.3,0.5,0.4c0,0,0,0.1,0.1,0.2c0.1,0,0.1-0.1,0.2-0.1c0-0.6,0-1.2,0-1.8
		c-0.5-0.2-0.9-0.6-1.1-1.1c-0.6-1.2-1.2-2.3-1.7-3.6c-0.4-0.8-0.7-1.7-0.9-2.6c-0.2-0.8,0.1-1.1,1-1.2c0.4,0,0.8-0.1,1.2-0.1
		c0.1,0,0.2,0,0.3-0.1c-0.1-0.1-0.1-0.1-0.1-0.1c-0.5-0.2-1-0.5-1.5-0.7c-4.3-1.6-8.7-2.7-13.2-3.5c-2.8-0.5-5.6-0.9-8.4-1.4
		c-0.9-0.2-1.8-0.3-2.8-0.4c-0.1,0-0.3,0-0.3,0c-0.2,0.2-0.4,0.2-0.6,0.3s-0.5,0.1-0.7,0.1c-0.7,0-1.4,0.2-2.1,0.1
		c-1.4-0.1-2.9-0.4-4.3-0.6c-0.2,0-0.4-0.1-0.5-0.2c-0.1-0.1-0.1-0.3-0.2-0.4C110.6,15.6,109,15.7,107.2,15.8z M25.4,27.4
		c-0.1,0-0.1,0-0.2-0.1c-1.4-0.4-2.8-0.8-4.2-1.2c-1.1-0.3-2.2-0.8-3.1-1.5c-0.2-0.2-0.4-0.2-0.6-0.2c-3.4,0-6.9,0-10.3,0
		c-0.3,0-0.5,0.1-0.5,0.4c0,0.2-0.1,0.4-0.2,0.6c-0.2,0.6-0.4,1.2-0.5,1.8c-0.1,0.6-0.3,1.1-0.7,1.6c-0.3,0.3-0.7,0.6-1,1
		c-0.6,0.7-1.4,1-2.4,1c-0.6,0-0.6,0-0.6,0.5c-0.1,1.1-0.3,2.2-0.4,3.3C0.5,35.8,0.9,37,1.9,38c0.4,0.4,1,0.7,1.6,0.8
		c0.6,0.1,1.1,0.1,1.7,0.1c1.7,0.1,3.3,0.1,5,0.2c2.3,0.1,4.6,0.4,6.8,0.5c0.3,0,0.4,0,0.4-0.3c0.1-0.8,0.1-1.6,0.2-2.5
		c0.6-3.1,2.3-5.7,5.1-7.7C23.5,28.4,24.5,27.9,25.4,27.4z M71.3,16c6.9,0.4,13.7,0.8,20.5,1.2c0-0.2-0.1-0.4-0.1-0.6
		c0.1-0.8,0.1-1.6,0.3-2.4c0.1-0.6,0.5-1,1.1-1.2c0.2,0,0.2-0.1,0.2-0.3c0-0.5,0-1,0-1.6c0-0.1-0.1-0.2-0.2-0.3
		c-2-1.2-4-2.4-6.1-3.6c-3-1.7-6.2-2.7-9.7-3.1c-2.7-0.3-5.4-0.5-8.1-0.6c-0.3,0-0.6,0-1,0C69.3,7.6,70.3,11.8,71.3,16z M103.5,18.7
		C103.5,18.7,103.4,18.8,103.5,18.7c0,0.2,0,0.2,0.1,0.3c0.7,1.8,1.1,3.7,1.2,5.6c0,1.4,0,2.9,0,4.3c-0.1,2.5-0.4,5.1-0.9,7.5
		c-0.1,0.6-0.3,1.3-0.4,1.9c1.4,0,2.8,0.1,4.1,0.1c0-0.1,0-0.1,0-0.2c0.3-3.4,1.8-6.3,4.7-8.6c3.9-3.1,8.4-4,13.4-3
		c0.3,0,0.4,0,0.6-0.1c1.5-1.2,3-2.3,4.7-3.3c0.1,0,0.1-0.1,0.1-0.1c-0.1-0.3-0.2-0.6-0.2-0.8c0-0.2,0.2-0.5,0.4-0.8
		C122.1,20.1,112.8,19.4,103.5,18.7z M135.8,42.4c0-0.1,0-0.2,0-0.3c0-0.8,0-1.7,0-2.5c0-0.7,0-1.4-0.1-2.2
		c-0.8-4.9-4.8-8.9-10.2-10.1c-2.7-0.6-5.4-0.6-8.1,0.3c-4.9,1.6-7.9,4.7-8.9,9.2c-0.3,1.4-0.3,2.7-0.3,4.1c0,0.4-0.1,0.5-0.5,0.4
		c-1.7,0-3.3-0.1-5-0.1c-3.2,0-6.3-0.1-9.5-0.1c-2.4,0-4.8-0.1-7.2-0.1c-2.6,0-5.3-0.1-7.9-0.1c-2.6,0-5.3-0.1-7.9-0.1
		c-2.6,0-5.3-0.1-7.9-0.1c-2.7,0-5.5-0.1-8.3-0.1c-2.3,0-4.5-0.1-6.8-0.1c-0.7,0-1-0.3-1-0.8c0-0.4,0-0.8,0-1.3
		c-0.1-2.3-0.9-4.5-2.4-6.4c-2-2.5-4.6-4.2-8-5c-3.3-0.8-6.5-0.6-9.6,0.7c-3.1,1.3-5.5,3.3-6.9,6.1c-0.9,1.7-1.4,3.5-1.3,5.4
		c0,0.7-0.4,1-1.1,1c-0.6,0-1.2-0.1-1.8-0.1c-0.7-0.1-1.5-0.1-2.3-0.2c0.7,0.8,1.6,1.3,2.7,1.3c0.9,0,1.8,0.1,2.7,0.1
		c0.6,0,1.3,0,1.9,0c-0.5-2.1-0.3-4.2,0.7-6.3c0.9-2,2.4-3.7,4.5-4.9c2.1-1.2,4.4-1.9,6.8-1.8c4,0.1,7.3,1.5,9.7,4.3s2.9,6,2,9.4
		c22.1,0.4,44.2,0.2,66.3,0.2c-1.3-4.7,0-8.8,4.5-11.7c4-2.7,8.4-2.9,12.9-1c2,0.9,3.6,2.2,4.8,3.9c1.9,2.8,2.2,5.8,1.2,8.9
		C134.3,42.4,135,42.4,135.8,42.4z M121.9,49.2c6.4,0,11.5-4.5,11.5-10.1c0.1-5.6-5.1-10.1-11.5-10.1c-6.4,0-11.5,4.6-11.5,10.1
		C110.4,44.6,115.7,49.3,121.9,49.2z M20.7,39.1c0,5.7,5.3,10,11.2,10.1c6.2,0.1,11.8-4.1,11.8-10.2c0-5.8-5.3-10-11.5-10
		C25.9,29,20.7,33.5,20.7,39.1z M10.3,14.2c0.9,0,1.7,0,2.5,0c2,0,4.1,0.1,6.1-0.2c1.5-0.2,3-0.5,4.3-1.2c1.3-0.7,2.6-1.4,3.9-2.2
		C30.2,8.9,33,7,35.9,5.3c0.3-0.2,0.6-0.3,0.9-0.5c-0.1,0-0.2,0-0.2,0c-1.4,0-2.7,0.1-4.1,0.1C30.1,4.9,27.7,5,25.3,5
		c-1.7,0.1-3.4,0.1-5.1,0.1c-0.2,0-0.4,0.1-0.6,0.2c-0.6,0.5-1.2,0.9-1.8,1.5c-2.1,2-4.1,3.9-6.1,5.9C11.3,13.2,10.9,13.7,10.3,14.2
		z M107.4,39.1c-20.2-0.4-40.3-0.9-60.5-1.4c0,0.7,0,1.4,0,2.1c0,0.2,0.2,0.2,0.3,0.2c2.1,0,4.2,0.1,6.2,0.1c2.7,0,5.4,0.1,8.2,0.1
		c2.6,0,5.2,0.1,7.9,0.1c2.7,0,5.4,0.1,8.1,0.1c2.6,0,5.3,0.1,7.9,0.1c2.3,0,4.7,0.1,7,0.1c3.4,0,6.8,0.1,10.1,0.1
		c1.5,0,2.9,0,4.4,0.1c0.2,0,0.3,0,0.5,0C107.4,40.2,107.4,39.7,107.4,39.1z M6.2,14.5c1-0.1,1.9-0.2,2.9-0.3c0.2,0,0.4-0.1,0.5-0.2
		c1.2-1.2,2.3-2.5,3.6-3.7c1.6-1.5,3.2-3,4.8-4.5c0.2-0.2,0.5-0.4,0.7-0.6c-1.3,0-2.6,0-3.9,0c-0.4,0-0.6,0.1-0.8,0.3
		c-1.7,1.5-3.2,3.2-4.7,4.9c-0.8,0.9-1.5,1.8-2.2,2.7c-0.3,0.3-0.5,0.7-0.7,1C6.3,14.3,6.3,14.4,6.2,14.5z M16.7,23.8
		c-0.1-0.1-0.2-0.2-0.3-0.2c-1.9-1.4-3.9-2.9-5.7-4.4c-1-0.8-2.1-1-3.3-0.6c-0.1,0-0.2,0.1-0.3,0.2c-0.6,1.4-0.8,2.9-0.7,4.4
		c0,0.2,0,0.4,0,0.6C9.9,23.8,13.3,23.8,16.7,23.8z M86.2,4.4c0.1,0,0.1,0.1,0.1,0.1c1.4,0.7,2.8,1.5,4.2,2.2
		c3.8,2.1,7.5,4.3,11.1,6.6c1.5,0.9,3,1.6,4.8,1.8c0.6,0.1,1.2,0,1.7,0c0,0,0,0,0-0.1c-0.1,0-0.1-0.1-0.2-0.1
		c-4.6-2.5-9.2-5.1-13.9-7.6c-1.9-1-3.8-2-5.8-2.8C87.6,4.3,87,4.2,86.2,4.4C86.3,4.4,86.3,4.4,86.2,4.4z M70.5,16
		c-1-4.2-2-8.4-3-12.6c-0.6,0-1.2,0-1.8,0C66,5,66.3,6.5,66.6,8.1c0.3,1.8,0.6,3.7,0.9,5.5c0.1,0.7,0.2,1.4,0.3,2
		c0,0.1,0.1,0.2,0.2,0.2C68.8,15.9,69.6,16,70.5,16z M63.6,3.3c0,0.1,0,0.2,0,0.2c0.2,1.6,0.3,3.1,0.5,4.7c0.2,2.4,0.5,4.8,0.7,7.2
		c0,0.2,0.1,0.2,0.3,0.2c0.5,0,1.1,0.1,1.6,0.1c0.2,0,0.3,0,0.5,0c-0.7-4.2-1.4-8.3-2-12.5C64.6,3.3,64.1,3.3,63.6,3.3z M142.2,27.3
		C142.2,27.3,142.2,27.3,142.2,27.3c-0.2-0.5-0.4-1-0.6-1.4c-0.2-0.4-0.5-0.8-1-1c-0.8-0.4-1.6-0.7-2.4-1c-1.7-0.6-3.5-0.8-5.3-1.1
		c-0.4-0.1-0.8-0.1-1.2-0.2c0.1,0.1,0.2,0.2,0.3,0.3c0.7,0.4,1.3,0.8,2,1.2c2.3,1.1,4.7,2,7.1,2.8C141.4,27,141.8,27.2,142.2,27.3z
		 M149.3,35.8c-0.5-0.4-1-0.6-1.6-0.8c-0.6-0.1-0.8-0.1-1.2,0.4c-0.6,0.7-1.1,1.4-1.7,2.1c-0.4,0.5-1,0.8-1.7,0.8
		c-0.6,0-1.2,0.1-1.8,0.1c-0.1,0-0.2,0-0.3,0.1c-0.2,0.2-0.3,0.4-0.4,0.7c0.2,0,0.4,0.1,0.6,0.1c1.6,0,3.1,0.1,4.7,0.1
		c0.2,0,0.4-0.1,0.5-0.3c0.1-0.2,0.3-0.4,0.4-0.6c0.4-0.7,0.8-1.5,1.1-2.2c0.2-0.4,0.5-0.7,1.1-0.6C149,35.8,149.1,35.8,149.3,35.8z
		 M98.2,16c0-0.2,0-0.3-0.1-0.5c-0.1-1.2-0.8-1.9-2.3-2.3c-1-0.2-1.9,0-2.8,0.4c-0.2,0.1-0.3,0.2-0.4,0.4c-0.1,0.6-0.2,1.2-0.3,1.8
		C94.4,15.9,96.3,15.9,98.2,16z M141.4,37.8c0.5,0,0.9-0.1,1.4-0.1c0.8,0,1.3-0.4,1.7-0.9c0.5-0.6,1-1.2,1.5-1.9
		c0.2-0.2,0.4-0.5,0.8-0.6c0.1,0,0.2-0.1,0.2-0.1c0.1-0.4,0.2-0.7,0.2-1.1c-0.5,0-1,0-1.5-0.1c-0.7-0.1-1.3,0.1-1.6,0.6
		c-0.5,0.7-1.1,1.5-1.6,2.2C142.1,36.6,141.8,37.2,141.4,37.8z M12.5,3.7C12.5,3.7,12.5,3.8,12.5,3.7c0.7,0.3,1.4,0.6,2,0.8
		c0.1,0,0.1,0,0.2,0c1.6,0,3.2,0,4.8,0c0.1,0,0.2,0,0.3-0.1c0.6-0.4,1.2-0.9,1.8-1.4c-0.3-0.2-0.5-0.5-1-0.4
		c-1.6,0.2-3.2,0.3-4.8,0.5C14.6,3.3,13.5,3.5,12.5,3.7z M131.9,22c0.1,0,0.1,0,0.1,0c1.2,0.2,2.3,0.4,3.5,0.6
		c1.9,0.3,3.8,0.8,5.5,1.7c0.6,0.3,1.1,0.7,1.4,1.3c0.3,0.6,0.5,1.1,0.8,1.7c0.1,0.3,0.4,0.4,0.8,0.3c0-0.1,0-0.2-0.1-0.3
		c-0.6-1.2-1.2-2.4-1.8-3.6c-0.2-0.3-0.5-0.5-0.9-0.6c-1.8-0.3-3.5-0.7-5.3-1c-0.9-0.2-1.8-0.2-2.7-0.3
		C132.7,21.7,132.2,21.7,131.9,22z M8.5,15C8.5,15,8.5,14.9,8.5,15c-0.9,0-1.8,0.2-2.7,0.3c-0.1,0-0.2,0.1-0.2,0.2
		c-0.3,0.4-0.5,0.7-0.7,1.1c-0.4,0.6-0.6,1.3-0.7,2c0.1,0,0.1,0,0.1,0c0.7,0,0.9,0.2,0.8,0.8c-0.1,0.5-0.2,0.9-0.2,1.4
		c0,0.2,0,0.5,0,0.8C4.9,21,5,20.5,5.1,19.9c0.1-0.8,0.5-1.5,1.4-1.8c0.1,0,0.1-0.1,0.1-0.2c0-0.6,0.2-1.1,0.5-1.5
		C7.4,15.9,7.9,15.4,8.5,15z M148.5,29.4c0.4-0.2,0.5-0.4,0.5-0.7c0-0.4,0-0.8-0.1-1.2c-0.2-0.9-0.4-1.8-0.7-2.6
		c-0.1-0.5-0.6-0.7-1.1-0.9c0,0.3,0,0.6,0,0.9c0,0.4-0.2,0.6-0.6,0.8c-0.2,0.1-0.4,0.2-0.7,0.3c0.1,0.3,0.3,0.6,0.4,0.9
		c0.1,0.2,0.2,0.3,0.4,0.3c0.6,0,1,0.3,1.2,0.8c0.1,0.3,0.3,0.6,0.4,0.9C148.4,29.1,148.4,29.2,148.5,29.4z M71.8,1.6
		c-0.3,0-0.6,0-0.8-0.1c-2-0.1-4.1-0.3-6.1-0.3c-3-0.1-6-0.1-9.1-0.2c-2.7,0-5.5,0.1-8.2,0.1c-0.4,0-0.5,0.2-0.7,0.4
		C55.2,1.4,63.5,1.3,71.8,1.6z M146.6,32.6C146.6,32.6,146.6,32.5,146.6,32.6c-0.5-0.2-1.1-0.2-1.6-0.3c-0.8-0.1-1.5,0.1-2,0.7
		c-0.1,0.1-0.2,0.2-0.3,0.3c-0.7,0.9-1.3,1.8-1.9,2.7c-0.4,0.6-0.8,1.3-1.1,1.9c-0.3,0.5-0.1,0.8,0.3,1.1c0.1-0.1,0.1-0.2,0.2-0.2
		c0.4-0.8,0.8-1.5,1.3-2.2c0.6-1,1.3-2,2-2.9c0.5-0.7,1.3-1,2.3-0.9C146,32.6,146.3,32.6,146.6,32.6z M92.4,16.4
		c-0.1,0.3-0.1,0.5,0.3,0.6c0.4,0.1,0.8,0.3,1.2,0.3c1.4,0.1,2.8,0.2,4.2,0.3c0.1,0,0.2,0,0.2,0c0.3-0.3,0.6-0.6,0.8-1
		C96.8,16.6,94.7,16.5,92.4,16.4z M99,16c0.1,0,0.1,0,0.2,0c0.6,0.1,0.8,0.5,0.5,1c-0.1,0.1-0.2,0.3-0.3,0.4
		c-0.1,0.1-0.1,0.2-0.2,0.3c1.1,0.1,2.1,0.2,3.1,0.2c-0.3-1-2.3-2.9-3.6-3.5C98.8,14.9,98.9,15.5,99,16z M30.9,2.1
		C30.9,2.1,30.9,2.2,30.9,2.1C31,2.2,31,2.2,31.1,2.2c3.6-0.2,7.1-0.3,10.7-0.5c0.4,0,0.6-0.2,0.8-0.4c-0.5,0-1,0-1.6,0
		c-3.2,0.1-6.5,0.3-9.7,0.6C31.2,1.9,31,2,30.9,2.1z M145.5,25.4c0.8-0.1,0.9-0.2,0.9-0.9c0-0.2,0-0.6,0.1-0.7
		c0.2-0.3,0.1-0.5,0-0.8c-0.4,0-0.8,0-1.2,0.1c-0.4,0-0.5,0.1-0.4,0.5C145.1,24.1,145.4,24.8,145.5,25.4z M4.6,28.1
		c0.1,0,0.1,0,0.2,0C4.8,27.8,5,27.5,5,27.2c0.1-0.8,0.3-1.5,0.6-2.3c0.1-0.2,0.1-0.4,0.2-0.6c-0.5,0-0.9-0.1-1-0.4
		c-0.1,0.5-0.2,1.1-0.3,1.6c0,0.1,0,0.1,0,0.2C4.5,26.5,4.6,27.3,4.6,28.1z M80.4,2.4C80.4,2.5,80.4,2.5,80.4,2.4
		c0.3,0.2,0.6,0.3,1,0.4c1.1,0.3,2.1,0.6,3.2,0.9c0.5,0.2,1,0.1,1.5,0C84.2,3.2,82.4,2.7,80.4,2.4z M95.9,12.5
		c-0.6-0.4-1.2-0.8-1.9-1.2c0,0.5,0,0.9,0,1.3C94.6,12.5,95.2,12.5,95.9,12.5z M149.1,33.9c0-0.9,0-1.8,0-2.6c-0.2,0-0.3,0-0.4,0
		c0,0.6,0,1.1,0,1.6c0,0.1-0.1,0.2-0.1,0.3c0,0.2-0.1,0.4-0.1,0.5C148.7,33.8,148.9,33.8,149.1,33.9z M5.8,23.7
		c-0.1-1.6-0.1-3.2,0.5-4.7c-0.3,0.2-0.5,0.6-0.5,0.9c-0.1,1.2-0.3,2.4-0.4,3.6C5.4,23.7,5.5,23.8,5.8,23.7z M46.2,1.2
		c-0.7,0-1.4,0-2.1,0c-0.4,0-0.5,0.2-0.7,0.4c0.7,0,1.4,0,2.1,0C45.9,1.6,46.1,1.5,46.2,1.2z M148.4,30.4c0.1,0,0.1,0,0.1-0.1
		c-0.1-0.1-0.1-0.3-0.2-0.3c-0.4-0.1-0.5-0.4-0.6-0.7c-0.2-0.4-0.3-0.8-0.5-1.2c-0.1-0.2-0.2-0.3-0.6-0.3c0.4,0.7,0.8,1.4,1.2,2
		C147.9,30.1,148.2,30.2,148.4,30.4z M21.9,2.6c0.3,0.3,1,0.2,1.6-0.1C22.9,2.5,22.5,2.5,21.9,2.6z M118,16.1
		C118,16.1,118,16.1,118,16.1c-0.8-0.2-1.6-0.3-2.4-0.4c0,0,0,0.1,0,0.1C116.4,16,117.2,16,118,16.1z M5.7,14
		c0.1-0.2,0.2-0.3,0.3-0.4c-0.3-0.1-0.5-0.1-0.7-0.2c0,0-0.1,0.1-0.1,0.1C5.3,13.7,5.5,13.8,5.7,14z M147.9,38
		c-0.3,0.5-0.5,0.9-0.7,1.4C147.4,39.3,147.8,38.5,147.9,38z M26,1.1c-0.1-0.2-0.2-0.3-0.4-0.4c0,0.2,0,0.4,0,0.5
		C25.8,1.2,25.9,1.2,26,1.1z M147.9,33.5C147.9,33.5,147.8,33.5,147.9,33.5c-0.1,0.2-0.2,0.5-0.2,0.7c0.1,0,0.1,0,0.1,0
		C147.8,34,147.9,33.8,147.9,33.5z"/>
	<path d="M75.7,21.7c-1.3,0-2.3-0.1-3.3-0.1c-1.2-0.1-1.7-0.6-1.8-1.7C70.5,19,71,18.5,72,18.3c0.8-0.1,1.5,0,2.2,0.2
		c1,0.2,2,0.5,3,0.8c0.5,0.2,1,0.4,1.4,0.8c0.5,0.6,0.3,1.3-0.6,1.5C77.2,21.6,76.3,21.7,75.7,21.7z M76.1,19.6
		C76.1,19.6,76.1,19.5,76.1,19.6c-0.9-0.2-1.8-0.4-2.6-0.6c-0.5-0.1-1,0-1.5,0c-0.2,0-0.3,0.1-0.4,0.2c0.2,0,0.4,0,0.5,0
		c0.5-0.1,1-0.1,1.4,0.3c0.1,0.1,0.3,0.2,0.5,0.2C74.6,19.6,75.3,19.6,76.1,19.6z M73.5,20.2c-0.2-0.1-0.4-0.2-0.6-0.3
		c-0.4-0.3-0.9-0.3-1.3,0C71.7,20.3,72.2,20.4,73.5,20.2z M72.4,21c1.3,0,2.6,0.1,4,0.1C76,20.7,74.6,20.7,72.4,21z M76.3,20.2
		c0.6,0.3,1,0.4,1.5,0.2C77.3,19.9,76.8,20.1,76.3,20.2z"/>
	<path d="M40.8,20.5c-0.8,0-1.7,0-2.5-0.1c-1.1-0.1-1.6-0.6-1.7-1.5c-0.2-1.1,0.5-1.8,1.8-1.7c0.8,0,1.5,0.1,2.2,0.3
		c0.9,0.2,1.8,0.4,2.7,0.7c0.5,0.1,0.9,0.4,1.2,0.7c0.6,0.7,0.4,1.4-0.6,1.5c-0.8,0.1-1.7,0.1-2.5,0.1
		C41.2,20.5,41.1,20.5,40.8,20.5z M37.5,18c0,0,0,0.1,0,0.1c0.1,0,0.3,0,0.4-0.1c0.5-0.1,1-0.1,1.4,0.3c0.1,0.1,0.3,0.2,0.4,0.2
		c0.7,0,1.5,0,2.2,0c-0.4-0.1-0.8-0.2-1.1-0.3c-0.8-0.2-1.6-0.4-2.4-0.4C38.1,17.8,37.8,17.9,37.5,18z M42.4,20c0,0,0-0.1,0-0.1
		c-1.4-0.3-2.7-0.1-4.1,0C39.7,19.9,41,19.9,42.4,20z M39.5,19.1c-0.2-0.1-0.4-0.1-0.5-0.2c-0.3-0.3-0.7-0.3-1.1-0.2
		c-0.1,0-0.2,0.1-0.3,0.2c0.1,0.1,0.2,0.2,0.3,0.3C38.4,19.2,38.9,19.2,39.5,19.1z M43.8,19.3c-0.4-0.4-0.6-0.4-1.5-0.2
		C42.8,19.4,43.2,19.5,43.8,19.3z"/>
	<path d="M131.1,39.4c0,4.2-4.3,8-9.6,7.8c-5.3-0.3-8.9-4-8.8-8.4c0.2-4.5,4.5-8,9.6-7.8C127.4,31.2,131.3,35,131.1,39.4z M129,43.3
		c-0.2-0.1-0.4-0.2-0.5-0.2c-1.2-0.9-2.3-1.8-3.4-2.7c-0.2-0.1-0.3-0.3-0.2-0.5c0.1-0.2,0.3-0.3,0.5-0.3c0.2,0,0.4,0,0.6,0
		c1.5-0.1,2.9-0.2,4.4-0.4c0-0.1,0-0.2,0-0.3c-0.2,0-0.5,0-0.7,0c-1.2-0.1-2.3-0.2-3.4-0.3c-0.3,0-0.7,0-1-0.1
		c-0.5-0.1-0.6-0.4-0.3-0.7c0.1,0,0.1-0.1,0.2-0.2c0.8-0.6,1.5-1.2,2.2-1.7c0.5-0.4,1-0.7,1.5-1.1c-0.1-0.1-0.2-0.2-0.2-0.3
		c-0.2,0.1-0.3,0.2-0.4,0.3c-1.3,0.7-2.6,1.4-3.9,2c-0.2,0.1-0.4,0.1-0.6,0c-0.2-0.1-0.2-0.3-0.2-0.6c0-0.1,0.1-0.2,0.1-0.2
		c0.4-1.3,0.7-2.7,1.1-4c-0.1,0-0.2-0.1-0.4-0.1c-0.1,0.2-0.1,0.4-0.2,0.6c-0.2,0.5-0.5,0.9-0.7,1.4c-0.3,0.7-0.7,1.4-1,2
		c-0.1,0.2-0.2,0.4-0.5,0.4c-0.3,0-0.4-0.2-0.5-0.4c-0.1-0.2-0.2-0.4-0.3-0.5c-0.6-1.2-1.1-2.3-1.7-3.5c-0.1,0-0.2,0.1-0.3,0.1
		c0.1,0.1,0.1,0.2,0.1,0.4c0.3,1.3,0.7,2.6,1,3.9c0.1,0.2,0,0.4-0.2,0.5c-0.2,0.1-0.4,0.1-0.6,0c-1.4-0.8-2.8-1.5-4.3-2.2
		c-0.1,0.1-0.1,0.2-0.2,0.2c0.2,0.2,0.4,0.3,0.6,0.4c1,0.8,2,1.6,3.1,2.4c0.2,0.2,0.4,0.3,0.3,0.6c-0.1,0.3-0.4,0.3-0.7,0.3
		c-1.6,0.1-3.2,0.2-4.9,0.4c0,0.1,0,0.2,0,0.3c0.5,0,1,0.1,1.5,0.1c1.2,0.1,2.3,0.2,3.5,0.3c0.2,0,0.4,0.1,0.5,0.3
		c0.1,0.1-0.1,0.3-0.1,0.5c0,0-0.1,0.1-0.1,0.1c-1.1,0.8-2.1,1.6-3.2,2.4c-0.2,0.2-0.4,0.3-0.6,0.4c0.1,0.1,0.2,0.2,0.3,0.3
		c0.2-0.2,0.4-0.3,0.7-0.4c1-0.5,1.9-1,2.9-1.5c0.3-0.1,0.6-0.3,0.8-0.4c0.4-0.2,0.8,0.1,0.7,0.5c0,0.1,0,0.2-0.1,0.2
		c-0.2,0.6-0.3,1.2-0.5,1.8c-0.2,0.8-0.4,1.6-0.6,2.4c0.1,0,0.2,0.1,0.4,0.1c0.1-0.3,0.2-0.5,0.3-0.8c0.5-1.1,1.1-2.2,1.6-3.3
		c0.1-0.2,0.2-0.4,0.6-0.4c0.3,0,0.5,0.2,0.6,0.4c0.2,0.4,0.4,0.8,0.6,1.2c0.4,1,1,1.9,1.3,2.9c0.2,0,0.3-0.1,0.4-0.1
		c-0.1-0.2-0.2-0.4-0.3-0.6c-0.3-1.2-0.6-2.5-0.9-3.7c-0.1-0.2-0.1-0.4,0.2-0.6c0.2-0.2,0.5-0.1,0.7,0c1,0.5,2,1.1,3,1.6
		c0.4,0.2,0.8,0.4,1.2,0.7C128.8,43.5,128.9,43.4,129,43.3z M115.9,34.2c1.2,0.6,2.4,1.3,3.7,1.9c-0.3-1.3-0.6-2.5-0.9-3.7
		C117.6,32.9,116.7,33.4,115.9,34.2z M128.1,43.9c-1.2-0.6-2.4-1.3-3.7-1.9c0.3,1.3,0.6,2.5,0.9,3.7
		C126.4,45.2,127.3,44.7,128.1,43.9z M123.7,46.1c-0.6-1.2-1.1-2.3-1.7-3.5c-0.6,1.2-1.1,2.3-1.7,3.5
		C121.4,46.4,122.5,46.4,123.7,46.1z M122,35.5c0.6-1.2,1.1-2.3,1.7-3.5c-1.2-0.2-2.3-0.2-3.4,0C120.8,33.2,121.4,34.3,122,35.5z
		 M118,38c-1.1-0.8-2.1-1.7-3.2-2.5c-0.6,0.9-0.9,1.8-1.1,2.8C115.2,38.2,116.6,38.1,118,38z M114.8,42.6c1.1-0.8,2.1-1.6,3.2-2.5
		c-1.5-0.1-2.8-0.2-4.3-0.3C113.9,40.8,114.3,41.7,114.8,42.6z M129.1,35.5c-1.1,0.8-2.1,1.6-3.2,2.5c1.5,0.1,2.8,0.2,4.3,0.3
		C130,37.3,129.6,36.4,129.1,35.5z M129.1,42.7c0.6-0.9,0.9-1.8,1-2.8c-1.4,0.1-2.8,0.2-4.2,0.4C126.9,41,128,41.9,129.1,42.7z
		 M128,34.2c-0.8-0.8-1.7-1.3-2.7-1.8c-0.3,1.2-0.6,2.4-0.9,3.6C125.6,35.5,126.8,34.9,128,34.2z M115.9,43.9
		c0.8,0.8,1.7,1.3,2.7,1.8c0.3-1.2,0.6-2.4,0.9-3.7C118.3,42.6,117.1,43.2,115.9,43.9z"/>
	<path d="M41.4,39.3c0.2,3.9-4,8.2-9.7,7.9c-5.6-0.3-8.9-4.3-8.7-8.5c0.3-4.5,4.5-7.9,9.6-7.7C38.1,31.3,41.5,35.3,41.4,39.3z
		 M38.9,34.6c-0.2,0.1-0.3,0.2-0.5,0.3c-0.6,0.3-1.1,0.6-1.7,0.9c-0.7,0.4-1.4,0.7-2.1,1.1c-0.2,0.1-0.4,0.1-0.6,0
		c-0.2-0.1-0.3-0.3-0.2-0.5c0-0.1,0-0.1,0.1-0.2c0.1-0.4,0.2-0.8,0.3-1.2c0.3-1,0.5-2,0.8-2.9c-0.1,0-0.2-0.1-0.3-0.1
		c-0.2,0.5-0.4,0.9-0.6,1.3c-0.4,0.9-0.9,1.8-1.3,2.7c-0.1,0.2-0.2,0.4-0.5,0.4c-0.3,0-0.5-0.2-0.6-0.4c-0.1-0.2-0.2-0.4-0.3-0.5
		c-0.6-1.1-1.1-2.3-1.7-3.4c-0.1,0-0.2,0.1-0.3,0.1c0.2,0.6,0.3,1.1,0.4,1.6c0.2,0.9,0.5,1.8,0.7,2.6c0.1,0.2,0.1,0.4-0.2,0.6
		c-0.2,0.1-0.4,0.1-0.6,0c-1.4-0.8-2.8-1.5-4.3-2.3c-0.1,0.1-0.1,0.2-0.2,0.2c0.2,0.1,0.4,0.3,0.6,0.4c0.9,0.7,1.7,1.4,2.6,2
		c0.2,0.2,0.5,0.3,0.6,0.5c0.1,0.1,0.2,0.3,0.2,0.5c-0.1,0.1-0.3,0.2-0.5,0.3c-0.1,0-0.2,0-0.3,0c-0.4,0-0.7,0-1.1,0.1
		c-1.2,0.1-2.5,0.2-3.7,0.3c0,0.1,0,0.2,0,0.3c0.3,0,0.5,0,0.8,0c0.5,0,1,0.1,1.5,0.1c0.9,0.1,1.8,0.1,2.8,0.2
		c0.2,0,0.4,0.1,0.5,0.3c0.1,0.2,0,0.4-0.1,0.5c-0.1,0-0.1,0.1-0.2,0.2c-1.1,0.8-2.1,1.6-3.2,2.4c-0.2,0.1-0.4,0.2-0.6,0.4
		c0.1,0.1,0.2,0.2,0.3,0.3c0.3-0.2,0.5-0.4,0.8-0.5c0.8-0.4,1.6-0.8,2.3-1.2c0.4-0.2,0.8-0.4,1.3-0.6c0.4-0.2,0.8,0,0.8,0.5
		c0,0.1,0,0.1,0,0.2c-0.2,0.8-0.5,1.6-0.7,2.5c-0.2,0.6-0.3,1.2-0.5,1.7c0.1,0,0.2,0.1,0.3,0.1c0.1-0.2,0.2-0.5,0.3-0.7
		c0.6-1.1,1.1-2.2,1.7-3.3c0.1-0.2,0.3-0.4,0.6-0.4c0.3,0,0.4,0.2,0.5,0.4c0.7,1.4,1.3,2.7,2,4.1c0.1,0,0.2-0.1,0.4-0.1
		c-0.1-0.2-0.2-0.3-0.2-0.4c-0.3-1.3-0.7-2.6-1-3.9c-0.1-0.2-0.1-0.4,0.2-0.6c0.2-0.1,0.5,0,0.7,0.1c1.1,0.6,2.3,1.2,3.4,1.8
		c0.3,0.2,0.6,0.3,0.9,0.5c0.1-0.1,0.2-0.2,0.2-0.3c-0.2-0.1-0.4-0.2-0.6-0.4c-1.1-0.8-2.1-1.7-3.2-2.5c-0.2-0.2-0.4-0.3-0.3-0.6
		c0.1-0.2,0.3-0.3,0.6-0.3c0.8-0.1,1.6-0.1,2.5-0.2c0.8-0.1,1.6-0.1,2.5-0.2c0-0.1,0-0.2,0-0.3c-0.3,0-0.5,0-0.7,0
		c-0.9-0.1-1.7-0.1-2.6-0.2c-0.6,0-1.2-0.1-1.8-0.2c-0.5,0-0.6-0.4-0.3-0.7c0.1-0.1,0.1-0.1,0.2-0.2c0.6-0.5,1.3-1,1.9-1.5
		c0.6-0.4,1.2-0.9,1.8-1.4C39.1,34.8,39,34.7,38.9,34.6z M38.3,43.9c-1.2-0.6-2.4-1.2-3.6-1.9c0.3,1.3,0.6,2.5,0.9,3.7
		C36.4,45.4,37.9,44.4,38.3,43.9z M26.1,34.2c1.2,0.6,2.4,1.3,3.7,1.9c-0.3-1.3-0.6-2.5-0.9-3.7C27.8,32.9,26.9,33.5,26.1,34.2z
		 M33.9,32c-1.2-0.2-2.3-0.2-3.4,0c0.6,1.2,1.1,2.3,1.7,3.5C32.8,34.3,33.4,33.2,33.9,32z M33.9,46.1c-0.6-1.1-1.1-2.2-1.7-3.4
		c-0.6,1.2-1.1,2.3-1.7,3.4C31.3,46.4,33.2,46.4,33.9,46.1z M40.3,39.9c-1.4,0.1-2.8,0.2-4.2,0.4c1.1,0.8,2.1,1.7,3.2,2.5
		C39.9,41.8,40.2,40.9,40.3,39.9z M36.1,38c1.5,0.1,2.8,0.2,4.3,0.3c-0.2-1-0.5-1.9-1-2.8C38.3,36.3,37.2,37.1,36.1,38z M25.1,42.6
		c1.1-0.8,2.1-1.6,3.2-2.5c-1.5-0.1-2.8-0.2-4.3-0.3C24.2,40.8,24.5,41.7,25.1,42.6z M28.3,38c-1.1-0.8-2.1-1.7-3.2-2.5
		c-0.6,0.9-0.9,1.8-1,2.8C25.5,38.2,26.8,38.1,28.3,38z M35.6,32.5c-0.3,1.2-0.6,2.4-0.9,3.7c1.2-0.6,2.4-1.3,3.6-1.9
		C37.5,33.4,36.6,32.9,35.6,32.5z M29.8,42c-1.2,0.6-2.4,1.3-3.6,1.9c0.8,0.8,1.7,1.3,2.7,1.8C29.2,44.4,29.5,43.2,29.8,42z"/>
	<path d="M120,39.1c0-1,0.9-1.8,2-1.8c1.1,0,2,0.8,2,1.7c0,1-0.9,1.8-2,1.8C120.9,40.9,120,40.1,120,39.1z M122,38.4
		c-0.4,0-0.8,0.3-0.8,0.7c0,0.4,0.3,0.7,0.8,0.7c0.4,0,0.7-0.3,0.8-0.7C122.7,38.7,122.4,38.4,122,38.4z"/>
	<path d="M34.2,39.1c0,1-0.9,1.8-2,1.8c-1.1,0-2-0.8-2-1.8c0-1,0.9-1.8,2-1.8C33.4,37.3,34.2,38.1,34.2,39.1z M32.2,39.8
		c0.4,0,0.8-0.3,0.8-0.7c0-0.3-0.4-0.6-0.7-0.6c-0.4,0-0.8,0.3-0.8,0.7C31.5,39.5,31.8,39.8,32.2,39.8z"/>
</g>
</svg>
