<?xml version="1.0" encoding="utf-8"?>
<!-- Generator: Adobe Illustrator 27.4.0, SVG Export Plug-In . SVG Version: 6.00 Build 0)  -->
<svg version="1.1" id="Layer_1" xmlns="http://www.w3.org/2000/svg" xmlns:xlink="http://www.w3.org/1999/xlink" x="0px" y="0px"
	 viewBox="0 0 596.6 224.6" style="enable-background:new 0 0 596.6 224.6;" xml:space="preserve">
<g>
	<path d="M17,90c-2.8-0.2-3.4-0.9-3.4-3.6c0.1-5.2,1.4-10.2,4.2-14.7c1.3-2,2.4-4.1,3.6-6.2c-0.6-0.5-1.2-0.9-1.6-1.4
		c-0.6-0.8-1.4-1.7-1.6-2.7c-0.6-2.1,0.9-3.7,3.1-3.5c1.3,0.1,2.6,0.6,3.9,0.9c4.6-6.2,9.2-12.6,13.9-18.8
		c4.7-6.3,9.9-12.1,15.6-17.9c-2.1-0.9-4.1-1.7-6-2.5c-0.6-0.2-1.2-0.3-1.7-0.6c-0.9-0.4-1.5-1-1.5-2.1c0-1,0.6-1.8,1.5-2.1
		c1.9-0.6,3.9-1.4,5.9-1.7c10.4-1.5,20.8-2.8,31.2-4.1c4.5-0.6,9-0.9,13.5-1.3c1.1-0.1,1.6-0.6,1.6-1.8c0-1,0-2.1,0-3.1
		c-0.1-1.2,0.2-2.1,1.4-2.6c1.3-0.4,2.8-0.1,3.6,0.9c0.6,0.8,1.1,1.6,1.6,2.4c0.4,0.7,0.9,0.9,1.6,0.9c1.9,0,3.9-0.3,5.5,1
		c0.2,0.1,0.5,0.1,0.8,0.1c11.8-2.4,23.8-3.3,35.8-3.9c8.7-0.4,17.3-0.7,26-0.9c11.4-0.3,22.8-0.5,34.2-0.6
		c8.6-0.1,17.2-0.3,25.8-0.1c15,0.2,30,0.8,44.9,2.1c6,0.5,12,1.2,18,2c2.4,0.3,4.8,1.2,7.2,1.7c2.5,0.5,5.1,0.9,7.6,1.3
		c18.9,2.6,36.7,8.1,53,18.1c15.7,9.6,31.4,19.4,47.1,29.1c6.8,4.2,13.5,8.5,20.3,12.8c1,0.6,1.9,0.8,3,0.7
		c4.3-0.3,8.6-0.9,12.9-0.8c5.3,0.1,10.6,0.2,15.8,1c16.3,2.4,32.5,4.9,48.7,7.8c21.6,3.8,42.7,9.6,63,17.9c2,0.8,3.9,1.6,5.8,2.6
		c1.2,0.7,2.3,1.6,3.2,2.6c1.6,1.7,1.3,3-0.6,4.4c0.1,0.6,0.2,1.2,0.4,1.8c0.1,0.4,0.4,0.8,0.8,0.9c3,1.2,4.9,3.3,5.5,6.6
		c1,5.1,2,10.2,2.9,15.3c0.4,2.3-0.2,4.5-1.9,6.3c-0.2,0.2-0.3,0.7-0.2,1c0.1,0.8,0.3,1.6,0.6,2.3c0.1,0.4,0.4,0.8,0.8,0.9
		c1,0.4,1.4,1.2,1.4,2.2c0,4.2,0,8.4,0,12.6c0,1.3-0.9,2.1-2.2,2.2c-0.8,0-1.7,0-2.5,0c-0.4,0-0.7,0.2-1.3,0.4
		c1.6,0.9,2.9,1.6,4.1,2.5c0.8,0.6,1.7,1.3,2.3,2.1c1.3,1.6,0.7,3.4-1.4,3.8c-1.2,0.2-1.6,0.8-1.9,1.8c-1.4,4.1-2.9,8.3-4.4,12.5
		c0.5,0.3,1.3,0.7,1.9,1.2c0.9,0.9,1.9,1.9,2.4,3c0.8,1.7-0.3,3.5-2.1,3.7c-3.7,0.3-7.3,0.4-11,0.5c-3.9,0.2-7.7,0.3-11.6,0.6
		c-2,0.2-4,0.4-5.9,1c-5.8,1.9-11.7,2.7-17.8,2.3c-0.5,0-1,0-1.7,0c0,0.5,0,1,0,1.4c0,1.3-0.5,1.7-1.7,1.7c-3.2,0-6.5,0-9.7,0
		c-0.9,0-1.2,0.3-1.6,1.1c-7,15.8-18.9,25.6-35.9,28.8c-22.5,4.3-44.7-8-53.5-29.2c-0.4-1-0.9-1.3-2-1.3c-62.3,0-124.5,0-186.8,0
		c-12.5,0-25-0.2-37.5-0.4c-6.5-0.1-12.9-0.1-19.4-0.2c-6.5-0.1-12.9-0.2-19.4-0.3c-0.8,0-1.2,0.3-1.5,1
		c-6.1,15.3-17,25.4-32.9,29.6c-26.6,7-51.1-8.8-58.5-32.3c-0.4-1.1-0.8-1.5-2-1.5c-5.9-0.2-11.9-0.4-17.8-0.6
		c-5-0.2-8.9-2.4-12.1-6c-0.1-0.1-0.3-0.3-0.4-0.5c-1.3-2.3-3.3-3-5.8-3c-7.7-0.2-15.4-0.6-23.1-1c-2.8-0.1-5.6-0.2-8.3-0.8
		c-4.9-1.1-7.9-4.7-10.1-9c-2.2-4.3-2.8-8.9-2.2-13.7c0.6-4.9,1.1-9.8,1.6-14.6c0.1-0.6,0.2-1.2,0.3-1.8c0.4-1.6,1.2-2.4,2.9-2.6
		c0.9-0.1,1.9-0.3,2.9-0.2c3.7,0.1,5.7-2.4,7.7-5c0.3-0.4,0.3-1,0.3-1.5c-0.2-2.9-0.4-5.8-0.6-8.7c-0.2-2.5-0.1-4.9,0.6-7.3
		c0.5-1.8,0.3-3.8,0.4-5.7c0.3-5.4,0.5-10.8,0.8-16.1C17,90.6,17,90.3,17,90z M275.4,169.5c0.6,0,1.1,0,1.6,0
		c3.5,0.1,6.9,0.2,10.4,0.2c10.8,0.3,21.6,0.6,32.5,0.9c8,0.2,16.1,0.4,24.1,0.6c10.7,0.3,21.4,0.6,32.1,0.9
		c5.2,0.1,10.5,0.3,15.7,0.4c5.1,0.1,10.2,0.2,15.3,0.4c0.6,0,1,0,1.2-0.8c1.9-8.8,3.4-17.7,4.3-26.7c1-10.6,1.3-21.2,1-31.8
		c-0.2-9.9-2-19.4-5.3-28.7c-0.2-0.7-0.5-0.9-1.2-1c-7-0.6-14-1.2-21-1.8c-7.4-0.6-14.9-1.2-22.3-1.8c-9.4-0.7-18.9-1.4-28.3-2
		c-9-0.6-17.9-1.3-26.9-1.8c-10.9-0.7-21.8-1.2-32.7-1.9c-1.8-0.1-3.6-0.2-5.4-0.3C277,105.8,279.6,137.4,275.4,169.5z M272.5,169.1
		c0-0.1,0.1-0.4,0.2-0.7c1.1-8.9,1.9-17.8,2-26.7c0.1-12.9-0.7-25.7-2.2-38.5c-1.1-9.5-2.7-18.9-4.8-28.2c-0.2-0.7-0.5-0.9-1.2-1
		c-9.9-0.5-19.7-1.2-29.6-1.7c-16.2-0.9-32.4-1.7-48.6-2.5c-16.3-0.8-32.6-1.5-48.8-2.4c-2.2-0.1-3.2,0.6-4.1,2.4
		c-2.8,5.6-3.2,11.1-0.3,16.8c0.9,1.8,2,3.5,3.1,5.1c5.2,7.5,11.7,13.8,18.4,20c5.8,5.4,11.9,10.7,17.5,16.4
		c10.2,10.5,16.4,23.1,18.5,37.6c0.2,1.7,0.3,1.7,2,1.8c5.8,0.1,11.7,0.3,17.5,0.4c10.8,0.3,21.6,0.6,32.3,0.9
		c5.2,0.1,10.3,0.3,15.5,0.4C264,169.2,268.2,169.1,272.5,169.1z M189.9,167.2c-1-8.2-3.5-15.9-7.5-23.1
		c-4.5-8.2-10.7-14.9-17.6-21.2c-6.7-6.2-13.4-12.3-19.9-18.7c-4.5-4.4-8.4-9.3-11.6-14.8c-4.1-7-4.3-14.1-0.2-21.2
		c1.8-3.2,3.7-6.3,5.9-9.1c7.2-9.1,14.5-18.1,22-26.9c4-4.7,8.3-9.1,12.8-13.5c3.9-3.9,8.7-6.1,14.4-6.3c5.6-0.2,11.2-0.5,16.8-0.6
		c12.8-0.1,25.7-0.1,38.5,0.1c9.1,0.1,18.3,0.4,27.4,0.8c12.7,0.5,25.3,1.3,37.8,3.1c11.6,1.7,22.6,5,32.9,10.7
		c9.4,5.2,18.3,11.3,27.2,17.5c10.1,7.1,20.1,14.3,29.5,22.2c4.8,4,9,8.5,11.4,14.4c0.3,0.8,0.9,0.8,1.5,0.8c3.5,0.3,7,0.6,10.5,0.9
		c2.3,0.2,4.6,0.4,7.1,0.6c-0.2-0.5-0.3-0.8-0.5-1.1c-1.5-3.1-3.1-6.2-4.6-9.3c-0.4-0.9-1-1.4-2-1.6c-6.7-1.4-12.8-4-18.4-8
		c-16.3-11.5-32.7-22.8-49.7-33.3c-5.5-3.4-10.9-7-16.9-9.6c-4.5-1.9-9-3.6-13.8-4.6c-4.4-0.9-8.7-2.2-13.2-2.8
		c-7.8-1-15.5-2-23.4-2.4c-13-0.7-25.9-1-38.9-1.2c-10.9-0.2-21.8,0-32.7,0.1c-8,0.1-16,0.2-24,0.4c-9.6,0.2-19.3,0.4-28.9,0.9
		c-12.6,0.6-25.1,1.3-37.7,2.1c-11.6,0.7-23.2,1.6-34.8,2.4c-0.3,0-0.8,0-1,0.2c-1.9,1.6-3.8,3.2-5.9,5c0.7,0,1.1,0,1.5,0
		c8.5-0.2,17-0.4,25.5-0.6c13.9-0.4,27.7-1,41.6-1.5c0.8,0,1.7-0.1,2,0.9c0.4,1-0.4,1.5-1.1,2c-8.5,5.8-17,11.7-25.5,17.5
		c-9.2,6.3-18.3,12.7-27.5,18.9c-4.3,2.9-8.9,5.3-14,6.7c-6.8,1.8-13.8,2.6-20.9,2.6c-8,0.1-16,0-24,0c-0.5,0-1.1,0.2-1.5,0.5
		c-1.1,0.8-2,1.7-3,2.5c-2.5,2-4.5,4.4-5.7,7.4c-0.4,1.1-0.6,2.2-1,3.6c0.7-0.1,1.1-0.2,1.5-0.3c5.3-1.1,9.9-0.1,14,3.5
		c9.4,8.3,19,16.4,28.5,24.6c2.6,2.3,5.5,4,8.7,5.1c7.7,2.6,15.4,5.1,23.1,7.6c0.5,0.2,1.1,0,1.6-0.2c5.5-2.1,11.1-3.5,17-3.9
		c18.6-1.3,34.4,4.7,47.4,18c7.9,8,12.7,17.8,15,28.8c0.7,3.3,0.6,3.3,4.1,3.1C189.8,167.3,189.8,167.3,189.9,167.2z M254.7,70.4
		c0-0.4-0.1-0.8-0.1-1.1c-0.8-8.9-1.5-17.9-2.3-26.8c-0.7-8.9-1.5-17.8-2.2-26.7c-0.1-0.7-0.3-1-1.1-1c-5,0-9.9-0.2-14.9-0.2
		c-7.7,0-15.4,0-23.1,0.1c-6.7,0.1-13.3,0.4-20,0.4c-6.2,0-11.6,1.9-16,6.3c-0.5,0.5-1.1,1-1.6,1.6c-6.6,6.5-12.6,13.6-18.4,20.8
		c-5.3,6.5-10.3,13.1-15.5,19.7c-0.3,0.4-0.5,0.8-0.8,1.3C177.4,66.5,216,68.5,254.7,70.4z M426.2,71.3c2,4,3.8,7.7,5.7,11.4
		c0.2,0.3,0.7,0.6,1.1,0.6c7.1,0.7,14.2,1.3,21.4,2c7.9,0.8,15.7,1.6,23.6,2.5c6.7,0.8,13.3,1.6,20,2.5c7.6,1.1,15.2,2.3,22.7,3.5
		c2.2,0.3,4.3,1,6.5,1.3c2.5,0.3,5.1,0.3,7.6,0.6c8.9,1.1,17.7,3,26.4,5.3c2.8,0.7,4.8,2.3,5.9,4.9c2.1,4.7,4.1,9.3,6.1,14
		c0.6,1.3,0.9,2.8,1.1,4.3c0.2,1.8-1,3-2.8,3c-1,0-2.1,0-3.1-0.4c-4-1.4-8.1-2.7-12-4.4c-11.3-4.8-22.8-9.2-33-16.5
		c-6.9,4.6-13.2,9.9-19.5,15.6c0.5,0.2,0.9,0.3,1.3,0.5c12.5,4.8,22.3,12.9,29.2,24.4c5.1,8.6,7.9,17.9,8.1,28c0.1,4.1,0,8.1,0,12.2
		c0,0.4,0,0.8,0,1.3c2.1,0,4-0.1,5.9,0c3.1,0.1,6.1-0.3,9.1-1.2c2.8-0.8,5.6-1.7,8.5-2c6.6-0.6,13.2-0.7,19.9-1
		c1.4-0.1,2.7-0.2,4.3-0.3c-1.1-1.7-2.6-2.5-4.1-3.1c-1.2-0.5-2.5-0.9-3.8-0.1c-0.4,0.3-1.1,0.3-1.6,0.3c-5.8,0-11.7,0.1-17.5-0.1
		c-2-0.1-4.1-0.6-5.9-1.4c-4.7-2-6.2-6.1-4.1-10.7c1.1-2.4,2.3-4.7,3.5-6.9c2.9-5.3,6-10.5,10-15c1.7-2,3.8-3.6,6.5-3.8
		c4.5-0.4,8.8,0.6,12.9,2.4c0.7,0.3,1.2,1.2,1.8,1.9c0.1,0.2,0.1,0.5,0.2,0.8c0.2-0.1,0.4-0.3,0.6-0.4c0-2.7,0-5.4,0-8.2
		c-2.1-0.9-3.5-2.7-4.4-4.8c-2.4-5.3-4.7-10.6-6.8-16.1c-1.5-3.8-2.6-7.7-3.6-11.6c-0.8-3.5,0.5-5,4-5.5c1.5-0.2,3.1-0.3,4.7-0.4
		c0.4,0,0.8-0.2,1.3-0.3c-0.3-0.3-0.4-0.5-0.5-0.6c-2-1-4-2.2-6.1-3.1c-16.9-7-34.4-12.3-52.4-16c-11-2.2-22.1-4.2-33.2-6.2
		c-3.7-0.7-7.3-1.2-11-1.7c-0.4-0.1-1,0-1.1,0.2c-0.6,0.9-1.4,1.1-2.3,1.2c-0.9,0.1-1.8,0.3-2.7,0.4c-2.7,0.2-5.5,0.7-8.2,0.4
		c-5.7-0.6-11.4-1.7-17.2-2.6c-0.7-0.1-1.5-0.3-1.9-0.8c-0.4-0.4-0.4-1.2-0.6-1.9C439.7,70.3,433.1,70.8,426.2,71.3z M101.1,123.3
		c-0.2-0.1-0.5-0.2-0.9-0.3c-5.6-1.8-11.2-3.6-16.8-5.5c-4.5-1.5-8.9-3.4-12.4-6.7c-0.7-0.7-1.4-0.8-2.4-0.8c-13.7,0-27.4,0-41.1,0
		c-1.3,0-1.8,0.3-1.9,1.6c-0.1,0.9-0.5,1.8-0.7,2.6c-0.6,2.6-1.4,5.2-1.8,7.9c-0.4,2.6-1,5.1-2.7,7.2c-1.2,1.5-2.6,2.8-3.8,4.3
		c-2.5,3-5.6,4.7-9.7,4.6c-2.2-0.1-2.2,0.1-2.4,2.3c-0.5,5-1.1,10.1-1.6,15.1c-0.6,5.9,0.9,11.1,4.8,15.6c1.7,2,3.8,3.3,6.4,3.6
		c2.2,0.3,4.4,0.4,6.6,0.5c6.6,0.3,13.2,0.3,19.7,0.8c9.1,0.6,18.1,1.6,27.2,2.4c1.3,0.1,1.4-0.1,1.5-1.4c0.2-3.7,0.3-7.4,0.9-11.1
		c2.4-14,9.1-25.8,20.1-34.9C93.6,128.2,97.4,125.9,101.1,123.3z M283.3,72.1c27.3,1.8,54.6,3.6,81.6,5.4c-0.1-0.9-0.4-1.9-0.4-2.8
		c0.3-3.7,0.5-7.3,1-11c0.3-2.7,1.8-4.7,4.4-5.6c0.7-0.2,0.9-0.6,0.9-1.3c0-2.4,0-4.7,0-7.1c0-0.5-0.3-1.1-0.7-1.4
		c-8-5.4-16-10.9-24.2-16.2c-11.8-7.6-24.7-12.1-38.7-13.9c-10.7-1.4-21.4-2.2-32.1-2.7c-1.2-0.1-2.4,0-3.8,0
		C275.4,34.4,279.4,53.3,283.3,72.1z M411.3,84.2c0,0.2-0.1,0.3-0.1,0.4c0.1,0.3,0.2,0.6,0.3,0.9c2.6,8.2,4.5,16.6,4.7,25.2
		c0.1,6.5,0.1,13,0,19.5c-0.2,11.4-1.4,22.8-3.5,34c-0.5,2.8-1.1,5.7-1.7,8.7c5.5,0.1,11,0.3,16.4,0.4c0-0.4,0.1-0.5,0.1-0.7
		c1-15.5,7.1-28.6,18.6-39c15.3-13.8,33.2-18.1,53.3-13.4c1,0.2,1.7,0.1,2.5-0.6c6-5.4,12.1-10.5,18.7-15.1c0.3-0.2,0.5-0.4,0.4-0.4
		c-0.3-1.4-0.8-2.7-0.6-3.8c0.1-1.1,0.9-2.2,1.5-3.5C485.3,90.6,448.3,87.3,411.3,84.2z M539.6,191.1c0-0.6,0-1,0-1.5
		c0-3.8,0.1-7.6,0-11.4c-0.1-3.2,0-6.5-0.4-9.7c-3.1-22.3-18.9-40-40.5-45.6c-10.8-2.8-21.6-2.5-32,1.5
		c-19.4,7.4-31.3,21.3-35.5,41.6c-1.3,6.1-1.1,12.4-1.2,18.6c0,1.7-0.3,2.1-2,2c-6.6-0.1-13.2-0.3-19.8-0.4
		c-12.6-0.2-25.2-0.3-37.8-0.5c-9.5-0.1-19-0.3-28.5-0.5c-10.5-0.2-20.9-0.3-31.4-0.5s-20.9-0.3-31.4-0.5
		c-10.4-0.2-20.9-0.3-31.3-0.5c-10.9-0.2-21.9-0.3-32.8-0.5c-9-0.1-18-0.3-27-0.4c-2.6,0-3.8-1.2-3.8-3.8c0-1.9,0-3.8-0.1-5.7
		c-0.4-10.6-3.6-20.2-9.5-28.9c-7.8-11.4-18.4-19-31.7-22.6c-13-3.5-25.8-2.5-38.1,3.2c-12.5,5.8-21.7,14.9-27.5,27.4
		c-3.6,7.8-5.4,15.9-5.2,24.5c0.1,3-1.4,4.5-4.4,4.3c-2.4-0.1-4.7-0.4-7-0.6c-2.9-0.3-5.9-0.5-9-0.8c2.9,3.6,6.2,5.9,10.7,6
		c3.6,0.1,7.3,0.3,10.9,0.4c2.5,0.1,5.1,0,7.7,0c-1.9-9.6-1.1-19,2.6-28.2c3.7-9.1,9.7-16.5,17.8-22c8.2-5.5,17.3-8.5,27.2-8.3
		c15.9,0.3,28.9,6.6,38.5,19.3c9.6,12.7,11.7,27.1,7.8,42.5c87.9,1.6,175.8,0.7,263.5,1c-5-21.4,0-39.7,17.7-53
		c15.9-12,33.4-13,51.3-4.3c8.1,4,14.4,10,19,17.8c7.4,12.6,8.8,26,4.6,40C533.8,191.1,536.6,191.1,539.6,191.1z M484.6,221.8
		c25.4,0,45.6-20.1,45.8-45.6c0.2-25.1-20.3-45.7-45.6-45.6c-25.3,0.1-45.5,20.6-45.6,45.6C439,201.3,459.9,222.1,484.6,221.8z
		 M82.6,176.4c0,25.6,21.2,44.9,44.4,45.5c24.7,0.5,46.9-18.7,46.8-46.1c-0.1-26.3-21.2-45.2-45.6-45.2
		C103,130.6,82.6,151.2,82.6,176.4z M41.3,64c3.7,0,6.9-0.1,10.1,0c8.1,0.2,16.1,0.4,24.2-0.8c6-0.8,11.9-2.1,17.2-5.3
		c5.3-3.2,10.5-6.4,15.6-9.9c11.6-8,23-16.3,34.5-24.4c1.1-0.8,2.2-1.5,3.6-2.4c-0.5,0-0.6-0.1-0.8-0.1c-5.4,0.2-10.8,0.4-16.2,0.6
		c-9.6,0.3-19.2,0.6-28.7,0.9C94,22.9,87.3,23,80.6,23.1c-0.8,0-1.6,0.4-2.2,0.9c-2.4,2.1-4.8,4.2-7,6.6
		C63.2,39.4,55.1,48.4,47,57.3C45.1,59.4,43.4,61.6,41.3,64z M427.1,176.1c-80.2-2-160.3-4.1-240.3-6.1c0,3.2,0,6.3,0,9.3
		c0,0.9,0.6,1,1.3,1c8.2,0.1,16.5,0.3,24.7,0.4c10.8,0.2,21.6,0.3,32.4,0.5c10.4,0.2,20.8,0.3,31.2,0.5c10.7,0.2,21.3,0.3,32,0.5
		c10.5,0.2,21,0.3,31.5,0.5c9.2,0.1,18.5,0.3,27.7,0.5c13.4,0.2,26.9,0.3,40.3,0.5c5.8,0.1,11.7,0.2,17.5,0.3c0.6,0,1.2,0,1.8,0
		C427.1,181.3,427.1,178.8,427.1,176.1z M25,65.5c4-0.4,7.7-0.8,11.5-1.2c0.9-0.1,1.5-0.4,2.1-1.1c4.7-5.6,9.3-11.3,14.2-16.7
		C59,39.6,65.6,32.9,72,26.1c0.9-0.9,1.8-1.8,2.8-2.7c-5.3,0-10.4,0.1-15.6,0c-1.4,0-2.4,0.5-3.3,1.5C49.2,31.7,43,39.2,37.3,47
		c-3,4.1-5.9,8.2-8.8,12.4c-1,1.5-2,3-2.9,4.6C25.3,64.4,25.2,65,25,65.5z M66.6,107.1c-0.4-0.4-0.7-0.7-1-0.9
		c-7.6-6.5-15.3-13-22.8-19.7c-4-3.5-8.3-4.3-13.2-2.8c-0.4,0.1-0.8,0.6-1,1c-2.5,6.4-3,13-2.8,19.8c0,0.9,0.1,1.8,0.1,2.7
		C39.6,107.1,53,107.1,66.6,107.1z M342.7,19.8c0.2,0.2,0.3,0.3,0.5,0.3c5.5,3.3,11,6.6,16.5,10c15.1,9.5,29.8,19.5,44.3,29.9
		c5.8,4.1,12,7.1,19,8.3c2.2,0.4,4.6,0.1,6.9,0.1c0-0.1,0-0.2,0-0.3c-0.2-0.1-0.4-0.3-0.6-0.4c-18.4-11.5-36.7-23.1-55.1-34.5
		c-7.5-4.6-15-9.1-23-12.8c-2.8-1.3-5.4-1.7-8.2-0.7C342.9,19.7,342.9,19.7,342.7,19.8z M280.5,72.1c-4-19-8-37.9-12-56.9
		c-2.4,0-4.7,0-7,0c1.1,7.1,2.1,14.1,3.2,21.2c1.2,8.3,2.3,16.5,3.5,24.8c0.4,3.1,0.8,6.2,1.3,9.2c0.1,0.4,0.4,1,0.7,1
		C273.5,71.7,276.9,71.9,280.5,72.1z M252.9,14.9c0,0.4,0,0.7,0,1c0.6,7.1,1.2,14.2,1.8,21.3c0.9,10.9,1.8,21.7,2.7,32.6
		c0.1,0.7,0.3,1,1,1c2.1,0.1,4.2,0.3,6.3,0.4c0.7,0,1.3,0,2.1,0c-2.7-18.8-5.4-37.5-8.1-56.3C256.7,14.9,254.8,14.9,252.9,14.9z
		 M565.2,123.1c0.1-0.1,0.2-0.2,0.2-0.3c-0.8-2-1.6-4.1-2.5-6.1c-0.8-2-2.1-3.6-4-4.6c-3.1-1.6-6.3-3.3-9.6-4.5
		c-6.8-2.5-14-3.5-21.1-4.8c-1.5-0.3-3.1-0.5-4.7-0.7c0.2,0.6,0.6,1,1,1.3c2.6,1.7,5.2,3.7,7.9,5.2c9,5,18.6,8.8,28.1,12.8
		C562.2,121.9,563.7,122.5,565.2,123.1z M593.3,161.6c-2.1-1.8-4.1-2.9-6.5-3.5c-2.4-0.6-3.1-0.3-4.6,1.7c-2.2,3.1-4.5,6.2-6.7,9.3
		c-1.7,2.2-3.9,3.5-6.7,3.7c-2.4,0.2-4.9,0.3-7.3,0.5c-0.4,0-0.9,0.2-1.1,0.5c-0.6,1-1.1,2-1.6,3.2c0.8,0.2,1.5,0.5,2.3,0.6
		c6.3,0.2,12.5,0.3,18.8,0.4c0.9,0,1.5-0.4,1.9-1.2c0.4-0.9,1-1.7,1.4-2.5c1.5-3.3,3-6.7,4.4-10.1c0.8-1.9,2.1-3,4.3-2.7
		C592.2,161.6,592.6,161.6,593.3,161.6z M390.5,71.9c-0.1-0.8-0.1-1.4-0.2-2.1c-0.4-5.6-3.2-8.7-9-10.3c-3.9-1.1-7.7,0-11.2,1.8
		c-0.6,0.3-1.3,1.1-1.4,1.8c-0.5,2.8-0.8,5.6-1.2,8.2C375.3,71.5,382.8,71.7,390.5,71.9z M562.1,170.6c2-0.1,3.7-0.3,5.4-0.4
		c3.1-0.1,5.2-1.6,6.9-4.1c1.9-2.8,4-5.6,6-8.4c0.8-1.1,1.7-2.1,3.1-2.5c0.2-0.1,0.6-0.3,0.6-0.5c0.3-1.6,0.6-3.2,0.9-4.9
		c-2.1-0.1-4-0.1-5.8-0.3c-2.7-0.3-5,0.4-6.5,2.8c-2.1,3.3-4.3,6.7-6.2,10.1C564.9,165.1,563.6,167.7,562.1,170.6z M49.8,16.6
		c0,0.1,0,0.3,0,0.4c2.7,1.1,5.4,2.3,8.1,3.4c0.2,0.1,0.5,0.1,0.8,0.1c6.3-0.1,12.6-0.1,18.9-0.2c0.3,0,0.7-0.1,1-0.3
		c2.3-2,4.6-4,7.1-6.1c-1.2-0.8-2-2.2-3.9-1.9c-6.4,0.9-12.8,1.5-19.1,2.4C58.3,15,54,15.9,49.8,16.6z M524.1,99.2
		c0.3,0.1,0.4,0.2,0.5,0.2c4.6,0.8,9.2,1.6,13.8,2.5c7.6,1.4,15,3.6,21.7,7.6c2.4,1.4,4.3,3.2,5.4,5.8c1.1,2.5,2,5.1,3,7.7
		c0.5,1.4,1.4,1.9,3.1,1.3c-0.1-0.5-0.1-0.9-0.3-1.4c-2.3-5.4-4.6-10.8-7-16.3c-0.7-1.5-1.9-2.4-3.5-2.8c-7-1.5-14-3.2-21-4.6
		c-3.5-0.7-7.2-0.9-10.8-1.2C527.3,97.9,525.6,97.9,524.1,99.2z M33.9,67.5c0-0.1-0.1-0.2-0.1-0.3c-3.5,0.5-7.1,1-10.6,1.6
		c-0.3,0-0.6,0.4-0.7,0.7c-1,1.6-2,3.3-2.9,4.9c-1.6,2.8-2.5,5.9-2.9,9.2c0.2,0,0.4,0.1,0.5,0.1c2.9,0.2,3.6,0.9,3.2,3.8
		c-0.2,2.1-0.6,4.2-0.9,6.3c-0.1,1,0,2.1,0,3.4c0.3-2.6,0.5-5,0.9-7.3c0.5-3.5,1.8-6.6,5.4-8c0.3-0.1,0.5-0.6,0.5-0.9
		c0-2.5,0.8-4.8,2-6.9C29.7,71.5,31.7,69.4,33.9,67.5z M590.3,132.6c1.4-0.8,2-1.9,1.9-3.2c0-1.7-0.1-3.5-0.5-5.2
		c-0.8-4-1.7-7.9-2.6-11.9c-0.5-2.2-2.2-3.2-4.5-3.9c0,1.5,0,2.8,0,4.2c0,1.7-0.7,2.8-2.2,3.5c-0.9,0.4-1.7,0.7-2.7,1.2
		c0.5,1.4,1.1,2.7,1.6,4c0.3,0.9,0.7,1.3,1.7,1.4c2.4,0.1,4,1.4,4.8,3.6c0.5,1.4,1.1,2.8,1.6,4.2C589.7,131.2,590,131.8,590.3,132.6
		z M285.3,7.2c-1.1-0.1-2.2-0.2-3.3-0.3c-8.1-0.5-16.2-1.2-24.3-1.5c-12-0.4-24-0.6-36-0.7C210.8,4.7,199.9,5,189,5.1
		c-1.4,0-2,0.7-2.6,1.9C219.5,6.3,252.4,5.8,285.3,7.2z M582.6,146.9c0-0.1,0-0.2,0-0.3c-2.1-0.4-4.2-0.8-6.3-1.2
		c-3.2-0.6-5.8,0.5-7.9,3c-0.4,0.5-0.8,0.9-1.2,1.4c-2.6,4-5.3,7.9-7.7,12c-1.7,2.8-3,5.7-4.4,8.6c-1,2.1-0.5,3.6,1.2,5
		c0.2-0.4,0.4-0.7,0.6-1c1.7-3.4,3.3-6.8,5.2-10.1c2.5-4.4,5.1-8.8,7.8-13.1c2-3.3,5.1-4.7,9-4.2C580.3,147,581.4,146.9,582.6,146.9
		z M367.5,73.9c-0.5,1.5-0.3,2.2,1.1,2.8c1.5,0.6,3,1.4,4.6,1.5c5.5,0.6,11.1,0.9,16.6,1.4c0.3,0,0.7,0,0.9-0.1
		c1.2-1.3,2.5-2.6,3.2-4.6C385,74.6,376.3,74.2,367.5,73.9z M393.4,72.1c0.2,0,0.4,0.1,0.7,0.2c2.3,0.6,3.1,2.3,2.1,4.5
		c-0.3,0.6-0.7,1.2-1.1,1.8c-0.3,0.4-0.5,0.8-0.9,1.3c4.3,0.4,8.4,0.7,12.5,1.1c-1.3-4.3-9.1-13-14.3-15.9
		C392.7,67.3,393,69.7,393.4,72.1z M122.8,9.4c0,0.1,0.1,0.3,0.1,0.4c0.3,0,0.5,0,0.8,0c14.2-0.7,28.4-1.5,42.6-2.2
		c1.6-0.1,2.5-0.7,3.3-1.7c-2.1,0-4.1-0.1-6.2,0c-12.9,0.4-25.7,1.2-38.5,2.7C124.2,8.7,123.5,9.1,122.8,9.4z M578.5,114.5
		c3.2-0.5,3.5-1,3.4-3.9c-0.1-1.1-0.1-2.5,0.5-3.3c0.9-1.3,0.5-2.4,0.1-3.7c-1.6,0.1-3.2,0.2-4.8,0.4c-1.5,0.2-1.8,0.6-1.5,2.1
		C576.9,108.8,577.8,111.6,578.5,114.5z M18.4,126.5c0.2,0,0.4,0.1,0.6,0.1c0.4-1.3,0.9-2.5,1.1-3.8c0.4-3.5,1.1-6.9,2.3-10.2
		c0.3-0.9,0.5-1.8,0.7-2.8c-2,0.1-3.4-0.6-3.9-2c-0.4,2.2-0.8,4.8-1.2,7.4c-0.1,0.3-0.1,0.6-0.1,1C18.1,119.6,18.3,123.1,18.4,126.5
		z M319.8,10.9c0,0.1-0.1,0.2-0.1,0.3c1.3,0.5,2.6,1,3.9,1.5c4.2,1.4,8.5,2.5,12.6,4.2c2.1,0.8,3.9,0.5,6.1,0
		C334.8,14.2,327.4,12.3,319.8,10.9z M381.1,56.3c-2.4-1.7-4.8-3.5-7.4-5.4c0,2.1,0,4,0,5.7C376.2,56.5,378.6,56.4,381.1,56.3z
		 M592.7,152.9c0-4.2,0-7.9,0-11.7c-0.6,0-1,0-1.6,0c0,2.5,0,4.8,0,7.2c0,0.5-0.2,0.9-0.3,1.4c-0.1,0.8-0.4,1.6-0.2,2.3
		C590.9,152.5,591.9,152.6,592.7,152.9z M23.2,106.9c-0.3-7.2-0.3-14.4,2.1-21.4c-1.3,1.1-1.9,2.5-2,4.1c-0.5,5.4-1,10.9-1.5,16.3
		C21.7,106.9,22.2,107.1,23.2,106.9z M183.7,5.5c-2.9,0-5.7,0.1-8.5,0c-1.5,0-2.1,0.9-2.7,1.7c2.8,0,5.6-0.1,8.4,0
		C182.4,7.2,183.2,6.6,183.7,5.5z M589.9,137c0.2-0.1,0.3-0.2,0.5-0.4c-0.3-0.5-0.4-1.3-0.8-1.4c-1.5-0.6-2-1.8-2.5-3.2
		c-0.7-1.7-1.3-3.5-2-5.2c-0.3-0.8-0.9-1.4-2.3-1.4c1.7,3.2,3.1,6.3,4.8,9.2C588,135.6,589.1,136.3,589.9,137z M87.3,11.5
		c1.2,1.2,3.8,0.9,6.2-0.6C91.3,11.2,89.4,11.3,87.3,11.5z M469,72.7c0-0.1,0-0.3,0.1-0.4c-3.2-0.4-6.4-0.9-9.6-1.3
		c0,0.1,0,0.3-0.1,0.4C462.6,71.9,465.8,72.3,469,72.7z M22.8,63.1c0.4-0.7,0.7-1.2,1.1-1.8c-1.1-0.3-2-0.5-2.9-0.8
		c-0.1,0.1-0.2,0.3-0.2,0.4C21.4,61.6,22,62.3,22.8,63.1z M587.7,171.2c-1,2.2-1.9,4.1-2.9,6.2C585.8,177,587.4,173.5,587.7,171.2z
		 M103.5,5.1c-0.5-0.7-0.9-1.3-1.5-2c0,1,0,1.6,0,2.3C102.5,5.3,102.9,5.2,103.5,5.1z M587.8,151.2c-0.1,0-0.2,0-0.3,0
		c-0.2,1.1-0.4,2.2-0.6,3.3c0.2,0,0.3,0,0.5,0.1C587.6,153.4,587.7,152.3,587.8,151.2z"/>
	<path d="M301.1,97.7c-5-0.2-9.1-0.3-13.2-0.6c-4.6-0.4-6.9-2.9-7.2-7.5c-0.2-4.1,1.6-6.3,5.6-7c3-0.5,6,0,8.9,0.8
		c4,1.1,7.9,2.2,11.8,3.4c2.1,0.7,4,1.8,5.4,3.6c2.1,2.8,1.1,6-2.3,6.6C306.8,97.5,303.5,97.6,301.1,97.7z M302.4,88.2
		c0,0,0-0.1,0.1-0.1c-3.5-0.9-7.1-1.9-10.6-2.5c-2-0.3-4-0.1-6,0c-0.6,0-1.2,0.6-1.7,0.9c0.8,0.1,1.4,0,2.1-0.2
		c2-0.5,3.8-0.3,5.4,1.2c0.5,0.4,1.3,0.7,2,0.7C296.5,88.3,299.4,88.2,302.4,88.2z M292.2,91c-0.7-0.4-1.5-0.7-2.2-1.2
		c-1.7-1.2-3.5-1.2-5.2,0C285.1,91.6,287.1,91.9,292.2,91z M288,94.5c5.2,0.2,10.4,0.3,15.9,0.5C302,93.4,296.5,93.3,288,94.5z
		 M303.4,91.2c2.2,1.5,4.1,1.7,5.8,0.7C307.5,89.9,305.4,90.7,303.4,91.2z"/>
	<path d="M162.4,92.6c-3.1-0.2-6.6-0.2-10-0.5c-4.2-0.4-6.3-2.5-6.8-6.7c-0.6-5,1.9-8,7.1-7.8c3,0.1,5.9,0.6,8.8,1.3
		c3.6,0.9,7.1,2,10.7,3.1c1.9,0.6,3.5,1.6,4.7,3.2c2.4,3,1.5,6.3-2.3,6.9c-3.2,0.5-6.6,0.4-9.9,0.6C164,92.6,163.3,92.6,162.4,92.6z
		 M149.2,81c0,0.2,0.1,0.4,0.1,0.5c0.5-0.1,1.1-0.2,1.6-0.3c2.1-0.5,4-0.4,5.7,1.2c0.4,0.4,1.1,0.7,1.6,0.7c2.9,0.1,5.8,0,8.6,0
		c-1.5-0.4-3-0.9-4.5-1.2c-3.2-0.8-6.3-1.8-9.6-1.6C151.5,80.4,150.3,80.7,149.2,81z M168.6,90c0-0.2,0-0.4,0.1-0.6
		c-5.4-1.3-10.8-0.6-16.2,0.1C157.8,89.6,163.2,89.8,168.6,90z M157.1,85.9c-0.8-0.4-1.6-0.6-2-1.1c-1.3-1.4-2.7-1.2-4.3-0.7
		c-0.4,0.1-0.8,0.5-1.2,0.7c0.4,0.4,0.8,1.1,1.2,1.2C152.9,86.6,154.9,86.4,157.1,85.9z M174.2,86.9c-1.4-1.6-2.5-1.8-5.9-0.7
		C170.1,87.3,172,88,174.2,86.9z"/>
	<path d="M521.3,177.8c-0.1,19.1-17.2,36.2-38.1,35.1c-21.1-1.2-35.4-18.2-34.8-37.7c0.7-20.3,17.9-36.2,38-35.3
		C506.5,140.7,522,157.6,521.3,177.8z M512.8,195.4c-0.7-0.4-1.4-0.7-1.9-1.1c-4.6-4-9.1-8-13.7-12c-0.7-0.6-1.1-1.4-0.8-2.3
		c0.3-0.9,1.2-1.3,2.1-1.4c0.8-0.1,1.6-0.1,2.4-0.2c5.8-0.5,11.6-1,17.5-1.6c0-0.4,0-0.9,0-1.4c-0.9,0-1.8,0.1-2.6,0
		c-4.6-0.4-9.2-0.8-13.7-1.2c-1.3-0.1-2.6-0.1-3.9-0.4c-1.8-0.3-2.3-1.8-1.2-3.3c0.2-0.2,0.4-0.5,0.7-0.7c3-2.6,5.9-5.2,8.9-7.8
		c1.9-1.7,3.8-3.3,5.8-5c-0.2-0.3-0.6-0.8-0.9-1.3c-0.6,0.5-1,0.9-1.5,1.2c-5.1,3.1-10.3,6.1-15.5,9.2c-0.8,0.5-1.7,0.6-2.5,0
		c-0.9-0.6-0.9-1.5-0.7-2.5c0.1-0.4,0.2-0.7,0.3-1c1.4-6,2.8-12.1,4.2-18.2c-0.5-0.1-0.9-0.3-1.4-0.4c-0.3,0.9-0.5,1.8-0.8,2.5
		c-0.9,2.1-1.9,4.2-2.8,6.3c-1.3,3.1-2.7,6.1-4,9.2c-0.4,0.9-0.9,1.6-2,1.6c-1.1,0-1.7-0.7-2.1-1.6c-0.3-0.8-0.6-1.6-1-2.3
		c-2.2-5.2-4.5-10.4-6.7-15.7c-0.3,0.1-0.8,0.3-1.2,0.4c0.2,0.6,0.4,1.1,0.5,1.6c1.3,5.9,2.7,11.8,3.9,17.8c0.2,0.9,0.1,1.8-0.8,2.4
		c-0.8,0.6-1.7,0.4-2.5-0.1c-5.6-3.4-11.3-6.7-17-10.1c-0.2,0.3-0.5,0.7-0.8,1c0.9,0.7,1.7,1.3,2.5,2c4.1,3.5,8.1,7.1,12.2,10.7
		c0.8,0.7,1.5,1.5,1.2,2.7c-0.4,1.3-1.5,1.4-2.6,1.5c-6.4,0.6-12.9,1.1-19.3,1.7c0,0.4,0,0.9,0,1.2c2.1,0.2,4.1,0.3,6,0.4
		c4.6,0.4,9.2,0.7,13.8,1.2c0.7,0.1,1.6,0.6,1.8,1.2c0.2,0.6-0.3,1.5-0.5,2.3c-0.1,0.2-0.3,0.4-0.5,0.5c-4.2,3.7-8.4,7.3-12.6,10.9
		c-0.8,0.7-1.6,1.2-2.5,1.8c0.3,0.4,0.7,1,1,1.5c0.9-0.7,1.7-1.4,2.6-1.9c3.8-2.3,7.7-4.6,11.6-6.8c1.1-0.6,2.2-1.3,3.3-1.9
		c1.6-0.8,3,0.3,2.9,2.1c0,0.4-0.1,0.7-0.2,1.1c-0.6,2.7-1.3,5.4-1.9,8.2c-0.8,3.6-1.6,7.2-2.5,10.8c0.3,0.1,0.9,0.3,1.4,0.4
		c0.4-1.2,0.7-2.3,1.1-3.4c2.1-4.9,4.3-9.8,6.4-14.7c0.4-1,0.9-1.9,2.2-1.9c1.3,0,1.8,1,2.2,2c0.7,1.7,1.5,3.4,2.2,5.2
		c1.7,4.3,4,8.4,5.2,12.9c0.6-0.2,1.2-0.4,1.7-0.6c-0.4-0.9-0.8-1.7-1-2.5c-1.3-5.6-2.5-11.3-3.7-16.9c-0.2-1-0.2-2,0.6-2.6
		c0.9-0.7,1.9-0.3,2.8,0.2c4,2.4,8.1,4.8,12.1,7.2c1.6,1,3.2,2,4.9,3.1C512.1,196.3,512.5,195.9,512.8,195.4z M460.6,154.3
		c4.9,2.9,9.6,5.7,14.6,8.7c-1.3-5.7-2.5-11.1-3.7-16.6C467.3,148.3,463.7,150.8,460.6,154.3z M509,197.9c-4.9-2.9-9.6-5.7-14.6-8.7
		c1.3,5.7,2.4,11.1,3.7,16.6C502.3,204,505.9,201.4,509,197.9z M491.5,208c-2.3-5.2-4.4-10.3-6.7-15.6c-2.3,5.3-4.5,10.4-6.8,15.6
		C482.5,209,486.9,209,491.5,208z M484.8,159.9c2.3-5.4,4.5-10.4,6.8-15.6c-4.6-0.9-9-0.9-13.5,0
		C480.3,149.5,482.5,154.5,484.8,159.9z M469.2,171.1c-4.3-3.8-8.4-7.5-12.6-11.2c-2.3,4-3.7,8.1-4.2,12.8
		C458,172.1,463.5,171.6,469.2,171.1z M456.5,192.2c4.3-3.7,8.4-7.4,12.8-11.2c-5.8-0.5-11.3-1-16.9-1.5
		C452.9,184.1,454.2,188.2,456.5,192.2z M513.1,160c-4.3,3.7-8.4,7.4-12.8,11.2c5.8,0.5,11.3,1,16.9,1.5
		C516.6,168.1,515.3,164,513.1,160z M513,192.4c2.3-4,3.7-8.2,4.1-12.8c-5.7,0.5-11.1,1.1-16.8,1.6C504.6,185,508.7,188.7,513,192.4
		z M508.9,154.3c-3.1-3.5-6.7-6-10.8-7.9c-1.2,5.5-2.4,10.9-3.7,16.4C499.4,160,504.1,157.2,508.9,154.3z M460.6,197.9
		c3.1,3.5,6.6,6,10.8,7.9c1.2-5.5,2.4-10.9,3.7-16.5C470.2,192.2,465.5,195,460.6,197.9z"/>
	<path d="M164.6,177.1c0.8,17.8-15.7,37.1-38.4,35.6c-22.1-1.5-35.4-19.6-34.4-38.2c1-20.1,17.9-35.8,38.3-34.7
		C151.5,141,165.2,159.1,164.6,177.1z M154.9,155.8c-0.7,0.5-1.3,1-2,1.4c-2.2,1.3-4.5,2.6-6.7,3.9c-2.7,1.6-5.5,3.3-8.3,4.9
		c-0.6,0.3-1.6,0.3-2.3,0.1c-0.9-0.3-1-1.3-0.9-2.2c0-0.3,0.1-0.6,0.2-0.9c0.4-1.8,0.9-3.6,1.3-5.3c1-4.4,2-8.8,3-13.3
		c-0.4-0.1-0.9-0.3-1.2-0.3c-0.9,2.1-1.7,4-2.5,5.8c-1.7,4-3.5,8-5.2,12.1c-0.4,0.9-0.9,1.7-2.1,1.7c-1.2,0-1.8-0.8-2.2-1.7
		c-0.4-0.8-0.7-1.6-1-2.4c-2.2-5.1-4.4-10.2-6.7-15.5c-0.3,0.1-0.8,0.3-1.1,0.4c0.6,2.5,1.1,4.8,1.6,7.1c0.9,3.9,1.8,7.9,2.6,11.8
		c0.2,1,0.3,2-0.6,2.8c-0.8,0.6-1.7,0.5-2.5,0c-5.7-3.4-11.3-6.8-17.1-10.2c-0.2,0.3-0.5,0.7-0.8,1.1c0.8,0.6,1.6,1.2,2.3,1.8
		c3.4,3,6.9,6.1,10.3,9.1c0.8,0.7,1.8,1.3,2.4,2.1c0.5,0.6,0.9,1.5,0.7,2.1c-0.2,0.6-1.1,1.1-1.8,1.5c-0.3,0.2-0.7,0.1-1.1,0.1
		c-1.4,0.1-2.8,0.2-4.2,0.3c-4.9,0.4-9.9,0.9-14.9,1.3c0,0.3,0,0.9,0,1.4c1.1,0,2.1-0.1,3.2,0c2,0.1,3.9,0.3,5.9,0.5
		c3.7,0.3,7.3,0.6,11,1c0.7,0.1,1.5,0.6,1.9,1.2c0.5,0.8,0.1,1.6-0.5,2.3c-0.2,0.2-0.5,0.4-0.7,0.7c-4.2,3.7-8.4,7.4-12.6,11
		c-0.7,0.6-1.5,1.1-2.4,1.6c0.3,0.5,0.8,1.1,1.1,1.5c1.1-0.8,2.1-1.6,3.1-2.2c3.1-1.9,6.2-3.6,9.3-5.5c1.7-1,3.3-2,5-2.9
		c1.7-0.9,3.3,0.1,3.1,2.1c0,0.3-0.1,0.6-0.1,0.9c-0.9,3.7-1.8,7.4-2.6,11.2c-0.6,2.6-1.2,5.2-1.8,7.8c0.3,0.1,0.9,0.3,1.3,0.4
		c0.4-1.1,0.6-2.2,1-3.2c2.2-5,4.4-10,6.6-15c0.4-1,1-1.8,2.2-1.8c1.2,0,1.7,0.8,2.1,1.8c2.6,6.1,5.2,12.1,7.8,18.3
		c0.3-0.1,0.9-0.3,1.5-0.5c-0.3-0.7-0.7-1.3-0.8-1.9c-1.3-5.9-2.6-11.8-3.9-17.6c-0.2-1-0.2-2,0.8-2.6c0.9-0.6,1.8-0.2,2.7,0.3
		c4.5,2.7,9.1,5.4,13.6,8.1c1.1,0.7,2.2,1.5,3.4,2.3c0.3-0.4,0.6-0.9,0.9-1.2c-0.9-0.6-1.7-1.1-2.4-1.7c-4.3-3.7-8.5-7.5-12.8-11.2
		c-0.8-0.7-1.4-1.5-1-2.6c0.4-1,1.3-1.3,2.3-1.4c3.3-0.3,6.5-0.6,9.8-0.9c3.2-0.3,6.5-0.5,9.8-0.8c0-0.3,0-0.9,0-1.5
		c-1,0-1.9,0.1-2.8,0c-3.4-0.3-6.8-0.6-10.3-0.9c-2.4-0.2-4.8-0.3-7.2-0.7c-1.8-0.2-2.3-1.8-1.2-3.2c0.2-0.3,0.5-0.6,0.8-0.8
		c2.5-2.2,5-4.4,7.5-6.6c2.3-2,4.7-4,7.1-6.1C155.6,156.7,155.2,156.3,154.9,155.8z M152.3,197.9c-4.7-2.8-9.5-5.6-14.5-8.6
		c1.3,5.7,2.5,11.1,3.7,16.5C144.7,204.7,150.6,200.4,152.3,197.9z M104,154.3c4.9,2.9,9.6,5.7,14.6,8.7c-1.3-5.7-2.5-11.1-3.7-16.6
		C110.6,148.3,107,150.9,104,154.3z M135,144.3c-4.6-0.9-9-0.9-13.5,0c2.3,5.2,4.4,10.3,6.7,15.6C130.5,154.5,132.7,149.5,135,144.3
		z M134.8,207.9c-2.2-5.1-4.4-10.1-6.7-15.5c-2.3,5.3-4.5,10.4-6.7,15.5C124.5,209,132,209,134.8,207.9z M160.5,179.7
		c-5.6,0.5-11.1,1-16.8,1.6c4.3,3.8,8.4,7.5,12.6,11.2C158.7,188.4,160.1,184.3,160.5,179.7z M143.7,171.3c5.9,0.5,11.3,1,16.9,1.5
		c-0.6-4.6-1.9-8.7-4.1-12.7C152.3,163.8,148.1,167.4,143.7,171.3z M99.9,192.2c4.3-3.7,8.4-7.4,12.8-11.2c-5.8-0.5-11.3-1-16.9-1.5
		C96.3,184.1,97.7,188.2,99.9,192.2z M112.6,171.1c-4.3-3.8-8.4-7.5-12.6-11.2c-2.3,4.1-3.7,8.1-4.1,12.8
		C101.4,172.1,106.8,171.6,112.6,171.1z M141.6,146.4c-1.2,5.5-2.4,10.9-3.7,16.5c4.9-2.9,9.7-5.7,14.5-8.6
		C149.3,150.8,145.7,148.4,141.6,146.4z M118.5,189.3c-4.9,2.9-9.6,5.7-14.5,8.6c3,3.5,6.6,6,10.8,7.9
		C116.1,200.3,117.3,194.9,118.5,189.3z"/>
	<path d="M476.8,176.3c0-4.6,3.5-8.1,8.1-8.1c4.3,0,7.9,3.5,8,7.8c0.1,4.6-3.6,8.3-8.1,8.3C480.4,184.3,476.9,180.8,476.8,176.3z
		 M484.9,173.2c-1.7,0-3,1.4-3.1,3c0,1.8,1.3,3.1,3.1,3.1c1.6,0,2.9-1.5,3-3.2C487.9,174.7,486.4,173.2,484.9,173.2z"/>
	<path d="M136.2,176.4c0,4.4-3.6,7.9-8.1,7.9c-4.4,0-8-3.6-8-7.9c0-4.7,3.5-8.3,8.1-8.3C132.8,168.2,136.2,171.7,136.2,176.4z
		 M128.2,179.3c1.6,0,3-1.5,3-3.2c0-1.5-1.4-2.9-2.9-2.9c-1.7,0-3.1,1.4-3.1,3.1C125.2,178,126.5,179.4,128.2,179.3z"/>
</g>
</svg>
