<?xml version="1.0" encoding="utf-8"?>
<!-- Generator: Adobe Illustrator 27.4.0, SVG Export Plug-In . SVG Version: 6.00 Build 0)  -->
<svg version="1.1" id="Layer_1" xmlns="http://www.w3.org/2000/svg" xmlns:xlink="http://www.w3.org/1999/xlink" x="0px" y="0px"
	 viewBox="0 0 149.9 49.5" style="enable-background:new 0 0 149.9 49.5;" xml:space="preserve">
<g>
	<path d="M109.8,40.7c-0.7,0-1.4,0-2.1,0c-0.1,0-0.2,0-0.2,0.1c-0.2,0.2-0.5,0.3-0.9,0.3c-2.8,0-5.6-0.1-8.4-0.1
		c-2.1,0-4.2,0-6.4-0.1c-3,0-5.9-0.1-8.9-0.1c-3.2,0-6.3-0.1-9.4-0.1c-2.2,0-4.5,0-6.8-0.1c-2.8,0-5.6-0.1-8.4-0.1
		c-3.2,0-6.4-0.1-9.6-0.1c-1,0-2.1,0-3.2,0c-0.3,0-0.6-0.1-0.8-0.3c-0.1,0-0.1-0.1-0.2-0.1c-0.4,0-0.9,0-1.3,0
		c-0.2,0-0.2,0.1-0.3,0.2c-0.2,1-0.5,2-1,3c-1.9,3.5-5.1,5.6-9.5,6.2c-6.6,0.9-12.9-3-14.1-8.5c-0.1-0.6-0.2-1.1-0.3-1.7
		c-0.5,0-1-0.1-1.5-0.1c-0.1,0-0.1,0-0.2,0.1c-0.3,0.3-0.7,0.3-1.1,0.2c-3.5-0.5-7-0.9-10.4-1.7c-1-0.2-1.9-0.6-2.8-0.9
		c-1.2-0.5-1.8-1.3-2-2.4c-0.2-1.5,0.1-3.1,0.5-4.5c0.1-0.5,0.4-0.9,0.8-1.3c0.6-0.8,0.9-1.6,0.9-2.4c0-0.2,0-0.5,0.1-0.7
		c0.4-0.9,0.3-1.7,0.2-2.6C2.2,21,2,19.3,2,17.6c0-1,0.3-1.9,1-2.6c0.4-0.5,0.8-1,1.3-1.5c1.2-1.2,2.3-2.4,3.6-3.5
		c2-1.7,4.1-3.3,6.2-5c0.1,0,0.1-0.1,0.1-0.1c-0.4-0.3-0.9-0.5-1.3-0.8c-0.1,0-0.1-0.1-0.2-0.1c-0.5-0.6-0.3-1.1,0.5-1.2
		c1.9-0.2,3.8-0.5,5.8-0.6C21,2,23.1,1.8,25.2,1.7c0.9,0,1.7-0.2,2.4-0.6c0.8-0.4,1.7-0.5,2.6-0.6c2-0.1,3.9-0.2,5.9-0.3
		C42.8,0,49.5,0,56.2,0c2.8,0,5.7,0.1,8.5,0.2c3.5,0.1,7,0.4,10.5,0.5c2.5,0.1,4.7,0.8,6.6,2.1c0.1,0.1,0.2,0.1,0.3,0.1
		c2.2,0.6,4.4,1.3,6.5,2.1C90,5.6,91.3,6,92.6,6.5c5.3,2.3,10.6,4.7,15.8,7.2c1.2,0.6,2.3,1.1,3.5,1.7c0.1,0.1,0.3,0.1,0.4,0.1
		c2.2-0.1,4.4,0,6.6,0.2c1.9,0.2,3.8,0.3,5.7,0.6c3,0.4,6,0.8,8.9,1.2c2.5,0.4,5,0.9,7.4,1.7c1.5,0.5,2.7,1.3,3.8,2.2
		c0.2,0.1,0.2,0.4,0.3,0.5c0.1,0.1,0.1,0.1,0.2,0.2c0.4,0.1,0.6,0.4,0.8,0.6c0.7,1.1,1.4,2.2,2.1,3.4c0.2,0.4,0.4,0.8,0.7,1.2
		c0.5,0.6,0.7,1.4,0.8,2.2c0.1,0.9,0.2,1.7,0.2,2.6c0,0.5-0.2,1-0.4,1.5c-0.2,0.5-0.3,0.9-0.2,1.4c0.1,0.7,0,1.4-0.5,2
		c-0.1,0.1-0.1,0.2,0,0.2c0.6,1,0.5,1.7-0.5,2.5c-0.6,0.4-1.4,0.7-2.1,0.9c-1.7,0.5-3.5,0.7-5.3,0.8c-1.3,0.1-2.6,0.1-3.8,0.1
		c-0.7,0-1-0.2-1.1-0.8c-0.5,0-1,0-1.5,0c-0.1,0-0.2,0.1-0.2,0.2c-0.4,1.9-1.4,3.6-2.9,5c-2.2,2.1-5,3.3-8.3,3.5
		c-6,0.4-11.8-2.9-13.1-8.3C109.8,41,109.8,40.9,109.8,40.7z M51.9,4.2c-0.3,0-0.6,0-0.9,0c-2.5,0.1-5,0.2-7.5,0.2
		c-0.4,0-0.9,0-1.3,0.1c0.3,0,0.5,0,0.8,0c2.9-0.1,5.9-0.2,8.8-0.3C51.8,4.2,51.8,4.2,51.9,4.2c0.3,0,0.6,0,0.9,0c0.8,0,1.5,0,2.3,0
		c-0.8-0.1-1.6-0.1-2.5,0C52.4,4.2,52.1,4.2,51.9,4.2z M144.3,21.8c-0.1-0.1-0.1-0.1-0.1-0.1c-0.9-0.8-1.9-1.4-3-1.8
		c-0.9-0.3-1.8-0.6-2.8-0.9c-4.2-1-8.5-1.6-12.8-2.1c-2.7-0.3-5.4-0.6-8.2-0.8c-1.3-0.1-2.6-0.1-4-0.1c-1,0-2.1,0.1-3.1-0.1
		c-0.9-0.2-1.9-0.5-2.8-0.9c-3.1-1.4-6.1-2.8-9.2-4.1c-4-1.9-7.9-3.9-12.1-5.4C84.7,5,82.9,4.4,81.2,4c-2.5-0.6-5-0.9-7.5-1.2
		c-3.6-0.5-7.3-0.7-11-0.7c-2.5,0-5,0-7.5,0c-2.6,0-5.1,0-7.7,0.1c-2.2,0-4.4,0.1-6.5,0.2c-3.5,0.1-7,0.2-10.6,0.4
		C28,2.9,25.5,3,22.9,3.1c-2.5,0.1-4.9,0.3-7.4,0.4c-0.8,0-1.6,0.1-2.3,0.1c0,0,0,0.1-0.1,0.1c0.3,0.2,0.5,0.4,0.8,0.4
		c0.4,0.1,0.9,0.2,1.3,0.3c1.2,0.2,2.4,0.4,3.5,0.7c0.6,0.1,0.7,0.5,0.3,0.9c-0.3,0.3-0.7,0.5-1,0.8c-2.1,1.5-4.2,3.1-6.3,4.7
		c-0.2,0.2-0.2,0.3,0,0.5c0.1,0,0.1,0.1,0.2,0.1c1.2,0.9,2.5,1.7,3.7,2.6c0.5,0.4,1,0.7,1.4,1.1c0.5,0.4,0.4,0.8-0.1,1.1
		c-0.8,0.5-1.6,1-2.4,1.5c-0.5,0.3-1.1,0.5-1.8,0.6c-1,0-2,0.1-3,0c-1.3-0.1-2.5-0.2-3.7-0.4C5,18.6,3.8,18.5,2.7,18c0,0,0,0-0.1,0
		c0,0.1,0,0.2,0,0.3c0.2,1.3,0.3,2.7,0.4,4c0.1,0.7,0.3,1.4,0.2,2.1C3.2,24.7,3.1,25,3,25.3c0.1,0,0.2,0,0.3,0.1
		c2.9,0.4,5.8,0.9,8.8,1.3c2.4,0.3,4.7,0.6,7.1,0.9c0.1,0,0.3,0,0.4-0.1c1-0.7,2.2-1.2,3.4-1.7c2.8-0.9,5.6-1.3,8.6-1.1
		c0.7,0,1.4,0.1,2.1,0.2c0-0.1,0-0.1-0.1-0.2c-0.6-1.7-1.1-3.4-1.4-5.2c-0.1-0.7-0.2-1.5-0.1-2.2c0.1-1.1,0.6-2,1.1-3
		c0.1-0.2,0.2-0.4,0.3-0.5c-0.1,0-0.1,0-0.1,0c-2-0.8-4-1.5-6-2.3c-1.1-0.4-2.2-0.9-3.2-1.4c-0.5-0.2-0.8-0.6-0.8-1.1
		c0-0.5,0.3-0.8,0.7-1.1c1-0.8,1.9-1.5,2.9-2.2c1.1-0.8,2.3-1.3,3.8-1.3c3.3-0.1,6.6-0.3,9.9-0.4c3.3-0.1,6.6-0.3,9.9-0.4
		c2.7-0.1,5.3-0.1,8-0.1c2.5,0,5,0,7.6,0.1c3.1,0.1,6.2,0.2,9.3,0.5c2,0.2,4,0.5,5.9,1c2.7,0.8,5.3,1.8,7.8,3
		c2.7,1.2,5.3,2.6,7.9,3.8c0.1,0.1,0.3,0.1,0.4,0.1c0.8,0,1.5,0.2,2.1,0.4c0.8,0.3,1.3,0.7,1.6,1.4c0.1,0.1,0.2,0.3,0.3,0.4
		c1.3,0.7,2.5,1.4,3.8,2.1c0.1,0.1,0.2,0.1,0.3,0.2c0.8,0.8,1.2,1.7,1.4,2.7c0.4,2.1,0.6,4.3,0.5,6.4c-0.1,3.1-0.7,6.2-1.4,9.2
		c-0.1,0.6-0.3,1.3-0.4,1.9c0.2,0,0.4,0,0.5,0c0,0-0.1,0-0.1,0c0.4-1.4,0.8-2.8,1.3-4.1c1.1-3.1,3.3-5.4,6.8-6.8
		c4.7-1.8,9.6-2.1,14.5-0.6c2.1,0.7,4,1.6,5.5,3c2.2,2.1,3.3,4.5,3.8,7.2c0.1,0.4,0.1,0.8,0.2,1.3c0.2,0,0.4,0,0.5,0
		c0.9,0,1.7,0,2.6,0c2.2,0,4.5-0.1,6.8-0.1c0.1,0,0.2-0.1,0.2-0.1c0.4-0.4,0.6-0.9,0.4-1.4c-0.2-0.7-0.1-1.3,0.3-2
		c0.2-0.3,0.2-0.7,0.3-1c0.1-1.2-0.1-2.4-0.4-3.5c-0.3-1-0.9-1.7-2-2.1c-1.4-0.5-2.8-0.9-4.3-1.1c-1.3-0.2-2.6-0.5-3.8-1
		c-1.6-0.6-2.8-1.6-4.1-2.6c-0.2-0.1-0.2-0.4-0.2-0.6c0-0.2,0.3-0.4,0.6-0.4c0.4,0,0.8,0,1.2,0c2.3,0.2,4.5,0.5,6.8,0.8
		C143.5,21.7,143.9,21.8,144.3,21.8z M67.9,16.6c0,0.1,0,0.1,0,0.2c0.1,0.6,0.2,1.3,0.3,1.9c0.3,2.2,0.5,4.3,0.5,6.5
		c0,2.3,0.1,4.7,0.1,7c0,0.9,0.1,1.9,0.1,2.8c0,0.4-0.2,0.9-0.3,1.4c1,0,1.9,0,2.9,0c2.3,0,4.7,0.1,7.1,0.1c3.4,0,6.9,0.1,10.3,0.2
		c2.1,0,4.2,0.1,6.4,0.1c3.1,0,6.2,0.1,9.3,0.1c0.6,0,0.5,0,0.6-0.4c0.8-3.2,1.4-6.4,1.7-9.7c0.2-2.4,0.1-4.8-0.4-7.2
		c-0.2-0.8-0.5-1.6-1.1-2.3c-0.1-0.1-0.2-0.2-0.3-0.2c-0.8,0.1-1.6,0.2-2.3,0.2c-1.8,0.1-3.5,0.3-5.3,0.3c-2.9,0.1-5.7,0-8.6-0.2
		c-3.6-0.2-7.2-0.3-10.8-0.5C74.6,16.9,71.3,16.7,67.9,16.6z M34.1,14c-0.4,0.8-0.8,1.6-1.1,2.4c-0.3,0.8-0.3,1.6-0.2,2.4
		c0.3,2.1,0.9,4.1,1.6,6.1c0,0.1,0.2,0.2,0.3,0.2c0.9,0.3,1.9,0.5,2.9,0.8c2.3,0.7,4.2,1.9,5.6,3.7c1.5,1.9,2.5,3.9,3,6.2
		c0,0.2,0.1,0.2,0.3,0.2c2.2,0,4.3,0.1,6.5,0.1c1.7,0,3.4,0,5.1,0.1c3.3,0.1,6.5,0.1,9.8,0.2c0.2,0,0.3,0,0.3-0.2
		c0.3-0.8,0.3-1.6,0.3-2.4c-0.1-2.4-0.2-4.7-0.2-7.1c0-1.3,0-2.6-0.1-3.9c-0.1-1.5-0.3-3.1-0.5-4.7c-0.1-0.5-0.1-0.9-0.2-1.4
		c-0.1,0-0.2,0-0.3,0c-1,0-2.1-0.1-3.1-0.1c-3.8-0.2-7.6-0.4-11.4-0.5c-3.2-0.2-6.4-0.3-9.7-0.5c-1.6-0.1-3.1-0.2-4.6-0.5
		C36.8,14.7,35.5,14.3,34.1,14z M0.7,33.2c0,0.3,0.1,0.6,0.1,0.8c0.1,1,0.7,1.8,1.8,2.3c0.9,0.3,1.9,0.6,2.8,0.9
		c3.3,0.8,6.7,1.2,10.1,1.7c0.4,0.1,0.5,0,0.6-0.4c0.1-0.4,0.1-0.8,0.1-1.3c0.2-1.7,0.6-3.5,1.4-5.1c1-2.2,2.6-3.8,5.2-4.8
		c4.5-1.7,9.2-1.9,13.9-0.5c2.4,0.7,4.3,2,5.6,3.8c0.7,1,1.3,2.1,1.8,3.3c0.7,1.7,1,3.4,1.1,5.2c0.1,0.9,0.1,0.7,1,0.8
		c3.2,0,6.5,0.1,9.7,0.1c3.3,0,6.6,0.1,9.9,0.1c3,0,6,0.1,9,0.1c2,0,4,0,5.9,0.1c3.3,0,6.5,0.1,9.8,0.1c1.8,0,3.6,0,5.4,0
		c3.6,0,7.2,0.1,10.8,0.1c0.3,0,0.4-0.1,0.5-0.3c0.1-0.8,0.3-1.6,0.4-2.4c0.3-1.7,0.7-3.4,1.4-5c0.9-2.2,2.3-4,4.7-5.1
		c3.6-1.7,7.4-2.3,11.5-1.7c2.3,0.3,4.4,1,6.3,2.2c2.2,1.4,3.6,3.3,4.4,5.5c0.9,2.3,0.8,4.7,0.8,7.1c0,0.3,0,0.4,0.4,0.4
		c1,0,1.9,0,2.9,0c1.9-0.1,3.8-0.2,5.6-0.8c0.8-0.2,1.6-0.4,2.3-0.9c0.7-0.5,0.8-1,0.4-1.7c-0.1-0.2-0.3-0.2-0.5-0.2
		c-2.4,0-4.8,0.1-7.3,0.1c-0.9,0-1.7,0.1-2.6,0.1c-0.3,0-0.4-0.2-0.4-0.4c0-0.2,0-0.3,0-0.5c-0.1-1.2-0.4-2.3-0.8-3.4
		c-1.2-3.1-3.4-5.5-7-6.9c-4.6-1.8-9.3-1.8-14.1-0.3c-2.2,0.7-4.1,1.8-5.6,3.4c-1.2,1.3-1.9,2.8-2.4,4.4c-0.3,1.1-0.5,2.2-0.8,3.2
		c-0.1,0.3-0.2,0.4-0.6,0.4c-0.2,0-0.4,0-0.6,0c-0.1,0-0.2,0.1-0.3,0.2c-0.1,0.2-0.2,0.5-0.3,0.7c-0.2,0.3-0.5,0.6-0.9,0.6
		c-0.4,0-0.8,0-1.1,0c-2.6,0-5.2,0-7.8-0.1c-2,0-3.9,0-5.8,0c-2.7,0-5.3,0-8,0c-2.5,0-5,0-7.5,0c-2.4,0-4.8,0-7.2,0
		c-2.1,0-4.2,0-6.3,0c-2.5,0-5,0-7.5,0c-1.9,0-3.8,0-5.7,0c-0.6,0-1-0.2-1.3-0.7c-0.1-0.3-0.3-0.6-0.3-0.9c-0.3-2-1-3.8-2.1-5.6
		c-0.8-1.3-1.7-2.5-3.1-3.5c-1.7-1.1-3.6-1.7-5.6-2.2c-0.1,0-0.2,0-0.3,0.1c-0.2,0.2-0.5,0.2-0.5,0c-0.1-0.2-0.3-0.2-0.5-0.3
		c-3.4-0.5-6.8-0.2-10.1,0.8c-3.2,1-5.4,2.9-6.7,5.6c-0.5,1.1-0.9,2.3-1.1,3.4c-0.1,0.3-0.2,0.4-0.5,0.3c-0.4,0-0.7-0.1-1.1-0.2
		c-3.5-0.6-7.1-1.2-10.6-1.8C2.5,33.5,1.6,33.4,0.7,33.2z M63.4,4.8c-0.6,0-1.2,0-1.8,0c-3.4,0-6.8,0-10.2,0.1
		C48.2,4.9,45.1,5,42,5.1c-0.2,0-0.3,0.1-0.4,0.2c-0.3,0.7-0.7,1.3-1,2c-0.1,0.1-0.1,0.2-0.1,0.4c0.1,2.1,0.2,4.2,0.3,6.2
		c0,0.2,0.1,0.3,0.3,0.3c2.2,0.1,4.4,0.3,6.5,0.4c2.6,0.1,5.2,0.2,7.8,0.4c2.4,0.1,4.8,0.2,7.3,0.3c0.6,0,1.1,0,1.7,0.1
		C64.1,11.8,63.7,8.3,63.4,4.8z M95.6,12.7c-0.1,0-0.1-0.1-0.2-0.1c-3.5-1.9-7.2-3.6-10.9-5.1c-2.9-1.1-5.9-1.9-9-2.2
		c-1.9-0.2-3.8-0.3-5.7-0.4c-0.4,0-0.9,0-1.4,0c0.8,3.6,1.6,7.1,2.4,10.7c0.1,0,0.1,0,0.2,0c1.2,0,2.4,0.1,3.5,0.2
		c2.6,0.1,5.3,0.2,7.9,0.4c2.1,0.1,4.3,0.2,6.4,0.3c2.2,0.1,4.4,0.2,6.6,0.2c0.5,0,1,0,1.5,0c-0.3-0.1-0.7-0.1-1-0.2
		c-0.5-0.1-0.9-0.4-0.9-0.8c-0.1-0.4-0.1-0.8-0.1-1.2C95.1,13.8,95.2,13.2,95.6,12.7z M122.1,29c-6.5,0-11.8,4.5-11.8,10
		c0,5.6,5.4,9.8,11.4,9.9c6,0.1,12-3.8,12.1-10C134,33.5,128.6,29,122.1,29z M18.8,39c0.1,5.5,5.1,9.7,11.2,9.9
		c6.2,0.2,12-3.7,12.3-9.7c0.3-5.4-4.8-10.1-11.5-10.3C24.2,28.9,18.9,33.4,18.8,39z M0.6,32.6c4.8,1,9.5,1.8,14.3,2.5
		c0.6-2.6,1.6-5,3.8-6.9c-5.3-0.8-10.6-1.5-15.9-2.2c-0.1,0.3-0.1,0.7-0.1,1c-0.1,0.6-0.5,1.2-0.9,1.7c-0.3,0.4-0.6,0.9-0.7,1.4
		C0.9,30.9,0.8,31.7,0.6,32.6z M109.7,40.1c-0.3-3.1,0.7-5.8,3.1-8.1c2.4-2.3,5.4-3.5,9-3.6c3.3-0.1,6.1,0.8,8.6,2.6
		c3.2,2.4,4.5,5.4,4.1,9c0.5,0,1,0,1.5,0c0-0.7,0-1.3,0-1.9c0-1.7-0.3-3.3-0.9-4.9c-1-2.7-3-4.7-6-5.9c-4.5-1.8-9.1-1.7-13.7,0
		c-2.8,1-4.8,2.8-5.8,5.2c-0.5,1.2-0.8,2.4-1.1,3.6c-0.3,1.3-0.5,2.6-0.8,3.9C108.4,40.1,109,40.1,109.7,40.1z M18.2,38.6
		c0.4-5.8,5.8-10,12.1-10.1c2.9-0.1,5.7,0.6,8,2.2c3.3,2.2,4.9,5.2,4.8,8.8c0.5,0,0.9,0,1.4,0c-0.1-0.5-0.1-0.9-0.2-1.4
		c-0.3-2.2-1-4.3-2.2-6.3c-1.2-1.9-2.8-3.4-5.2-4.2c-4.2-1.4-8.4-1.5-12.6-0.2c-3,0.9-5,2.5-6.2,5c-0.7,1.5-1.1,3.1-1.3,4.7
		c-0.1,0.5-0.1,1-0.2,1.5C17.2,38.5,17.7,38.5,18.2,38.6z M38.2,5.3c-0.1,0-0.1,0-0.2,0c-2.2,0.1-4.4,0.2-6.6,0.4
		c-1.1,0.1-2,0.4-2.8,1.1c-0.7,0.6-1.5,1.2-2.3,1.8c-0.2,0.1-0.3,0.2-0.4,0.4c-0.3,0.3-0.3,0.6,0.1,0.8c0.1,0.1,0.2,0.1,0.3,0.2
		c2.5,0.9,5,1.9,7.5,2.9c0.1,0,0.2,0,0.3,0.1C35.5,10.3,36.8,7.8,38.2,5.3z M104.8,37.5C104.7,37.5,104.7,37.4,104.8,37.5
		c-3.1-0.1-6.1-0.1-9.1-0.2c-2.1,0-4.2-0.1-6.4-0.1c-3.3,0-6.5-0.1-9.8-0.1c-1.3,0-2.6,0-3.9,0c-2.3,0-4.7-0.1-7.1-0.1
		c-0.1,0-0.2,0-0.2,0.1c-0.2,0.4-0.3,0.8-0.5,1.1c0.1,0,0.2,0,0.3,0c1.6,0,3.1,0,4.7,0c2.8,0,5.7,0,8.5,0c1.7,0,3.5,0,5.2,0
		c2.9,0,5.9,0,8.8,0.1c2.7,0,5.4,0,8.1,0.1c1,0,1,0,1.3-0.8C104.8,37.5,104.8,37.5,104.8,37.5z M16.7,16.3c0,0,0.1-0.1,0.1-0.1
		c-0.1,0-0.2-0.1-0.3-0.2c-1.4-1-2.7-2-4.1-3c-0.1,0-0.2-0.1-0.3-0.1c-1.2,0-2.3-0.1-3.5-0.1c-1.3,0-2.4,0.2-3.5,0.8
		c-0.1,0-0.2,0.1-0.3,0.2c-0.5,0.6-1,1.2-1.5,1.9c0,0-0.1,0.1-0.1,0.2C7.7,16,12.2,16.2,16.7,16.3z M18.8,5.7
		c-0.2,0-0.2-0.1-0.3-0.1c-1.1-0.2-2.2-0.4-3.3-0.6c-0.1,0-0.2,0-0.3,0.1c-1.1,0.9-2.3,1.8-3.5,2.7c-1.8,1.5-3.6,2.9-5.2,4.5
		c-0.1,0.1-0.2,0.2-0.4,0.4c1.8-0.5,3.7-0.3,5.6-0.3c-0.5-0.6-0.5-0.9,0-1.2c1.9-1.5,3.9-2.9,5.8-4.4C17.7,6.4,18.2,6.1,18.8,5.7z
		 M34.7,13c1.8,0.6,3.5,0.9,5.4,1.1c0-0.5-0.1-1-0.1-1.5C40,11,39.9,9.3,39.8,7.7c0-0.2,0.1-0.5,0.2-0.8c0.3-0.6,0.6-1.2,0.9-1.8
		c-0.5,0-1.1,0.1-1.6,0.1c-0.3,0-0.4,0.1-0.6,0.3c-0.8,1.6-1.7,3.2-2.6,4.7C35.8,11.2,35.3,12.1,34.7,13z M46.2,36.5
		c0.1,0.4,0.2,0.7,0.3,1c0.2,0.4,0.4,0.5,0.9,0.5c2.4,0,4.8,0,7.2,0c1.1,0,2.2,0,3.3,0c3.1,0,6.1,0.1,9.2,0.1c0.1,0,0.2,0,0.2-0.1
		c0.2-0.4,0.4-0.8,0.5-1.2C60.5,36.7,53.4,36.6,46.2,36.5z M66.2,4.9C66.2,4.9,66.2,5,66.2,4.9c0.2,1.8,0.5,3.5,0.7,5.3
		s0.5,3.4,0.8,5.2c0,0.1,0.1,0.2,0.2,0.2c0.7,0,1.5,0.1,2.2,0.1c-0.8-3.6-1.6-7.1-2.4-10.7C67.2,4.9,66.7,4.9,66.2,4.9z M2.8,16.4
		c-0.1,0.3-0.1,0.6-0.1,0.8c0,0.1,0.1,0.2,0.2,0.2c0.5,0.2,1.1,0.4,1.6,0.5c1,0.2,2.1,0.3,3.1,0.4c1.3,0.1,2.6,0.2,3.9,0.3
		c1.4,0.1,2.6-0.3,3.7-1c0.3-0.2,0.6-0.4,0.9-0.6c0.1,0,0.1-0.1,0.2-0.1c0,0,0,0-0.1-0.1C11.7,16.7,7.3,16.6,2.8,16.4z M67.1,15.5
		c-0.1-0.5-0.1-0.9-0.2-1.4c-0.3-1.8-0.5-3.7-0.8-5.5c-0.2-1.2-0.3-2.4-0.5-3.6c0-0.1-0.1-0.2-0.2-0.2c-0.4,0-0.9,0-1.3,0
		c0.3,3.5,0.7,7,1,10.5C65.7,15.4,66.4,15.4,67.1,15.5z M147.5,26.3C147.5,26.2,147.5,26.2,147.5,26.3c-0.6-1.1-1.3-2.2-2-3.3
		c-0.2-0.2-0.4-0.4-0.7-0.4c-0.3-0.1-0.7-0.1-1-0.2c-2.3-0.3-4.6-0.5-7-0.8c-0.5,0-1-0.1-1.4-0.1c0.9,0.2,1.9,0.3,2.8,0.4
		c0.6,0.1,1.1,0.1,1.5,0.6c0.4,0.5,0.8,0.9,1.3,1.4c0.2,0.3,0.4,0.5,0.3,0.9C143.4,25.1,145.6,25.4,147.5,26.3z M73.7,2.2
		C73.8,2.2,73.8,2.1,73.7,2.2C73.5,2,73.2,1.8,73,1.8c-1-0.1-2.1-0.2-3.1-0.3c-1.5-0.1-2.9-0.1-4.4-0.2c-2.9-0.1-5.8-0.2-8.8-0.2
		c-3.2,0-6.4,0-9.6,0.1c-2.8,0-5.6,0.1-8.4,0.1c-0.7,0-1.4,0-2.1,0.1c-0.4,0-0.8,0.2-1.2,0.5c0.1,0,0.2,0,0.2,0
		c2.9-0.1,5.9-0.2,8.9-0.3c3.4-0.1,6.7-0.1,10.1-0.2c3.7,0,7.3,0,11,0c1.7,0,3.4,0.2,5.1,0.3C71.7,2,72.7,2.1,73.7,2.2z M98.3,16.1
		c0.4,0,0.9,0,1.4-0.1c0.4,0,0.7-0.2,0.9-0.6c0.4-0.8-0.1-1.8-0.9-2.2c-0.8-0.4-1.7-0.6-2.7-0.5c-0.4,0-0.9,0.1-1,0.6
		c-0.2,0.7-0.3,1.4-0.2,2.1c0.1,0.4,0.1,0.5,0.6,0.5C97,16,97.6,16.1,98.3,16.1z M26.8,2.3c0.1,0,0.1,0,0.1,0c2.3-0.1,4.7-0.2,7-0.3
		c0.1,0,0.3,0,0.3-0.1c0.8-0.5,1.6-1.1,2.7-1.1c-0.5,0-1,0-1.5,0c-1.8,0.1-3.7,0.2-5.5,0.3C28.8,1.2,27.6,1.5,26.8,2.3z M88.5,5.7
		c0.1,0,0.2,0.1,0.2,0.1c1,0.4,2.1,0.9,3.1,1.3c3.8,1.8,7.7,3.6,11.5,5.4c1.9,0.9,3.7,1.6,5.6,2.4c0.4,0.2,0.9,0.3,1.3,0.4
		c0-0.1-0.1-0.1-0.1-0.1c-6.2-3-12.4-5.9-18.7-8.6C90.5,6.3,89.6,5.9,88.5,5.7z M73.1,1.2c0.5,0.1,1,0.3,1.3,0.7
		c0.3,0.4,0.7,0.5,1.2,0.6c2,0.3,4,0.6,5.9,0.9c-0.1,0-0.2-0.1-0.3-0.2C78.9,1.6,76,1.3,73.1,1.2z M38.5,4.7
		C38.5,4.7,38.5,4.7,38.5,4.7c-0.1-0.1-0.2-0.1-0.2-0.1c-2.4,0.1-4.8,0.2-7.2,0.3c-0.9,0-1.8,0.2-2.6,0.6c-1.3,0.7-2.4,1.5-3.5,2.4
		c-0.3,0.2-0.6,0.5-0.8,0.8C24,9.1,24,9.3,24.4,9.5c0.3,0.2,0.7,0.4,1,0.5c-0.5-0.6-0.4-1.1,0.2-1.6c0.1-0.1,0.2-0.2,0.3-0.2
		c0.8-0.6,1.6-1.2,2.4-1.9c0.8-0.7,1.8-1.1,3-1.2c2-0.1,4-0.2,5.9-0.3C37.6,4.8,38.1,4.7,38.5,4.7z M140.6,24.4c0,0,0.1-0.1,0.1-0.1
		c-0.5-0.6-1.1-1.1-1.6-1.7c-0.1-0.1-0.3-0.1-0.4-0.1c-0.5-0.1-1.1-0.2-1.6-0.2c-0.3,0-0.7-0.1-1-0.1c0.2,0.2,0.3,0.3,0.5,0.4
		c1.1,0.8,2.2,1.5,3.7,1.8C140.3,24.4,140.5,24.4,140.6,24.4z M100.5,16.5c0.6,0,1.2-0.1,1.9-0.2c-0.4-0.2-0.8-0.4-1.1-0.6
		C101,16,100.7,16.2,100.5,16.5z M104.3,16.6C104.3,16.6,104.3,16.6,104.3,16.6c-1-0.6-2-1.1-2.9-1.7c0,0-0.1,0-0.1,0.1
		c0.1,0.1,0.1,0.1,0.2,0.2c0.6,0.3,1.1,0.6,1.7,0.9c0.2,0.1,0.4,0.3,0.3,0.6C103.9,16.7,104.1,16.7,104.3,16.6z M20.4,2.6
		c0.1,0,0.1,0,0.1,0c1.6-0.1,3.3-0.2,5-0.2c0.1,0,0.2-0.1,0.3-0.1c0,0,0,0,0-0.1C24,2.3,22.2,2.5,20.4,2.6z M60.7,4.2
		C60.7,4.1,60.7,4.1,60.7,4.2c-1.4,0-2.8,0-4.3,0c0,0,0,0,0,0C57.8,4.2,59.3,4.2,60.7,4.2z M61,4.2C61,4.2,61,4.2,61,4.2
		c1,0,1.9,0,2.9,0c0,0,0,0,0,0C62.9,4.2,61.9,4.2,61,4.2z M42.8,0.7C42.8,0.7,42.8,0.7,42.8,0.7c-0.9,0-1.9,0-2.8,0c0,0,0,0,0,0
		C41,0.7,41.9,0.7,42.8,0.7z M39.3,4.6C39.3,4.6,39.3,4.6,39.3,4.6c0.8,0,1.6,0,2.4,0c0,0,0,0,0,0C41,4.5,40.2,4.6,39.3,4.6z
		 M85.1,4.4C85.1,4.4,85.1,4.4,85.1,4.4c0.6,0.3,1.2,0.5,1.8,0.7c0,0,0,0,0-0.1C86.3,4.8,85.7,4.6,85.1,4.4z M43.5,0.6L43.5,0.6
		c0.8,0,1.5,0,2.3,0v0C45.1,0.6,44.3,0.6,43.5,0.6z M37.9,0.7L37.9,0.7c0.4,0,0.9,0,1.4,0v0C38.8,0.7,38.4,0.7,37.9,0.7z"/>
	<path d="M145.7,35.5c-0.4-0.1-0.8-0.1-1.2-0.2c-0.7-0.2-1.1-0.6-1-1.1c0-0.6,0.1-1.1,0.3-1.6c0.1-0.5,0.6-0.8,1.2-0.7
		c0.8,0.1,1.6,0.2,2.3,0.4c1,0.2,1.3,0.8,0.8,1.6c-0.2,0.3-0.3,0.5-0.5,0.8C147.3,35.3,146.6,35.6,145.7,35.5z M145.8,35
		c0.6,0,1-0.2,1.3-0.6c0.2-0.3,0.4-0.6,0.5-0.8c0.2-0.4,0.1-0.6-0.4-0.8c-0.8-0.2-1.5-0.3-2.3-0.4c-0.3,0-0.5,0.1-0.6,0.4
		c-0.1,0.4-0.2,0.9-0.2,1.3c0,0.4,0.2,0.6,0.7,0.7C145.1,34.9,145.5,34.9,145.8,35z"/>
	<path d="M71.2,19.8c0.3,0,0.5,0,0.8,0c0.1,0,0.2,0,0.3-0.1c1-0.7,2.6-0.6,3.5,0.2c0.2,0.2,0.4,0.2,0.7,0.3c0.4,0.1,0.8,0.1,1.1,0.2
		c0.5,0.1,0.7,0.4,0.6,0.7c-0.1,0.3-0.3,0.5-0.8,0.6c-0.4,0-0.8,0-1.1,0c-0.1,0-0.3,0-0.3,0.1c-0.9,0.8-2.7,0.7-3.7-0.1
		c-0.1-0.1-0.3-0.2-0.4-0.2c-0.5,0-1-0.1-1.5-0.1c-0.8-0.1-1.1-0.4-0.9-1.1c0.1-0.3,0.3-0.5,0.7-0.5C70.5,19.8,70.9,19.8,71.2,19.8
		C71.2,19.8,71.2,19.8,71.2,19.8z M77.5,21.2C77.5,21.1,77.5,21.1,77.5,21.2c-0.1-0.1-0.2-0.2-0.4-0.2c-0.3-0.1-0.6-0.1-0.9-0.2
		c-1.4-0.1-2.7-0.2-4-0.3c-0.6,0-1.2,0-1.7-0.1c-0.2,0-0.3,0-0.4,0.2c0,0.2,0.1,0.2,0.3,0.3c0.7,0,1.5,0.1,2.2,0.1
		c1.5,0.1,2.9,0.1,4.4,0.2C77.1,21.2,77.3,21.2,77.5,21.2z M74.7,21.7c-0.4,0-0.9,0-1.3-0.1C73.8,21.8,74.3,21.9,74.7,21.7z
		 M74.5,20C74.5,20,74.5,20,74.5,20c-0.3-0.1-0.7-0.1-1-0.2c0,0,0,0,0,0.1C73.8,20,74.2,20,74.5,20z"/>
	<path d="M37.4,17.9c0.1,0,0.2,0,0.3,0c0.4,0,0.7,0,1.1-0.2c0.9-0.6,2.5-0.4,3.3,0.4c0.1,0.1,0.3,0.2,0.4,0.2
		c0.4,0.1,0.8,0.1,1.2,0.2c0.3,0.1,0.7,0.2,0.7,0.6c0.1,0.3-0.2,0.6-0.6,0.7c-0.4,0-0.9,0-1.3,0c-0.1,0-0.2,0-0.3,0.1
		c-0.9,0.8-2.8,0.7-3.7-0.1c-0.1-0.1-0.3-0.2-0.4-0.2c-0.5,0-1-0.1-1.5-0.1c-0.8-0.1-1-0.4-0.9-1c0.1-0.4,0.3-0.6,0.7-0.6
		C36.7,17.9,37.1,17.9,37.4,17.9C37.4,17.9,37.4,17.9,37.4,17.9z M43.6,19.2c0,0,0-0.1,0-0.2c-0.3-0.1-0.5-0.2-0.8-0.2
		c-0.9-0.1-1.7-0.2-2.6-0.2c-1.2-0.1-2.4-0.1-3.7-0.2c-0.2,0-0.4,0-0.4,0.3s0.2,0.2,0.4,0.2c2,0.1,4,0.2,6,0.3
		C42.9,19.2,43.3,19.2,43.6,19.2z M39.5,19.7c0.5,0.2,1,0.3,1.5,0.1C40.4,19.7,39.9,19.7,39.5,19.7z M39.6,17.9
		C39.6,18,39.6,18,39.6,17.9c0.4,0.1,0.7,0.1,1.1,0.2c0,0,0-0.1,0-0.1C40.3,18,39.9,18,39.6,17.9z"/>
	<path d="M113.3,38.9c0-4.1,4-7.4,8.8-7.4c5,0,8.9,3.3,8.9,7.6c-0.1,4.1-4,7.4-8.9,7.4C117.2,46.4,113.3,43.1,113.3,38.9z M122,45.9
		c4.3,0,8.1-2.9,8.2-6.8c0.1-3.9-3.6-7-8.2-7c-4.5,0-8.1,3.1-8.1,6.8C113.9,42.8,117.5,45.9,122,45.9z"/>
	<path d="M30.6,31.5c4.9,0,8.9,3.4,8.8,7.5c-0.1,4.2-4,7.4-8.9,7.4c-4.8,0-8.7-3.4-8.7-7.5C21.8,34.8,25.7,31.5,30.6,31.5z
		 M22.4,38.9c0,3.8,3.6,6.9,8.1,6.9c4.4,0,8.2-2.9,8.3-6.9c0-3.9-3.7-7-8.2-7C26.1,32,22.5,35.1,22.4,38.9z"/>
	<path d="M114.8,39.8c0-0.5,0.2-0.7,0.7-0.8c0.9-0.2,1.7-0.3,2.6-0.3c0.3,0,0.6,0,0.9,0c0.4,0,0.7,0.2,0.8,0.6
		c0.1,0.2,0.2,0.4,0.2,0.6c0.1,0.2,0.1,0.5-0.1,0.6c-1,0.7-2,1.4-3.3,1.7c-0.4,0.1-0.7,0-0.9-0.3C115.2,41.2,115,40.5,114.8,39.8z
		 M119.4,40.1c-0.1-0.2-0.2-0.4-0.2-0.7c-0.1-0.2-0.1-0.2-0.3-0.2c-0.1,0-0.2,0-0.3,0c-0.9,0-1.9,0-2.8,0.2c-0.2,0-0.3,0.1-0.3,0.3
		c0.2,0.6,0.4,1.2,0.7,1.8c0,0.1,0.2,0.1,0.3,0.1C117.6,41.4,118.4,40.7,119.4,40.1z"/>
	<path d="M122.4,45.2c-0.5,0-1.1-0.1-1.6-0.1c-0.4,0-0.6-0.3-0.7-0.7c0-0.8,0.2-1.5,0.5-2.3c0.1-0.3,0.2-0.6,0.4-0.8
		c0.1-0.3,0.4-0.4,0.7-0.4c0.3,0,0.6,0,0.8,0c0.3,0,0.6,0.1,0.7,0.4c0.4,0.9,0.9,1.9,0.9,3c0,0.5-0.2,0.7-0.8,0.8
		C123,45.1,122.7,45.1,122.4,45.2C122.4,45.2,122.4,45.2,122.4,45.2z M122.1,44.6c0.4,0,0.7,0,1,0c0.2,0,0.3-0.1,0.3-0.3
		c0-0.9-0.3-1.7-0.7-2.4c-0.1-0.2-0.2-0.3-0.4-0.2c-0.2,0-0.4,0-0.5,0c-0.1,0-0.2,0.1-0.3,0.1c-0.1,0.3-0.2,0.6-0.4,0.8
		c-0.2,0.6-0.4,1.2-0.4,1.8c0,0.2,0.1,0.2,0.2,0.2C121.4,44.5,121.8,44.6,122.1,44.6z"/>
	<path d="M129.4,39.7c-0.1,0.8-0.4,1.5-0.9,2.3c-0.2,0.3-0.5,0.4-1,0.2c-0.9-0.2-1.6-0.6-2.3-1.1c-0.3-0.2-0.5-0.4-0.8-0.5
		c-0.3-0.2-0.3-0.4-0.2-0.7c0.1-0.2,0.2-0.4,0.2-0.6c0.1-0.3,0.3-0.5,0.6-0.5c1.2,0,2.5-0.1,3.7,0.2
		C129.2,39.2,129.4,39.3,129.4,39.7z M125.2,39.3c-0.1,0.2-0.2,0.5-0.3,0.7c0,0.1,0,0.2,0.1,0.2c0.8,0.6,1.7,1.1,2.7,1.4
		c0.2,0.1,0.3,0,0.4-0.2c0.2-0.6,0.4-1.2,0.6-1.8c0.1-0.1,0-0.2-0.2-0.2C127.4,39.2,126.3,39.3,125.2,39.3z"/>
	<path d="M121.4,36.7c-0.1,0.1-0.2,0.3-0.4,0.4c-0.2,0.2-0.5,0.3-0.7,0.5c-0.3,0.2-0.5,0.2-0.8,0c-1.1-0.6-2.1-1.2-2.8-2.1
		c-0.2-0.3-0.2-0.5,0-0.8c0.6-0.6,1.4-1.1,2.2-1.4c0.4-0.2,0.7-0.1,1,0.3c0.5,0.6,0.9,1.3,1.1,2.1C121.2,36,121.3,36.3,121.4,36.7z
		 M119.9,37.1c0.3-0.2,0.5-0.3,0.7-0.4c0.1,0,0.1-0.2,0.1-0.2c-0.3-0.9-0.6-1.8-1.2-2.5c-0.1-0.1-0.2-0.2-0.4-0.1
		c-0.6,0.4-1.2,0.7-1.8,1.1c-0.2,0.1-0.1,0.2,0,0.3C118,36.1,118.9,36.6,119.9,37.1z"/>
	<path d="M122.8,36.6c0.2-0.6,0.4-1.2,0.7-1.7c0.2-0.5,0.5-0.9,0.8-1.3c0.2-0.3,0.4-0.3,0.8-0.2c0.3,0.1,0.6,0.2,0.9,0.4
		c0.5,0.3,0.9,0.6,1.3,0.9c0.5,0.4,0.5,0.6,0.1,1.1c-0.6,0.7-1.3,1.2-2.1,1.6c-0.2,0.1-0.4,0.2-0.6,0.4c-0.3,0.2-0.6,0.1-0.9-0.1
		c-0.2-0.1-0.4-0.3-0.6-0.4C123,37,122.8,36.8,122.8,36.6z M127,35.1c-0.6-0.5-1.3-0.9-2-1.2c-0.1,0-0.2,0-0.2,0.1
		c-0.7,0.8-0.9,1.7-1.2,2.5c0,0,0.1,0.2,0.1,0.2c0.2,0.2,0.5,0.3,0.7,0.4C125.3,36.5,126.3,36,127,35.1z"/>
	<path d="M122.1,40.1c-0.8,0-1.4-0.5-1.4-1.2c0-0.6,0.6-1.1,1.3-1.1c0.8,0,1.4,0.5,1.4,1.1C123.5,39.6,122.9,40.1,122.1,40.1z
		 M122.8,39c0-0.3-0.3-0.6-0.7-0.6c-0.4,0-0.7,0.3-0.7,0.6c0,0.3,0.4,0.6,0.7,0.6C122.5,39.5,122.8,39.3,122.8,39z"/>
	<path d="M34.8,38.8c0.9-0.1,1.7,0,2.6,0.3c0.4,0.1,0.6,0.4,0.5,0.8c-0.2,0.7-0.4,1.3-0.7,2c-0.2,0.5-0.6,0.6-1.2,0.4
		c-1.1-0.3-2-0.9-2.9-1.6c-0.3-0.2-0.4-0.5-0.2-0.8c0.1-0.2,0.2-0.4,0.2-0.6c0.1-0.3,0.3-0.5,0.7-0.5C34.1,38.8,34.4,38.8,34.8,38.8
		z M33.4,40.2c0.9,0.6,1.7,1.2,2.8,1.5c0.3,0.1,0.4,0,0.4-0.2c0.2-0.6,0.4-1.1,0.6-1.7c0.1-0.2,0-0.3-0.2-0.3
		c-1-0.3-2.1-0.2-3.2-0.2c-0.1,0-0.2,0.1-0.2,0.1C33.5,39.7,33.5,39.9,33.4,40.2z"/>
	<path d="M26.5,38.7c0.4,0,0.7,0,1,0c0.4,0,0.7,0.2,0.8,0.5c0.1,0.2,0.2,0.4,0.3,0.6c0.1,0.2,0.1,0.5-0.1,0.6c-1,0.7-2,1.4-3.3,1.7
		c-0.4,0.1-0.7,0-0.9-0.3c-0.4-0.7-0.7-1.4-0.8-2.1c-0.1-0.5,0.1-0.7,0.7-0.8C24.8,38.8,25.7,38.6,26.5,38.7z M26.6,39.2
		c-0.8,0-1.6,0.1-2.3,0.3c-0.2,0-0.3,0.1-0.2,0.3c0.2,0.6,0.4,1.1,0.6,1.7c0.1,0.2,0.2,0.2,0.4,0.2c1-0.3,1.9-0.9,2.7-1.5
		c0.1,0,0.1-0.2,0.1-0.2c-0.1-0.2-0.1-0.5-0.3-0.6C27.3,39.2,27,39.3,26.6,39.2C26.7,39.2,26.6,39.2,26.6,39.2z"/>
	<path d="M30.8,45.2c-0.5,0-1-0.1-1.5-0.1c-0.5-0.1-0.7-0.3-0.7-0.7c0-0.6,0.1-1.3,0.4-1.9c0.1-0.4,0.3-0.7,0.4-1
		c0.2-0.4,0.4-0.5,0.8-0.4c0.3,0,0.5,0,0.8,0c0.3,0,0.5,0.1,0.7,0.3c0.5,1,0.9,1.9,0.9,3c0,0.5-0.2,0.7-0.8,0.8c-0.1,0-0.1,0-0.1,0
		C31.4,45.1,31.2,45.1,30.8,45.2C30.8,45.2,30.8,45.2,30.8,45.2z M31.1,41.6c-0.3,0-0.5,0-0.8,0c-0.2,0-0.3,0.1-0.4,0.2
		c-0.1,0.3-0.3,0.6-0.3,0.8c-0.1,0.6-0.2,1.1-0.3,1.7c0,0.2,0.1,0.2,0.2,0.2c0.7,0,1.4,0,2.1,0c0.3,0,0.3-0.1,0.3-0.3
		C31.9,43.3,31.5,42.4,31.1,41.6z"/>
	<path d="M29.9,36.7c-0.1,0.1-0.2,0.3-0.4,0.4c-0.2,0.2-0.5,0.3-0.7,0.4c-0.3,0.2-0.5,0.2-0.8,0.1c-1.1-0.6-2.1-1.2-2.9-2.1
		C25,35.2,25,35,25.2,34.7c0.6-0.5,1.3-1,2.1-1.3c0.5-0.2,0.9-0.2,1.2,0.3c0.6,0.7,0.9,1.5,1.2,2.3C29.8,36.2,29.9,36.4,29.9,36.7z
		 M25.7,35.1C25.7,35.2,25.7,35.2,25.7,35.1c0.6,0.9,1.6,1.4,2.6,1.9c0.1,0,0.2,0,0.2,0c0.2-0.1,0.5-0.3,0.7-0.4
		c-0.1-0.2-0.1-0.4-0.2-0.6c-0.2-0.7-0.5-1.4-1-2c-0.1-0.1-0.2-0.2-0.3-0.1C26.9,34.2,26.3,34.6,25.7,35.1z"/>
	<path d="M33.3,33.2c0.2,0.1,0.4,0.1,0.5,0.2c0.8,0.3,1.4,0.7,2,1.2c0.4,0.3,0.4,0.6,0.1,1c-0.5,0.6-1.2,1.2-2,1.6
		c-0.2,0.1-0.4,0.3-0.6,0.4c-0.4,0.2-0.7,0.2-1-0.1c-0.2-0.2-0.4-0.3-0.6-0.4c-0.3-0.1-0.4-0.3-0.3-0.6c0.3-1,0.6-2.1,1.4-3
		C32.9,33.4,33.1,33.3,33.3,33.2z M33.4,33.8c-0.1,0-0.1,0.1-0.1,0.1c-0.7,0.8-0.9,1.7-1.3,2.6c0,0,0.1,0.2,0.1,0.2
		c0.2,0.2,0.5,0.3,0.7,0.4c0.3-0.2,0.6-0.3,0.9-0.5c0.6-0.4,1.1-0.8,1.6-1.3c0.2-0.2,0.1-0.3-0.1-0.4c-0.4-0.2-0.7-0.5-1.1-0.7
		C34,34.1,33.7,33.9,33.4,33.8z"/>
	<path d="M30.6,40.1c-0.8,0-1.4-0.5-1.4-1.1c0-0.6,0.6-1.1,1.3-1.1c0.8,0,1.4,0.5,1.4,1.1C32,39.6,31.4,40.1,30.6,40.1z M31.3,39
		c0-0.3-0.3-0.6-0.7-0.6c-0.4,0-0.7,0.2-0.7,0.6c0,0.3,0.3,0.6,0.7,0.6C31,39.6,31.3,39.3,31.3,39z"/>
</g>
</svg>
