<?xml version="1.0" encoding="utf-8"?>
<!-- Generator: Adobe Illustrator 27.4.0, SVG Export Plug-In . SVG Version: 6.00 Build 0)  -->
<svg version="1.1" id="Layer_1" xmlns="http://www.w3.org/2000/svg" xmlns:xlink="http://www.w3.org/1999/xlink" x="0px" y="0px"
	 viewBox="0 0 138 52" style="enable-background:new 0 0 138 52;" xml:space="preserve">
<style type="text/css">
	.st0{fill:#FFFFFF;}
	.st1{fill:#6D6E71;}
	.st2{fill:#939598;}
	.st3{fill:#D1D3D4;}
	.st4{fill:#BCBEC0;}
	.st5{fill:#E6E7E8;}
	.st6{fill:#A7A9AC;}
</style>
<g>
	<g>
		<path class="st0" d="M45,41H18L2,39v-7l2-2V18L8.1,5C8.1,5,9,2,12,2s67,0,67,0l19,13l2,1l25,2l5,1l4,4l1,7l1,1v6l-2,4h-5H45z"/>
		<path class="st1" d="M79,2l19,13l2,1l25,2l5,1l4,4l1,7l1,1v6l-2,4h-5H45H18L2,39v-7l2-2V18L8.1,5C8.1,5,9,2,12,2S79,2,79,2 M79,0
			H12C8.5,0,6.7,2.8,6.2,4.4l-4.1,13C2,17.6,2,17.8,2,18v11.2l-1.4,1.4C0.2,31,0,31.5,0,32v7c0,1,0.8,1.9,1.8,2l16,2
			c0.1,0,0.2,0,0.2,0h27h84h5c0.8,0,1.5-0.4,1.8-1.1l2-4c0.1-0.3,0.2-0.6,0.2-0.9v-6c0-0.5-0.2-1-0.6-1.4l-0.5-0.5l-0.9-6.3
			c-0.1-0.4-0.3-0.8-0.6-1.1l-4-4c-0.3-0.3-0.6-0.5-1-0.5l-5-1c-0.1,0-0.2,0-0.2,0l-24.6-2L99,13.3L80.1,0.3C79.8,0.1,79.4,0,79,0
			L79,0z"/>
	</g>
	<g>
		<path class="st2" d="M44.8,43c0.1-0.7,0.2-1.3,0.2-2c0-7.2-5.8-13-13-13c-7.2,0-13,5.8-13,13c0,0.7,0.1,1.3,0.2,2H44.8z"/>
		<path class="st1" d="M32,28c7.2,0,13,5.8,13,13c0,0.7-0.1,1.3-0.2,2H19.2c-0.1-0.7-0.2-1.3-0.2-2C19,33.8,24.8,28,32,28 M32,27
			c-7.7,0-14,6.3-14,14c0,0.7,0.1,1.4,0.2,2.2c0.1,0.5,0.5,0.8,1,0.8h25.7c0.5,0,0.9-0.4,1-0.8c0.1-0.8,0.2-1.5,0.2-2.2
			C46,33.3,39.7,27,32,27L32,27z"/>
	</g>
	<g>
		<g>
			<circle class="st3" cx="32" cy="41" r="9"/>
			<path class="st1" d="M32,32c5,0,9,4,9,9s-4,9-9,9s-9-4-9-9S27,32,32,32 M32,30c-6.1,0-11,4.9-11,11s4.9,11,11,11s11-4.9,11-11
				S38.1,30,32,30L32,30z"/>
		</g>
		<g>
			<circle class="st0" cx="32" cy="41" r="5"/>
			<path class="st1" d="M32,36c2.8,0,5,2.2,5,5s-2.2,5-5,5c-2.8,0-5-2.2-5-5S29.2,36,32,36 M32,35c-3.3,0-6,2.7-6,6s2.7,6,6,6
				s6-2.7,6-6S35.3,35,32,35L32,35z"/>
		</g>
		<path class="st1" d="M31.3,40.3l-2.1-2.1c0.4-0.4,1-0.8,1.6-1l0.9,2.8C31.5,40.1,31.4,40.2,31.3,40.3z M31,41c0-0.2,0-0.3,0.1-0.4
			l-2.7-1.3C28.2,39.8,28,40.4,28,41H31L31,41z M33.8,37.4C33.2,37.2,32.6,37,32,37v3c0.2,0,0.3,0,0.4,0.1L33.8,37.4z M32.9,40.7
			l2.8-0.9c-0.2-0.6-0.5-1.1-1-1.6l-2.1,2.1C32.8,40.4,32.9,40.5,32.9,40.7z M33,41c0,0.2,0,0.3-0.1,0.4l2.7,1.3
			c0.3-0.5,0.4-1.1,0.4-1.8H33z M32.3,41.9l0.9,2.8c0.6-0.2,1.1-0.5,1.6-0.9l-2.1-2.1C32.6,41.8,32.5,41.9,32.3,41.9z M31.1,41.3
			l-2.8,0.9c0.2,0.6,0.5,1.1,1,1.6l2.1-2.1C31.2,41.6,31.1,41.5,31.1,41.3z M30.2,44.6c0.5,0.3,1.1,0.4,1.8,0.4v-3
			c-0.2,0-0.3,0-0.4-0.1L30.2,44.6z"/>
	</g>
	<g>
		<path class="st2" d="M127.8,43c0.1-0.7,0.2-1.3,0.2-2c0-7.2-5.8-13-13-13c-7.2,0-13,5.8-13,13c0,0.7,0.1,1.3,0.2,2H127.8z"/>
		<path class="st1" d="M115,28c7.2,0,13,5.8,13,13c0,0.7-0.1,1.3-0.2,2h-25.7c-0.1-0.7-0.2-1.3-0.2-2C102,33.8,107.8,28,115,28
			 M115,27c-7.7,0-14,6.3-14,14c0,0.7,0.1,1.4,0.2,2.2c0.1,0.5,0.5,0.8,1,0.8h25.7c0.5,0,0.9-0.4,1-0.8c0.1-0.8,0.2-1.5,0.2-2.2
			C129,33.3,122.7,27,115,27L115,27z"/>
	</g>
	<g>
		<g>
			<circle class="st3" cx="115" cy="41" r="9"/>
			<path class="st1" d="M115,32c5,0,9,4,9,9s-4,9-9,9s-9-4-9-9S110,32,115,32 M115,30c-6.1,0-11,4.9-11,11s4.9,11,11,11
				s11-4.9,11-11S121.1,30,115,30L115,30z"/>
		</g>
		<g>
			<circle class="st0" cx="115" cy="41" r="5"/>
			<path class="st1" d="M115,36c2.8,0,5,2.2,5,5s-2.2,5-5,5c-2.8,0-5-2.2-5-5S112.2,36,115,36 M115,35c-3.3,0-6,2.7-6,6s2.7,6,6,6
				s6-2.7,6-6S118.3,35,115,35L115,35z"/>
		</g>
		<path class="st1" d="M114.3,40.3l-2.1-2.1c0.4-0.4,1-0.8,1.6-1l0.9,2.8C114.5,40.1,114.4,40.2,114.3,40.3z M114,41
			c0-0.2,0-0.3,0.1-0.4l-2.7-1.3c-0.3,0.5-0.4,1.1-0.4,1.8H114L114,41z M116.8,37.4c-0.5-0.3-1.1-0.4-1.8-0.4v3c0.2,0,0.3,0,0.4,0.1
			L116.8,37.4z M115.9,40.7l2.8-0.9c-0.2-0.6-0.5-1.1-1-1.6l-2.1,2.1C115.8,40.4,115.9,40.5,115.9,40.7z M116,41
			c0,0.2,0,0.3-0.1,0.4l2.7,1.3c0.3-0.5,0.4-1.1,0.4-1.8H116z M115.3,41.9l0.9,2.8c0.6-0.2,1.1-0.5,1.6-0.9l-2.1-2.1
			C115.6,41.8,115.5,41.9,115.3,41.9z M114.1,41.3l-2.8,0.9c0.2,0.6,0.5,1.1,1,1.6l2.1-2.1C114.2,41.6,114.1,41.5,114.1,41.3z
			 M113.2,44.6c0.5,0.3,1.1,0.4,1.8,0.4v-3c-0.2,0-0.3,0-0.4-0.1L113.2,44.6z"/>
	</g>
	<g>
		<polygon class="st4" points="67,5 67,17 92,17 92,15 78,5 		"/>
		<path class="st1" d="M78,5l14,10v2H67V5H78 M78,4H67c-0.6,0-1,0.4-1,1v12c0,0.6,0.4,1,1,1h25c0.6,0,1-0.4,1-1v-2
			c0-0.3-0.2-0.6-0.4-0.8l-14-10C78.4,4.1,78.2,4,78,4L78,4z"/>
	</g>
	<rect x="63" y="2" class="st1" width="1" height="39"/>
	<rect x="33" y="2" class="st1" width="1" height="18"/>
	<g>
		<polygon class="st4" points="60,5 37,5 37,16 60,17 		"/>
		<path class="st1" d="M60,5v12l-23-1V5H60 M60,4H37c-0.6,0-1,0.4-1,1v11c0,0.5,0.4,1,1,1l23,1c0,0,0,0,0,0c0.3,0,0.5-0.1,0.7-0.3
			c0.2-0.2,0.3-0.4,0.3-0.7V5C61,4.4,60.6,4,60,4L60,4z"/>
	</g>
	<g>
		<polygon class="st4" points="30,5 13,5 10,15 30,15 		"/>
		<path class="st1" d="M30,5v10H10l3-10H30 M30,4H13c-0.4,0-0.8,0.3-1,0.7l-3,10C9,15,9,15.3,9.2,15.6C9.4,15.9,9.7,16,10,16h20
			c0.6,0,1-0.4,1-1V5C31,4.4,30.6,4,30,4L30,4z"/>
	</g>
	<g>
		<rect x="4" y="21" class="st5" width="3" height="7"/>
		<path class="st1" d="M7,21v7H4v-7H7 M7,20H4c-0.6,0-1,0.4-1,1v7c0,0.6,0.4,1,1,1h3c0.6,0,1-0.4,1-1v-7C8,20.4,7.6,20,7,20L7,20z"
			/>
	</g>
	<g>
		<rect x="67" y="21" class="st6" width="3" height="1"/>
		<path class="st1" d="M70,21v1h-3v-1H70 M70,20h-3c-0.6,0-1,0.4-1,1v1c0,0.6,0.4,1,1,1h3c0.6,0,1-0.4,1-1v-1C71,20.4,70.6,20,70,20
			L70,20z"/>
	</g>
	<g>
		<rect x="37" y="19" class="st6" width="3" height="1"/>
		<path class="st1" d="M40,19v1h-3v-1H40 M40,18h-3c-0.6,0-1,0.4-1,1v1c0,0.6,0.4,1,1,1h3c0.6,0,1-0.4,1-1v-1C41,18.4,40.6,18,40,18
			L40,18z"/>
	</g>
	<path class="st2" d="M16,31.5c-0.1,0-0.2,0-0.3-0.1c-0.2-0.1-0.3-0.4-0.2-0.7c3.6-6,9.3-9.2,16.4-9.2c5.8,0,10.6,2.1,14.2,6.2
		c0.2,0.2,0.2,0.5,0,0.7c-0.2,0.2-0.5,0.2-0.7,0c-3.4-3.9-7.9-5.8-13.4-5.8c-6.8,0-12.1,2.9-15.6,8.8C16.3,31.4,16.2,31.5,16,31.5z"
		/>
	<path class="st2" d="M131,31.5c-0.2,0-0.3-0.1-0.4-0.2c-0.9-1.4-1.8-2.7-2.9-3.8c-3.3-3.3-7.5-5-12.6-5c-5.5,0-10.1,2-13.5,5.8
		c-0.2,0.2-0.5,0.2-0.7,0c-0.2-0.2-0.2-0.5,0-0.7c3.6-4.1,8.4-6.2,14.2-6.2c5.4,0,9.9,1.8,13.4,5.3c1.1,1.1,2.2,2.5,3.1,4
		c0.1,0.2,0.1,0.5-0.2,0.7C131.2,31.5,131.1,31.5,131,31.5z"/>
	<g>
		<polygon class="st5" points="131,20 130,20 129,21 129,23 132,26 134,26 134,23 		"/>
		<path class="st1" d="M131,20l3,3v3h-2l-3-3v-2l1-1H131 M131,19h-1c-0.3,0-0.5,0.1-0.7,0.3l-1,1c-0.2,0.2-0.3,0.4-0.3,0.7v2
			c0,0.3,0.1,0.5,0.3,0.7l3,3c0.2,0.2,0.4,0.3,0.7,0.3h2c0.6,0,1-0.4,1-1v-3c0-0.3-0.1-0.5-0.3-0.7l-3-3C131.5,19.1,131.3,19,131,19
			L131,19z"/>
	</g>
	<rect x="96" y="13" class="st1" width="1" height="21"/>
	<polygon class="st1" points="96,41 95,41 96,34 97,34 	"/>
	<g>
		<polygon class="st0" points="90,14 92,14 93,16 93,18 90,18 		"/>
		<path class="st1" d="M92,14l1,2v2h-3v-4H92 M92,13h-2c-0.6,0-1,0.4-1,1v4c0,0.6,0.4,1,1,1h3c0.6,0,1-0.4,1-1v-2
			c0-0.2,0-0.3-0.1-0.4l-1-2C92.7,13.2,92.4,13,92,13L92,13z"/>
	</g>
</g>
</svg>
