<?xml version="1.0" encoding="utf-8"?>
<!-- Generator: Adobe Illustrator 27.4.0, SVG Export Plug-In . SVG Version: 6.00 Build 0)  -->
<svg version="1.1" id="Layer_1" xmlns="http://www.w3.org/2000/svg" xmlns:xlink="http://www.w3.org/1999/xlink" x="0px" y="0px"
	 viewBox="0 0 128 52" style="enable-background:new 0 0 128 52;" xml:space="preserve">
<style type="text/css">
	.st0{fill:#FFFFFF;}
	.st1{fill:#6D6E71;}
	.st2{fill:#BCBEC0;}
	.st3{fill:#E6E7E8;}
	.st4{fill:#A7A9AC;}
	.st5{fill:#939598;}
	.st6{fill:#D1D3D4;}
</style>
<g>
	<g>
		<path class="st0" d="M65,41H39H12L2,39v-7l2-2V18L8.1,5C8.1,5,9,2,12,2s57,0,57,0l19,13l2,1l25,2l5,1l4,4l1,7l1,1v6l-2,4H65z"/>
		<path class="st1" d="M69,2l19,13l2,1l25,2l5,1l4,4l1,7l1,1v6l-2,4H65H39H12L2,39v-7l2-2V18L8.1,5C8.1,5,9,2,12,2S69,2,69,2 M69,0
			H12C8.5,0,6.7,2.8,6.2,4.4l-4.1,13C2,17.6,2,17.8,2,18v11.2l-1.4,1.4C0.2,31,0,31.5,0,32v7c0,1,0.7,1.8,1.6,2l10,2
			c0.1,0,0.3,0,0.4,0h27h26h59c0.8,0,1.5-0.4,1.8-1.1l2-4c0.1-0.3,0.2-0.6,0.2-0.9v-6c0-0.5-0.2-1-0.6-1.4l-0.5-0.5l-0.9-6.3
			c-0.1-0.4-0.3-0.8-0.6-1.1l-4-4c-0.3-0.3-0.6-0.5-1-0.5l-5-1c-0.1,0-0.2,0-0.2,0l-24.6-2L89,13.3L70.1,0.3C69.8,0.1,69.4,0,69,0
			L69,0z"/>
	</g>
	<g>
		<polygon class="st2" points="51,5 51,17 82,17 82,15 68,5 		"/>
		<path class="st1" d="M68,5l14,10v2H51V5H68 M68,4H51c-0.6,0-1,0.4-1,1v12c0,0.6,0.4,1,1,1h31c0.6,0,1-0.4,1-1v-2
			c0-0.3-0.2-0.6-0.4-0.8l-14-10C68.4,4.1,68.2,4,68,4L68,4z"/>
	</g>
	<rect x="47" y="2" class="st1" width="1" height="39"/>
	<g>
		<polygon class="st2" points="43,5 14,5 11,16 43,16 		"/>
		<path class="st1" d="M43,5v11H11l3-11H43 M43,4H14c-0.5,0-0.8,0.3-1,0.7l-3,11c-0.1,0.3,0,0.6,0.2,0.9c0.2,0.2,0.5,0.4,0.8,0.4h32
			c0.6,0,1-0.4,1-1V5C44,4.4,43.6,4,43,4L43,4z"/>
	</g>
	<g>
		<rect x="4" y="21" class="st3" width="3" height="7"/>
		<path class="st1" d="M7,21v7H4v-7H7 M7,20H4c-0.6,0-1,0.4-1,1v7c0,0.6,0.4,1,1,1h3c0.6,0,1-0.4,1-1v-7C8,20.4,7.6,20,7,20L7,20z"
			/>
	</g>
	<g>
		<rect x="51" y="21" class="st4" width="3" height="1"/>
		<path class="st1" d="M54,21v1h-3v-1H54 M54,20h-3c-0.6,0-1,0.4-1,1v1c0,0.6,0.4,1,1,1h3c0.6,0,1-0.4,1-1v-1C55,20.4,54.6,20,54,20
			L54,20z"/>
	</g>
	<g>
		<polygon class="st3" points="121,20 120,20 119,21 119,23 122,26 124,26 124,23 		"/>
		<path class="st1" d="M121,20l3,3v3h-2l-3-3v-2l1-1H121 M121,19h-1c-0.3,0-0.5,0.1-0.7,0.3l-1,1c-0.2,0.2-0.3,0.4-0.3,0.7v2
			c0,0.3,0.1,0.5,0.3,0.7l3,3c0.2,0.2,0.4,0.3,0.7,0.3h2c0.6,0,1-0.4,1-1v-3c0-0.3-0.1-0.5-0.3-0.7l-3-3C121.5,19.1,121.3,19,121,19
			L121,19z"/>
	</g>
	<rect x="86" y="13" class="st1" width="1" height="21"/>
	<polygon class="st1" points="86,41 85,41 86,34 87,34 	"/>
	<g>
		<path class="st5" d="M38.8,43c0.1-0.7,0.2-1.3,0.2-2c0-7.2-5.8-13-13-13s-13,5.8-13,13c0,0.7,0.1,1.3,0.2,2H38.8z"/>
		<path class="st1" d="M26,28c7.2,0,13,5.8,13,13c0,0.7-0.1,1.3-0.2,2H13.2c-0.1-0.7-0.2-1.3-0.2-2C13,33.8,18.8,28,26,28 M26,27
			c-7.7,0-14,6.3-14,14c0,0.7,0.1,1.4,0.2,2.2c0.1,0.5,0.5,0.8,1,0.8h25.7c0.5,0,0.9-0.4,1-0.8c0.1-0.8,0.2-1.5,0.2-2.2
			C40,33.3,33.7,27,26,27L26,27z"/>
	</g>
	<g>
		<g>
			<circle class="st6" cx="26" cy="41" r="9"/>
			<path class="st1" d="M26,32c5,0,9,4,9,9s-4,9-9,9s-9-4-9-9S21,32,26,32 M26,30c-6.1,0-11,4.9-11,11s4.9,11,11,11s11-4.9,11-11
				S32.1,30,26,30L26,30z"/>
		</g>
		<g>
			<circle class="st0" cx="26" cy="41" r="5"/>
			<path class="st1" d="M26,36c2.8,0,5,2.2,5,5s-2.2,5-5,5s-5-2.2-5-5S23.2,36,26,36 M26,35c-3.3,0-6,2.7-6,6s2.7,6,6,6s6-2.7,6-6
				S29.3,35,26,35L26,35z"/>
		</g>
		<path class="st1" d="M25.3,40.3l-2.1-2.1c0.4-0.4,1-0.8,1.6-1l0.9,2.8C25.5,40.1,25.4,40.2,25.3,40.3z M25,41c0-0.2,0-0.3,0.1-0.4
			l-2.7-1.3C22.2,39.8,22,40.4,22,41H25L25,41z M27.8,37.4C27.2,37.2,26.6,37,26,37v3c0.2,0,0.3,0,0.4,0.1L27.8,37.4z M26.9,40.7
			l2.8-0.9c-0.2-0.6-0.5-1.1-1-1.6l-2.1,2.1C26.8,40.4,26.9,40.5,26.9,40.7z M27,41c0,0.2,0,0.3-0.1,0.4l2.7,1.3
			c0.3-0.5,0.4-1.1,0.4-1.8H27z M26.3,41.9l0.9,2.8c0.6-0.2,1.1-0.5,1.6-0.9l-2.1-2.1C26.6,41.8,26.5,41.9,26.3,41.9z M25.1,41.3
			l-2.8,0.9c0.2,0.6,0.5,1.1,1,1.6l2.1-2.1C25.2,41.6,25.1,41.5,25.1,41.3z M24.2,44.6c0.5,0.3,1.1,0.4,1.8,0.4v-3
			c-0.2,0-0.3,0-0.4-0.1L24.2,44.6z"/>
	</g>
	<g>
		<path class="st5" d="M117.8,43c0.1-0.7,0.2-1.3,0.2-2c0-7.2-5.8-13-13-13c-7.2,0-13,5.8-13,13c0,0.7,0.1,1.3,0.2,2H117.8z"/>
		<path class="st1" d="M105,28c7.2,0,13,5.8,13,13c0,0.7-0.1,1.3-0.2,2H92.2c-0.1-0.7-0.2-1.3-0.2-2C92,33.8,97.8,28,105,28 M105,27
			c-7.7,0-14,6.3-14,14c0,0.7,0.1,1.4,0.2,2.2c0.1,0.5,0.5,0.8,1,0.8h25.7c0.5,0,0.9-0.4,1-0.8c0.1-0.8,0.2-1.5,0.2-2.2
			C119,33.3,112.7,27,105,27L105,27z"/>
	</g>
	<g>
		<g>
			<circle class="st6" cx="105" cy="41" r="9"/>
			<path class="st1" d="M105,32c5,0,9,4,9,9s-4,9-9,9s-9-4-9-9S100,32,105,32 M105,30c-6.1,0-11,4.9-11,11s4.9,11,11,11
				s11-4.9,11-11S111.1,30,105,30L105,30z"/>
		</g>
		<g>
			<circle class="st0" cx="105" cy="41" r="5"/>
			<path class="st1" d="M105,36c2.8,0,5,2.2,5,5s-2.2,5-5,5s-5-2.2-5-5S102.2,36,105,36 M105,35c-3.3,0-6,2.7-6,6s2.7,6,6,6
				s6-2.7,6-6S108.3,35,105,35L105,35z"/>
		</g>
		<path class="st1" d="M104.3,40.3l-2.1-2.1c0.4-0.4,1-0.8,1.6-1l0.9,2.8C104.5,40.1,104.4,40.2,104.3,40.3z M104,41
			c0-0.2,0-0.3,0.1-0.4l-2.7-1.3c-0.3,0.5-0.4,1.1-0.4,1.8H104L104,41z M106.8,37.4c-0.5-0.3-1.1-0.4-1.8-0.4v3c0.2,0,0.3,0,0.4,0.1
			L106.8,37.4z M105.9,40.7l2.8-0.9c-0.2-0.6-0.5-1.1-1-1.6l-2.1,2.1C105.8,40.4,105.9,40.5,105.9,40.7z M106,41
			c0,0.2,0,0.3-0.1,0.4l2.7,1.3c0.3-0.5,0.4-1.1,0.4-1.8H106z M105.3,41.9l0.9,2.8c0.6-0.2,1.1-0.5,1.6-0.9l-2.1-2.1
			C105.6,41.8,105.5,41.9,105.3,41.9z M104.1,41.3l-2.8,0.9c0.2,0.6,0.5,1.1,1,1.6l2.1-2.1C104.2,41.6,104.1,41.5,104.1,41.3z
			 M103.2,44.6c0.5,0.3,1.1,0.4,1.8,0.4v-3c-0.2,0-0.3,0-0.4-0.1L103.2,44.6z"/>
	</g>
	<path class="st5" d="M10,31.5c-0.1,0-0.2,0-0.3-0.1c-0.2-0.1-0.3-0.4-0.2-0.7c3.6-6,9.3-9.2,16.4-9.2c5.8,0,10.6,2.1,14.2,6.2
		c0.2,0.2,0.2,0.5,0,0.7c-0.2,0.2-0.5,0.2-0.7,0c-3.4-3.9-7.9-5.8-13.4-5.8c-6.8,0-12.1,2.9-15.6,8.8C10.3,31.4,10.2,31.5,10,31.5z"
		/>
	<path class="st5" d="M121,31.5c-0.2,0-0.3-0.1-0.4-0.2c-0.9-1.4-1.8-2.7-2.9-3.8c-3.3-3.3-7.5-5-12.6-5c-5.5,0-10.1,2-13.5,5.8
		c-0.2,0.2-0.5,0.2-0.7,0c-0.2-0.2-0.2-0.5,0-0.7c3.6-4.1,8.4-6.2,14.2-6.2c5.4,0,9.9,1.8,13.4,5.3c1.1,1.1,2.2,2.5,3.1,4
		c0.1,0.2,0.1,0.5-0.2,0.7C121.2,31.5,121.1,31.5,121,31.5z"/>
	<g>
		<polygon class="st0" points="80,14 82,14 83,16 83,18 80,18 		"/>
		<path class="st1" d="M82,14l1,2v2h-3v-4H82 M82,13h-2c-0.6,0-1,0.4-1,1v4c0,0.6,0.4,1,1,1h3c0.6,0,1-0.4,1-1v-2
			c0-0.2,0-0.3-0.1-0.4l-1-2C82.7,13.2,82.4,13,82,13L82,13z"/>
	</g>
</g>
</svg>
