<?xml version="1.0" encoding="utf-8"?>
<!-- Generator: Adobe Illustrator 27.4.0, SVG Export Plug-In . SVG Version: 6.00 Build 0)  -->
<svg version="1.1" id="Layer_1" xmlns="http://www.w3.org/2000/svg" xmlns:xlink="http://www.w3.org/1999/xlink" x="0px" y="0px"
	 viewBox="0 0 132 51" style="enable-background:new 0 0 132 51;" xml:space="preserve">
<style type="text/css">
	.st0{fill:#FFFFFF;}
	.st1{fill:#6D6E71;}
	.st2{display:none;fill:#939598;}
	.st3{display:none;fill:#6D6E71;}
	.st4{fill:#939598;}
	.st5{fill:#D1D3D4;}
	.st6{fill:#A7A9AC;}
	.st7{fill:#E6E7E8;}
	.st8{fill:#BCBEC0;}
</style>
<g>
	<g>
		<path class="st0" d="M10,41l-8-3v-7l2-2l1-11L17,6c0,0,3-4,11-4c2.4,0,36,0,36,0l9,2l20,11l3,1l16,2l11,3l5,4l2,5v5l-1,6H10z"/>
		<path class="st1" d="M64,2l9,2l20,11l3,1l16,2l11,3l5,4l2,5v5l-1,6H10l-8-3v-7l2-2l1-11L17,6c0,0,3-4,11-4C30.4,2,64,2,64,2 M64,0
			H28c-8.1,0-11.8,3.8-12.5,4.7L3.6,16.6c-0.3,0.3-0.5,0.8-0.6,1.2L2.1,28.1l-1.5,1.5C0.2,30,0,30.5,0,31v7c0,0.8,0.5,1.6,1.3,1.9
			l8,3C9.5,43,9.8,43,10,43h119c1,0,1.8-0.7,2-1.7l1-6c0-0.1,0-0.2,0-0.3v-5c0-0.3,0-0.5-0.1-0.7l-2-5c-0.1-0.3-0.3-0.6-0.6-0.8
			l-5-4c-0.2-0.2-0.5-0.3-0.7-0.4l-11-3c-0.1,0-0.2,0-0.3-0.1l-15.8-2l-2.6-0.9L74,2.2c-0.2-0.1-0.3-0.2-0.5-0.2l-9-2
			C64.3,0,64.1,0,64,0L64,0z"/>
	</g>
	<g>
		<g>
			<path class="st2" d="M36.8,42c0.1-0.7,0.2-1.3,0.2-2c0-7.7-6.3-14-14-14S9,32.3,9,40c0,0.7,0.1,1.3,0.2,2H36.8z"/>
			<path class="st3" d="M23,26c7.7,0,14,6.3,14,14c0,0.7-0.1,1.3-0.2,2H9.2C9.1,41.3,9,40.7,9,40C9,32.3,15.3,26,23,26 M23,25
				c-8.3,0-15,6.7-15,15c0,0.7,0.1,1.3,0.2,2.1c0.1,0.5,0.5,0.9,1,0.9h27.7c0.5,0,0.9-0.4,1-0.9c0.1-0.8,0.2-1.5,0.2-2.1
				C38,31.7,31.3,25,23,25L23,25z"/>
		</g>
		<g>
			<path class="st4" d="M35.8,42c0.1-0.7,0.2-1.3,0.2-2c0-7.2-5.8-13-13-13s-13,5.8-13,13c0,0.7,0.1,1.3,0.2,2H35.8z"/>
			<path class="st1" d="M23,27c7.2,0,13,5.8,13,13c0,0.7-0.1,1.3-0.2,2H10.2c-0.1-0.7-0.2-1.3-0.2-2C10,32.8,15.8,27,23,27 M23,26
				c-7.7,0-14,6.3-14,14c0,0.7,0.1,1.4,0.2,2.2c0.1,0.5,0.5,0.8,1,0.8h25.7c0.5,0,0.9-0.4,1-0.8c0.1-0.8,0.2-1.5,0.2-2.2
				C37,32.3,30.7,26,23,26L23,26z"/>
		</g>
		<g>
			<circle class="st5" cx="23" cy="40" r="9"/>
			<path class="st1" d="M23,31c5,0,9,4,9,9s-4,9-9,9s-9-4-9-9S18,31,23,31 M23,29c-6.1,0-11,4.9-11,11s4.9,11,11,11s11-4.9,11-11
				S29.1,29,23,29L23,29z"/>
		</g>
		<g>
			<circle class="st0" cx="23" cy="40" r="5"/>
			<path class="st1" d="M23,35c2.8,0,5,2.2,5,5s-2.2,5-5,5s-5-2.2-5-5S20.2,35,23,35 M23,34c-3.3,0-6,2.7-6,6s2.7,6,6,6s6-2.7,6-6
				S26.3,34,23,34L23,34z"/>
		</g>
		<path class="st1" d="M22.3,39.3l-2.1-2.1c0.4-0.4,1-0.8,1.6-1l0.9,2.8C22.5,39.1,22.4,39.2,22.3,39.3z M22,40c0-0.2,0-0.3,0.1-0.4
			l-2.7-1.3C19.2,38.8,19,39.4,19,40H22L22,40z M24.8,36.4C24.2,36.2,23.6,36,23,36v3c0.2,0,0.3,0,0.4,0.1L24.8,36.4z M23.9,39.7
			l2.8-0.9c-0.2-0.6-0.5-1.1-1-1.6l-2.1,2.1C23.8,39.4,23.9,39.5,23.9,39.7z M24,40c0,0.2,0,0.3-0.1,0.4l2.7,1.3
			c0.3-0.5,0.4-1.1,0.4-1.8H24z M23.3,40.9l0.9,2.8c0.6-0.2,1.1-0.5,1.6-0.9l-2.1-2.1C23.6,40.8,23.5,40.9,23.3,40.9z M22.1,40.3
			l-2.8,0.9c0.2,0.6,0.5,1.1,1,1.6l2.1-2.1C22.2,40.6,22.1,40.5,22.1,40.3z M21.2,43.6c0.5,0.3,1.1,0.4,1.8,0.4v-3
			c-0.2,0-0.3,0-0.4-0.1L21.2,43.6z"/>
	</g>
	<g>
		<g>
			<path class="st2" d="M119.8,42c0.1-0.7,0.2-1.3,0.2-2c0-7.7-6.3-14-14-14s-14,6.3-14,14c0,0.7,0.1,1.3,0.2,2H119.8z"/>
			<path class="st3" d="M106,26c7.7,0,14,6.3,14,14c0,0.7-0.1,1.3-0.2,2H92.2c-0.1-0.7-0.2-1.3-0.2-2C92,32.3,98.3,26,106,26
				 M106,25c-8.3,0-15,6.7-15,15c0,0.7,0.1,1.3,0.2,2.1c0.1,0.5,0.5,0.9,1,0.9h27.7c0.5,0,0.9-0.4,1-0.9c0.1-0.8,0.2-1.5,0.2-2.1
				C121,31.7,114.3,25,106,25L106,25z"/>
		</g>
		<g>
			<path class="st4" d="M118.8,42c0.1-0.7,0.2-1.3,0.2-2c0-7.2-5.8-13-13-13c-7.2,0-13,5.8-13,13c0,0.7,0.1,1.3,0.2,2H118.8z"/>
			<path class="st1" d="M106,27c7.2,0,13,5.8,13,13c0,0.7-0.1,1.3-0.2,2H93.2c-0.1-0.7-0.2-1.3-0.2-2C93,32.8,98.8,27,106,27
				 M106,26c-7.7,0-14,6.3-14,14c0,0.7,0.1,1.4,0.2,2.2c0.1,0.5,0.5,0.8,1,0.8h25.7c0.5,0,0.9-0.4,1-0.8c0.1-0.8,0.2-1.5,0.2-2.2
				C120,32.3,113.7,26,106,26L106,26z"/>
		</g>
		<g>
			<circle class="st5" cx="106" cy="40" r="9"/>
			<path class="st1" d="M106,31c5,0,9,4,9,9s-4,9-9,9c-5,0-9-4-9-9S101,31,106,31 M106,29c-6.1,0-11,4.9-11,11s4.9,11,11,11
				s11-4.9,11-11S112.1,29,106,29L106,29z"/>
		</g>
		<g>
			<circle class="st0" cx="106" cy="40" r="5"/>
			<path class="st1" d="M106,35c2.8,0,5,2.2,5,5s-2.2,5-5,5c-2.8,0-5-2.2-5-5S103.2,35,106,35 M106,34c-3.3,0-6,2.7-6,6s2.7,6,6,6
				s6-2.7,6-6S109.3,34,106,34L106,34z"/>
		</g>
		<path class="st1" d="M105.3,39.3l-2.1-2.1c0.4-0.4,1-0.8,1.6-1l0.9,2.8C105.5,39.1,105.4,39.2,105.3,39.3z M105,40
			c0-0.2,0-0.3,0.1-0.4l-2.7-1.3c-0.3,0.5-0.4,1.1-0.4,1.8H105L105,40z M107.8,36.4c-0.5-0.3-1.1-0.4-1.8-0.4v3c0.2,0,0.3,0,0.4,0.1
			L107.8,36.4z M106.9,39.7l2.8-0.9c-0.2-0.6-0.5-1.1-1-1.6l-2.1,2.1C106.8,39.4,106.9,39.5,106.9,39.7z M107,40
			c0,0.2,0,0.3-0.1,0.4l2.7,1.3c0.3-0.5,0.4-1.1,0.4-1.8H107z M106.3,40.9l0.9,2.8c0.6-0.2,1.1-0.5,1.6-0.9l-2.1-2.1
			C106.6,40.8,106.5,40.9,106.3,40.9z M105.1,40.3l-2.8,0.9c0.2,0.6,0.5,1.1,1,1.6l2.1-2.1C105.2,40.6,105.1,40.5,105.1,40.3z
			 M104.2,43.6c0.5,0.3,1.1,0.4,1.8,0.4v-3c-0.2,0-0.3,0-0.4-0.1L104.2,43.6z"/>
	</g>
	<g>
		<rect x="59" y="21" class="st6" width="3" height="1"/>
		<path class="st1" d="M62,21v1h-3v-1H62 M62,20h-3c-0.6,0-1,0.4-1,1v1c0,0.6,0.4,1,1,1h3c0.6,0,1-0.4,1-1v-1C63,20.4,62.6,20,62,20
			L62,20z"/>
	</g>
	<g>
		<rect x="33" y="21" class="st6" width="3" height="1"/>
		<path class="st1" d="M36,21v1h-3v-1H36 M36,20h-3c-0.6,0-1,0.4-1,1v1c0,0.6,0.4,1,1,1h3c0.6,0,1-0.4,1-1v-1C37,20.4,36.6,20,36,20
			L36,20z"/>
	</g>
	<g>
		<polygon class="st7" points="10,20 10,22 8,25 5,25 5,20 		"/>
		<path class="st1" d="M10,20v2l-2,3H5v-5H10 M10,19H5c-0.6,0-1,0.4-1,1v5c0,0.6,0.4,1,1,1h3c0.3,0,0.6-0.2,0.8-0.4l2-3
			c0.1-0.2,0.2-0.4,0.2-0.6v-2C11,19.4,10.6,19,10,19L10,19z"/>
	</g>
	<g>
		<polygon class="st7" points="122,23 122,25 125,27 129,27 128,25 126,23 		"/>
		<path class="st1" d="M126,23l2,2l1,2h-4l-3-2v-2H126 M126,22h-4c-0.6,0-1,0.4-1,1v2c0,0.3,0.2,0.6,0.4,0.8l3,2
			c0.2,0.1,0.4,0.2,0.6,0.2h4c0.3,0,0.7-0.2,0.9-0.5c0.2-0.3,0.2-0.7,0-1l-1-2c0-0.1-0.1-0.2-0.2-0.3l-2-2
			C126.5,22.1,126.3,22,126,22L126,22z"/>
	</g>
	<g>
		<polygon class="st8" points="59,5 64,5 72,7 86,15 86,17 59,17 		"/>
		<path class="st1" d="M64,5l8,2l14,8v2H59V5H64 M64,4h-5c-0.6,0-1,0.4-1,1v12c0,0.6,0.4,1,1,1h27c0.6,0,1-0.4,1-1v-2
			c0-0.4-0.2-0.7-0.5-0.9l-14-8c-0.1,0-0.2-0.1-0.3-0.1l-8-2C64.2,4,64.1,4,64,4L64,4z"/>
	</g>
	<g>
		<polygon class="st0" points="85,14 87,14 88,16 88,18 85,18 		"/>
		<path class="st1" d="M87,14l1,2v2h-3v-4H87 M87,13h-2c-0.6,0-1,0.4-1,1v4c0,0.6,0.4,1,1,1h3c0.6,0,1-0.4,1-1v-2
			c0-0.2,0-0.3-0.1-0.4l-1-2C87.7,13.2,87.4,13,87,13L87,13z"/>
	</g>
	<rect x="55" y="2" class="st1" width="1" height="39"/>
	<g>
		<polygon class="st8" points="52,5 52,17 33,17 34,5 		"/>
		<path class="st1" d="M52,5v12H33l1-12H52 M52,4H34c-0.5,0-1,0.4-1,0.9l-1,12c0,0.3,0.1,0.6,0.3,0.8c0.2,0.2,0.5,0.3,0.7,0.3h19
			c0.6,0,1-0.4,1-1V5C53,4.4,52.6,4,52,4L52,4z"/>
	</g>
	<g>
		<polygon class="st8" points="27,5 26,17 19,17 17,14 24,6 		"/>
		<path class="st1" d="M27,5l-1,12h-7l-2-3l7-8L27,5 M27,4c-0.1,0-0.2,0-0.3,0.1l-3,1c-0.2,0.1-0.3,0.2-0.4,0.3l-7,8
			c-0.3,0.3-0.3,0.8-0.1,1.2l2,3c0.2,0.3,0.5,0.4,0.8,0.4h7c0.5,0,1-0.4,1-0.9l1-12c0-0.3-0.1-0.7-0.4-0.9C27.4,4.1,27.2,4,27,4
			L27,4z"/>
	</g>
	<rect x="91" y="13" class="st1" width="1" height="15"/>
	<polygon class="st1" points="89,41 88,41 91,28 92,28 	"/>
	<polygon class="st1" points="30.6,1 29,18 30,18 31.6,1 	"/>
	<rect x="29" y="18" class="st1" width="1" height="7"/>
</g>
</svg>
