<?xml version="1.0" encoding="utf-8"?>
<!-- Generator: Adobe Illustrator 27.4.0, SVG Export Plug-In . SVG Version: 6.00 Build 0)  -->
<svg version="1.1" id="Layer_1" xmlns="http://www.w3.org/2000/svg" xmlns:xlink="http://www.w3.org/1999/xlink" x="0px" y="0px"
	 viewBox="0 0 134 50" style="enable-background:new 0 0 134 50;" xml:space="preserve">
<style type="text/css">
	.st0{fill:none;}
	.st1{fill:#FFFFFF;}
	.st2{fill:#808080;}
	.st3{fill:#E6E6E6;}
	.st4{fill:#4D4D4D;}
	.st5{fill:#999999;}
	.st6{fill:#CCCCCC;}
	.st7{fill:#6D6E71;}
</style>
<g>
	<path class="st0" d="M49.7,9.1C49.8,8.6,49.9,8,50,7.3C49.9,8,49.8,8.6,49.7,9.1z"/>
	<path class="st0" d="M50.6,4.6c0,0.2-0.1,0.3-0.1,0.4c-0.2,0.9-0.4,1.6-0.5,2.3c0.1-0.7,0.3-1.4,0.5-2.3
		C50.6,4.9,50.6,4.8,50.6,4.6z"/>
	<path class="st1" d="M48,15H6l-1,1v1h3c0.6,0,1,0.4,1,1v6c0,0.6-0.4,1-1,1H5v2.8L5.5,28H9c1.1,0,2,0.9,2,2v4h5l1.5,0.5
		C19.1,28.3,24.6,24,31,24c7.3,0,13.4,5.7,13.9,12.9c0,0,0,0.1,0,0.1H49l-1-3V15z M45.3,25.4c-0.1,0.1-0.2,0.1-0.3,0.1
		c-0.2,0-0.3-0.1-0.4-0.2c-1.8-2.7-6.4-5.8-13.6-5.8s-11.8,3.1-13.6,5.8c-0.2,0.2-0.5,0.3-0.7,0.1c-0.2-0.2-0.3-0.5-0.1-0.7
		c1.9-2.9,6.8-6.2,14.4-6.2s12.5,3.4,14.4,6.2C45.6,25,45.5,25.3,45.3,25.4z"/>
	<path class="st1" d="M38,27c0.7,0.4,1.3,0.9,1.9,1.5C39.3,27.9,38.6,27.5,38,27z"/>
	<path class="st1" d="M33.5,25.2c1.6,0.3,3.1,0.9,4.5,1.8C36.6,26.2,35.1,25.6,33.5,25.2z"/>
	<path class="st1" d="M97,13.5L83,2c0,0-7.5,0-16,0v35h28l2-12V13.5z M75,20c0,0.6-0.4,1-1,1h-3c-0.6,0-1-0.4-1-1v-1
		c0-0.6,0.4-1,1-1h3c0.6,0,1,0.4,1,1V20z M94,15v1c0,0.6-0.4,1-1,1h-3c-0.6,0-1-0.4-1-1v-1H69V3h12l9.5,8H92c0.4,0,0.7,0.2,0.9,0.6
		l1,2C94,13.7,94,13.8,94,14V15z"/>
	<path class="st1" d="M112,24c5.4,0,10.1,3.1,12.5,7.7c0.4-0.4,0.9-0.7,1.5-0.7h3v-2h-2c-0.3,0-0.5-0.1-0.7-0.3l-1-1
		c-0.1-0.1-0.2-0.3-0.3-0.5l-1-4c-0.1-0.3,0-0.7,0.3-0.9l1-1c0.2-0.2,0.4-0.3,0.7-0.3h3l-1-2l-2-1l-26-2l-2-1.6V25l-2,12l2,0.7
		C98.2,30.1,104.4,24,112,24z M100.7,23.4c3-2.5,7.1-3.9,11.3-3.9c3.7,0,7.4,1.1,10.3,3.1c0.2,0.2,0.3,0.5,0.1,0.7
		c-0.2,0.2-0.5,0.3-0.7,0.1c-2.7-1.9-6.2-3-9.7-3c-3.9,0-7.9,1.4-10.7,3.7c-0.1,0.1-0.2,0.1-0.3,0.1c-0.1,0-0.3-0.1-0.4-0.2
		C100.4,23.9,100.5,23.6,100.7,23.4z"/>
	<path class="st1" d="M62.2,2h-2H53c-0.2,0-0.5,0-0.7,0.1c-0.4,0.1-0.7,0.4-0.9,0.7c-0.1,0.2-0.2,0.3-0.3,0.5
		c-0.2,0.5-0.4,1-0.4,1.4c0,0.2-0.1,0.3-0.1,0.4c-0.2,0.9-0.4,1.6-0.5,2.3s-0.3,1.2-0.4,1.7C49,12,49,12,49,12v3v19l1,3h10.2h2H66V2
		C64.7,2,63.5,2,62.2,2z M64,15h-1.8h-2H52v-2l2-10h6.2h2H64V15z"/>
	<path class="st2" d="M31,18.5c-7.6,0-12.5,3.4-14.4,6.2c-0.2,0.2-0.1,0.5,0.1,0.7c0.2,0.2,0.5,0.1,0.7-0.1
		c1.8-2.7,6.4-5.8,13.6-5.8s11.8,3.1,13.6,5.8c0.1,0.1,0.3,0.2,0.4,0.2c0.1,0,0.2,0,0.3-0.1c0.2-0.2,0.3-0.5,0.1-0.7
		C43.5,21.9,38.6,18.5,31,18.5z"/>
	<path class="st2" d="M101,24.3c0.1,0,0.2,0,0.3-0.1c2.8-2.3,6.8-3.7,10.7-3.7c3.5,0,7,1.1,9.7,3c0.2,0.2,0.5,0.1,0.7-0.1
		c0.2-0.2,0.1-0.5-0.1-0.7c-2.9-2-6.6-3.1-10.3-3.1c-4.2,0-8.3,1.4-11.3,3.9c-0.2,0.2-0.2,0.5-0.1,0.7
		C100.7,24.3,100.9,24.3,101,24.3z"/>
	<path class="st2" d="M31,26c6.3,0,11.4,4.9,11.9,11h1c-0.3-3.4-1.8-6.4-4.1-8.5c-0.6-0.5-1.2-1-1.9-1.5c-1.3-0.9-2.9-1.5-4.5-1.8
		C32.7,25.1,31.9,25,31,25c-6.1,0-11.2,4.2-12.6,9.8L19,35c0,0,0.2,0,0.4,0C20.7,29.8,25.4,26,31,26z"/>
	<path class="st2" d="M112,26c6.2,0,11.3,4.7,11.9,10.7l0.1,0v-3.6c-0.5-1.2-1.1-2.3-1.9-3.2c-0.7-0.9-1.5-1.7-2.5-2.3
		c-2.1-1.6-4.8-2.5-7.6-2.5c-7.2,0-13,5.8-13,13c0,0,0.4,0,1,0C100,31.4,105.4,26,112,26z"/>
	<rect x="5" y="18" class="st3" width="3" height="6"/>
	<polygon class="st1" points="4,35 9,35 9,30 5,30 3,29 2,29 2,34 	"/>
	<polygon class="st1" points="130,33 126,33 126,38 129,38 130,38 132,37 132,32 	"/>
	<path class="st4" d="M133.1,30.3c-0.3-0.2-0.7-0.3-1.1-0.3c-0.3,0-0.6,0.1-0.9,0.2l-0.1,0.1V21c0-0.3-0.1-0.6-0.2-0.9l-1-2
		c-0.2-0.4-0.5-0.7-0.9-0.9l-2-1c-0.2-0.1-0.5-0.2-0.8-0.2l-25.4-2L84.3,0.5C83.9,0.2,83.5,0,83,0H62.2h-2H53
		c-1.6,0-3.6,0.8-4.4,4.4l0,0.1l-1.6,7c0,0.1,0,0.3,0,0.4v1H6c-0.5,0-1,0.2-1.4,0.6l-1,1C3.2,15,3,15.5,3,16v11H2c-1.1,0-2,0.9-2,2
		v5c0,0.8,0.4,1.5,1.1,1.8l2,1C3.4,36.9,3.7,37,4,37h5c0.7,0,1.4-0.4,1.7-1h5l2.7,0.9C18.6,37,18.8,37,19,37h0.1
		c0,0.3-0.1,0.7-0.1,1c0,6.6,5.4,12,12,12c5.5,0,10.2-3.8,11.6-8.9c0.4-0.7,0.7-1.3,1-2.1h16.7h2h33.5l2.7,0.9
		C98.6,40,98.8,40,99,40h0.8c0.2,0.4,0.4,0.8,0.6,1.1c1.4,5.1,6,8.9,11.6,8.9c6.2,0,11.4-4.8,11.9-10.9l0.3-0.2
		c0.3,0.6,1,1.1,1.8,1.1h4c0.3,0,0.6-0.1,0.9-0.2l2-1c0.7-0.3,1.1-1,1.1-1.8v-5C134,31.3,133.6,30.7,133.1,30.3z M129,28h-2l-1-1
		l-1-4l1-1h3V28z M5,18h3v6H5V18z M2,29h1l2,1h4v5H4l-2-1V29z M18.4,34.8C19.8,29.2,24.9,25,31,25c0.9,0,1.7,0.1,2.5,0.2
		c1.6,0.3,3.1,0.9,4.5,1.8c0.7,0.4,1.3,0.9,1.9,1.5c2.3,2.2,3.8,5.2,4.1,8.5h-1c-0.5-6.1-5.7-11-11.9-11c-5.6,0-10.3,3.8-11.6,9
		c-0.2,0-0.4,0-0.4,0L18.4,34.8z M31,48c-5.5,0-10-4.5-10-10s4.5-10,10-10s10,4.5,10,10S36.5,48,31,48z M44.9,37
		C44.9,37,44.9,36.9,44.9,37c-0.5-7.3-6.7-13-13.9-13c-6.4,0-11.9,4.3-13.5,10.5L16,34h-5v-4c0-1.1-0.9-2-2-2H5.5L5,27.8V25h3
		c0.6,0,1-0.4,1-1v-6c0-0.6-0.4-1-1-1H5v-1l1-1h42v19l1,3H44.9z M62.2,37h-2H50l-1-3V15v-3c0,0,0,0,0.7-2.9C49.8,8.6,49.9,8,50,7.3
		s0.3-1.4,0.5-2.3c0-0.1,0-0.2,0.1-0.4c0.1-0.4,0.2-0.9,0.4-1.4c0.1-0.2,0.2-0.3,0.3-0.5c0.2-0.3,0.5-0.6,0.9-0.7
		C52.5,2,52.8,2,53,2h7.2h2c1.3,0,2.5,0,3.8,0v35H62.2z M67,37V2c8.5,0,16,0,16,0l14,11.5V25l-2,12H67z M98,25V14.4l2,1.6l26,2l2,1
		l1,2h-3c-0.3,0-0.5,0.1-0.7,0.3l-1,1c-0.2,0.2-0.3,0.6-0.3,0.9l1,4c0,0.2,0.1,0.3,0.3,0.5l1,1c0.2,0.2,0.4,0.3,0.7,0.3h2v2h-3
		c-0.6,0-1.2,0.3-1.5,0.7c-2.3-4.6-7.1-7.7-12.5-7.7c-7.6,0-13.8,6.1-14,13.7L96,37L98,25z M112,48c-5.5,0-10-4.5-10-10
		s4.5-10,10-10s10,4.5,10,10S117.5,48,112,48z M99,38c0-7.2,5.8-13,13-13c2.9,0,5.5,0.9,7.6,2.5c0.9,0.7,1.7,1.5,2.5,2.3
		c0.8,1,1.4,2.1,1.9,3.2v3.6l-0.1,0c-0.6-6-5.7-10.7-11.9-10.7c-6.6,0-12,5.4-12,12C99.4,38,99,38,99,38z M132,37l-2,1h-1h-3v-5h4
		l2-1V37z"/>
	<polygon class="st3" points="125,23 126,27 127,28 129,28 129,22 126,22 	"/>
	<polygon class="st2" points="60.2,4 54.8,4 53,13.1 53,14 60.2,14 62.2,14 63,14 63,4 62.2,4 	"/>
	<path class="st4" d="M60.2,3H54l-2,10v2h8.2h2H64V3h-1.8H60.2z M63,4v10h-0.8h-2H53v-0.9L54.8,4h5.4h2H63z"/>
	<path class="st2" d="M89.3,11.3L80.6,4H70v10h19v-2C89,11.7,89.1,11.5,89.3,11.3z"/>
	<polygon class="st1" points="90,12 90,16 93,16 93,14 92,12 	"/>
	<path class="st4" d="M92.9,11.6C92.7,11.2,92.4,11,92,11h-1.5L81,3H69v12h20v1c0,0.6,0.4,1,1,1h3c0.6,0,1-0.4,1-1v-1v-1
		c0-0.2,0-0.3-0.1-0.4L92.9,11.6z M70,14V4h10.6l8.6,7.3C89.1,11.5,89,11.7,89,12v2H70z M93,14v2h-3v-4h2L93,14z"/>
	<rect x="71" y="19" class="st5" width="3" height="1"/>
	<path class="st4" d="M74,18h-3c-0.6,0-1,0.4-1,1v1c0,0.6,0.4,1,1,1h3c0.6,0,1-0.4,1-1v-1C75,18.4,74.6,18,74,18z M74,20h-3v-1h3V20
		z"/>
	<path class="st6" d="M29.1,42.6c-0.6-0.3-1.1-0.6-1.6-1.1C27.9,42,28.5,42.4,29.1,42.6z"/>
	<path class="st6" d="M34.5,41.5c-0.5,0.5-1,0.8-1.6,1.1C33.5,42.4,34.1,42,34.5,41.5z"/>
	<path class="st6" d="M41,38c0-5.5-4.5-10-10-10s-10,4.5-10,10s4.5,10,10,10S41,43.5,41,38z M31,32c3.3,0,6,2.7,6,6s-2.7,6-6,6
		s-6-2.7-6-6S27.7,32,31,32z"/>
	<path class="st1" d="M29.1,42.6c0.6,0.3,1.3,0.4,1.9,0.4s1.3-0.1,1.9-0.4s1.1-0.6,1.6-1.1c0.9-0.9,1.5-2.2,1.5-3.5c0-2.8-2.2-5-5-5
		s-5,2.2-5,5c0,1.4,0.6,2.6,1.5,3.5C27.9,42,28.5,42.4,29.1,42.6z M31.4,41.9c-0.2,0.2-0.5,0.2-0.7,0c-0.2-0.2-0.2-0.5,0-0.7
		c0.2-0.2,0.5-0.2,0.7,0C31.5,41.4,31.5,41.7,31.4,41.9z M33.5,41c-0.3,0-0.5-0.2-0.5-0.5c0-0.3,0.2-0.5,0.5-0.5s0.5,0.2,0.5,0.5
		C34,40.8,33.8,41,33.5,41z M34.2,37.6c0.2-0.2,0.5-0.2,0.7,0s0.2,0.5,0,0.7c-0.2,0.2-0.5,0.2-0.7,0C34,38.2,34,37.8,34.2,37.6z
		 M33.5,35c0.3,0,0.5,0.2,0.5,0.5c0,0.3-0.2,0.5-0.5,0.5S33,35.8,33,35.5C33,35.2,33.2,35,33.5,35z M30.6,34.1
		c0.2-0.2,0.5-0.2,0.7,0c0.2,0.2,0.2,0.5,0,0.7c-0.2,0.2-0.5,0.2-0.7,0C30.5,34.6,30.5,34.3,30.6,34.1z M31,36c1.1,0,2,0.9,2,2
		s-0.9,2-2,2c-1.1,0-2-0.9-2-2S29.9,36,31,36z M28.5,35c0.3,0,0.5,0.2,0.5,0.5c0,0.3-0.2,0.5-0.5,0.5S28,35.8,28,35.5
		C28,35.2,28.2,35,28.5,35z M28.5,40c0.3,0,0.5,0.2,0.5,0.5c0,0.3-0.2,0.5-0.5,0.5S28,40.8,28,40.5C28,40.2,28.2,40,28.5,40z
		 M27.1,37.6c0.2-0.2,0.5-0.2,0.7,0c0.2,0.2,0.2,0.5,0,0.7c-0.2,0.2-0.5,0.2-0.7,0C26.9,38.2,26.9,37.8,27.1,37.6z"/>
	<circle class="st1" cx="31" cy="38" r="1"/>
	<path class="st4" d="M31,44c3.3,0,6-2.7,6-6s-2.7-6-6-6s-6,2.7-6,6S27.7,44,31,44z M31,33c2.8,0,5,2.2,5,5c0,1.4-0.6,2.6-1.5,3.5
		c-0.5,0.5-1,0.8-1.6,1.1S31.7,43,31,43s-1.3-0.1-1.9-0.4s-1.1-0.6-1.6-1.1C26.6,40.6,26,39.4,26,38C26,35.2,28.2,33,31,33z"/>
	<circle class="st4" cx="28.5" cy="35.5" r="0.5"/>
	<circle class="st4" cx="33.5" cy="40.5" r="0.5"/>
	<circle class="st4" cx="33.5" cy="35.5" r="0.5"/>
	<circle class="st4" cx="28.5" cy="40.5" r="0.5"/>
	<path class="st4" d="M31.4,34.8c0.2-0.2,0.2-0.5,0-0.7c-0.2-0.2-0.5-0.2-0.7,0c-0.2,0.2-0.2,0.5,0,0.7C30.8,35,31.2,35,31.4,34.8z"
		/>
	<path class="st4" d="M30.6,41.2c-0.2,0.2-0.2,0.5,0,0.7c0.2,0.2,0.5,0.2,0.7,0c0.2-0.2,0.2-0.5,0-0.7C31.2,41,30.8,41,30.6,41.2z"
		/>
	<path class="st4" d="M34.9,38.4c0.2-0.2,0.2-0.5,0-0.7s-0.5-0.2-0.7,0c-0.2,0.2-0.2,0.5,0,0.7C34.4,38.5,34.7,38.5,34.9,38.4z"/>
	<path class="st4" d="M27.8,38.4c0.2-0.2,0.2-0.5,0-0.7c-0.2-0.2-0.5-0.2-0.7,0s-0.2,0.5,0,0.7C27.3,38.5,27.6,38.5,27.8,38.4z"/>
	<g>
		<path class="st7" d="M31,40c1.1,0,2-0.9,2-2s-0.9-2-2-2c-1.1,0-2,0.9-2,2S29.9,40,31,40z M31,37c0.6,0,1,0.4,1,1c0,0.6-0.4,1-1,1
			s-1-0.4-1-1C30,37.4,30.4,37,31,37z"/>
	</g>
	<path class="st6" d="M115.5,41.5c-0.5,0.5-1,0.8-1.6,1.1C114.5,42.4,115.1,42,115.5,41.5z"/>
	<path class="st6" d="M110.1,42.6c-0.6-0.3-1.1-0.6-1.6-1.1C108.9,42,109.5,42.4,110.1,42.6z"/>
	<path class="st6" d="M122,38c0-5.5-4.5-10-10-10s-10,4.5-10,10s4.5,10,10,10S122,43.5,122,38z M112,32c3.3,0,6,2.7,6,6s-2.7,6-6,6
		s-6-2.7-6-6S108.7,32,112,32z"/>
	<circle class="st1" cx="112" cy="38" r="1"/>
	<path class="st1" d="M110.1,42.6c0.6,0.3,1.3,0.4,1.9,0.4s1.3-0.1,1.9-0.4s1.1-0.6,1.6-1.1c0.9-0.9,1.5-2.2,1.5-3.5
		c0-2.8-2.2-5-5-5s-5,2.2-5,5c0,1.4,0.6,2.6,1.5,3.5C108.9,42,109.5,42.4,110.1,42.6z M112.4,41.9c-0.2,0.2-0.5,0.2-0.7,0
		c-0.2-0.2-0.2-0.5,0-0.7c0.2-0.2,0.5-0.2,0.7,0C112.5,41.4,112.5,41.7,112.4,41.9z M114.5,41c-0.3,0-0.5-0.2-0.5-0.5
		c0-0.3,0.2-0.5,0.5-0.5s0.5,0.2,0.5,0.5C115,40.8,114.8,41,114.5,41z M115.2,37.6c0.2-0.2,0.5-0.2,0.7,0s0.2,0.5,0,0.7
		c-0.2,0.2-0.5,0.2-0.7,0C115,38.2,115,37.8,115.2,37.6z M114.5,35c0.3,0,0.5,0.2,0.5,0.5c0,0.3-0.2,0.5-0.5,0.5s-0.5-0.2-0.5-0.5
		C114,35.2,114.2,35,114.5,35z M111.6,34.1c0.2-0.2,0.5-0.2,0.7,0c0.2,0.2,0.2,0.5,0,0.7c-0.2,0.2-0.5,0.2-0.7,0
		C111.5,34.6,111.5,34.3,111.6,34.1z M112,36c1.1,0,2,0.9,2,2s-0.9,2-2,2c-1.1,0-2-0.9-2-2S110.9,36,112,36z M109.5,35
		c0.3,0,0.5,0.2,0.5,0.5c0,0.3-0.2,0.5-0.5,0.5s-0.5-0.2-0.5-0.5C109,35.2,109.2,35,109.5,35z M109.5,40c0.3,0,0.5,0.2,0.5,0.5
		c0,0.3-0.2,0.5-0.5,0.5s-0.5-0.2-0.5-0.5C109,40.2,109.2,40,109.5,40z M108.1,37.6c0.2-0.2,0.5-0.2,0.7,0c0.2,0.2,0.2,0.5,0,0.7
		c-0.2,0.2-0.5,0.2-0.7,0C107.9,38.2,107.9,37.8,108.1,37.6z"/>
	<path class="st4" d="M112,44c3.3,0,6-2.7,6-6s-2.7-6-6-6s-6,2.7-6,6S108.7,44,112,44z M112,33c2.8,0,5,2.2,5,5
		c0,1.4-0.6,2.6-1.5,3.5c-0.5,0.5-1,0.8-1.6,1.1S112.7,43,112,43s-1.3-0.1-1.9-0.4s-1.1-0.6-1.6-1.1c-0.9-0.9-1.5-2.2-1.5-3.5
		C107,35.2,109.2,33,112,33z"/>
	<circle class="st4" cx="109.5" cy="35.5" r="0.5"/>
	<circle class="st4" cx="114.5" cy="40.5" r="0.5"/>
	<circle class="st4" cx="114.5" cy="35.5" r="0.5"/>
	<circle class="st4" cx="109.5" cy="40.5" r="0.5"/>
	<path class="st4" d="M112.4,34.8c0.2-0.2,0.2-0.5,0-0.7c-0.2-0.2-0.5-0.2-0.7,0c-0.2,0.2-0.2,0.5,0,0.7
		C111.8,35,112.2,35,112.4,34.8z"/>
	<path class="st4" d="M111.6,41.2c-0.2,0.2-0.2,0.5,0,0.7c0.2,0.2,0.5,0.2,0.7,0c0.2-0.2,0.2-0.5,0-0.7
		C112.2,41,111.8,41,111.6,41.2z"/>
	<path class="st4" d="M115.9,38.4c0.2-0.2,0.2-0.5,0-0.7s-0.5-0.2-0.7,0c-0.2,0.2-0.2,0.5,0,0.7C115.4,38.5,115.7,38.5,115.9,38.4z"
		/>
	<path class="st4" d="M108.8,38.4c0.2-0.2,0.2-0.5,0-0.7c-0.2-0.2-0.5-0.2-0.7,0s-0.2,0.5,0,0.7C108.3,38.5,108.6,38.5,108.8,38.4z"
		/>
	<g>
		<path class="st7" d="M112,40c1.1,0,2-0.9,2-2s-0.9-2-2-2c-1.1,0-2,0.9-2,2S110.9,40,112,40z M112,37c0.6,0,1,0.4,1,1
			c0,0.6-0.4,1-1,1s-1-0.4-1-1C111,37.4,111.4,37,112,37z"/>
	</g>
</g>
</svg>
