<?xml version="1.0" encoding="utf-8"?>
<!-- Generator: Adobe Illustrator 27.4.0, SVG Export Plug-In . SVG Version: 6.00 Build 0)  -->
<svg version="1.1" id="Layer_1" xmlns="http://www.w3.org/2000/svg" xmlns:xlink="http://www.w3.org/1999/xlink" x="0px" y="0px"
	 viewBox="0 0 150.1 49.8" style="enable-background:new 0 0 150.1 49.8;" xml:space="preserve">
<g>
	<path d="M147.5,31.8c0.3,0.1,0.6,0.1,0.9,0.2c0.6,0.2,1,0.6,1,1.3c0,0.2,0,0.3,0.2,0.3c0.3,0.1,0.4,0.4,0.4,0.7c0,0.8,0,1.7,0,2.5
		c0,0.3-0.2,0.5-0.4,0.6c-0.1,0-0.2,0.2-0.2,0.3c0,0.2,0,0.4-0.1,0.7c-0.1,0.6-0.4,0.9-1,1c-0.2,0-0.4,0.1-0.6,0.3
		c-0.8,1-1.9,1.3-3.1,1.4c-0.9,0.1-0.9,0.1-0.9,1c0,0.5,0,1,0,1.6c0,0.4-0.3,0.6-0.7,0.6c-0.5,0-1.1,0-1.6,0c-0.4,0-0.6-0.2-0.7-0.6
		c0-0.4,0-0.9,0-1.3c0-0.8,0-1.7,0-2.5c0-0.1,0-0.1,0-0.2c-0.1-0.2-0.2-0.3-0.3-0.6c-0.5,0-1.1,0-1.7,0c-0.1,3.3-1.4,6.1-4,8.2
		c-2,1.7-4.4,2.5-7,2.4c-5.1-0.1-9.7-4-10.4-9.8c-0.1,0.1-0.3,0.1-0.4,0.2c-1,0.5-2,0.7-3.1,0.7c-4.4,0-8.7,0-13.1,0
		c-2.5,0-5,0-7.5,0c-3.2,0-6.4,0-9.6,0c-2.2,0-4.3,0-6.4,0c-3.5,0-6.9,0-10.3,0c-1.3,0-2.6,0-3.9,0c-5,0-10,0-15.1,0
		c-1.5,0-2.9-0.1-4.3-0.5c-0.1,0-0.3-0.1-0.5-0.1c-0.1,0.5-0.2,1-0.3,1.6c-1.1,4.3-4.7,7.5-9,8.1c-5.5,0.7-10.5-2.8-11.8-8.2
		c0-0.2-0.1-0.3-0.4-0.3c-4.4,0-8.8,0-13.2,0c-0.3,0-0.5,0-0.8,0c-0.7-0.4-1.3-0.7-1.5-1.5H6.2c-0.8,0-1-0.1-1.1-0.9
		c0-0.1-0.1-0.2-0.1-0.2c0,0.1-0.1,0.2-0.1,0.3c0,0.5,0,1.1,0,1.7c0,0.4-0.2,0.6-0.6,0.6s-0.7,0-1.1,0c-0.5,0-1,0-1.5,0
		c-0.7,0-0.9-0.2-0.9-0.9c0-0.3,0-0.6,0-0.9c-0.6-0.3-0.7-0.4-0.7-1c0-1.7,0-3.3,0-5c0-0.8,0.4-1.2,1.2-1.2c0.7,0,1.3,0,2,0
		c0.1,0,0.2,0,0.3,0c0,0,0,0,0-0.1l-0.1-0.1c-0.9-0.1-1-0.6-1.1-1.3c-0.1-1.3-0.2-2.7-0.3-4c-0.1-1.8-0.2-3.6-0.3-5.3
		c0-1.8,0-3.6,0.1-5.5c0-0.4,0.3-0.7,0.8-0.8c0.1,0,0.2,0,0.3,0c16.4,0,32.7,0,49,0c0.4,0,0.4,0,0.5-0.4c0.2-2,0.3-4.1,0.6-6.2
		c0.2-2,0.5-4,0.8-6.1C54.1,1,55,0.5,56.2,0.3c1.1-0.1,2.2-0.2,3.3-0.3c1.7,0,3.4,0,5,0c5,0,10,0,15,0c3,0,6.1,0.1,9.1,0.2
		c2.8,0.1,5.7,0.2,8.5,0.7c1.4,0.2,2.8,0.6,4.1,1.3c0.2,0.1,0.5,0.2,0.6,0.6c0,0.1,0.2,0.1,0.2,0.2c3.4,2.1,6.8,4.2,10.1,6.3
		c2.3,1.5,4.5,3,6.7,4.5c0.1,0.1,0.3,0.1,0.4,0.1c1.5-0.1,3,0,4.5,0.1c2.1,0.1,4.3,0.3,6.4,0.5c3.2,0.3,6.4,0.6,9.6,1
		c1.4,0.2,2.8,0.4,4.1,0.9c0.7,0.3,1.4,0.7,2.1,1.1c0.7,0.4,1,1,1.1,1.8c0,0.2,0.1,0.3,0.2,0.4c0.1,0.1,0.2,0.2,0.2,0.4
		c0.1,0.4,0.1,0.8,0.2,1.3c0,0.3-0.1,0.5-0.3,0.6c-0.1,0.1-0.1,0.2-0.1,0.3c0,0.1,0,0.3,0,0.5c0,0.4,0,0.7,0.4,0.9
		c0.1,0.1,0.2,0.3,0.3,0.5c0,0.4,0,0.8,0,1.2c0,0.3-0.1,0.5-0.4,0.6c-0.2,0.1-0.2,0.2-0.2,0.3c0,0.3,0,0.7,0,1
		c0,0.2,0.1,0.2,0.2,0.3c0.5,0.2,0.7,0.5,0.6,1.1c0,0.3,0,0.6,0,0.9c0,0.4-0.1,0.6-0.5,0.7c-0.2,0.1-0.3,0.2-0.3,0.4
		C147.5,31.5,147.5,31.6,147.5,31.8z M60,5.3c0-0.1,0.1-0.2,0.1-0.3c0.2-0.9,0.6-1.2,1.5-1.3c0.3,0,0.5,0,0.8,0c4.4,0,8.8,0,13.2,0
		c0.2,0,0.4,0,0.6,0c0.8,0,1.6,0,2.4,0c0.1,0,0.1,0,0.2-0.1V3.5c-0.1,0-0.2,0-0.4,0c-5.4,0-10.7,0-16.1,0c-0.3,0-0.5,0-0.8,0
		C60.6,3.7,60,4.4,60,5.3c0,0.2-0.1,0.5-0.1,0.7c0,2.5,0,5,0,7.4c0,0.2,0,0.3,0,0.5c0-2.6,0-5.3,0-7.9C60,5.9,60,5.6,60,5.3z
		 M2.7,29.2c0.1,0.6,0.1,1.1,0.2,1.7c0.1,0.5,0.2,0.6,0.7,0.6c0.7,0,1.4,0.1,2.1,0.1c5.1,0,10.1,0,15.2,0c0.2,0,0.4-0.1,0.5-0.3
		c2.9-4.3,6.9-6.4,12-6.1c4.3,0.3,7.7,2.4,10.1,6.1c0.1,0.2,0.2,0.2,0.4,0.2c3.1,0,6.1,0,9.2,0c0.1,0,0.2,0,0.3,0
		c0-5.1-0.1-10.2-0.1-15.2c-17,0-33.9,0-50.8,0c0,1-0.1,2-0.1,3.1c0.1,0,0.2,0,0.2,0c2,0,4,0,6,0c0.2,0,0.5,0,0.7,0
		c0.5,0,0.8,0.4,0.8,0.9s0,1,0,1.5c0,0.3-0.1,0.5-0.3,0.7c-0.5,0.4-0.9,0.8-1.4,1.2c-0.3,0.3-0.5,0.5-0.5,1c0,1.1,0,2.1,0,3.2
		c0,0.8-0.3,1.1-1.1,1.1c-0.6,0-1.2,0-1.8,0C4.3,29.2,3.5,29.2,2.7,29.2z M110.9,31.6c0-0.1,0-0.2,0-0.2c0.1-1.7,0.2-3.5,0.2-5.2
		c0-2.9,0.1-5.8,0.1-8.7c0-0.5,0-1.1-0.1-1.7c-0.1-1.1-0.7-1.8-1.6-2.4c-1.2-0.9-2.4-1.8-3.7-2.7c-2.8-2-5.6-4-8.5-5.7
		c-1.9-1.1-3.9-1.9-6.1-1.9C89.1,3,86.9,3,84.7,3c-1.2,0-2.4,0-3.6-0.1c-0.6,0-1.2,0-1.7,0c0,0.1,0,0.2,0,0.3c0.1,0,0.2,0,0.4,0
		c3.2,0,6.5,0,9.7,0c2.1,0,4.1,0.3,6,1.4c1.2,0.6,2.3,1.2,3.4,1.9c3.2,2,6.4,4.2,9.4,6.5c1.1,0.9,2,1.9,2.2,3.4
		c0.1,0.7,0.2,1.3,0.2,2s-0.3,1-1,1.1c-0.2,0-0.4,0-0.6,0c-4,0-8,0-12,0c-0.9,0-1.8-0.2-2.7-0.6c-0.9-0.5-1.8-0.9-2.7-1.4
		c-0.4-0.2-0.8-0.4-1.3-0.4C89.6,17,88.8,17,88,17c-2.7,0-5.4,0-8.1,0c-0.1,0-0.2,0-0.2,0c0.1,4.9,0.1,9.9,0.2,14.8
		C90.2,31.6,100.6,31.6,110.9,31.6z M56.9,31.6c7.5,0,14.9,0,22.4,0c0-4.9,0-9.9-0.2-14.8c-0.1,0-0.2,0-0.3,0c-4.5,0-9,0-13.5,0
		c-0.7,0-1.3,0-2-0.2c-1-0.2-1.9-0.6-2.7-1.1c-0.8-0.4-1.1-1.1-1.1-2c0-2.5,0-4.9,0-7.4c0-0.4,0-0.8,0.1-1.1c0.2-1,0.8-1.7,1.8-1.8
		C61.7,3.1,62,3,62.3,3c5.4,0,10.8,0,16.2,0c0.1,0,0.2,0,0.4,0c0-0.1,0-0.2,0-0.4c-0.2,0-0.5,0-0.7,0c-1.8,0-3.6,0-5.5,0
		c-3.8,0-7.6,0-11.5,0c-0.8,0-1.7,0.1-2.5,0.3c-0.8,0.2-1.3,0.7-1.4,1.6c-0.1,0.5-0.1,1-0.2,1.6c-0.1,2.4-0.2,4.7-0.2,7.1
		c-0.1,2.9-0.2,5.9-0.2,8.8c0,2.4,0,4.8,0.1,7.2C56.8,30,56.8,30.8,56.9,31.6z M111.4,31.6C111.5,31.6,111.5,31.6,111.4,31.6
		c1.7,0,3.2,0,4.8,0c0.1,0,0.2-0.1,0.3-0.2c3.1-4.7,7.4-6.9,12.9-6.2c4.2,0.5,7.3,2.7,9.5,6.4c0.1,0.2,0.2,0.2,0.4,0.2
		c2.2,0,4.4,0,6.6,0c0.3,0,0.5,0,0.8,0c0.1,0,0.2-0.1,0.2-0.2c0.2-1-0.2-2-1.4-2c-0.9,0-1.8,0-2.7,0c-0.9,0-1.3-0.4-1.5-1.3
		c0-0.2-0.1-0.4-0.2-0.5c-1.6-2.4-3.7-4.1-6.2-5.4c-4.1-2-8.4-2.2-12.7-0.9c-3.8,1.1-6.8,3.4-8.9,6.8c-0.5,0.8-0.9,1.7-1.3,2.5
		c-0.1,0.2-0.3,0.3-0.4,0.2c-0.1-0.1-0.1-0.3,0-0.4c1-2.5,2.6-4.6,4.6-6.3c4.1-3.4,8.9-4.5,14.1-3.8c3.7,0.5,6.9,2.2,9.6,5
		c0.5,0.5,0.9,1,1.4,1.6c0-0.3,0-0.5,0-0.7c0-0.4-0.1-0.8-0.4-1.1c-0.1-0.1-0.3-0.3-0.5-0.4c-0.8-0.7-1.6-1.4-2.4-2
		c-0.3-0.3-0.5-0.6-0.6-1c0-0.3,0-0.7,0-1.1s0.2-0.6,0.6-0.6c0.5,0,1.1,0,1.6,0c1.9,0,3.8,0.1,5.7,0.1c0.3,0,0.7,0,1,0
		c0-0.6-0.2-1.1-0.7-1.4c-0.6-0.4-1.3-0.9-2-1.2c-1.2-0.6-2.6-0.8-4-1c-1.6-0.2-3.1-0.4-4.7-0.6c-1.8-0.2-3.6-0.3-5.3-0.5
		c-1.8-0.2-3.6-0.3-5.5-0.4c-1.6-0.1-3.1-0.2-4.7-0.2c-0.6,0-1.3,0.1-1.9,0.1c0,0,0,0,0,0.1c0,0,0.1,0,0.1,0.1
		c0.9,0.7,1.9,1.2,2.9,1.6c0.1,0,0.1,0,0.2,0c1.1,0,2.3,0,3.4,0.1c3.2,0.2,6.4,0.3,9.6,0.6c2.9,0.3,5.7,0.7,8.6,1.1
		c0.2,0,0.3,0.1,0.3,0.3c0,0.2-0.2,0.2-0.4,0.2c-1.9-0.3-3.8-0.6-5.7-0.8c-2.6-0.4-5.3-0.6-7.9-0.8c-3.4-0.2-6.8-0.3-10.2-0.4
		c-2.2,0-4.4,0-6.7,0c-0.1,0-0.2,0-0.3,0C111.8,21.9,111.6,26.7,111.4,31.6z M79.7,32.1c0,2.4-0.1,4.9-0.1,7.3c10.3,0,20.6,0,30.9,0
		c0.1-2.4,0.3-4.9,0.4-7.3C100.5,32.1,90.1,32.1,79.7,32.1z M82.4,4.2c0.1,3.8,0.2,7.6,0.3,11.5c0.2,0,0.3,0,0.4,0
		c2.1,0,4.2,0,6.3,0c0.9,0,1.8,0.2,2.6,0.6c0.9,0.4,1.8,0.9,2.7,1.4c0.7,0.4,1.5,0.5,2.3,0.5c2,0,4,0,6,0c0.1,0,0.2,0,0.3,0
		c-0.1-0.1-0.2-0.2-0.3-0.3c-0.5-0.4-0.8-0.9-0.8-1.5c0-1.1,0-2.3,0-3.5c0-0.9,0.4-1.2,1.3-1.2c0.2,0,0.4,0,0.6,0
		c0.1-0.3,0-0.4-0.2-0.6c-0.3-0.2-0.7-0.5-1-0.7c-2.3-1.6-4.6-3.1-7-4.5C94,4.8,92,4.1,89.8,4.1c-2.4,0-4.8,0-7.2,0
		C82.6,4.2,82.6,4.2,82.4,4.2z M5.6,38.7c0,0.7,0,0.7,0.6,0.7c0,0,0,0,0.1,0c0.3,0,0.4,0.1,0.5,0.3c0.1,0.5,0.5,0.7,0.9,0.8
		c0.3,0,0.6,0.1,0.8,0.1c4.4,0,8.8,0,13.2,0c0.1,0,0.2,0,0.3,0c-1-6.5,3.7-12.4,10.3-12.6c5.9-0.2,11.3,4.7,11,11.5
		c0.1,0,0.2,0.1,0.4,0.1c1.5,0.4,3,0.6,4.6,0.6c6.9,0,13.8,0,20.8,0c3.5,0,7,0,10.5,0c2,0,3.9,0,5.9,0c3.4,0,6.8,0,10.2,0
		c1.9,0,3.8,0,5.7,0c4.3,0,8.5,0,12.8,0c1.2,0,2.3-0.3,3.3-0.8c0.1-0.1,0.2-0.2,0.2-0.3c0-0.6,0-1.3,0.1-1.9c1-6.3,6.9-10.4,13-8.9
		c4.2,1,7.5,4.6,8.1,8.9c0.1,0.4,0.1,0.9,0.1,1.4c0.6,0,1.2,0,1.8,0c0-0.2,0-0.4,0-0.6c-0.1-2.2-0.7-4.3-1.8-6.3
		c-2.7-4.6-7.7-7-12.9-6.1c-5.7,0.9-10.4,6-10.5,12.3c0,0.5,0,0.9,0,1.4c0,0.4-0.2,0.5-0.5,0.5c-0.2,0-0.4,0-0.6,0
		c-19.3,0-38.7,0-57.9,0c-0.7,0-1.3-0.1-1.8-0.5c-0.1,0.4-0.4,0.5-0.8,0.5c-0.3,0-0.6,0-0.9,0c-2.3,0-4.5,0-6.8,0
		c-0.4,0-0.7-0.1-0.8-0.4c0-0.2,0-0.4,0-0.5c-0.1-1,0-2-0.2-2.9c-1.4-6.7-7.5-11-14-10.1c-4.2,0.6-7.3,2.8-9.4,6.5
		c-1.2,2-1.7,4.3-1.6,6.6c0,0.6-0.2,0.9-0.8,0.9c-0.8,0-1.7-0.1-2.5-0.2c-2-0.1-4-0.3-5.9-0.4c-1.3-0.1-2.6-0.2-3.9-0.3
		C6.3,38.8,6,38.7,5.6,38.7z M75.8,4.2c-0.1,0-0.2,0-0.2,0c-4.5,0-8.9,0-13.4,0c-0.3,0-0.6,0-0.9,0.1c-0.4,0.1-0.7,0.3-0.8,0.7
		c-0.1,0.3-0.1,0.6-0.1,0.9c0,2.6,0,5.2,0,7.9c0,0.3,0.1,0.5,0.4,0.7c0.3,0.2,0.6,0.4,0.9,0.5c0.8,0.3,1.7,0.5,2.5,0.8
		c3.8,0,7.6,0,11.4,0c0.1,0,0.2,0,0.3,0C75.9,11.9,75.8,8.1,75.8,4.2z M79.2,32.1c-7.5,0-14.9,0-22.4,0c0.1,2.4,0.2,4.9,0.3,7.3
		c7.3,0,14.6,0,22,0C79.2,37,79.2,34.6,79.2,32.1z M117.7,38.9c0.1,6,4.7,10.3,10,10.4c5.8,0.1,10.4-4.5,10.4-10.2
		c0-5.8-4.5-10.5-10.1-10.5C122.3,28.5,117.7,33.1,117.7,38.9z M32.5,49.3c5.6,0,10.2-4.6,10.2-10.2c0.1-5.7-4.5-10.5-10.2-10.6
		c-5.8,0-10.2,4.7-10.3,10.2C22.3,44.8,27,49.3,32.5,49.3z M56.3,31.6c0-0.1,0-0.2,0-0.3c0-2.5-0.1-5-0.1-7.5c0-1.1,0-2.3,0-3.4
		c0-1.6,0.1-3.3,0.1-4.9c0.1-2.1,0.1-4.2,0.2-6.3c0-1.4,0.1-2.7,0.2-4.1c0.1-1.8,0.9-2.6,2.6-2.8c0.7-0.1,1.3-0.1,2-0.1
		c3.8,0,7.6,0,11.3,0c2.3,0,4.6,0,6.9,0c3.4,0,6.8,0.1,10.2,0.2c1.7,0,3.5,0.1,5.1,0.7c1.4,0.5,2.7,1.2,3.9,2c3.8,2.4,7.4,5,11,7.7
		c0.5,0.3,0.9,0.8,1.3,1.2c0,0,0.1,0.1,0.2,0.1c0.5,0,0.9,0,1.5,0c-0.1-0.1-0.2-0.1-0.2-0.2c-5.1-3.6-10.2-7.4-15.6-10.6
		C95.7,2.6,94.4,2,93,2c-1.3-0.1-2.7-0.1-4.1-0.1c-2.5,0-5-0.1-7.5-0.1c-2.1,0-4.1,0-6.1,0c-3.8,0-7.7,0-11.5,0
		c-2.1,0-4.1,0-6.2,0.1c-1.1,0-2.2,0.2-3.2,0.8C54.2,2.8,54.1,3,54,3.2c-0.2,1.3-0.4,2.5-0.5,3.8c-0.3,2.5-0.5,5.1-0.7,7.7
		c0,0.5,0.1,0.8,0.4,1.1c0.1,0.1,0.2,0.4,0.2,0.6c0,3,0,6,0,9.1c0,1.8,0,3.6,0,5.5c0,0.3,0,0.5,0,0.8C54.7,31.6,55.5,31.6,56.3,31.6
		z M5.9,32.1c0,0.5,0.1,1.1,0.1,1.6c0.1,1.4,0.1,2.8,0.2,4.2c0,0.4,0,0.5,0.5,0.5c1.1,0.1,2.2,0.2,3.3,0.3c1.5,0.1,3,0.2,4.5,0.3
		s2.9,0.2,4.4,0.3c0.2,0,0.4,0,0.3-0.3c-0.1-2.3,0.4-4.6,1.5-6.7c0-0.1,0.1-0.1,0.1-0.2C15.8,32.1,10.8,32.1,5.9,32.1z M43.8,32.1
		c0,0.1,0,0.1,0.1,0.2c1.1,2.1,1.6,4.3,1.5,6.7c0,0.3,0,0.4,0.4,0.4c2.5,0,5,0,7.5,0c0.5,0,0.5,0,0.5-0.5c-0.1-1.8-0.2-3.6-0.3-5.4
		c0-0.5,0-0.9-0.1-1.4C50.1,32.1,47,32.1,43.8,32.1z M118.3,14.2c-0.2-0.1-0.3-0.2-0.3-0.2c-5.4-3.7-10.8-7.3-16.4-10.6
		c-0.1,0-0.2-0.1-0.3-0.1c-0.7,0-1.5,0-2.2,0c-0.3,0-0.6,0.1-1,0.1c0.1,0.1,0.2,0.1,0.2,0.1c1.4,0.9,2.8,1.8,4.2,2.7
		c3.7,2.5,7.3,5.1,10.9,7.7c0.1,0.1,0.3,0.2,0.5,0.2c1.3,0,2.6,0,3.8,0C117.8,14.2,118,14.2,118.3,14.2z M139.4,32.3
		c0,0.1,0.1,0.2,0.1,0.3c1,2,1.2,4.2,1.4,6.4c0,0.4,0,0.4,0.4,0.4c1.2,0,2.3,0,3.5-0.1c1.1-0.1,2.2-0.2,3.3-0.3
		c0.5,0,0.7-0.2,0.7-0.7c0.1-0.5,0.1-1,0.1-1.5c0-1.1,0-2.2,0-3.3c0-0.6-0.2-0.9-0.8-1c-0.3-0.1-0.6-0.1-0.9-0.1c-2.6,0-5.1,0-7.7,0
		C139.5,32.3,139.5,32.3,139.4,32.3z M100.8,2.6c-0.1-0.1-0.4-0.2-0.6-0.3c-1.8-0.7-3.8-1.1-5.7-1.2c-2.7-0.2-5.5-0.4-8.2-0.5
		c-2.3-0.1-4.6-0.1-6.9-0.1c-4.8,0-9.5,0-14.3,0c-0.8,0-1.6,0-2.3,0c-2,0-4-0.1-6,0.2c-0.6,0.1-1.2,0.2-1.7,0.5
		c-0.3,0.2-0.5,0.5-0.6,0.8c0.5,0,0.9-0.2,1.3-0.3c0.4-0.1,0.8-0.2,1.3-0.2c1.7-0.1,3.4-0.2,5.1-0.2c3.3,0,6.5,0,9.8,0
		c2.1,0,4.1,0,6.1,0c1.9,0,3.8,0,5.7,0.1c2.6,0,5.2,0.1,7.8,0.1c2,0,3.9,0.4,5.6,1.5c0.1,0,0.2,0,0.3,0C98.6,2.9,99.7,2.8,100.8,2.6
		z M82.3,15.7C82.2,11.8,82,8,81.9,4.2c-0.9,0-1.7,0-2.6,0c0,3.8,0.1,7.6,0.1,11.5C80.4,15.7,81.4,15.7,82.3,15.7z M76.4,15.7
		c0.9,0,1.7,0,2.5,0c0-3.8-0.1-7.6-0.1-11.5c-0.8,0-1.6,0-2.5,0C76.3,8.1,76.4,11.9,76.4,15.7z M114.6,39.4c-0.1-2.6,0.3-5,1.5-7.3
		c-1.6,0-3.2,0-4.8,0c-0.1,2.4-0.3,4.9-0.4,7.3C112.2,39.4,113.4,39.4,114.6,39.4z M107.9,15.2c0,0.1,0,0.2,0,0.3c0,0.4,0,0.8,0,1.2
		c0,0.1-0.1,0.2-0.2,0.2s-0.2-0.1-0.2-0.2c0,0,0-0.1,0-0.2c0-0.8,0-1.6,0-2.4c0-0.3-0.1-0.7-0.3-1c-0.4-0.5-1-0.8-1.6-0.8
		c-0.6,0-1.2,0-1.8,0s-0.8,0.1-0.8,0.8c0,1.1,0,2.2,0,3.2c0,0.4,0.1,0.8,0.4,1c0.4,0.4,0.9,0.7,1.4,0.8c0.9,0,1.8,0.1,2.6,0
		c1-0.1,1.7-1.1,1.5-2.2C108.6,15.5,108.4,15.3,107.9,15.2z M144.9,24.2c0-1.1,0-2.3,0-3.4c-1.9,0-3.8,0-5.7,0
		c-0.2,0.6,0,1.1,0.6,1.6s1.2,1,1.7,1.5c0.6,0.5,1,1.1,1,1.9c0,0.5,0,0.9,0,1.4c0,0.3,0,0.7,0,1.1c0.8,0,1.5,0,2.3,0l0,0
		c0-0.5,0-1.1,0-1.6c0-0.2,0-0.4-0.2-0.4c-0.1,0-0.2-0.1-0.2-0.2C144.1,25.3,144.3,24.4,144.9,24.2z M0.6,33.9c0,0.1,0,0.2,0,0.3
		c0,1.2,0,2.5,0,3.7c0,0.2,0,0.4,0,0.6c0,0.2,0.1,0.3,0.4,0.3s0.7,0,1,0c0.1,0,0.3-0.1,0.3-0.2c0.1-0.4,0.4-0.5,0.7-0.5
		c0.7,0,1.3,0,2,0c0.3,0,0.5,0,0.8,0c-0.1-1.4-0.1-2.9-0.2-4.3C3.9,33.9,2.3,33.9,0.6,33.9z M2.3,20.7c0.1,0,0.2,0,0.3,0
		c1.3,0,2.7,0,4,0c0.4,0,0.7,0.1,0.7,0.5c0.1,0.4,0.1,0.8-0.1,1.1c-0.4,0.5-0.8,1.1-1.2,1.6c-0.1,0.2-0.2,0.4-0.2,0.6
		c0,0.9,0,1.7,0,2.6c0,0.5-0.2,0.8-0.8,0.8c-0.1,0-0.1,0-0.2,0c-0.7,0-1.4,0-2.2,0c0,0.1,0,0.2,0,0.3c0,0.4,0,0.4,0.4,0.4
		c1.2,0,2.5,0,3.7,0c0.5,0,0.6-0.1,0.6-0.6c0-1.1,0-2.2,0-3.3c0-0.5,0.2-0.9,0.6-1.3c0.5-0.4,0.9-0.8,1.4-1.2
		c0.1-0.1,0.2-0.3,0.2-0.5c0-0.4,0-0.8,0-1.2c0-0.6-0.1-0.7-0.7-0.7c-2.1,0-4.2,0-6.3,0c-0.1,0-0.2,0-0.3,0
		C2.3,20.2,2.3,20.4,2.3,20.7z M2.6,27.5c0.9,0,1.7,0,2.5,0c0.2,0,0.3-0.1,0.3-0.3c0-0.9,0-1.7,0-2.6c0-0.3,0.1-0.6,0.3-0.9
		c0.4-0.5,0.8-1,1.1-1.6c0.1-0.2,0.1-0.5,0.1-0.7c0-0.1-0.3-0.1-0.5-0.1c-1.2,0-2.5,0-3.7,0c-0.1,0-0.2,0-0.4,0
		C2.4,23.3,2.5,25.4,2.6,27.5z M56.7,39.4L56.7,39.4c-0.1-2.4-0.2-4.8-0.3-7.1c0-0.2-0.1-0.2-0.3-0.2c-0.7,0-1.4,0-2.1,0
		c-0.1,0-0.1,0-0.2,0c0,0.1,0,0.2,0,0.3c0.1,1.5,0.1,2.9,0.2,4.4c0,0.5,0.1,1,0.2,1.6c0.1,0.4,0.3,0.7,0.8,0.9
		C55.6,39.5,56.1,39.4,56.7,39.4z M52.7,15.8c-0.1-0.3-0.4-0.2-0.6-0.2c-16.4,0-32.8,0-49.1,0c-0.1,0-0.2,0-0.3,0
		c-0.1,0-0.2,0.1-0.3,0.2c0,0,0,0,0,0.1C19.2,15.8,35.9,15.8,52.7,15.8z M111.7,16.5c2.6,0,5.1,0,7.8,0c-0.1,0-0.1-0.1-0.2-0.1
		c-0.8-0.4-1.6-0.9-2.2-1.5c-0.1-0.1-0.2-0.1-0.3-0.1c-1.7,0-3.4,0-5.1,0c-0.1,0-0.1,0-0.2,0C111.5,15.3,111.6,15.9,111.7,16.5z
		 M141.1,39.9c0,0.8,0,1.6,0,2.4c0,0.4,0,0.9,0,1.3c0,0.2,0.1,0.3,0.3,0.3c0.5,0,0.9,0,1.4,0c0.2,0,0.3-0.1,0.4-0.3
		c0-0.6,0-1.3,0-1.9c0-0.6,0.2-0.8,0.8-0.9c0.7-0.1,1.3-0.2,2-0.4c0.4-0.1,0.8-0.4,1.1-0.7C145.1,39.7,143.1,39.8,141.1,39.9z
		 M107.7,13.1c0,0.4,0.1,0.9,0.2,1.4c0,0.2,0.1,0.3,0.3,0.3c0.6,0.1,1,0.5,1.1,1.1c0.2,1.5-0.7,2.7-2.2,2.8c-0.9,0-1.9,0-2.8,0
		c-2.4,0-4.7,0-7.1,0c-0.7,0-1.3,0-2-0.3c-0.9-0.4-1.8-0.9-2.7-1.4s-1.8-0.8-2.9-0.8c-3.3,0-6.5,0-9.8,0c-0.1,0-0.1,0-0.2,0
		c0,0,0,0,0,0.1c0.1,0,0.2,0,0.3,0c3.2,0,6.3,0,9.5,0c1,0,1.9,0.2,2.7,0.6c0.8,0.4,1.6,0.8,2.3,1.2c1,0.6,2.1,0.7,3.3,0.7
		c3.9,0,7.9,0,11.8,0c0.6,0,0.8-0.2,0.7-0.8c0-0.4-0.1-0.8-0.2-1.3C109.8,15.2,109,13.9,107.7,13.1z M79.3,3.6L79.3,3.6
		c0.1,0.1,0.2,0.1,0.3,0.1c1.7,0,3.4,0,5,0c1.4,0,2.7,0,4.1,0c1.1,0,2.2,0.1,3.3,0.2c1.5,0.2,2.9,0.9,4.2,1.7c2.7,1.5,5.3,3.3,7.8,5
		c0.4,0.3,0.7,0.5,0.6,1l0,0c0.5,0,0.9,0.1,1.4,0.1c-0.1,0-0.1,0-0.1-0.1C102.7,9.2,99.4,7,95.8,5C94,4,92.1,3.3,90,3.3
		c-1.2,0-2.3,0-3.5,0c-2.3,0-4.7,0-7,0C79.6,3.5,79.5,3.6,79.3,3.6z M4.4,38.7c-0.5,0-1,0-1.4,0c-0.1,0-0.2,0.1-0.2,0.1
		c-0.1,0.5-0.5,0.6-1,0.6c-0.1,0-0.2,0-0.3,0c-0.1,0-0.2,0-0.2,0.2c0,0.3,0,0.5,0,0.8c0,0.2,0.1,0.3,0.3,0.3s0.4,0,0.6,0
		c0.6,0,1.2,0,1.8,0c0.1,0,0.4,0,0.4-0.2C4.4,40,4.4,39.4,4.4,38.7z M146.8,24.2c0-1.2-0.1-2.5-0.2-3.7c-0.4,0-0.8,0-1.2,0
		c0,1.2,0,2.5,0,3.7C145.9,24.2,146.3,24.2,146.8,24.2z M146.9,29.6C146.9,29.5,147,29.5,146.9,29.6c0-1.1,0-2.2,0-3.3
		c-0.5,0-1,0-1.5,0c0,0.9,0,1.7,0,2.6c0,0,0.1,0.1,0.2,0.1C146.1,29.1,146.5,29.2,146.9,29.6z M0.6,33.4c1.6,0,3.2,0,4.9,0
		c0-0.2,0-0.5-0.1-0.7c-0.4,0-0.8,0-1.1,0c-1,0-2.1,0-3.1,0C0.8,32.7,0.6,33,0.6,33.4z M138.7,20.3c-0.7,0-0.7,0-0.6,0.7v0.1
		c0,0.5,0.1,0.8,0.5,1.1c0.9,0.7,1.7,1.4,2.5,2.2c0.5,0.5,0.8,1,0.8,1.8c0,0.6,0,1.2,0,1.8c0,0.6,0.3,0.8,0.8,0.9c0.6,0,1.3,0,1.9,0
		c0.2,0,0.2-0.1,0.1-0.2c-0.1,0-0.2,0-0.3,0c-0.6,0-1.1,0-1.7,0c-0.5,0-0.7-0.2-0.7-0.7c0-0.3,0-0.6,0-0.9c0.1-1.4-0.2-2.6-1.4-3.5
		c-0.5-0.4-1-0.9-1.5-1.3c-0.2-0.2-0.4-0.5-0.4-0.8C138.7,21.1,138.7,20.7,138.7,20.3z M146.8,25.7c0-0.3,0-0.5,0-0.8
		c0-0.1-0.1-0.2-0.2-0.2c-0.5,0-1.1,0-1.6,0c-0.1,0-0.2,0.1-0.2,0.2c0,0.2-0.1,0.5,0.1,0.8c0,0,0,0,0.1,0
		C145.6,25.7,146.2,25.7,146.8,25.7z M79,16.3C79,16.3,79,16.2,79,16.3c-0.1-0.1-0.2-0.1-0.3-0.1c-4.7,0-9.5,0-14.3,0
		c-0.3,0-0.6,0-1-0.1c-0.6-0.1-1.2-0.3-1.8-0.5c0.8,0.4,1.7,0.7,2.5,0.7c4.8,0,9.6,0,14.5,0C78.8,16.3,78.9,16.3,79,16.3z
		 M147.5,30.5c0.3-0.1,0.3-0.1,0.3-0.3c0-0.3,0-0.6,0-1c0-0.2-0.1-0.3-0.3-0.4C147.5,29.3,147.5,29.9,147.5,30.5z M149.5,37
		L149.5,37c0-0.9,0-1.8,0-2.8l0,0C149.5,35.1,149.5,36,149.5,37z M147.4,24.5c0,0.5,0,1,0,1.5h0.1C147.5,25.5,147.5,25,147.4,24.5z
		 M5.2,32.2C5.2,32.1,5.2,32.1,5.2,32.2c-0.3-0.1-0.7-0.1-1-0.1v0.1C4.5,32.2,4.8,32.2,5.2,32.2z"/>
	<path d="M32.1,19.9c5,0.1,9,1.7,12.3,5c1.5,1.5,2.6,3.3,3.5,5.3v0.1c0.1,0.2,0.1,0.3-0.1,0.4c-0.2,0.1-0.3-0.1-0.4-0.2
		c-2.2-5.2-5.9-8.6-11.4-9.7c-5.6-1.2-10.7,0.2-15,4.1c-1.7,1.5-3,3.4-3.9,5.6c0,0,0,0.1-0.1,0.1c-0.1,0-0.2,0.1-0.3,0.1
		c0-0.1-0.1-0.2-0.1-0.3c0.1-0.3,0.3-0.7,0.5-1c2.7-5.1,7-8.2,12.6-9.3C30.6,20,31.5,20,32.1,19.9z"/>
	<path d="M84.2,19.7c0.8,0,1.6,0,2.5,0c0.8,0,1.1,0.3,1,1.1c0,0.5,0,0.9,0,1.4c0,0.6-0.2,0.8-0.8,0.9c-0.4,0-0.8,0-1.2,0
		c-1.3,0-2.7,0-4,0c-0.7,0-0.9-0.3-0.9-0.9c0-0.5,0-1,0-1.5c0-0.7,0.3-1,1-1C82.6,19.7,83.4,19.7,84.2,19.7z M81.7,21.1
		c-0.1,0.6-0.1,0.6,0.5,0.6c1.3,0,2.7,0,4,0c0.5,0,0.5,0,0.5-0.5v-0.1C85.1,21.1,83.4,21.1,81.7,21.1z M81.3,20.7
		c0.2,0,0.4-0.1,0.6-0.1c1.6,0,3.2,0,4.8,0c0.2,0,0.4,0.1,0.5,0.2c0.1-0.5,0-0.6-0.5-0.6c-1.6,0-3.3,0-4.9,0
		C81.4,20.2,81.3,20.3,81.3,20.7z M81.3,22.1c0,0.4,0,0.5,0.3,0.5c1.7,0,3.4,0,5.2,0c0.4,0,0.5-0.1,0.4-0.5c-0.2,0-0.5,0.1-0.7,0.1
		c-1.5,0-3,0-4.5,0C81.8,22.2,81.5,22.1,81.3,22.1z"/>
	<path d="M108.1,29.8c0.5,0,1.1,0,1.6,0c0.2,0,0.4,0.1,0.4,0.3c0,0.2,0,0.4,0,0.7c0,0.2-0.1,0.3-0.3,0.3c-1.1,0-2.3,0-3.4,0
		c-0.2,0-0.4-0.1-0.4-0.4c0-0.2,0-0.4,0-0.6c0-0.3,0.1-0.4,0.4-0.4C107,29.8,107.5,29.8,108.1,29.8L108.1,29.8z M106.6,30.7
		c1,0,2,0,3,0c0-0.1,0-0.2,0-0.3c-1,0-2,0-3,0C106.6,30.5,106.6,30.6,106.6,30.7z"/>
	<path d="M61.2,19.9c0.8,0,1.6,0,2.4,0c0.8,0,1.1,0.3,1,1.1c0,0.5,0,0.9,0,1.4s-0.2,0.8-0.8,0.8s-1.2,0-1.8,0c-1.1,0-2.3,0-3.4,0
		c-0.6,0-0.9-0.3-0.9-0.9c0-0.5,0-1,0-1.5c0-0.7,0.3-1,1-1C59.6,19.8,60.4,19.9,61.2,19.9z M58.7,21.3c0,0.1,0,0.1,0,0.2
		c0,0.5,0,0.5,0.4,0.5c1.4,0,2.7,0,4.1,0c0.6,0,0.6,0,0.5-0.6c0,0,0,0,0-0.1C62,21.3,60.4,21.3,58.7,21.3z M64.2,20.9
		c0-0.5,0-0.6-0.6-0.6c-1.6,0-3.3,0-4.9,0c-0.5,0-0.6,0.1-0.5,0.5c0.2,0,0.4-0.1,0.6-0.1c0.3,0,0.6,0,0.9,0c1.2,0,2.5,0,3.7,0
		C63.8,20.8,64,20.9,64.2,20.9z M58.3,22.3c0,0.4,0,0.5,0.4,0.5c1.7,0,3.4,0,5,0c0.5,0,0.6-0.1,0.5-0.5c-0.3,0-0.6,0.1-0.9,0.1
		c-1.5,0-2.9,0-4.4,0C58.7,22.4,58.5,22.3,58.3,22.3z"/>
	<path d="M127.8,31.3c4.1,0,7.6,3.4,7.5,7.8s-3.7,7.6-7.6,7.5c-3.7,0-7.4-3.1-7.4-7.8C120.4,34.7,123.8,31.3,127.8,31.3z
		 M120.9,39.1c-0.1,3.9,3.4,7.3,7.4,7c3.8-0.2,6.8-3.4,6.6-7.5s-3.7-7-7.4-6.8C123.4,32.1,120.8,35.6,120.9,39.1z"/>
	<path d="M40,39c0,4.3-3.3,7.6-7.6,7.6c-4.1,0-7.4-3.4-7.4-7.7c0-4.2,3.5-7.7,7.7-7.6C36.6,31.4,40,34.7,40,39z M39.5,39
		c0-3.9-3.1-7.1-6.9-7.1c-3.9,0-7.1,3.2-7.1,7.1s3.2,7.1,7,7.1C36.4,46.1,39.5,42.9,39.5,39z"/>
	<path d="M148.2,35.7c0,0.5,0,1,0,1.5c0,0.7-0.3,0.9-1,0.9c-0.8,0.1-1.3-0.2-1.7-0.9c-0.3-0.4-0.5-0.9-0.4-1.4c0-0.5,0-1.1,0-1.6
		c0-0.6,0.2-0.8,0.8-0.8c0.5,0,1,0,1.5,0s0.8,0.2,0.8,0.8C148.2,34.6,148.2,35.2,148.2,35.7L148.2,35.7z M147.7,35.7L147.7,35.7
		c0-0.5,0-1,0-1.5c0-0.2-0.1-0.4-0.3-0.3c-0.5,0-0.9,0-1.4,0c-0.4,0-0.4,0-0.4,0.4c0,0.5,0,1,0,1.5c0,0.4,0.1,0.7,0.3,1
		c0.3,0.5,0.7,0.9,1.4,0.8c0.4,0,0.5-0.1,0.5-0.5C147.7,36.7,147.7,36.2,147.7,35.7z"/>
	<path d="M134.4,39.1c-0.1,3.8-3.1,6.6-6.8,6.5c-3.5-0.1-6.4-3.1-6.2-7c0.2-3.5,3.2-6.4,6.7-6.3C131.7,32.4,134.5,35.4,134.4,39.1z
		 M125.9,44.8c0.1-1.1,0.5-1.5,1.5-1.5c0.3,0,0.5,0,0.8,0c1.1,0,1.5,0.4,1.6,1.5c0.2-0.1,0.5-0.2,0.7-0.3c-0.7-0.8-0.7-1.4,0-2.2
		c0.2-0.2,0.4-0.4,0.5-0.6c0.3-0.3,0.7-0.5,1.2-0.6c0.4,0,0.8,0.2,1.1,0.5c0.1-0.3,0.2-0.5,0.3-0.7c-1,0-1.4-0.4-1.5-1.3
		c0-0.4,0-0.8,0-1.3c0.1-0.7,0.5-1.2,1.1-1.3c0.1,0,0.2,0,0.4,0c-0.1-0.2-0.2-0.4-0.3-0.7c-0.8,0.6-1.4,0.6-2.2,0
		c-0.3-0.2-0.5-0.5-0.8-0.8c-0.5-0.7-0.5-1.3,0-1.9c0,0,0,0,0-0.1c-0.2-0.1-0.4-0.2-0.7-0.3c0,0.6-0.1,1.1-0.7,1.3
		c-0.8,0.3-1.7,0.3-2.5,0c-0.5-0.2-0.7-0.7-0.7-1.3c-0.2,0.1-0.5,0.2-0.7,0.3c0.6,0.8,0.6,1.4,0,2.1c-0.3,0.3-0.6,0.6-0.9,0.8
		c-0.5,0.4-1.3,0.6-1.9,0c0,0,0,0-0.1,0c-0.1,0.2-0.2,0.4-0.2,0.6c1.1,0.1,1.4,0.5,1.5,1.6c0,0.3,0,0.6,0,0.9c0,0.9-0.6,1.5-1.5,1.4
		l0,0c0.1,0.2,0.2,0.5,0.3,0.7c0.7-0.6,1.2-0.7,1.9-0.2c0.4,0.3,0.8,0.7,1.2,1.2c0.4,0.6,0.3,1.2-0.1,1.7c0,0,0,0-0.1,0.1
		C125.5,44.6,125.7,44.7,125.9,44.8z M130.5,43.5c0.1,0.2,0.2,0.4,0.4,0.5c0,0,0.2,0,0.3,0c0.7-0.5,1.3-1.1,1.8-1.8
		c0-0.1,0-0.2,0-0.2c-0.2-0.3-0.6-0.5-1-0.3c-0.6,0.3-1,0.8-1.4,1.3C130.6,43.2,130.5,43.3,130.5,43.5z M123.5,41.6
		c-0.2,0.1-0.4,0.1-0.5,0.2c-0.2,0.1-0.3,0.3-0.1,0.6c0.5,0.6,1,1.2,1.6,1.6c0.1,0.1,0.2,0.1,0.4,0c0.4-0.3,0.5-0.8,0.1-1.2
		c-0.3-0.4-0.6-0.7-1-1C123.9,41.8,123.7,41.7,123.5,41.6z M132.4,36.2c0,0,0.2,0,0.3-0.1c0.4-0.2,0.4-0.4,0.1-0.7
		c-0.4-0.6-0.9-1.1-1.5-1.5c-0.3-0.2-0.5-0.2-0.7,0.1c-0.1,0.1-0.1,0.3-0.1,0.4C130.6,35.1,131.7,36.2,132.4,36.2z M127.9,34.2
		c0.3,0,0.6,0,0.9-0.1c0.4-0.1,0.6-0.4,0.6-0.8c0-0.2-0.1-0.3-0.3-0.3c-0.7-0.1-1.4-0.2-2.2,0c-0.4,0.1-0.6,0.3-0.4,0.7
		c0.1,0.2,0.3,0.4,0.6,0.5C127.3,34.1,127.6,34.1,127.9,34.2z M127.8,45.1c0.3,0,0.7-0.1,1-0.1c0.4,0,0.6-0.3,0.4-0.7
		c-0.1-0.2-0.3-0.4-0.5-0.5c-0.6-0.2-1.2-0.2-1.8,0c-0.4,0.1-0.6,0.4-0.6,0.8c0,0.2,0.1,0.3,0.3,0.3C127.1,45,127.5,45.1,127.8,45.1
		z M134,38.9c0-0.4-0.1-0.8-0.2-1.2c0-0.1-0.1-0.2-0.2-0.2c-0.4-0.1-0.8,0.1-0.9,0.6c-0.1,0.5-0.1,1.1,0,1.6c0,0.5,0.5,0.7,0.9,0.6
		c0.1,0,0.2-0.1,0.2-0.2C133.9,39.8,133.9,39.3,134,38.9z M123.2,38.9c0-0.2,0-0.5-0.1-0.8c-0.1-0.4-0.4-0.7-0.8-0.6
		c-0.2,0-0.3,0.1-0.3,0.3c-0.1,0.7-0.1,1.5,0,2.2c0,0.4,0.2,0.5,0.6,0.4c0.3-0.1,0.5-0.3,0.6-0.6C123.2,39.5,123.2,39.2,123.2,38.9z
		 M125.3,34.4c-0.1-0.2-0.2-0.4-0.4-0.6c-0.1-0.1-0.2-0.1-0.4,0c-0.7,0.5-1.2,1.1-1.7,1.8c-0.1,0.1-0.1,0.3,0,0.4
		c0.3,0.3,0.7,0.4,1.1,0.1c0.4-0.3,0.7-0.7,1-1C125.1,34.8,125.2,34.6,125.3,34.4z"/>
	<path d="M26,39.2c-0.1-3.8,2.7-6.7,6-7c3.6-0.3,6.8,2.5,7.1,6.2c0.2,3.7-2.5,6.9-6.2,7.1C29,45.8,26.1,42.8,26,39.2z M37.9,36.2
		c-0.7,0.6-1.3,0.6-2,0.1c-0.3-0.3-0.6-0.6-0.9-0.9c-0.5-0.7-0.5-1.3,0-2c0,0,0,0,0-0.1c-0.2-0.1-0.4-0.2-0.6-0.2
		c-0.1,0.9-0.4,1.3-1.1,1.4c-0.6,0.1-1.2,0.1-1.7,0c-0.7-0.1-1-0.6-1.1-1.3c0,0,0-0.1,0-0.2c-0.2,0.1-0.5,0.2-0.7,0.3l0.1,0.1
		c0.4,0.5,0.5,1,0.2,1.6s-0.8,1-1.3,1.4c-0.5,0.3-1.1,0.2-1.6-0.2c0,0-0.1,0-0.1-0.1c-0.1,0.2-0.2,0.4-0.3,0.7c0.1,0,0.1,0,0.1,0
		c0.7,0,1.1,0.4,1.3,1.1c0.1,0.6,0.1,1.3,0,1.9c-0.1,0.6-0.6,0.9-1.2,1c-0.1,0-0.1,0-0.2,0c0.1,0.3,0.2,0.5,0.3,0.7
		c0.8-0.6,1.3-0.7,2-0.1c0.4,0.3,0.7,0.7,1.1,1.1c0.3,0.3,0.3,0.8,0.2,1.2c-0.1,0.2-0.2,0.4-0.4,0.7c0.2,0.1,0.4,0.2,0.7,0.3
		c0.1-1,0.5-1.4,1.5-1.5c0.3,0,0.7,0,1,0c1,0.1,1.3,0.5,1.4,1.5c0.2-0.1,0.5-0.2,0.7-0.3c-0.6-0.7-0.7-1.3-0.1-2
		c0.3-0.3,0.6-0.6,0.9-0.9c0.7-0.5,1.3-0.5,2,0c0,0,0,0,0.1,0c0.1-0.2,0.2-0.4,0.3-0.7c-1.1-0.1-1.4-0.5-1.5-1.5c0-0.2,0-0.5,0-0.7
		c0-1.1,0.4-1.6,1.5-1.7C38.1,36.7,38,36.5,37.9,36.2z M35.1,43.5c0.1,0.1,0.1,0.3,0.2,0.5c0.2,0.3,0.3,0.3,0.6,0.1
		c0.6-0.4,1.1-0.9,1.5-1.5c0.2-0.3,0.2-0.5-0.2-0.7c-0.3-0.1-0.6-0.2-0.8,0c-0.4,0.4-0.8,0.8-1.2,1.2C35.2,43.1,35.1,43.3,35.1,43.5
		z M29.8,43.4c0,0,0-0.1,0-0.2c-0.3-0.7-0.8-1.2-1.5-1.5c-0.3-0.1-0.7,0-0.9,0.3c0,0.1-0.1,0.2,0,0.3c0.4,0.7,1.1,1.3,1.7,1.8
		c0.1,0,0.2,0,0.2,0C29.7,44,29.8,43.8,29.8,43.4z M28,36.2c0.1,0,0.2,0,0.2,0c0.5-0.1,1.5-1.1,1.6-1.6c0-0.3,0-0.5-0.2-0.7
		c-0.1-0.1-0.3-0.1-0.4,0c-0.6,0.4-1.2,1-1.6,1.6c-0.2,0.3-0.2,0.4,0.1,0.6C27.7,36.2,27.9,36.2,28,36.2z M32.5,34.2
		c0.3,0,0.6,0,0.9-0.1c0.4-0.1,0.6-0.5,0.6-0.9c0-0.2-0.1-0.2-0.3-0.3c-0.8-0.2-1.6-0.2-2.4,0c-0.1,0-0.2,0.2-0.2,0.3
		c-0.1,0.4,0.2,0.8,0.6,0.9C31.9,34.1,32.2,34.1,32.5,34.2z M37,36.3c0.1-0.1,0.3-0.1,0.5-0.3c0.2-0.1,0.2-0.3,0-0.5
		c-0.5-0.7-1-1.2-1.7-1.7c-0.2-0.1-0.3-0.1-0.4,0c-0.3,0.2-0.4,0.6-0.2,0.9c0.3,0.6,0.8,1,1.3,1.4C36.6,36.2,36.8,36.2,37,36.3z
		 M32.4,45.1c0.4,0,0.7-0.1,1.1-0.1c0.4,0,0.5-0.2,0.4-0.6c-0.1-0.3-0.2-0.5-0.5-0.6c-0.6-0.2-1.2-0.2-1.8,0
		c-0.4,0.1-0.6,0.5-0.5,0.9c0,0.2,0.1,0.3,0.3,0.3C31.7,45,32.1,45.1,32.4,45.1z M38.5,39c0-0.3,0-0.5-0.1-0.7c0-0.1,0-0.2,0-0.3
		c-0.1-0.5-0.4-0.6-0.8-0.3c-0.1,0.1-0.3,0.2-0.3,0.4c-0.2,0.6-0.2,1.3,0,2c0.1,0.3,0.4,0.5,0.8,0.5c0.2,0,0.3-0.1,0.3-0.3
		C38.5,39.7,38.5,39.3,38.5,39z M26.5,39L26.5,39c0,0.3,0,0.5,0.1,0.8c0,0.1,0,0.2,0,0.3c0,0.2,0.1,0.3,0.3,0.3
		c0.4,0,0.7-0.1,0.8-0.5c0.2-0.6,0.2-1.2,0-1.9c-0.1-0.4-0.5-0.6-0.9-0.5c-0.1,0-0.2,0.1-0.2,0.2C26.6,38.1,26.6,38.6,26.5,39z"/>
	<path d="M127.9,42.4c-1.6,0-3.3-1.1-3.4-3.5c0-1.9,1.5-3.4,3.4-3.4s3.4,1.5,3.4,3.4C131.3,40.8,129.8,42.4,127.9,42.4z M127.9,41.9
		c1.6,0,2.9-1.3,2.9-2.9c0-1.6-1.3-3-2.9-3c-1.6,0-3,1.3-3,2.9C125,40.5,126.3,41.9,127.9,41.9z"/>
	<path d="M32.5,42.4c-1.9,0-3.4-1.6-3.4-3.5s1.5-3.4,3.4-3.4s3.4,1.5,3.4,3.4C35.9,40.8,34.4,42.4,32.5,42.4z M35.4,38.9
		c0-1.6-1.3-2.9-2.9-3c-1.6,0-3,1.3-2.9,2.9c0.1,1.9,1.4,3,2.9,3C34.1,41.9,35.4,40.6,35.4,38.9z"/>
	<path d="M127.8,36.8c1.2,0,2.1,0.9,2.1,2.1c0,1.2-1,2.1-2.1,2.1c-1.1,0-2.1-0.9-2-2.2C125.9,37.7,126.7,36.8,127.8,36.8z M126.3,39
		c0,0.9,0.7,1.6,1.6,1.5c0.9,0,1.6-0.8,1.6-1.6c0-0.9-0.7-1.6-1.7-1.6C126.9,37.4,126.3,38.1,126.3,39z"/>
	<path d="M30.4,39c0-1.2,0.9-2.1,2-2.1c1.2,0,2.1,0.8,2.1,2s-0.9,2.2-2.1,2.2C31.4,41.1,30.4,40.2,30.4,39z M30.9,39
		c0,0.9,0.8,1.6,1.6,1.6c0.9,0,1.6-0.8,1.6-1.7s-0.8-1.5-1.7-1.5C31.5,37.4,30.9,38.1,30.9,39z"/>
</g>
</svg>
