<?xml version="1.0" encoding="utf-8"?>
<!-- Generator: Adobe Illustrator 27.4.0, SVG Export Plug-In . SVG Version: 6.00 Build 0)  -->
<svg version="1.1" id="Layer_1" xmlns="http://www.w3.org/2000/svg" xmlns:xlink="http://www.w3.org/1999/xlink" x="0px" y="0px"
	 viewBox="0 0 149.9 49.5" style="enable-background:new 0 0 149.9 49.5;" xml:space="preserve">
<g>
	<path d="M117.1,39.7c-0.1,0.1-0.3,0.1-0.4,0.2c-1,0.5-2,0.7-3.1,0.7c-4.4,0-8.7,0-13.1,0c-2.5,0-5,0-7.5,0c-3.2,0-6.4,0-9.6,0
		c-2.2,0-4.4,0-6.7,0c-2.9,0-5.8,0-8.6,0c-6.8,0-13.6,0-20.4,0c-1.4,0-2.8-0.1-4.2-0.5c-0.1,0-0.3-0.1-0.5-0.1c0,0.4-0.1,0.7-0.2,1
		c-0.8,4.5-4.6,8-9,8.5c-3.5,0.4-6.5-0.6-9-3.1c-1.4-1.4-2.3-3.1-2.8-5c-0.1-0.3-0.2-0.4-0.5-0.4c-4.3,0-8.7,0-13.1,0
		c-0.3,0-0.5,0-0.8,0c-0.7-0.1-1.3-0.5-1.5-1.2c0,0-0.1,0-0.1,0c-0.8,0-0.9-0.1-1-0.9c0-0.1-0.1-0.2-0.1-0.2c0,0.1-0.1,0.2-0.1,0.3
		c0,0.5,0,1.1,0,1.7c0,0.4-0.2,0.6-0.6,0.6c-0.5,0-1,0-1.5,0c-0.4,0-0.9,0-1.3,0c-0.5,0-0.7-0.2-0.7-0.7c0-0.3,0-0.7,0-1
		C0.1,39,0,38.9,0,38.2c0-1.7,0-3.3,0-5C0,32.4,0.4,32,1.1,32c0.7,0,1.4,0,2,0c0.1,0,0.2,0,0.3,0c0,0,0,0,0-0.1c0,0-0.1-0.1-0.1-0.1
		c-0.9-0.1-1-0.6-1.1-1.3c-0.1-1.3-0.2-2.7-0.3-4c-0.1-1.8-0.2-3.5-0.3-5.3c0-1.8,0-3.6,0.1-5.4c0-0.4,0.3-0.7,0.8-0.8
		c0.1,0,0.2,0,0.3,0c18,0,36,0,54,0c0.1,0,0.2,0,0.3,0c0.2,0,0.3,0,0.3-0.3c0.3-3.1,0.6-6.3,0.9-9.4c0.1-1,0.3-2,0.5-2.9
		c0.2-1.3,1.1-1.9,2.4-2C62.4,0.2,63.5,0,64.6,0c4.9,0,9.8,0,14.7,0c3.5,0,7,0.1,10.5,0.2c2.6,0.1,5.2,0.3,7.8,0.8
		c1.2,0.2,2.4,0.6,3.5,1.2c0.2,0.1,0.5,0.2,0.6,0.6c0,0.1,0.2,0.1,0.2,0.2c4.6,2.7,9.1,5.6,13.5,8.6c1.1,0.7,2.2,1.5,3.3,2.3
		c0.1,0.1,0.2,0.1,0.4,0.1c1.5-0.1,3,0,4.5,0.1c2.2,0.1,4.3,0.3,6.5,0.5c3.2,0.3,6.4,0.6,9.5,1c1.5,0.2,3.1,0.4,4.5,1.1
		c0.6,0.3,1.2,0.7,1.8,1.1c0.6,0.4,0.9,1,0.9,1.7c0,0.2,0,0.3,0.2,0.5c0.1,0.1,0.2,0.2,0.2,0.4c0.1,0.4,0.1,0.8,0.2,1.3
		c0,0.3-0.1,0.5-0.3,0.6c-0.1,0.1-0.1,0.2-0.1,0.3c0,0.1,0,0.3,0,0.4c0,0.4,0,0.7,0.4,0.9c0.1,0,0.2,0.3,0.3,0.5c0,0.4,0,0.8,0,1.2
		c0,0.3-0.1,0.5-0.4,0.6c-0.2,0.1-0.2,0.2-0.2,0.3c0,0.1,0,0.3,0,0.4c0,0.5,0,0.9,0.6,1.1c0.1,0,0.2,0.3,0.2,0.5c0,0.4,0,0.9,0,1.3
		c0,0.3-0.2,0.5-0.5,0.6c-0.2,0.1-0.3,0.2-0.2,0.4c0,0.1,0,0.3,0,0.5c0.2,0,0.5,0.1,0.7,0.1c0.7,0.2,1.1,0.6,1.2,1.4
		c0,0.1,0.1,0.2,0.2,0.2c0.3,0.1,0.4,0.4,0.5,0.7c0,0.8,0,1.6,0,2.5c0,0.3-0.1,0.5-0.4,0.7c-0.1,0-0.2,0.2-0.2,0.3
		c0,0.2,0,0.4-0.1,0.7c-0.1,0.6-0.4,0.9-1,1c-0.3,0-0.5,0.1-0.6,0.3c-0.8,0.9-1.9,1.3-3.1,1.4c-0.9,0.1-0.9,0.1-0.8,1
		c0,0.5,0,1,0,1.6c0,0.4-0.3,0.6-0.7,0.6c-0.5,0-1,0-1.6,0c-0.4,0-0.6-0.2-0.7-0.6c0-0.4,0-0.9,0-1.3c0-0.8,0-1.7,0-2.5
		c0-0.1,0-0.1,0-0.2c-0.1-0.2-0.2-0.4-0.3-0.6c-0.5,0-1.1,0-1.7,0c-0.2,3.7-1.7,6.6-4.7,8.7c-1.9,1.3-4.1,1.9-6.4,1.8
		C122.2,49.3,117.7,45.3,117.1,39.7z M65,5.3c0-0.1,0.1-0.2,0.1-0.3c0.2-0.9,0.6-1.2,1.5-1.3c0.3,0,0.5,0,0.8,0c2,0,4,0,6,0
		c1,0,2,0,3,0c0.7,0,1.3,0,2,0c0.1,0,0.2,0,0.2-0.1c0,0,0-0.1,0-0.1c-0.1,0-0.2,0-0.3,0c-3.7,0-7.3,0-11,0c-0.3,0-0.5,0-0.8,0
		C65.6,3.7,65,4.3,65,5.3C65,5.6,65,5.8,65,6c0,2.5,0,4.9,0,7.4c0,0.2,0,0.3,0,0.5c0-2.6,0-5.2,0-7.9C65,5.9,65,5.6,65,5.3z
		 M58.2,16.3c-18.7,0-37.3,0-55.9,0c0,1-0.1,2-0.1,3c0.1,0,0.2,0,0.3,0c2,0,4,0,5.9,0c0.2,0,0.5,0,0.7,0c0.5,0,0.8,0.4,0.8,0.9
		c0,0.5,0,1,0,1.5c0,0.3-0.1,0.5-0.3,0.7c-0.5,0.4-0.9,0.8-1.4,1.2c-0.3,0.2-0.5,0.5-0.5,1c0,1.1,0,2.1,0,3.2c0,0.7-0.3,1.1-1,1.1
		c-1.3,0-2.6,0-3.9,0c-0.1,0-0.2,0-0.3,0c0,0.6,0.1,1.1,0.2,1.6c0.1,0.5,0.2,0.6,0.7,0.7c0.7,0,1.4,0.1,2,0.1c5.1,0,10.1,0,15.2,0
		c0.2,0,0.3-0.1,0.4-0.2c2.9-4.3,6.9-6.4,12-6c4.3,0.3,7.6,2.4,10,6c0.1,0.2,0.2,0.3,0.5,0.3c4.7,0,9.5,0,14.3,0c0.1,0,0.2,0,0.3,0
		C58.3,26.4,58.2,21.3,58.2,16.3z M79.3,3c0.1,0,0.2,0,0.3,0c3.2,0,6.5,0,9.7,0c1.1,0,2.2,0.1,3.3,0.3c1.5,0.3,2.9,1,4.3,1.8
		c3.5,2,6.9,4.3,10.1,6.8c0.7,0.5,1.5,1.1,2.1,1.8c1.3,1.3,1.4,3.1,1.4,4.9c0,0.4-0.4,0.7-0.8,0.7c-0.2,0-0.5,0-0.8,0c-4,0-8,0-12,0
		c-0.9,0-1.8-0.2-2.7-0.6c-0.9-0.5-1.8-0.9-2.7-1.4c-0.4-0.2-0.8-0.4-1.3-0.4c-0.8-0.1-1.6-0.1-2.4-0.1c-2.7,0-5.4,0-8.2,0
		c-0.1,0-0.2,0-0.2,0c0,4.9,0.1,9.8,0.2,14.7c10.3,0,20.7,0,31.1,0c0-0.1,0-0.2,0-0.3c0.2-4.4,0.4-8.7,0.3-13.1c0-0.7,0-1.5-0.1-2.2
		c-0.1-1.1-0.7-1.9-1.6-2.6c-1.2-0.9-2.4-1.8-3.7-2.7c-2.8-2-5.6-3.9-8.5-5.7c-1.9-1.1-3.9-1.9-6.1-1.9c-2.2-0.1-4.4-0.1-6.6-0.1
		c-1.2,0-2.4,0-3.6-0.1c-0.6,0-1.1,0-1.7,0C79.3,2.8,79.3,2.9,79.3,3z M117.6,14.6c0.1,0,0.1,0.1,0.2,0.1c0.9,0.7,1.9,1.2,2.9,1.6
		c0.1,0,0.1,0,0.2,0c1.1,0,2.2,0,3.4,0.1c3.2,0.2,6.4,0.3,9.6,0.6c2.9,0.3,5.7,0.7,8.5,1.1c0.2,0,0.3,0.1,0.3,0.3
		c0,0.2-0.2,0.2-0.4,0.2c-1.9-0.3-3.8-0.6-5.7-0.8c-2.6-0.3-5.2-0.5-7.9-0.7c-3.4-0.2-6.8-0.3-10.2-0.4c-2.2,0-4.4,0-6.7,0
		c-0.1,0-0.2,0-0.3,0c0.1,4.9-0.1,9.7-0.3,14.5c0,0,0.1,0,0.1,0c1.6,0,3.2,0,4.8,0c0.1,0,0.2-0.1,0.2-0.2c0.3-0.4,0.5-0.8,0.8-1.2
		c3.3-4.1,7.6-5.8,12.7-5c3.9,0.7,6.9,2.8,8.9,6.3c0.1,0.1,0.1,0.2,0.3,0.2c2.3,0,4.6,0,6.9,0c0.7,0,0.7,0,0.7-0.7
		c0-0.7-0.5-1.5-1.4-1.5c-0.9,0-1.8,0-2.7,0c-0.9,0-1.3-0.4-1.5-1.3c0-0.2-0.1-0.4-0.2-0.5c-1.7-2.5-4-4.3-6.7-5.6
		c-3.6-1.6-7.3-1.9-11.1-0.9c-5.2,1.3-9,4.4-11.3,9.4c0,0.1,0,0.2-0.1,0.2c-0.1,0-0.2,0.1-0.3,0.1c-0.1,0-0.1-0.2-0.1-0.3
		c0-0.1,0-0.1,0.1-0.2c1.7-3.9,4.4-6.7,8.2-8.5c3.2-1.5,6.7-2,10.2-1.5c3.7,0.5,6.9,2.1,9.6,4.8c0.6,0.5,1.1,1.2,1.6,1.8
		c0-0.2,0-0.5,0-0.7c0-0.4-0.1-0.8-0.4-1.1c-0.1-0.1-0.3-0.3-0.5-0.4c-0.8-0.7-1.6-1.4-2.4-2c-0.3-0.3-0.5-0.6-0.6-1
		c0-0.3,0-0.7,0-1.1c0-0.4,0.2-0.6,0.6-0.6c0.5,0,1.1,0,1.7,0c1.9,0,3.8,0.1,5.7,0.1c0.3,0,0.7,0,1,0c0-0.5-0.1-0.9-0.4-1.2
		c-0.3-0.3-0.6-0.6-1-0.8c-1.2-0.8-2.5-1.2-3.9-1.4c-1.8-0.3-3.6-0.5-5.4-0.7c-2-0.2-3.9-0.4-5.9-0.6c-2.1-0.2-4.3-0.3-6.4-0.5
		C121.5,14.5,119.6,14.4,117.6,14.6z M78.9,16.7c-0.1,0-0.3,0-0.4,0c-2.8,0-5.6,0-8.4,0c-1.6,0-3.1-0.4-4.4-1.2
		c-0.8-0.5-1.2-1.1-1.2-2.1c0-2.4,0-4.7,0-7c0-0.3,0-0.7,0-1c0.1-1.3,0.7-2,1.9-2.2C66.7,3.1,67,3,67.3,3c3.7,0,7.4,0,11.1,0
		c0.1,0,0.2,0,0.3,0c0-0.1,0-0.2,0-0.4c-0.2,0-0.4,0-0.6,0c-1.8,0-3.7,0-5.5,0c-2.1,0-4.2,0-6.2,0c-0.9,0-1.7,0-2.6,0.3
		c-0.8,0.2-1.3,0.7-1.4,1.5c-0.1,0.5-0.1,1.1-0.2,1.6c-0.1,1.9-0.1,3.7-0.2,5.6c-0.1,2.7-0.2,5.5-0.2,8.2c0,3.4,0,6.7,0.1,10.1
		c0,0.5,0,1,0.1,1.6c5.8,0,11.5,0,17.2,0C79.2,26.5,79.2,21.6,78.9,16.7z M110.4,39.2c0.1-2.4,0.2-4.8,0.4-7.3
		c-10.4,0-20.8,0-31.2,0c0,2.4-0.1,4.8-0.1,7.3C89.8,39.2,100.1,39.2,110.4,39.2z M104.1,11.7c0.1-0.3,0-0.5-0.2-0.6
		c-0.3-0.2-0.7-0.5-1-0.7c-2.3-1.6-4.6-3.1-7.1-4.5c-1.9-1.1-3.9-1.8-6.1-1.7c-2.4,0-4.8,0-7.3,0c0,0-0.1,0-0.2,0
		c0.1,3.8,0.2,7.6,0.3,11.4c0.2,0,0.3,0,0.4,0c2.1,0,4.2,0,6.4,0c0.7,0,1.4,0.1,2.1,0.4c1,0.5,2.1,1,3.1,1.6
		c0.7,0.4,1.5,0.6,2.4,0.6c2,0,3.9,0,5.9,0c0.1,0,0.2,0,0.4,0c-0.1-0.1-0.1-0.1-0.2-0.2c-0.6-0.4-0.9-1-0.9-1.8c0-0.7,0-1.5,0-2.3
		c0-0.5,0-0.9,0.1-1.4c0.1-0.5,0.4-0.7,0.9-0.8C103.5,11.7,103.8,11.7,104.1,11.7z M43.1,39.3c0.3,0.1,0.6,0.2,0.9,0.2
		c0.9,0.1,1.7,0.5,2.6,0.5c6.9,0,13.8,0,20.7,0c2,0,4,0,5.9,0c3.4,0,6.9,0,10.3,0c3.9,0,7.9,0,11.8,0c1.8,0,3.6,0,5.4,0
		c4.3,0,8.7,0,13.1,0c1.2,0,2.2-0.3,3.3-0.9c0.1,0,0.2-0.2,0.2-0.3c0.1-0.7,0.1-1.4,0.2-2.1c1.1-6.6,7.9-10.7,14.1-8.3
		c3.9,1.5,6.2,4.4,7,8.6c0.1,0.4,0.1,0.9,0.1,1.3c0.6,0,1.2,0,1.8,0c0-0.2,0-0.4,0-0.6c-0.1-2.2-0.6-4.3-1.7-6.2
		c-2.6-4.6-8-7.1-13.1-6.1c-5.8,1.1-10.2,6.1-10.3,12.2c0,0.4,0,0.9,0,1.3c0,0.5-0.1,0.6-0.6,0.6c-0.2,0-0.4,0-0.6,0
		c-17.5,0-35.1,0-52.6,0c-0.7,0-1.3-0.1-1.9-0.5c-0.1,0.4-0.4,0.5-0.8,0.5c-4.3,0-8.6,0-12.9,0c-0.5,0-0.7-0.3-0.7-0.7s0-0.9,0-1.4
		c-0.2-3.2-1.4-6-3.7-8.2c-2.9-2.9-6.5-4.1-10.5-3.6c-4.2,0.5-7.3,2.8-9.4,6.5c-1.1,2-1.6,4.2-1.6,6.6c0,0.6-0.2,0.9-0.8,0.8
		c-0.8,0-1.7-0.1-2.5-0.2c-2-0.1-4-0.3-5.9-0.4c-1.3-0.1-2.6-0.2-3.9-0.3c-0.3,0-0.6-0.1-1-0.2c-0.1,0.6,0,0.7,0.5,0.7
		c0,0,0.1,0,0.1,0c0.2,0,0.4,0.1,0.4,0.3c0.1,0.5,0.5,0.8,0.9,0.9c0.3,0,0.6,0.1,0.8,0.1c4.4,0,8.7,0,13.1,0c0.1,0,0.2,0,0.3,0
		c-1.1-6.4,3.7-12.4,10.3-12.6C38.3,27.8,43.4,32.8,43.1,39.3z M117.6,38.7c0.1,5.9,4.7,10.2,10,10.3c5.7,0.1,10.4-4.5,10.4-10.2
		c0-5.8-4.5-10.4-10.1-10.5C122.2,28.3,117.6,32.9,117.6,38.7z M32.4,49c5.6,0,10.1-4.6,10.2-10.2c0.1-5.7-4.4-10.5-10.1-10.5
		c-5.7,0-10.2,4.6-10.2,10.2C22.2,44.5,27,49,32.4,49z M61.9,31.9c0.1,2.5,0.2,4.9,0.3,7.3c5.6,0,11.2,0,16.8,0
		c0-2.4,0.1-4.9,0.1-7.3C73.4,31.9,67.7,31.9,61.9,31.9z M75.7,4.2c0,0-0.1,0-0.2,0c-2.8,0-5.5,0-8.3,0c-0.3,0-0.5,0-0.8,0.1
		C66,4.3,65.7,4.5,65.6,5c-0.1,0.4-0.1,0.7-0.1,1.1c0,2.5,0,4.9,0,7.3c0,0.6,0.2,0.9,0.7,1.2c1.2,0.7,2.6,1,3.9,1c1.8,0,3.7,0,5.5,0
		c0,0,0.1,0,0.1,0C75.8,11.8,75.7,8,75.7,4.2z M61.4,31.4c0-0.1,0-0.2,0-0.3c0-3.1-0.1-6.3-0.1-9.4c0-0.5,0-0.9,0-1.4
		c0-1.7,0.1-3.3,0.1-5c0.1-2.1,0.1-4.1,0.2-6.2c0-1.4,0.1-2.8,0.2-4.2c0.1-1.8,0.9-2.6,2.6-2.8c0.7-0.1,1.3-0.1,2-0.1
		c2,0,4.1,0,6.1,0c2.3,0,4.6,0,6.9,0c3.4,0,6.8,0.1,10.2,0.2c1.8,0,3.7,0.1,5.4,0.8c1.3,0.5,2.5,1.2,3.7,1.9
		c3.7,2.4,7.3,4.9,10.8,7.5c0.5,0.4,1,0.9,1.5,1.4c0,0,0.1,0.1,0.2,0.1c0.5,0,0.9,0,1.5,0c-0.1-0.1-0.2-0.1-0.2-0.2
		c-5.1-3.6-10.1-7.3-15.5-10.5C95.7,2.7,94.4,2.1,93,2C91.7,2,90.3,1.9,89,1.9c-2.5,0-5-0.1-7.5-0.1c-2.7,0-5.5,0-8.2-0.1
		c-0.5,0-1,0-1.5,0c-3,0-5.9,0-8.9,0.1c-1.1,0-2.2,0.3-3.1,0.8c-0.2,0.1-0.3,0.2-0.3,0.4C59.2,4.6,59,6,58.8,7.5
		c-0.2,2.4-0.4,4.7-0.7,7.1c0,0.4,0,0.8,0.4,1c0.2,0.1,0.3,0.3,0.3,0.6c0,2.9,0,5.9,0,8.9c0,1.9,0,3.7,0,5.6c0,0.3,0,0.5,0,0.8
		C59.7,31.4,60.5,31.4,61.4,31.4z M58.3,31.9c-4.8,0-9.7,0-14.6,0c0,0.1,0,0.1,0.1,0.2c1.1,2.1,1.6,4.3,1.5,6.7c0,0.4,0,0.4,0.4,0.4
		c3.7,0,7.5,0,11.2,0c0.5,0,1,0,1.5,0c0.2,0,0.3-0.1,0.3-0.3c0-0.5-0.1-1-0.1-1.5C58.6,35.6,58.4,33.8,58.3,31.9z M5.8,31.9
		c0,0.9,0.1,1.7,0.2,2.6c0.1,1.1,0.1,2.2,0.2,3.2c0,0.3,0.1,0.4,0.4,0.4c0.4,0,0.8,0.1,1.2,0.1c1.9,0.1,3.8,0.3,5.7,0.4
		c1.8,0.1,3.6,0.3,5.3,0.4c0.3,0,0.4-0.1,0.3-0.3c-0.1-2.3,0.4-4.4,1.4-6.5c0-0.1,0.1-0.2,0.2-0.3C15.7,31.9,10.7,31.9,5.8,31.9z
		 M118,14.1C118,14.1,118,14.1,118,14.1c0-0.2-0.1-0.2-0.2-0.3c-5.1-3.5-10.3-6.9-15.7-10.1c-0.6-0.4-1.2-0.6-2-0.5
		c-0.7,0.1-1.5,0.1-2.2,0.1c0,0,0,0,0,0.1c0,0,0.1,0.1,0.2,0.1c1.4,0.9,2.8,1.8,4.2,2.7c3.6,2.5,7.3,5.1,10.9,7.7
		c0.2,0.2,0.4,0.2,0.7,0.2c1.2,0,2.4,0,3.6,0C117.6,14.1,117.8,14.1,118,14.1z M139.3,32.1C139.3,32.1,139.3,32.2,139.3,32.1
		c0,0.2,0.1,0.4,0.2,0.5c0.9,1.9,1.1,4,1.3,6.1c0,0.4,0,0.4,0.3,0.4c1.2,0,2.5,0,3.7-0.1c1.1,0,2.1-0.2,3.2-0.3
		c0.5,0,0.6-0.2,0.7-0.7c0-0.5,0.1-1,0.1-1.5c0-1.1,0-2.2,0-3.3c0-0.6-0.2-0.9-0.8-1c-0.3-0.1-0.6-0.1-0.9-0.1
		C144.5,32.1,142,32.1,139.3,32.1C139.4,32.1,139.3,32.1,139.3,32.1z M82.1,15.6C82,11.8,81.9,8,81.8,4.2c-0.8,0-1.7,0-2.6,0
		c0,3.8,0,7.6,0.1,11.4C80.3,15.6,81.2,15.6,82.1,15.6z M78.8,15.6c0-3.8-0.1-7.6-0.1-11.4c-0.8,0-1.6,0-2.5,0
		c0,3.8,0.1,7.6,0.1,11.4C77.2,15.6,78,15.6,78.8,15.6z M111.2,31.9c-0.1,2.4-0.2,4.9-0.4,7.3c1.3,0,2.5,0,3.7,0
		c-0.1-2.6,0.3-5,1.5-7.3C114.4,31.9,112.8,31.9,111.2,31.9z M100.6,2.6c-0.2-0.1-0.4-0.2-0.6-0.3c-1.8-0.7-3.7-1.1-5.7-1.2
		c-2.7-0.2-5.4-0.4-8.2-0.5c-2.6-0.1-5.3-0.1-7.9-0.1c-3.4,0-6.8,0-10.1,0c-1.9,0-3.8,0-5.7,0.1c-0.7,0-1.4,0.1-2,0.5
		c-0.4,0.2-0.6,0.5-0.7,0.9c0.4-0.1,0.8-0.3,1.3-0.4c1.2-0.3,2.5-0.4,3.8-0.4c2.4,0,4.8,0,7.2,0c2,0,4.1,0,6.1,0
		c1.9,0,3.8,0,5.6,0.1c2.5,0,4.9,0.1,7.4,0.1c0.8,0,1.7,0.1,2.5,0.1c1.3,0.1,2.4,0.6,3.5,1.3C97.1,3,97.2,3,97.3,3
		C98.4,2.9,99.5,2.7,100.6,2.6z M107.7,15.1c0,0.1,0,0.2,0,0.3c0,0.4,0,0.8,0,1.2c0,0.1-0.1,0.2-0.2,0.3c-0.1-0.1-0.2-0.2-0.2-0.3
		c0,0,0-0.1,0-0.2c0-0.8,0-1.6,0-2.4c0-0.3-0.1-0.7-0.3-1c-0.4-0.5-0.9-0.8-1.5-0.8c-0.7,0-1.4,0-2.2,0c-0.2,0-0.4,0.1-0.5,0.4
		c0,0.1-0.1,0.3-0.1,0.5c0,0.9-0.1,1.9-0.1,2.8c0,1.2,0.7,2,1.8,2.2c0.9,0.1,1.8,0.1,2.7,0c1-0.1,1.7-1.1,1.5-2.2
		C108.4,15.4,108.2,15.2,107.7,15.1z M144.7,24c0-1.1,0-2.3,0-3.4c-1.9,0-3.8,0-5.7,0c-0.2,0.6,0,1.1,0.5,1.6c0.6,0.5,1.1,1,1.7,1.5
		c0.6,0.5,1,1.1,1,1.9c0,0.5,0,0.9,0,1.4c0,0.3,0,0.7,0,1.1c0.8,0,1.5,0,2.3,0c0,0,0,0,0,0c0-0.5,0-1.1,0-1.6c0-0.2,0-0.4-0.2-0.4
		c-0.1,0-0.2-0.1-0.2-0.2C143.9,25.2,144.2,24.3,144.7,24z M5.7,38c-0.1-1.5-0.1-2.8-0.2-4.3c-1.6,0-3.3,0-4.9,0c0,0.2,0,0.4,0,0.6
		c0,1.3,0,2.7,0,4c0,0.3,0,0.4,0.4,0.4s0.6,0,0.9,0c0.2,0,0.3,0,0.4-0.2c0.1-0.3,0.3-0.5,0.6-0.5c0.2,0,0.4,0,0.7,0
		C4.2,38,4.9,38,5.7,38z M2.2,20.6c0.1,0,0.2,0,0.3,0c1.3,0,2.7,0,4,0c0.4,0,0.7,0.1,0.8,0.5c0.1,0.4,0.1,0.8-0.1,1.1
		c-0.4,0.5-0.8,1.1-1.1,1.6c-0.1,0.1-0.2,0.4-0.2,0.6c0,0.9,0,1.8,0,2.7c0,0.5-0.2,0.7-0.7,0.8c-0.7,0-1.4,0-2.1,0
		c-0.1,0-0.2,0-0.3,0c0,0.1,0,0.2,0,0.3c0,0.5,0,0.4,0.4,0.4c1.2,0,2.4,0,3.6,0c0.5,0,0.6-0.1,0.6-0.6c0-1.1,0-2.1,0-3.2
		c0-0.6,0.2-1,0.6-1.3c0.4-0.3,0.9-0.7,1.3-1.1c0.2-0.1,0.2-0.3,0.2-0.5c0-0.4,0-0.8,0-1.2c0-0.6-0.1-0.7-0.7-0.7
		c-2.1,0-4.2,0-6.2,0c-0.1,0-0.2,0-0.3,0C2.2,20.1,2.2,20.3,2.2,20.6z M2.2,21.1c0.1,2.1,0.2,4.1,0.3,6.2c0.8,0,1.6,0,2.4,0
		c0.2,0,0.3-0.1,0.3-0.4c0-0.9,0-1.8,0-2.7c0-0.2,0.1-0.5,0.2-0.7c0.3-0.5,0.8-1,1.1-1.6c0.1-0.2,0.1-0.4,0.2-0.6
		c0-0.2-0.1-0.3-0.3-0.3c-1.4,0-2.7,0-4.1,0C2.4,21.1,2.3,21.1,2.2,21.1z M61.7,39.3c0-0.1,0-0.2,0-0.2c-0.1-2.3-0.2-4.6-0.3-6.8
		c0-0.2,0-0.3-0.3-0.3c-0.7,0-1.3,0-2,0c-0.1,0-0.2,0-0.3,0c0,0.1,0,0.2,0,0.3c0.1,1.5,0.2,3,0.3,4.6c0,0.5,0.1,0.9,0.2,1.4
		c0.1,0.5,0.4,0.8,0.9,0.9C60.7,39.2,61.2,39.2,61.7,39.3z M57.8,15.7c-0.1-0.3-0.4-0.2-0.6-0.2c-18.1,0-36.2,0-54.2,0
		c-0.1,0-0.2,0-0.3,0c-0.1,0-0.2,0.1-0.3,0.2c0,0,0,0,0,0.1C20.9,15.7,39.3,15.7,57.8,15.7z M119.4,16.4c-0.1-0.1-0.3-0.1-0.3-0.2
		c-0.6-0.4-1.3-0.9-2-1.4c-0.1-0.1-0.3-0.2-0.5-0.2c-1.7,0-3.4,0-5,0c-0.1,0-0.2,0-0.2,0c0.1,0.6,0.2,1.2,0.3,1.8
		C114.2,16.4,116.8,16.4,119.4,16.4z M141,39.7c0,0.8,0,1.6,0,2.4c0,0.4,0,0.8,0,1.2c0,0.2,0.1,0.3,0.3,0.3c0.4,0,0.9,0,1.3,0
		c0.2,0,0.3-0.1,0.3-0.3c0-0.6,0-1.3,0-1.9c0-0.6,0.2-0.8,0.8-0.9c0.6-0.1,1.3-0.2,1.9-0.4c0.4-0.1,0.8-0.4,1.1-0.7
		C144.9,39.5,143,39.6,141,39.7z M107.5,13c0,0.5,0.1,1,0.2,1.5c0,0.1,0.1,0.2,0.2,0.2c0.6,0.1,0.9,0.5,1,1.1
		c0.3,1.5-0.7,2.8-2.1,2.8c-0.9,0-1.8,0-2.8,0c-2.4,0-4.8,0-7.2,0c-0.7,0-1.3,0-1.9-0.3c-0.9-0.5-1.8-0.9-2.7-1.4
		c-0.9-0.5-1.8-0.8-2.8-0.8c-3.3,0-6.6,0-9.9,0c-0.1,0-0.1,0-0.2,0c0,0,0,0,0,0.1c0.1,0,0.2,0,0.3,0c3.2,0,6.3,0,9.5,0
		c1,0,1.9,0.2,2.7,0.6c0.8,0.4,1.6,0.8,2.4,1.2c0.7,0.4,1.5,0.7,2.4,0.7c0.4,0,0.8,0,1.2,0c3.9,0,7.7,0,11.6,0
		c0.5,0,0.7-0.2,0.7-0.7c-0.1-0.7-0.2-1.3-0.3-2C109.5,14.6,108.6,13.7,107.5,13z M79.1,3.5c0,0,0.1,0.1,0.1,0.1c0.1,0,0.2,0,0.3,0
		c1.4,0,2.8,0,4.2,0c1.9,0,3.9,0,5.8,0c0.9,0,1.9,0.1,2.8,0.3c1.5,0.3,2.8,1,4.2,1.8c2.6,1.5,5,3.2,7.5,4.9c0.4,0.3,0.7,0.5,0.6,1
		l0,0c0.4,0,0.9,0.1,1.3,0.1c0,0-0.1-0.1-0.1-0.1c-3-2.2-6.1-4.3-9.4-6.2c-2.4-1.4-4.9-2.1-7.7-2c-3.1,0-6.1,0-9.2,0
		c-0.1,0-0.2,0-0.3,0C79.3,3.5,79.2,3.5,79.1,3.5z M4.3,38.5c-0.5,0-0.9,0-1.3,0c-0.2,0-0.3,0.1-0.3,0.3c-0.1,0.3-0.3,0.5-0.7,0.5
		c-0.2,0-0.4,0-0.7,0c0,0.4,0,0.7,0,1c0,0.2,0.1,0.3,0.3,0.3c0.3,0,0.6,0,0.8,0c0.5,0,1.1,0,1.6,0c0.1,0,0.3,0,0.3-0.2
		C4.3,39.7,4.3,39.1,4.3,38.5z M146.6,24c0-1.2-0.1-2.5-0.2-3.7c-0.4,0-0.8,0-1.2,0c0,1.2,0,2.5,0,3.7C145.7,24,146.1,24,146.6,24z
		 M146.7,29.4C146.8,29.4,146.8,29.4,146.7,29.4c0-1.1,0-2.2,0-3.3c-0.5,0-1,0-1.4,0c0,0.9,0,1.8,0,2.8
		C145.8,28.9,146.3,29,146.7,29.4z M5.4,33.2c0-0.2,0-0.5-0.1-0.7c-0.6,0-1.3,0-1.9,0c-0.8,0-1.5,0-2.3,0c-0.4,0-0.6,0.3-0.6,0.7
		C2.2,33.2,3.8,33.2,5.4,33.2z M144.8,28.7C144.7,28.7,144.7,28.6,144.8,28.7c-0.2-0.1-0.3-0.1-0.4-0.1c-0.6,0-1.1,0-1.7,0
		c-0.5,0-0.7-0.2-0.7-0.7c0-0.3,0-0.6,0-1c0.1-1.4-0.3-2.5-1.4-3.4c-0.5-0.4-1-0.9-1.6-1.3c-0.3-0.2-0.4-0.5-0.4-0.9
		c0-0.4,0-0.7,0-1.1c-0.6-0.1-0.7-0.1-0.6,0.7c0,0,0,0.1,0,0.2c0,0.4,0.1,0.8,0.5,1c0.8,0.7,1.7,1.4,2.5,2.2
		c0.6,0.5,0.9,1.1,0.8,1.9c0,0.6,0,1.2,0,1.8c0,0.6,0.3,0.8,0.8,0.9c0.6,0,1.3,0,2,0C144.6,28.8,144.7,28.7,144.8,28.7z M146.7,25.6
		c0-0.3,0-0.5,0-0.8c0-0.1-0.1-0.2-0.2-0.2c-0.5,0-1.1,0-1.6,0c-0.1,0-0.2,0.1-0.2,0.2c0,0.2-0.1,0.5,0.1,0.7c0,0,0,0,0.1,0
		C145.4,25.6,146,25.6,146.7,25.6z M78.9,16.2C78.9,16.2,78.9,16.1,78.9,16.2c-0.1-0.1-0.2-0.1-0.3-0.1c-2.7,0-5.3,0-8,0
		c-1.3,0-2.5-0.2-3.7-0.6c0,0-0.1,0-0.1,0c0.1,0,0.2,0.1,0.2,0.1c1,0.4,2.1,0.6,3.1,0.6c2.9,0,5.7,0,8.6,0
		C78.8,16.2,78.8,16.2,78.9,16.2z M147.3,28.6c0,0.6,0,1.1,0,1.7c0.2,0,0.3-0.1,0.3-0.3c0-0.3,0-0.6,0-1
		C147.6,28.7,147.5,28.6,147.3,28.6z M149.3,36.8C149.3,36.8,149.3,36.8,149.3,36.8c0-0.9,0-1.9,0-2.8c0,0,0,0,0,0
		C149.3,34.9,149.3,35.8,149.3,36.8z M147.2,24.4c0,0.5,0,1,0,1.5c0,0,0.1,0,0.1,0C147.3,25.4,147.3,24.9,147.2,24.4z M5.1,32
		C5.1,31.9,5.1,31.9,5.1,32c-0.3-0.1-0.7-0.1-1-0.1c0,0,0,0.1,0,0.1C4.4,32,4.7,32,5.1,32z"/>
	<path d="M32.7,19.8c4.3,0,8.3,1.7,11.6,5c1.5,1.5,2.6,3.3,3.5,5.3c0,0,0,0,0,0c0,0.2,0.2,0.4,0,0.5c-0.3,0.1-0.3-0.1-0.4-0.3
		c-2.4-5.5-6.4-8.8-12.2-9.8c-5.8-0.9-10.8,0.9-14.9,5.1c-1.3,1.4-2.3,2.9-3.1,4.7c0,0.1-0.1,0.2-0.1,0.2c-0.1,0-0.2,0.1-0.2,0
		c-0.1,0-0.1-0.1-0.1-0.2c0-0.1,0-0.2,0.1-0.3c2.5-5.4,6.6-8.7,12.3-9.9C30.1,19.9,31.3,19.9,32.7,19.8z"/>
	<path d="M84.1,19.6c0.8,0,1.6,0,2.4,0c0.8,0,1.1,0.3,1,1.1c0,0.5,0,0.9,0,1.4c0,0.5-0.2,0.8-0.7,0.8c-0.8,0-1.6,0-2.5,0
		c-0.9,0-1.8,0-2.8,0c-0.6,0-0.9-0.3-0.9-0.9c0-0.5,0-1,0-1.5c0-0.7,0.3-1,1-1C82.5,19.6,83.3,19.6,84.1,19.6z M86.6,21
		c-0.1,0-0.2,0-0.3,0c-1.2,0-2.4,0-3.6,0c-0.2,0-0.5,0-0.7,0c-0.3,0-0.3,0.2-0.3,0.4c0,0.3,0.2,0.2,0.3,0.2c1.4,0,2.8,0,4.2,0
		C86.7,21.6,86.7,21.6,86.6,21z M87.1,20.6c0-0.5,0-0.6-0.5-0.6c-1.6,0-3.2,0-4.9,0c-0.4,0-0.5,0.1-0.5,0.5c0.2,0,0.4-0.1,0.6-0.1
		c0.3,0,0.6,0,0.9,0c1.2,0,2.5,0,3.7,0C86.6,20.5,86.8,20.6,87.1,20.6z M81.2,22c0,0.4,0,0.5,0.3,0.5c1.7,0,3.4,0,5.1,0
		c0.4,0,0.5-0.1,0.4-0.5c-0.2,0-0.5,0.1-0.7,0.2c-1.5,0-3,0-4.5,0C81.6,22.1,81.4,22,81.2,22z"/>
	<path d="M107.9,31c-0.5,0-1,0-1.6,0c-0.4,0-0.4-0.1-0.4-0.4c0-0.2,0-0.4,0-0.6c0-0.2,0.1-0.3,0.3-0.3c1.1,0,2.2,0,3.4,0
		c0.2,0,0.3,0.1,0.3,0.3c0,0.2,0,0.5,0,0.7c0,0.2-0.2,0.2-0.3,0.2C109,31,108.5,31,107.9,31C107.9,31,107.9,31,107.9,31z
		 M106.4,30.5c1,0,2,0,3,0c0-0.1,0-0.2,0-0.3c-1,0-2,0-3,0C106.4,30.3,106.4,30.4,106.4,30.5z"/>
	<path d="M127.7,31.2c4.1,0,7.5,3.4,7.5,7.7c-0.1,4.4-3.7,7.5-7.6,7.5c-3.7,0-7.4-3-7.4-7.7C120.3,34.5,123.7,31.2,127.7,31.2z
		 M127.7,31.6c-3.8,0-6.9,3.2-7,7c0,4.3,3.4,7.2,7,7.2c3.9,0,7-3.1,7-7.1C134.7,34.8,131.6,31.6,127.7,31.6z"/>
	<path d="M39.9,38.8c0,4.2-3.3,7.6-7.6,7.6c-4.1,0-7.4-3.4-7.4-7.7c0-4.1,3.4-7.6,7.6-7.5C36.6,31.3,39.9,34.5,39.9,38.8z
		 M39.4,38.8c0-4-3.1-7-6.9-7.1c-3.9-0.1-7.1,3.1-7.1,7.1c0,3.9,3.1,7.1,6.9,7.1C36.3,45.8,39.4,42.7,39.4,38.8z"/>
	<path d="M148,35.5c0,0.5,0,1,0,1.5c0,0.6-0.3,0.9-0.9,0.9c-0.8,0.1-1.3-0.2-1.8-0.9c-0.2-0.4-0.5-0.8-0.4-1.4s0-1.1,0-1.6
		c0-0.6,0.2-0.8,0.8-0.8c0.5,0,0.9,0,1.4,0c0.6,0,0.8,0.2,0.8,0.9C148,34.5,148,35,148,35.5L148,35.5z M147.6,35.5
		C147.6,35.5,147.5,35.5,147.6,35.5c0-0.5,0-1,0-1.5c0-0.4,0-0.4-0.4-0.4c-0.4,0-0.9,0-1.4,0c-0.3,0-0.4,0.1-0.4,0.4
		c0,0.5,0,1.1,0,1.6c0,0.4,0.1,0.7,0.3,1c0.3,0.5,0.7,0.8,1.4,0.8c0.4,0,0.5-0.1,0.5-0.5C147.6,36.5,147.6,36,147.6,35.5z"/>
	<path d="M121.2,38.8c0-3.8,3.1-6.7,6.5-6.7c3.6,0,6.6,3,6.5,6.6c0,3.8-2.9,6.7-6.7,6.6C124,45.3,121.2,42.2,121.2,38.8z M122,36.7
		c1,0.1,1.4,0.6,1.5,1.6c0,0.3,0,0.5,0,0.8c0,1-0.5,1.5-1.5,1.6c0.1,0.2,0.2,0.5,0.3,0.7c0.7-0.6,1.2-0.7,1.9-0.2
		c0.4,0.3,0.8,0.7,1.2,1.2c0.4,0.6,0.3,1.2-0.1,1.7c0,0,0,0-0.1,0.1c0.2,0.1,0.5,0.2,0.7,0.3c0.1-1,0.5-1.4,1.4-1.5
		c0.4,0,0.9,0,1.4,0c0.6,0.1,0.9,0.4,1.1,1c0,0.1,0,0.3,0,0.4c0.2-0.1,0.5-0.2,0.7-0.3c-0.6-0.7-0.6-1.2-0.3-1.8
		c0.3-0.5,0.8-1,1.3-1.3c0.6-0.3,1.1-0.2,1.6,0.2c0,0,0,0,0.1,0.1c0.1-0.2,0.2-0.5,0.3-0.7c-0.9,0-1.4-0.4-1.5-1.3
		c0-0.4,0-0.8,0-1.3c0.1-0.7,0.5-1.2,1.1-1.3c0.1,0,0.2,0,0.4,0c-0.1-0.2-0.2-0.4-0.3-0.7c-0.8,0.6-1.4,0.6-2.1,0
		c-0.2-0.2-0.4-0.3-0.5-0.5c-0.7-0.8-0.8-1.4-0.1-2.3c-0.2-0.1-0.4-0.2-0.7-0.3c-0.1,0.9-0.3,1.3-1.1,1.5c-0.6,0.1-1.2,0.1-1.9,0
		c-0.6-0.1-0.9-0.6-1-1.2c0-0.1,0-0.1,0-0.2c-0.2,0.1-0.5,0.2-0.7,0.3c0.6,0.8,0.6,1.4,0,2.1c-0.2,0.2-0.4,0.4-0.6,0.7
		c-0.8,0.7-1.3,0.7-2.2,0.1C122.2,36.3,122.1,36.5,122,36.7z M132.2,41.4c-0.1,0-0.3,0-0.4,0.1c-0.6,0.3-1,0.7-1.3,1.3
		c-0.2,0.3-0.1,0.7,0.1,1c0.2,0.2,0.3,0.2,0.5,0c0.6-0.4,1.1-1,1.6-1.6c0.2-0.3,0.2-0.4-0.1-0.6C132.5,41.5,132.3,41.5,132.2,41.4z
		 M125.1,43.2c0,0,0-0.1,0-0.2c-0.3-0.7-0.8-1.3-1.5-1.6c-0.3-0.1-0.7,0-0.8,0.3c0,0.1,0,0.2,0,0.3c0.4,0.7,1,1.3,1.8,1.8
		c0,0,0.2,0,0.2,0C124.9,43.7,125.1,43.5,125.1,43.2z M132.1,36.1c0.1,0,0.2,0,0.3-0.1c0.4-0.2,0.5-0.4,0.2-0.8
		c-0.4-0.6-0.9-1.1-1.4-1.5c-0.3-0.3-0.6-0.2-0.7,0.2c-0.1,0.2,0,0.5,0,0.7c0.2,0.5,0.7,0.9,1.2,1.3C131.8,36,132,36,132.1,36.1z
		 M127.8,34c0.3,0,0.6,0,0.8-0.1c0.4-0.1,0.6-0.4,0.6-0.8c0-0.2-0.1-0.3-0.3-0.3c-0.7-0.1-1.5-0.2-2.2,0c-0.4,0.1-0.5,0.3-0.4,0.7
		c0.1,0.3,0.3,0.4,0.6,0.5C127.2,33.9,127.4,34,127.8,34z M127.7,44.9c0.3,0,0.7-0.1,1-0.1c0.4,0,0.6-0.3,0.4-0.7
		c-0.1-0.2-0.2-0.4-0.4-0.5c-0.6-0.2-1.3-0.2-1.9,0c-0.3,0.1-0.5,0.5-0.5,0.8c0,0.2,0.1,0.3,0.3,0.3C127,44.8,127.4,44.8,127.7,44.9
		z M133.8,38.8c0-0.4-0.1-0.8-0.1-1.3c0-0.2-0.1-0.2-0.3-0.2c-0.4,0-0.8,0.2-0.9,0.7c0,0.5,0,1,0,1.5s0.5,0.8,0.9,0.7
		c0.1,0,0.2-0.1,0.2-0.2C133.7,39.6,133.8,39.2,133.8,38.8z M123.1,38.7c0-0.2,0-0.5-0.1-0.8c-0.1-0.4-0.4-0.7-0.8-0.7
		c-0.2,0-0.3,0.1-0.3,0.3c0,0.7-0.1,1.4,0,2.1c0,0.5,0.3,0.6,0.7,0.4c0.3-0.1,0.4-0.3,0.5-0.6C123.1,39.3,123.1,39,123.1,38.7z
		 M125.1,34.2c-0.1-0.2-0.2-0.4-0.4-0.6c0,0-0.2,0-0.3,0c-0.7,0.5-1.3,1.1-1.8,1.8c0,0.1,0,0.2,0,0.3c0.2,0.4,0.7,0.5,1.1,0.2
		s0.7-0.7,1.1-1.1C125,34.6,125,34.4,125.1,34.2z"/>
	<path d="M25.9,39c-0.1-3.8,2.7-6.7,6-6.9c3.7-0.3,6.8,2.5,7,6.2c0.2,3.7-2.5,6.8-6.2,7C29,45.5,26,42.5,25.9,39z M29.8,33.2
		c0.6,0.8,0.6,1.4,0,2.2c-0.2,0.3-0.5,0.5-0.8,0.8c-0.5,0.4-1.3,0.6-1.9,0c0,0,0,0-0.1,0c-0.1,0.2-0.2,0.4-0.2,0.6
		c0.9,0.1,1.4,0.5,1.5,1.3c0,0.4,0,0.8,0,1.2c-0.1,1.1-0.4,1.4-1.5,1.5c0.1,0.2,0.2,0.5,0.3,0.7c0,0,0.1,0,0.1-0.1
		c0.5-0.5,1.1-0.6,1.7-0.2c0.3,0.2,0.6,0.5,0.9,0.8c0.7,0.8,0.7,1.4,0.1,2.3c0.2,0.1,0.4,0.2,0.7,0.3c0-0.8,0.3-1.3,1-1.5
		c0.6-0.2,1.3-0.1,1.9,0c0.6,0.2,0.9,0.6,1,1.3c0,0,0,0.1,0,0.2c0.2-0.1,0.5-0.2,0.7-0.3c-0.5-0.5-0.7-1.1-0.3-1.7
		c0.4-0.7,0.9-1.2,1.6-1.6c0.4-0.2,0.8-0.1,1.2,0.1c0.1,0.1,0.2,0.1,0.3,0.2c0.1-0.2,0.2-0.5,0.3-0.7c-0.9,0-1.3-0.4-1.4-1.1
		c-0.1-0.6-0.1-1.1,0-1.7c0.1-0.7,0.6-1.1,1.3-1.1c0,0,0.1,0,0.1,0c-0.1-0.2-0.2-0.4-0.3-0.7c-0.6,0.6-1.2,0.6-1.8,0.2
		c-0.4-0.3-0.8-0.7-1.1-1.1c-0.4-0.5-0.4-1.1-0.1-1.6c0.1-0.1,0.1-0.2,0.2-0.3c-0.2-0.1-0.4-0.2-0.7-0.3c-0.1,1-0.5,1.4-1.5,1.5
		c-0.3,0-0.7,0-1,0c-0.9-0.1-1.3-0.5-1.4-1.4c0,0,0,0,0-0.1C30.2,33,30,33.1,29.8,33.2z M35,43.2c0.1,0.1,0.1,0.3,0.2,0.5
		c0.2,0.3,0.3,0.3,0.6,0.1c0.6-0.4,1.1-0.9,1.5-1.5c0.2-0.3,0.2-0.5-0.2-0.7c-0.3-0.1-0.6-0.2-0.8,0c-0.4,0.4-0.8,0.8-1.2,1.2
		C35.1,42.8,35.1,43,35,43.2z M29.8,43.2c0,0,0-0.1,0-0.2c-0.3-0.6-0.8-1.2-1.5-1.5c-0.3-0.1-0.7,0-0.9,0.3c0,0.1-0.1,0.2,0,0.3
		c0.4,0.7,1,1.3,1.7,1.8c0.1,0,0.2,0,0.2,0C29.6,43.7,29.8,43.5,29.8,43.2z M29.8,34.2c-0.1-0.2-0.2-0.4-0.4-0.6
		c0-0.1-0.3-0.1-0.3,0c-0.7,0.4-1.3,1-1.7,1.7c-0.1,0.1-0.1,0.2,0,0.4c0.3,0.3,0.7,0.4,1.1,0.1c0.4-0.3,0.7-0.7,1-1.1
		C29.7,34.6,29.7,34.4,29.8,34.2z M36.9,36.1c0.1-0.1,0.3-0.1,0.4-0.2c0.3-0.2,0.3-0.3,0.1-0.6c-0.4-0.7-1-1.2-1.6-1.7
		c-0.2-0.1-0.3-0.1-0.4,0c-0.3,0.2-0.3,0.6-0.2,0.9c0.3,0.6,0.7,1,1.3,1.4C36.6,36,36.7,36,36.9,36.1z M32.4,34c0.2,0,0.6,0,0.9-0.1
		c0.4-0.1,0.6-0.5,0.6-0.9c0-0.2-0.1-0.2-0.3-0.3c-0.8-0.2-1.6-0.2-2.4,0c-0.1,0-0.2,0.1-0.2,0.3c-0.1,0.4,0.2,0.8,0.6,0.9
		C31.9,34,32.1,34,32.4,34z M32.4,44.9c0.4,0,0.7-0.1,1.1-0.1c0.4,0,0.5-0.2,0.4-0.6c-0.1-0.3-0.2-0.5-0.5-0.6
		c-0.6-0.2-1.2-0.2-1.8,0c-0.4,0.1-0.6,0.5-0.5,0.9c0,0.2,0.1,0.3,0.3,0.3C31.6,44.8,32,44.8,32.4,44.9z M37.1,38.6
		c0,0.3,0,0.6,0,0.8c0.1,0.5,0.4,0.8,0.9,0.8c0.2,0,0.3-0.1,0.3-0.3c0.1-0.7,0.1-1.5,0-2.2c-0.1-0.5-0.4-0.6-0.8-0.3
		c-0.1,0.1-0.3,0.3-0.3,0.5C37.1,38.1,37.1,38.4,37.1,38.6z M27.8,38.8c0-0.3,0-0.6-0.1-0.9c-0.1-0.4-0.4-0.6-0.8-0.6
		c-0.2,0-0.3,0.1-0.3,0.3c0,0.7-0.1,1.4-0.1,2.2c0,0.5,0.3,0.7,0.8,0.4c0.2-0.1,0.3-0.3,0.4-0.5C27.7,39.4,27.7,39.1,27.8,38.8z"/>
	<path d="M127.8,42.2c-1.6,0-3.3-1.1-3.4-3.5c-0.1-1.9,1.5-3.4,3.4-3.4c1.9,0,3.4,1.5,3.4,3.4C131.2,40.6,129.6,42.2,127.8,42.2z
		 M127.7,41.7c1.6,0,2.9-1.3,2.9-2.9c0-1.6-1.3-2.9-2.9-2.9c-1.6,0-3,1.3-3,2.9C124.8,40.3,126.2,41.7,127.7,41.7z"/>
	<path d="M32.4,42.2c-1.9,0-3.4-1.5-3.4-3.4c0-1.9,1.5-3.4,3.4-3.4s3.4,1.5,3.4,3.4C35.8,40.6,34.3,42.2,32.4,42.2z M35.3,38.7
		c0-1.6-1.3-2.9-2.9-2.9c-1.6,0-3,1.3-2.9,2.9c0.1,1.9,1.4,3,2.9,3C34,41.7,35.3,40.3,35.3,38.7z"/>
	<path d="M127.7,36.7c1.2,0,2.1,0.9,2.1,2.1s-0.9,2.1-2.1,2.1s-2.1-1-2-2.1C125.7,37.6,126.6,36.7,127.7,36.7z M127.7,37.1
		c-0.9,0-1.5,0.7-1.6,1.6c0,0.9,0.7,1.6,1.5,1.6c0.9,0,1.6-0.7,1.6-1.6C129.3,37.8,128.6,37.1,127.7,37.1z"/>
	<path d="M34.5,38.7c0,1.2-0.9,2.1-2.1,2.1c-1.1,0-2.1-1-2-2.1c0-1.1,0.9-2.1,2-2.1C33.6,36.7,34.5,37.5,34.5,38.7z M30.8,38.8
		c0,0.9,0.8,1.6,1.6,1.6c0.9,0,1.6-0.8,1.5-1.7c0-0.9-0.8-1.5-1.7-1.5C31.5,37.2,30.8,37.9,30.8,38.8z"/>
</g>
</svg>
