<?xml version="1.0" encoding="utf-8"?>
<!-- Generator: Adobe Illustrator 27.4.0, SVG Export Plug-In . SVG Version: 6.00 Build 0)  -->
<svg version="1.1" id="Layer_1" xmlns="http://www.w3.org/2000/svg" xmlns:xlink="http://www.w3.org/1999/xlink" x="0px" y="0px"
	 viewBox="0 0 141 50" style="enable-background:new 0 0 141 50;" xml:space="preserve">
<style type="text/css">
	.st0{fill:#FFFFFF;}
	.st1{fill:#6D6E71;}
	.st2{fill:#939598;}
	.st3{fill:#E6E7E8;}
	.st4{fill:#A7A9AC;}
	.st5{fill:#D1D3D4;}
</style>
<g>
	<g>
		<path class="st0" d="M136,28v-7l-1-2l-2-1l-26-2L90,2c0,0-27.8,0-37,0c-2,0-2.3,2.4-2.4,3C49,12,49,12,49,12v3H6l-1,1v18h11l3,1
			c0,0,1.6,0,3.5,0c-0.3,0.9-0.5,1.9-0.5,3c0,5,4,9,9,9c3.4,0,6.4-1.9,7.9-4.7c1.6-1.3,2.8-3.2,3-5.3H103l3,1c0,0,1,0,2.3,0
			c0.4,1.7,1.5,3.2,2.8,4.3c1.5,2.8,4.5,4.7,7.9,4.7c5,0,9-4,9-9c0-0.7,1,0,1,0l3-2h4V28z"/>
		<path class="st1" d="M90,2l17,14l26,2l2,1l1,2v7v8h-4l-3,2c0,0-0.4-0.3-0.7-0.3c-0.1,0-0.3,0.1-0.3,0.3c0,5-4,9-9,9
			c-3.4,0-6.4-1.9-7.9-4.7c-1.4-1.1-2.4-2.6-2.8-4.3c-1.2,0-2.3,0-2.3,0l-3-1H41.9c-0.3,2.2-1.4,4-3,5.3C37.4,45.1,34.4,47,31,47
			c-5,0-9-4-9-9c0-1.1,0.2-2.1,0.5-3c-1.9,0-3.5,0-3.5,0l-3-1H5V16l1-1h43v-3c0,0,0,0,1.6-7C50.7,4.4,51,2,53,2C62.2,2,90,2,90,2
			 M90,0H53c-1.6,0-3.6,0.8-4.4,4.4l0,0.1l-1.6,7c0,0.1,0,0.3,0,0.4v1H6c-0.5,0-1,0.2-1.4,0.6l-1,1C3.2,15,3,15.5,3,16v18
			c0,1.1,0.9,2,2,2h10.7l2.7,0.9C18.6,37,18.8,37,19,37h1c0,0.3,0,0.7,0,1c0,6.1,4.9,11,11,11c3.9,0,7.5-2,9.4-5.4
			c1.5-1.2,2.5-2.8,3.1-4.6h59.1l2.7,0.9c0.2,0.1,0.4,0.1,0.6,0.1h0.8c0.6,1.4,1.5,2.6,2.7,3.6c2,3.3,5.6,5.4,9.4,5.4
			c5.4,0,10-4,10.9-9.2c0.1,0,0.2-0.1,0.3-0.1l2.5-1.7h3.4c1.1,0,2-0.9,2-2v-8v-7c0-0.3-0.1-0.6-0.2-0.9l-1-2
			c-0.2-0.4-0.5-0.7-0.9-0.9l-2-1c-0.2-0.1-0.5-0.2-0.8-0.2l-25.4-2L91.3,0.5C90.9,0.2,90.5,0,90,0L90,0z"/>
	</g>
	<path class="st2" d="M45,25.5c-0.2,0-0.3-0.1-0.4-0.2c-1.8-2.7-6.4-5.8-13.6-5.8s-11.8,3.1-13.6,5.8c-0.2,0.2-0.5,0.3-0.7,0.1
		c-0.2-0.2-0.3-0.5-0.1-0.7c1.9-2.9,6.8-6.2,14.4-6.2s12.5,3.4,14.4,6.2c0.2,0.2,0.1,0.5-0.1,0.7C45.2,25.5,45.1,25.5,45,25.5z"/>
	<path class="st2" d="M108,24.3c-0.1,0-0.3-0.1-0.4-0.2c-0.2-0.2-0.1-0.5,0.1-0.7c3-2.5,7.1-3.9,11.3-3.9c3.7,0,7.4,1.1,10.3,3.1
		c0.2,0.2,0.3,0.5,0.1,0.7c-0.2,0.2-0.5,0.3-0.7,0.1c-2.7-1.9-6.2-3-9.7-3c-3.9,0-7.9,1.4-10.7,3.7C108.2,24.3,108.1,24.3,108,24.3z
		"/>
	<g>
		<path class="st2" d="M43.9,37c-0.5-6.7-6.1-12-12.9-12c-6.1,0-11.2,4.2-12.6,9.8L19,35c0,0,1.6,0,3.5,0c-0.3,0.9-0.5,1.9-0.5,3
			c0,5,4,9,9,9c3.4,0,6.4-1.9,7.9-4.7c1.6-1.3,2.8-3.2,3-5.3H43.9z"/>
		<path class="st1" d="M31,25c6.8,0,12.4,5.3,12.9,12h-2c-0.3,2.2-1.4,4-3,5.3C37.4,45.1,34.4,47,31,47c-5,0-9-4-9-9
			c0-1.1,0.2-2.1,0.5-3c-1.9,0-3.5,0-3.5,0l-0.6-0.2C19.8,29.2,24.9,25,31,25 M31,24c-6.4,0-12,4.3-13.6,10.6
			c-0.1,0.5,0.2,1,0.7,1.2l0.6,0.2c0.1,0,0.2,0.1,0.3,0.1h2.2c-0.1,0.7-0.2,1.3-0.2,2c0,5.5,4.5,10,10,10c3.6,0,6.9-1.9,8.7-5
			c1.6-1.3,2.7-3,3.1-5h1.2c0.3,0,0.5-0.1,0.7-0.3s0.3-0.5,0.3-0.8C44.4,29.7,38.3,24,31,24L31,24z"/>
	</g>
	<g>
		<path class="st2" d="M111.1,42.3c1.5,2.8,4.5,4.7,7.9,4.7c5,0,9-4,9-9c0-0.7,1,0,1,0l2.8-1.9C130.9,29.8,125.5,25,119,25
			c-7.2,0-13,5.8-13,13c0,0,1,0,2.3,0C108.7,39.7,109.7,41.2,111.1,42.3z"/>
		<path class="st1" d="M119,25c6.5,0,11.9,4.8,12.8,11.1L129,38c0,0-0.4-0.3-0.7-0.3c-0.1,0-0.3,0.1-0.3,0.3c0,5-4,9-9,9
			c-3.4,0-6.4-1.9-7.9-4.7c-1.4-1.1-2.4-2.6-2.8-4.3c-1.2,0-2.3,0-2.3,0C106,30.8,111.8,25,119,25 M119,24c-7.7,0-14,6.3-14,14
			c0,0.6,0.4,1,1,1h1.5c0.6,1.5,1.5,2.9,2.8,4c1.8,3.1,5.1,5,8.7,5c5.2,0,9.4-4,10-9c0,0,0,0,0,0c0.2,0,0.4-0.1,0.6-0.2l2.8-1.9
			c0.3-0.2,0.5-0.6,0.4-1C131.8,29.1,125.9,24,119,24L119,24z"/>
	</g>
	<g>
		<rect x="5" y="18" class="st3" width="3" height="6"/>
		<path class="st1" d="M8,18v6H5v-6H8 M8,17H5c-0.6,0-1,0.4-1,1v6c0,0.6,0.4,1,1,1h3c0.6,0,1-0.4,1-1v-6C9,17.4,8.6,17,8,17L8,17z"
			/>
	</g>
	<g>
		<polygon class="st0" points="9,30 5,30 3,29 2,29 2,34 4,35 9,35 		"/>
		<path class="st1" d="M3,29l2,1h4v5H4l-2-1v-5H3 M3,27H2c-1.1,0-2,0.9-2,2v5c0,0.8,0.4,1.5,1.1,1.8l2,1C3.4,36.9,3.7,37,4,37h5
			c1.1,0,2-0.9,2-2v-5c0-1.1-0.9-2-2-2H5.5l-1.6-0.8C3.6,27.1,3.3,27,3,27L3,27z"/>
	</g>
	<g>
		<polygon class="st0" points="133,33 137,33 139,32 139,37 137,38 133,38 		"/>
		<path class="st1" d="M139,32v5l-2,1h-4v-5h4L139,32 M139,30c-0.3,0-0.6,0.1-0.9,0.2l-1.6,0.8H133c-1.1,0-2,0.9-2,2v5
			c0,1.1,0.9,2,2,2h4c0.3,0,0.6-0.1,0.9-0.2l2-1c0.7-0.3,1.1-1,1.1-1.8v-5c0-0.7-0.4-1.3-0.9-1.7C139.7,30.1,139.4,30,139,30L139,30
			z"/>
	</g>
	<g>
		<polygon class="st3" points="136,22 133,22 132,23 133,27 134,28 136,28 		"/>
		<path class="st1" d="M136,22v6h-2l-1-1l-1-4l1-1H136 M136,21h-3c-0.3,0-0.5,0.1-0.7,0.3l-1,1c-0.2,0.2-0.3,0.6-0.3,0.9l1,4
			c0,0.2,0.1,0.3,0.3,0.5l1,1c0.2,0.2,0.4,0.3,0.7,0.3h2c0.6,0,1-0.4,1-1v-6C137,21.4,136.6,21,136,21L136,21z"/>
	</g>
	<g>
		<polygon class="st2" points="71,15 52,15 52,13 54,3 71,3 		"/>
		<path class="st1" d="M70,4v10H53v-0.9L54.8,4H70 M71,3H54l-2,10v2h19V3L71,3z"/>
	</g>
	<g>
		<polygon class="st2" points="101,15 76,15 76,3 88,3 101,14 		"/>
		<path class="st1" d="M87.6,4l11.8,10H77V4H87.6 M88,3H76v12h25v-1L88,3L88,3z"/>
	</g>
	<g>
		<polygon class="st0" points="97,12 99,12 100,14 100,16 97,16 		"/>
		<path class="st1" d="M99,12l1,2v2h-3v-4H99 M99,11h-2c-0.6,0-1,0.4-1,1v4c0,0.6,0.4,1,1,1h3c0.6,0,1-0.4,1-1v-2
			c0-0.2,0-0.3-0.1-0.4l-1-2C99.7,11.2,99.4,11,99,11L99,11z"/>
	</g>
	<g>
		<rect x="53" y="19" class="st4" width="3" height="1"/>
		<path class="st1" d="M56,19v1h-3v-1H56 M56,18h-3c-0.6,0-1,0.4-1,1v1c0,0.6,0.4,1,1,1h3c0.6,0,1-0.4,1-1v-1C57,18.4,56.6,18,56,18
			L56,18z"/>
	</g>
	<g>
		<rect x="78" y="19" class="st4" width="3" height="1"/>
		<path class="st1" d="M81,19v1h-3v-1H81 M81,18h-3c-0.6,0-1,0.4-1,1v1c0,0.6,0.4,1,1,1h3c0.6,0,1-0.4,1-1v-1C82,18.4,81.6,18,81,18
			L81,18z"/>
	</g>
	<g>
		<polygon class="st1" points="49,34 49,15 48,15 48,34 49,37 50,37 		"/>
		<polygon class="st1" points="104,13 104,25 102,37 103,37 105,25 105,13 		"/>
		<rect x="73" y="2" class="st1" width="1" height="35"/>
	</g>
	<g>
		<g>
			<circle class="st5" cx="31" cy="38" r="10"/>
			<path class="st1" d="M31,28c5.5,0,10,4.5,10,10s-4.5,10-10,10s-10-4.5-10-10S25.5,28,31,28 M31,26c-6.6,0-12,5.4-12,12
				s5.4,12,12,12s12-5.4,12-12S37.6,26,31,26L31,26z"/>
		</g>
		<g>
			<circle class="st0" cx="31" cy="38" r="5"/>
			<path class="st1" d="M31,33c2.8,0,5,2.2,5,5s-2.2,5-5,5s-5-2.2-5-5S28.2,33,31,33 M31,32c-3.3,0-6,2.7-6,6s2.7,6,6,6s6-2.7,6-6
				S34.3,32,31,32L31,32z"/>
		</g>
		<g>
			<circle class="st1" cx="28.5" cy="35.5" r="0.5"/>
			<circle class="st1" cx="33.5" cy="40.5" r="0.5"/>
			<circle class="st1" cx="33.5" cy="35.5" r="0.5"/>
			<circle class="st1" cx="28.5" cy="40.5" r="0.5"/>
			<circle class="st1" cx="31" cy="34.5" r="0.5"/>
			<circle class="st1" cx="31" cy="41.5" r="0.5"/>
			<circle class="st1" cx="34.5" cy="38" r="0.5"/>
			<circle class="st1" cx="27.5" cy="38" r="0.5"/>
		</g>
		<g>
			<path class="st1" d="M31,36c-1.1,0-2,0.9-2,2s0.9,2,2,2c1.1,0,2-0.9,2-2S32.1,36,31,36z M31,39c-0.6,0-1-0.4-1-1c0-0.6,0.4-1,1-1
				s1,0.4,1,1C32,38.6,31.6,39,31,39z"/>
		</g>
	</g>
	<g>
		<g>
			<circle class="st5" cx="119" cy="38" r="10"/>
			<path class="st1" d="M119,28c5.5,0,10,4.5,10,10s-4.5,10-10,10s-10-4.5-10-10S113.5,28,119,28 M119,26c-6.6,0-12,5.4-12,12
				s5.4,12,12,12s12-5.4,12-12S125.6,26,119,26L119,26z"/>
		</g>
		<g>
			<circle class="st0" cx="119" cy="38" r="5"/>
			<path class="st1" d="M119,33c2.8,0,5,2.2,5,5s-2.2,5-5,5s-5-2.2-5-5S116.2,33,119,33 M119,32c-3.3,0-6,2.7-6,6s2.7,6,6,6
				s6-2.7,6-6S122.3,32,119,32L119,32z"/>
		</g>
		<g>
			<circle class="st1" cx="116.5" cy="35.5" r="0.5"/>
			<circle class="st1" cx="121.5" cy="40.5" r="0.5"/>
			<circle class="st1" cx="121.5" cy="35.5" r="0.5"/>
			<circle class="st1" cx="116.5" cy="40.5" r="0.5"/>
			<circle class="st1" cx="119" cy="34.5" r="0.5"/>
			<circle class="st1" cx="119" cy="41.5" r="0.5"/>
			<circle class="st1" cx="122.5" cy="38" r="0.5"/>
			<circle class="st1" cx="115.5" cy="38" r="0.5"/>
		</g>
		<g>
			<path class="st1" d="M119,36c-1.1,0-2,0.9-2,2s0.9,2,2,2c1.1,0,2-0.9,2-2S120.1,36,119,36z M119,39c-0.6,0-1-0.4-1-1
				c0-0.6,0.4-1,1-1s1,0.4,1,1C120,38.6,119.6,39,119,39z"/>
		</g>
	</g>
</g>
</svg>
