<?xml version="1.0" encoding="utf-8"?>
<!-- Generator: Adobe Illustrator 27.4.0, SVG Export Plug-In . SVG Version: 6.00 Build 0)  -->
<svg version="1.1" id="Layer_1" xmlns="http://www.w3.org/2000/svg" xmlns:xlink="http://www.w3.org/1999/xlink" x="0px" y="0px"
	 viewBox="0 0 133 50" style="enable-background:new 0 0 133 50;" xml:space="preserve">
<style type="text/css">
	.st0{fill:#FFFFFF;}
	.st1{fill:#6D6E71;}
	.st2{fill:#939598;}
	.st3{fill:#E6E7E8;}
	.st4{fill:#BCBEC0;}
	.st5{fill:#A7A9AC;}
	.st6{fill:#D1D3D4;}
</style>
<g>
	<g>
		<path class="st0" d="M128,28v-7l-1-2l-2-1l-26-2L82,2c0,0-8.8,0-18,0c-2,0-2.3,2.4-2.4,3C60,12,60,12,60,12v3H6l-1,1v18h14l3,1
			c0,0,1.6,0,3.5,0c-0.3,0.9-0.5,1.9-0.5,3c0,5,4,9,9,9c3.4,0,6.4-1.9,7.9-4.7c1.6-1.3,2.8-3.2,3-5.3H95l3,1c0,0,1,0,2.3,0
			c0.4,1.7,1.5,3.2,2.8,4.3c1.5,2.8,4.5,4.7,7.9,4.7c5,0,9-4,9-9c0-0.7,1,0,1,0l3-2h4V28z"/>
		<path class="st1" d="M82,2l17,14l26,2l2,1l1,2v7v8h-4l-3,2c0,0-0.4-0.3-0.7-0.3c-0.1,0-0.3,0.1-0.3,0.3c0,5-4,9-9,9
			c-3.4,0-6.4-1.9-7.9-4.7c-1.4-1.1-2.4-2.6-2.8-4.3C99,38,98,38,98,38l-3-1H44.9c-0.3,2.2-1.4,4-3,5.3C40.4,45.1,37.4,47,34,47
			c-5,0-9-4-9-9c0-1.1,0.2-2.1,0.5-3c-1.9,0-3.5,0-3.5,0l-3-1H5V16l1-1h54v-3c0,0,0,0,1.6-7C61.7,4.4,62,2,64,2C73.2,2,82,2,82,2
			 M82,0H64c-1.6,0-3.6,0.8-4.4,4.4l0,0.1l-1.6,7c0,0.1,0,0.3,0,0.4v1H6c-0.5,0-1,0.2-1.4,0.6l-1,1C3.2,15,3,15.5,3,16v18
			c0,1.1,0.9,2,2,2h13.7l2.7,0.9C21.6,37,21.8,37,22,37h1c0,0.3,0,0.7,0,1c0,6.1,4.9,11,11,11c3.9,0,7.5-2,9.4-5.4
			c1.5-1.2,2.5-2.8,3.1-4.6h48.1l2.7,0.9C97.6,40,97.8,40,98,40h0.8c0.6,1.4,1.5,2.6,2.7,3.6c2,3.3,5.6,5.4,9.4,5.4
			c5.4,0,10-4,10.9-9.2c0.1,0,0.2-0.1,0.3-0.1l2.5-1.7h3.4c1.1,0,2-0.9,2-2v-8v-7c0-0.3-0.1-0.6-0.2-0.9l-1-2
			c-0.2-0.4-0.5-0.7-0.9-0.9l-2-1c-0.2-0.1-0.5-0.2-0.8-0.2l-25.4-2L83.3,0.5C82.9,0.2,82.5,0,82,0L82,0z"/>
	</g>
	<path class="st2" d="M48,25.5c-0.2,0-0.3-0.1-0.4-0.2c-1.8-2.7-6.4-5.8-13.6-5.8s-11.8,3.1-13.6,5.8c-0.2,0.2-0.5,0.3-0.7,0.1
		c-0.2-0.2-0.3-0.5-0.1-0.7c1.9-2.9,6.8-6.2,14.4-6.2s12.5,3.4,14.4,6.2c0.2,0.2,0.1,0.5-0.1,0.7C48.2,25.5,48.1,25.5,48,25.5z"/>
	<path class="st2" d="M100,24.3c-0.1,0-0.3-0.1-0.4-0.2c-0.2-0.2-0.2-0.5,0.1-0.7c3-2.5,7.1-3.9,11.3-3.9c3.7,0,7.4,1.1,10.3,3.1
		c0.2,0.2,0.3,0.5,0.1,0.7c-0.2,0.2-0.5,0.3-0.7,0.1c-2.7-1.9-6.2-3-9.7-3c-3.9,0-7.9,1.4-10.7,3.7C100.2,24.3,100.1,24.3,100,24.3z
		"/>
	<g>
		<path class="st2" d="M46.9,37c-0.5-6.7-6.1-12-12.9-12c-6.1,0-11.2,4.2-12.6,9.8L22,35c0,0,1.6,0,3.5,0c-0.3,0.9-0.5,1.9-0.5,3
			c0,5,4,9,9,9c3.4,0,6.4-1.9,7.9-4.7c1.6-1.3,2.8-3.2,3-5.3H46.9z"/>
		<path class="st1" d="M34,25c6.8,0,12.4,5.3,12.9,12h-2c-0.3,2.2-1.4,4-3,5.3C40.4,45.1,37.4,47,34,47c-5,0-9-4-9-9
			c0-1.1,0.2-2.1,0.5-3c-1.9,0-3.5,0-3.5,0l-0.6-0.2C22.8,29.2,27.9,25,34,25 M34,24c-6.4,0-12,4.3-13.6,10.6
			c-0.1,0.5,0.2,1,0.7,1.2l0.6,0.2c0.1,0,0.2,0.1,0.3,0.1h2.2c-0.1,0.7-0.2,1.3-0.2,2c0,5.5,4.5,10,10,10c3.6,0,6.9-1.9,8.7-5
			c1.6-1.3,2.7-3,3.1-5h1.2c0.3,0,0.5-0.1,0.7-0.3c0.2-0.2,0.3-0.5,0.3-0.8C47.4,29.7,41.3,24,34,24L34,24z"/>
	</g>
	<g>
		<path class="st2" d="M103.1,42.3c1.5,2.8,4.5,4.7,7.9,4.7c5,0,9-4,9-9c0-0.7,1,0,1,0l2.8-1.9C122.9,29.8,117.5,25,111,25
			c-7.2,0-13,5.8-13,13c0,0,1,0,2.3,0C100.7,39.7,101.7,41.2,103.1,42.3z"/>
		<path class="st1" d="M111,25c6.5,0,11.9,4.8,12.8,11.1L121,38c0,0-0.4-0.3-0.7-0.3c-0.1,0-0.3,0.1-0.3,0.3c0,5-4,9-9,9
			c-3.4,0-6.4-1.9-7.9-4.7c-1.4-1.1-2.4-2.6-2.8-4.3C99,38,98,38,98,38C98,30.8,103.8,25,111,25 M111,24c-7.7,0-14,6.3-14,14
			c0,0.6,0.4,1,1,1h1.5c0.6,1.5,1.5,2.9,2.8,4c1.8,3.1,5.1,5,8.7,5c5.2,0,9.4-4,10-9c0,0,0,0,0,0c0.2,0,0.4-0.1,0.6-0.2l2.8-1.9
			c0.3-0.2,0.5-0.6,0.4-1C123.8,29.1,117.9,24,111,24L111,24z"/>
	</g>
	<g>
		<rect x="5" y="18" class="st3" width="3" height="6"/>
		<path class="st1" d="M8,18v6H5v-6H8 M8,17H5c-0.6,0-1,0.4-1,1v6c0,0.6,0.4,1,1,1h3c0.6,0,1-0.4,1-1v-6C9,17.4,8.6,17,8,17L8,17z"
			/>
	</g>
	<g>
		<polygon class="st0" points="9,30 5,30 3,29 2,29 2,34 4,35 9,35 		"/>
		<path class="st1" d="M3,29l2,1h4v5H4l-2-1v-5H3 M3,27H2c-1.1,0-2,0.9-2,2v5c0,0.8,0.4,1.5,1.1,1.8l2,1C3.4,36.9,3.7,37,4,37h5
			c1.1,0,2-0.9,2-2v-5c0-1.1-0.9-2-2-2H5.5l-1.6-0.8C3.6,27.1,3.3,27,3,27L3,27z"/>
	</g>
	<g>
		<polygon class="st0" points="125,33 129,33 131,32 131,37 129,38 125,38 		"/>
		<path class="st1" d="M131,32v5l-2,1h-4v-5h4L131,32 M131,30c-0.3,0-0.6,0.1-0.9,0.2l-1.6,0.8H125c-1.1,0-2,0.9-2,2v5
			c0,1.1,0.9,2,2,2h4c0.3,0,0.6-0.1,0.9-0.2l2-1c0.7-0.3,1.1-1,1.1-1.8v-5c0-0.7-0.4-1.3-0.9-1.7C131.7,30.1,131.4,30,131,30L131,30
			z"/>
	</g>
	<g>
		<polygon class="st3" points="128,22 125,22 124,23 125,27 126,28 128,28 		"/>
		<path class="st1" d="M128,22v6h-2l-1-1l-1-4l1-1H128 M128,21h-3c-0.3,0-0.5,0.1-0.7,0.3l-1,1c-0.2,0.2-0.3,0.6-0.3,0.9l1,4
			c0,0.2,0.1,0.3,0.3,0.5l1,1c0.2,0.2,0.4,0.3,0.7,0.3h2c0.6,0,1-0.4,1-1v-6C129,21.4,128.6,21,128,21L128,21z"/>
	</g>
	<g>
		<polygon class="st4" points="93,15 68,15 68,3 80,3 93,14 		"/>
		<path class="st1" d="M79.6,4l11.8,10H69V4H79.6 M80,3H68v12h25v-1L80,3L80,3z"/>
	</g>
	<g>
		<polygon class="st0" points="89,12 91,12 92,14 92,16 89,16 		"/>
		<path class="st1" d="M91,12l1,2v2h-3v-4H91 M91,11h-2c-0.6,0-1,0.4-1,1v4c0,0.6,0.4,1,1,1h3c0.6,0,1-0.4,1-1v-2
			c0-0.2,0-0.3-0.1-0.4l-1-2C91.7,11.2,91.4,11,91,11L91,11z"/>
	</g>
	<g>
		<rect x="70" y="19" class="st5" width="3" height="1"/>
		<path class="st1" d="M73,19v1h-3v-1H73 M73,18h-3c-0.6,0-1,0.4-1,1v1c0,0.6,0.4,1,1,1h3c0.6,0,1-0.4,1-1v-1C74,18.4,73.6,18,73,18
			L73,18z"/>
	</g>
	<rect x="96" y="13" class="st1" width="1" height="12"/>
	<polygon class="st1" points="95,37 94,37 96,25 97,25 	"/>
	<rect x="65" y="2" class="st1" width="1" height="35"/>
	<g>
		<g>
			<circle class="st6" cx="34" cy="38" r="10"/>
			<path class="st1" d="M34,28c5.5,0,10,4.5,10,10s-4.5,10-10,10s-10-4.5-10-10S28.5,28,34,28 M34,26c-6.6,0-12,5.4-12,12
				s5.4,12,12,12s12-5.4,12-12S40.6,26,34,26L34,26z"/>
		</g>
		<g>
			<circle class="st0" cx="34" cy="38" r="5"/>
			<path class="st1" d="M34,33c2.8,0,5,2.2,5,5s-2.2,5-5,5s-5-2.2-5-5S31.2,33,34,33 M34,32c-3.3,0-6,2.7-6,6s2.7,6,6,6s6-2.7,6-6
				S37.3,32,34,32L34,32z"/>
		</g>
		<g>
			<circle class="st1" cx="31.5" cy="35.5" r="0.5"/>
			<circle class="st1" cx="36.5" cy="40.5" r="0.5"/>
			<circle class="st1" cx="36.5" cy="35.5" r="0.5"/>
			<circle class="st1" cx="31.5" cy="40.5" r="0.5"/>
			<circle class="st1" cx="34" cy="34.5" r="0.5"/>
			<circle class="st1" cx="34" cy="41.5" r="0.5"/>
			<circle class="st1" cx="37.5" cy="38" r="0.5"/>
			<circle class="st1" cx="30.5" cy="38" r="0.5"/>
		</g>
		<g>
			<path class="st1" d="M34,36c-1.1,0-2,0.9-2,2s0.9,2,2,2c1.1,0,2-0.9,2-2S35.1,36,34,36z M34,39c-0.6,0-1-0.4-1-1c0-0.6,0.4-1,1-1
				s1,0.4,1,1C35,38.6,34.6,39,34,39z"/>
		</g>
	</g>
	<g>
		<g>
			<circle class="st6" cx="111" cy="38" r="10"/>
			<path class="st1" d="M111,28c5.5,0,10,4.5,10,10s-4.5,10-10,10s-10-4.5-10-10S105.5,28,111,28 M111,26c-6.6,0-12,5.4-12,12
				s5.4,12,12,12s12-5.4,12-12S117.6,26,111,26L111,26z"/>
		</g>
		<g>
			<circle class="st0" cx="111" cy="38" r="5"/>
			<path class="st1" d="M111,33c2.8,0,5,2.2,5,5s-2.2,5-5,5s-5-2.2-5-5S108.2,33,111,33 M111,32c-3.3,0-6,2.7-6,6s2.7,6,6,6
				s6-2.7,6-6S114.3,32,111,32L111,32z"/>
		</g>
		<g>
			<circle class="st1" cx="108.5" cy="35.5" r="0.5"/>
			<circle class="st1" cx="113.5" cy="40.5" r="0.5"/>
			<circle class="st1" cx="113.5" cy="35.5" r="0.5"/>
			<circle class="st1" cx="108.5" cy="40.5" r="0.5"/>
			<circle class="st1" cx="111" cy="34.5" r="0.5"/>
			<circle class="st1" cx="111" cy="41.5" r="0.5"/>
			<circle class="st1" cx="114.5" cy="38" r="0.5"/>
			<circle class="st1" cx="107.5" cy="38" r="0.5"/>
		</g>
		<g>
			<path class="st1" d="M111,36c-1.1,0-2,0.9-2,2s0.9,2,2,2c1.1,0,2-0.9,2-2S112.1,36,111,36z M111,39c-0.6,0-1-0.4-1-1
				c0-0.6,0.4-1,1-1s1,0.4,1,1C112,38.6,111.6,39,111,39z"/>
		</g>
	</g>
</g>
</svg>
