<?xml version="1.0" encoding="utf-8"?>
<!-- Generator: Adobe Illustrator 27.4.0, SVG Export Plug-In . SVG Version: 6.00 Build 0)  -->
<svg version="1.1" id="Layer_1" xmlns="http://www.w3.org/2000/svg" xmlns:xlink="http://www.w3.org/1999/xlink" x="0px" y="0px"
	 viewBox="0 0 615.1 201.2" style="enable-background:new 0 0 615.1 201.2;" xml:space="preserve">
<g>
	<path d="M579.9,128.1c1,0.2,2.1,0.3,3.1,0.6c3.1,0.7,4.6,2.6,4.9,5.7c0,0.4,0.3,0.9,0.7,1c1.3,0.6,1.9,1.6,1.9,2.9
		c0,3.3,0,6.6-0.1,9.9c0,1.3-0.6,2.2-1.8,2.7c-0.4,0.2-0.7,0.7-0.8,1.1c-0.2,0.9-0.2,1.8-0.4,2.7c-0.5,2.5-1.6,3.6-4.1,4
		c-1.1,0.2-1.9,0.6-2.6,1.4c-3.3,3.8-7.8,5.1-12.6,5.6c-3.6,0.4-3.6,0.4-3.5,4c0,2.2,0,4.3-0.2,6.5c-0.2,1.7-1.1,2.5-2.9,2.5
		c-2.2,0-4.3,0-6.5,0c-1.7,0-2.5-0.7-2.7-2.4c-0.2-1.8-0.2-3.6-0.2-5.4c0-3.4,0-6.7,0-10.1c0-0.3,0-0.6-0.1-0.8
		c-0.4-0.8-0.8-1.5-1.3-2.4c-2.2,0-4.6,0-7.1,0c-0.8,14.7-6.9,26.5-19,34.9c-7.9,5.5-16.8,8-26.5,7.7c-21.5-0.8-39.5-17.2-41.9-39.3
		c-0.6,0.3-1.2,0.5-1.7,0.8c-3.9,1.9-8,2.8-12.3,2.8c-18,0-35.9,0-53.9,0c-10.2,0-20.4-0.1-30.6-0.2c-13.1-0.1-26.1-0.1-39.2-0.2
		c-9,0-18.1-0.1-27.1-0.1c-9.5,0-18.9-0.1-28.4-0.1c-14.3,0-28.5-0.2-42.8-0.1c-5.9,0.1-11.6-0.5-17.2-2.2c-0.5-0.2-1.1-0.3-1.6-0.4
		c-0.1,0-0.2,0-0.5,0c-0.2,1.4-0.4,2.8-0.7,4.2c-3.5,17.9-18.8,32.3-37.1,34.5c-14.2,1.7-26.5-2.5-36.7-12.3
		c-5.8-5.6-9.5-12.4-11.4-20.2c-0.3-1.3-0.8-1.6-2.1-1.6c-17.8,0-35.7,0-53.5,0c-1.1,0-2.2-0.1-3.2-0.2c-3-0.5-5.3-1.9-6.3-4.9
		c-0.2,0-0.4,0-0.5,0c-3.1,0-3.9-0.6-4.3-3.7c0-0.3-0.4-0.7-0.5-1c-0.1,0.4-0.4,0.7-0.4,1.1c-0.1,2.2,0,4.5-0.1,6.7
		c-0.1,1.5-0.8,2.3-2.3,2.4c-2,0.1-4.1,0-6.1,0c-1.8,0-3.5,0.1-5.3,0c-2.1-0.1-2.8-1-2.9-3c0-1.4,0-2.7,0-4c-2.5-1-2.9-1.6-2.9-4.2
		c0-6.7,0.1-13.4,0.1-20.1c0-3.1,1.6-4.8,4.6-5c2.8-0.1,5.5-0.1,8.3-0.1c0.4,0,0.9,0,1.4-0.3c-0.2-0.2-0.4-0.5-0.6-0.5
		c-3.5-0.4-4.1-2.3-4.4-5.3c-0.5-5.2-0.9-10.5-1.2-15.8c-0.4-7.2-0.9-14.3-1.1-21.5c-0.1-7.3,0.2-14.7,0.4-22
		c0.1-1.9,1.4-3.1,3.4-3.2c0.4,0,0.9,0,1.3,0c73.7,0,147.3,0,221,0c0.4,0,0.8,0,1.2,0c0.9,0.1,1.2-0.2,1.3-1.2
		c1.2-12.6,2.5-25.3,3.8-37.9c0.4-3.6,1-7.1,1.8-10.6c1.3-6.1,3.7-8.5,9.9-9.3c4.5-0.6,9-1,13.5-1.1c6.3-0.2,12.6-0.2,18.8,0
		c15,0.4,30,0.7,45,1.4c9.5,0.4,19,1.3,28.2,4c3.3,0.9,6.4,2.4,9.6,3.7c0.9,0.4,1.5,1.4,2.2,2c0.4,0.4,0.9,0.7,1.4,1
		c18.7,10.9,37,22.3,54.9,34.4c4.5,3,9,6.1,13.5,9.1c0.4,0.3,1,0.5,1.5,0.5c6.1-0.5,12.2,0.2,18.3,0.6c8.9,0.6,17.8,1.3,26.6,2.1
		c13,1.3,26.1,2.5,39.1,4.1c6.3,0.8,12.7,1.8,18.6,4.5c2.4,1.1,4.7,2.4,6.8,3.9c2.5,1.7,4.1,4.1,4.3,7.3c0.1,0.8,0.2,1.4,1,1.9
		c0.4,0.3,0.7,1,0.8,1.6c0.3,1.6,0.4,3.2,0.7,4.9c0.2,1.1-0.3,2-1.1,2.7c-0.3,0.3-0.6,0.9-0.6,1.4c-0.1,0.7,0.1,1.4,0.1,2
		c0,1.4,0,2.6,1.6,3.3c0.6,0.3,1.1,1.4,1.2,2.3c0.2,1.6,0.1,3.3,0.1,4.9c0,1.2-0.6,2-1.6,2.6c-0.3,0.2-0.6,0.7-0.6,1
		c0,1.6,0.1,3.1,0.2,4.7c0,0.3,0.3,0.6,0.5,0.8c0.5,0.3,1,0.5,1.5,0.8c0.9,0.5,1.4,1.2,1.4,2.2c0,1.8,0,3.5,0,5.3
		c0,1.3-0.7,2.2-1.9,2.5c-1,0.3-1.4,0.9-1.2,1.9C580.1,127,579.9,127.5,579.9,128.1z M33.4,78.7c0.5,0,0.7,0.1,0.9,0.1
		c8.2,0,16.5,0,24.7,0c0.9,0,1.8-0.1,2.6,0c2.4,0.2,3.5,1.5,3.5,3.8c0,2,0,4,0,6c0,1.2-0.4,2.3-1.3,3.1c-1.9,1.6-3.7,3.2-5.6,4.7
		c-1.3,1-2,2.2-1.9,4c0.1,4.3,0.1,8.6,0.1,12.9c0,3-1.3,4.4-4.1,4.4c-5.2,0-10.5,0-15.7,0c-0.4,0-0.8,0-1.3,0
		c0.3,2.3,0.4,4.6,0.8,6.8c0.3,2,0.9,2.4,2.9,2.6c2.8,0.2,5.6,0.5,8.5,0.5c20.7,0,41.4,0,62.1,0c0.9,0,1.4-0.3,1.9-1.1
		c11.8-17.3,28.2-25.7,49.1-24.3c17.6,1.2,31.3,9.6,41.1,24.3c0.5,0.8,1,1,1.9,1c19.5,0,38.9,0,58.4,0c0.4,0,0.9,0,1.3,0
		c-0.1-20.4-0.3-40.7-0.4-61.1c-76.4,0-152.6,0-229,0C33.7,70.5,33.6,74.5,33.4,78.7z M430.4,127.4c0-0.4,0.1-0.7,0.1-1.1
		c0.3-6.9,0.8-13.9,0.9-20.8c0.3-10.7,0.4-21.3,0.5-32c0-3-0.2-6.1-0.4-9.1c-0.3-3.4-1.6-6.3-4.3-8.6c-1.6-1.3-3.2-2.6-4.9-3.9
		c-14.4-10.7-29.1-20.9-44.4-30.3c-6-3.7-12.3-6.9-19.3-8.3c-5.3-1.1-10.7-1.2-16.1-1.4c-11.2-0.3-22.4-0.6-33.6-0.9
		c-4.4-0.1-8.7-0.1-13.1,0c-3.4,0-6.7,0.3-10,1.2c-3.2,0.9-5.2,2.9-5.8,6.2c-0.4,2.1-0.6,4.3-0.7,6.4c-0.3,7.5-0.5,15.1-0.8,22.6
		c-0.4,11-1,21.9-1.1,32.9c-0.1,13.6,0.2,27.2,0.3,40.7c0,2.1,0.2,4.1,0.3,6.2C328.9,127.4,379.6,127.4,430.4,127.4z M432.4,127.3
		c0.2,0.1,0.4,0.1,0.5,0.1c6.5,0,13,0,19.4,0c0.4,0,0.9-0.5,1.2-0.9c12.4-18.6,29.6-27.4,51.9-25.1c17.5,1.8,30.8,10.8,39.9,25.8
		c0.4,0.7,0.8,0.9,1.6,0.9c9,0,18,0,27,0c1.1,0,2.2-0.1,3.2-0.2c0.3,0,0.8-0.5,0.9-0.8c0.8-4.4-1.4-8-5.9-8.1
		c-3.6-0.1-7.2-0.1-10.8-0.2c-3.6-0.1-5.4-1.7-5.9-5.3c-0.1-0.7-0.3-1.5-0.7-2.1c-6.5-9.5-15.1-16.6-25.4-21.5
		c-15.8-7.6-32.4-8.7-49.2-4.3c-20.7,5.4-35.7,18-44.4,37.7c-0.1,0.3-0.2,0.6-0.4,0.7c-0.3,0.2-0.8,0.4-1.1,0.3
		c-0.3-0.1-0.5-0.6-0.6-1c0-0.3,0.2-0.7,0.3-1c5.9-13.6,15.3-24.1,28.1-31.5c13.9-8,28.9-10.7,44.8-9.1c19.7,2,35.6,10.9,47.8,26.3
		c0.1,0.1,0.2,0.2,0.5,0.4c0-1.1,0-2,0-2.9c0.1-1.8-0.5-3.3-1.8-4.5c-0.6-0.6-1.2-1.2-1.8-1.7c-3.3-2.8-6.5-5.5-9.8-8.2
		c-1.5-1.2-2.2-2.7-2.3-4.5c0-1.2-0.1-2.3,0-3.5c0-1.9,0.8-2.6,2.7-2.8c0.5,0,1-0.1,1.6-0.1c9.4,0.2,18.9,0.3,28.3,0.5
		c1.4,0,2.8,0,4.2,0c0-2.4-0.9-4.4-2.7-5.9c-3.4-2.9-7.4-4.8-11.6-6c-7.7-2.2-15.6-3.2-23.5-4.1c-12.4-1.3-24.9-2.4-37.3-3.5
		c-9.7-0.8-19.4-1.6-29-2.1c-4.4-0.2-8.9,0.2-13.3,0.3c-0.1,0.2-0.1,0.3-0.2,0.5c0.2,0.1,0.4,0.2,0.6,0.4c3.6,2.8,7.6,4.9,11.8,6.6
		c0.3,0.1,0.6,0.2,0.9,0.2c4.6,0.2,9.2,0.2,13.8,0.5c13.1,0.8,26.2,1.3,39.2,2.5c11.7,1.1,23.3,2.8,35,4.3c0.7,0.1,1.4,0.3,1.3,1.2
		c-0.1,0.9-0.8,0.9-1.6,0.8c-7.8-1.1-15.5-2.3-23.3-3.1c-10.7-1.1-21.4-2.1-32.1-2.7c-13.9-0.8-27.8-1.2-41.7-1.6
		c-9.2-0.2-18.4-0.1-27.6-0.1c-0.3,0-0.7,0-1.1,0.1C434.1,88.4,433.4,107.8,432.4,127.3z M430.3,129.5c-50.8,0-101.4,0-152.2,0
		c0.4,9.8,0.8,19.5,1.3,29.2c49.8,0,99.5,0,149.3,0C429.2,148.9,429.7,139.3,430.3,129.5z M550.8,155.6c0-0.2,0.1-0.3,0.1-0.4
		c0-0.6-0.1-1.3-0.1-1.9c-0.4-9-2.7-17.4-7.3-25.1c-11-18.5-32.2-28.2-53.5-24.4c-23.6,4.2-41.7,24.5-42.3,49.1c0,1.9,0,3.8-0.1,5.6
		c0,1.5-0.7,2.2-2.2,2.2c-0.8,0-1.6,0-2.4,0c-19.8,0-39.7,0-59.5,0c-35.8,0-71.6,0-107.3,0c-10.6,0-21.2-0.2-31.8-0.2
		c-10.9,0-21.8,0-32.6,0c-0.4,0-0.8,0-1.2,0c-1.4-0.1-2.4-1.2-2.5-2.6c0-0.5,0-1,0-1.6c-0.3-3.9-0.3-7.9-1.1-11.7
		c-5.7-27-30.6-44-57.2-40.5c-17,2.3-29.8,11.2-38.3,26c-4.7,8.2-6.8,17.1-6.5,26.6c0.1,2.5-1,3.6-3.2,3.5
		c-4.2-0.3-8.4-0.6-12.6-0.9c-10.5-0.8-21-1.5-31.4-2.4c-2.9-0.2-5.8-0.8-8.6-1.2c-0.6-0.1-1.3,0-2,0c-0.2,2.4,0.1,2.7,2.3,2.7
		c0.1,0,0.2,0,0.4,0c1.1-0.1,1.7,0.4,2,1.4c0.6,1.9,2,3,3.8,3.4c1.1,0.2,2.3,0.4,3.4,0.4c18,0,35.9,0,53.9,0c0.4,0,0.8,0,1.3-0.1
		c-4-26,15.2-49.7,41.9-50.5c24.3-0.8,46.1,19.1,44.9,45.9c1.1,0.3,2.3,0.6,3.4,0.9c3.5,0.6,6.8,1.9,10.4,1.9
		c31.9,0,63.9,0.2,95.8,0.3c4.8,0,9.5,0.1,14.3,0.1c13.9,0.1,27.7,0.1,41.6,0.2c7.2,0,14.5,0.1,21.7,0.1c18,0,36,0,54,0
		c4.7,0,9.1-1.3,13.2-3.5c0.6-0.3,0.7-0.7,0.7-1.3c0.1-2.5,0.1-5.1,0.5-7.6c4-25.2,28.4-41.6,53.3-35.8c17.2,4,30.5,18.4,33,35.9
		c0.3,1.8,0.4,3.6,0.6,5.5C546.1,155.6,548.5,155.6,550.8,155.6z M499.9,198.3c23,0,41.7-18.6,41.7-41.4c0-23-18.6-41.8-41.5-41.8
		c-23.2,0-42.1,18.6-41.9,41.7C458.4,181.1,478.1,198.4,499.9,198.3z M157.3,198.3c22.9,0,41.6-18.5,41.8-40.8
		c0.3-23.1-18.3-42.3-41.5-42.3c-23.5-0.1-41.6,18.7-41.9,41C115.4,180.1,134.9,198.3,157.3,198.3z M276,127.4c0-0.5,0-0.8,0-1.2
		c-0.2-9.5-0.6-19-0.6-28.5c0-9.8,0.3-19.6,0.5-29.5c0.3-12,0.7-23.9,1.1-35.9c0.2-4.3,0.4-8.7,0.9-13c0.6-5.2,3.1-8,8.2-9.1
		c2.2-0.5,4.5-0.9,6.7-0.9c5.9,0,11.9,0.1,17.8,0.2c11.7,0.2,23.5,0.4,35.2,0.7c6.3,0.1,12.6,0.7,18.6,2.8c5.8,2.1,11.2,5,16.4,8.3
		c15.2,9.5,29.9,19.7,44.2,30.4c2.1,1.6,3.9,3.6,5.8,5.5c0.2,0.2,0.4,0.4,0.6,0.4c1.9,0,3.9,0,6.1,0c-0.5-0.4-0.8-0.6-1-0.8
		c-20.9-14.5-41.4-29.6-63.4-42.5c-4.4-2.6-8.9-4.7-14-5.2c-4.8-0.4-9.6-0.6-14.3-0.8c-12-0.4-24.1-0.8-36.1-0.9
		c-9.1-0.1-18.1,0.2-27.2,0.5c-4.5,0.2-8.9,1.1-12.9,3.3c-0.8,0.5-1.3,1-1.4,2c-0.8,5.8-1.7,11.6-2.4,17.4c-1,9.5-1.8,19.1-2.8,28.6
		c-0.2,1.9,0.3,3.1,1.6,4.2c0.6,0.5,1,1.5,1,2.2c0.1,11.9,0.1,23.7,0.2,35.6c0,6.4,0.1,12.8,0.2,19.2c0,2.2,0,4.4,0,6.7
		C269,127.4,272.4,127.4,276,127.4z M203.8,129.5c1.4,3.5,2.8,6.8,4,10.3c1.8,5.5,2.4,11.2,2.2,17c0,1.6,0.1,1.8,1.3,1.8
		c17.5,0,35,0,52.5,0c1,0,1.5-0.4,1.3-1.4c0-0.3,0-0.6-0.1-0.8c-0.5-6.7-0.9-13.4-1.4-20.1c-0.1-2.3-0.2-4.5-0.3-6.8
		C243.5,129.5,223.6,129.5,203.8,129.5z M48.3,129.5c0.3,3.6,0.5,7.2,0.8,10.7c0.3,4.2,0.5,8.4,0.7,12.6c0.1,1.1,0.6,1.6,1.7,1.8
		c1.6,0.2,3.2,0.4,4.8,0.5c7.8,0.6,15.7,1.2,23.5,1.8c7.3,0.5,14.6,1.1,21.9,1.6c1.4,0.1,1.5,0,1.5-1.4c-0.3-8.5,1.4-16.7,5-24.4
		c0.5-1,1-2,1.5-3.1C89,129.5,68.6,129.5,48.3,129.5z M460.1,57.7c0-0.1,0-0.3,0-0.4c-0.2-0.1-0.4-0.3-0.6-0.4
		C437.5,41.8,415,27.4,391.8,14c-0.3-0.2-0.7-0.3-1.1-0.3c-2,0-4.1-0.1-6.1,0c-2.3,0.1-4.5,0.4-6.8,0.6c0.2,0.4,0.4,0.6,0.6,0.7
		c5.7,3.7,11.5,7.2,17.1,11c14.9,10.2,29.8,20.6,44.6,30.9c0.8,0.6,1.6,0.9,2.6,0.8c5,0,9.9,0,14.9,0
		C458.5,57.7,459.3,57.7,460.1,57.7z M547,130.2c0.3,0.7,0.6,1.4,0.9,2c3.8,7.8,4.7,16.2,5.2,24.6c0.1,1.6,0.1,1.8,1.5,1.7
		c5-0.1,10.1-0.2,15.1-0.5c4.3-0.2,8.7-0.7,13-1.2c2-0.2,2.6-0.8,2.9-2.9c0.3-2,0.4-4.1,0.4-6.1c0.1-4.4,0.1-8.8,0-13.2
		c0-2.3-0.9-3.5-3.2-4.1c-1.2-0.3-2.5-0.6-3.8-0.6c-10.5,0-20.9,0-31.4,0C547.4,130.1,547.3,130.2,547,130.2z M432.2,129.5
		c-0.5,9.8-1.1,19.5-1.6,29.3c5.1,0,10,0,15.1,0c-0.5-10.3,1.3-20.1,6.2-29.3C445.2,129.5,438.8,129.5,432.2,129.5z M546.2,83.8
		c-0.7,2.6,0.1,4.7,2.4,6.4c2.4,1.8,4.7,3.9,6.9,5.9c2.3,2.1,4,4.6,4.2,7.8c0.2,2.6,0.1,5.3,0.2,7.9c0.1,2.1,0.1,2.1,2.1,2.1
		c2.5,0,4.9,0,7.5,0c0-2.6,0-5.1,0-7.6c0-0.2-0.3-0.6-0.6-0.7c-1.3-0.5-1.8-1.5-1.8-2.8c0-0.8,0-1.5,0-2.3c0-1.3,0.5-2.2,1.7-2.6
		c0.7-0.2,0.8-0.6,0.8-1.2c0-3.6,0-7.3,0-10.9c0-0.6,0-1.2,0-2.1C561.6,83.8,553.9,83.8,546.2,83.8z M47.7,153.9
		c-0.3-5.9-0.6-11.5-0.9-17.2c-6.8,0-13.4,0-20.1,0c0,0.5-0.1,0.8-0.1,1.2c0,2.6,0,5.2,0,7.8c0,3.1-0.1,6.2-0.1,9.3
		c0,1.8,0.1,1.9,1.9,1.9c1.1,0,2.2,0,3.4,0c0.9,0,1.4-0.2,1.7-1.1c0.3-1.1,1.1-1.7,2.3-1.9c0.7-0.1,1.4-0.1,2.1-0.1
		C41.2,153.9,44.5,153.9,47.7,153.9z M33.6,83.6c0.6,0,1,0,1.4,0c5.4,0,10.9,0,16.3,0c1.7,0,2.7,0.6,3.1,2c0.4,1.6,0.4,3.3-0.6,4.7
		c-1.6,2.2-3.2,4.4-4.8,6.6c-0.4,0.6-0.7,1.4-0.7,2.1c-0.1,3.4,0,6.8,0,10.2c0,2.8-0.9,3.7-3.8,3.7c-2.8,0-5.5,0-8.3,0
		c-0.3,0-0.7,0-1,0.1c0,0.4,0,0.7,0,1.1c0.1,2.1,0,1.7,1.8,1.7c5,0,9.9,0,14.9,0c2.2,0,2.7-0.4,2.7-2.6c0-4.3,0-8.5-0.1-12.8
		c-0.1-2.3,0.7-4,2.5-5.3c1.8-1.4,3.6-3,5.3-4.4c0.7-0.6,1.1-1.3,1-2.3c-0.1-1.6,0-3.3,0-4.9c0-2.2-0.4-2.6-2.7-2.6
		c-8.6,0-17.2,0-25.8,0c-0.4,0-0.8,0-1.2,0.1C33.6,81.7,33.6,82.6,33.6,83.6z M33.5,85.6c0.5,8.5,0.9,16.8,1.4,25.2
		c3.5,0,6.8,0,10.2,0c0.9,0,1.1-0.4,1.1-1.3c0-3.5,0-6.9,0-10.4c0-1.4,0.4-2.5,1.3-3.6c1.6-2.1,3.2-4.2,4.6-6.4
		c0.5-0.8,0.4-2,0.3-2.9c0-0.3-1.3-0.5-2-0.5c-2.7-0.1-5.4,0-8.1,0C39.4,85.6,36.6,85.6,33.5,85.6z M268.5,9.1
		c1.9-0.7,3.7-1.4,5.5-1.9c5.1-1.3,10.4-1.5,15.7-1.5c7.2,0,14.5-0.6,21.7,0.2c2.5,0.3,5.1,0.2,7.7,0.2c10.1,0.2,20.1,0.4,30.2,0.4
		c8.8,0,17.3,1.3,24.9,6c0.3,0.2,0.8,0.2,1.1,0.2c4.2-0.3,8.4-0.7,12.6-1.1c0.3,0,0.6-0.1,1.3-0.1c-0.6-0.3-1-0.5-1.4-0.7
		c-6-2.8-12.4-4-18.9-4.9c-13.2-1.8-26.6-2.2-39.9-2.6c-6.2-0.2-12.5-0.2-18.7-0.2c-9.3,0-18.5,0-27.8,0.3c-3.3,0.1-6.6,0.9-9.9,1.7
		C270.6,5.5,269.2,7,268.5,9.1z M277.4,158.8c-0.4-9.9-0.8-19.6-1.3-29.3c-3.6,0-7.1,0-10.6,0c0,0.5,0,0.9,0,1.3
		c0.3,6,0.7,12,1.1,17.9c0.1,1.9,0.4,3.9,0.8,5.8c0.5,2.2,1.9,3.6,4.2,3.9C273.4,158.8,275.3,158.7,277.4,158.8z M34.1,63.9
		c0,0.1,0.1,0.2,0.1,0.3c75.7,0,151.3,0,227,0c-0.5-1.4-1.6-1-2.6-1c-74,0-148.1,0-222.1,0c-0.4,0-0.9-0.1-1.3,0
		C34.9,63.3,34.5,63.6,34.1,63.9z M465.7,66.8c-3.8-2-7.2-4.1-10.1-6.8c-0.3-0.3-0.9-0.3-1.3-0.3c-6.9,0-13.8,0-20.7,0
		c-0.3,0-0.7,0-1,0c0.4,2.4,0.8,4.7,1.2,7.1C444.3,66.8,454.8,66.8,465.7,66.8z M578.4,159.7c-8.1,0.3-16.2,0.6-24.3,1
		c0,3.3,0,6.6,0,9.9c0,1.7,0.1,3.4,0.1,5.1c0,0.7,0.4,1.1,1.1,1c1.3,0,2.6,0,4,0c3.1,0,3.3,0.8,3.4-3.5c0.1-2,0-4,0-6
		c0.1-1.9,0.9-2.8,2.8-3.2c1.3-0.2,2.5-0.3,3.8-0.5C572.6,163.1,575.8,162.2,578.4,159.7z M29.5,159c0,1.5,0,2.8,0,4.1
		c0,0.8,0.3,1.2,1.1,1.2c1.2,0,2.3-0.1,3.5-0.1c2.2,0,4.4,0.1,6.6,0.1c0.6,0,1.4,0.2,1.4-0.8c0-2.5,0-5,0-7.6c-1.9,0-3.6,0-5.3,0
		c-0.8,0-1.4,0.3-1.7,1.2c-0.4,1.3-1.4,1.9-2.7,1.9C31.5,159,30.6,159,29.5,159z M577.1,97.6c-0.2-5-0.5-10-0.7-14.9
		c-1.7,0-3.3,0-4.9,0c0,5,0,9.9,0,14.9C573.4,97.6,575.2,97.6,577.1,97.6z M577.5,105.9c-2.1,0-4,0-5.9,0c0,3.8,0,7.4,0,11.1
		c2.3,0.1,4.5,0.5,6.2,2.3c0.1-0.1,0.2-0.1,0.2-0.2C577.8,114.7,577.6,110.3,577.5,105.9z M26.8,134.6c6.6,0,13.2,0,19.9,0
		c-0.1-1-0.2-1.9-0.3-2.8c-1.4,0-2.7,0-4,0c-4.4,0-8.7,0-13.1,0.1C27.6,131.8,26.7,132.9,26.8,134.6z M544,82.1
		c-2.8-0.2-2.8-0.2-2.6,2.8c0,0.2,0,0.3,0,0.5c-0.2,1.9,0.6,3.3,2.1,4.5c3.5,2.8,6.9,5.8,10.4,8.7c2.2,1.9,3.4,4.2,3.3,7.2
		c-0.1,2.5,0,5,0.2,7.4c0.2,2.4,1.2,3.4,3.4,3.5c2.6,0.2,5.3,0.1,7.9,0.1c0.3,0,0.5-0.4,0.8-0.6c-0.1-0.1-0.1-0.2-0.2-0.3
		c-0.4,0-0.7,0-1.1,0c-2.4,0-4.8,0-7.2-0.1c-2.2,0-2.9-0.7-3.1-2.9c-0.1-1.2-0.2-2.4-0.1-3.6c0.6-5.7-1-10.4-5.9-13.9
		c-2.2-1.6-4.2-3.5-6.3-5.4c-1-0.8-1.6-1.9-1.6-3.2C544,85.4,544,83.8,544,82.1z M577.3,103.7c0-1.2,0.1-2.2,0-3.1
		c0-0.3-0.5-0.9-0.7-0.9c-2.2-0.1-4.4-0.1-6.6,0c-0.4,0-1,0.6-1,0.9c0.1,1-0.6,2.2,0.5,3.1c0.1,0,0.2,0,0.2,0
		C572.2,103.7,574.7,103.7,577.3,103.7z M579.9,122.8c1.2-0.5,1.3-0.5,1.3-1.5c0-1.3,0-2.6,0-4c0-1-0.4-1.3-1.3-1.4
		C579.9,118.2,579.9,120.5,579.9,122.8z M588.1,148.8c0.1,0,0.2,0,0.3,0.1c0.1-3.7,0-7.5,0.1-11.2c-0.1,0-0.3,0-0.4,0
		C588.1,141.4,588.1,145.1,588.1,148.8z M579.4,105c0.1,0,0.3,0,0.4,0c0-2,0.2-4-0.4-6C579.4,101.1,579.4,103,579.4,105z
		 M45.4,129.5c0-0.1,0-0.1,0-0.2c-1.4-0.1-2.8-0.2-4.3-0.3c0,0.2,0,0.3,0,0.5C42.6,129.5,44,129.5,45.4,129.5z"/>
	<path d="M155.6,80.6c20.6,0.3,36.9,6.7,50.3,20.1c6.2,6.2,10.9,13.4,14.2,21.4c0.3,0.7,1,1.7-0.2,2.2c-1.3,0.5-1.4-0.7-1.7-1.5
		c-9.5-21.3-25.5-34.8-48.5-38.9c-24.3-4.4-45.2,2.8-62.5,20.4c-5.3,5.4-9.4,11.8-12.6,18.7c-0.1,0.2-0.2,0.4-0.2,0.5
		c-0.3,0.7-0.8,1.2-1.5,0.7c-0.3-0.2-0.4-1-0.3-1.5c0.1-0.7,0.5-1.3,0.9-2c11-21.7,28.5-34.8,52.6-39.1
		C149.8,81,153.6,80.9,155.6,80.6z"/>
	<path d="M398.5,78.6c-7,0-14,0-21,0c-3.4,0-6.8,0.2-10.1-0.8c-2.7-0.9-5.2-2.2-7.8-3.4c-2.5-1.2-5-2.4-7.4-3.7
		c-3.2-1.7-6.6-2.4-10.2-2.4c-10.2-0.1-20.3,0-30.5-0.2c-6.5-0.1-12.7-1.7-18.4-5c-3.2-1.9-4.7-4.5-4.7-8.2c0.1-9.9,0-19.7,0.1-29.6
		c0-1.7,0.2-3.5,0.6-5.2c1-4.1,3.4-6.3,7.6-6.9c1.1-0.2,2.3-0.2,3.5-0.2c13.4,0,26.8,0.2,40.2-0.1c11.6-0.2,22.2,2.6,32.1,8.3
		c16.3,9.4,32,19.8,46.9,31.3c1,0.8,2,1.6,2.9,2.5c2.7,2.4,4.6,5.3,5.3,8.9c0.6,3.3,1.2,6.6,1.6,9.9c0.4,3.4-1.3,4.9-4.7,4.9
		C415.9,78.6,407.2,78.7,398.5,78.6C398.5,78.6,398.5,78.6,398.5,78.6z M290.9,22.2c0.2-0.6,0.4-1.2,0.5-1.8c0.6-2.5,2.2-4,4.7-4.5
		c0.7-0.1,1.5-0.3,2.3-0.3c5.4,0,10.9-0.1,16.3-0.1c9.6,0,19.2,0,28.8,0.1c5,0,9.9,0.5,14.7,2c5.3,1.7,10.3,4.1,14.9,7
		c10,6.2,19.8,12.7,29.7,19c1.6,1,2.8,2,2.4,4c0,0.1,0.1,0.1,0.1,0.1c1.9,0.2,3.7,0.4,5.5,0.5c-0.1-0.1-0.3-0.3-0.5-0.4
		c-12.5-9-25.4-17.5-38.8-25.2c-9.7-5.6-20-8.2-31.2-8c-13.2,0.2-26.4,0.1-39.6,0.1c-1.1,0-2.2,0.1-3.3,0.2
		C293.2,15.6,290.8,18.3,290.9,22.2c-0.1,1-0.3,2-0.3,2.9c0,9.9,0,19.9,0,29.8c0,0.7,0.1,1.4,0.1,2.1c0.2-10.6,0.2-21.1,0.2-31.6
		C290.8,24.3,290.8,23.3,290.9,22.2z M403,48.1c0.1-0.2,0.2-0.3,0.4-0.5c-0.3-0.6-0.5-1.3-0.9-1.6c-8.2-5.4-16.3-10.9-24.5-16.1
		c-4.1-2.6-8.6-4.8-12.9-7.2c-7.6-4.2-15.9-5.1-24.5-5.1c-13.5,0.1-26.9,0-40.4,0c-1.2,0-2.4,0.1-3.6,0.3c-1.6,0.2-2.8,1.2-3.1,2.8
		c-0.3,1.5-0.6,3-0.6,4.5c-0.1,9.8,0,19.7-0.1,29.5c0,2.4,0.9,3.7,2.9,4.8c5.3,2.9,11,4,16.9,4.1c10,0.1,20,0,30,0
		c3.6,0,7.2,0.7,10.4,2.3c3.7,1.8,7.4,3.6,11,5.6c3.1,1.8,6.3,2.3,9.8,2.3c8,0,16.1,0,24.1,0c0.4,0,0.8,0,1.3,0c0-0.2,0-0.3-0.1-0.3
		c-0.1-0.1-0.3-0.3-0.5-0.4c-2.5-1.8-3.8-4.1-3.9-7.2c0-3-0.1-5.9,0-8.9c0.1-1.9,0.2-3.9,0.6-5.8c0.4-2.1,1.7-3.1,3.9-3.2
		C400.4,48,401.7,48.1,403,48.1z M417.7,61.8c0,0.4,0,0.9,0,1.3c0,1.6,0,3.2,0,4.8c0,0.4-0.5,0.7-0.8,1.1c-0.4-0.3-0.8-0.6-1.1-1
		c-0.2-0.2,0-0.6,0-0.9c0-3.2,0-6.5-0.1-9.7c0-1.5-0.3-2.9-1.3-4c-1.8-2-3.9-3.2-6.7-3.3c-2.4-0.1-4.7,0-7.1,0
		c-2.7,0-3.5,0.6-3.6,3.3c-0.2,3.8-0.3,7.6-0.3,11.5c0,4.7,2.8,8.1,7.5,8.7c3.6,0.4,7.3,0.4,10.8,0.1c4.3-0.4,7-4.7,6-8.9
		C420.6,62.8,419.7,62.1,417.7,61.8z M298,63c4,2.1,8.5,2.9,12.9,3c10.3,0.2,20.7,0.2,31.1,0.2c3.9,0,7.6,0.7,11.1,2.6
		c3.2,1.7,6.5,3.2,9.6,4.8c3,1.6,6.2,2.8,9.7,2.9c1.6,0,3.3,0.1,4.9,0.1c15.8,0,31.6,0,47.4,0c2.3,0,3-0.7,2.7-3
		c-0.3-2.7-0.8-5.3-1.2-7.9c-0.9-5.9-4.8-9.6-9.2-12.7c0.2,1.9,0.5,4,0.8,6c0,0.3,0.6,0.7,0.9,0.8c2.4,0.6,3.9,2.1,4.3,4.6
		c1.1,5.9-2.9,11-8.8,11.2c-3.7,0.2-7.5,0.2-11.2,0.2c-9.8,0-19.7,0-29.5,0c-2.7,0-5.4,0-7.9-1.2c-3.6-1.8-7.2-3.6-10.8-5.5
		c-4.3-2.4-8.9-3.5-13.9-3.5c-9.9,0.1-19.8,0-29.7,0c-0.4,0-0.9,0-1.3-0.1C305.9,65.1,301.8,64.6,298,63z"/>
	<path d="M295.9,79.6c3.4,0,6.7,0,10.1,0c3.2,0,4.3,1.3,4.1,4.4c-0.1,1.9,0,3.8,0,5.6c0,2.3-0.9,3.3-3.2,3.5
		c-1.9,0.1-3.8,0.1-5.7,0.1c-5.1,0-10.2,0-15.3,0c-2.9,0-4-1.1-4-4c0-1.9,0-3.8,0-5.7c0-2.8,1.2-3.9,4-3.9
		C289.2,79.6,292.6,79.6,295.9,79.6z M285.7,85.2c0,0.4-0.1,0.6-0.1,0.8c-0.1,1.9-0.1,1.9,1.8,1.9c5.6,0,11.1,0,16.7,0
		c2.3,0,2.3,0,2.1-2.3c0-0.1-0.1-0.2-0.2-0.4C299.3,85.2,292.6,85.2,285.7,85.2z M283.9,83.8c0.8-0.2,1.6-0.6,2.4-0.6
		c6.5,0,13,0,19.5,0c0.8,0,1.5,0.5,2.2,0.8c0.3-1.9,0-2.4-2.1-2.4c-6.6,0-13.3,0-19.9,0C284.1,81.6,283.8,82,283.9,83.8z
		 M308.1,89.2c-1.1,0.2-2.2,0.6-3.3,0.6c-5.8,0.1-11.6,0.1-17.4,0c-1.2,0-2.3-0.3-3.5-0.5c-0.1,1.6,0.1,2,1.5,2c6.9,0,13.7,0,20.6,0
		C308.1,91.3,308.3,90.9,308.1,89.2z"/>
	<path d="M418.7,120.3c2.2,0,4.5,0,6.7,0c1,0,1.5,0.4,1.5,1.4c0,0.9-0.1,1.8-0.1,2.7c0,0.8-0.5,1.2-1.2,1.2c-4.6,0-9.2,0.1-13.8,0.1
		c-1,0-1.6-0.5-1.5-1.6c0-0.8,0-1.6,0-2.4c-0.1-1.1,0.5-1.5,1.5-1.5C414.1,120.3,416.4,120.3,418.7,120.3
		C418.7,120.3,418.7,120.3,418.7,120.3z M412.3,123.6c4.2,0,8.3,0,12.4,0c0-0.5,0-0.8,0-1.2c-4.2,0-8.3,0-12.4,0
		C412.3,122.9,412.3,123.3,412.3,123.6z"/>
	<path d="M499.8,187.4c-15.3,0.3-30.9-12.1-30.7-31c0.2-16.9,14.4-30.6,31.2-30.2c16.5,0.4,30.2,13.9,30,31.2
		C530.2,173.9,516.6,187.4,499.8,187.4z M471.2,157.3c-0.4,15.4,13.6,29,30,28.1c15.4-0.8,27.9-13.5,27.1-30
		c-0.9-16.7-15.1-28-30.2-27.1C481.7,129.2,470.7,143.5,471.2,157.3z"/>
	<path d="M188,156.9c0,17.1-13.5,30.5-30.8,30.5c-16.9,0-30.5-13.7-30.4-30.8c0-16.7,14.1-30.8,31.3-30.3
		C174.3,126.6,188.1,139.8,188,156.9z M186,156.9c0-16-12.8-28.4-28.2-28.7c-16-0.3-29.1,12.7-29.1,28.6c0,15.7,12.9,28.6,28.6,28.6
		C173.3,185.4,186,172.8,186,156.9z"/>
	<path d="M582.9,143.9c0,2,0,4,0,6c0,2.6-1.2,3.5-3.8,3.8c-3.4,0.3-5.5-0.9-7.2-3.8c-1-1.8-1.9-3.4-1.8-5.5c0.2-2.1,0-4.3,0-6.5
		c0-2.4,1-3.4,3.4-3.4c2,0,3.9,0,5.9,0c2.5,0,3.4,1,3.4,3.5C582.9,139.9,582.8,141.9,582.9,143.9
		C582.9,143.9,582.9,143.9,582.9,143.9z M580.9,143.9C580.9,143.9,580.9,143.9,580.9,143.9c0-2-0.1-4.1,0-6.1c0-1-0.4-1.4-1.4-1.4
		c-2,0.1-3.9,0.1-5.9,0.1c-1.1,0-1.5,0.4-1.5,1.5c0,2.2,0.1,4.3,0,6.5c-0.1,1.6,0.5,2.8,1.3,4.2c1.3,2.2,2.8,3.5,5.6,3.1
		c1.5-0.2,1.9-0.4,1.9-1.9C580.9,147.8,580.9,145.8,580.9,143.9z"/>
	<path d="M526.6,156.3c0.3,12.9-9,26.3-25.5,27.2c-14.6,0.8-27.2-10.6-27.9-24.9c-0.8-16.2,11.6-27.8,25-28.4
		C513.7,129.4,526,140.8,526.6,156.3z M489,134.6c0.2,0.2,0.3,0.4,0.4,0.5c1.8,2,2.2,4.2,0.8,6.4c-1.1,1.8-2.7,3.4-4.2,4.8
		c-2.2,2-5.5,2.6-8.1,0c0,0-0.1,0-0.3,0c-0.3,0.8-0.7,1.7-1,2.5c3.9,0.6,5.6,1.9,5.9,5.1c0.2,2.2,0.2,4.5-0.2,6.7
		c-0.4,2.6-2.4,4.1-5.1,4.2c-0.3,0-0.5,0-0.9,0c0.5,1.1,0.9,2.1,1.3,3.1c2.7-2.4,5.1-2.8,7.7-0.8c1.8,1.3,3.4,3,4.7,4.7
		c1.7,2.3,1.4,4.8-0.6,7c-0.1,0.1-0.2,0.3-0.3,0.5c0.5,0.2,1,0.5,1.4,0.6c0.5,0.2,0.9,0.3,1.4,0.5c0.2-3.9,1.7-5.6,5.4-6.1
		c2-0.2,4.1-0.1,6.1,0.2c2.4,0.3,4,2.1,4.3,4.4c0.1,0.5,0.1,1,0.1,1.6c1-0.4,1.9-0.8,2.9-1.2c-2.7-3.4-2.6-5.9,0.2-9
		c0.7-0.8,1.4-1.5,2.2-2.2c3.1-2.8,5.7-2.9,9-0.2c0.4-1,0.8-1.9,1.2-2.9c-4-0.4-5.7-1.8-6.1-5.5c-0.2-1.7-0.2-3.4,0-5
		c0.2-1.8,0.8-3.6,2.5-4.5c1-0.6,2.2-0.8,3.5-1.2c-0.3-0.7-0.7-1.6-1-2.5c-3.5,2.7-5.8,2.6-9-0.3c-1-0.9-1.9-1.8-2.7-2.8
		c-2.3-2.8-2.2-5.3,0.1-8.1c0,0,0-0.1,0-0.3c-0.9-0.3-1.7-0.7-2.7-1.1c-0.2,3.6-1.5,5.4-4.5,5.9c-2.3,0.3-4.6,0.3-6.9,0
		c-2.8-0.4-4.3-2.4-4.5-5.3c0-0.2-0.1-0.4-0.1-0.6C490.8,133.8,489.9,134.2,489,134.6z M518.1,167.6c-0.6,0.2-1.1,0.2-1.5,0.4
		c-2.4,1.2-4.1,3-5.4,5.2c-0.9,1.5-0.5,3,0.8,4.1c0.6,0.5,1.1,0.6,1.8,0.1c2.6-1.8,4.8-3.9,6.6-6.5c0.8-1.2,0.7-1.7-0.5-2.5
		C519.3,168,518.6,167.8,518.1,167.6z M481.8,167.4c-0.8,0.4-1.6,0.8-2.3,1.3c-0.7,0.5-0.7,1.1-0.2,1.9c1.9,2.7,4.1,4.9,6.9,6.7
		c0.3,0.2,0.9,0.3,1.1,0.2c1-0.6,1.7-1.5,1.7-2.7C489.1,172.4,484.5,167.7,481.8,167.4z M518.2,146.1c0.6-0.3,1.3-0.6,1.9-1.1
		c0.8-0.6,0.9-1.2,0.2-2.1c-1.9-2.6-4.1-4.9-6.8-6.7c-0.7-0.5-1.1-0.4-1.7,0.1c-1.1,0.9-1.5,2.4-0.8,3.7c1.2,2.5,3.1,4.2,5.4,5.6
		C516.9,145.9,517.4,145.9,518.2,146.1z M500,137.8c1.1-0.2,2.4-0.2,3.5-0.5c1.6-0.4,2.4-1.7,2.4-3.3c0-0.8-0.3-1.2-1.1-1.4
		c-3.2-0.6-6.5-0.7-9.7,0c-0.7,0.1-0.9,0.5-1,1.1c-0.2,1.7,0.7,3.2,2.4,3.6C497.5,137.5,498.7,137.6,500,137.8z M499.8,181.6
		c1.6-0.2,3.2-0.4,4.8-0.5c0.8-0.1,1.1-0.6,1.2-1.4c0.1-1.5-0.8-2.9-2.4-3.3c-2.4-0.7-4.9-0.7-7.3,0c-1.5,0.5-2.3,1.8-2.2,3.3
		c0,0.8,0.3,1.3,1.2,1.4C496.7,181.2,498.2,181.4,499.8,181.6z M524.7,156.8c-0.2-1.6-0.4-3.3-0.7-5c-0.1-0.4-0.6-0.8-1-0.9
		c-1.8-0.4-3.4,0.6-3.7,2.5c-0.3,2.2-0.3,4.4,0,6.6c0.2,1.8,1.8,2.7,3.5,2.6c0.7-0.1,1.2-0.3,1.3-1.1
		C524.3,160,524.5,158.5,524.7,156.8z M480.7,157.2c0-1.1-0.1-1.8-0.1-2.6c0-0.4-0.1-0.8-0.2-1.2c-0.5-1.7-1.8-2.7-3.4-2.6
		c-0.8,0-1.2,0.4-1.3,1.2c-0.6,3-0.5,5.9-0.2,8.9c0.2,1.5,0.9,2,2.4,1.7c1.4-0.3,2.2-1.2,2.5-2.6C480.6,159,480.6,157.9,480.7,157.2
		z M489.1,138.6c-0.5-0.8-0.9-1.6-1.5-2.3c-0.4-0.5-0.9-0.5-1.5-0.1c-2.8,1.9-5.1,4.3-7,7.1c-0.4,0.6-0.3,1.1,0.1,1.6
		c1.2,1.4,3,1.7,4.6,0.4c1.5-1.2,2.9-2.7,4.2-4.2C488.6,140.4,488.7,139.6,489.1,138.6z"/>
	<path d="M130.7,158c-0.6-15.5,11.1-26.9,24.6-27.9c15-1.1,27.9,10.2,28.8,25c0.9,15-10.3,27.6-25.4,28.4
		C143.3,184.3,131,172.2,130.7,158z M146.5,134.6c1.7,1.6,2.5,3.4,1.8,5.4c-1.3,3.7-4,6.2-7.5,7.7c-0.2,0.1-0.4,0.1-0.6,0.1
		c-2,0.4-3.6-0.5-5-1.9c-0.4,1-0.8,1.9-1.1,2.8c4.1,0.5,5.6,2,6.1,6c0.1,1.3,0.1,2.6,0,3.9c-0.4,4.2-2,5.7-6.2,6c0.4,1,0.8,2,1.2,3
		c3.1-2.6,5.8-2.7,8.7-0.1c1.3,1.2,2.6,2.5,3.7,3.9c1.7,2.3,1.4,5-0.5,7.1c-0.1,0.1-0.2,0.3-0.4,0.5c1,0.4,1.9,0.7,2.8,1.1
		c0.5-3.7,1.7-5.5,4.5-5.9c2.4-0.3,4.9-0.3,7.2,0c2.4,0.3,4,2.2,4.2,4.5c0,0.4,0,0.8,0.1,1.4c1-0.4,2-0.8,3-1.2
		c-2.1-2-2.8-4.3-1.4-6.7c1.5-2.7,3.7-5,6.6-6.2c1.7-0.8,3.4-0.5,5,0.6c0.4,0.3,0.7,0.6,1.2,1c0.4-1,0.8-2,1.2-2.9
		c-4-0.2-5.7-1.8-6.1-5.6c-0.2-1.3-0.2-2.7-0.1-4.1c0.2-2.4,0.8-4.5,3.2-5.6c0.9-0.4,1.9-0.5,2.9-0.7c-0.4-0.8-0.7-1.7-1.1-2.6
		c-3.2,2.6-5.8,2.5-8.7-0.1c-0.8-0.7-1.5-1.4-2.2-2.2c-1.3-1.3-2.2-2.8-2.4-4.7c-0.1-1.7,0.7-3.1,1.9-4.4c-0.5-0.2-0.9-0.5-1.4-0.6
		c-0.4-0.2-0.9-0.3-1.3-0.5c-0.5,3.6-1.6,5.2-4.6,5.8c-2.5,0.5-4.9,0.5-7.4-0.1c-2.5-0.6-3.9-2.4-4-5c0-0.2,0-0.5-0.1-0.8
		c-0.3,0.1-0.6,0.1-0.8,0.2C148,133.9,147.3,134.2,146.5,134.6z M168.1,174.9c0.2,0.5,0.3,1.1,0.6,1.6c0.8,1.4,1.6,1.6,2.9,0.7
		c2.4-1.6,4.4-3.7,6-6.1c0.9-1.3,0.7-2.2-0.8-3c-1-0.5-2.1-0.5-3.1,0c-2.1,1.2-3.8,2.9-5.1,5C168.4,173.5,168.3,174.2,168.1,174.9z
		 M146.5,174.7c0-0.2,0-0.6-0.2-1c-1.3-2.6-3.3-4.7-6-5.9c-1.2-0.5-2.9,0.1-3.6,1.2c-0.2,0.3-0.3,1-0.1,1.3c1.8,2.9,4.3,5.2,7.1,7.1
		c0.3,0.2,0.8,0.2,1,0.1C145.9,177,146.5,176.1,146.5,174.7z M146.7,138.6c-0.5-0.8-1-1.6-1.7-2.4c-0.2-0.2-0.9-0.2-1.2,0
		c-2.9,1.9-5.3,4.2-7.1,7.1c-0.2,0.3-0.2,1,0.1,1.3c1,1.5,3,1.9,4.6,0.7c1.6-1.3,3-2.8,4.4-4.4C146.2,140.4,146.3,139.5,146.7,138.6
		z M157.3,137.7c1.1-0.1,2.4-0.2,3.7-0.5c1.7-0.5,2.5-1.9,2.4-3.5c-0.1-0.7-0.4-1-1.1-1.2c-3-0.6-5.9-0.7-8.9-0.2
		c-1.8,0.3-2.2,1.1-1.6,2.8c0.4,1.1,1.2,1.8,2.3,2.1C155,137.5,156,137.6,157.3,137.7z M175.4,146c0.5-0.1,0.9-0.2,1.3-0.4
		c1.7-0.8,2-1.7,0.8-3.1c-1.9-2.1-3.9-4.1-6-6c-1.3-1.2-2.4-0.9-2.9,0.8c-0.3,0.9-0.3,2,0.1,2.8c1.1,2.3,3,3.9,5.1,5.2
		C174.2,145.8,174.8,145.9,175.4,146z M157.2,181.6c1.5-0.2,2.9-0.3,4.4-0.5c1.6-0.2,2.1-0.9,1.6-2.5c-0.3-1.1-1-2-2.1-2.3
		c-2.5-0.7-5-0.8-7.4,0c-1.6,0.5-2.4,1.9-2.2,3.5c0.1,0.7,0.4,1.1,1.1,1.2C154.1,181.2,155.6,181.4,157.2,181.6z M182.2,156.8
		c-0.2-1.4-0.3-2.8-0.5-4.1c-0.3-1.9-1.8-2.6-3.5-1.4c-0.5,0.4-1,1-1.2,1.6c-0.8,2.5-0.8,5.1,0,7.6c0.5,1.5,2,2.4,3.5,2
		c0.4-0.1,1-0.6,1.1-1C181.9,160,182.1,158.4,182.2,156.8z M132.5,157.2c0,0,0.1,0,0.1,0c0.1,1.2,0.1,2.3,0.2,3.5
		c0.2,1.9,1.2,2.5,2.9,1.7c0.8-0.4,1.6-1.2,1.9-1.9c0.8-2.4,0.8-5,0-7.4c-0.5-1.6-2-2.5-3.5-2.2c-0.4,0.1-0.9,0.5-1,0.9
		C132.9,153.6,132.7,155.4,132.5,157.2z"/>
	<path d="M500,170.6c-6.4,0.2-13.6-4.4-13.9-13.9c-0.3-7.5,6.2-13.7,13.8-13.7c7.8,0,13.9,6.1,13.9,13.8
		C513.8,164.4,507.6,170.6,500,170.6z M499.9,168.7c6.5,0,11.9-5.4,11.9-11.9c0-6.5-5.4-11.9-11.9-11.9c-6.5,0-12,5.4-12,11.7
		C488,163.3,493.3,168.7,499.9,168.7z"/>
	<path d="M157.5,170.6c-7.7,0-14-6.2-14-13.9c0-7.6,6.3-13.7,14-13.7c7.7,0,13.8,6.1,13.8,13.8C171.3,164.4,165.1,170.6,157.5,170.6
		z M169.3,156.8c0-6.6-5.3-11.8-11.9-11.8c-6.5,0-12.1,5.4-11.9,11.7c0.3,7.8,6,12,11.9,12C163.9,168.7,169.3,163.3,169.3,156.8z"/>
	<path d="M491.4,157c-0.1-4.8,3.5-8.5,8.1-8.6c4.8-0.1,8.7,3.6,8.7,8.3c0,4.7-3.7,8.6-8.5,8.6C494.8,165.3,491.1,161.1,491.4,157z
		 M499.6,150.4c-3.4,0-6.2,2.9-6.3,6.3c-0.1,3.7,2.9,6.5,6.3,6.6c3.6,0.1,6.7-3.1,6.6-6.6C506.2,153.1,503.3,150.4,499.6,150.4z"/>
	<path d="M165.7,156.8c0,4.7-3.8,8.5-8.6,8.5c-4.6,0-8.4-4-8.3-8.6c0.1-4.6,3.7-8.3,8.3-8.3C162,148.4,165.7,152,165.7,156.8z
		 M157.3,150.4c-3.6,0-6.5,2.8-6.5,6.3c0,3.6,2.8,6.6,6.3,6.6c3.5,0,6.5-2.9,6.6-6.5C163.8,153.3,161,150.4,157.3,150.4z"/>
</g>
</svg>
