<?xml version="1.0" encoding="utf-8"?>
<!-- Generator: Adobe Illustrator 27.4.0, SVG Export Plug-In . SVG Version: 6.00 Build 0)  -->
<svg version="1.1" id="Layer_1" xmlns="http://www.w3.org/2000/svg" xmlns:xlink="http://www.w3.org/1999/xlink" x="0px" y="0px"
	 viewBox="0 0 149.9 49.5" style="enable-background:new 0 0 149.9 49.5;" xml:space="preserve">
<g>
	<path d="M147.1,31.6c0.3,0,0.6,0.1,0.8,0.1c0.8,0.2,1.2,0.6,1.3,1.4c0,0.1,0.1,0.2,0.2,0.2c0.3,0.1,0.5,0.4,0.5,0.7
		c0,0.8,0,1.6,0,2.5c0,0.3-0.2,0.5-0.5,0.7c-0.1,0-0.2,0.2-0.2,0.3c-0.1,0.2-0.1,0.4-0.1,0.7c-0.1,0.6-0.4,0.9-1.1,1
		c-0.3,0-0.5,0.1-0.7,0.3c-0.9,0.9-2.1,1.3-3.3,1.4c-1,0.1-1,0.1-0.9,1c0,0.5,0,1.1-0.1,1.6c-0.1,0.4-0.3,0.6-0.8,0.6
		c-0.6,0-1.1,0-1.7,0c-0.5,0-0.7-0.2-0.7-0.6c-0.1-0.4-0.1-0.9-0.1-1.3c0-0.8,0-1.7,0-2.5c0-0.1,0-0.1,0-0.2
		c-0.1-0.2-0.2-0.4-0.3-0.6c-0.6,0-1.2,0-1.9,0c-0.2,3.6-1.8,6.6-5,8.7c-2.1,1.4-4.5,2-7,1.9c-5.7-0.2-10.5-4.3-11.1-9.8
		c-0.2,0.1-0.3,0.1-0.5,0.2c-1,0.5-2.1,0.7-3.3,0.7c-4.8,0-9.5,0-14.3,0c-2.7,0-5.4,0-8.1,0c-3.5,0-6.9,0-10.4,0c-2.4,0-4.8,0-7.2,0
		c-2.5,0-5,0-7.5,0c-3.8,0-7.6,0-11.3,0c-1.6,0-3.1-0.1-4.6-0.5c-0.1,0-0.3-0.1-0.4-0.1c0,0-0.1,0-0.1,0c-0.1,0.3-0.1,0.7-0.2,1
		c-0.9,4.4-5,8-9.8,8.6c-3.8,0.4-7-0.6-9.7-3.1c-1.5-1.4-2.5-3.1-3-5c-0.1-0.3-0.2-0.4-0.6-0.4c-4.7,0-9.5,0-14.2,0
		c-0.3,0-0.6,0-0.8,0c-0.8-0.1-1.4-0.5-1.7-1.2c-0.1,0-0.1,0-0.1,0c-0.8,0-1-0.1-1.1-0.9c0-0.1-0.1-0.2-0.1-0.2
		c0,0.1-0.1,0.2-0.1,0.3c0,0.5,0,1.1,0,1.7C5.1,40.8,5,41,4.6,41c-0.5,0-1.1,0-1.6,0c-0.5,0-0.9,0-1.4,0c-0.6,0-0.7-0.2-0.8-0.7
		c0-0.3,0-0.7,0-1C0.1,39,0,38.9,0,38.2c0-1.7,0-3.3,0-5c0-0.8,0.4-1.2,1.2-1.2c0.7,0,1.5,0,2.2,0c0.1,0,0.2,0,0.4-0.1
		c-0.1,0-0.1-0.1-0.2-0.1c-0.9-0.1-1.1-0.6-1.2-1.3c-0.1-1.3-0.2-2.6-0.3-3.9c-0.1-1.8-0.2-3.5-0.3-5.3c0-1.8,0.1-3.6,0.1-5.5
		C2,15.3,2.4,15,2.9,15c0.1,0,0.2,0,0.3,0c19.5,0,39,0,58.5,0c0.1,0,0.2,0,0.3,0c0.2,0,0.3,0,0.3-0.3c0.3-3.1,0.7-6.3,1-9.4
		c0.1-0.9,0.3-1.8,0.5-2.6c0.3-1.5,1-2.1,2.6-2.3c1.2-0.1,2.4-0.2,3.6-0.3c1.7,0,3.3,0,5,0c4,0.1,7.9,0.2,11.9,0.3
		c2.5,0.1,5,0.3,7.5,1C95.4,1.6,96.2,2,97,2.3c0.2,0.1,0.4,0.3,0.6,0.5C97.7,2.9,97.9,3,98,3c5,2.7,9.8,5.5,14.5,8.5
		c1.2,0.7,2.4,1.5,3.6,2.3c0.1,0.1,0.3,0.1,0.4,0.1c1.6-0.1,3.2,0,4.8,0.1c2.4,0.1,4.7,0.3,7,0.5c3.4,0.3,6.9,0.6,10.4,1
		c1.7,0.2,3.4,0.4,4.9,1.1c0.6,0.3,1.2,0.6,1.8,1c0.7,0.4,1.1,1,1.1,1.8c0,0.2,0.1,0.3,0.3,0.5c0.1,0.1,0.2,0.2,0.2,0.4
		c0.1,0.4,0.1,0.8,0.2,1.2c0.1,0.3-0.1,0.5-0.3,0.7c-0.1,0.1-0.2,0.2-0.2,0.3c0,0.2,0,0.3,0,0.5c0,0.3,0,0.6,0.4,0.8
		c0.2,0.1,0.3,0.3,0.3,0.6c0.1,0.4,0,0.8,0,1.2c0,0.3-0.2,0.5-0.4,0.6c-0.1,0-0.2,0.2-0.2,0.2c0,0.4,0,0.8,0.1,1.2
		c0,0.1,0.1,0.1,0.1,0.2c0.1,0.1,0.3,0.1,0.4,0.2c0.2,0.1,0.4,0.3,0.4,0.5c0,0.4,0,0.9,0,1.3c0,0.3-0.2,0.5-0.5,0.6
		c-0.3,0.1-0.4,0.2-0.3,0.5C147.2,31.3,147.1,31.4,147.1,31.6z M2.3,19.3c0.1,0,0.2,0,0.2,0c2.2,0,4.4,0,6.5,0c0.2,0,0.5,0,0.7,0
		c0.6,0,0.9,0.4,0.9,0.9c0,0.5,0,1,0,1.5c0,0.3-0.1,0.6-0.3,0.8c-0.5,0.4-1,0.8-1.5,1.2c-0.3,0.2-0.5,0.5-0.5,1c0,1.1,0,2.1,0,3.2
		c0,0.7-0.3,1.1-1.1,1.1c-1.4,0-2.8,0-4.2,0c-0.1,0-0.2,0-0.3,0c0.1,0.6,0.1,1.1,0.2,1.7c0.1,0.5,0.2,0.6,0.8,0.6
		c0.7,0,1.5,0.1,2.3,0.1c5.5,0,11,0,16.5,0c0.2,0,0.4-0.1,0.5-0.3c3.1-4.3,7.5-6.4,13-6c4.7,0.3,8.3,2.4,10.9,6
		c0.1,0.2,0.3,0.2,0.5,0.2c5.2,0,10.3,0,15.5,0c0.1,0,0.2,0,0.3,0c0-5.1-0.1-10.1-0.1-15.2c-20.2,0-40.4,0-60.7,0
		C2.4,17.3,2.4,18.3,2.3,19.3z M107.5,31.4c0-0.1,0-0.2,0-0.3c0.1-1.7,0.2-3.5,0.2-5.2c0.1-2.7,0.1-5.3,0.1-7.9
		c0-0.7-0.1-1.5-0.1-2.3c-0.1-0.8-0.4-1.6-1.1-2.1c-0.4-0.3-0.8-0.6-1.3-1c-3.8-2.7-7.7-5.2-11.8-7.5c-1.6-0.9-3.3-1.7-5.1-2.1
		c-1.4-0.3-2.8-0.3-4.3-0.3c-3-0.1-5.9-0.1-8.9-0.2c-1.2,0-2.3,0-3.5,0c-0.9,0-1.8,0.1-2.6,0.3c-0.8,0.2-1.4,0.7-1.5,1.5
		c-0.1,0.5-0.2,1.1-0.2,1.6c-0.1,1.9-0.1,3.7-0.2,5.6C67.2,14.3,67,17,67,19.7c0,3.4,0.1,6.8,0.1,10.1c0,0.5,0.1,1,0.1,1.5
		C80.6,31.4,94,31.4,107.5,31.4z M108,31.4c0.1,0,0.1,0,0.1,0c1.7,0,3.4,0,5.1,0c0.1,0,0.2-0.1,0.3-0.2c3.3-4.6,7.8-6.8,13.7-6.2
		c4.6,0.4,8.2,2.7,10.6,6.4c0.1,0.2,0.2,0.2,0.4,0.2c2.4,0,4.8,0,7.2,0c0.3,0,0.6,0,0.8,0c0.1,0,0.2-0.1,0.2-0.2
		c0.2-1.1-0.4-2-1.6-2c-1,0-1.9,0-2.9,0c-1,0-1.4-0.4-1.6-1.3c0-0.2-0.1-0.4-0.2-0.5c-1.7-2.4-4-4.1-6.7-5.3
		c-4.2-1.9-8.6-2.2-13-1.1c-5.5,1.3-9.5,4.5-11.8,9.4c0,0.1-0.1,0.1-0.1,0.2c-0.1,0-0.2,0.1-0.3,0.1c-0.1,0-0.1-0.1-0.2-0.2
		c0-0.1,0.1-0.2,0.1-0.2c1.6-3.4,4.1-6,7.4-7.8c3.7-2,7.7-2.7,11.9-2.3c5.2,0.5,9.4,2.7,12.7,6.5c0,0,0.1,0,0.1,0.1
		c0-0.3,0-0.5,0-0.7c0-0.4-0.1-0.8-0.5-1.1c-0.2-0.1-0.3-0.3-0.5-0.4c-0.9-0.7-1.7-1.4-2.6-2c-0.4-0.3-0.6-0.7-0.6-1.1
		c0-0.3,0-0.6,0-0.9c0-0.5,0.2-0.6,0.7-0.7c0.1,0,0.3,0,0.4,0c2.5,0,5,0.1,7.5,0.1c0.4,0,0.7,0,1.1,0c0-0.6-0.2-1.1-0.7-1.5
		c-0.9-0.7-2-1.2-3.1-1.5c-2-0.5-4.1-0.8-6.2-1c-3.3-0.3-6.6-0.6-9.9-0.9c-2.6-0.2-5.1-0.4-7.7-0.5c-1.2,0-2.4,0-3.5,0.1
		c0,0,0,0.1-0.1,0.1c0.1,0,0.1,0,0.2,0.1c1,0.7,2,1.2,3.1,1.6c0.1,0,0.2,0,0.2,0c1.2,0,2.4,0,3.7,0.1c3.5,0.2,6.9,0.3,10.4,0.6
		c3.1,0.3,6.2,0.7,9.3,1.1c0.2,0,0.4,0.1,0.3,0.3c0,0.2-0.2,0.2-0.4,0.2c-2.1-0.3-4.1-0.6-6.2-0.8c-2.8-0.3-5.7-0.5-8.5-0.7
		c-3.7-0.2-7.4-0.3-11-0.4c-2.4,0-4.9,0-7.3,0c-0.1,0-0.2,0-0.3,0C108.5,21.7,108.3,26.5,108,31.4z M107.5,31.9
		c-13.5,0-26.9,0-40.3,0c0.1,2.4,0.2,4.8,0.3,7.2c13.2,0,26.4,0,39.6,0C107.2,36.7,107.3,34.3,107.5,31.9z M139.4,38.4
		C139.4,38.3,139.4,38.3,139.4,38.4c0-0.2,0-0.4,0-0.6c-0.1-2.2-0.7-4.3-1.9-6.2c-2.9-4.6-8.5-7-14.2-6.1c-6.3,1-11,6.1-11.2,12.2
		c0,0.5,0,0.9,0,1.4c0,0.4-0.2,0.5-0.6,0.5c-0.2,0-0.4,0-0.6,0c-5.2,0-10.5,0-15.8,0c-9.5,0-19,0-28.4,0c-2.8,0-5.6,0-8.4,0
		c-2.9,0-5.8,0-8.6,0c-0.1,0-0.2,0-0.3,0c-0.4,0-0.6-0.3-0.7-0.6c0-0.1,0-0.2,0-0.4c-0.1-1-0.1-2-0.3-2.9
		c-1.5-6.7-8.1-10.9-15.2-10.1c-4.5,0.6-7.9,2.8-10.1,6.5c-1.2,2-1.8,4.2-1.7,6.6c0,0.6-0.3,0.9-0.8,0.9c-1.1-0.1-2.2-0.1-3.3-0.2
		c-2.8-0.2-5.6-0.4-8.3-0.6c-0.8,0-1.5-0.2-2.3-0.3c-0.2,0-0.3,0-0.5,0c-0.1,0.6,0,0.7,0.6,0.7c0,0,0.1,0,0.1,0
		c0.3,0,0.5,0.1,0.5,0.3c0.2,0.5,0.5,0.7,1,0.8c0.3,0,0.6,0.1,0.9,0.1c4.8,0,9.5,0,14.3,0c0.1,0,0.2,0,0.3,0
		c-1.1-6.5,4-12.3,11.1-12.5c6.4-0.2,12.2,4.7,11.9,11.4c0.3,0.1,0.6,0.1,0.9,0.2c0.9,0.1,1.8,0.5,2.8,0.5c8.5,0,16.9,0,25.4,0.1
		c1.3,0,2.5,0,3.8,0c3.7,0,7.3,0,11,0c1.9,0,3.8,0,5.7,0c4.8,0,9.5,0,14.3,0c1.2,0,2.4-0.3,3.5-0.9c0.2-0.1,0.2-0.2,0.2-0.3
		c0-0.6,0-1.3,0.1-1.9c1.1-6.3,7.5-10.3,14.1-8.9c4.6,1,8.1,4.6,8.7,8.9c0.1,0.4,0.1,0.9,0.2,1.4C138.2,38.4,138.8,38.4,139.4,38.4z
		 M125.9,49c6.1,0,11-4.6,11-10.3c0-5.7-4.9-10.4-11-10.4c-6.1,0-11.2,4.6-11.1,10.4C114.9,44.7,120.1,49,125.9,49z M35.2,49
		c6.1,0,11-4.6,11.1-10.1c0.1-5.7-4.8-10.5-11-10.5c-6.2,0-11,4.6-11.1,10.2C24.1,44.5,29.2,49,35.2,49z M66.6,31.4
		c0-0.1,0-0.2,0-0.3c-0.1-2.4-0.2-4.7-0.2-7.1c0-2.4,0.1-4.9,0.1-7.3c0.1-3,0.2-5.9,0.3-8.9c0.1-1.1,0.1-2.2,0.2-3.2
		c0.2-1.3,0.8-2,2.2-2.3c0.6-0.1,1.2-0.2,1.8-0.2c1.6,0,3.2,0,4.7,0c3.1,0,6.2,0.1,9.3,0.2c1.7,0,3.3,0.2,4.9,0.7
		c1.5,0.5,3,1.2,4.3,2.1c4,2.4,7.9,4.9,11.7,7.5c0.6,0.4,1,0.9,1.5,1.4c0.1,0,0.1,0.1,0.2,0.1c0.5,0,1,0,1.6,0
		c-0.1-0.1-0.2-0.1-0.3-0.2c-5.5-3.6-11-7.3-16.8-10.6C91.2,2.7,90,2.1,88.6,2c-1.3-0.1-2.5-0.1-3.8-0.2c-3.2-0.1-6.4-0.2-9.6-0.2
		c-2.4,0-4.8,0-7.2,0.1c-1.2,0-2.4,0.3-3.4,0.8c-0.2,0.1-0.3,0.2-0.4,0.5c-0.2,1.4-0.5,2.9-0.6,4.3c-0.3,2.4-0.5,4.7-0.7,7.1
		c-0.1,0.5,0.1,0.8,0.4,1c0.2,0.1,0.3,0.4,0.3,0.5c0,3,0,5.9,0.1,8.8c0,1.6,0,3.2,0.1,4.8c0,0.5,0,1.1,0,1.7
		C64.7,31.4,65.6,31.4,66.6,31.4z M47.5,31.9c0.4,0.9,0.7,1.7,1.1,2.6c0.5,1.4,0.6,2.8,0.6,4.2c0,0.4,0,0.4,0.3,0.4
		c4.6,0,9.3,0,13.9,0c0.3,0,0.4-0.1,0.3-0.3c0-0.1,0-0.1,0-0.2c-0.1-1.7-0.2-3.3-0.4-5c0-0.6-0.1-1.1-0.1-1.7
		C58,31.9,52.7,31.9,47.5,31.9z M6.3,31.9c0.1,0.9,0.1,1.8,0.2,2.7c0.1,1,0.1,2.1,0.2,3.1c0,0.3,0.2,0.4,0.5,0.4
		c0.4,0,0.8,0.1,1.3,0.1c2.1,0.1,4.2,0.3,6.2,0.4c1.9,0.1,3.9,0.3,5.8,0.4c0.4,0,0.4,0,0.4-0.3c-0.1-2.1,0.4-4.1,1.3-6.1
		c0.1-0.2,0.3-0.5,0.4-0.8C17.1,31.9,11.7,31.9,6.3,31.9z M115.4,14.1C115.4,14.1,115.4,14,115.4,14.1c-0.1-0.1-0.1-0.2-0.2-0.2
		c-5.8-3.7-11.8-7.3-17.9-10.6c-0.1,0-0.2-0.1-0.3-0.1c-0.5,0-1.1,0-1.6,0c-0.6,0-1.2,0.1-1.8,0.1c0.1,0.1,0.1,0.1,0.2,0.2
		c1.5,0.9,3,1.8,4.5,2.7c3.9,2.5,7.9,5.1,11.8,7.7c0.2,0.1,0.4,0.2,0.7,0.2c1.3,0,2.6,0,3.9,0C114.9,14.1,115.2,14.1,115.4,14.1z
		 M138.4,32.1c0.1,0.2,0.2,0.3,0.2,0.5c1,1.9,1.2,4,1.4,6.1c0,0.4,0,0.4,0.4,0.4c1.3,0,2.7,0,4-0.1c1.1,0,2.3-0.2,3.4-0.3
		c0.5,0,0.7-0.2,0.8-0.7c0.1-0.5,0.1-1,0.1-1.5c0-1.1,0-2.2,0-3.3c0-0.6-0.2-0.9-0.8-1c-0.3-0.1-0.7-0.1-1-0.1c-2.8,0-5.5,0-8.3,0
		C138.5,32.1,138.5,32.1,138.4,32.1z M108,31.9c-0.1,2.4-0.3,4.8-0.4,7.3c1.4,0,2.6,0,4,0c-0.1-2.6,0.3-5,1.6-7.3
		C111.4,31.9,109.7,31.9,108,31.9z M138.2,20.6c-0.2,0.6,0,1.2,0.6,1.6c0.6,0.4,1.2,1,1.8,1.5c0.6,0.5,1.1,1.1,1.1,1.9
		c0.1,0.6,0,1.3,0.1,2c0,0.5,0,0.5,0.6,0.5c0.7,0,1.3,0,2,0c0-0.6,0-1.3,0-1.9c0,0-0.1-0.1-0.2-0.2c-0.3-0.1-0.5-0.4-0.5-0.7
		c0-0.2,0-0.4,0-0.6c0-0.3,0.1-0.5,0.5-0.6c0.2,0,0.2-0.1,0.2-0.3c0-0.9,0-1.8,0-2.7c0-0.1,0-0.3,0-0.5
		C142.3,20.6,140.2,20.6,138.2,20.6z M6.1,38C6,36.5,6,35.1,5.9,33.7c-1.8,0-3.5,0-5.3,0c0,0.1,0,0.2,0,0.3c0,0.6,0,1.3,0,1.9
		c0,0.8,0,1.5,0,2.3c0,0.4,0,0.5,0.5,0.5c0.3,0,0.6,0,0.9,0c0.2,0,0.4,0,0.5-0.3C2.4,38.2,2.6,38,3,38c0.2,0,0.4,0,0.6,0
		C4.4,38,5.3,38,6.1,38z M2.4,20.5c0.2,0,0.3,0,0.4,0c1.4,0,2.9,0,4.3,0c0.5,0,0.7,0.1,0.8,0.5C8,21.4,8,21.8,7.7,22.2
		c-0.4,0.5-0.8,1.1-1.3,1.6c-0.1,0.1-0.2,0.3-0.2,0.5c0,0.8,0,1.7,0,2.5c0,0.7-0.2,0.9-1,0.9c-0.7,0-1.5,0-2.2,0c-0.1,0-0.2,0-0.3,0
		c0,0.1,0,0.2,0,0.3c0,0.5,0,0.4,0.5,0.4c1.3,0,2.6,0,3.9,0c0.6,0,0.7-0.1,0.7-0.6c0-1.1,0-2.1,0-3.2c0-0.6,0.2-1,0.7-1.3
		c0.5-0.3,1-0.7,1.4-1.1c0.2-0.1,0.3-0.3,0.3-0.6c0-0.4,0-0.8,0-1.2c0-0.5-0.1-0.6-0.7-0.6c-2.3,0-4.6,0-6.8,0c-0.1,0-0.2,0-0.3,0
		C2.4,20,2.4,20.3,2.4,20.5z M2.4,21c0.1,2.1,0.2,4.2,0.4,6.3c0.9,0,1.8,0,2.7,0c0.2,0,0.3-0.1,0.3-0.3c0-0.9,0-1.7,0-2.6
		c0-0.3,0.1-0.6,0.3-0.9c0.4-0.5,0.8-1,1.2-1.6c0.1-0.2,0.1-0.5,0.1-0.7C7.4,21.1,7,21,6.8,21c-0.7,0-1.4,0-2.1,0
		C3.9,21,3.2,21,2.4,21z M64.6,2c0.5-0.2,1-0.3,1.5-0.5c1.4-0.3,2.8-0.4,4.2-0.4c1.9,0,3.8-0.1,5.7,0c0.7,0.1,1.4,0,2,0
		c2.7,0,5.3,0.1,8,0.1c2.3,0,4.6,0.3,6.6,1.5c0.1,0,0.2,0,0.3,0c1.1-0.1,2.2-0.2,3.3-0.3c0.1,0,0.2,0,0.3,0
		c-0.2-0.1-0.3-0.1-0.4-0.2c-1.6-0.7-3.3-1-5-1.2c-3.5-0.4-7-0.5-10.6-0.6c-1.6,0-3.3,0-5,0c-2.5,0-4.9,0-7.4,0.1
		c-0.9,0-1.7,0.2-2.6,0.4C65.2,1.1,64.8,1.5,64.6,2z M67,39.2c-0.1-2.5-0.2-4.9-0.3-7.3c-1,0-1.9,0-2.8,0c0,0.1,0,0.2,0,0.3
		c0.1,1.5,0.2,3,0.3,4.4c0,0.5,0.1,1,0.2,1.4c0.1,0.5,0.5,0.9,1.1,1C65.9,39.2,66.4,39.2,67,39.2z M2.5,15.6
		C2.5,15.7,2.5,15.7,2.5,15.6c20.1,0.1,40.1,0.1,60.2,0.1c-0.1-0.3-0.4-0.2-0.7-0.2c-19.6,0-39.2,0-58.8,0c-0.1,0-0.2,0-0.3,0
		C2.7,15.5,2.6,15.6,2.5,15.6z M116.9,16.3c-1-0.5-1.9-1-2.7-1.7c-0.1-0.1-0.2-0.1-0.3-0.1c-1.8,0-3.7,0-5.5,0c-0.1,0-0.2,0-0.3,0
		c0.1,0.6,0.2,1.2,0.3,1.8C111.2,16.3,114,16.3,116.9,16.3z M146.7,39.4c-2.1,0.1-4.3,0.1-6.4,0.2c0,0.8,0,1.6,0,2.5
		c0,0.4,0,0.8,0,1.3c0,0.2,0.1,0.3,0.3,0.2c0.3,0,0.7,0,1.1,0c0.8,0,0.9,0.2,0.9-0.9c0-0.5,0-1,0-1.5c0-0.5,0.2-0.7,0.7-0.8
		c0.3,0,0.7-0.1,1-0.1C145.2,40.3,146,40,146.7,39.4z M1.3,39.2c0,0.4,0,0.7,0,1c0,0.2,0.1,0.3,0.3,0.3c0.3,0,0.6,0,0.9,0
		c0.6,0,1.2,0,1.7,0c0.2,0,0.4,0,0.4-0.2c0-0.6,0-1.2,0-1.9c-0.5,0-1,0-1.4,0c-0.2,0-0.4,0.1-0.5,0.3c-0.1,0.3-0.4,0.5-0.7,0.5
		C1.8,39.2,1.6,39.2,1.3,39.2z M146.4,24c-0.1-1.2-0.1-2.5-0.2-3.7c-0.5,0-0.9,0-1.3,0c0,1.2,0,2.5,0,3.7
		C145.4,24,145.9,24,146.4,24z M146.5,26.1c-0.6,0-1.1,0-1.6,0c0,0.9,0,1.8,0,2.8c0.6,0,1.2,0.1,1.6,0.6c0,0,0.1,0,0.1,0
		C146.6,28.2,146.5,27.1,146.5,26.1z M0.6,33.2c1.7,0,3.5,0,5.3,0c0-0.2-0.1-0.5-0.1-0.7c-0.4,0-0.7,0-1.1,0c-1.2,0-2.3,0-3.5,0
		C0.8,32.5,0.6,32.8,0.6,33.2z M137.6,20.1c-0.7,0-0.7,0-0.7,0.7c0,0,0,0.1,0,0.1c-0.1,0.5,0.2,0.8,0.6,1.1c0.9,0.7,1.8,1.4,2.8,2.2
		c0.6,0.5,0.9,1,0.9,1.8c0,0.6,0,1.2,0.1,1.8c0.1,0.6,0.3,0.8,0.9,0.9c0.7,0,1.4,0,2.1,0c0.1,0,0.1-0.1,0.2-0.1c0,0,0,0-0.1-0.1
		c-0.1,0-0.2,0-0.3,0c-0.6,0-1.3,0-1.9,0c-0.6,0-0.8-0.2-0.8-0.7c0-0.3-0.1-0.6,0-0.9c0.2-1.4-0.3-2.6-1.6-3.5
		c-0.6-0.4-1.1-0.9-1.7-1.3c-0.3-0.2-0.4-0.5-0.4-0.8C137.6,21,137.6,20.6,137.6,20.1z M146.4,25.5c0-0.3,0-0.5,0-0.8
		c0-0.1-0.1-0.2-0.2-0.2c-0.6,0-1.2,0-1.7,0c-0.1,0-0.3,0.1-0.3,0.2c0,0.2-0.2,0.5,0.1,0.8c0,0,0.1,0,0.1,0
		C145.1,25.5,145.7,25.5,146.4,25.5z M147.1,30.2c0.3-0.1,0.3-0.1,0.3-0.4c0-0.3,0-0.6,0-1c0-0.2-0.1-0.3-0.3-0.3
		C147.1,29.1,147.1,29.7,147.1,30.2z M149.3,36.7C149.3,36.7,149.3,36.7,149.3,36.7c0.1-0.9,0.1-1.8,0.1-2.8c0,0-0.1,0-0.1,0
		C149.3,34.9,149.3,35.8,149.3,36.7z M147,25.8c0,0,0.1,0,0.1,0c0-0.5,0.1-1-0.1-1.5C147,24.9,147,25.3,147,25.8z M5.5,31.9
		C5.5,31.9,5.5,31.9,5.5,31.9c-0.4-0.1-0.7-0.1-1.1-0.1c0,0,0,0.1,0,0.1C4.8,31.9,5.1,31.9,5.5,31.9z"/>
	<path d="M34.7,19.8c5.5,0.1,9.8,1.7,13.3,5c1.6,1.5,2.9,3.3,3.8,5.3c0.1,0.2,0.3,0.4-0.1,0.5c-0.3,0.1-0.4-0.2-0.5-0.4
		c-2.5-5.3-6.8-8.6-12.8-9.7c-6.4-1.1-12,0.7-16.6,5.1c-1.4,1.3-2.5,2.9-3.3,4.6c0,0-0.1,0.1-0.1,0.1c-0.1,0.2-0.2,0.3-0.4,0.2
		c-0.1,0-0.1-0.2-0.1-0.4c0-0.2,0.1-0.3,0.2-0.5c2.9-5.4,7.6-8.6,13.9-9.7C33.2,19.9,34.2,19.8,34.7,19.8z"/>
	<path d="M99.1,19.3c-1.9,0-3.7,0-5.6,0c-0.9,0-1.8,0-2.7-0.2c-0.7-0.2-1.4-0.5-2.1-0.8c-0.7-0.3-1.3-0.6-2-0.9
		c-0.8-0.4-1.7-0.6-2.7-0.6c-2.7,0-5.4,0-8.1,0c-1.7,0-3.4-0.4-4.9-1.2c-0.8-0.5-1.2-1.1-1.2-2c0-2.5,0-4.9,0-7.3
		c0-0.4,0.1-0.9,0.2-1.3c0.3-1,0.9-1.6,2-1.7c0.3,0,0.6,0,0.9,0c3.5,0,7.1,0,10.6,0c3.1,0,5.9,0.6,8.5,2.1c4.3,2.3,8.5,4.9,12.4,7.8
		c0.3,0.2,0.5,0.4,0.8,0.6c0.7,0.6,1.2,1.3,1.4,2.2c0.2,0.8,0.3,1.6,0.4,2.5c0.1,0.8-0.3,1.2-1.2,1.2
		C103.7,19.3,101.4,19.3,99.1,19.3L99.1,19.3z M70.5,5.3c0.1-0.1,0.1-0.3,0.1-0.4c0.2-0.6,0.6-1,1.2-1.1c0.2,0,0.4-0.1,0.6-0.1
		c1.4,0,2.9,0,4.3,0c2.5,0,5.1,0,7.6,0c1.3,0,2.6,0.1,3.9,0.5c1.4,0.4,2.7,1,3.9,1.7c2.6,1.5,5.2,3.2,7.9,4.7c0.4,0.2,0.7,0.5,0.6,1
		c0,0,0,0,0,0c0.5,0,1,0.1,1.5,0.1c0,0-0.1-0.1-0.1-0.1c-3.3-2.2-6.7-4.3-10.3-6.3c-2.6-1.4-5.3-2-8.3-2c-3.5,0-7,0-10.5,0
		c-0.3,0-0.6,0-0.9,0C71.2,3.6,70.5,4.3,70.5,5.3c0,0.2-0.1,0.5-0.1,0.7c0,2.5,0,4.9,0,7.4c0,0.2,0,0.3,0,0.5
		c0.1-2.6,0.1-5.2,0.1-7.8C70.5,5.8,70.5,5.5,70.5,5.3z M100.2,11.7c0,0,0.1-0.1,0.1-0.1c-0.1-0.1-0.1-0.3-0.2-0.4
		c-2.2-1.3-4.3-2.7-6.5-4c-1.1-0.6-2.3-1.2-3.4-1.8c-2-1-4.2-1.3-6.5-1.3c-3.6,0-7.1,0-10.7,0c-0.3,0-0.6,0-1,0.1
		c-0.4,0-0.7,0.3-0.8,0.7c-0.1,0.4-0.2,0.7-0.2,1.1c0,2.4,0,4.9,0,7.3c0,0.6,0.2,0.9,0.8,1.2c1.4,0.7,2.9,1,4.5,1c2.6,0,5.3,0,7.9,0
		c1,0,1.9,0.2,2.8,0.6c1,0.4,2,0.9,2.9,1.4c0.8,0.4,1.7,0.6,2.6,0.6c2.1,0,4.3,0,6.4,0c0.1,0,0.2,0,0.3,0c0,0,0-0.1,0-0.1
		c0,0-0.1-0.1-0.1-0.1c-0.7-0.4-1-1-1-1.8c0-0.7,0-1.5,0-2.2c0-0.5,0.1-1,0.2-1.4c0.1-0.5,0.5-0.8,1-0.8
		C99.6,11.7,99.9,11.7,100.2,11.7z M104.1,15.1c0,0.1,0,0.2,0,0.3c0,0.4,0,0.8,0,1.2c0,0.1-0.1,0.2-0.2,0.3
		c-0.1-0.1-0.2-0.1-0.3-0.2c-0.1,0,0-0.1,0-0.2c0-0.8,0-1.6,0-2.4c0-0.4-0.1-0.7-0.3-1c-0.5-0.5-1-0.8-1.8-0.8c-0.6,0-1.2,0-1.9,0
		c-0.7,0-0.9,0.1-1,0.8c-0.1,0.9-0.1,1.9-0.1,2.9c0,1.2,0.7,2,2,2.2c1,0.1,1.9,0.1,2.9,0c1.1-0.1,1.9-1.2,1.6-2.2
		C104.9,15.4,104.7,15.2,104.1,15.1z M72.4,15.4c1.1,0.5,2.3,0.7,3.4,0.7c2.7,0,5.5,0,8.2,0c1,0,2,0.2,2.9,0.6
		c0.8,0.4,1.7,0.8,2.5,1.2c0.8,0.4,1.6,0.7,2.6,0.7c0.4,0,0.9,0,1.3,0c4.2,0,8.4,0,12.6,0c0.6,0,0.8-0.2,0.7-0.7
		c-0.1-0.7-0.2-1.3-0.3-2c-0.2-1.5-1.3-2.4-2.4-3.2c0.1,0.5,0.1,1,0.2,1.5c0,0.1,0.2,0.2,0.2,0.2c0.6,0.1,1,0.5,1.1,1.1
		c0.3,1.5-0.8,2.7-2.3,2.8c-1,0-2,0-3,0c-2.6,0-5.2,0-7.8,0c-0.7,0-1.4,0-2.1-0.3c-1-0.4-1.9-0.9-2.9-1.4c-1.1-0.6-2.4-0.9-3.7-0.9
		c-2.6,0-5.2,0-7.9,0c-0.1,0-0.2,0-0.3,0C74.5,15.9,73.4,15.8,72.4,15.4z"/>
	<path d="M71.9,19.5c0.9,0,1.8,0,2.7,0c0.8,0,1.1,0.3,1.1,1.1c0,0.5,0,0.9,0,1.4c0,0.6-0.2,0.8-0.8,0.9c-0.5,0-1,0-1.5,0
		c-1.4,0-2.7,0-4.1,0c-0.8,0-1.1-0.3-1.1-1c0-0.5,0-0.9,0-1.4c0-0.7,0.3-1,1.1-1C70.1,19.5,71,19.5,71.9,19.5z M69.2,20.9
		c0,0.1,0,0.1,0,0.2c0,0.5,0,0.5,0.5,0.5c1.5,0,2.9,0,4.4,0c0.6,0,0.6,0,0.6-0.6c0,0,0,0-0.1-0.1C72.8,20.9,71,20.9,69.2,20.9z
		 M68.7,20.6c0.2,0,0.4-0.1,0.6-0.1c1.7,0,3.4,0,5.2,0c0.2,0,0.4,0.1,0.6,0.2c0.1-0.5,0-0.6-0.6-0.6c-1.7,0-3.5,0-5.3,0
		C68.7,20,68.7,20.1,68.7,20.6z M75.1,21.9c-0.3,0-0.6,0.1-0.9,0.1c-1.5,0-3.1,0-4.6,0c-0.3,0-0.6-0.1-0.9-0.1c0,0.4,0,0.5,0.4,0.5
		c1.8,0,3.6,0,5.5,0C75.1,22.4,75.2,22.3,75.1,21.9z"/>
	<path d="M104.4,29.6c0.6,0,1.2,0,1.8,0c0.3,0,0.4,0.1,0.4,0.3c0,0.2,0,0.4,0,0.7c0,0.2-0.1,0.3-0.3,0.3c-1.2,0-2.4,0-3.7,0
		c-0.3,0-0.4-0.1-0.4-0.4c0-0.2,0-0.4,0-0.6c0-0.3,0.1-0.4,0.4-0.4C103.2,29.6,103.8,29.6,104.4,29.6L104.4,29.6z M102.7,30.4
		c1.1,0,2.2,0,3.3,0c0-0.1,0-0.2,0-0.3c-1.1,0-2.2,0-3.3,0C102.7,30.3,102.7,30.4,102.7,30.4z"/>
	<path d="M125.9,46.3c-4.1,0.1-8.2-3-8.1-7.7c0.1-4.2,3.8-7.6,8.3-7.5c4.4,0.1,8,3.5,7.9,7.7C133.9,42.9,130.3,46.3,125.9,46.3z
		 M118.3,38.8c-0.1,3.8,3.6,7.2,7.9,7c4.1-0.2,7.4-3.4,7.2-7.4c-0.2-4.1-4-7-8-6.7C121.1,31.8,118.2,35.4,118.3,38.8z"/>
	<path d="M43.3,38.7c0,4.2-3.6,7.6-8.2,7.6c-4.5,0-8.1-3.4-8.1-7.6c0-4.1,3.7-7.6,8.3-7.5C39.7,31.2,43.3,34.5,43.3,38.7z
		 M42.8,38.7c0-4-3.4-7.1-7.5-7.1c-4.2-0.1-7.7,3.2-7.7,7.1c0,3.9,3.4,7.1,7.6,7.1C39.4,45.8,42.8,42.7,42.8,38.7z"/>
	<path d="M147.9,35.5c0,0.5,0,1,0,1.5c0,0.6-0.3,0.9-1,0.9c-0.9,0.1-1.5-0.2-1.9-0.9c-0.3-0.4-0.5-0.8-0.5-1.4c0.1-0.5,0-1.1,0-1.6
		c0-0.6,0.3-0.8,0.9-0.8c0.5,0,1,0,1.6,0c0.7,0,0.9,0.2,0.9,0.9C147.9,34.5,147.9,35,147.9,35.5L147.9,35.5z M147.4,35.5L147.4,35.5
		c0-0.5,0-1,0-1.5c0-0.2-0.1-0.3-0.4-0.3c-0.5,0-1,0-1.6,0c-0.3,0-0.4,0.1-0.4,0.4c0,0.5,0,1.1,0,1.6c0,0.4,0.1,0.7,0.3,1
		c0.3,0.5,0.7,0.9,1.5,0.8c0.4,0,0.5-0.1,0.5-0.5C147.4,36.5,147.4,36,147.4,35.5z"/>
	<path d="M133,38.6c0.1,3.2-2.4,6.5-6.8,6.8c-3.9,0.2-7.2-2.6-7.4-6.2c-0.2-4,3.1-6.9,6.6-7.1C129.6,31.9,132.8,34.7,133,38.6z
		 M123,33.2c0.1,0,0.1,0.1,0.1,0.1c0.5,0.5,0.6,1,0.2,1.6c-0.3,0.4-0.7,0.8-1.1,1.2c-0.6,0.5-1.5,0.6-2.1,0c0,0,0,0-0.1,0
		c-0.1,0.2-0.2,0.4-0.3,0.6c1,0.1,1.5,0.5,1.6,1.3c0.1,0.5,0.1,1.1-0.1,1.7c-0.1,0.6-0.6,1-1.4,1c-0.1,0-0.1,0-0.2,0
		c0.1,0.3,0.2,0.5,0.3,0.8c0.7-0.6,1.4-0.7,2-0.2c0.5,0.3,0.9,0.7,1.2,1.2c0.5,0.6,0.4,1.2-0.2,1.7c0,0-0.1,0.1-0.1,0.1
		c0.1,0,0.3,0.1,0.4,0.1c0.1,0,0.2,0.1,0.4,0.1c0.1-1,0.5-1.4,1.4-1.5c0.5,0,1.1,0,1.6,0c0.6,0.1,1.1,0.5,1.1,1.1c0,0.1,0,0.2,0,0.4
		c0.3-0.1,0.5-0.2,0.8-0.3c-0.7-0.8-0.7-1.5,0.1-2.2c0.2-0.2,0.4-0.4,0.6-0.5c0.8-0.7,1.5-0.7,2.4,0c0.1-0.2,0.2-0.5,0.3-0.7
		c-1.1-0.1-1.5-0.4-1.6-1.4c-0.1-0.4-0.1-0.8,0-1.2c0.1-0.4,0.2-0.9,0.7-1.1c0.3-0.1,0.6-0.2,0.9-0.3c-0.1-0.2-0.2-0.4-0.3-0.6
		c-0.9,0.7-1.5,0.6-2.4-0.1c-0.3-0.2-0.5-0.4-0.7-0.7c-0.6-0.7-0.6-1.3,0-2c0,0,0,0,0-0.1c-0.2-0.1-0.5-0.2-0.7-0.3
		c-0.1,0.9-0.4,1.3-1.2,1.5c-0.6,0.1-1.2,0.1-1.8,0c-0.7-0.1-1.1-0.6-1.2-1.3c0,0,0-0.1,0-0.1C123.5,33,123.3,33.1,123,33.2z
		 M130.7,41.4c-0.2,0-0.3,0-0.4,0.1c-0.6,0.3-1.1,0.7-1.4,1.3c-0.2,0.4-0.1,0.7,0.2,1c0.2,0.1,0.3,0.1,0.5,0c0.7-0.4,1.3-1,1.7-1.6
		c0.2-0.3,0.2-0.4-0.1-0.6C131.1,41.5,130.9,41.4,130.7,41.4z M121.1,41.3c-0.2,0.1-0.4,0.2-0.6,0.3c-0.2,0.1-0.2,0.3-0.1,0.5
		c0.5,0.7,1.1,1.2,1.8,1.7c0.1,0,0.2,0.1,0.3,0c0.3-0.1,0.5-0.4,0.5-0.7C123.1,42.6,121.8,41.4,121.1,41.3z M130.8,36
		c0.2-0.1,0.3-0.1,0.5-0.3c0.2-0.1,0.2-0.3,0.1-0.5c-0.5-0.6-1.1-1.2-1.8-1.7c-0.2-0.1-0.3-0.1-0.5,0c-0.3,0.2-0.4,0.6-0.2,0.9
		c0.3,0.6,0.8,1,1.4,1.4C130.4,36,130.6,36,130.8,36z M125.9,34c0.3,0,0.6,0,0.9-0.1c0.4-0.1,0.6-0.4,0.6-0.8c0-0.2-0.1-0.3-0.3-0.3
		c-0.8-0.1-1.7-0.2-2.6,0c-0.2,0-0.2,0.1-0.3,0.3c-0.1,0.4,0.2,0.8,0.6,0.9C125.3,33.9,125.6,33.9,125.9,34z M125.9,44.8
		c0.4,0,0.8-0.1,1.3-0.1c0.2,0,0.3-0.1,0.3-0.3c0-0.4-0.2-0.7-0.6-0.8c-0.6-0.2-1.3-0.2-1.9,0c-0.4,0.1-0.6,0.4-0.6,0.8
		c0,0.2,0.1,0.3,0.3,0.3C125.1,44.7,125.5,44.8,125.9,44.8z M132.5,38.7c-0.1-0.4-0.1-0.8-0.2-1.2c0-0.1-0.2-0.2-0.3-0.2
		c-0.5-0.1-0.9,0.1-1,0.6c-0.1,0.5-0.1,1.1,0,1.6c0.1,0.4,0.5,0.7,0.9,0.6c0.2,0,0.3-0.1,0.3-0.3C132.4,39.5,132.4,39.1,132.5,38.7z
		 M120.8,38.8c0-0.3,0-0.4,0-0.6c0-0.1,0-0.2-0.1-0.3c-0.1-0.4-0.5-0.7-0.9-0.6c-0.2,0-0.3,0.1-0.3,0.3c-0.2,0.7-0.1,1.5-0.1,2.2
		c0.1,0.4,0.2,0.5,0.6,0.4c0.4-0.1,0.6-0.3,0.7-0.6C120.8,39.2,120.8,39,120.8,38.8z M123.1,34.2c-0.1-0.2-0.2-0.4-0.4-0.6
		c-0.1-0.1-0.2-0.1-0.4,0c-0.7,0.5-1.4,1.1-1.9,1.8c-0.1,0.1-0.1,0.3,0,0.4c0.3,0.3,0.8,0.4,1.2,0.1c0.4-0.3,0.8-0.7,1.1-1
		C122.9,34.6,122.9,34.4,123.1,34.2z"/>
	<path d="M28.1,39c-0.2-3.8,2.9-6.7,6.5-6.9c4-0.3,7.4,2.5,7.6,6.2c0.2,3.7-2.7,6.9-6.7,7.1C31.4,45.5,28.2,42.5,28.1,39z
		 M32.3,33.2c0.5,0.4,0.7,0.8,0.5,1.3c-0.3,0.9-1.1,1.5-2,1.9c-0.1,0-0.1,0-0.2,0c-0.5,0.1-1-0.1-1.3-0.5c-0.1,0.2-0.2,0.5-0.3,0.7
		c1.1,0.1,1.5,0.5,1.6,1.5c0,0.3,0,0.6,0,1c-0.1,1-0.5,1.4-1.6,1.5c0.1,0.2,0.2,0.5,0.3,0.7c0.8-0.6,1.5-0.7,2.3,0
		c0.3,0.3,0.7,0.6,1,1c0.5,0.6,0.4,1.2-0.1,1.8c0,0-0.1,0.1-0.1,0.1c0.3,0.1,0.5,0.2,0.7,0.3c0.1-0.9,0.5-1.4,1.2-1.5
		c0.6-0.1,1.3-0.1,1.9,0c0.6,0.1,1.1,0.5,1.1,1.1c0,0.1,0,0.2,0,0.3c0.3-0.1,0.5-0.2,0.8-0.3c-0.6-0.5-0.7-1.1-0.4-1.7
		c0.4-0.7,1-1.2,1.7-1.5c0.5-0.2,0.9-0.1,1.3,0.1c0.1,0.1,0.2,0.1,0.3,0.2c0.1-0.2,0.2-0.5,0.3-0.7c-1.1,0-1.5-0.4-1.6-1.4
		c-0.1-0.3-0.1-0.7,0-1c0.1-0.6,0.2-1.1,0.8-1.4c0.2-0.1,0.5-0.1,0.8-0.2c-0.1-0.2-0.2-0.4-0.3-0.6c-0.8,0.6-1.5,0.6-2.3,0
		c-0.2-0.2-0.4-0.3-0.6-0.5c-0.3-0.3-0.6-0.7-0.6-1.2c0-0.4,0.2-0.8,0.5-1.1c-0.1,0-0.2-0.1-0.4-0.1c-0.1,0-0.2-0.1-0.3-0.1
		c-0.1,0.9-0.4,1.3-1.2,1.4c-0.7,0.1-1.3,0.1-2,0c-0.7-0.1-1-0.6-1.1-1.2c0,0,0-0.1,0-0.2c-0.1,0-0.2,0-0.2,0
		C32.7,33,32.5,33.1,32.3,33.2z M38,43.2c0.1,0.1,0.1,0.3,0.2,0.4c0.2,0.3,0.4,0.4,0.8,0.2c0.6-0.4,1.2-0.9,1.6-1.5
		c0.2-0.3,0.2-0.5-0.2-0.7c-0.3-0.1-0.6-0.1-0.8,0c-0.6,0.3-1,0.7-1.4,1.2C38.1,42.8,38.1,43,38,43.2z M32.3,43.1c0,0,0-0.1-0.1-0.2
		c-0.3-0.6-0.9-1.2-1.6-1.5c-0.3-0.1-0.8,0-1,0.3c-0.1,0.1-0.1,0.2,0,0.3c0.5,0.7,1.1,1.3,1.9,1.8c0.1,0,0.2,0,0.3,0
		C32.1,43.7,32.3,43.5,32.3,43.1z M32.3,34.2c-0.1-0.2-0.3-0.4-0.5-0.6c-0.1,0-0.2,0-0.3,0c-0.8,0.5-1.4,1-1.9,1.8
		c-0.1,0.1-0.1,0.2,0,0.3c0.3,0.4,0.8,0.5,1.2,0.2c0.4-0.3,0.8-0.7,1.2-1.1C32.2,34.6,32.2,34.4,32.3,34.2z M35.2,33.9
		c0.3,0,0.6,0,1-0.1c0.5-0.1,0.7-0.5,0.6-0.9c0-0.2-0.1-0.2-0.3-0.3c-0.8-0.1-1.6-0.2-2.4,0c-0.5,0.1-0.6,0.3-0.4,0.7
		c0.1,0.3,0.3,0.4,0.6,0.5C34.5,33.9,34.8,33.9,35.2,33.9z M39.9,36c0.1,0,0.2,0,0.3-0.1c0.5-0.2,0.5-0.4,0.2-0.8
		c-0.5-0.5-1-1-1.6-1.5c-0.3-0.3-0.6-0.2-0.8,0.2c-0.1,0.2-0.1,0.5,0,0.7c0.3,0.6,0.8,1,1.4,1.3C39.6,36,39.8,36,39.9,36z
		 M35.1,44.8c0.4,0,0.8-0.1,1.2-0.1c0.4,0,0.6-0.2,0.4-0.6c-0.1-0.3-0.3-0.5-0.6-0.6c-0.7-0.2-1.3-0.2-2,0c-0.4,0.1-0.6,0.5-0.6,0.9
		c0,0.2,0.1,0.3,0.3,0.3C34.3,44.7,34.7,44.8,35.1,44.8z M41.8,38.7c-0.1-0.3-0.1-0.7-0.1-1c-0.1-0.5-0.5-0.6-0.9-0.3
		c-0.1,0.1-0.3,0.2-0.3,0.4c-0.2,0.6-0.2,1.3,0,1.9c0.1,0.4,0.5,0.6,0.9,0.5c0.1,0,0.3-0.1,0.3-0.2C41.7,39.5,41.7,39.1,41.8,38.7z
		 M28.6,38.8L28.6,38.8c0.1,0.3,0.1,0.6,0.1,0.9c0.1,0.5,0.3,0.6,0.8,0.4c0.2-0.1,0.4-0.3,0.5-0.5c0.2-0.6,0.2-1.2,0-1.8
		c-0.1-0.4-0.5-0.6-0.9-0.5c-0.1,0-0.2,0.1-0.3,0.2C28.7,37.9,28.6,38.3,28.6,38.8z"/>
	<path d="M125.9,42.1c-1.7,0-3.6-1.1-3.7-3.5c-0.1-1.9,1.6-3.4,3.7-3.4c2.1,0,3.7,1.5,3.7,3.4C129.6,40.6,128,42.1,125.9,42.1z
		 M125.9,41.6c1.7,0,3.2-1.3,3.2-3s-1.4-3-3.2-3c-1.7,0-3.2,1.3-3.2,2.9C122.8,40.3,124.2,41.6,125.9,41.6z"/>
	<path d="M35.2,42.1c-2,0-3.7-1.5-3.7-3.5c0-1.9,1.7-3.4,3.7-3.4s3.7,1.5,3.7,3.4C38.9,40.6,37.2,42.1,35.2,42.1z M38.3,38.7
		c0-1.6-1.4-2.9-3.2-2.9c-1.7,0-3.2,1.3-3.2,2.9c0.1,1.9,1.6,3,3.2,3C36.9,41.6,38.3,40.3,38.3,38.7z"/>
	<path d="M123.7,38.7c0-1.2,0.9-2.1,2.1-2.1c1.3,0,2.3,0.9,2.3,2.1c0,1.2-1,2.1-2.3,2.1C124.6,40.8,123.6,39.8,123.7,38.7z
		 M125.8,37.1c-0.9,0-1.6,0.7-1.7,1.6c0,0.9,0.8,1.6,1.7,1.6c1,0,1.8-0.8,1.7-1.6C127.6,37.8,126.8,37.1,125.8,37.1z"/>
	<path d="M37.4,38.7c0,1.2-1,2.1-2.3,2.1c-1.2,0-2.2-1-2.2-2.1c0-1.1,1-2.1,2.2-2.1C36.4,36.6,37.4,37.5,37.4,38.7z M35.2,37.1
		c-1,0-1.7,0.7-1.7,1.6c0,0.9,0.7,1.6,1.7,1.6c0.9,0,1.7-0.7,1.7-1.6C36.9,37.8,36.1,37.1,35.2,37.1z"/>
</g>
</svg>
