<?xml version="1.0" encoding="utf-8"?>
<!-- Generator: Adobe Illustrator 27.4.0, SVG Export Plug-In . SVG Version: 6.00 Build 0)  -->
<svg version="1.1" id="Layer_1" xmlns="http://www.w3.org/2000/svg" xmlns:xlink="http://www.w3.org/1999/xlink" x="0px" y="0px"
	 viewBox="0 0 615.1 201.2" style="enable-background:new 0 0 615.1 201.2;" xml:space="preserve">
<g>
	<path d="M477.2,161c-0.6,0.3-1.1,0.5-1.6,0.8c-3.9,1.9-8,2.8-12.3,2.8c-17.6,0-35.1,0-52.7,0c-10.1,0-20.1-0.1-30.2-0.2
		c-12.8-0.1-25.7-0.1-38.5-0.2c-8.9,0-17.8-0.1-26.8-0.1c-11.6-0.1-23.2-0.1-34.8-0.2c-27.3,0-54.7-0.1-82,0
		c-5.8,0-11.4-0.5-16.9-2.2c-0.6-0.2-1.3-0.3-2.1-0.5c-0.2,1.5-0.4,2.9-0.7,4.2c-3.4,18-18.5,32.3-36.4,34.5
		c-14,1.7-26-2.5-36.1-12.4c-5.7-5.6-9.3-12.4-11.2-20.2c-0.3-1.3-0.8-1.6-2.1-1.6c-17.5,0-35,0-52.6,0c-1.1,0-2.1-0.1-3.2-0.2
		c-3-0.5-5.2-1.9-6.2-5c-0.2,0-0.4,0-0.5,0c-3.1,0-3.8-0.6-4.2-3.7c0-0.3-0.3-0.7-0.5-1c-0.1,0.4-0.4,0.7-0.4,1.1
		c-0.1,2.2,0,4.5-0.1,6.7c0,1.5-0.8,2.3-2.3,2.4c-2,0.1-4,0-6,0c-1.7,0-3.5,0.1-5.2,0c-2-0.1-2.8-1-2.8-3c0-1.4,0-2.7,0-4
		c-2.5-1-2.8-1.6-2.8-4.2c0-6.7,0.1-13.4,0.1-20.2c0-3.1,1.5-4.8,4.5-5c2.7-0.1,5.5-0.1,8.2-0.1c0.4,0,0.8,0,1.2-0.1
		c0-0.1,0.1-0.2,0.1-0.3c-0.2-0.2-0.4-0.4-0.6-0.4c-3.5-0.4-4.1-2.3-4.4-5.3c-0.5-5.4-0.9-10.8-1.2-16.1c-0.4-7.1-1-14.3-1.1-21.4
		c-0.1-7.3,0.2-14.6,0.4-21.9c0.1-1.8,1.4-3,3.2-3.1c0.4,0,0.9,0,1.3,0c72.5,0,144.9,0,217.4,0c0.4,0,0.7,0,1.1,0
		c0.9,0.1,1.2-0.2,1.3-1.2c1.2-12.7,2.4-25.3,3.8-37.9c0.4-4,1.3-7.9,2-11.8c1-5.3,4.6-7.6,9.5-8.2c4.4-0.6,8.8-1.1,13.1-1.1
		c19.7-0.1,39.4-0.2,59,0c14.1,0.1,28.3,0.4,42.4,0.9c10.5,0.3,20.9,1.2,31.2,3.3c4.8,1,9.5,2.3,13.9,4.7c1,0.6,2.1,1,2.6,2.3
		c0.1,0.3,0.7,0.5,1,0.8c18.5,10.9,36.6,22.5,54.3,34.6c4.4,3,8.8,6.1,13.3,9.1c0.4,0.3,1,0.5,1.5,0.5c6.1-0.5,12.1,0.2,18.1,0.6
		c8.7,0.6,17.4,1.3,26.1,2.1c12.8,1.3,25.6,2.5,38.4,4.1c6.2,0.8,12.5,1.8,18.2,4.5c2.5,1.2,4.9,2.7,7.2,4.3c2.3,1.6,3.5,4,3.8,6.9
		c0.1,0.8,0.2,1.4,1,1.9c0.4,0.3,0.7,1,0.8,1.5c0.3,1.7,0.5,3.4,0.7,5.1c0.1,1.1-0.3,1.9-1.1,2.6c-0.3,0.3-0.5,0.9-0.6,1.4
		c-0.1,0.6,0.1,1.2,0.1,1.8c0,1.5-0.1,2.9,1.7,3.6c0.6,0.2,1,1.4,1.1,2.2c0.2,1.6,0.1,3.3,0,4.9c0,1.1-0.5,2.1-1.5,2.5
		c-0.7,0.3-0.8,0.7-0.7,1.4c0.1,0.6,0.1,1.2,0.1,1.8c0,1.9,0,3.8,2.4,4.5c0.5,0.2,1,1.3,1,2c0.1,1.7,0.1,3.5,0,5.3
		c0,1.4-0.8,2.2-2.1,2.6c-0.9,0.3-1.1,0.7-1,1.6c0,0.6,0,1.3-0.1,2c1,0.2,2,0.3,3,0.5c3,0.7,4.5,2.6,4.9,5.7c0,0.4,0.3,0.9,0.7,1
		c1.3,0.6,1.8,1.6,1.9,2.9c0,3.3,0,6.6-0.1,10c0,1.3-0.6,2.2-1.8,2.7c-0.4,0.2-0.7,0.7-0.8,1.1c-0.2,0.9-0.2,1.8-0.3,2.7
		c-0.5,2.5-1.6,3.6-4,4c-1.1,0.2-1.9,0.6-2.6,1.4c-3.3,3.8-7.7,5.1-12.4,5.6c-3.6,0.4-3.5,0.4-3.4,4.1c0,2.1,0,4.2-0.2,6.3
		c-0.2,1.8-1.1,2.5-2.9,2.6c-2.1,0-4.2,0-6.4,0c-1.7,0-2.5-0.7-2.7-2.4c-0.2-1.8-0.2-3.6-0.2-5.4c0-3.4,0-6.7,0-10.1
		c0-0.3,0-0.6-0.1-0.8c-0.4-0.8-0.8-1.5-1.2-2.4c-2.1,0-4.5,0-6.9,0c-0.8,14.9-6.9,26.8-19.1,35.2c-7.7,5.4-16.4,7.8-25.7,7.4
		C497.5,199.5,479.6,183.5,477.2,161z M267.7,22c0.1-0.4,0.3-0.8,0.4-1.2c0.9-3.5,2.5-5,6.1-5.3c1.1-0.1,2.2-0.1,3.3-0.1
		c8.1,0,16.2,0,24.3,0c4,0,8,0,12,0c2.7,0,5.4,0,8.1,0c0.3,0,0.7-0.2,1-0.3c0-0.2-0.1-0.3-0.1-0.5c-0.5,0-0.9,0-1.4,0
		c-14.7,0-29.4,0-44.1,0c-1.1,0-2.2,0.1-3.3,0.2C270,15.4,267.7,18.1,267.7,22c-0.1,1-0.3,2-0.3,2.9c0,10,0,19.9,0,29.9
		c0,0.7,0.1,1.4,0.1,2.1c0.2-10.6,0.2-21.1,0.2-31.7C267.7,24.2,267.7,23.1,267.7,22z M240.2,66.3c-75.1,0-150,0-225.1,0
		c-0.1,4.1-0.3,8.2-0.4,12.3c0.5,0,0.8,0.1,1.1,0.1c8,0,16,0,23.9,0c0.9,0,1.9-0.1,2.8,0c2.2,0.2,3.3,1.5,3.3,3.7c0,2,0,4.1,0,6.1
		c0,1.2-0.3,2.2-1.2,3c-1.9,1.6-3.7,3.3-5.6,4.8c-1.3,1-1.9,2.2-1.9,4c0.1,4.3,0.1,8.6,0.1,13c0,3-1.3,4.4-4,4.4
		c-5.2,0-10.4,0-15.6,0c-0.3,0-0.7,0-1.1,0.1c0.2,2.3,0.4,4.5,0.7,6.6c0.3,2.1,0.8,2.5,2.9,2.7c2.7,0.2,5.5,0.5,8.2,0.5
		c20.4,0,40.8,0,61.2,0c0.8,0,1.3-0.3,1.8-1c11.6-17.4,27.8-25.8,48.4-24.4c17.2,1.2,30.7,9.6,40.3,24.3c0.5,0.8,1,1.1,2,1.1
		c19.1,0,38.3,0,57.4,0c0.4,0,0.8,0,1.2,0C240.5,107,240.3,86.7,240.2,66.3z M324.9,12.7c0.5,0,1,0,1.4,0c13,0,26-0.1,39,0.1
		c4.4,0.1,8.8,0.5,13.1,1.3c6.2,1.2,11.8,4.2,17.3,7.4c14.2,8.2,27.6,17.4,40.7,27.3c2.9,2.2,5.9,4.5,8.4,7.1
		c5.3,5.4,5.5,12.6,5.7,19.7c0.1,1.7-1.5,2.8-3.2,2.9c-1,0.1-2,0-3.1,0c-16.1,0-32.1,0-48.2,0c-3.8,0-7.4-0.7-10.8-2.6
		c-3.6-2-7.3-3.8-11-5.5c-1.6-0.8-3.4-1.5-5.1-1.7c-3.2-0.4-6.5-0.6-9.7-0.6c-10.9-0.1-21.8,0-32.8,0c-0.4,0-0.8,0.1-0.9,0.1
		c0.2,19.9,0.5,39.6,0.7,59.3c41.6,0,83.3,0,125.1,0c0-0.4,0.1-0.8,0.1-1.2c0.9-17.7,1.5-35.3,1.4-53c0-3-0.2-6-0.4-9
		c-0.3-4.6-2.9-7.7-6.3-10.3c-4.9-3.7-9.8-7.4-14.8-10.9c-11.2-8-22.4-15.9-34.2-23c-7.6-4.5-15.8-7.5-24.7-7.8
		c-8.9-0.3-17.7-0.4-26.6-0.6c-4.8-0.1-9.6-0.2-14.4-0.3c-2.3,0-4.6,0-6.9,0C324.9,11.8,324.9,12.2,324.9,12.7z M479.2,59.7
		c0.3,0.2,0.5,0.3,0.7,0.4c3.6,2.8,7.5,4.9,11.7,6.6c0.3,0.1,0.6,0.2,0.9,0.2c4.5,0.2,9,0.2,13.5,0.5c12.9,0.8,25.7,1.3,38.5,2.5
		c11.5,1.1,22.9,2.8,34.4,4.3c0.7,0.1,1.4,0.3,1.3,1.2c-0.1,0.9-0.8,0.9-1.6,0.8c-7.6-1.1-15.2-2.3-22.9-3.1
		c-10.5-1.1-21-2.1-31.6-2.7c-13.7-0.8-27.4-1.2-41.1-1.6c-8.9-0.2-17.8-0.1-26.8-0.1c-0.4,0-0.8,0-1.3,0
		c0.4,19.7-0.4,39.2-1.4,58.7c0.2,0.1,0.3,0.1,0.4,0.1c6.4,0,12.8,0,19.2,0c0.4,0,0.8-0.4,1-0.7c1.1-1.6,2.1-3.3,3.3-4.8
		c13.3-16.6,30.4-23.5,51.2-20c15.7,2.7,27.6,11.5,35.9,25.4c0.3,0.5,0.6,0.9,1.3,0.9c9.3,0,18.6,0,27.9-0.1c2.9,0,2.8-0.1,2.9-3
		c0.1-2.8-2.2-6.1-5.7-6.1c-3.6,0-7.1-0.1-10.7-0.2c-3.6-0.1-5.4-1.7-5.9-5.3c-0.1-0.8-0.3-1.6-0.7-2.2c-6.9-10.1-16-17.5-26.9-22.4
		c-14.4-6.4-29.4-7.5-44.5-3.8c-21.1,5.1-36.4,17.7-45.4,38c-0.1,0.3-0.2,0.7-0.4,0.9c-0.3,0.2-0.9,0.5-1.2,0.4
		c-0.3-0.1-0.5-0.7-0.5-1.1c0-0.3,0.2-0.6,0.3-0.9c6.7-15.7,17.8-27.1,33-34.4c13-6.2,26.8-7.9,41-6.1c15,2,27.8,8.5,38.7,19.2
		c2.3,2.2,4.3,4.7,6.5,7.2c0-1,0-2,0-3c0-1.7-0.5-3.1-1.7-4.3c-0.6-0.6-1.2-1.2-1.9-1.8c-3.2-2.7-6.4-5.5-9.6-8.2
		c-1.3-1.1-2.2-2.4-2.3-4.2c-0.1-1.4-0.1-2.9-0.1-4.3c0.1-1.6,0.8-2.3,2.4-2.4c2.2-0.1,4.5,0,6.7,0c7.6,0.1,15.2,0.3,22.8,0.4
		c1.4,0,2.7,0,4.1,0c0-1.9-0.4-3.6-1.7-4.8c-1.2-1.2-2.5-2.3-3.9-3.2c-4.8-3.1-10.1-4.7-15.7-5.5c-7.2-1.1-14.4-2.1-21.7-3
		c-7.9-0.9-15.8-1.6-23.7-2.3c-8.6-0.8-17.2-1.4-25.8-2.1C494.8,59,487.2,58.5,479.2,59.7z M323.5,68c-0.6,0-1.1,0-1.7,0
		c-11.3,0-22.6,0-33.9-0.1c-6.3-0.1-12.3-1.7-17.9-4.9c-3.2-1.9-4.7-4.5-4.7-8.3c0.1-9.5,0-19,0-28.4c0-1.4,0.1-2.8,0.2-4.2
		c0.5-5.2,2.9-8.1,7.6-9c1.2-0.2,2.4-0.3,3.6-0.3c14.9,0,29.7,0,44.6,0c0.5,0,0.9,0,1.4,0c0-0.5,0-1,0-1.6c-0.9,0-1.7,0-2.5,0
		c-7.4,0-14.8-0.1-22.3-0.1c-8.3,0-16.7-0.1-25-0.1c-3.5,0-6.9,0.2-10.3,1.2c-3.1,0.9-5.1,2.9-5.7,6.2c-0.4,2.1-0.6,4.3-0.7,6.4
		c-0.3,7.5-0.5,15.1-0.8,22.6c-0.4,11-0.9,22-1,33c-0.1,13.6,0.1,27.1,0.3,40.7c0,2.1,0.2,4.2,0.3,6.3c23.2,0,46.2,0,69.2,0
		C324.5,107.6,324.6,87.9,323.5,68z M450,158.8c0.5-9.8,1-19.5,1.6-29.3c-41.8,0-83.5,0-125.4,0c-0.1,9.8-0.3,19.5-0.4,29.3
		C367.3,158.8,408.6,158.8,450,158.8z M424.7,48c0.4-1.3,0-1.9-0.8-2.4c-1.4-0.9-2.7-1.9-4.1-2.8c-9.3-6.3-18.6-12.7-28.4-18.2
		c-7.6-4.3-15.6-7.1-24.4-7c-9.7,0-19.5,0-29.2,0c-0.1,0-0.3,0.1-0.7,0.1c0.4,15.3,0.9,30.6,1.3,46c0.7,0,1.2,0,1.6,0
		c8.5,0,17.1,0,25.6,0c2.9,0,5.8,0.4,8.5,1.6c4.2,2,8.4,4,12.4,6.3c3,1.7,6.2,2.3,9.6,2.3c7.9,0,15.8,0,23.7,0c0.4,0,0.8,0,1.6,0
		c-0.5-0.4-0.6-0.5-0.8-0.7c-2.5-1.8-3.8-4.2-3.8-7.3c0-3-0.1-6.1,0-9.1c0.1-1.9,0.2-3.8,0.6-5.6c0.4-2,1.7-3,3.8-3.1
		C422.3,47.9,423.5,48,424.7,48z M179.4,159.1c1.2,0.3,2.3,0.7,3.5,0.9c3.5,0.6,6.7,1.9,10.4,1.9c27.7-0.1,55.4,0,83.1,0
		c7.9,0,15.9,0.1,23.8,0.1c13.8,0.1,27.7,0.1,41.5,0.2c15.8,0.1,31.7,0.2,47.5,0.2c7.2,0,14.4,0.1,21.6,0.1c17.5,0,35,0,52.6,0
		c4.7,0,9-1.2,13.1-3.5c0.4-0.2,0.7-0.8,0.7-1.3c0.3-2.8,0.3-5.7,0.7-8.5c4.5-26.8,31.8-43,56.7-33.6c15.8,6,25,17.7,28,34.6
		c0.3,1.8,0.4,3.5,0.6,5.3c2.4,0,4.8,0,7.2,0c0-0.8-0.1-1.6-0.1-2.3c-0.3-8.9-2.6-17.2-7-24.9c-10.6-18.6-32.1-28.6-52.9-24.7
		c-23.2,4.4-40.9,24.7-41.4,49.2c0,1.8-0.1,3.5-0.1,5.3c0,1.9-0.6,2.6-2.6,2.6c-0.8,0-1.6,0-2.4,0c-70.6,0-141.1,0-211.7,0
		c-2.7,0-5.4-0.3-7.6-2.2c-0.6,1.5-1.7,2-3.1,2c-17.4,0-34.7,0-52.1,0c-1.9,0-2.9-1.1-2.9-3c0-1.9,0-3.8-0.1-5.6
		c-0.8-13-5.7-24.2-14.8-33.2c-11.7-11.7-26-16.6-42.3-14.5c-16.8,2.2-29.4,11.2-37.8,26.2c-4.6,8.2-6.6,17.1-6.3,26.6
		c0.1,2.4-0.9,3.6-3.1,3.4c-3.3-0.2-6.7-0.5-10-0.7c-7.9-0.6-15.9-1.2-23.8-1.8c-5.3-0.4-10.6-0.9-15.8-1.4c-1.3-0.1-2.6-0.5-4-0.7
		c-0.3,2.5,0,2.9,2.1,2.9c0.2,0,0.4,0,0.6,0c1-0.1,1.6,0.4,1.8,1.3c0.6,2,1.9,3.1,3.8,3.5c1.1,0.2,2.3,0.4,3.4,0.4
		c17.6,0,35.2,0,52.8,0c0.4,0,0.8,0,1.3-0.1C90,138,109,113.6,135.9,113.1C160.1,112.7,180.5,132.9,179.4,159.1z M479,156.8
		c0.3,23.9,18.9,41.3,40.1,41.6c23.1,0.3,41.7-18,41.9-41c0.2-23.5-18.2-42-40.5-42.3C497.6,114.9,479.1,133.5,479,156.8z
		 M136.5,198.4c22.4,0,40.8-18.6,41-41c0.3-23.1-17.9-42.2-40.8-42.3c-23.1-0.1-40.9,18.7-41.2,41
		C95.2,180.2,114.5,198.5,136.5,198.4z M255.2,129.5c0.4,9.9,0.8,19.6,1.2,29.4c22.6,0,44.9,0,67.5,0c0.1-9.8,0.3-19.6,0.4-29.4
		C301.2,129.5,278.3,129.5,255.2,129.5z M310.5,17.5c-0.2,0-0.5,0-0.8,0c-11.1,0-22.2,0-33.4,0c-1.1,0-2.1,0.1-3.2,0.3
		c-1.6,0.3-2.7,1.1-3,2.8c-0.3,1.5-0.6,3-0.6,4.5c-0.1,9.9,0,19.8-0.1,29.6c0,2.3,0.9,3.7,2.8,4.7c4.9,2.8,10.3,4,15.8,4.1
		c7.4,0.2,14.9,0.1,22.3,0.1c0.2,0,0.4,0,0.5-0.1C310.8,48.2,310.7,32.9,310.5,17.5z M253.1,127.4c0-0.4,0-0.8,0-1.1
		c-0.2-12.6-0.4-25.3-0.6-37.9c0-1.9,0-3.8,0.1-5.8c0.2-6.7,0.4-13.3,0.6-20c0.3-8.3,0.5-16.6,0.8-24.9c0.2-5.6,0.4-11.2,0.8-16.8
		c0.5-7.2,3.5-10.3,10.5-11.3c2.7-0.4,5.4-0.6,8.1-0.6c8.2,0,16.3,0,24.5,0.1c9.3,0.1,18.5,0.1,27.8,0.2c13.7,0.2,27.4,0.5,41.1,0.7
		c7.4,0.1,14.7,0.6,21.8,3.4c5.2,2.1,10,4.8,14.7,7.8c14.8,9.5,29.2,19.6,43.3,30.3c2.2,1.7,4,3.8,6,5.7c0.2,0.2,0.4,0.4,0.7,0.4
		c1.9,0,3.7,0,5.9,0c-0.5-0.4-0.8-0.6-1-0.8c-20.5-14.5-40.6-29.6-62.2-42.5c-4.9-2.9-10-5.1-15.7-5.5c-5.4-0.3-10.9-0.5-16.4-0.6
		c-10-0.2-20-0.4-30-0.5c-11-0.1-22.1-0.2-33.1-0.3c-2.1,0-4.2-0.1-6.2,0c-11.9,0.2-23.9,0.2-35.8,0.5c-4.4,0.1-8.7,1.1-12.6,3.4
		c-0.8,0.4-1.1,1-1.3,1.8c-0.8,5.9-1.7,11.8-2.4,17.7c-1,9.5-1.7,19-2.7,28.5c-0.2,1.8,0.2,3.1,1.6,4.1c0.8,0.6,1.1,1.4,1.1,2.4
		c0,11.9,0.1,23.8,0.1,35.8c0,7.5,0.1,15,0.2,22.6c0,1.1,0.1,2.1,0.1,3.2C246.3,127.4,249.6,127.4,253.1,127.4z M240.7,129.5
		c-19.5,0-39.1,0-58.7,0c0.1,0.3,0.2,0.5,0.3,0.7c4.4,8.4,6.4,17.4,6,26.9c0,1.5,0.1,1.6,1.7,1.6c15,0,30.1,0,45.1,0
		c2,0,4.1,0,6.1,0c1,0,1.4-0.4,1.3-1.4c-0.2-2-0.4-4-0.5-6C241.6,144.1,241.1,136.8,240.7,129.5z M29.3,129.5
		c0.2,3.5,0.5,6.9,0.7,10.3c0.3,4.3,0.5,8.7,0.7,13c0.1,1.1,0.5,1.6,1.6,1.7c1.6,0.2,3.2,0.4,4.8,0.5c7.7,0.6,15.4,1.2,23.1,1.8
		c7.2,0.5,14.3,1.1,21.5,1.6c1.1,0.1,1.5-0.3,1.4-1.4c-0.4-9.2,1.6-17.9,5.7-26.1c0.2-0.4,0.4-0.9,0.7-1.4
		C69.3,129.5,49.2,129.5,29.3,129.5z M480.9,57.6c0-0.1,0-0.2,0.1-0.4c-0.3-0.3-0.7-0.5-1-0.8c-20.6-14.3-41.5-28-63-40.9
		c-2.5-1.5-5-2.5-7.9-2.2c-3,0.3-6,0.4-9,0.6c0,0.1,0,0.2,0,0.3c0.2,0.2,0.5,0.3,0.7,0.5c5.6,3.6,11.3,7.1,16.7,10.9
		c14.6,10.2,29.2,20.5,43.7,30.9c0.9,0.7,1.8,0.9,2.9,0.9c4.8-0.1,9.6,0,14.4,0C479.3,57.6,480.1,57.6,480.9,57.6z M566.5,130.2
		c0,0.1-0.1,0.2,0,0.3c0.2,0.6,0.5,1.2,0.8,1.7c3.8,7.8,4.6,16.2,5.1,24.7c0.1,1.6,0.1,1.8,1.4,1.7c4.9-0.1,9.9-0.2,14.8-0.5
		c4.3-0.2,8.5-0.7,12.8-1.2c2-0.2,2.6-0.8,2.8-2.9c0.2-2,0.4-4.1,0.4-6.1c0.1-4.4,0.1-8.8,0-13.2c0-2.3-0.9-3.5-3.1-4.1
		c-1.2-0.3-2.5-0.6-3.7-0.6c-10.3,0-20.6,0-30.9,0C566.8,130.2,566.6,130.2,566.5,130.2z M336.4,63.5c-0.4-15.4-0.9-30.7-1.3-46
		c-3.4,0-6.8,0-10.3,0c-0.2,15.4,0,30.7,0.6,46C329.2,63.5,332.8,63.5,336.4,63.5z M323.2,63.6c-0.2-15.4-0.4-30.7-0.6-46
		c-3.3,0-6.6,0-10.2,0c0.2,15.4,0.4,30.7,0.5,46C316.6,63.6,319.9,63.6,323.2,63.6z M453.5,129.5c-0.5,9.8-1,19.6-1.6,29.3
		c5.1,0,9.9,0,14.8,0c-0.5-10.3,1.2-20.1,6.1-29.3C466.3,129.5,460,129.5,453.5,129.5z M410.9,11.2c-0.7-0.3-1.5-0.8-2.4-1.1
		c-7.3-3-15-4.3-22.8-4.9c-11-0.9-21.9-1.5-32.9-1.9c-10.6-0.4-21.2-0.3-31.8-0.4c-13.6-0.1-27.2-0.1-40.8,0
		c-7.7,0-15.4,0.2-23.1,0.5c-2.8,0.1-5.6,0.6-8.2,1.9c-1.5,0.8-2.5,2-3,3.7c1.8-0.6,3.4-1.3,5.1-1.8c5-1.4,10.2-1.5,15.3-1.6
		c9.6-0.1,19.2-0.1,28.8-0.1c8.2,0,16.5,0.1,24.7,0.2c7.5,0.1,15.1,0.2,22.6,0.3c9.9,0.2,19.8,0.3,29.7,0.5
		c3.4,0.1,6.8,0.3,10.1,0.6c5.1,0.5,9.7,2.6,14.1,5.2c0.4,0.2,0.9,0.4,1.3,0.4C402,12.2,406.5,11.6,410.9,11.2z M439.2,61.7
		c0,0.5,0,1,0,1.4c0,1.6,0.1,3.1,0,4.7c0,0.4-0.6,0.7-0.9,1.1c-0.3-0.4-0.7-0.7-1-1.1c-0.1-0.2,0-0.6,0-0.9c0-3.2,0-6.4,0-9.6
		c0-1.4-0.3-2.8-1.2-3.9c-1.6-1.9-3.6-3.3-6.1-3.4c-2.9-0.2-5.8-0.1-8.7-0.1c-1,0-1.6,0.5-1.9,1.5c-0.2,0.6-0.4,1.2-0.4,1.9
		c-0.1,3.8-0.3,7.6-0.3,11.4c0,4.7,2.7,8.2,7.3,8.7c3.5,0.4,7.1,0.4,10.7,0.1c4.2-0.4,6.8-4.6,6-8.8C442.1,62.8,441.3,62,439.2,61.7
		z M588.3,97.6c0-4.5,0-9.1,0-13.8c-7.7,0-15.3,0-22.8,0c-0.7,2.5,0,4.6,2.2,6.3c2.4,1.9,4.6,3.9,6.9,6c2.3,2.1,3.9,4.6,4.1,7.8
		c0.1,1.9,0.1,3.8,0.1,5.7c0,1.4,0.1,2.8,0.2,4.3c3.2,0,6.2,0,9.2,0c0,0,0.1-0.1,0.1-0.2c0-2.2,0-4.3,0.1-6.5c0-0.8,0-1.5-1-1.8
		c-0.4-0.1-0.8-0.6-1-0.9C585,102.2,586.1,98.6,588.3,97.6z M28.8,153.9c-0.3-5.9-0.6-11.5-0.9-17.2c-6.6,0-13.1,0-19.8,0
		c0,0.9,0,1.7,0,2.6c0,5.4-0.1,10.7-0.1,16.1c0,1.4,0.2,1.7,1.5,1.7c1.3,0,2.5,0,3.8,0c0.8,0,1.2-0.2,1.5-1c0.3-1.2,1.2-1.9,2.4-2
		c0.9-0.1,1.8-0.1,2.7-0.1C22.8,153.9,25.8,153.9,28.8,153.9z M14.8,83.6c0.5,0,0.9,0,1.4,0c5.3,0,10.7,0,16,0c1.7,0,2.8,0.6,3.1,2
		c0.3,1.6,0.4,3.2-0.6,4.6c-1.5,2.2-3.1,4.3-4.6,6.5c-0.4,0.6-0.8,1.5-0.8,2.3c-0.1,3.6,0,7.1,0,10.7c0,2-0.9,3-3,3.1
		c-2.9,0.1-5.7,0-8.6,0c-0.4,0-0.8,0-1.3,0c0,0.5,0,0.8,0,1.1c0.1,2.1-0.1,1.8,1.8,1.8c4.9,0,9.7,0,14.6,0c2.1,0,2.6-0.4,2.6-2.6
		c0-4.3,0-8.6-0.1-13c-0.1-2.3,0.7-3.9,2.5-5.2c1.8-1.4,3.5-3,5.3-4.5c0.7-0.6,1-1.3,1-2.2c-0.1-1.6,0-3.2,0-4.8
		c0-2.4-0.4-2.8-2.7-2.8c-8.3,0-16.7,0-25,0c-0.5,0-0.9,0-1.4,0C14.8,81.6,14.8,82.5,14.8,83.6z M14.8,85.7
		c0.5,8.4,0.9,16.7,1.4,25.1c3.4,0,6.6,0,9.8,0c1,0,1.3-0.5,1.3-1.5c0-3.6-0.1-7.1,0-10.7c0-0.9,0.3-1.9,0.8-2.7
		c1.4-2.2,3.1-4.2,4.5-6.4c0.5-0.7,0.6-1.7,0.8-2.6c0.2-0.9-0.3-1.4-1.3-1.4c-5.5,0-11,0-16.5,0C15.5,85.6,15.3,85.6,14.8,85.7z
		 M254.4,159c0-0.5,0-0.7,0-0.8c-0.4-9.2-0.8-18.4-1.1-27.6c0-0.9-0.2-1.2-1.1-1.2c-2.7,0.1-5.4,0-8.1,0c-0.4,0-0.8,0-1.3,0.1
		c0,0.5,0,0.9,0,1.3c0.3,6.1,0.7,12.3,1.1,18.4c0.1,1.9,0.4,3.7,0.8,5.6c0.4,2,1.7,3.4,3.7,3.7C250.3,158.8,252.3,158.8,254.4,159z
		 M238.7,64.1c-0.5-1.4-1.6-1-2.6-1c-72.7,0-145.5,0-218.2,0c-0.5,0-1-0.1-1.4,0c-0.4,0.1-0.8,0.4-1.1,0.7c0,0.1,0.1,0.2,0.1,0.3
		C89.9,64.1,164.2,64.1,238.7,64.1z M486.4,66.7c-0.6-0.4-1.1-0.6-1.4-0.8c-2.6-1.8-5.3-3.7-7.9-5.5c-0.5-0.4-1.2-0.7-1.9-0.7
		c-6.8-0.1-13.5,0-20.3,0c-0.4,0-0.7,0-1,0.1c0.4,2.4,0.8,4.7,1.2,7.1C465.4,66.7,475.8,66.7,486.4,66.7z M573.3,160.8
		c0,3.3,0,6.5,0,9.8c0,1.7,0.1,3.4,0.1,5c0,0.9,0.4,1.4,1.4,1.3c1.8-0.1,3.6,0,5.4,0c0.9,0,1.4-0.4,1.4-1.3c0-2.6,0.1-5.1,0.1-7.7
		c0-2.5,0.8-3.3,3.2-3.8c2.6-0.5,5.2-1,7.8-1.6c1.7-0.4,3.2-1.5,4.4-2.8C589.2,160.1,581.3,160.4,573.3,160.8z M438.5,53
		c0.2,1.9,0.4,4,0.8,6c0,0.3,0.6,0.7,0.9,0.8c2.3,0.6,3.8,2,4.2,4.4c1.2,5.9-2.7,11.1-8.6,11.4c-3.7,0.2-7.4,0.2-11.2,0.2
		c-9.6,0-19.2,0-28.9,0c-2.7,0-5.4,0-7.8-1.3c-3.6-1.9-7.2-3.7-10.7-5.6c-3.5-1.9-7.3-3.3-11.3-3.3c-13.2-0.1-26.5,0-39.7,0
		c-0.3,0-0.5,0.1-0.8,0.1c0,0.1,0,0.2,0,0.3c0.4,0,0.8,0,1.1,0c12.7,0.1,25.4,0.1,38.1,0.2c3.9,0,7.5,0.7,11,2.6
		c3.1,1.7,6.3,3.2,9.5,4.8c3,1.6,6.1,2.8,9.5,2.9c1.6,0,3.2,0.1,4.8,0.1c15.5,0,31,0,46.5,0c2.2,0,2.9-0.7,2.7-3
		c-0.3-2.7-0.8-5.3-1.1-7.9C446.7,59.7,442.8,56,438.5,53z M324.4,14.8c0.1,0.2,0.3,0.4,0.4,0.6c0.5,0,0.9,0,1.4,0
		c5.7,0,11.3,0,17,0c7.7,0,15.5-0.1,23.2,0.1c3.7,0.1,7.5,0.5,11.1,1.2c6.1,1.1,11.4,4.1,16.8,7.1c10.5,5.9,20.3,12.8,30.3,19.6
		c1.6,1.1,2.8,2,2.4,4.1c0,0,0.1,0.1,0.1,0.1c1.8,0.2,3.6,0.4,5.4,0.5c-0.1-0.1-0.3-0.3-0.5-0.4c-12.2-9-24.7-17.4-37.8-25
		c-9.6-5.6-19.8-8.4-30.9-8.2c-12.3,0.2-24.7,0.1-37,0.1c-0.4,0-0.7,0-1.1,0C324.9,14.7,324.7,14.8,324.4,14.8z M23.2,156
		c-1.9,0-3.7,0-5.4,0c-0.7,0-1.1,0.3-1.3,1.1c-0.4,1.4-1.4,2-2.8,2c-0.9,0-1.8,0-2.8,0c0,1.5,0,2.8,0,4.1c0,0.8,0.3,1.2,1.1,1.2
		c1.1,0,2.3-0.1,3.4-0.1c2.2,0,4.3,0.1,6.5,0.1c0.6,0,1.4,0.2,1.4-0.9C23.2,161,23.2,158.5,23.2,156z M595.9,97.6
		c-0.2-5-0.5-10-0.7-15c-1.7,0-3.2,0-4.8,0c0,5,0,10,0,15C592.3,97.6,594,97.6,595.9,97.6z M596.4,119.2c0.1,0,0.2-0.1,0.3-0.1
		c-0.1-4.4-0.3-8.8-0.4-13.2c-2.1,0-4,0-5.8,0c0,3.8,0,7.4,0,11.1C592.7,117.1,594.8,117.5,596.4,119.2z M27.8,134.6
		c-0.1-1-0.2-1.9-0.3-2.9c-2.6,0-5.2,0-7.7,0c-3.1,0-6.1,0-9.2,0.1c-1.7,0-2.6,1.2-2.4,2.8C14.7,134.6,21.1,134.6,27.8,134.6z
		 M588.5,116.4c-0.1-0.1-0.2-0.3-0.3-0.4c-0.4,0-0.8,0-1.2,0c-2.3,0-4.6,0-7-0.1c-2.1,0-2.8-0.7-3-2.8c-0.1-1.3-0.2-2.6-0.1-3.9
		c0.5-5.6-1.1-10.2-5.7-13.6c-2.2-1.6-4.2-3.6-6.3-5.4c-1.1-0.9-1.6-2.2-1.6-3.6c0-1.5,0-2.9,0-4.4c-2.6-0.3-2.7-0.3-2.5,2.7
		c0,0.2,0,0.5,0,0.7c-0.1,1.8,0.6,3.1,2,4.2c3.4,2.8,6.8,5.8,10.2,8.7c2.3,2,3.5,4.4,3.4,7.5c-0.1,2.4,0,4.9,0.2,7.3
		c0.2,2.3,1.1,3.4,3.3,3.5c2.6,0.2,5.3,0.1,7.9,0.1C588,116.9,588.3,116.5,588.5,116.4z M596.1,103.7c0-1.2,0.1-2.2,0-3.2
		c0-0.3-0.4-0.8-0.7-0.8c-2.2-0.1-4.4-0.1-6.6,0c-0.3,0-0.9,0.6-0.9,1c0.1,1-0.5,2.2,0.5,3c0.1,0.1,0.2,0.1,0.3,0.1
		C591.2,103.7,593.6,103.7,596.1,103.7z M323.4,65.9c0-0.1,0-0.2,0-0.3c-0.4,0-0.9-0.1-1.3-0.1c-10.8,0-21.5,0-32.3,0
		c-5.1,0-10.1-0.7-14.9-2.6c-0.1,0-0.3,0-0.6,0c0.5,0.2,0.7,0.3,1,0.5c4,1.7,8.3,2.5,12.6,2.6c11.5,0.1,23.1,0.1,34.6,0.1
		C322.9,66,323.2,66,323.4,65.9z M598.7,116c0,2.3,0,4.5,0,6.9c0.9-0.2,1.3-0.6,1.2-1.4c0-1.3-0.1-2.6,0-4
		C600,116.5,599.5,116.1,598.7,116z M606.7,148.9c0.1,0,0.1,0,0.2,0c0-3.7,0-7.5,0-11.2c-0.1,0-0.1,0-0.2,0
		C606.7,141.5,606.7,145.2,606.7,148.9z M598.2,99.1c0,2,0,3.9,0,5.9c0.1,0,0.3,0,0.4,0C598.5,103,598.8,101,598.2,99.1z
		 M26.5,129.6c0-0.1,0-0.1,0-0.2c-1.4-0.1-2.8-0.2-4.2-0.3c0,0.2,0,0.3,0,0.5C23.7,129.6,25.1,129.6,26.5,129.6z"/>
	<path d="M137.6,80.6c17.5,0.2,33.5,6.7,46.6,20.1c6,6.2,10.6,13.3,13.9,21.3c0,0.1,0,0.2,0.1,0.2c0.2,0.7,0.8,1.6-0.2,2
		c-1.1,0.5-1.3-0.6-1.6-1.3c-9.5-22-25.8-35.6-49.1-39.4c-23.4-3.8-43.5,3.5-60,20.7C82,109.8,78,116.1,74.9,123
		c-0.2,0.4-0.3,0.8-0.6,1c-0.3,0.2-0.8,0.3-1,0.2c-0.3-0.1-0.5-0.6-0.5-0.9c0-0.4,0.2-0.8,0.4-1.2c10.1-21.6,26.7-35,49.6-40.1
		C127.3,81,131.9,80.7,137.6,80.6z"/>
	<path d="M344.4,79.6c3.3,0,6.5,0,9.8,0c3.2,0,4.3,1.2,4.1,4.5c-0.1,1.9,0,3.8,0,5.8c0,2.1-1,3.2-3,3.3c-3.3,0.1-6.6,0.1-9.9,0.1
		c-3.7,0-7.4,0-11.1,0c-2.6,0-3.7-1.1-3.7-3.8c0-2,0-3.9,0-5.9c0-2.8,1.2-4,4-4C337.8,79.6,341.1,79.6,344.4,79.6z M354.4,85.2
		c-0.5,0-0.9,0-1.3,0c-4.9,0-9.7,0-14.6,0c-1,0-2,0-2.9-0.1c-1.4-0.1-1.2,0.9-1.3,1.8c-0.1,1.1,0.7,0.9,1.3,0.9c5.6,0,11.2,0,16.9,0
		C354.7,87.8,354.7,87.8,354.4,85.2z M356.3,83.9c0.2-2-0.1-2.3-2.2-2.3c-6.5,0-13,0-19.6,0c-1.8,0-2.2,0.5-2,2.2
		c0.8-0.2,1.6-0.5,2.4-0.6c1.2-0.1,2.4,0,3.6,0c5,0,10,0,15,0C354.5,83.2,355.4,83.6,356.3,83.9z M332.6,89.2c-0.1,1.6,0.1,2,1.3,2
		c6.9,0,13.8,0,20.7,0c1.7,0,2.1-0.6,1.7-2.1c-1,0.2-1.9,0.6-2.8,0.7c-6.1,0.1-12.2,0.1-18.2,0C334.3,89.7,333.5,89.4,332.6,89.2z"
		/>
	<path d="M440.2,125.8c-2.1,0-4.2,0-6.4,0c-1.5,0-1.8-0.3-1.8-1.8c0-0.8,0-1.5,0-2.3c0-1,0.5-1.4,1.4-1.4c4.5,0,9,0,13.5,0
		c0.8,0,1.3,0.4,1.4,1.3c0,1,0,2-0.1,3c0,0.9-0.7,1-1.4,1c-2.2,0-4.4,0-6.6,0C440.2,125.7,440.2,125.7,440.2,125.8z M434,123.7
		c4.1,0,8.1,0,12.2,0c0-0.5,0-0.8,0-1.2c-4.1,0-8.1,0-12.2,0C434,122.9,434,123.3,434,123.7z"/>
	<path d="M519.9,126.3c16.4,0,30.3,13.6,30,31.2c-0.3,17.8-14.7,30.3-30.4,30.1c-14.9-0.2-29.9-12.3-29.7-31.1
		C490,140,503.6,126.3,519.9,126.3z M519.8,128.2c-15.2,0-27.9,12.8-28.1,28.1c-0.2,17.3,13.6,29.2,28,29.2
		c15.7,0,28.2-12.7,28.2-28.5C548,141.1,535.4,128.2,519.8,128.2z"/>
	<path d="M166.6,157c0,17.1-13.3,30.5-30.4,30.5c-16.5,0-29.8-13.8-29.7-30.9c0-16.7,13.8-30.8,30.7-30.4
		C153.2,126.7,166.7,139.9,166.6,157z M164.7,157c0-16-12.5-28.4-27.6-28.8c-15.8-0.4-28.6,12.7-28.7,28.5
		c-0.1,15.7,12.6,28.7,27.9,28.8C152.1,185.5,164.7,172.9,164.7,157z"/>
	<path d="M601.6,143.9c0,2,0,4,0,6c0,2.6-1.2,3.5-3.8,3.8c-3.3,0.3-5.4-0.9-7.1-3.8c-1-1.8-1.9-3.4-1.7-5.5c0.2-2.1,0-4.3,0-6.5
		c0-2.5,1-3.4,3.4-3.4c1.9,0,3.8,0,5.8,0c2.5,0,3.4,1,3.4,3.5C601.6,139.9,601.6,141.9,601.6,143.9
		C601.6,143.9,601.6,143.9,601.6,143.9z M599.7,143.9C599.7,143.9,599.6,143.9,599.7,143.9c0-2,0-3.9,0-5.9c0-1.5-0.2-1.6-1.6-1.6
		c-1.8,0-3.7,0.1-5.5,0.1c-1.1,0-1.5,0.5-1.5,1.5c0,2.2,0.1,4.3,0,6.5c-0.1,1.6,0.6,2.8,1.3,4.2c1.3,2.2,2.8,3.4,5.5,3.1
		c1.5-0.2,1.9-0.4,1.9-1.9C599.7,147.8,599.7,145.9,599.7,143.9z"/>
	<path d="M493.8,157.1c-0.2-15.4,12.3-27,26.1-27c14.4,0,26.4,12,26.3,26.7c0,15.2-11.6,27-26.8,26.8
		C504.8,183.4,493.5,170.8,493.8,157.1z M497,148.8c4.2,0.5,5.8,2.3,6,6.4c0.1,1.1,0,2.2,0,3.2c-0.1,4.2-2,6.1-6.2,6.4
		c0.4,1,0.8,2,1.2,3c2.8-2.4,5-2.8,7.5-0.9c1.8,1.3,3.4,3,4.7,4.8c1.7,2.3,1.3,4.9-0.6,7c-0.1,0.1-0.2,0.2-0.3,0.5
		c1,0.4,1.9,0.8,2.8,1.2c0.4-4.1,1.9-5.8,5.8-6.2c1.8-0.2,3.7-0.1,5.5,0.2c2.3,0.4,3.8,1.8,4.3,4.2c0.1,0.5,0.1,1.1,0.2,1.8
		c1-0.4,1.9-0.8,2.9-1.2c-2.3-2.7-2.6-4.8-1.1-7.3c1.3-2.1,3.1-4,5.2-5.2c2.3-1.4,4.6-1,6.6,0.8c0.1,0.1,0.2,0.2,0.4,0.3
		c0.4-1,0.8-2,1.2-3c-3.8-0.2-5.6-1.7-6-5.4c-0.2-1.7-0.2-3.4,0-5.1c0.3-3,2-4.9,4.4-5.3c0.4-0.1,0.9-0.1,1.5-0.1
		c-0.4-1-0.8-1.8-1.2-2.7c-3.1,2.6-5.6,2.6-8.6-0.1c-0.8-0.7-1.5-1.4-2.2-2.2c-2.9-3.3-3.1-5.6-0.5-9.2c-0.9-0.4-1.8-0.8-2.7-1.1
		c-0.4,3.7-1.4,5.2-4.3,5.9c-2.5,0.6-5,0.5-7.5-0.1c-2.3-0.6-3.7-2.4-3.9-4.9c0-0.3,0-0.5-0.1-1c-1,0.4-1.9,0.8-2.9,1.2
		c2.5,3.1,2.5,5.6,0.2,8.4c-0.8,1-1.6,1.8-2.5,2.7c-3.1,2.9-5.4,3-8.8,0.5C497.8,147,497.4,147.8,497,148.8z M537.9,167.6
		c-0.6,0.2-1.1,0.2-1.5,0.4c-2.3,1.2-4,3-5.2,5.2c-0.8,1.4-0.5,2.9,0.5,3.9c0.7,0.7,1.3,0.8,2.1,0.2c2.5-1.8,4.6-3.9,6.3-6.5
		c0.7-1.1,0.7-1.6-0.3-2.4C539.2,168.1,538.5,167.9,537.9,167.6z M509.4,174.9c0-0.2,0-0.5-0.1-0.7c-1.2-3-3.3-5.1-6.2-6.3
		c-1.3-0.5-2.8,0.2-3.4,1.4c-0.2,0.3-0.2,0.9,0,1.1c1.8,2.9,4.2,5.3,7.1,7.2c0.2,0.2,0.7,0.2,0.9,0.1
		C508.7,177.1,509.3,176.1,509.4,174.9z M537.7,146.1c0.5-0.1,0.8-0.2,1.2-0.3c1.7-0.7,2-1.7,1-3.2c-1.6-2.3-3.5-4.3-5.8-5.9
		c-1.4-1.1-2.4-0.8-3,0.9c-0.3,0.9-0.2,2,0.1,2.8c1,2.2,2.8,3.8,4.8,5.1C536.5,145.8,537.2,145.9,537.7,146.1z M520.1,137.8
		c1.1-0.2,2.3-0.2,3.4-0.5c1.6-0.4,2.4-1.8,2.4-3.4c0-0.7-0.3-1.2-1.1-1.3c-2.9-0.6-5.9-0.7-8.9-0.1c-1.7,0.3-2.2,1.1-1.6,2.8
		c0.4,1.1,1.2,1.8,2.3,2.1C517.7,137.5,518.8,137.6,520.1,137.8z M519.9,181.7c1.4-0.2,2.8-0.3,4.2-0.5c1.8-0.2,2.3-1.1,1.6-2.7
		c-0.3-0.8-1-1.6-1.8-1.9c-2.5-0.9-5.2-0.9-7.7,0c-1.4,0.5-2.1,1.9-2,3.3c0.1,0.7,0.3,1.2,1.1,1.2
		C516.8,181.3,518.4,181.5,519.9,181.7z M544.5,157c-0.2-1.7-0.4-3.4-0.6-5.1c-0.1-0.7-0.5-0.9-1.1-1c-1.8-0.2-3.4,0.8-3.6,2.9
		c-0.2,2-0.2,4.1,0,6.1c0.2,2,2,3.2,3.7,2.8c0.4-0.1,0.9-0.5,1-0.9C544.1,160.2,544.2,158.6,544.5,157z M501.2,156.8
		c-0.1-1-0.2-2.2-0.4-3.2c-0.4-1.8-1.7-2.8-3.4-2.7c-0.8,0-1.2,0.4-1.3,1.2c-0.1,2.9-0.3,5.7-0.2,8.6c0,2,1.1,2.6,3,1.8
		c1.1-0.4,1.7-1.3,1.9-2.4C501.1,159,501.1,158,501.2,156.8z M509.4,138.6c-0.5-0.7-1-1.6-1.6-2.4c-0.2-0.2-0.8-0.2-1.1,0
		c-2.9,1.9-5.3,4.4-7.1,7.3c-0.2,0.3-0.1,0.8,0.1,1.1c1,1.5,2.9,2,4.5,0.7c1.6-1.3,3-2.9,4.4-4.5C509,140.4,509.1,139.5,509.4,138.6
		z"/>
	<path d="M110.3,158.1c-0.5-15.5,10.9-26.9,24.1-27.9c14.7-1.1,27.4,10.2,28.3,25c0.9,15-10.1,27.6-25,28.4
		C122.7,184.4,110.6,172.3,110.3,158.1z M125.9,134.6c2.5,3.1,2.5,5.8,0.1,8.7c-1,1.1-2.1,2.2-3.2,3.2c-2,1.8-5.2,2.6-7.8-0.2
		c0,0-0.1,0-0.3,0c-0.3,0.8-0.7,1.7-1,2.6c3.7,0.4,5.5,2,5.9,5.2c0.2,1.5,0.2,3.1,0.1,4.7c-0.4,4.3-1.8,5.8-6.1,6.2
		c0.4,1,0.8,1.9,1.2,3c0.2-0.1,0.3-0.2,0.4-0.3c2.2-2,4.5-2.3,6.9-0.7c1.4,0.9,2.6,2.1,3.7,3.3c2.9,3.2,3,5.6,0.3,9.1
		c0.9,0.4,1.8,0.7,2.8,1.2c-0.1-3.1,1.3-5.1,4.1-5.9c2.5-0.7,5.1-0.6,7.6,0c2.5,0.7,3.8,2.5,3.9,5.1c0,0.2,0,0.4,0.1,0.8
		c1-0.4,2-0.8,3-1.2c-2.1-2-2.7-4.3-1.4-6.7c1.5-2.7,3.6-5,6.5-6.3c1.7-0.8,3.4-0.5,4.9,0.6c0.4,0.3,0.7,0.6,1.2,1
		c0.4-1,0.8-2,1.2-2.9c-3.5-0.2-5.4-1.5-5.8-4.5c-0.3-2.3-0.3-4.6,0-6.9c0.4-2.9,2.4-4.4,5.2-4.5c0.1,0,0.3-0.1,0.5-0.1
		c-0.4-0.9-0.8-1.8-1.1-2.7c-2.6,2.3-5,2.6-7.4,0.8c-1.7-1.3-3.2-2.8-4.5-4.5c-1.7-2.2-1.7-4.6-0.3-6.6c0.3-0.4,0.6-0.7,0.9-1.2
		c-0.9-0.4-1.8-0.7-2.7-1.1c-0.5,4.1-2,5.7-6,6.1c-1.3,0.1-2.7,0.1-4,0c-3.8-0.4-5.3-1.9-5.7-5.8c0-0.1-0.1-0.1-0.2-0.3
		C127.7,133.8,126.8,134.1,125.9,134.6z M147,175c0.3,0.6,0.5,1.3,0.9,1.9c0.8,1.1,1.3,1.1,2.4,0.4c2.4-1.7,4.5-3.7,6.1-6.2
		c0.9-1.3,0.7-2.2-0.7-2.9c-1.1-0.6-2.3-0.7-3.2,0.1c-1.7,1.5-3.3,3.1-4.8,4.8C147.3,173.5,147.3,174.3,147,175z M125.8,174.8
		c0-0.2,0-0.6-0.2-1c-1.3-2.6-3.2-4.7-5.9-5.9c-1.2-0.5-2.8,0.1-3.5,1.2c-0.2,0.3-0.3,1-0.1,1.3c1.8,2.9,4.2,5.2,7,7.1
		c0.3,0.2,0.8,0.2,1,0.1C125.2,177.1,125.8,176.2,125.8,174.8z M126,138.6c-0.5-0.8-0.9-1.6-1.5-2.3c-0.2-0.3-1.1-0.3-1.4-0.1
		c-2.8,1.8-5.1,4.2-7,7c-0.4,0.6-0.3,1,0.1,1.5c1.1,1.4,3,1.8,4.6,0.5c1.5-1.2,2.9-2.8,4.2-4.3C125.5,140.4,125.7,139.5,126,138.6z
		 M154.4,146.1c0.6-0.3,1.2-0.5,1.8-0.8c1.1-0.8,1.1-1.2,0.4-2.3c-1.8-2.7-4-4.9-6.6-6.7c-0.7-0.5-1.1-0.4-1.6,0.1
		c-1.1,1-1.4,2.3-0.8,3.7c1.1,2.4,3,4.1,5.2,5.5C153.1,145.9,153.7,145.9,154.4,146.1z M136.4,137.8c1-0.1,2.3-0.2,3.6-0.5
		c1.7-0.5,2.5-1.9,2.3-3.5c-0.1-0.7-0.4-1-1.1-1.2c-3.2-0.7-6.4-0.7-9.5,0c-0.4,0.1-0.9,0.6-1,1.1c-0.3,1.7,0.7,3.2,2.4,3.7
		C134.2,137.6,135.2,137.6,136.4,137.8z M136.3,181.7c1.5-0.2,2.9-0.3,4.3-0.5c1.6-0.2,2-0.9,1.6-2.5c-0.3-1.1-1-2-2.1-2.3
		c-2.4-0.7-4.9-0.8-7.3,0c-1.6,0.5-2.4,1.9-2.2,3.5c0.1,0.7,0.4,1.1,1.1,1.1C133.3,181.3,134.8,181.5,136.3,181.7z M155.3,156.3
		c0.1,1.3,0.1,2.3,0.2,3.2c0.3,2.1,1.7,3.4,3.6,3.2c0.8-0.1,1.2-0.4,1.3-1.2c0.5-2.9,0.6-5.9,0.1-8.8c-0.3-1.9-1.8-2.5-3.3-1.4
		c-0.6,0.5-1.2,1.2-1.4,2C155.4,154.4,155.4,155.5,155.3,156.3z M117.8,157c-0.2-1.2-0.2-2.5-0.5-3.7c-0.4-1.7-1.8-2.5-3.3-2.4
		c-0.7,0-1.2,0.3-1.2,1.1c-0.1,2.9-0.3,5.8-0.3,8.7c0,2,1.3,2.7,3.1,1.7c0.7-0.4,1.4-1.2,1.7-2C117.6,159.4,117.6,158.3,117.8,157z"
		/>
	<path d="M520.1,170.7c-6.3,0.2-13.3-4.4-13.7-14c-0.3-7.5,6.1-13.7,13.6-13.7c7.6,0,13.7,6.1,13.7,13.8
		C533.7,164.5,527.6,170.7,520.1,170.7z M520,168.8c6.4,0,11.7-5.4,11.8-11.9c0-6.4-5.2-11.9-11.6-11.9c-6.5,0-11.9,5.3-11.9,11.7
		C508.3,163.3,513.6,168.7,520,168.8z"/>
	<path d="M136.5,170.7c-7.5,0-13.6-6.2-13.7-13.9c-0.1-7.5,6.1-13.8,13.7-13.8c7.6,0,13.6,6.1,13.6,13.9
		C150.2,164.5,144.1,170.7,136.5,170.7z M148.2,156.9c0-6.5-5.2-11.9-11.6-11.9c-6.5,0-12,5.3-11.8,11.7c0.3,7.8,5.8,12,11.7,12.1
		C142.9,168.8,148.2,163.4,148.2,156.9z"/>
	<path d="M519.8,148.5c4.7,0,8.4,3.6,8.4,8.3c0,4.7-3.7,8.6-8.3,8.6c-4.6,0-8.4-3.9-8.2-8.5C511.8,152.2,515.2,148.5,519.8,148.5z
		 M519.9,150.5c-3.5,0-6.2,2.8-6.3,6.4c-0.1,3.6,2.8,6.5,6.2,6.6c3.5,0.1,6.5-3,6.5-6.5C526.3,153.3,523.5,150.5,519.9,150.5z"/>
	<path d="M144.7,156.9c0,4.7-3.7,8.4-8.3,8.5c-4.6,0-8.4-3.9-8.2-8.6c0.1-4.6,3.7-8.3,8.2-8.3C141.1,148.5,144.7,152.1,144.7,156.9z
		 M130.1,157.1c0.2,3.6,3.1,6.5,6.4,6.3c3.7-0.2,6.4-3.2,6.2-6.9c-0.2-3.6-3.1-6.2-6.9-6C132.6,150.6,130,153.7,130.1,157.1z"/>
</g>
</svg>
