<?xml version="1.0" encoding="utf-8"?>
<!-- Generator: Adobe Illustrator 27.4.0, SVG Export Plug-In . SVG Version: 6.00 Build 0)  -->
<svg version="1.1" id="Layer_1" xmlns="http://www.w3.org/2000/svg" xmlns:xlink="http://www.w3.org/1999/xlink" x="0px" y="0px"
	 viewBox="0 0 615.1 201.2" style="enable-background:new 0 0 615.1 201.2;" xml:space="preserve">
<g>
	<path d="M603.8,128.1c1.4,0.3,2.6,0.5,3.8,0.9c2.5,0.8,4,2.6,4.1,5.3c0,0.7,0.2,1.1,0.9,1.3c1.3,0.4,1.7,1.5,1.7,2.8
		c0,3.4,0,6.7-0.1,10.1c0,1.2-0.7,2.1-1.8,2.6c-0.4,0.2-0.7,0.7-0.8,1.1c-0.2,0.9-0.2,1.8-0.4,2.7c-0.5,2.5-1.6,3.7-4.2,4
		c-1,0.1-1.8,0.5-2.4,1.3c-3.3,3.9-7.8,5.2-12.7,5.7c-3.6,0.4-3.6,0.4-3.5,4.1c0,2.1,0,4.2-0.2,6.3c-0.2,1.8-1.1,2.5-2.9,2.6
		c-2.2,0-4.3,0-6.5,0c-1.7,0-2.5-0.7-2.7-2.4c-0.2-1.8-0.2-3.6-0.2-5.4c0-3.4,0-6.7,0-10.1c0-0.3-0.1-0.6-0.2-0.9
		c-0.3-0.7-0.7-1.4-1.2-2.3c-2.2,0-4.6,0-7.1,0c-0.6,13.3-5.8,24.4-16.2,32.8c-8.3,6.8-18,10-28.8,9.8
		c-20.7-0.5-39.7-15.9-42.3-39.4c-0.6,0.3-1.1,0.5-1.6,0.8c-4,1.9-8.1,2.8-12.5,2.8c-17.9,0-35.7,0-53.6,0
		c-10.2,0-20.5-0.1-30.7-0.2c-13.1-0.1-26.2-0.1-39.3-0.2c-8.8,0-17.5-0.1-26.3-0.1c-14.1-0.1-28.1-0.1-42.2-0.2
		c-5.3,0-10.5,0-15.8,0c-20.5,0-41-0.2-61.5,0c-6,0-11.8-0.5-17.5-2.2c-0.6-0.2-1.3-0.3-2-0.4c-0.4,2.2-0.7,4.2-1.3,6.3
		c-4.4,17.3-19,30.2-36.7,32.4c-22.3,2.9-42.8-11.1-48.1-33c-0.2-0.9-0.6-1.2-1.5-1.2c-18,0-36,0-54,0c-1.1,0-2.2-0.1-3.2-0.2
		c-3-0.5-5.3-1.9-6.3-4.9c-0.2,0-0.3-0.1-0.5,0c-3.1,0.1-3.9-0.6-4.3-3.7c0-0.3-0.3-0.7-0.5-1c-0.2,0.4-0.4,0.7-0.4,1.1
		c-0.1,2.2,0,4.5-0.1,6.7c-0.1,1.5-0.8,2.3-2.3,2.4c-1.5,0.1-3,0-4.5,0c-2,0-4.1,0-6.1,0.1c-2.7,0.1-3.6-0.8-3.6-3.6
		c0-1.2,0-2.4,0-3.6c-2.6-1.1-2.9-1.6-2.9-4.2c0-6.7,0.1-13.4,0.1-20.1c0-3.1,1.5-4.8,4.7-5c2.8-0.1,5.5-0.1,8.3-0.1
		c0.4,0,0.8,0,1.3,0c0-0.1,0.1-0.2,0.1-0.3c-0.2-0.2-0.4-0.4-0.6-0.5c-3.6-0.4-4.2-2.5-4.5-5.3c-0.5-5.4-0.9-10.7-1.2-16.1
		c-0.4-7.1-1-14.3-1.1-21.4C7.7,78.8,8,71.5,8.2,64.2c0.1-1.8,1.4-3,3.2-3.1c0.4,0,0.9,0,1.3,0c66.9,0,133.7,0,200.6,0
		c1.7,0,1.8,0,1.9-1.8c0.8-8.2,1.4-16.5,2.4-24.7c1-8.1,2.2-16.2,3.4-24.3c0.8-5.4,4.7-7.7,9.6-8.3c4.4-0.5,8.9-1,13.4-1.1
		c6.8-0.2,13.7-0.1,20.5-0.1c20.4,0,40.9,0,61.3,0.1c12.4,0.1,24.8,0.3,37.2,0.7c11.6,0.4,23.2,1,34.7,3c5.8,1,11.5,2.4,16.7,5.3
		c1,0.5,2.1,1,2.5,2.3c0.1,0.3,0.7,0.5,1,0.8c13.7,8.4,27.6,16.7,41.2,25.4c9.3,5.9,18.3,12.2,27.4,18.2c0.5,0.3,1.2,0.6,1.7,0.6
		c6.2-0.5,12.4,0.2,18.5,0.6c8.7,0.6,17.4,1.2,26,2.1c13.2,1.3,26.3,2.6,39.4,4.1c5.7,0.7,11.3,1.6,16.7,3.8c3,1.2,5.8,2.8,8.5,4.5
		c2.7,1.7,4.2,4.2,4.4,7.4c0,0.7,0.3,1.3,1,1.8c0.4,0.3,0.7,1,0.8,1.5c0.3,1.7,0.5,3.4,0.7,5.1c0.1,1.1-0.3,1.9-1.1,2.6
		c-0.3,0.3-0.6,0.9-0.6,1.4c-0.1,0.6,0.1,1.3,0.1,1.9c-0.1,1.5,0.1,2.7,1.7,3.5c0.6,0.3,1,1.4,1.1,2.2c0.2,1.6,0.1,3.3,0,4.9
		c0,1.1-0.5,2.1-1.5,2.5c-0.7,0.3-0.8,0.7-0.8,1.4c0.1,1.4,0.2,2.8,0.2,4.2c0,0.7,0.3,1,0.9,1.2c2.1,0.7,2.8,2.1,2.6,4.3
		c-0.1,1.1-0.1,2.3,0,3.5c0,1.5-0.6,2.5-2,2.9c-0.9,0.3-1.3,0.8-1.2,1.7C603.9,126.9,603.8,127.5,603.8,128.1z M245.9,22.2
		c0.1-0.4,0.3-0.8,0.4-1.2c0.9-3.5,2.6-5,6.2-5.3c1.1-0.1,2.2-0.1,3.4-0.1c18,0,36,0,54,0c0.9,0,1.8,0,2.6,0c3.3,0,6.6,0,9.8,0
		c0.3,0,0.6-0.2,0.9-0.3c0-0.1-0.1-0.3-0.1-0.4c-0.5,0-1,0-1.5,0c-21.9,0-43.9,0-65.8,0c-1.1,0-2.2,0.1-3.3,0.2
		C248.3,15.6,245.8,18.3,245.9,22.2c-0.1,1-0.3,2-0.3,2.9c0,9.9,0,19.9,0,29.8c0,0.7,0.1,1.4,0.1,2.1c0.2-10.6,0.2-21.1,0.2-31.6
		C245.9,24.3,245.9,23.3,245.9,22.2z M11.5,117.6c0.3,2.4,0.4,4.6,0.8,6.8c0.3,1.9,0.9,2.4,2.8,2.5c2.9,0.2,5.7,0.5,8.6,0.5
		c20.7,0,41.3,0,62,0c1,0,1.5-0.3,2-1.1c11.8-17.2,28.2-25.7,49-24.3c17.6,1.2,31.4,9.6,41.2,24.4c0.5,0.7,1,1,1.8,1
		c12.5,0,24.9,0,37.4,0c0.4,0,0.9,0,1.2,0c-0.1-20.5-0.3-40.8-0.4-61.1c-69.4,0-138.6,0-207.9,0c-0.1,4.1-0.3,8.2-0.4,12.3
		c0.4,0,0.7,0.1,0.9,0.1c8.2,0,16.5,0,24.7,0c1,0,1.9-0.1,2.9,0c2.1,0.2,3.2,1.6,3.2,3.6c0,2.1,0,4.2,0,6.2c0,1.2-0.4,2.2-1.3,3
		c-1.9,1.6-3.7,3.2-5.6,4.7c-1.4,1.1-2,2.2-2,4.1c0.1,4.3,0.1,8.6,0.1,12.9c0,3.1-1.4,4.4-4.5,4.3c-2.4-0.1-4.8,0-7.2,0
		C17.8,117.6,14.7,117.6,11.5,117.6z M454.2,127.4c0-0.4,0.1-0.7,0.1-1c0.3-6.9,0.8-13.9,0.9-20.8c0.2-11.7,0.3-23.3,0.4-35
		c0-2.2-0.2-4.5-0.4-6.7c-0.4-4.4-3-7.4-6.4-9.8c-5-3.7-10-7.4-15-10.9c-11.4-8-22.8-15.9-34.8-22.9c-7.8-4.5-16-7.5-25.1-7.8
		c-9-0.3-18.1-0.4-27.1-0.6c-4.9-0.1-9.7-0.2-14.6-0.3c-2.3,0-4.7,0-7,0c0,0.5,0,0.9,0,1.4c0.6,0,1,0,1.5,0c13.2,0,26.4,0,39.6,0
		c8.6,0,16.9,1.4,24.6,5.5c4.7,2.5,9.5,5,14,7.8c13.2,8.1,26.1,16.8,38.4,26.2c4.6,3.5,8,7.8,8.8,13.7c0.4,2.7,0.9,5.4,1,8.2
		c0.2,2.8-1.2,4.1-3.9,4.3c-0.8,0-1.7,0-2.5,0c-16.3,0-32.7,0-49,0c-3.8,0-7.5-0.7-10.9-2.6c-3.7-2-7.4-3.8-11.2-5.5
		c-1.6-0.8-3.4-1.5-5.2-1.7c-3.3-0.4-6.6-0.6-9.9-0.6c-11.1-0.1-22.2,0-33.3,0c-0.4,0-0.8,0.1-1,0.1c0.3,19.8,0.5,39.5,0.8,59.2
		C369.2,127.4,411.7,127.4,454.2,127.4z M233.1,127.4c30.6,0,61,0,91.6,0c0.1-19.8,0.2-39.5-0.8-59.3c-0.5,0-0.9,0-1.3,0
		c-18.4,0-36.8-0.1-55.2-0.1c-2.7,0-5.3,0-8-0.7c-3.9-1-7.7-2.3-11.2-4.3c-3.1-1.8-4.6-4.4-4.6-8.1c0.1-9.9,0-19.8,0-29.7
		c0-1.5,0.2-3.1,0.5-4.6c0.8-4.1,3.2-6.7,7.4-7.4c1.3-0.2,2.5-0.3,3.8-0.3c22.1,0,44.2,0,66.3,0c0.5,0,1,0,1.6,0
		c0-0.6-0.1-1-0.1-1.6c-1,0-2,0-2.9,0c-7.4,0-14.9-0.1-22.3-0.1c-15.6,0-31.2-0.1-46.8-0.1c-3.4,0-6.9,0.3-10.2,1.2
		c-3.2,0.9-5.3,3-5.8,6.3c-0.3,2.1-0.6,4.2-0.7,6.3c-0.4,9.5-0.7,19-1,28.5c-0.4,11.8-0.8,23.5-0.9,35.3c-0.1,9.6,0.1,19.2,0.3,28.9
		C232.8,120.8,233,124.1,233.1,127.4z M456.3,127.4c0.3,0,0.5,0.1,0.6,0.1c6.4,0,12.8,0,19.2,0c0.4,0,1-0.4,1.2-0.8
		c12.6-18.9,30.2-27.7,52.9-25c17,2,29.9,11,38.9,25.6c0.4,0.7,0.8,1,1.7,1c9,0,18,0,27,0c1.1,0,2.1-0.1,3.2-0.2
		c0.3,0,0.8-0.4,0.8-0.7c0.8-4.1-1-8-5.6-8.2c-3.6-0.2-7.3-0.2-10.9-0.2c-3.7-0.1-5.5-1.7-6-5.3c-0.1-0.7-0.3-1.5-0.7-2.1
		c-6.5-9.5-15.1-16.6-25.4-21.5c-16.8-7.9-34.2-8.7-51.9-3.5c-15.4,4.5-27.6,13.6-36.4,27.1c-2.1,3.2-3.6,6.7-5.3,10
		c-0.5,1-1.2,1.4-1.7,0.8c-0.3-0.4-0.3-1.2-0.1-1.7c4.2-10,10.5-18.4,18.9-25.3c16.9-13.7,36.4-18.1,57.7-15.2
		c15.3,2.1,28.3,9,39.1,19.9c2,2,3.7,4.1,5.6,6.3c0-1.1,0-2.1,0-3c0-1.7-0.5-3.1-1.7-4.3c-0.6-0.6-1.2-1.2-1.9-1.8
		c-3.2-2.7-6.5-5.5-9.7-8.1c-1.3-1.1-2.2-2.4-2.3-4.1c-0.1-1.4-0.1-2.9-0.1-4.3c0.1-1.6,0.9-2.3,2.4-2.4c2.2-0.1,4.5,0,6.7,0
		c7.8,0.1,15.6,0.3,23.4,0.4c1.4,0,2.8,0,4.2,0c0-2.4-0.8-4.5-2.7-5.8c-2.6-1.8-5.3-3.5-8.1-4.7c-5.1-2.3-10.7-3.1-16.3-3.9
		c-6.4-0.9-12.8-1.6-19.2-2.3c-7.3-0.8-14.6-1.4-21.8-2.1c-7.4-0.7-14.9-1.3-22.3-1.8c-6.4-0.4-12.8-0.7-19.3-0.8
		c-2.6-0.1-5.2,0.4-7.8,0.5c0,0.1-0.1,0.2-0.1,0.3c0.2,0.1,0.4,0.2,0.5,0.3c3.6,2.8,7.6,4.9,11.9,6.6c0.3,0.1,0.6,0.2,0.9,0.2
		c4.6,0.2,9.2,0.2,13.8,0.5c13.1,0.8,26.2,1.3,39.2,2.5c11.7,1.1,23.3,2.8,35,4.3c0.7,0.1,1.4,0.3,1.3,1.2c-0.1,0.9-0.8,0.9-1.6,0.8
		c-7.8-1.1-15.5-2.3-23.3-3.1C549.4,72,538.7,71,528,70.4c-13.9-0.8-27.9-1.2-41.8-1.6c-9.1-0.2-18.1-0.1-27.2-0.1
		c-0.4,0-0.9,0-1.3,0C458,88.4,457.3,107.8,456.3,127.4z M326.6,129.5c-0.1,9.8-0.3,19.5-0.4,29.3c42.2,0,84.2,0,126.4,0
		c0.5-9.8,1.1-19.5,1.6-29.3C411.6,129.5,369.1,129.5,326.6,129.5z M337.5,17.7c0.4,15.4,0.9,30.6,1.3,46c0.7,0,1.1,0,1.5,0
		c8.6,0,17.3,0,25.9,0c3.7,0,7.3,0.7,10.7,2.4c3.7,1.8,7.4,3.6,11,5.6c3,1.7,6.1,2.2,9.4,2.2c8.2,0,16.3,0,24.5,0
		c0.4,0,0.7,0,1.3-0.1c-0.6-0.5-0.9-0.8-1.3-1.1c-1.9-1.6-3.2-3.6-3.2-6c0-4.6,0-9.3,0.2-13.9c0.2-3.5,1.8-4.8,5.4-4.8
		c0.9,0,1.8,0,2.6,0c0.4-1.3-0.1-1.8-0.9-2.4c-1.4-0.9-2.8-1.9-4.2-2.8c-9.4-6.3-18.9-12.6-28.8-18.1c-7.8-4.3-16-7.1-25.1-7.1
		c-9.8,0-19.6,0-29.4,0C338.3,17.6,338.1,17.7,337.5,17.7z M23.3,155.7c-0.2,2.7,0.1,2.9,2.3,2.9c0.1,0,0.2,0,0.4,0
		c1.1-0.1,1.7,0.4,2,1.4c0.6,1.9,2,3,3.8,3.4c1.1,0.2,2.3,0.4,3.4,0.4c18,0,35.9,0,53.9,0c0.4,0,0.8,0,1.3-0.1
		c-4-26,15.2-49.7,41.9-50.5c24.2-0.8,46.1,19,44.9,45.9c0.5,0.1,1,0.3,1.5,0.4c6.1,1.8,12.3,2.4,18.7,2.4c28.3-0.1,56.5,0,84.8,0.1
		c14.2,0,28.5,0.1,42.7,0.2c8,0,16.1,0.1,24.1,0.1c13.9,0.1,27.7,0.1,41.6,0.2c7.8,0,15.5,0.1,23.3,0.1c17.4,0,34.7,0,52.1,0
		c4.8,0,9.2-1.2,13.4-3.4c0.6-0.3,0.8-0.7,0.8-1.4c0.1-2.5,0.1-5.1,0.5-7.6c3.9-25.2,28.3-41.6,53.3-35.8c17.2,4,30.5,18.4,33,35.8
		c0.3,1.8,0.4,3.6,0.6,5.5c2.4,0,4.8,0,7.3,0c0-0.8-0.1-1.6-0.1-2.3c-0.4-9-2.7-17.4-7.3-25.1c-10.9-18.3-31.6-27.9-52.8-24.5
		c-23.3,3.7-42.4,23.9-43,49.2c0,1.9,0,3.8-0.1,5.6c0,1.5-0.7,2.2-2.2,2.2c-0.8,0-1.7,0-2.5,0c-79,0-158.1,0-237.1,0
		c-2.7,0-5.3-0.3-7.4-2.2c-0.6,1.6-1.8,2.1-3.4,2c-1.2,0-2.5,0-3.7,0c-9.2,0-18.5,0-27.7,0c-1.6,0-2.7-0.5-3.1-1.8
		c-0.2-0.7-0.1-1.5-0.2-2.2c-0.3-3.9-0.2-7.9-1-11.7c-5.6-27-30.5-44.1-57.2-40.6c-17,2.3-29.8,11.2-38.3,26
		c-4.7,8.2-6.8,17.1-6.5,26.6c0.1,2.5-0.9,3.6-3.1,3.5c-3.4-0.2-6.8-0.5-10.2-0.7c-8.1-0.6-16.2-1.2-24.3-1.8
		c-5.4-0.4-10.7-0.9-16.1-1.4C26.1,156.3,24.8,156,23.3,155.7z M310.5,17.7c-0.3,0-0.7,0-1,0c-18.2,0-36.4,0-54.6,0
		c-1.2,0-2.3,0.1-3.5,0.3c-1.6,0.3-2.7,1.1-3.1,2.8c-0.3,1.2-0.6,2.4-0.6,3.6c0,10.5,0,21,0,31.5c0,1.2,0.4,2.2,1.5,2.8
		c1.2,0.7,2.3,1.5,3.6,1.9c3.4,1.1,6.9,2.1,10.4,3.1c15.5,0,30.9,0,46.4,0c0.5,0,0.9,0,1.4,0C310.9,48.3,310.7,33.1,310.5,17.7z
		 M324.6,129.5c-30.6,0-61,0-91.5,0c0.4,9.8,0.8,19.5,1.3,29.2c30,0,59.8,0,89.8,0C324.3,149,324.4,139.3,324.6,129.5z M482,156.8
		c0.3,23.9,19.3,41.2,40.8,41.5c23.5,0.3,42.4-18,42.6-41c0.2-23.4-18.5-42-41.2-42.2C500.9,114.9,482.1,133.5,482,156.8z
		 M133.4,198.3c22.8,0,41.5-18.5,41.8-40.9c0.3-23-18.2-42.2-41.5-42.3c-23.5-0.1-41.6,18.7-41.9,41
		C91.5,180.1,111.1,198.4,133.4,198.3z M231,127.4c0-0.5,0-0.8,0-1.1c-0.2-10-0.5-20-0.6-29.9c-0.1-4.6,0-9.2,0.1-13.8
		c0.1-6.6,0.3-13.2,0.6-19.8c0.3-8.5,0.6-16.9,0.9-25.4c0.2-5.5,0.4-10.9,0.8-16.4c0.5-7.1,3.5-10.3,10.6-11.3
		c2.7-0.4,5.5-0.6,8.2-0.6c15.4,0,30.9,0,46.3,0.1c9.3,0,18.7,0.1,28,0.2c13.9,0.2,27.9,0.5,41.8,0.7c7.1,0.1,14.2,0.5,21,3
		c5.7,2.1,11,5,16.1,8.2c15.4,9.6,30.3,20,44.8,30.8c1.9,1.4,3.5,3.3,5.3,5c0.2,0.2,0.5,0.5,0.7,0.5c1.9,0,3.8,0,6,0
		c-0.5-0.4-0.7-0.5-0.9-0.7c-21-14.5-41.5-29.7-63.6-42.6c-4.9-2.9-10.1-5.1-15.8-5.4c-5.5-0.3-11.1-0.5-16.6-0.6
		c-10.2-0.2-20.4-0.4-30.6-0.5c-8.4-0.1-16.7-0.2-25.1-0.2c-15.7-0.1-31.4-0.1-47.1-0.1c-8.4,0-16.8,0.2-25.2,0.5
		c-4.5,0.2-8.9,1-12.9,3.3c-0.9,0.5-1.4,1.1-1.5,2.1c-0.7,5.1-1.6,10.1-2.1,15.2c-1.1,10.2-1.9,20.5-3,30.7
		c-0.2,1.9,0.3,3.1,1.7,4.3c0.6,0.5,1,1.5,1,2.3c0.1,12.1,0.1,24.2,0.2,36.3c0,7.3,0.1,14.6,0.2,21.9c0,1.1,0.1,2.1,0.1,3.2
		C224.1,127.4,227.5,127.4,231,127.4z M24.3,129.5c0.2,2.2,0.5,4.4,0.6,6.6c0.3,5.5,0.6,10.9,0.9,16.4c0.1,1.8,0.2,1.9,2.1,2.1
		c4.5,0.4,9.1,0.8,13.6,1.2c6.1,0.5,12.2,0.9,18.3,1.4c6,0.4,12,0.9,17.9,1.3c1,0.1,1.5-0.2,1.4-1.3c-0.4-9.4,1.7-18.3,6-26.7
		c0.2-0.3,0.3-0.6,0.4-1C65.1,129.5,44.7,129.5,24.3,129.5z M179.7,129.5c0.1,0.3,0.2,0.5,0.3,0.7c4.4,8.4,6.5,17.4,6.2,26.9
		c0,1.4,0.1,1.6,1.6,1.6c10.2,0,20.4,0,30.6,0c2,0,2-0.1,1.9-2c-0.5-7.2-1-14.3-1.4-21.5c-0.1-1.9-0.2-3.7-0.3-5.6
		C205.6,129.5,192.7,129.5,179.7,129.5z M484.4,57.6c-0.7-0.5-1.1-0.8-1.4-1c-21.9-14.9-44.1-29.2-67.1-42.4
		c-0.4-0.2-0.9-0.5-1.3-0.4c-3,0-6,0.1-9,0.2c-1.3,0.1-2.6,0.3-4.2,0.5c0.5,0.3,0.7,0.4,0.9,0.6c5.7,3.6,11.5,7.1,17.1,11
		c15,10.2,29.8,20.6,44.7,30.9c0.6,0.4,1.3,0.8,2,0.8c5.2,0.1,10.5,0,15.7,0C482.5,57.7,483.3,57.6,484.4,57.6z M570.9,130.2
		c0.2,0.4,0.3,0.8,0.5,1.1c4.1,8,5.1,16.7,5.6,25.5c0.1,1.6,0.2,1.8,1.5,1.8c4.8-0.1,9.6-0.2,14.4-0.4c4.5-0.3,9.1-0.8,13.6-1.2
		c2.1-0.2,2.7-0.8,2.9-2.8c0.3-2,0.4-4.1,0.4-6.1c0.1-4.4,0.1-8.8,0-13.2c0-2.4-1-3.5-3.2-4.1c-1.2-0.3-2.4-0.5-3.7-0.5
		c-10.5,0-21,0-31.5,0C571.3,130.1,571.2,130.2,570.9,130.2z M412.7,11.3c-0.6-0.3-1.5-0.7-2.4-1.1c-7.5-3-15.4-4.3-23.3-4.9
		c-11.1-0.9-22.3-1.5-33.5-1.9C344.2,3,334.9,3,325.5,3c-19.5,0-38.9,0-58.4,0c-3.2,0-6.4,0-9.6,0c-8.2-0.1-16.5-0.3-24.6,0.8
		c-2.4,0.3-4.8,0.7-6.9,2.1c-1.2,0.8-2,1.9-2.4,3.3c1.8-0.6,3.4-1.3,5.1-1.8c1.7-0.5,3.4-0.9,5.2-1c7-0.4,14-0.8,20.9-0.8
		c13.3-0.1,26.7,0,40,0c8.4,0,16.7,0.1,25.1,0.2c7.7,0.1,15.4,0.2,23.1,0.3c10.7,0.2,21.3,0.4,32,0.5c8.2,0.1,15.9,1.6,23,5.9
		c0.3,0.2,0.7,0.3,1,0.3C403.6,12.3,408.2,11.8,412.7,11.3z M336.9,63.6c-0.4-15.4-0.9-30.6-1.3-45.9c-3.5,0-7,0-10.7,0
		c0.2,15.4,0.4,30.6,0.6,45.9C329.5,63.6,333.2,63.6,336.9,63.6z M313.1,63.6c3.7,0,7.1,0,10.4,0c-0.2-15.3-0.4-30.6-0.6-45.9
		c-3.3,0-6.7,0-10.4,0C312.7,33.1,312.9,48.3,313.1,63.6z M469.6,158.8c-0.5-10.3,1.3-20.1,6.1-29.3c-6.6,0-13.1,0-19.6,0
		c-0.5,9.8-1.1,19.5-1.6,29.3C459.6,158.8,464.5,158.8,469.6,158.8z M441.5,61.8c0,0.5,0,1,0,1.4c0,1.6,0,3.2,0,4.8
		c0,0.4-0.6,1-0.9,1c-0.4,0-0.8-0.5-1-0.9c-0.2-0.2,0-0.6,0-0.9c0-3.3,0-6.5-0.1-9.8c0-1.4-0.3-2.8-1.3-3.9c-1.8-2-3.9-3.3-6.6-3.4
		c-2.4-0.1-4.9-0.1-7.3-0.1c-2.5,0-3.3,0.6-3.4,3.1c-0.2,4.3-0.2,8.7-0.2,13c0,1.6,0.6,3.1,1.7,4.2c1.6,1.7,3.5,3,5.8,3.1
		c3.6,0.2,7.2,0.4,10.7,0.1c4.2-0.4,6.9-4.4,6.1-8.7C444.6,63,443.7,62.2,441.5,61.8z M593.3,97.6c0-4.5,0-9.1,0-13.8
		c-7.8,0-15.5,0-23.2,0c-0.7,2.5,0,4.6,2.3,6.3c2.4,1.9,4.7,3.9,7,6c2.3,2.1,4,4.6,4.2,7.8c0.1,1.9,0.1,3.8,0.1,5.7
		c0,1.4,0.1,2.8,0.2,4.3c3.2,0,6.3,0,9.3,0c0,0,0.1-0.1,0.1-0.2c0-2.2,0-4.3,0.1-6.5c0-0.8,0-1.5-1-1.8c-0.4-0.1-0.8-0.6-1-0.9
		C589.9,102.3,591,98.7,593.3,97.6z M2.8,136.7c0,0.6,0,1,0,1.4c0,5,0,9.9,0,14.9c0,0.9,0,1.8-0.1,2.6c0,1,0.4,1.4,1.5,1.4
		c1.4,0,2.7,0.1,4.1,0c0.4,0,1.1-0.4,1.2-0.8c0.5-1.5,1.5-2.2,2.9-2.2c2.8-0.1,5.5-0.1,8.3-0.1c1.1,0,2.1,0,3.2,0
		c-0.3-5.8-0.6-11.5-0.9-17.2C16.2,136.7,9.6,136.7,2.8,136.7z M9.7,83.6c0.5,0,0.9,0,1.3,0c5.5,0,11,0,16.4,0c1.7,0,2.7,0.6,3,2
		c0.4,1.6,0.4,3.2-0.6,4.6c-1.5,2.2-3.2,4.3-4.7,6.5c-0.5,0.7-0.8,1.6-0.8,2.4c-0.1,3.5,0,6.9,0,10.4c0,2.2-0.9,3.2-3.2,3.3
		c-0.3,0-0.6,0-1,0c-2.9,0-5.9,0-8.9,0c0,0.5,0,0.9,0,1.3c0.1,1.6,0.1,1.6,1.7,1.6c5,0,10.1,0,15.1,0c2,0,2.5-0.4,2.5-2.5
		c0-4.4,0-8.7-0.1-13.1c-0.1-2.2,0.8-3.8,2.5-5.1c1.9-1.5,3.8-3.1,5.6-4.7c0.5-0.4,0.8-1.2,0.8-1.9c0.1-1.7,0-3.4,0-5
		c0-2.3-0.4-2.7-2.7-2.7c-8.6,0-17.1,0-25.7,0c-0.4,0-0.8,0-1.3,0C9.7,81.8,9.7,82.6,9.7,83.6z M11,110.8c3.5,0,6.8,0,10.2,0
		c0.9,0,1.2-0.4,1.1-1.3c0-3.5,0-6.9,0-10.4c0-1.4,0.4-2.5,1.3-3.6c1.6-2.1,3.2-4.2,4.6-6.4c0.5-0.8,0.4-2,0.3-2.9
		c0-0.3-1.3-0.5-2-0.5c-5.1,0-10.1,0-15.2,0c-0.5,0-0.9,0-1.6,0C10.1,94.1,10.6,102.4,11,110.8z M232.3,158.8
		c0.1-0.2,0.1-0.2,0.1-0.3c-0.4-9.4-0.8-18.8-1.2-28.2c0-0.8-0.5-0.8-1.1-0.8c-2.9,0-5.8,0-8.6,0c-0.3,0-0.6,0.1-1,0.1
		c0,0.5,0,0.9,0,1.4c0.3,5.9,0.6,11.7,1,17.6c0.1,2.1,0.4,4.2,0.8,6.3c0.3,1.7,1.4,3,3.2,3.6C227.8,159,230.1,158.8,232.3,158.8z
		 M216.3,64.2c-0.5-1.4-1.7-1-2.6-1c-67,0-134,0-201,0c-0.4,0-0.9-0.1-1.3,0c-0.4,0.1-0.8,0.4-1.2,0.7c0,0.1,0.1,0.2,0.1,0.3
		C79,64.2,147.6,64.2,216.3,64.2z M457.7,66.7c10.5,0,21,0,31.8,0c-0.4-0.2-0.6-0.3-0.7-0.4c-3.2-1.7-6.4-3.7-9.1-6.2
		c-0.3-0.3-0.9-0.4-1.4-0.4c-7,0-14,0-21,0c-0.3,0-0.6,0-0.8,0C456.9,62,457.3,64.3,457.7,66.7z M577.9,160.7c0,3.2,0,6.5,0,9.8
		c0,1.8,0.1,3.5,0.1,5.3c0,0.8,0.4,1.1,1.2,1.1c1.9,0,3.8,0,5.6,0c0.9,0,1.4-0.3,1.5-1.3c0-2.6,0.1-5.1,0.2-7.7
		c0-2.5,0.8-3.3,3.2-3.8c2.7-0.5,5.3-1,8-1.6c1.7-0.4,3.2-1.5,4.5-2.8C594.1,160,586.1,160.4,577.9,160.7z M440.8,53.1
		c0.2,1.8,0.6,3.7,0.7,5.6c0.1,0.8,0.3,1.1,1.1,1.2c2.4,0.5,3.9,2.1,4.3,4.6c1,5.9-2.9,10.9-8.9,11.2c-3.8,0.2-7.6,0.2-11.5,0.2
		c-9.7,0-19.3,0-29,0c-2.7,0-5.5,0-8.1-1.3c-3.6-1.8-7.3-3.6-10.9-5.6c-3.7-2-7.5-3.4-11.7-3.4c-13.3,0-26.7,0-40.1,0
		c-0.3,0-0.6,0.1-0.9,0.1c0,0.1,0,0.2,0,0.3c0.4,0,0.8,0.1,1.2,0.1c12.9,0.1,25.8,0.1,38.7,0.2c3.9,0,7.6,0.7,11.1,2.6
		c3.2,1.7,6.5,3.1,9.6,4.8c4.2,2.4,8.7,3,13.4,3c16.1,0,32.3,0,48.4,0c2.4,0,3.2-0.7,2.9-3.2c-0.2-1.7-0.5-3.4-0.7-5.1
		C449.9,61.5,446.4,56.5,440.8,53.1z M325,15c0,0.2,0.1,0.4,0.1,0.6c0.5,0,0.9,0,1.4,0c6.9,0,13.7,0,20.6,0c5.6,0,11.2-0.1,16.8,0
		c4.5,0.1,9,0.4,13.5,1c6.2,0.8,11.7,3.7,17.1,6.7c11.1,6,21.5,13.2,32,20.2c1.6,1.1,2.9,2,2.6,4.2c0,0,0.1,0.1,0.1,0.1
		c1.9,0.2,3.7,0.4,5.7,0.6c-0.3-0.2-0.4-0.2-0.5-0.3c-13.2-9.5-26.7-18.6-41.1-26.4c-7.4-4-15.2-6.7-23.7-6.7
		c-4.8,0-9.6-0.1-14.4-0.1c-9.6,0-19.2,0-28.8,0C325.9,14.8,325.5,15,325,15z M18.2,155.9c-2,0-3.9,0-5.8,0c-0.3,0-0.8,0.3-0.9,0.6
		c-0.6,2-2,2.5-3.9,2.4c-0.4,0-0.8,0-1.2,0c-0.6,0-0.9,0.2-0.8,0.8c0,1.1,0,2.2,0,3.3c0,0.8,0.4,1.1,1.1,1.1c0.9,0,1.8-0.1,2.6-0.1
		c2.5,0,4.9,0.1,7.4,0.1c0.6,0,1.5,0.2,1.5-0.7C18.3,161,18.2,158.5,18.2,155.9z M601,97.6c-0.2-5-0.5-10-0.7-15c-1.7,0-3.2,0-4.8,0
		c0,5,0,10,0,15C597.3,97.6,599,97.6,601,97.6z M601.5,119.2c0.1-0.1,0.2-0.1,0.3-0.2c-0.1-4.4-0.3-8.8-0.4-13.2c-2.1,0-4,0-6,0
		c0,3.6,0,7,0,10.5c0,0.2,0.5,0.6,0.7,0.6C598.1,117.2,600,117.7,601.5,119.2z M2.9,134.6c6.6,0,13.2,0,19.9,0
		c-0.1-1-0.2-1.9-0.3-2.8c-1.6,0-3.1,0-4.5,0c-4.2,0-8.4,0-12.6,0.1C3.7,131.8,2.8,132.9,2.9,134.6z M567.9,82.2
		c-2.8-0.2-2.8-0.2-2.6,2.8c0,0.2,0,0.3,0,0.5c-0.2,1.9,0.6,3.3,2.1,4.5c3.5,2.8,6.9,5.8,10.4,8.7c2.2,1.9,3.4,4.2,3.3,7.2
		c-0.1,2.5,0,5,0.2,7.4c0.2,2.4,1.1,3.4,3.4,3.5c2.6,0.2,5.3,0.1,7.9,0.1c0.8,0,0.8-0.4,0.5-1c-0.5,0-0.9,0-1.4,0
		c-2.3,0-4.6,0-7-0.1c-2.1,0-2.8-0.7-3-2.8c-0.1-1.2-0.2-2.5-0.1-3.7c0.6-5.7-1-10.4-5.9-13.9c-2.2-1.6-4.2-3.5-6.3-5.3
		c-1-0.8-1.6-1.9-1.6-3.2C567.9,85.4,567.9,83.8,567.9,82.2z M601.2,103.8c0-1.2,0.1-2.2,0-3.3c0-0.3-0.5-0.8-0.7-0.8
		c-2.2-0.1-4.4-0.1-6.6,0c-0.4,0-1,0.6-1,0.9c0.1,1-0.6,2.2,0.5,3.1c0.1,0.1,0.2,0,0.3,0C596.2,103.8,598.6,103.8,601.2,103.8z
		 M323.7,66.1c0-0.1,0-0.3,0-0.4c-0.4,0-0.8-0.1-1.2-0.1c-19.4,0-38.8,0-58.3-0.1c-1.3,0-2.6-0.2-3.9-0.5c-2.5-0.6-5-1.3-7.5-2
		c3.3,1.6,6.8,2.9,10.3,2.9c19.7,0.2,39.4,0.1,59.1,0.1C322.8,66.1,323.3,66.1,323.7,66.1z M603.8,122.8c1.2-0.4,1.2-0.4,1.2-1.4
		c0-1.3,0-2.6,0-4c0-1-0.4-1.4-1.3-1.5C603.8,118.3,603.8,120.5,603.8,122.8z M611.9,148.9c0.1,0,0.2,0,0.2,0c0-3.7,0-7.4,0-11.2
		c-0.1,0-0.2,0-0.2,0C611.9,141.4,611.9,145.1,611.9,148.9z M603.3,99.1c0,2,0,3.9,0,5.9c0.1,0,0.3,0,0.4,0
		C603.7,103,603.9,101,603.3,99.1z M21.5,129.6c0-0.1,0-0.2,0-0.2c-1.4-0.1-2.8-0.2-4.2-0.2c0,0.2,0,0.3,0,0.5
		C18.7,129.6,20.1,129.6,21.5,129.6z"/>
	<path d="M131.8,80.7c20.6,0.3,36.9,6.7,50.3,20.1c6.1,6.1,10.8,13.3,14.2,21.3c0.1,0.2,0.1,0.4,0.2,0.6c0.3,0.7,0.5,1.4-0.4,1.7
		c-0.9,0.3-1.2-0.3-1.5-1c-9-20.8-24.3-34.3-46.5-39c-23-4.9-43.6,0.9-61.2,16.6c-7,6.2-12.2,13.7-16.1,22.3
		c-0.1,0.2-0.1,0.5-0.3,0.5c-0.4,0.2-0.9,0.4-1.4,0.6c-0.2-0.5-0.5-1-0.4-1.4c0.5-1.4,1.2-2.8,1.9-4.1c11.2-20.6,28.4-33,51.5-37.1
		C125.9,81,129.7,80.9,131.8,80.7z"/>
	<path d="M345,79.6c3.4,0,6.7,0,10.1,0c3.2,0,4.3,1.3,4.1,4.4c-0.1,1.9,0,3.8,0,5.6c0,2.3-0.9,3.3-3.2,3.5c-1.6,0.1-3.3,0.1-4.9,0.1
		c-5.4,0-10.9,0-16.3,0c-2.7,0-3.8-1.1-3.8-3.7c0-2,0-4,0-6c0-2.8,1.2-3.9,4-3.9C338.3,79.6,341.6,79.6,345,79.6z M334.8,85.3
		c-0.3,2.6-0.3,2.6,2,2.6c5.5,0,11,0,16.5,0c2.1,0,2.1,0,1.9-2.1c0-0.2-0.1-0.4-0.2-0.6C348.4,85.3,341.6,85.3,334.8,85.3z
		 M333,83.8c0.8-0.2,1.6-0.6,2.4-0.6c6.5,0,13,0,19.5,0c0.8,0,1.5,0.5,2.2,0.8c0.3-1.9,0-2.4-2.1-2.4c-6.6,0-13.3,0-19.9,0
		C333.2,81.6,332.9,82,333,83.8z M333,89.3c-0.1,1.6,0.1,2,1.3,2c7,0,14,0,21.1,0c1.7,0,2.1-0.6,1.7-2.1c-1,0.2-1.9,0.6-2.9,0.6
		c-6.1,0.1-12.3,0.1-18.4,0C334.9,89.8,334,89.5,333,89.3z"/>
	<path d="M442.5,120.3c2.2,0,4.5,0,6.7,0c1,0,1.5,0.4,1.5,1.4c0,0.9-0.1,1.8-0.1,2.7c0,0.8-0.4,1.2-1.2,1.2c-4.6,0-9.2,0.1-13.8,0.1
		c-1,0-1.6-0.5-1.5-1.6c0-0.8,0-1.6,0-2.4c-0.1-1.1,0.5-1.5,1.5-1.5C438,120.3,440.2,120.3,442.5,120.3
		C442.5,120.3,442.5,120.3,442.5,120.3z M436.2,123.7c4.2,0,8.3,0,12.4,0c0-0.5,0-0.8,0-1.2c-4.2,0-8.2,0-12.4,0
		C436.2,122.9,436.2,123.3,436.2,123.7z"/>
	<path d="M251,80.4c3.3,0,6.6,0,9.9,0c3.3,0,4.4,1.2,4.2,4.5c-0.1,1.9,0,3.8,0,5.7c0,2.1-1,3.2-3.1,3.3c-2.5,0.1-5,0.1-7.5,0.1
		c-4.6,0-9.3,0-13.9,0c-2.5,0-3.7-1.1-3.7-3.7c0-2,0-4.1,0-6.1c0-2.7,1.2-3.9,4-3.9C244.3,80.3,247.6,80.4,251,80.4z M240.8,86
		c0,0.4-0.1,0.6-0.1,0.8c-0.1,1.9-0.1,1.9,1.8,1.9c5.6,0,11.1,0,16.7,0c2.3,0,2.3,0,2.1-2.3c0-0.1-0.1-0.2-0.2-0.4
		C254.3,86,247.6,86,240.8,86z M263.2,84.6c0.2-2-0.1-2.3-2.3-2.3c-6.6,0-13.3,0-19.9,0c-1.9,0-2.3,0.5-2,2.2
		c0.8-0.2,1.7-0.5,2.6-0.6c1.1-0.1,2.3,0,3.5,0c5.1,0,10.2,0,15.3,0C261.3,84,262.2,84.4,263.2,84.6z M239,90c-0.1,1.6,0.1,2,1.5,2
		c6.9,0,13.7,0,20.6,0c2.1,0,2.3-0.3,2.1-2.1c-1.1,0.2-2.3,0.6-3.5,0.6c-6,0.1-12,0.1-18,0C240.8,90.5,239.9,90.2,239,90z"/>
	<path d="M523.6,126.3c16.7,0,30.9,13.6,30.6,31.1c-0.3,17.8-15,30.3-31,30c-15-0.2-30.3-12.3-30.1-31.1
		C493.2,140,507,126.3,523.6,126.3z M495.1,157.3c-0.4,15.6,13.7,29.1,30.1,28.1c15.4-0.9,27.9-13.6,27-30.1
		c-0.9-16.5-15-27.9-30.2-27.1C505.6,129.2,494.6,143.4,495.1,157.3z"/>
	<path d="M164.1,156.9c0,17.1-13.6,30.5-30.9,30.4c-16.8,0-30.3-13.8-30.3-30.8c0-16.7,14.1-30.8,31.3-30.3
		C150.4,126.6,164.2,139.8,164.1,156.9z M162.2,156.9c0-15.7-12.8-28.6-28.3-28.6c-16,0-29,12.8-29,28.6c0,15.8,12.9,28.6,28.7,28.6
		C149.5,185.4,162.2,172.7,162.2,156.9z"/>
	<path d="M606.8,143.8c0,2,0,4,0,6c0,2.7-1.2,3.6-3.9,3.8c-3.3,0.3-5.4-0.9-7.1-3.7c-1.1-1.8-1.9-3.5-1.8-5.6c0.1-2.1,0-4.3,0-6.5
		c0-2.4,1-3.3,3.4-3.3c2.1,0,4.1,0,6.2,0c2.1,0,3.1,1,3.1,3.1C606.7,139.6,606.7,141.7,606.8,143.8
		C606.7,143.8,606.7,143.8,606.8,143.8z M604.8,143.9C604.8,143.9,604.8,143.9,604.8,143.9c0-2-0.1-4.1,0-6.1c0-1-0.4-1.5-1.4-1.4
		c-1.9,0.1-3.8,0.1-5.6,0.1c-1.6,0-1.7,0.1-1.7,1.8c0,2,0.1,4.1,0,6.1c-0.1,1.6,0.5,2.9,1.3,4.2c1.3,2.2,2.8,3.5,5.6,3.1
		c1.5-0.2,1.9-0.4,1.9-1.9C604.8,147.8,604.8,145.8,604.8,143.9z"/>
	<path d="M550.5,157.5c-0.4,15.1-12.7,26.6-27.9,26c-14.1-0.5-26.3-12.4-25.5-28.1c0.7-14,13-25.8,27.2-25.3
		C539.2,130.5,550.9,142.8,550.5,157.5z M515.7,180.2c0.5-4.3,2.1-5.9,6.2-6.2c1.1-0.1,2.2-0.1,3.2,0c4.4,0.2,6.1,1.8,6.6,6.2
		c1-0.4,1.9-0.8,2.9-1.2c-2.7-3.2-2.7-5.7-0.1-8.7c0.7-0.8,1.5-1.6,2.2-2.3c1.3-1.2,2.8-2.2,4.7-2.4c1.8-0.1,3.2,0.7,4.5,2
		c0.4-1.1,0.8-2,1.2-3c-3.9-0.2-5.7-1.7-6.1-5.3c-0.2-1.7-0.2-3.4,0-5.1c0.3-3,2-4.9,4.5-5.3c0.5-0.1,0.9-0.1,1.6-0.1
		c-0.4-1-0.8-1.8-1.2-2.7c-3.3,2.6-5.7,2.6-8.8-0.2c-1.1-1-2.2-2-3.1-3.2c-2.1-2.7-2-5.2,0.2-7.8c0.1-0.1,0.1-0.2,0.1-0.4
		c-0.9-0.4-1.8-0.7-2.8-1.1c0.1,2.5-0.6,4.4-2.8,5.3c-3.3,1.4-6.8,1.4-10.1,0c-2.2-0.9-2.9-2.9-2.9-5.4c-1,0.4-2,0.8-2.9,1.2
		c2.5,3.2,2.5,5.6,0.1,8.5c-1.1,1.2-2.3,2.4-3.5,3.4c-2,1.7-5.3,2.3-7.7-0.2c-0.1-0.1-0.2-0.1-0.4-0.1c-0.3,0.9-0.7,1.7-1,2.6
		c4.3,0.6,5.8,2.2,6.1,6.5c0.1,1.2,0,2.5,0,3.7c-0.2,3.5-2.4,5.9-6,5.7c0,0-0.1,0.1-0.2,0.2c0.4,0.9,0.8,1.9,1.2,2.8
		c2.9-2.4,5.1-2.7,7.6-0.9c1.8,1.3,3.4,3,4.8,4.8c1.7,2.3,1.4,4.8-0.6,7c-0.1,0.1-0.2,0.2-0.4,0.5
		C513.9,179.5,514.8,179.8,515.7,180.2z M534.4,175.2c0.5,0.7,1,1.5,1.7,2.2c0.2,0.2,0.9,0.2,1.2,0c2.9-1.9,5.3-4.3,7.2-7.2
		c0.2-0.3,0.1-0.8,0-1c-0.8-1.4-2.5-2-3.9-1.3c-2.5,1.1-4.2,3.1-5.6,5.4C534.7,173.8,534.6,174.4,534.4,175.2z M505.7,167.5
		c-0.8,0.4-1.5,0.6-2.1,1c-0.9,0.6-1.1,1.3-0.3,2.4c1.9,2.5,4.1,4.8,6.7,6.6c0.6,0.4,1,0.4,1.6,0c1.5-1.2,1.9-3.1,0.5-4.8
		c-1.1-1.5-2.5-2.8-3.9-4C507.5,168.1,506.6,167.9,505.7,167.5z M542.1,146c0.2-0.1,0.8-0.2,1.3-0.4c1.5-0.8,1.6-1.5,0.6-2.8
		c-1.7-2.4-3.7-4.5-6.2-6.2c-1.3-0.9-2-0.8-2.7,0.6c-0.3,0.5-0.5,1.1-0.5,1.7C534.7,141.4,539.2,145.9,542.1,146z M523.9,137.8
		c1.1-0.2,2.3-0.2,3.5-0.5c1.6-0.4,2.4-1.7,2.3-3.3c0-0.8-0.3-1.2-1.1-1.4c-3-0.6-5.9-0.7-8.9-0.1c-1.8,0.3-2.4,1.3-1.5,3
		c0.4,0.8,1.4,1.5,2.3,1.9C521.4,137.6,522.6,137.6,523.9,137.8z M523.6,181.6c1.4-0.1,2.8-0.3,4.2-0.4c1.8-0.2,2.4-1.1,1.6-2.8
		c-0.4-0.8-1.2-1.7-2.1-1.9c-2.4-0.8-4.9-0.8-7.3,0c-1.5,0.5-2.3,1.8-2.3,3.3c0,0.8,0.3,1.3,1.2,1.4
		C520.5,181.2,522.1,181.4,523.6,181.6z M548.6,156.8c-0.2-1.6-0.4-3.3-0.7-4.9c-0.1-0.4-0.6-0.8-1-0.9c-1.8-0.4-3.4,0.6-3.7,2.5
		c-0.3,2.2-0.3,4.4,0,6.6c0.2,1.9,2,2.9,3.7,2.5c0.4-0.1,0.9-0.6,0.9-0.9C548.3,160.1,548.4,158.4,548.6,156.8z M504.7,156.7
		c-0.1-1-0.2-2.2-0.4-3.3c-0.4-1.8-1.8-2.7-3.4-2.6c-0.8,0-1.2,0.4-1.3,1.2c-0.6,3-0.5,5.9-0.2,8.9c0.2,1.5,0.9,2,2.4,1.7
		c1.4-0.3,2.2-1.2,2.5-2.6C504.5,159,504.5,157.9,504.7,156.7z M513,138.6c-0.5-0.8-0.9-1.6-1.5-2.3c-0.4-0.5-0.9-0.5-1.5-0.1
		c-2.8,1.9-5.1,4.3-7,7.1c-0.4,0.6-0.3,1.1,0.1,1.6c1.2,1.3,3,1.6,4.6,0.4c1.5-1.2,2.9-2.7,4.2-4.2
		C512.5,140.4,512.6,139.6,513,138.6z"/>
	<path d="M106.8,158c-0.6-15.4,11-26.9,24.5-27.9c14.9-1.1,27.9,10.2,28.9,24.9c1,14.9-10.2,27.6-25.4,28.4
		C119.4,184.3,107.1,172.1,106.8,158z M155.7,146c-2.8,2.5-5.5,2.6-8.2,0.4c-1.3-1.1-2.5-2.3-3.5-3.6c-2.2-2.8-2.1-5.3,0.2-8
		c0,0,0-0.1,0-0.3c-0.8-0.3-1.7-0.7-2.6-1c-0.3,3.5-1.6,5.4-4.6,5.8c-2.3,0.3-4.7,0.3-7,0c-2.8-0.4-4.2-2.3-4.3-5.2
		c0-0.2-0.1-0.4-0.1-0.7c-1,0.4-1.9,0.8-2.9,1.2c0.2,0.2,0.3,0.4,0.4,0.5c1.8,2.1,2.1,4.2,0.7,6.6c-1.3,2.3-3.2,4.2-5.5,5.5
		c-2.2,1.3-4.5,1-6.4-0.7c-0.2-0.1-0.4-0.2-0.6-0.4c-0.4,0.9-0.7,1.8-1.1,2.7c0.3,0,0.4,0.1,0.6,0.1c2.9,0.2,4.6,1.5,5.3,4.3
		c0.6,2.5,0.5,5.1-0.1,7.6c-0.6,2.4-2.5,3.8-5,3.9c-0.3,0-0.5,0-0.9,0c0.4,1.1,0.8,2,1.2,3c3.1-2.4,5.4-2.7,8.1-0.5
		c1.6,1.3,3,2.8,4.3,4.4c1.1,1.4,1.4,3.2,0.8,4.9c-0.3,0.9-1,1.7-1.6,2.7c0.8,0.3,1.7,0.7,2.7,1.1c0.4-4,2.1-5.8,6-6.2
		c1.4-0.1,2.8-0.1,4.2,0c4,0.4,5.5,2,5.8,6.2c1-0.4,2-0.8,3-1.2c-2.6-2.7-2.8-5.4-0.5-8.2c1.1-1.3,2.3-2.6,3.6-3.6
		c2.8-2.2,5.3-2.1,8,0.2c0,0,0.1,0,0.3,0c0.4-0.9,0.7-1.8,1.1-2.7c-4.3-0.5-5.8-1.9-6.2-6.2c-0.1-1-0.1-1.9,0-2.9
		c0-4.4,1.8-6.4,6.2-6.9C156.5,147.8,156.1,147,155.7,146z M144.2,174.9c0.3,0.6,0.5,1.3,0.9,1.9c0.8,1.1,1.3,1.1,2.5,0.4
		c2.5-1.7,4.5-3.7,6.2-6.2c0.9-1.3,0.7-2.1-0.7-2.9c-1.1-0.6-2.4-0.7-3.3,0.1c-1.7,1.5-3.3,3.1-4.9,4.8
		C144.5,173.4,144.4,174.2,144.2,174.9z M122.6,174.7c0-0.2,0-0.5-0.1-0.8c-1.3-2.8-3.3-4.9-6.2-6.1c-1.2-0.5-2.8,0.1-3.5,1.2
		c-0.2,0.3-0.3,1-0.1,1.3c1.8,2.9,4.3,5.2,7.1,7.1c0.3,0.2,0.8,0.2,1,0.1C122,177,122.6,176.1,122.6,174.7z M115.1,146
		c0.5-0.1,0.8-0.1,1-0.1c2.1-0.4,6-4.4,6.4-6.5c0.2-1.2-0.2-2.2-1-3c-0.6-0.5-1.1-0.6-1.8-0.1c-2.6,1.8-4.8,3.9-6.6,6.5
		c-0.8,1.2-0.8,1.8,0.5,2.6C114.1,145.7,114.8,145.9,115.1,146z M133.5,137.7c1.1-0.1,2.4-0.2,3.6-0.5c1.7-0.5,2.5-1.9,2.4-3.5
		c-0.1-0.7-0.4-1-1.1-1.2c-3.2-0.7-6.5-0.7-9.7,0c-0.4,0.1-0.9,0.7-1,1.1c-0.3,1.7,0.7,3.2,2.5,3.7
		C131.1,137.5,132.2,137.6,133.5,137.7z M151.8,146.1c0.6-0.3,1.4-0.6,2-1.1c0.7-0.5,0.8-1.2,0.2-2c-1.9-2.7-4.1-4.9-6.8-6.8
		c-0.7-0.5-1.1-0.4-1.7,0.1c-1.1,1-1.5,2.3-0.9,3.7c1.1,2.4,3.1,4.1,5.3,5.5C150.4,145.8,151,145.9,151.8,146.1z M133.3,181.6
		c1.5-0.2,2.9-0.3,4.4-0.5c1.7-0.2,2.1-0.9,1.6-2.5c-0.3-1.1-1-2-2.1-2.3c-2.5-0.7-5-0.8-7.4,0c-1.6,0.5-2.4,1.9-2.2,3.5
		c0.1,0.7,0.4,1.1,1.1,1.2C130.2,181.2,131.8,181.4,133.3,181.6z M158.3,157c-0.1-1.2-0.2-2.1-0.3-3c0-0.4-0.1-0.9-0.2-1.3
		c-0.3-1.9-1.8-2.5-3.4-1.4c-0.5,0.4-1.1,0.9-1.3,1.5c-0.9,2.6-0.9,5.3,0,7.9c0.5,1.4,1.8,2.1,3.2,2c0.8,0,1.3-0.3,1.4-1.2
		C158,159.9,158.2,158.3,158.3,157z M108.6,157.2c0,0,0.1,0,0.1,0c0.1,1.1,0.1,2.1,0.2,3.2c0,0.4,0.2,0.7,0.2,1.1
		c0,0.9,0.5,1.1,1.3,1.2c1.5,0.1,2.9-0.6,3.4-2.1c0.8-2.5,0.8-5,0-7.5c-0.5-1.6-2-2.4-3.6-2.1c-0.4,0.1-0.8,0.5-0.9,0.8
		C109.1,153.5,108.9,155.4,108.6,157.2z"/>
	<path d="M523.7,170.6c-6.5,0.2-13.6-4.6-13.8-14c-0.2-7.5,6.2-13.6,13.9-13.6c7.7,0,13.8,6.1,13.8,13.7
		C537.7,164.4,531.5,170.6,523.7,170.6z M523.7,168.7c6.5,0,11.9-5.3,12-11.8c0.1-6.4-5.3-11.9-11.7-11.9c-6.6,0-12.1,5.2-12.1,11.7
		C511.8,163.2,517.2,168.7,523.7,168.7z"/>
	<path d="M133.5,170.6c-7.7,0-14-6.3-13.9-14c0.1-7.6,6.3-13.7,13.9-13.7c7.7,0,13.9,6.1,13.9,13.8
		C147.4,164.4,141.2,170.6,133.5,170.6z M145.4,156.8c0-6.5-5.3-11.8-11.7-11.9c-6.6,0-12.3,5.2-12,11.7c0.3,7.8,5.9,12,11.7,12.1
		C140,168.8,145.4,163.4,145.4,156.8z"/>
	<path d="M523.6,148.4c4.8,0,8.5,3.7,8.5,8.4c0,4.7-3.9,8.5-8.6,8.5c-4.3,0-8.5-3.6-8.3-8.7C515.5,152,519,148.4,523.6,148.4z
		 M517.2,157.1c0.1,3.5,3,6.3,6.4,6.2c3.6-0.1,6.6-3.1,6.5-6.6c-0.1-3.7-3-6.4-6.8-6.3C519.8,150.5,517.1,153.5,517.2,157.1z"/>
	<path d="M125,157c-0.1-4.7,3.5-8.5,8.1-8.6c4.8-0.1,8.6,3.4,8.7,8.1c0.1,4.9-3.5,8.7-8.4,8.8C128.9,165.4,125.1,161.7,125,157z
		 M127,157c0.2,3.6,3.1,6.5,6.5,6.3c3.7-0.2,6.5-3.2,6.4-6.9c-0.2-3.6-3.2-6.2-7-6.1C129.6,150.6,126.9,153.6,127,157z"/>
</g>
</svg>
